<svg width="1128.6000000000001" height="342" viewbox = "0 0 1128.6000000000001 342"  xmlns="http://www.w3.org/2000/svg">
	<path d = "M77 77 L77 9 L9 9 L9 77 L77 77 Z" stroke = "#00ff00" stroke-width = "2" fill = "none" />	<path d = "M38 41 L38 23 L20 23 L20 41 L38 41 Z" stroke = "#00ff00" stroke-width = "3" fill = "#0000ff" />	<path d = "M63 41 L63 23 L44 23 L44 41 L63 41 Z" stroke = "#00ff00" stroke-width = "3" fill = "#0000ff" />	<path d = "M63 66 L63 47 L44 47 L44 66 L63 66 Z" stroke = "#00ff00" stroke-width = "3" fill = "#0000ff" />	<path d = "M38 66 L38 47 L20 47 L20 66 L38 66 Z" stroke = "#00ff00" stroke-width = "3" fill = "#0000ff" />	<path d = "M154 77 L154 9 L86 9 L85 77 L154 77 Z" stroke = "#00ff00" stroke-width = "2" fill = "none" />	<path d = "M137 63 L137 26 L100 26 L100 63 L137 63 Z" stroke = "#00ff00" stroke-width = "3" fill = "#0000ff" />	<path d = "M231 77 L231 9 L162 9 L162 77 L231 77 Z" stroke = "#00ff00" stroke-width = "2" fill = "none" />	<path d = "M177 63 L195 63 L186 47 L177 63 Z" stroke = "#00ff00" stroke-width = "3" fill = "#ff0000" />	<path d = "M186 47 L195 31 L204 47 L186 47 Z" stroke = "#00ff00" stroke-width = "3" fill = "#ff0000" />	<path d = "M204 47 L195 63 L214 63 L204 47 Z" stroke = "#00ff00" stroke-width = "3" fill = "#ff0000" />	<path d = "M308 77 L308 9 L239 9 L239 77 L308 77 Z" stroke = "#00ff00" stroke-width = "2" fill = "none" />	<path d = "M291 63 L291 26 L259 44 L291 63 Z" stroke = "#00ff00" stroke-width = "3" fill = "#ff0000" />	<path d = "M385 77 L385 9 L316 9 L316 77 L385 77 Z" stroke = "#00ff00" stroke-width = "2" fill = "none" />	<path d = "M368 44 L349 26 L368 26 L368 44 Z" stroke = "#00ff00" stroke-width = "3" fill = "#800080" />	<path d = "M368 44 L368 63 L349 63 L368 44 Z" stroke = "#00ff00" stroke-width = "3" fill = "#800080" />	<path d = "M349 26 L331 26 L331 44 L349 26 Z" stroke = "#00ff00" stroke-width = "3" fill = "#800080" />	<path d = "M331 44 L331 63 L349 63 L331 44 Z" stroke = "#00ff00" stroke-width = "3" fill = "#800080" />	<path d = "M462 77 L462 9 L393 9 L393 77 L462 77 Z" stroke = "#00ff00" stroke-width = "2" fill = "none" />	<path d = "M445 63 L445 26 L408 26 L445 63 Z" stroke = "#00ff00" stroke-width = "3" fill = "#800080" />	<path d = "M539 77 L539 9 L470 9 L470 77 L539 77 Z" stroke = "#00ff00" stroke-width = "2" fill = "none" />	<path d = "M491 44 L515 44 L496 58 L503 35 L510 58 L491 44 Z" stroke = "#00ff00" stroke-width = "3" fill = "#ffff00" />	<path d = "M616 77 L616 9 L547 9 L547 77 L616 77 Z" stroke = "#00ff00" stroke-width = "2" fill = "none" />	<path d = "M580 56 L580 32 L566 52 L580 56 Z" stroke = "#00ff00" stroke-width = "3" fill = "#ffff00" />	<path d = "M693 77 L693 9 L624 9 L624 77 L693 77 Z" stroke = "#00ff00" stroke-width = "2" fill = "none" />	<path d = "M657 56 L657 32 L666 44 L657 56 Z" stroke = "#00ff00" stroke-width = "3" fill = "#ffff00" />	<path d = "M770 77 L770 9 L701 9 L701 77 L770 77 Z" stroke = "#00ff00" stroke-width = "2" fill = "none" />	<path d = "M734 26 L729 35 L739 35 L734 26 Z" stroke = "#00ff00" stroke-width = "3" fill = "#ff7900" />	<path d = "M739 35 L750 35 L744 44 L739 35 Z" stroke = "#00ff00" stroke-width = "3" fill = "#ff7900" />	<path d = "M744 44 L750 53 L739 53 L744 44 Z" stroke = "#00ff00" stroke-width = "3" fill = "#ff7900" />	<path d = "M739 53 L734 63 L729 53 L739 53 Z" stroke = "#00ff00" stroke-width = "3" fill = "#ff7900" />	<path d = "M729 53 L718 53 L723 44 L729 53 Z" stroke = "#00ff00" stroke-width = "3" fill = "#ff7900" />	<path d = "M723 44 L718 35 L729 35 L723 44 Z" stroke = "#00ff00" stroke-width = "3" fill = "#ff7900" />	<path d = "M846 77 L846 9 L778 9 L778 77 L846 77 Z" stroke = "#00ff00" stroke-width = "2" fill = "none" />	<path d = "M829 63 L829 26 L808 26 L829 63 Z" stroke = "#00ff00" stroke-width = "3" fill = "#ff7900" />	<path d = "M923 77 L923 9 L855 9 L855 77 L923 77 Z" stroke = "#00ff00" stroke-width = "2" fill = "none" />	<path d = "M869 63 L869 26 L891 26 L869 63 Z" stroke = "#00ff00" stroke-width = "3" fill = "#ff7900" />	<path d = "M1000 77 L1000 9 L932 9 L932 77 L1000 77 Z" stroke = "#00ff00" stroke-width = "2" fill = "none" />	<path d = "M983 63 L983 26 L972 44 L983 63 Z" stroke = "#00ff00" stroke-width = "3" fill = "#ff7900" />	<path d = "M180 154 L180 86 L111 86 L111 154 L180 154 Z" stroke = "#00ff00" stroke-width = "2" fill = "none" />  <path d="M152.43305191657993 112.61694808342008           A12.091525958289964 12.091525958289964 0 0 1 152.43305191657993 129.71694808342008" fill = "none" stroke = "#00ff00" stroke-width = "2" />
  <path d="M135.33305191657993 112.61694808342007           A12.091525958289964 12.091525958289964 0 0 1 152.43305191657993 112.61694808342008" fill = "none" stroke = "#00ff00" stroke-width = "2" />
  <path d="M135.33305191657993 129.71694808342008           A12.091525958289964 12.091525958289964 0 0 1 135.33305191657993 112.61694808342007" fill = "none" stroke = "#00ff00" stroke-width = "2" />
	<path d = "M124 125 L135 130 L140 119 " stroke = "#00ff00" stroke-width = "2" fill = "none" />	<path d = "M257 154 L257 86 L188 86 L188 154 L257 154 Z" stroke = "#00ff00" stroke-width = "2" fill = "none" />	<path d = "M227 133 L215 133 L215 121 L209 121 L215 115 L221 109 L227 115 L233 121 L227 121 L227 133 Z" stroke = "#00ff00" stroke-width = "2" fill = "none" />	<path d = "M333 154 L333 86 L265 86 L265 154 L333 154 Z" stroke = "#00ff00" stroke-width = "2" fill = "none" />  <path d="M289.23305191658 129.71694808342008           A12.091525958289964 12.091525958289964 0 0 1 289.23305191658 112.61694808342008" fill = "none" stroke = "#00ff00" stroke-width = "2" />
  <path d="M289.23305191658 112.61694808342008           A12.091525958289964 12.091525958289964 0 0 1 306.33305191658 112.61694808342008" fill = "none" stroke = "#00ff00" stroke-width = "2" />
  <path d="M306.33305191658 112.61694808342008           A12.091525958289964 12.091525958289964 0 0 1 306.33305191658 129.71694808342008" fill = "none" stroke = "#00ff00" stroke-width = "2" />
	<path d = "M302 119 L306 130 L318 125 " stroke = "#00ff00" stroke-width = "2" fill = "none" />	<path d = "M410 154 L410 86 L342 86 L342 154 L410 154 Z" stroke = "#00ff00" stroke-width = "2" fill = "none" />	<path d = "M487 154 L487 86 L419 86 L419 154 L487 154 Z" stroke = "#00ff00" stroke-width = "2" fill = "none" />	<path d = "M564 154 L564 86 L496 86 L496 154 L564 154 Z" stroke = "#00ff00" stroke-width = "2" fill = "none" />	<path d = "M641 154 L641 86 L573 86 L573 154 L641 154 Z" stroke = "#00ff00" stroke-width = "2" fill = "none" />	<path d = "M718 154 L718 86 L650 86 L650 154 L718 154 Z" stroke = "#00ff00" stroke-width = "2" fill = "none" />	<path d = "M795 154 L795 86 L727 86 L727 154 L795 154 Z" stroke = "#00ff00" stroke-width = "2" fill = "none" />	<path d = "M872 154 L872 86 L804 86 L804 154 L872 154 Z" stroke = "#00ff00" stroke-width = "2" fill = "none" />	<path d = "M949 154 L949 86 L881 86 L881 154 L949 154 Z" stroke = "#00ff00" stroke-width = "2" fill = "none" />	<path d = "M1026 154 L1026 86 L958 86 L958 154 L1026 154 Z" stroke = "#00ff00" stroke-width = "2" fill = "none" />	<path d = "M1103 154 L1103 86 L1035 86 L1035 154 L1103 154 Z" stroke = "#00ff00" stroke-width = "2" fill = "none" />	<path d = "M214 231 L214 162 L145 162 L145 231 L214 231 Z" stroke = "#00ff00" stroke-width = "2" fill = "none" />	<path d = "M190 192 L190 204 L178 204 L178 210 L172 204 L166 198 L172 192 L178 186 L178 192 L190 192 Z" stroke = "#00ff00" stroke-width = "2" fill = "none" />	<path d = "M291 231 L291 162 L222 162 L222 231 L291 231 Z" stroke = "#00ff00" stroke-width = "2" fill = "none" />	<path d = "M249 186 L261 186 L261 198 L267 198 L261 204 L255 210 L249 204 L243 198 L249 198 L249 186 Z" stroke = "#00ff00" stroke-width = "2" fill = "none" />	<path d = "M368 231 L368 162 L299 162 L299 231 L368 231 Z" stroke = "#00ff00" stroke-width = "2" fill = "none" />	<path d = "M320 204 L320 192 L332 192 L332 186 L338 192 L344 198 L338 204 L332 210 L332 204 L320 204 Z" stroke = "#00ff00" stroke-width = "2" fill = "none" />	<path d = "M445 231 L445 162 L376 162 L376 231 L445 231 Z" stroke = "#00ff00" stroke-width = "2" fill = "none" />    <circle cx="409" cy = "210" r = "1.5114407447862455" stroke = "#00ff00" stroke-width = "2" fill = "#000000" />
    <circle cx="409" cy = "186" r = "1.5114407447862455" stroke = "#00ff00" stroke-width = "2" fill = "#000000" />
    <line x1="409" y1="210" x2="409" y2="186" style="stroke:#00ff00;stroke-width:2" />
    <line x1="409" y1="186" x2="405" y2="190" style="stroke:#00ff00;stroke-width:2" />
    <line x1="409" y1="186" x2="413" y2="190" style="stroke:#00ff00;stroke-width:2" />
	<path d = "M522 231 L522 162 L453 162 L453 231 L522 231 Z" stroke = "#00ff00" stroke-width = "2" fill = "none" /><circle cx="486" cy = "198" r = "2" stroke = "#00ff00" stroke-width = "2" fill = "#00ff00" />
<circle cx="486" cy = "198" r = "18.47420776086049" stroke = "#00ff00" stroke-width = "2" fill = "none" />
	<path d = "M599 231 L599 162 L530 162 L530 231 L599 231 Z" stroke = "#00ff00" stroke-width = "2" fill = "none" />	<path d = "M675 231 L675 162 L607 162 L607 231 L675 231 Z" stroke = "#00ff00" stroke-width = "2" fill = "none" />	<path d = "M752 231 L752 162 L684 162 L684 231 L752 231 Z" stroke = "#00ff00" stroke-width = "2" fill = "none" />	<path d = "M829 231 L829 162 L761 162 L761 231 L829 231 Z" stroke = "#00ff00" stroke-width = "2" fill = "none" />	<path d = "M906 231 L906 162 L838 162 L838 231 L906 231 Z" stroke = "#00ff00" stroke-width = "2" fill = "none" />	<path d = "M983 231 L983 162 L915 162 L915 231 L983 231 Z" stroke = "#00ff00" stroke-width = "2" fill = "none" />	<path d = "M248 308 L248 239 L180 239 L180 308 L248 308 Z" stroke = "#00ff00" stroke-width = "2" fill = "none" />    <line x1="224" y1="275" x2="200" y2="275" style="stroke:#00ff00;stroke-width:2" />
	<path d = "M325 308 L325 239 L257 239 L257 308 L325 308 Z" stroke = "#00ff00" stroke-width = "2" fill = "none" />    <line x1="289" y1="275" x2="289" y2="263" style="stroke:#00ff00;stroke-width:2" />
    <line x1="289" y1="275" x2="277" y2="275" style="stroke:#00ff00;stroke-width:2" />
    <line x1="289" y1="275" x2="289" y2="287" style="stroke:#00ff00;stroke-width:2" />
    <line x1="289" y1="275" x2="301" y2="275" style="stroke:#00ff00;stroke-width:2" />
	<path d = "M402 308 L402 239 L333 239 L333 308 L402 308 Z" stroke = "#00ff00" stroke-width = "2" fill = "none" />	<path d = "M479 308 L479 239 L410 239 L410 308 L479 308 Z" stroke = "#00ff00" stroke-width = "2" fill = "none" />	<path d = "M455 287 L455 263 L431 263 L431 287 L455 287 Z" stroke = "#00ff00" stroke-width = "3" fill = "rgba(0, 0, 0, 0)" />    <line x1="431" y1="293" x2="431" y2="287" style="stroke:#00ff00;stroke-width:3" />
	<path d = "M556 308 L556 239 L487 239 L487 308 L556 308 Z" stroke = "#00ff00" stroke-width = "3" fill = "none" />	<path d = "M532 287 L532 263 L508 263 L508 287 L532 287 Z" stroke = "#00ff00" stroke-width = "3" fill = "#ff0000" />    <line x1="508" y1="293" x2="508" y2="287" style="stroke:#00ff00;stroke-width:3" />
    <line x1="511" y1="293" x2="511" y2="287" style="stroke:#00ff00;stroke-width:3" />
	<path d = "M633 308 L633 239 L564 239 L564 308 L633 308 Z" stroke = "#00ff00" stroke-width = "3" fill = "none" />	<path d = "M609 287 L609 263 L585 263 L585 287 L609 287 Z" stroke = "#00ff00" stroke-width = "3" fill = "#ff7900" />    <line x1="585" y1="293" x2="585" y2="287" style="stroke:#00ff00;stroke-width:3" />
    <line x1="588" y1="293" x2="588" y2="287" style="stroke:#00ff00;stroke-width:3" />
    <line x1="591" y1="293" x2="591" y2="287" style="stroke:#00ff00;stroke-width:3" />
	<path d = "M710 308 L710 239 L641 239 L641 308 L710 308 Z" stroke = "#00ff00" stroke-width = "3" fill = "none" />	<path d = "M686 287 L686 263 L662 263 L662 287 L686 287 Z" stroke = "#00ff00" stroke-width = "3" fill = "#ffff00" />    <line x1="662" y1="293" x2="662" y2="287" style="stroke:#00ff00;stroke-width:3" />
    <line x1="665" y1="293" x2="665" y2="287" style="stroke:#00ff00;stroke-width:3" />
    <line x1="668" y1="293" x2="668" y2="287" style="stroke:#00ff00;stroke-width:3" />
    <line x1="671" y1="293" x2="671" y2="287" style="stroke:#00ff00;stroke-width:3" />
	<path d = "M787 308 L787 239 L718 239 L718 308 L787 308 Z" stroke = "#00ff00" stroke-width = "3" fill = "none" />	<path d = "M763 287 L763 263 L739 263 L739 287 L763 287 Z" stroke = "#00ff00" stroke-width = "3" fill = "#008000" />    <line x1="739" y1="293" x2="739" y2="287" style="stroke:#00ff00;stroke-width:3" />
    <line x1="742" y1="293" x2="742" y2="287" style="stroke:#00ff00;stroke-width:3" />
    <line x1="745" y1="293" x2="745" y2="287" style="stroke:#00ff00;stroke-width:3" />
    <line x1="748" y1="293" x2="748" y2="287" style="stroke:#00ff00;stroke-width:3" />
    <line x1="751" y1="293" x2="751" y2="287" style="stroke:#00ff00;stroke-width:3" />
	<path d = "M864 308 L864 239 L795 239 L795 308 L864 308 Z" stroke = "#00ff00" stroke-width = "3" fill = "none" />	<path d = "M840 287 L840 263 L816 263 L816 287 L840 287 Z" stroke = "#00ff00" stroke-width = "3" fill = "#0000ff" />    <line x1="816" y1="293" x2="816" y2="287" style="stroke:#00ff00;stroke-width:3" />
    <line x1="819" y1="293" x2="819" y2="287" style="stroke:#00ff00;stroke-width:3" />
    <line x1="822" y1="293" x2="822" y2="287" style="stroke:#00ff00;stroke-width:3" />
    <line x1="825" y1="293" x2="825" y2="287" style="stroke:#00ff00;stroke-width:3" />
    <line x1="828" y1="293" x2="828" y2="287" style="stroke:#00ff00;stroke-width:3" />
    <line x1="831" y1="293" x2="831" y2="287" style="stroke:#00ff00;stroke-width:3" />
	<path d = "M940 308 L940 239 L872 239 L872 308 L940 308 Z" stroke = "#00ff00" stroke-width = "3" fill = "none" />	<path d = "M917 287 L917 263 L893 263 L893 287 L917 287 Z" stroke = "#00ff00" stroke-width = "3" fill = "#800080" />    <line x1="893" y1="293" x2="893" y2="287" style="stroke:#00ff00;stroke-width:3" />
    <line x1="896" y1="293" x2="896" y2="287" style="stroke:#00ff00;stroke-width:3" />
    <line x1="899" y1="293" x2="899" y2="287" style="stroke:#00ff00;stroke-width:3" />
    <line x1="902" y1="293" x2="902" y2="287" style="stroke:#00ff00;stroke-width:3" />
    <line x1="905" y1="293" x2="905" y2="287" style="stroke:#00ff00;stroke-width:3" />
    <line x1="908" y1="293" x2="908" y2="287" style="stroke:#00ff00;stroke-width:3" />
    <line x1="911" y1="293" x2="911" y2="287" style="stroke:#00ff00;stroke-width:3" />
</svg>