<svg width="600" height="150" viewbox = "0 0 600 150"  xmlns="http://www.w3.org/2000/svg">
<!--<json>{
  "glyph": "0331,0336,0330,0330,0332,0337,0332,0332,0332,0332,0224,01015,0331,0336,0330,0336,0333,0331,0337,0161,0365,0333,0333,0167,0365,0333,0333,0145,0365,0175,0333,0333,0365,0174,0333,0333,0365,0162,0333,0333,0365,0333,0333,0165,0365,0333,0333,0151,0365,0333,0333,0157,0365,01015,",
  "shapes": [
    "0220:01330,01331,01332,01333,01334,01335,01336,01337,01300,0332,0332,0332,0332,0332,0332,0332,0332,0332,",
    "0221:01304,01305,01306,01350,01351,01352,01353,0332,0332,0332,0332,0332,0332,0332,",
    "0222:01310,01311,01312,01313,01314,01316,0332,0332,0332,0332,0332,0332,",
    "0223:01340,01341,01342,01343,01200,01347,01204,01201,0332,0332,0332,0332,0332,0332,0332,0332,",
    "0224:01362,01203,01363,01354,01364,01360,01361,01345,01346,0332,0332,0332,0332,0332,0332,0332,0332,0332,",
    "0225:01366,01367,0332,0332,",
    "0226:01320,01321,01322,01323,01324,01325,01326,01327,0332,0332,0332,0332,0332,0332,0332,0332,",
    "0227:01030,01031,01032,01033,01036,01037,0332,0332,0332,0332,0332,0332,",
    "0230:01020,01021,01022,01023,01010,0332,0332,0332,0332,0332,",
    "0231:01370,01371,0332,0332,",
    "0232:0333,01015,0141,0142,0143,0365,0332,01365,0332,",
    "0233:01210,01211,0332,0332,",
    "0234:",
    "0235:",
    "0236:",
    "0237:",
    "0240:0334,0336,0336,0366,0337,0337,0333,0335,0335,0336,0336,0367,0334,0337,0337,",
    "0241:",
    "0242:",
    "0243:",
    "0244:",
    "0245:",
    "0246:",
    "0247:",
    "01220:0333,0200,0336,0330,0332,0336,0332,0336,0332,0332,0220,0337,0337,0331,0333,0333,0337,",
    "01221:0333,0200,0336,0330,0332,0336,0332,0332,0336,0221,0337,0337,0331,0333,0333,0337,",
    "01222:0333,0200,0336,0330,0332,0332,0336,0336,0222,0337,0337,0331,0333,0333,0337,",
    "01223:0333,0200,0336,0330,0332,0336,0332,0336,0332,0332,0223,0337,0337,0333,0333,0331,0337,",
    "01224:0333,0200,0336,0330,0332,0336,0332,0332,0336,0224,0337,0337,0333,0331,0333,0337,",
    "01225:0333,0200,0336,0330,0332,0336,0332,0225,0332,0337,0333,0331,0333,0337,",
    "01226:0333,0200,0336,0330,0332,0336,0332,0336,0332,0332,0226,0337,0337,0333,0331,0333,0337,",
    "01227:0333,0200,0336,0330,0332,0332,0336,0336,0227,0337,0337,0333,0331,0333,0337,",
    "01230:0333,0200,0336,0330,0332,0332,0336,0336,0230,0337,0337,0331,0333,0333,0337,",
    "01231:0333,0200,0336,0330,0332,0336,0332,0231,0333,0333,0331,0331,0333,0337,0337,",
    "01232:0333,0200,0336,0330,0332,0336,0332,0332,0232,0337,0333,0331,0333,0337,",
    "01233:0333,0200,0336,0330,0332,0336,0332,0233,0332,0337,0333,0331,0333,0337,",
    "01234:0333,0200,0336,0330,0332,0332,0332,0336,0333,0337,0234,0333,0333,0333,0331,0336,0333,0331,0337,0337,0337,0210,0210,0337,0336,",
    "01235:0333,0200,0235,",
    "01236:0333,0200,0236,",
    "01237:0333,0200,0336,0330,0332,0332,0237,0331,0336,0332,0337,0337,",
    "01240:0333,0200,0336,0332,0336,0330,0337,0240,0333,0336,0330,0337,0337,0331,",
    "01241:0333,0200,0336,0332,0241,0333,0337,",
    "01242:0333,0200,0336,0332,0332,0336,0330,0330,0242,0336,0331,0331,0331,0331,0332,0337,0337,0337,",
    "01243:0333,0200,0336,0332,0332,0243,0337,",
    "01244:0333,0200,0332,0336,0330,0336,0336,0243,0243,0243,0243,0331,0331,0331,0331,0337,0337,0337,",
    "01245:0333,0200,0336,0332,0336,0331,0337,0245,0333,0336,0330,0337,0337,",
    "01246:0333,0200,0330,0332,0336,0331,0336,0332,0337,0246,0333,0333,0336,0333,0331,0331,0337,0337,",
    "01247:0333,0200,0336,0330,0332,0337,0247,0336,0333,0331,0337,"
  ],
  "x0rel": 0.5,
  "y0rel": 0.5,
  "unitrel": 0.1,
  "theta0": -1.570796,
  "width": 600,
  "height": 150,
  "scale": 1,
  "backgroundimage": "",
  "style": {
    "color0": "black",
    "fill0": "black",
    "line0": 1,
    "color1": "black",
    "fill1": "black",
    "line1": 5,
    "color2": "red",
    "fill2": "red",
    "line2": 2,
    "color3": "#FF7900",
    "fill3": "#FF7900",
    "line3": 2,
    "color4": "yellow",
    "fill4": "yellow",
    "line4": 2,
    "color5": "green",
    "fill5": "green",
    "line5": 2,
    "color6": "blue",
    "fill6": "blue",
    "line6": 2,
    "color7": "purple",
    "fill7": "purple",
    "line7": 2
  },
  "controlbuttons": [
    196,
    198,
    200,
    203,
    128,
    216,
    217,
    218,
    219,
    220,
    221,
    222,
    223,
    27,
    8,
    134,
    225,
    192,
    16,
    17,
    145,
    151,
    146,
    232,
    233
  ]
}</json>-->	<path d = "M90 75 L90 15 L30 15 L30 75 L90 75 Z" stroke = "#000000" stroke-width = "1" fill = "none" /><circle cx="45" cy = "60" r = "1" stroke = "#000000" stroke-width = "1" fill = "#000000" />
	<path d = "M45 60 L45 30 L75 30 " stroke = "#000000" stroke-width = "1" fill = "none" />	<path d = "M64 19 L75 30 L64 41 " stroke = "#000000" stroke-width = "1" fill = "none" />    <line x1="90" y1="75" x2="101" y2="64" style="stroke:#000000;stroke-width:1" />
    <line x1="105" y1="75" x2="116" y2="64" style="stroke:#000000;stroke-width:1" />
    <line x1="120" y1="75" x2="131" y2="64" style="stroke:#000000;stroke-width:1" />
    <line x1="135" y1="75" x2="146" y2="64" style="stroke:#000000;stroke-width:1" />
	<path d = "M150 75 L150 15 L90 15 L90 75 L150 75 Z" stroke = "#000000" stroke-width = "1" fill = "none" />    <line x1="105" y1="45" x2="135" y2="45" style="stroke:#000000;stroke-width:1" />
    <line x1="135" y1="45" x2="130" y2="50" style="stroke:#000000;stroke-width:1" />
    <line x1="135" y1="45" x2="130" y2="40" style="stroke:#000000;stroke-width:1" />
    <line x1="150" y1="75" x2="161" y2="64" style="stroke:#000000;stroke-width:1" />
    <line x1="165" y1="75" x2="176" y2="64" style="stroke:#000000;stroke-width:1" />
    <line x1="180" y1="75" x2="191" y2="64" style="stroke:#000000;stroke-width:1" />
    <line x1="195" y1="75" x2="206" y2="64" style="stroke:#000000;stroke-width:1" />
	<path d = "M210 75 L210 15 L150 15 L150 75 L210 75 Z" stroke = "#000000" stroke-width = "1" fill = "none" />	<path d = "M165 30 L195 30 L195 60 " stroke = "#000000" stroke-width = "1" fill = "none" />	<path d = "M184 49 L195 60 L206 49 " stroke = "#000000" stroke-width = "1" fill = "none" /><circle cx="195" cy = "60" r = "1" stroke = "#000000" stroke-width = "1" fill = "#000000" />
	<path d = "M270 75 L270 15 L210 15 L210 75 L270 75 Z" stroke = "#000000" stroke-width = "1" fill = "none" />	<path d = "M225 30 L255 30 L255 60 " stroke = "#000000" stroke-width = "1" fill = "none" /><circle cx="255" cy = "60" r = "1" stroke = "#000000" stroke-width = "1" fill = "#000000" />
    <line x1="255" y1="60" x2="260" y2="55" style="stroke:#000000;stroke-width:1" />
    <line x1="255" y1="60" x2="250" y2="55" style="stroke:#000000;stroke-width:1" />
    <line x1="255" y1="60" x2="225" y2="30" style="stroke:#000000;stroke-width:1" />
	<path d = "M330 75 L330 15 L270 15 L270 75 L330 75 Z" stroke = "#000000" stroke-width = "1" fill = "none" />	<path d = "M285 30 L315 30 L315 60 " stroke = "#000000" stroke-width = "1" fill = "none" />	<path d = "M304 49 L315 60 L326 49 " stroke = "#000000" stroke-width = "1" fill = "none" /><circle cx="315" cy = "60" r = "1" stroke = "#000000" stroke-width = "1" fill = "#000000" />
	<path d = "M390 75 L390 15 L330 15 L330 75 L390 75 Z" stroke = "#000000" stroke-width = "1" fill = "none" />    <line x1="345" y1="60" x2="375" y2="60" style="stroke:#000000;stroke-width:1" />
<circle cx="345" cy = "60" r = "1" stroke = "#000000" stroke-width = "1" fill = "#000000" />
<path    d = "M345,60 C375,60 345,30 375,30" fill = "none" stroke-width = "1" stroke = "#000000" />    <line x1="330" y1="75" x2="341" y2="64" style="stroke:#000000;stroke-width:1" />
    <line x1="345" y1="75" x2="356" y2="64" style="stroke:#000000;stroke-width:1" />
    <line x1="360" y1="75" x2="371" y2="64" style="stroke:#000000;stroke-width:1" />
    <line x1="375" y1="75" x2="386" y2="64" style="stroke:#000000;stroke-width:1" />
	<path d = "M450 75 L450 15 L390 15 L390 75 L450 75 Z" stroke = "#000000" stroke-width = "1" fill = "none" /><path    d = "M405,60 C435,60 405,30 435,30" fill = "none" stroke-width = "1" stroke = "#000000" /><circle cx="435" cy = "30" r = "1" stroke = "#000000" stroke-width = "1" fill = "#000000" />
    <line x1="435" y1="30" x2="405" y2="30" style="stroke:#000000;stroke-width:1" />
    <line x1="390" y1="75" x2="401" y2="64" style="stroke:#000000;stroke-width:1" />
    <line x1="405" y1="75" x2="416" y2="64" style="stroke:#000000;stroke-width:1" />
    <line x1="420" y1="75" x2="431" y2="64" style="stroke:#000000;stroke-width:1" />
    <line x1="435" y1="75" x2="446" y2="64" style="stroke:#000000;stroke-width:1" />
    <line x1="450" y1="75" x2="461" y2="64" style="stroke:#000000;stroke-width:1" />
    <line x1="465" y1="75" x2="476" y2="64" style="stroke:#000000;stroke-width:1" />
    <line x1="480" y1="75" x2="491" y2="64" style="stroke:#000000;stroke-width:1" />
    <line x1="495" y1="75" x2="506" y2="64" style="stroke:#000000;stroke-width:1" />
	<path d = "M510 75 L510 15 L450 15 L450 75 L510 75 Z" stroke = "#000000" stroke-width = "1" fill = "none" />  <path d="M449.9999999999922 75.00004901923515           A60 60 0 0 1 510.00001960768293 15.000068626932197" fill = "none" stroke = "#000000" stroke-width = "1" />
    <line x1="510" y1="75" x2="521" y2="64" style="stroke:#000000;stroke-width:1" />
    <line x1="525" y1="75" x2="536" y2="64" style="stroke:#000000;stroke-width:1" />
    <line x1="540" y1="75" x2="551" y2="64" style="stroke:#000000;stroke-width:1" />
    <line x1="555" y1="75" x2="566" y2="64" style="stroke:#000000;stroke-width:1" />
	<path d = "M570 75 L570 15 L510 15 L510 75 L570 75 Z" stroke = "#000000" stroke-width = "1" fill = "none" />  <path d="M510.00001960768293 15.00006862693224           A60 60 0 0 1 569.9999999999858 75.00008823462309" fill = "none" stroke = "#000000" stroke-width = "1" />
    <text x="45" y = "120" fill = "#000000" font-size = "30px" font-family = "Arial">q</text>
    <text x="105" y = "120" fill = "#000000" font-size = "30px" font-family = "Arial">w</text>
    <text x="165" y = "120" fill = "#000000" font-size = "30px" font-family = "Arial">e</text>
    <text x="225" y = "120" fill = "#000000" font-size = "30px" font-family = "Arial">}</text>
    <text x="285" y = "120" fill = "#000000" font-size = "30px" font-family = "Arial">|</text>
    <text x="345" y = "120" fill = "#000000" font-size = "30px" font-family = "Arial">r</text>
    <text x="405" y = "120" fill = "#000000" font-size = "30px" font-family = "Arial">u</text>
    <text x="465" y = "120" fill = "#000000" font-size = "30px" font-family = "Arial">i</text>
    <text x="525" y = "120" fill = "#000000" font-size = "30px" font-family = "Arial">o</text>
</svg>