<svg width="641" height="641" viewbox = "0 0 641 641"  xmlns="http://www.w3.org/2000/svg">
<!--<json>{
  "glyph": "0331,0331,0331,0332,0332,0332,0336,0223,0223,0223,0223,0223,0223,0223,0223,0223,0223,0223,0223,0331,0331,0331,0331,0331,0331,0331,0331,0331,0331,0331,0331,0333,0333,0333,0333,0333,0333,0223,0223,0223,0223,0223,0223,0223,0223,0223,0223,0223,0223,0335,0335,0362,0203,0203,0203,0203,0203,0203,0203,0203,0203,0203,0203,0203,0364,0335,0362,0203,0203,0203,0203,0203,0203,0335,0203,0203,0203,0203,0203,0203,0203,0203,0203,0203,0203,0203,0364,0333,0333,0333,0333,0333,0333,0333,0333,0333,0333,0333,0333,0335,0335,0362,0203,0203,0203,0203,0203,0203,0203,0203,0203,0203,0203,0203,0335,0203,0203,0203,0203,0203,0203,0364,0335,",
  "shapes": [
    "0220:0333,0342,0333,0342,0333,0342,0333,0342,0333,0342,0336,0333,0337,0342,0336,0330,0335,0342,0334,0333,0336,0330,0334,0201,0335,0201,0331,0333,0336,0330,0334,0201,0335,0201,0331,0333,0331,0331,0331,0331,0331,0334,0337,0201,0334,0201,0335,0335,0336,0333,0201,0335,0201,0334,0331,0337,0337,0337,0332,0332,0332,0332,0332,0316,0336,0313,0336,0332,0342,0332,0342,0332,0342,0332,0342,0332,0337,0342,0336,0332,0342,0332,0342,0332,0342,0332,0342,0332,0335,0332,0342,0332,0342,0332,0342,0332,0342,0332,0337,0342,0336,0332,0342,0332,0342,0332,0342,0332,0342,0332,0335,0332,0342,0332,0342,0332,0342,0332,0342,0332,0337,0342,0336,0332,0342,0332,0342,0332,0342,0332,0342,0332,0335,0332,0342,0332,0342,0332,0342,0332,0342,0332,0342,0337,0342,0336,0332,0342,0332,0342,0332,0342,0332,0342,0335,0331,0337,0316,0337,0313,0332,0313,",
    "0221:0336,0330,0333,0336,0336,0341,0337,0337,0331,0333,0337,",
    "0222:0221,0221,0221,0221,0221,0221,0332,0332,0332,0332,0332,0332,",
    "0223:0222,0335,0332,0362,0203,0203,0203,0203,0203,0203,0364,0331,0331,0331,0331,0331,0331,0334,",
    "0224:0336,0336,0223,0223,0223,0223,0223,0223,0335,0335,0362,0203,0203,0203,0203,0203,0203,0334,0203,0203,0203,0203,0203,0203,0334,0203,0203,0203,0203,0203,0203,0364,0331,0331,0331,0331,0331,0331,0332,0332,0332,0332,0332,0332,0337,0337,",
    "0225:0336,0336,0220,0330,0220,0330,0220,0330,0220,0330,0220,0330,0220,0331,0331,0331,0331,0331,0337,0337,",
    "0226:0313,0304,0335,0306,0350,0312,0330,0334,0334,0334,0334,0334,0336,0330,0334,0334,0330,0331,0334,0336,0342,0334,0334,0342,0330,0334,0336,0331,0342,0335,0335,0335,0335,0342,0334,0336,0342,0334,0334,0342,0330,0334,0336,0331,0342,0335,0335,0335,0335,0342,0334,0336,0342,0334,0334,0342,0334,0337,0330,0335,0337,0331,0334,0337,0330,0335,0337,0331,0313,0336,0312,0335,0337,0342,0330,0335,0335,0335,0337,0330,0335,0335,0335,0313,0337,0304,0313,",
    "0227:0331,0220,0333,0332,0222,0333,0330,0332,0335,0335,0332,0223,0335,0335,0221,0312,0336,0331,0306,0334,0313,0337,0330,0335,0304,0335,0335,0336,0312,0337,0313,0304,0330,0335,0330,0335,0330,0335,0330,0334,0331,0335,0330,0334,0334,0350,0310,0337,0335,0330,0336,0335,0304,0335,0306,0334,0330,0335,0335,0330,0335,0335,0330,0335,0335,0304,0334,0226,0335,0306,0350,0334,0312,0336,0330,0335,0335,0330,0331,0334,0334,0331,0337,0313,0304,0332,0225,0335,0305,0334,0311,0336,0330,0335,0350,0335,0337,0304,0334,0224,0335,0305,0350,0334,0311,0336,0330,0335,0335,0335,0335,0335,0304,0305,0330,0334,0334,0311,0337,0330,0335,0335,0304,0335,0313,",
    "0230:0331,0200,0335,0201,0334,0334,0350,0335,0310,0337,0201,0335,0304,0335,0336,0201,0335,0312,0336,0201,0335,0306,0350,0335,0313,0337,0201,0334,0313,0336,0312,0337,0304,0335,0335,0306,0334,0201,0335,0335,0342,0335,0350,0335,0312,0336,0201,0334,0334,0201,0335,0335,0335,0337,0313,0304,0335,0332,0335,0305,0334,0311,0336,0201,0335,0350,0335,0337,0342,0334,0336,0201,0335,0335,0201,0335,0335,0335,0337,0313,0304,0335,",
    "0231:0350,0310,0362,0203,0335,0335,0203,0335,0335,0335,0337,0203,0363,0324,0334,0334,0334,0336,0362,0203,0335,0334,0334,0337,0203,0334,0334,0334,0334,0335,0336,0203,0334,0337,0203,0363,0335,0320,0336,0331,0335,0335,0335,0337,0362,0203,0335,0335,0335,0336,0203,0335,0335,0203,0363,0331,0304,0335,0313,",
    "0232:0336,0336,0336,0336,0336,0362,0203,0337,0203,0306,0334,0337,0203,0335,0335,0203,0203,0334,0334,0203,0203,0335,0335,0203,0203,0334,0334,0203,0203,0335,0335,0203,0203,0334,0334,0203,0335,0203,0336,0336,0203,0304,0337,0337,0337,0337,0337,0364,",
    "0233:0336,0336,0362,0203,0336,0203,0334,0364,0337,0330,0335,0335,0337,0342,0336,0330,0332,0331,0337,0342,0336,0330,0334,0336,0362,0203,0337,0203,0335,0364,0335,0337,0337,0335,0335,",
    "0234:0336,0366,0330,0333,0333,0336,0331,0337,0367,0335,0335,0366,0331,0333,0333,0367,0335,0335,0337,",
    "0235:0313,0336,0314,0336,0313,0337,0234,0234,0234,0234,0314,0337,0313,",
    "0236:0336,0336,0336,0336,0347,0337,0337,0337,0337,",
    "0237:0246,0331,0332,0331,0246,0330,0333,0331,0331,0333,0246,0332,0330,",
    "0240:0304,0313,0200,0336,0332,0350,0335,0310,0337,0304,0313,",
    "0241:0350,0310,0336,0334,0304,0313,0333,0337,",
    "0242:0240,0240,0240,0240,0240,0240,0240,0240,0241,0241,0241,0241,0241,0241,0241,0241,",
    "0243:0306,0201,0335,0335,0201,0335,0335,0201,0336,0331,0335,",
    "0244:0305,0322,0311,0350,0362,0203,0335,0203,0335,0335,0335,0335,0203,0335,0203,0363,0320,0335,0335,0335,0335,0362,0203,0335,0203,0335,0335,0335,0335,0203,0335,0203,0354,0335,0335,0335,0335,",
    "0245:0326,0305,0350,0311,0362,0203,0335,0335,0203,0335,0335,0335,0203,0335,0335,0203,0363,0320,0335,0335,0335,0362,0203,0335,0335,0203,0335,0335,0335,0203,0335,0335,0203,0354,0335,0335,0335,",
    "0246:0306,0322,0362,0203,0334,0203,0334,0334,0203,0334,0203,0334,0363,0334,0325,0362,0203,0335,0203,0335,0335,0203,0335,0203,0363,0335,0335,0330,0326,0334,0362,0203,0335,0335,0203,0335,0203,0335,0335,0203,0363,0320,0335,0201,0335,0335,0201,0335,0201,0335,0335,0201,0334,0201,0335,0335,0201,0335,0201,0335,0333,0201,0335,0335,0201,0335,0201,0335,0335,0330,0331,0314,",
    "0247:0330,0336,0336,0336,0331,01300,01301,01302,01303,01304,01305,01306,01307,0337,0337,0337,0332,0336,0336,0336,0331,01310,01311,01312,01313,01314,01315,01316,01317,0337,0337,0337,0332,0336,0336,0336,0331,01320,01321,01322,01323,01324,01325,01326,01327,0337,0337,0337,0332,0336,0336,0336,0331,01330,01331,01332,01333,01334,01335,01336,01337,0337,0337,0337,0332,0336,0336,0336,0331,01340,01341,01342,01343,01344,01345,01346,01347,0337,0337,0337,0332,0336,0336,0336,0331,01350,01351,01352,01353,01354,01355,01356,01357,0337,0337,0337,0332,0336,0336,0336,0331,01360,01361,01362,01363,01364,01365,01366,01367,0337,0337,0337,0332,0336,0336,0336,0331,01370,01371,01372,01373,01374,01375,01376,01377,0337,0337,0337,0332,",
    "01220:0333,0200,0336,0330,0332,0336,0331,0333,0337,0220,0336,0331,0333,0337,0337,0320,",
    "01221:0333,0200,0336,0330,0332,0336,0331,0332,0221,0221,0331,0333,0337,0337,",
    "01222:0333,0200,0336,0330,0332,0336,0331,0333,0337,0332,0222,0333,0336,0333,0331,0337,0337,",
    "01223:0333,0200,0336,0330,0332,0336,0331,0332,0336,0223,0223,0223,0331,0331,0333,0333,0331,0331,0333,0333,0333,0331,0333,0337,0337,0337,",
    "01224:0333,0200,0336,0332,0330,0224,0333,0331,0337,",
    "01225:0333,0200,0336,0336,0332,0332,0330,0337,0225,0304,0333,0331,0336,0330,0337,0337,",
    "01226:0333,0200,0336,0330,0332,0332,0337,0226,0336,0331,0336,0333,0330,0333,0333,0331,0333,0337,0337,",
    "01227:0333,0200,0336,0330,0332,0210,0227,0211,0331,0333,0337,",
    "01230:0333,0200,0336,0330,0332,0336,0230,0337,0331,0333,0337,",
    "01231:0333,0200,0336,0330,0332,0336,0331,0332,0336,0330,0337,0231,0331,0333,0336,0331,0337,0337,0337,",
    "01232:0333,0200,0336,0330,0332,0331,0336,0330,0337,0232,0336,0330,0337,0333,0337,0331,",
    "01233:0333,0200,0336,0332,0336,0330,0337,0233,0336,0330,0333,0333,0337,0337,0331,",
    "01234:0333,0200,0336,0330,0332,0336,0331,0337,0234,0336,0330,0336,0330,0337,0337,0333,0337,0331,",
    "01235:0333,0200,0336,0332,0336,0330,0337,0235,0336,0330,0337,0333,0337,0331,",
    "01236:0333,0200,0336,0330,0332,0336,0342,0335,0342,0335,0342,0335,0342,0335,0337,0236,0331,0333,0337,",
    "01237:0333,0200,0336,0330,0332,0336,0237,0313,0337,0304,0313,0331,0333,0337,",
    "01240:0333,0200,0336,0330,0332,0336,0331,0333,0337,0240,0240,0241,0241,0336,0331,0333,0337,0337,",
    "01241:0333,0200,0336,0330,0332,0336,0331,0333,0337,0240,0240,0241,0241,0336,0330,0332,0336,0334,0330,0337,0201,0336,0336,0306,0350,0335,0335,0335,0336,0362,0203,0334,0334,0334,0334,0337,0203,0334,0334,0334,0334,0203,0334,0334,0334,0334,0336,0203,0363,0313,0304,0337,0337,0332,0337,0337,0331,0337,0333,",
    "01242:0333,0200,0242,",
    "01243:0333,0200,0336,0330,0332,0336,0331,0337,0306,0201,0335,0335,0201,0335,0335,0201,0335,0335,0313,0304,0336,0331,0333,0333,0337,0337,",
    "01244:0333,0200,0336,0330,0332,0336,0331,0337,0244,0313,0304,0336,0331,0337,0333,0337,",
    "01245:0333,0200,0336,0330,0332,0336,0331,0337,0245,0313,0304,0336,0331,0337,0333,0337,",
    "01246:0333,0200,0336,0330,0332,0336,0331,0246,0313,0331,0313,0304,0333,0333,0337,0337,",
    "01247:0247,0333,"
  ],
  "x0rel": 0.5,
  "y0rel": 0.5,
  "unitrel": 0.1,
  "theta0": -1.570796,
  "width": 641,
  "height": 641,
  "scale": 1,
  "backgroundimage": "",
  "style": {
    "color0": "black",
    "fill0": "black",
    "line0": 1,
    "color1": "black",
    "fill1": "black",
    "line1": 3,
    "color2": "red",
    "fill2": "red",
    "line2": 1,
    "color3": "#FF7900",
    "fill3": "#FF7900",
    "line3": 1,
    "color4": "yellow",
    "fill4": "yellow",
    "line4": 1,
    "color5": "#00ff00",
    "fill5": "#00ff00",
    "line5": 1,
    "color6": "blue",
    "fill6": "blue",
    "line6": 1,
    "color7": "#ff1493",
    "fill7": "#ff1493",
    "line7": 1
  },
  "controlbuttons": [
    196,
    197,
    198,
    232,
    233,
    200,
    201,
    202,
    203,
    204,
    208,
    209,
    210,
    211,
    212,
    213,
    214,
    215,
    216,
    217,
    218,
    219,
    220,
    221,
    222,
    223,
    225,
    227,
    129,
    128,
    146,
    149,
    147,
    145,
    150,
    154,
    155,
    157,
    159,
    164,
    165,
    16,
    8,
    17
  ]
}</json>--><circle cx="144" cy = "497" r = "4.0062500000000005" stroke = "#000000" stroke-width = "1" fill = "none" />
<circle cx="176" cy = "497" r = "4.0062500000000005" stroke = "#000000" stroke-width = "1" fill = "none" />
<circle cx="208" cy = "497" r = "4.0062500000000005" stroke = "#000000" stroke-width = "1" fill = "none" />
<circle cx="240" cy = "497" r = "4.0062500000000005" stroke = "#000000" stroke-width = "1" fill = "none" />
<circle cx="272" cy = "497" r = "4.0062500000000005" stroke = "#000000" stroke-width = "1" fill = "none" />
<circle cx="304" cy = "497" r = "4.0062500000000005" stroke = "#000000" stroke-width = "1" fill = "none" />
	<path d = "M128 481 L160 481 L192 481 L224 481 L256 481 L288 481 L320 481 " stroke = "#000000" stroke-width = "1" fill = "none" /><circle cx="144" cy = "465" r = "4.0062500000000005" stroke = "#000000" stroke-width = "1" fill = "none" />
<circle cx="176" cy = "465" r = "4.0062500000000005" stroke = "#000000" stroke-width = "1" fill = "none" />
<circle cx="208" cy = "465" r = "4.0062500000000005" stroke = "#000000" stroke-width = "1" fill = "none" />
<circle cx="240" cy = "465" r = "4.0062500000000005" stroke = "#000000" stroke-width = "1" fill = "none" />
<circle cx="272" cy = "465" r = "4.0062500000000005" stroke = "#000000" stroke-width = "1" fill = "none" />
<circle cx="304" cy = "465" r = "4.0062500000000005" stroke = "#000000" stroke-width = "1" fill = "none" />
	<path d = "M128 449 L160 449 L192 449 L224 449 L256 449 L288 449 L320 449 " stroke = "#000000" stroke-width = "1" fill = "none" /><circle cx="144" cy = "433" r = "4.0062500000000005" stroke = "#000000" stroke-width = "1" fill = "none" />
<circle cx="176" cy = "433" r = "4.0062500000000005" stroke = "#000000" stroke-width = "1" fill = "none" />
<circle cx="208" cy = "433" r = "4.0062500000000005" stroke = "#000000" stroke-width = "1" fill = "none" />
<circle cx="240" cy = "433" r = "4.0062500000000005" stroke = "#000000" stroke-width = "1" fill = "none" />
<circle cx="272" cy = "433" r = "4.0062500000000005" stroke = "#000000" stroke-width = "1" fill = "none" />
<circle cx="304" cy = "433" r = "4.0062500000000005" stroke = "#000000" stroke-width = "1" fill = "none" />
	<path d = "M128 417 L160 417 L192 417 L224 417 L256 417 L288 417 L320 417 " stroke = "#000000" stroke-width = "1" fill = "none" /><circle cx="144" cy = "401" r = "4.0062500000000005" stroke = "#000000" stroke-width = "1" fill = "none" />
<circle cx="176" cy = "401" r = "4.0062500000000005" stroke = "#000000" stroke-width = "1" fill = "none" />
<circle cx="208" cy = "401" r = "4.0062500000000005" stroke = "#000000" stroke-width = "1" fill = "none" />
<circle cx="240" cy = "401" r = "4.0062500000000005" stroke = "#000000" stroke-width = "1" fill = "none" />
<circle cx="272" cy = "401" r = "4.0062500000000005" stroke = "#000000" stroke-width = "1" fill = "none" />
<circle cx="304" cy = "401" r = "4.0062500000000005" stroke = "#000000" stroke-width = "1" fill = "none" />
	<path d = "M128 385 L160 385 L192 385 L224 385 L256 385 L288 385 L320 385 " stroke = "#000000" stroke-width = "1" fill = "none" /><circle cx="144" cy = "369" r = "4.0062500000000005" stroke = "#000000" stroke-width = "1" fill = "none" />
<circle cx="176" cy = "369" r = "4.0062500000000005" stroke = "#000000" stroke-width = "1" fill = "none" />
<circle cx="208" cy = "369" r = "4.0062500000000005" stroke = "#000000" stroke-width = "1" fill = "none" />
<circle cx="240" cy = "369" r = "4.0062500000000005" stroke = "#000000" stroke-width = "1" fill = "none" />
<circle cx="272" cy = "369" r = "4.0062500000000005" stroke = "#000000" stroke-width = "1" fill = "none" />
<circle cx="304" cy = "369" r = "4.0062500000000005" stroke = "#000000" stroke-width = "1" fill = "none" />
	<path d = "M128 353 L160 353 L192 353 L224 353 L256 353 L288 353 L320 353 " stroke = "#000000" stroke-width = "1" fill = "none" /><circle cx="144" cy = "337" r = "4.0062500000000005" stroke = "#000000" stroke-width = "1" fill = "none" />
<circle cx="176" cy = "337" r = "4.0062500000000005" stroke = "#000000" stroke-width = "1" fill = "none" />
<circle cx="208" cy = "337" r = "4.0062500000000005" stroke = "#000000" stroke-width = "1" fill = "none" />
<circle cx="240" cy = "337" r = "4.0062500000000005" stroke = "#000000" stroke-width = "1" fill = "none" />
<circle cx="272" cy = "337" r = "4.0062500000000005" stroke = "#000000" stroke-width = "1" fill = "none" />
<circle cx="304" cy = "337" r = "4.0062500000000005" stroke = "#000000" stroke-width = "1" fill = "none" />
	<path d = "M128 320 L160 320 L192 320 L224 320 L256 320 L288 320 L320 321 " stroke = "#000000" stroke-width = "1" fill = "none" /><circle cx="144" cy = "304" r = "4.0062500000000005" stroke = "#000000" stroke-width = "1" fill = "none" />
<circle cx="176" cy = "304" r = "4.0062500000000005" stroke = "#000000" stroke-width = "1" fill = "none" />
<circle cx="208" cy = "304" r = "4.0062500000000005" stroke = "#000000" stroke-width = "1" fill = "none" />
<circle cx="240" cy = "304" r = "4.0062500000000005" stroke = "#000000" stroke-width = "1" fill = "none" />
<circle cx="272" cy = "304" r = "4.0062500000000005" stroke = "#000000" stroke-width = "1" fill = "none" />
<circle cx="304" cy = "304" r = "4.0062500000000005" stroke = "#000000" stroke-width = "1" fill = "none" />
	<path d = "M128 288 L160 288 L192 288 L224 288 L256 288 L288 288 L321 288 " stroke = "#000000" stroke-width = "1" fill = "none" /><circle cx="144" cy = "272" r = "4.0062500000000005" stroke = "#000000" stroke-width = "1" fill = "none" />
<circle cx="176" cy = "272" r = "4.0062500000000005" stroke = "#000000" stroke-width = "1" fill = "none" />
<circle cx="208" cy = "272" r = "4.0062500000000005" stroke = "#000000" stroke-width = "1" fill = "none" />
<circle cx="240" cy = "272" r = "4.0062500000000005" stroke = "#000000" stroke-width = "1" fill = "none" />
<circle cx="272" cy = "272" r = "4.0062500000000005" stroke = "#000000" stroke-width = "1" fill = "none" />
<circle cx="304" cy = "272" r = "4.0062500000000005" stroke = "#000000" stroke-width = "1" fill = "none" />
	<path d = "M128 256 L160 256 L192 256 L224 256 L256 256 L288 256 L321 256 " stroke = "#000000" stroke-width = "1" fill = "none" /><circle cx="144" cy = "240" r = "4.0062500000000005" stroke = "#000000" stroke-width = "1" fill = "none" />
<circle cx="176" cy = "240" r = "4.0062500000000005" stroke = "#000000" stroke-width = "1" fill = "none" />
<circle cx="208" cy = "240" r = "4.0062500000000005" stroke = "#000000" stroke-width = "1" fill = "none" />
<circle cx="240" cy = "240" r = "4.0062500000000005" stroke = "#000000" stroke-width = "1" fill = "none" />
<circle cx="272" cy = "240" r = "4.0062500000000005" stroke = "#000000" stroke-width = "1" fill = "none" />
<circle cx="304" cy = "240" r = "4.0062500000000005" stroke = "#000000" stroke-width = "1" fill = "none" />
	<path d = "M128 224 L160 224 L192 224 L224 224 L256 224 L288 224 L321 224 " stroke = "#000000" stroke-width = "1" fill = "none" /><circle cx="144" cy = "208" r = "4.0062500000000005" stroke = "#000000" stroke-width = "1" fill = "none" />
<circle cx="176" cy = "208" r = "4.0062500000000005" stroke = "#000000" stroke-width = "1" fill = "none" />
<circle cx="208" cy = "208" r = "4.0062500000000005" stroke = "#000000" stroke-width = "1" fill = "none" />
<circle cx="240" cy = "208" r = "4.0062500000000005" stroke = "#000000" stroke-width = "1" fill = "none" />
<circle cx="272" cy = "208" r = "4.0062500000000005" stroke = "#000000" stroke-width = "1" fill = "none" />
<circle cx="304" cy = "208" r = "4.0062500000000005" stroke = "#000000" stroke-width = "1" fill = "none" />
	<path d = "M128 192 L160 192 L192 192 L224 192 L256 192 L288 192 L321 192 " stroke = "#000000" stroke-width = "1" fill = "none" /><circle cx="144" cy = "176" r = "4.0062500000000005" stroke = "#000000" stroke-width = "1" fill = "none" />
<circle cx="176" cy = "176" r = "4.0062500000000005" stroke = "#000000" stroke-width = "1" fill = "none" />
<circle cx="208" cy = "176" r = "4.0062500000000005" stroke = "#000000" stroke-width = "1" fill = "none" />
<circle cx="240" cy = "176" r = "4.0062500000000005" stroke = "#000000" stroke-width = "1" fill = "none" />
<circle cx="272" cy = "176" r = "4.0062500000000005" stroke = "#000000" stroke-width = "1" fill = "none" />
<circle cx="304" cy = "176" r = "4.0062500000000005" stroke = "#000000" stroke-width = "1" fill = "none" />
	<path d = "M128 160 L160 160 L192 160 L224 160 L256 160 L288 160 L321 160 " stroke = "#000000" stroke-width = "1" fill = "none" /><circle cx="144" cy = "144" r = "4.0062500000000005" stroke = "#000000" stroke-width = "1" fill = "none" />
<circle cx="176" cy = "144" r = "4.0062500000000005" stroke = "#000000" stroke-width = "1" fill = "none" />
<circle cx="208" cy = "144" r = "4.0062500000000005" stroke = "#000000" stroke-width = "1" fill = "none" />
<circle cx="240" cy = "144" r = "4.0062500000000005" stroke = "#000000" stroke-width = "1" fill = "none" />
<circle cx="272" cy = "144" r = "4.0062500000000005" stroke = "#000000" stroke-width = "1" fill = "none" />
<circle cx="304" cy = "144" r = "4.0062500000000005" stroke = "#000000" stroke-width = "1" fill = "none" />
	<path d = "M128 128 L160 128 L192 128 L224 128 L256 128 L288 128 L321 128 " stroke = "#000000" stroke-width = "1" fill = "none" /><circle cx="337" cy = "497" r = "4.0062500000000005" stroke = "#000000" stroke-width = "1" fill = "none" />
<circle cx="369" cy = "497" r = "4.0062500000000005" stroke = "#000000" stroke-width = "1" fill = "none" />
<circle cx="401" cy = "497" r = "4.0062500000000005" stroke = "#000000" stroke-width = "1" fill = "none" />
<circle cx="433" cy = "497" r = "4.0062500000000005" stroke = "#000000" stroke-width = "1" fill = "none" />
<circle cx="465" cy = "497" r = "4.0062500000000005" stroke = "#000000" stroke-width = "1" fill = "none" />
<circle cx="497" cy = "497" r = "4.0062500000000005" stroke = "#000000" stroke-width = "1" fill = "none" />
	<path d = "M320 481 L353 481 L385 481 L417 481 L449 481 L481 481 L513 481 " stroke = "#000000" stroke-width = "1" fill = "none" /><circle cx="337" cy = "465" r = "4.0062500000000005" stroke = "#000000" stroke-width = "1" fill = "none" />
<circle cx="369" cy = "465" r = "4.0062500000000005" stroke = "#000000" stroke-width = "1" fill = "none" />
<circle cx="401" cy = "465" r = "4.0062500000000005" stroke = "#000000" stroke-width = "1" fill = "none" />
<circle cx="433" cy = "465" r = "4.0062500000000005" stroke = "#000000" stroke-width = "1" fill = "none" />
<circle cx="465" cy = "465" r = "4.0062500000000005" stroke = "#000000" stroke-width = "1" fill = "none" />
<circle cx="497" cy = "465" r = "4.0062500000000005" stroke = "#000000" stroke-width = "1" fill = "none" />
	<path d = "M320 449 L353 449 L385 449 L417 449 L449 449 L481 449 L513 449 " stroke = "#000000" stroke-width = "1" fill = "none" /><circle cx="337" cy = "433" r = "4.0062500000000005" stroke = "#000000" stroke-width = "1" fill = "none" />
<circle cx="369" cy = "433" r = "4.0062500000000005" stroke = "#000000" stroke-width = "1" fill = "none" />
<circle cx="401" cy = "433" r = "4.0062500000000005" stroke = "#000000" stroke-width = "1" fill = "none" />
<circle cx="433" cy = "433" r = "4.0062500000000005" stroke = "#000000" stroke-width = "1" fill = "none" />
<circle cx="465" cy = "433" r = "4.0062500000000005" stroke = "#000000" stroke-width = "1" fill = "none" />
<circle cx="497" cy = "433" r = "4.0062500000000005" stroke = "#000000" stroke-width = "1" fill = "none" />
	<path d = "M320 417 L353 417 L385 417 L417 417 L449 417 L481 417 L513 417 " stroke = "#000000" stroke-width = "1" fill = "none" /><circle cx="337" cy = "401" r = "4.0062500000000005" stroke = "#000000" stroke-width = "1" fill = "none" />
<circle cx="369" cy = "401" r = "4.0062500000000005" stroke = "#000000" stroke-width = "1" fill = "none" />
<circle cx="401" cy = "401" r = "4.0062500000000005" stroke = "#000000" stroke-width = "1" fill = "none" />
<circle cx="433" cy = "401" r = "4.0062500000000005" stroke = "#000000" stroke-width = "1" fill = "none" />
<circle cx="465" cy = "401" r = "4.0062500000000005" stroke = "#000000" stroke-width = "1" fill = "none" />
<circle cx="497" cy = "401" r = "4.0062500000000005" stroke = "#000000" stroke-width = "1" fill = "none" />
	<path d = "M320 385 L353 385 L385 385 L417 385 L449 385 L481 385 L513 385 " stroke = "#000000" stroke-width = "1" fill = "none" /><circle cx="337" cy = "369" r = "4.0062500000000005" stroke = "#000000" stroke-width = "1" fill = "none" />
<circle cx="369" cy = "369" r = "4.0062500000000005" stroke = "#000000" stroke-width = "1" fill = "none" />
<circle cx="401" cy = "369" r = "4.0062500000000005" stroke = "#000000" stroke-width = "1" fill = "none" />
<circle cx="433" cy = "369" r = "4.0062500000000005" stroke = "#000000" stroke-width = "1" fill = "none" />
<circle cx="465" cy = "369" r = "4.0062500000000005" stroke = "#000000" stroke-width = "1" fill = "none" />
<circle cx="497" cy = "369" r = "4.0062500000000005" stroke = "#000000" stroke-width = "1" fill = "none" />
	<path d = "M320 353 L353 353 L385 353 L417 353 L449 353 L481 353 L513 353 " stroke = "#000000" stroke-width = "1" fill = "none" /><circle cx="337" cy = "337" r = "4.0062500000000005" stroke = "#000000" stroke-width = "1" fill = "none" />
<circle cx="369" cy = "337" r = "4.0062500000000005" stroke = "#000000" stroke-width = "1" fill = "none" />
<circle cx="401" cy = "337" r = "4.0062500000000005" stroke = "#000000" stroke-width = "1" fill = "none" />
<circle cx="433" cy = "337" r = "4.0062500000000005" stroke = "#000000" stroke-width = "1" fill = "none" />
<circle cx="465" cy = "337" r = "4.0062500000000005" stroke = "#000000" stroke-width = "1" fill = "none" />
<circle cx="497" cy = "337" r = "4.0062500000000005" stroke = "#000000" stroke-width = "1" fill = "none" />
	<path d = "M320 321 L353 321 L385 321 L417 321 L449 321 L481 321 L513 321 " stroke = "#000000" stroke-width = "1" fill = "none" /><circle cx="337" cy = "304" r = "4.0062500000000005" stroke = "#000000" stroke-width = "1" fill = "none" />
<circle cx="369" cy = "304" r = "4.0062500000000005" stroke = "#000000" stroke-width = "1" fill = "none" />
<circle cx="401" cy = "304" r = "4.0062500000000005" stroke = "#000000" stroke-width = "1" fill = "none" />
<circle cx="433" cy = "304" r = "4.0062500000000005" stroke = "#000000" stroke-width = "1" fill = "none" />
<circle cx="465" cy = "304" r = "4.0062500000000005" stroke = "#000000" stroke-width = "1" fill = "none" />
<circle cx="497" cy = "304" r = "4.0062500000000005" stroke = "#000000" stroke-width = "1" fill = "none" />
	<path d = "M321 288 L353 288 L385 288 L417 288 L449 288 L481 288 L513 288 " stroke = "#000000" stroke-width = "1" fill = "none" /><circle cx="337" cy = "272" r = "4.0062500000000005" stroke = "#000000" stroke-width = "1" fill = "none" />
<circle cx="369" cy = "272" r = "4.0062500000000005" stroke = "#000000" stroke-width = "1" fill = "none" />
<circle cx="401" cy = "272" r = "4.0062500000000005" stroke = "#000000" stroke-width = "1" fill = "none" />
<circle cx="433" cy = "272" r = "4.0062500000000005" stroke = "#000000" stroke-width = "1" fill = "none" />
<circle cx="465" cy = "272" r = "4.0062500000000005" stroke = "#000000" stroke-width = "1" fill = "none" />
<circle cx="497" cy = "272" r = "4.0062500000000005" stroke = "#000000" stroke-width = "1" fill = "none" />
	<path d = "M321 256 L353 256 L385 256 L417 256 L449 256 L481 256 L513 256 " stroke = "#000000" stroke-width = "1" fill = "none" /><circle cx="337" cy = "240" r = "4.0062500000000005" stroke = "#000000" stroke-width = "1" fill = "none" />
<circle cx="369" cy = "240" r = "4.0062500000000005" stroke = "#000000" stroke-width = "1" fill = "none" />
<circle cx="401" cy = "240" r = "4.0062500000000005" stroke = "#000000" stroke-width = "1" fill = "none" />
<circle cx="433" cy = "240" r = "4.0062500000000005" stroke = "#000000" stroke-width = "1" fill = "none" />
<circle cx="465" cy = "240" r = "4.0062500000000005" stroke = "#000000" stroke-width = "1" fill = "none" />
<circle cx="497" cy = "240" r = "4.0062500000000005" stroke = "#000000" stroke-width = "1" fill = "none" />
	<path d = "M321 224 L353 224 L385 224 L417 224 L449 224 L481 224 L513 224 " stroke = "#000000" stroke-width = "1" fill = "none" /><circle cx="337" cy = "208" r = "4.0062500000000005" stroke = "#000000" stroke-width = "1" fill = "none" />
<circle cx="369" cy = "208" r = "4.0062500000000005" stroke = "#000000" stroke-width = "1" fill = "none" />
<circle cx="401" cy = "208" r = "4.0062500000000005" stroke = "#000000" stroke-width = "1" fill = "none" />
<circle cx="433" cy = "208" r = "4.0062500000000005" stroke = "#000000" stroke-width = "1" fill = "none" />
<circle cx="465" cy = "208" r = "4.0062500000000005" stroke = "#000000" stroke-width = "1" fill = "none" />
<circle cx="497" cy = "208" r = "4.0062500000000005" stroke = "#000000" stroke-width = "1" fill = "none" />
	<path d = "M321 192 L353 192 L385 192 L417 192 L449 192 L481 192 L513 192 " stroke = "#000000" stroke-width = "1" fill = "none" /><circle cx="337" cy = "176" r = "4.0062500000000005" stroke = "#000000" stroke-width = "1" fill = "none" />
<circle cx="369" cy = "176" r = "4.0062500000000005" stroke = "#000000" stroke-width = "1" fill = "none" />
<circle cx="401" cy = "176" r = "4.0062500000000005" stroke = "#000000" stroke-width = "1" fill = "none" />
<circle cx="433" cy = "176" r = "4.0062500000000005" stroke = "#000000" stroke-width = "1" fill = "none" />
<circle cx="465" cy = "176" r = "4.0062500000000005" stroke = "#000000" stroke-width = "1" fill = "none" />
<circle cx="497" cy = "176" r = "4.0062500000000005" stroke = "#000000" stroke-width = "1" fill = "none" />
	<path d = "M321 160 L353 160 L385 160 L417 160 L449 160 L481 160 L513 160 " stroke = "#000000" stroke-width = "1" fill = "none" /><circle cx="337" cy = "144" r = "4.0062500000000005" stroke = "#000000" stroke-width = "1" fill = "none" />
<circle cx="369" cy = "144" r = "4.0062500000000005" stroke = "#000000" stroke-width = "1" fill = "none" />
<circle cx="401" cy = "144" r = "4.0062500000000005" stroke = "#000000" stroke-width = "1" fill = "none" />
<circle cx="433" cy = "144" r = "4.0062500000000005" stroke = "#000000" stroke-width = "1" fill = "none" />
<circle cx="465" cy = "144" r = "4.0062500000000005" stroke = "#000000" stroke-width = "1" fill = "none" />
<circle cx="497" cy = "144" r = "4.0062500000000005" stroke = "#000000" stroke-width = "1" fill = "none" />
	<path d = "M321 128 L353 128 L385 128 L417 128 L449 128 L481 128 L513 128 " stroke = "#000000" stroke-width = "1" fill = "none" />	<path d = "M321 128 L321 160 L321 192 L321 224 L321 256 L321 288 L320 321 L320 353 L320 385 L320 417 L320 449 L320 481 L320 513 " stroke = "#000000" stroke-width = "1" fill = "none" />	<path d = "M320 513 L288 513 L256 513 L224 513 L192 513 L160 513 L128 513 L128 481 L128 449 L128 417 L128 385 L128 353 L128 320 L128 288 L128 256 L128 224 L128 192 L128 160 L128 128 " stroke = "#000000" stroke-width = "1" fill = "none" />	<path d = "M513 128 L513 160 L513 192 L513 224 L513 256 L513 288 L513 321 L513 353 L513 385 L513 417 L513 449 L513 481 L513 513 L481 513 L449 513 L417 513 L385 513 L353 513 L320 513 " stroke = "#000000" stroke-width = "1" fill = "none" /></svg>