<svg width="838" height="838" viewbox = "0 0 838 838"  xmlns="http://www.w3.org/2000/svg">
<!--<json>{
  "glyph": "0331,0331,0337,0211,0230,0322,0227,0336,0336,0336,0336,0336,0331,0331,0331,0337,0337,0337,0337,0337,0330,0330,0227,0320,0230,",
  "shapes": [
    "0220:0313,0304,0336,0332,0337,0342,0336,0333,0330,0334,0337,0342,0335,0336,0331,0332,0333,0336,0332,0337,0342,0336,0333,0334,0333,0337,0342,0335,0336,0331,0336,0332,0337,0342,0336,0333,0330,0334,0337,0342,0335,0336,0331,0336,0332,0337,0342,0336,0333,0330,0334,0337,0342,0335,0336,0331,0336,0332,0337,0342,0336,0333,0330,0334,0337,0342,0335,0336,0331,0337,0337,0337,0337,0337,0336,0336,0336,0336,0336,0336,0332,0337,0342,0336,0333,0334,0333,0337,0342,0335,0336,0331,0337,0337,0337,0337,0337,0337,0332,0336,0336,0336,0330,0336,0333,0330,0337,0336,0333,0337,01304,01313,0331,0331,0333,0333,0333,0333,0333,0336,0330,0337,0337,0337,0337,",
    "0221:0304,0334,0306,0336,0330,0335,0201,0335,0335,0201,0335,0335,0201,0335,0304,0335,0336,0330,0336,0331,0332,0330,0336,0333,0337,01306,0331,0331,0336,0332,0337,0337,0337,0333,0337,",
    "0222:0350,0335,0310,0336,0201,0334,0334,0334,0336,0201,0335,0335,0335,0336,0201,0334,0334,0334,0336,0201,0335,0335,0335,0336,0201,0334,0334,0334,0336,0201,0335,0335,0335,0336,0201,0334,0334,0334,0336,0201,0335,0335,0335,0336,0201,0334,0334,0330,0335,0337,0337,0337,0337,0337,0337,0337,0337,0337,0331,0304,0313,0336,0330,0333,0336,0331,0336,0331,0332,0336,0332,0337,01304,01350,01310,0331,0331,0332,0332,0332,0332,0330,0332,0336,0332,0337,0337,0337,0337,",
    "0223:0304,0335,0330,0334,0334,0306,0350,0335,0312,0336,0313,0337,0330,0334,0334,0334,0334,0313,0336,0330,0334,0334,0334,0334,0334,0334,0330,0335,0335,0335,0335,0312,0335,0312,0336,0313,0337,0201,0335,0335,0335,0335,0335,0312,0336,0201,0334,0334,0334,0334,0334,0336,0201,0335,0335,0335,0335,0335,0336,0201,0334,0334,0334,0334,0334,0334,0335,0336,0201,0331,0335,0334,0334,0337,0330,0335,0337,0331,0334,0337,0330,0335,0337,0331,0334,0337,0330,0334,0313,0336,0312,0337,0331,0334,0334,0334,0313,0304,0313,0336,0336,0330,0333,0333,0336,0331,0332,0336,0331,0337,01312,0331,0332,0332,0332,0332,0336,0330,0337,0337,0337,0337,",
    "0224:0304,0313,0335,0311,0305,0350,0330,0334,0334,0334,0334,0336,0330,0334,0334,0330,0335,0337,0335,0335,0335,0335,0336,0330,0335,0335,0335,0336,0201,0334,0334,0334,0336,0201,0335,0335,0335,0336,0201,0334,0334,0334,0336,0201,0335,0335,0335,0336,0201,0334,0334,0334,0336,0201,0335,0335,0335,0334,0330,0334,0337,0337,0337,0337,0337,0337,0336,0331,0334,0334,0334,0330,0335,0335,0337,0331,0335,0304,0337,0334,0313,0336,0336,0336,0333,0333,0333,0336,0330,0332,0337,0336,0336,0331,0332,0337,0337,01305,01311,0331,0332,0332,0332,0332,0336,0330,0336,0330,0332,0337,0337,0337,0337,0337,",
    "0225:0313,0304,0335,0305,0311,0334,0336,0330,0335,0337,0350,0335,0330,0335,0335,0335,0335,0330,0335,0335,0335,0336,0335,0201,0335,0335,0335,0335,0336,0201,0334,0334,0334,0334,0201,0335,0335,0335,0335,0336,0201,0334,0334,0334,0334,0201,0335,0335,0335,0335,0336,0201,0334,0334,0334,0334,0201,0335,0335,0335,0335,0336,0201,0334,0334,0334,0334,0201,0335,0335,0335,0335,0336,0201,0334,0334,0334,0334,0201,0335,0335,0335,0335,0336,0201,0334,0334,0334,0334,0201,0335,0335,0335,0335,0336,0201,0334,0334,0334,0337,0330,0337,0337,0337,0337,0337,0337,0337,0331,0304,0334,0313,",
    "0226:0313,0304,0335,0306,0350,0312,0330,0334,0334,0334,0334,0334,0336,0330,0334,0334,0330,0331,0334,0336,0342,0334,0334,0342,0330,0334,0336,0331,0342,0335,0335,0335,0335,0342,0334,0336,0342,0334,0334,0342,0330,0334,0336,0331,0342,0335,0335,0335,0335,0342,0334,0336,0342,0334,0334,0342,0334,0337,0330,0335,0337,0331,0334,0337,0330,0335,0337,0331,0313,0336,0312,0335,0337,0342,0330,0335,0335,0335,0337,0330,0335,0335,0335,0313,0337,0304,0313,",
    "0227:0331,0220,0333,0332,0222,0333,0330,0332,0335,0335,0332,0223,0335,0335,0221,0312,0336,0331,0306,0334,0313,0337,0330,0335,0304,0335,0335,0336,0312,0337,0313,0304,0330,0335,0330,0335,0330,0335,0330,0334,0331,0335,0330,0334,0334,0350,0310,0337,0335,0330,0336,0335,0304,0335,0306,0334,0330,0335,0335,0330,0335,0335,0330,0335,0335,0304,0334,0226,0335,0306,0350,0334,0312,0336,0330,0335,0335,0330,0331,0334,0334,0331,0337,0313,0304,0332,0225,0335,0305,0334,0311,0336,0330,0335,0350,0335,0337,0304,0334,0224,0335,0305,0350,0334,0311,0336,0330,0335,0335,0335,0335,0335,0304,0305,0330,0334,0334,0311,0337,0330,0335,0335,0304,0335,0313,",
    "0230:0331,0200,0335,0201,0334,0334,0350,0335,0310,0337,0201,0335,0304,0335,0336,0201,0335,0312,0336,0201,0335,0306,0350,0335,0313,0337,0201,0334,0313,0336,0312,0337,0304,0335,0335,0306,0334,0201,0335,0335,0342,0335,0350,0335,0312,0336,0201,0334,0334,0201,0335,0335,0335,0337,0313,0304,0335,0332,0335,0305,0334,0311,0336,0201,0335,0350,0335,0337,0342,0334,0336,0201,0335,0335,0201,0335,0335,0335,0337,0313,0304,0335,",
    "0231:0350,0310,0362,0203,0335,0335,0203,0335,0335,0335,0337,0203,0363,0324,0334,0334,0334,0336,0362,0203,0335,0334,0334,0337,0203,0334,0334,0334,0334,0335,0336,0203,0334,0337,0203,0363,0335,0320,0336,0331,0335,0335,0335,0337,0362,0203,0335,0335,0335,0336,0203,0335,0335,0203,0363,0331,0304,0335,0313,",
    "0232:0336,0336,0336,0336,0336,0362,0203,0337,0203,0306,0334,0337,0203,0335,0335,0203,0203,0334,0334,0203,0203,0335,0335,0203,0203,0334,0334,0203,0203,0335,0335,0203,0203,0334,0334,0203,0335,0203,0336,0336,0203,0304,0337,0337,0337,0337,0337,0364,",
    "0233:0336,0336,0362,0203,0336,0203,0334,0364,0337,0330,0335,0335,0337,0342,0336,0330,0332,0331,0337,0342,0336,0330,0334,0336,0362,0203,0337,0203,0335,0364,0335,0337,0337,0335,0335,",
    "0234:0336,0366,0330,0333,0333,0336,0331,0337,0367,0335,0335,0366,0331,0333,0333,0367,0335,0335,0337,",
    "0235:0313,0336,0314,0336,0313,0337,0234,0234,0234,0234,0314,0337,0313,",
    "0236:0336,0336,0336,0336,0347,0337,0337,0337,0337,",
    "0237:0246,0331,0332,0331,0246,0330,0333,0331,0331,0333,0246,0332,0330,",
    "0240:0304,0313,0200,0336,0332,0350,0335,0310,0337,0304,0313,",
    "0241:0350,0310,0336,0334,0304,0313,0333,0337,",
    "0242:0240,0240,0240,0240,0240,0240,0240,0240,0241,0241,0241,0241,0241,0241,0241,0241,",
    "0243:0306,0201,0335,0335,0201,0335,0335,0201,0336,0331,0335,",
    "0244:0305,0322,0311,0350,0362,0203,0335,0203,0335,0335,0335,0335,0203,0335,0203,0363,0320,0335,0335,0335,0335,0362,0203,0335,0203,0335,0335,0335,0335,0203,0335,0203,0354,0335,0335,0335,0335,",
    "0245:0326,0305,0350,0311,0362,0203,0335,0335,0203,0335,0335,0335,0203,0335,0335,0203,0363,0320,0335,0335,0335,0362,0203,0335,0335,0203,0335,0335,0335,0203,0335,0335,0203,0354,0335,0335,0335,",
    "0246:0306,0322,0362,0203,0334,0203,0334,0334,0203,0334,0203,0334,0363,0334,0325,0362,0203,0335,0203,0335,0335,0203,0335,0203,0363,0335,0335,0330,0326,0334,0362,0203,0335,0335,0203,0335,0203,0335,0335,0203,0363,0320,0335,0201,0335,0335,0201,0335,0201,0335,0335,0201,0334,0201,0335,0335,0201,0335,0201,0335,0333,0201,0335,0335,0201,0335,0201,0335,0335,0330,0331,0314,",
    "0247:0330,0336,0336,0336,0331,01300,01301,01302,01303,01304,01305,01306,01307,0337,0337,0337,0332,0336,0336,0336,0331,01310,01311,01312,01313,01314,01315,01316,01317,0337,0337,0337,0332,0336,0336,0336,0331,01320,01321,01322,01323,01324,01325,01326,01327,0337,0337,0337,0332,0336,0336,0336,0331,01330,01331,01332,01333,01334,01335,01336,01337,0337,0337,0337,0332,0336,0336,0336,0331,01340,01341,01342,01343,01344,01345,01346,01347,0337,0337,0337,0332,0336,0336,0336,0331,01350,01351,01352,01353,01354,01355,01356,01357,0337,0337,0337,0332,0336,0336,0336,0331,01360,01361,01362,01363,01364,01365,01366,01367,0337,0337,0337,0332,0336,0336,0336,0331,01370,01371,01372,01373,01374,01375,01376,01377,0337,0337,0337,0332,",
    "01220:0333,0200,0336,0330,0332,0336,0331,0333,0337,0220,0336,0331,0333,0337,0337,0320,",
    "01221:0333,0200,0336,0330,0332,0331,0336,0333,0330,0337,0221,0336,0331,0333,0337,0337,",
    "01222:0333,0200,0336,0330,0332,0336,0331,0333,0337,0332,0222,0333,0336,0333,0331,0337,0337,",
    "01223:0333,0200,0336,0336,0330,0332,0337,0223,0336,0331,0333,0337,0337,0320,",
    "01224:0333,0200,0336,0332,0330,0224,0333,0331,0337,",
    "01225:0333,0200,0336,0336,0332,0332,0330,0337,0225,0304,0333,0331,0336,0330,0337,0337,",
    "01226:0333,0200,0336,0330,0332,0332,0337,0226,0336,0331,0336,0333,0330,0333,0333,0331,0333,0337,0337,",
    "01227:0333,0200,0336,0330,0332,0210,0227,0211,0331,0333,0337,",
    "01230:0333,0200,0336,0330,0332,0336,0230,0337,0331,0333,0337,",
    "01231:0333,0200,0336,0330,0332,0336,0331,0332,0336,0330,0337,0231,0331,0333,0336,0331,0337,0337,0337,",
    "01232:0333,0200,0336,0330,0332,0331,0336,0330,0337,0232,0336,0330,0337,0333,0337,0331,",
    "01233:0333,0200,0336,0332,0336,0330,0337,0233,0336,0330,0333,0333,0337,0337,0331,",
    "01234:0333,0200,0336,0330,0332,0336,0331,0337,0234,0336,0330,0336,0330,0337,0337,0333,0337,0331,",
    "01235:0333,0200,0336,0332,0336,0330,0337,0235,0336,0330,0337,0333,0337,0331,",
    "01236:0333,0200,0336,0330,0332,0336,0342,0335,0342,0335,0342,0335,0342,0335,0337,0236,0331,0333,0337,",
    "01237:0333,0200,0336,0330,0332,0336,0237,0313,0337,0304,0313,0331,0333,0337,",
    "01240:0333,0200,0336,0330,0332,0336,0331,0333,0337,0240,0240,0241,0241,0336,0331,0333,0337,0337,",
    "01241:0333,0200,0336,0330,0332,0336,0331,0333,0337,0240,0240,0241,0241,0336,0330,0332,0336,0334,0330,0337,0201,0336,0336,0306,0350,0335,0335,0335,0336,0362,0203,0334,0334,0334,0334,0337,0203,0334,0334,0334,0334,0203,0334,0334,0334,0334,0336,0203,0363,0313,0304,0337,0337,0332,0337,0337,0331,0337,0333,",
    "01242:0333,0200,0242,",
    "01243:0333,0200,0336,0330,0332,0336,0331,0337,0306,0201,0335,0335,0201,0335,0335,0201,0335,0335,0313,0304,0336,0331,0333,0333,0337,0337,",
    "01244:0333,0200,0336,0330,0332,0336,0331,0337,0244,0313,0304,0336,0331,0337,0333,0337,",
    "01245:0333,0200,0336,0330,0332,0336,0331,0337,0245,0313,0304,0336,0331,0337,0333,0337,",
    "01246:0333,0200,0336,0330,0332,0336,0331,0246,0313,0331,0313,0304,0333,0333,0337,0337,",
    "01247:0247,0333,"
  ],
  "x0rel": 0.5,
  "y0rel": 0.5,
  "unitrel": 0.1,
  "theta0": -1.570796,
  "width": 838,
  "height": 838,
  "scale": 1,
  "backgroundimage": "",
  "style": {
    "color0": "black",
    "fill0": "black",
    "line0": 1,
    "color1": "black",
    "fill1": "black",
    "line1": 3,
    "color2": "red",
    "fill2": "red",
    "line2": 1,
    "color3": "#FF7900",
    "fill3": "#FF7900",
    "line3": 1,
    "color4": "yellow",
    "fill4": "yellow",
    "line4": 1,
    "color5": "#00ff00",
    "fill5": "#00ff00",
    "line5": 1,
    "color6": "blue",
    "fill6": "blue",
    "line6": 1,
    "color7": "#ff1493",
    "fill7": "#ff1493",
    "line7": 1
  },
  "controlbuttons": [
    196,
    197,
    198,
    232,
    233,
    200,
    201,
    202,
    203,
    204,
    208,
    209,
    210,
    211,
    212,
    213,
    214,
    215,
    216,
    217,
    218,
    219,
    220,
    221,
    222,
    223,
    225,
    227,
    129,
    128,
    146,
    149,
    147,
    145,
    150,
    154,
    155,
    157,
    159,
    164,
    165,
    16,
    8,
    17
  ]
}</json>-->	<path d = "M419 778 L419 587 L227 587 L227 778 L419 778 Z" stroke = "#000000" stroke-width = "1" fill = "none" />    <line x1="419" y1="778" x2="611" y2="778" style="stroke:#000000;stroke-width:1" />
    <line x1="611" y1="778" x2="419" y2="587" style="stroke:#000000;stroke-width:1" />
    <line x1="419" y1="587" x2="611" y2="587" style="stroke:#000000;stroke-width:1" />
    <line x1="611" y1="587" x2="611" y2="697" style="stroke:#000000;stroke-width:1" />
    <line x1="611" y1="697" x2="419" y2="587" style="stroke:#000000;stroke-width:1" />
    <line x1="419" y1="587" x2="515" y2="421" style="stroke:#000000;stroke-width:1" />
    <line x1="515" y1="421" x2="611" y2="587" style="stroke:#000000;stroke-width:1" />
    <line x1="515" y1="421" x2="419" y2="476" style="stroke:#000000;stroke-width:1" />
    <line x1="419" y1="476" x2="419" y2="587" style="stroke:#000000;stroke-width:1" />
    <line x1="227" y1="587" x2="264" y2="474" style="stroke:#000000;stroke-width:1" />
    <line x1="264" y1="474" x2="419" y2="587" style="stroke:#000000;stroke-width:1" />
    <line x1="264" y1="474" x2="382" y2="474" style="stroke:#000000;stroke-width:1" />
    <line x1="382" y1="474" x2="419" y2="587" style="stroke:#000000;stroke-width:1" />
    <line x1="323" y1="778" x2="323" y2="587" style="stroke:#ff0000;stroke-width:1" />
    <line x1="419" y1="682" x2="227" y2="682" style="stroke:#ff0000;stroke-width:1" />
    <line x1="371" y1="778" x2="371" y2="682" style="stroke:#ff0000;stroke-width:1" />
    <line x1="419" y1="730" x2="323" y2="730" style="stroke:#ff0000;stroke-width:1" />
    <line x1="395" y1="778" x2="395" y2="730" style="stroke:#ff0000;stroke-width:1" />
    <line x1="419" y1="754" x2="371" y2="754" style="stroke:#ff0000;stroke-width:1" />
    <line x1="407" y1="778" x2="407" y2="754" style="stroke:#ff0000;stroke-width:1" />
    <line x1="419" y1="766" x2="395" y2="766" style="stroke:#ff0000;stroke-width:1" />
    <line x1="413" y1="778" x2="413" y2="766" style="stroke:#ff0000;stroke-width:1" />
    <line x1="419" y1="772" x2="407" y2="772" style="stroke:#ff0000;stroke-width:1" />
    <line x1="416" y1="778" x2="416" y2="772" style="stroke:#ff0000;stroke-width:1" />
    <line x1="419" y1="775" x2="413" y2="775" style="stroke:#ff0000;stroke-width:1" />
	<path d = "M275 742 L275 718 L251 718 L251 742 L275 742 Z" stroke = "#ff0000" stroke-width = "1" fill = "none" /><circle cx="263" cy = "730" r = "11.984686389030486" stroke = "#ff0000" stroke-width = "1" fill = "none" />
    <line x1="263" y1="730" x2="263" y2="718" style="stroke:#ff0000;stroke-width:1" />
    <line x1="263" y1="730" x2="275" y2="730" style="stroke:#ff0000;stroke-width:1" />
    <line x1="263" y1="730" x2="263" y2="742" style="stroke:#ff0000;stroke-width:1" />
    <line x1="263" y1="730" x2="251" y2="730" style="stroke:#ff0000;stroke-width:1" />
<circle cx="259" cy = "726" r = "2.9961715972576215" stroke = "#ff0000" stroke-width = "1" fill = "none" />
<circle cx="267" cy = "726" r = "2.9961715972576215" stroke = "#ff0000" stroke-width = "1" fill = "none" />
<circle cx="267" cy = "735" r = "2.9961715972576215" stroke = "#ff0000" stroke-width = "1" fill = "none" />
<circle cx="259" cy = "735" r = "2.9961715972576215" stroke = "#ff0000" stroke-width = "1" fill = "none" />
	<path d = "M299 742 L299 718 L275 718 L275 742 L299 742 Z" stroke = "#ff0000" stroke-width = "1" fill = "none" />	<path d = "M293 736 L293 730 L287 730 L281 730 L281 736 L287 736 L293 736 Z" stroke = "#ff0000" stroke-width = "1" fill = "none" />    <line x1="287" y1="736" x2="287" y2="730" style="stroke:#ff0000;stroke-width:1" />
    <line x1="419" y1="778" x2="515" y2="682" style="stroke:#ff0000;stroke-width:1" />
    <line x1="515" y1="682" x2="419" y2="682" style="stroke:#ff0000;stroke-width:1" />
    <line x1="419" y1="682" x2="467" y2="635" style="stroke:#ff0000;stroke-width:1" />
    <line x1="467" y1="635" x2="419" y2="635" style="stroke:#ff0000;stroke-width:1" />
    <line x1="419" y1="635" x2="443" y2="611" style="stroke:#ff0000;stroke-width:1" />
    <line x1="443" y1="611" x2="419" y2="611" style="stroke:#ff0000;stroke-width:1" />
    <line x1="419" y1="611" x2="431" y2="599" style="stroke:#ff0000;stroke-width:1" />
    <line x1="431" y1="599" x2="419" y2="599" style="stroke:#ff0000;stroke-width:1" />
    <line x1="419" y1="599" x2="425" y2="593" style="stroke:#ff0000;stroke-width:1" />
	<path d = "M503 754 L503 730 L479 730 L479 754 L503 754 Z" stroke = "#ff0000" stroke-width = "1" fill = "none" /><circle cx="491" cy = "742" r = "11.984686389030482" stroke = "#ff0000" stroke-width = "1" fill = "none" />
    <line x1="491" y1="742" x2="491" y2="730" style="stroke:#ff0000;stroke-width:1" />
    <line x1="491" y1="742" x2="503" y2="742" style="stroke:#ff0000;stroke-width:1" />
    <line x1="491" y1="742" x2="491" y2="754" style="stroke:#ff0000;stroke-width:1" />
    <line x1="491" y1="742" x2="479" y2="742" style="stroke:#ff0000;stroke-width:1" />
<circle cx="487" cy = "738" r = "2.9961715972576206" stroke = "#ff0000" stroke-width = "1" fill = "none" />
<circle cx="495" cy = "738" r = "2.9961715972576206" stroke = "#ff0000" stroke-width = "1" fill = "none" />
<circle cx="495" cy = "747" r = "2.9961715972576206" stroke = "#ff0000" stroke-width = "1" fill = "none" />
<circle cx="487" cy = "747" r = "2.9961715972576206" stroke = "#ff0000" stroke-width = "1" fill = "none" />
	<path d = "M527 754 L527 730 L503 730 L503 754 L527 754 Z" stroke = "#ff0000" stroke-width = "1" fill = "none" />	<path d = "M523 734 L515 742 L523 751 " stroke = "#ff0000" stroke-width = "1" fill = "none" />    <line x1="515" y1="742" x2="518" y2="742" style="stroke:#ff0000;stroke-width:1" />
    <line x1="521" y1="742" x2="524" y2="742" style="stroke:#ff0000;stroke-width:1" />
	<path d = "M551 754 L551 730 L527 730 L527 754 L551 754 Z" stroke = "#ff0000" stroke-width = "1" fill = "none" />    <line x1="539" y1="754" x2="551" y2="742" style="stroke:#ff0000;stroke-width:1" />
    <line x1="551" y1="742" x2="539" y2="730" style="stroke:#ff0000;stroke-width:1" />
    <line x1="539" y1="730" x2="527" y2="742" style="stroke:#ff0000;stroke-width:1" />
    <line x1="527" y1="742" x2="539" y2="754" style="stroke:#ff0000;stroke-width:1" />
    <line x1="611" y1="697" x2="547" y2="587" style="stroke:#ff0000;stroke-width:1" />
    <line x1="547" y1="587" x2="611" y2="624" style="stroke:#ff0000;stroke-width:1" />
    <line x1="611" y1="624" x2="589" y2="587" style="stroke:#ff0000;stroke-width:1" />
    <line x1="589" y1="587" x2="611" y2="599" style="stroke:#ff0000;stroke-width:1" />
    <line x1="611" y1="599" x2="604" y2="587" style="stroke:#ff0000;stroke-width:1" />
	<path d = "M515 599 L515 623 L539 623 L539 599 L515 599 Z" stroke = "#ff0000" stroke-width = "1" fill = "none" />	<path d = "M515 599 L527 619 L539 599 " stroke = "#ff0000" stroke-width = "1" fill = "none" />    <line x1="527" y1="606" x2="527" y2="619" style="stroke:#ff0000;stroke-width:1" />
    <line x1="527" y1="606" x2="515" y2="599" style="stroke:#ff0000;stroke-width:1" />
    <line x1="527" y1="606" x2="539" y2="599" style="stroke:#ff0000;stroke-width:1" />
    <line x1="515" y1="587" x2="467" y2="504" style="stroke:#ff0000;stroke-width:1" />
    <line x1="467" y1="504" x2="563" y2="504" style="stroke:#ff0000;stroke-width:1" />
    <line x1="563" y1="504" x2="515" y2="587" style="stroke:#ff0000;stroke-width:1" />
	<path d = "M527 539 L527 515 L503 515 L503 539 L527 539 Z" stroke = "#ff0000" stroke-width = "1" fill = "none" />    <line x1="515" y1="527" x2="515" y2="515" style="stroke:#ff0000;stroke-width:1" />
    <line x1="515" y1="527" x2="525" y2="521" style="stroke:#ff0000;stroke-width:1" />
    <line x1="515" y1="527" x2="525" y2="533" style="stroke:#ff0000;stroke-width:1" />
    <line x1="515" y1="527" x2="515" y2="539" style="stroke:#ff0000;stroke-width:1" />
    <line x1="515" y1="527" x2="504" y2="533" style="stroke:#ff0000;stroke-width:1" />
<circle cx="515" cy = "527" r = "11.984686389030482" stroke = "#ff0000" stroke-width = "1" fill = "none" />
<circle cx="512" cy = "521" r = "1.4980857986288103" stroke = "#ff0000" stroke-width = "1" fill = "none" />
<circle cx="518" cy = "521" r = "1.4980857986288103" stroke = "#ff0000" stroke-width = "1" fill = "none" />
<circle cx="521" cy = "527" r = "1.4980857986288103" stroke = "#ff0000" stroke-width = "1" fill = "none" />
<circle cx="518" cy = "532" r = "1.4980857986288103" stroke = "#ff0000" stroke-width = "1" fill = "none" />
<circle cx="512" cy = "532" r = "1.4980857986288103" stroke = "#ff0000" stroke-width = "1" fill = "none" />
    <line x1="515" y1="527" x2="504" y2="521" style="stroke:#ff0000;stroke-width:1" />
<circle cx="509" cy = "527" r = "1.4980857986288103" stroke = "#ff0000" stroke-width = "1" fill = "none" />
    <line x1="419" y1="476" x2="451" y2="531" style="stroke:#ff0000;stroke-width:1" />
    <line x1="419" y1="476" x2="483" y2="476" style="stroke:#ff0000;stroke-width:1" />
    <line x1="451" y1="494" x2="483" y2="476" style="stroke:#ff0000;stroke-width:1" />
    <line x1="451" y1="494" x2="451" y2="531" style="stroke:#ff0000;stroke-width:1" />
    <line x1="451" y1="494" x2="462" y2="513" style="stroke:#ff0000;stroke-width:1" />
    <line x1="451" y1="494" x2="472" y2="494" style="stroke:#ff0000;stroke-width:1" />
    <line x1="462" y1="500" x2="472" y2="494" style="stroke:#ff0000;stroke-width:1" />
    <line x1="462" y1="500" x2="462" y2="513" style="stroke:#ff0000;stroke-width:1" />
    <line x1="462" y1="500" x2="465" y2="507" style="stroke:#ff0000;stroke-width:1" />
    <line x1="462" y1="500" x2="469" y2="500" style="stroke:#ff0000;stroke-width:1" />
    <line x1="419" y1="476" x2="467" y2="504" style="stroke:#ff0000;stroke-width:1" />
    <line x1="227" y1="587" x2="323" y2="517" style="stroke:#ff0000;stroke-width:1" />
    <line x1="323" y1="517" x2="300" y2="587" style="stroke:#ff0000;stroke-width:1" />
    <line x1="300" y1="587" x2="360" y2="544" style="stroke:#ff0000;stroke-width:1" />
    <line x1="360" y1="544" x2="346" y2="587" style="stroke:#ff0000;stroke-width:1" />
    <line x1="346" y1="587" x2="382" y2="560" style="stroke:#ff0000;stroke-width:1" />
    <line x1="382" y1="560" x2="374" y2="587" style="stroke:#ff0000;stroke-width:1" />
    <line x1="374" y1="587" x2="396" y2="570" style="stroke:#ff0000;stroke-width:1" />
    <line x1="396" y1="570" x2="391" y2="587" style="stroke:#ff0000;stroke-width:1" />
    <line x1="391" y1="587" x2="405" y2="576" style="stroke:#ff0000;stroke-width:1" />
    <line x1="405" y1="576" x2="402" y2="587" style="stroke:#ff0000;stroke-width:1" />
    <line x1="402" y1="587" x2="410" y2="580" style="stroke:#ff0000;stroke-width:1" />
    <line x1="410" y1="580" x2="408" y2="587" style="stroke:#ff0000;stroke-width:1" />
    <line x1="408" y1="587" x2="414" y2="583" style="stroke:#ff0000;stroke-width:1" />
    <line x1="414" y1="583" x2="412" y2="587" style="stroke:#ff0000;stroke-width:1" />
    <line x1="382" y1="474" x2="360" y2="544" style="stroke:#ff0000;stroke-width:1" />
    <line x1="360" y1="544" x2="405" y2="544" style="stroke:#ff0000;stroke-width:1" />
    <line x1="405" y1="544" x2="396" y2="570" style="stroke:#ff0000;stroke-width:1" />
    <line x1="396" y1="570" x2="414" y2="570" style="stroke:#ff0000;stroke-width:1" />
    <line x1="414" y1="570" x2="410" y2="580" style="stroke:#ff0000;stroke-width:1" />
    <line x1="410" y1="580" x2="417" y2="580" style="stroke:#ff0000;stroke-width:1" />
	<path d = "M330 515 L345 495 L325 481 L311 501 L330 515 Z" stroke = "#ff0000" stroke-width = "1" fill = "none" />    <line x1="328" y1="498" x2="335" y2="488" style="stroke:#ff0000;stroke-width:1" />
    <line x1="328" y1="498" x2="339" y2="502" style="stroke:#ff0000;stroke-width:1" />
    <line x1="328" y1="498" x2="328" y2="510" style="stroke:#ff0000;stroke-width:1" />
    <line x1="328" y1="498" x2="316" y2="502" style="stroke:#ff0000;stroke-width:1" />
    <line x1="328" y1="498" x2="321" y2="488" style="stroke:#ff0000;stroke-width:1" />
<circle cx="328" cy = "498" r = "11.984686389030482" stroke = "#ff0000" stroke-width = "1" fill = "none" />
<circle cx="333" cy = "496" r = "1.4980857986288103" stroke = "#ff0000" stroke-width = "1" fill = "none" />
<circle cx="331" cy = "503" r = "1.4980857986288103" stroke = "#ff0000" stroke-width = "1" fill = "none" />
<circle cx="324" cy = "503" r = "1.4980857986288103" stroke = "#ff0000" stroke-width = "1" fill = "none" />
<circle cx="322" cy = "496" r = "1.4980857986288103" stroke = "#ff0000" stroke-width = "1" fill = "none" />
<circle cx="328" cy = "492" r = "1.4980857986288103" stroke = "#ff0000" stroke-width = "1" fill = "none" />
	<path d = "M350 529 L364 510 L345 495 L330 515 L350 529 Z" stroke = "#ff0000" stroke-width = "1" fill = "none" />	<path d = "M350 529 L362 492 L330 515 L350 529 Z" stroke = "#ff0000" stroke-width = "1" fill = "none" />    <line x1="350" y1="529" x2="342" y2="506" style="stroke:#ff0000;stroke-width:1" />
    <line x1="342" y1="506" x2="357" y2="506" style="stroke:#ff0000;stroke-width:1" />
    <line x1="357" y1="506" x2="354" y2="497" style="stroke:#ff0000;stroke-width:1" />
    <line x1="323" y1="413" x2="323" y2="221" style="stroke:#ff0000;stroke-width:1" />
    <line x1="419" y1="317" x2="227" y2="317" style="stroke:#ff0000;stroke-width:1" />
    <line x1="371" y1="413" x2="371" y2="317" style="stroke:#ff0000;stroke-width:1" />
    <line x1="419" y1="365" x2="323" y2="365" style="stroke:#ff0000;stroke-width:1" />
    <line x1="395" y1="413" x2="395" y2="365" style="stroke:#ff0000;stroke-width:1" />
    <line x1="419" y1="389" x2="371" y2="389" style="stroke:#ff0000;stroke-width:1" />
    <line x1="407" y1="413" x2="407" y2="389" style="stroke:#ff0000;stroke-width:1" />
    <line x1="419" y1="401" x2="395" y2="401" style="stroke:#ff0000;stroke-width:1" />
    <line x1="413" y1="413" x2="413" y2="401" style="stroke:#ff0000;stroke-width:1" />
    <line x1="419" y1="407" x2="407" y2="407" style="stroke:#ff0000;stroke-width:1" />
    <line x1="416" y1="413" x2="416" y2="407" style="stroke:#ff0000;stroke-width:1" />
    <line x1="419" y1="410" x2="413" y2="410" style="stroke:#ff0000;stroke-width:1" />
	<path d = "M275 377 L275 353 L251 353 L251 377 L275 377 Z" stroke = "#ff0000" stroke-width = "1" fill = "none" /><circle cx="263" cy = "365" r = "11.984686389030482" stroke = "#ff0000" stroke-width = "1" fill = "none" />
    <line x1="263" y1="365" x2="263" y2="353" style="stroke:#ff0000;stroke-width:1" />
    <line x1="263" y1="365" x2="275" y2="365" style="stroke:#ff0000;stroke-width:1" />
    <line x1="263" y1="365" x2="263" y2="377" style="stroke:#ff0000;stroke-width:1" />
    <line x1="263" y1="365" x2="251" y2="365" style="stroke:#ff0000;stroke-width:1" />
<circle cx="259" cy = "361" r = "2.9961715972576206" stroke = "#ff0000" stroke-width = "1" fill = "none" />
<circle cx="267" cy = "361" r = "2.9961715972576206" stroke = "#ff0000" stroke-width = "1" fill = "none" />
<circle cx="267" cy = "369" r = "2.9961715972576206" stroke = "#ff0000" stroke-width = "1" fill = "none" />
<circle cx="259" cy = "369" r = "2.9961715972576206" stroke = "#ff0000" stroke-width = "1" fill = "none" />
	<path d = "M299 377 L299 353 L275 353 L275 377 L299 377 Z" stroke = "#ff0000" stroke-width = "1" fill = "none" />	<path d = "M293 371 L293 365 L287 365 L281 365 L281 371 L287 371 L293 371 Z" stroke = "#ff0000" stroke-width = "1" fill = "none" />    <line x1="287" y1="371" x2="287" y2="365" style="stroke:#ff0000;stroke-width:1" />
    <line x1="419" y1="413" x2="515" y2="317" style="stroke:#ff0000;stroke-width:1" />
    <line x1="515" y1="317" x2="419" y2="317" style="stroke:#ff0000;stroke-width:1" />
    <line x1="419" y1="317" x2="467" y2="269" style="stroke:#ff0000;stroke-width:1" />
    <line x1="467" y1="269" x2="419" y2="269" style="stroke:#ff0000;stroke-width:1" />
    <line x1="419" y1="269" x2="443" y2="245" style="stroke:#ff0000;stroke-width:1" />
    <line x1="443" y1="245" x2="419" y2="245" style="stroke:#ff0000;stroke-width:1" />
    <line x1="419" y1="245" x2="431" y2="233" style="stroke:#ff0000;stroke-width:1" />
    <line x1="431" y1="233" x2="419" y2="233" style="stroke:#ff0000;stroke-width:1" />
    <line x1="419" y1="233" x2="425" y2="227" style="stroke:#ff0000;stroke-width:1" />
	<path d = "M503 389 L503 365 L479 365 L479 389 L503 389 Z" stroke = "#ff0000" stroke-width = "1" fill = "none" /><circle cx="491" cy = "377" r = "11.984686389030482" stroke = "#ff0000" stroke-width = "1" fill = "none" />
    <line x1="491" y1="377" x2="491" y2="365" style="stroke:#ff0000;stroke-width:1" />
    <line x1="491" y1="377" x2="503" y2="377" style="stroke:#ff0000;stroke-width:1" />
    <line x1="491" y1="377" x2="491" y2="389" style="stroke:#ff0000;stroke-width:1" />
    <line x1="491" y1="377" x2="479" y2="377" style="stroke:#ff0000;stroke-width:1" />
<circle cx="487" cy = "373" r = "2.9961715972576206" stroke = "#ff0000" stroke-width = "1" fill = "none" />
<circle cx="495" cy = "373" r = "2.9961715972576206" stroke = "#ff0000" stroke-width = "1" fill = "none" />
<circle cx="495" cy = "381" r = "2.9961715972576206" stroke = "#ff0000" stroke-width = "1" fill = "none" />
<circle cx="487" cy = "381" r = "2.9961715972576206" stroke = "#ff0000" stroke-width = "1" fill = "none" />
	<path d = "M527 389 L527 365 L503 365 L503 389 L527 389 Z" stroke = "#ff0000" stroke-width = "1" fill = "none" />	<path d = "M523 368 L515 377 L523 385 " stroke = "#ff0000" stroke-width = "1" fill = "none" />    <line x1="515" y1="377" x2="518" y2="377" style="stroke:#ff0000;stroke-width:1" />
    <line x1="521" y1="377" x2="524" y2="377" style="stroke:#ff0000;stroke-width:1" />
	<path d = "M551 389 L551 365 L527 365 L527 389 L551 389 Z" stroke = "#ff0000" stroke-width = "1" fill = "none" />    <line x1="539" y1="389" x2="551" y2="377" style="stroke:#ff0000;stroke-width:1" />
    <line x1="551" y1="377" x2="539" y2="365" style="stroke:#ff0000;stroke-width:1" />
    <line x1="539" y1="365" x2="527" y2="377" style="stroke:#ff0000;stroke-width:1" />
    <line x1="527" y1="377" x2="539" y2="389" style="stroke:#ff0000;stroke-width:1" />
    <line x1="611" y1="332" x2="547" y2="221" style="stroke:#ff0000;stroke-width:1" />
    <line x1="547" y1="221" x2="611" y2="258" style="stroke:#ff0000;stroke-width:1" />
    <line x1="611" y1="258" x2="589" y2="221" style="stroke:#ff0000;stroke-width:1" />
    <line x1="589" y1="221" x2="611" y2="233" style="stroke:#ff0000;stroke-width:1" />
    <line x1="611" y1="233" x2="604" y2="221" style="stroke:#ff0000;stroke-width:1" />
	<path d = "M515 233 L515 257 L539 257 L539 233 L515 233 Z" stroke = "#ff0000" stroke-width = "1" fill = "none" />	<path d = "M515 233 L527 254 L539 233 " stroke = "#ff0000" stroke-width = "1" fill = "none" />    <line x1="527" y1="240" x2="527" y2="254" style="stroke:#ff0000;stroke-width:1" />
    <line x1="527" y1="240" x2="515" y2="233" style="stroke:#ff0000;stroke-width:1" />
    <line x1="527" y1="240" x2="539" y2="233" style="stroke:#ff0000;stroke-width:1" />
    <line x1="515" y1="221" x2="467" y2="138" style="stroke:#ff0000;stroke-width:1" />
    <line x1="467" y1="138" x2="563" y2="138" style="stroke:#ff0000;stroke-width:1" />
    <line x1="563" y1="138" x2="515" y2="221" style="stroke:#ff0000;stroke-width:1" />
	<path d = "M527 173 L527 149 L503 149 L503 173 L527 173 Z" stroke = "#ff0000" stroke-width = "1" fill = "none" />    <line x1="515" y1="161" x2="515" y2="149" style="stroke:#ff0000;stroke-width:1" />
    <line x1="515" y1="161" x2="525" y2="155" style="stroke:#ff0000;stroke-width:1" />
    <line x1="515" y1="161" x2="525" y2="167" style="stroke:#ff0000;stroke-width:1" />
    <line x1="515" y1="161" x2="515" y2="173" style="stroke:#ff0000;stroke-width:1" />
    <line x1="515" y1="161" x2="504" y2="167" style="stroke:#ff0000;stroke-width:1" />
<circle cx="515" cy = "161" r = "11.984686389030482" stroke = "#ff0000" stroke-width = "1" fill = "none" />
<circle cx="512" cy = "156" r = "1.4980857986288103" stroke = "#ff0000" stroke-width = "1" fill = "none" />
<circle cx="518" cy = "156" r = "1.4980857986288103" stroke = "#ff0000" stroke-width = "1" fill = "none" />
<circle cx="521" cy = "161" r = "1.4980857986288103" stroke = "#ff0000" stroke-width = "1" fill = "none" />
<circle cx="518" cy = "166" r = "1.4980857986288103" stroke = "#ff0000" stroke-width = "1" fill = "none" />
<circle cx="512" cy = "166" r = "1.4980857986288103" stroke = "#ff0000" stroke-width = "1" fill = "none" />
    <line x1="515" y1="161" x2="504" y2="155" style="stroke:#ff0000;stroke-width:1" />
<circle cx="509" cy = "161" r = "1.4980857986288103" stroke = "#ff0000" stroke-width = "1" fill = "none" />
    <line x1="419" y1="110" x2="451" y2="166" style="stroke:#ff0000;stroke-width:1" />
    <line x1="419" y1="110" x2="483" y2="110" style="stroke:#ff0000;stroke-width:1" />
    <line x1="451" y1="129" x2="483" y2="110" style="stroke:#ff0000;stroke-width:1" />
    <line x1="451" y1="129" x2="451" y2="166" style="stroke:#ff0000;stroke-width:1" />
    <line x1="451" y1="129" x2="462" y2="147" style="stroke:#ff0000;stroke-width:1" />
    <line x1="451" y1="129" x2="472" y2="129" style="stroke:#ff0000;stroke-width:1" />
    <line x1="462" y1="135" x2="472" y2="129" style="stroke:#ff0000;stroke-width:1" />
    <line x1="462" y1="135" x2="462" y2="147" style="stroke:#ff0000;stroke-width:1" />
    <line x1="462" y1="135" x2="465" y2="141" style="stroke:#ff0000;stroke-width:1" />
    <line x1="462" y1="135" x2="469" y2="135" style="stroke:#ff0000;stroke-width:1" />
    <line x1="419" y1="110" x2="467" y2="138" style="stroke:#ff0000;stroke-width:1" />
    <line x1="227" y1="221" x2="323" y2="151" style="stroke:#ff0000;stroke-width:1" />
    <line x1="323" y1="151" x2="300" y2="221" style="stroke:#ff0000;stroke-width:1" />
    <line x1="300" y1="221" x2="360" y2="178" style="stroke:#ff0000;stroke-width:1" />
    <line x1="360" y1="178" x2="346" y2="221" style="stroke:#ff0000;stroke-width:1" />
    <line x1="346" y1="221" x2="382" y2="194" style="stroke:#ff0000;stroke-width:1" />
    <line x1="382" y1="194" x2="374" y2="221" style="stroke:#ff0000;stroke-width:1" />
    <line x1="374" y1="221" x2="396" y2="205" style="stroke:#ff0000;stroke-width:1" />
    <line x1="396" y1="205" x2="391" y2="221" style="stroke:#ff0000;stroke-width:1" />
    <line x1="391" y1="221" x2="405" y2="211" style="stroke:#ff0000;stroke-width:1" />
    <line x1="405" y1="211" x2="402" y2="221" style="stroke:#ff0000;stroke-width:1" />
    <line x1="402" y1="221" x2="410" y2="215" style="stroke:#ff0000;stroke-width:1" />
    <line x1="410" y1="215" x2="408" y2="221" style="stroke:#ff0000;stroke-width:1" />
    <line x1="408" y1="221" x2="414" y2="217" style="stroke:#ff0000;stroke-width:1" />
    <line x1="414" y1="217" x2="412" y2="221" style="stroke:#ff0000;stroke-width:1" />
    <line x1="382" y1="108" x2="360" y2="178" style="stroke:#ff0000;stroke-width:1" />
    <line x1="360" y1="178" x2="405" y2="178" style="stroke:#ff0000;stroke-width:1" />
    <line x1="405" y1="178" x2="396" y2="205" style="stroke:#ff0000;stroke-width:1" />
    <line x1="396" y1="205" x2="414" y2="205" style="stroke:#ff0000;stroke-width:1" />
    <line x1="414" y1="205" x2="410" y2="215" style="stroke:#ff0000;stroke-width:1" />
    <line x1="410" y1="215" x2="417" y2="215" style="stroke:#ff0000;stroke-width:1" />
	<path d = "M330 149 L345 130 L325 116 L311 135 L330 149 Z" stroke = "#ff0000" stroke-width = "1" fill = "none" />    <line x1="328" y1="133" x2="335" y2="123" style="stroke:#ff0000;stroke-width:1" />
    <line x1="328" y1="133" x2="339" y2="136" style="stroke:#ff0000;stroke-width:1" />
    <line x1="328" y1="133" x2="328" y2="145" style="stroke:#ff0000;stroke-width:1" />
    <line x1="328" y1="133" x2="316" y2="136" style="stroke:#ff0000;stroke-width:1" />
    <line x1="328" y1="133" x2="321" y2="123" style="stroke:#ff0000;stroke-width:1" />
<circle cx="328" cy = "133" r = "11.984686389030482" stroke = "#ff0000" stroke-width = "1" fill = "none" />
<circle cx="333" cy = "131" r = "1.4980857986288103" stroke = "#ff0000" stroke-width = "1" fill = "none" />
<circle cx="331" cy = "137" r = "1.4980857986288103" stroke = "#ff0000" stroke-width = "1" fill = "none" />
<circle cx="324" cy = "137" r = "1.4980857986288103" stroke = "#ff0000" stroke-width = "1" fill = "none" />
<circle cx="322" cy = "131" r = "1.4980857986288103" stroke = "#ff0000" stroke-width = "1" fill = "none" />
<circle cx="328" cy = "127" r = "1.4980857986288103" stroke = "#ff0000" stroke-width = "1" fill = "none" />
	<path d = "M350 163 L364 144 L345 130 L330 149 L350 163 Z" stroke = "#ff0000" stroke-width = "1" fill = "none" />	<path d = "M350 163 L362 127 L330 149 L350 163 Z" stroke = "#ff0000" stroke-width = "1" fill = "none" />    <line x1="350" y1="163" x2="342" y2="141" style="stroke:#ff0000;stroke-width:1" />
    <line x1="342" y1="141" x2="357" y2="141" style="stroke:#ff0000;stroke-width:1" />
    <line x1="357" y1="141" x2="354" y2="132" style="stroke:#ff0000;stroke-width:1" />
	<path d = "M419 413 L419 221 L227 221 L227 413 L419 413 Z" stroke = "#000000" stroke-width = "1" fill = "none" />    <line x1="419" y1="413" x2="611" y2="413" style="stroke:#000000;stroke-width:1" />
    <line x1="611" y1="413" x2="419" y2="221" style="stroke:#000000;stroke-width:1" />
    <line x1="419" y1="221" x2="611" y2="221" style="stroke:#000000;stroke-width:1" />
    <line x1="611" y1="221" x2="611" y2="332" style="stroke:#000000;stroke-width:1" />
    <line x1="611" y1="332" x2="419" y2="221" style="stroke:#000000;stroke-width:1" />
    <line x1="419" y1="221" x2="515" y2="55" style="stroke:#000000;stroke-width:1" />
    <line x1="515" y1="55" x2="611" y2="221" style="stroke:#000000;stroke-width:1" />
    <line x1="515" y1="55" x2="419" y2="110" style="stroke:#000000;stroke-width:1" />
    <line x1="419" y1="110" x2="419" y2="221" style="stroke:#000000;stroke-width:1" />
    <line x1="227" y1="221" x2="264" y2="108" style="stroke:#000000;stroke-width:1" />
    <line x1="264" y1="108" x2="419" y2="221" style="stroke:#000000;stroke-width:1" />
    <line x1="264" y1="108" x2="382" y2="108" style="stroke:#000000;stroke-width:1" />
    <line x1="382" y1="108" x2="419" y2="221" style="stroke:#000000;stroke-width:1" />
</svg>