<svg width="600" height="600" viewbox = "0 0 600 600"  xmlns="http://www.w3.org/2000/svg">
<!--<json>{
  "glyph": "0334,0326,0201,0201,0201,0201,0334,0201,0201,0201,0201,0201,0201,0201,0201,0350,0334,0310,0337,0201,0334,0336,0313,0304,0201,0201,0201,0201,0201,0201,0350,0334,0310,0337,0201,0334,0336,0201,0304,0313,0201,0201,0201,0201,0201,0201,0201,0334,0201,0201,0201,0201,0201,0335,0332,0332,0332,0334,0201,0335,0201,0335,0201,0201,0201,0201,0201,0201,0201,0201,0201,0201,0335,0201,0335,0201,0335,0330,0332,0332,0332,0201,0334,0201,0201,0334,0201,0335,0335,0331,0331,0331,0331,0333,0331,0331,0331,0331,0201,0201,0201,0201,0201,0333,0333,0331,0331,0331,0331,0331,0201,0201,0201,0201,0201,0331,0331,0331,0331,0332,0332,0332,0331,0332,0201,0201,0201,0201,0201,0333,0333,0330,0330,0322,0331,0331,0331,0331,0331,0332,0332,0332,0332,0332,0332,0332,0221,0221,0331,0331,0331,0331,0331,0331,0332,0332,0332,0332,0332,0332,0332,0332,0332,0332,0331,0332,0332,0332,0332,0332,0332,0332,0331,0333,0221,0221,",
  "shapes": [
    "0220:0200,0330,0200,0330,0200,0330,0200,0330,0200,0330,0200,0330,0200,0330,0200,0331,0331,0331,0331,0331,0331,0331,0333,",
    "0221:0220,0220,0220,0220,0220,0220,0220,0220,",
    "0222:0221,0221,0221,0221,0221,0221,0221,0221,",
    "0223:0503,",
    "0224:0504,",
    "0225:0505,",
    "0226:0506,",
    "0227:0507,",
    "0230:0504,",
    "0231:0505,",
    "0232:0506,",
    "0233:0507,",
    "0234:0331,0334,0337,",
    "0235:0322,0233,0323,0233,0324,0233,0325,0233,0326,0233,0327,0233,0234,0234,0234,0234,0234,0234,",
    "0236:0304,0313,0334,0331,0337,0306,0322,0362,0203,0335,0335,0203,0335,0335,0203,0363,0335,0335,0312,0323,0350,0335,0312,0336,0362,0203,0334,0334,0203,0334,0334,0334,0334,0334,0337,0203,0363,0335,0336,0331,0335,0324,0336,0362,0203,0335,0335,0335,0335,0203,0335,0335,0335,0335,0203,0363,0334,0334,0331,0325,0336,0334,0362,0203,0334,0334,0203,0334,0334,0334,0334,0334,0337,0203,0363,0334,0334,0334,0334,0334,0336,0330,0334,0334,0334,0326,0336,0362,0203,0334,0334,0334,0334,0203,0334,0334,0334,0334,0203,0363,0335,0335,0331,0336,0327,0362,0335,0203,0335,0335,0203,0335,0335,0335,0335,0335,0337,0203,0363,0334,0336,0331,0320,0342,0334,0334,0334,0334,0342,0330,0335,0337,0331,0342,0335,0335,0342,0335,0337,0342,0334,0334,0334,0334,0342,0330,0335,0337,0331,0342,0335,0335,0342,0337,0335,0342,0334,0334,0334,0334,0342,0335,0335,0335,0335,0330,0335,0335,0335,0335,0335,0337,0362,0203,0335,0335,0335,0335,0203,0335,0335,0335,0335,0203,0354,0304,0313,0335,0336,0333,",
    "0237:01304,01305,01306,",
    "0241:01350,01351,01352,01353,",
    "0242:01310,01311,01312,01313,01314,01316,",
    "0243:0530,",
    "0244:0531,",
    "0245:0532,",
    "0246:0533,",
    "01220:0333,0200,0336,0330,0332,0336,0331,0336,0220,0331,0333,0331,0333,0333,0337,0337,0337,",
    "01221:0333,0200,0336,0330,0336,0331,0332,0331,0336,0330,0333,0332,0332,0332,0332,0336,0221,0331,0331,0333,0333,0337,0337,0337,0337,",
    "01222:01502,",
    "01223:01503,",
    "01224:01504,",
    "01225:01505,",
    "01226:01506,",
    "01227:01507,",
    "01230:01504,",
    "01231:01505,",
    "01232:01506,",
    "01233:01507,",
    "01234:0333,0200,0336,0330,0332,0336,0332,0233,0234,0313,0304,0336,0330,0334,0331,0337,0240,0335,0336,0332,0331,0337,0332,0337,0331,0337,0333,",
    "01235:0333,0200,0336,0330,0332,0336,0331,0333,0337,0332,0336,0330,0235,0313,0304,0320,0332,0337,0331,0337,0333,",
    "01236:0333,0200,0336,0330,0332,0336,0331,0337,0210,0236,0211,0336,0331,0337,0333,0337,",
    "01237:0333,0200,0336,0330,0332,0336,0332,0336,0332,0337,0237,0336,0333,0337,0337,0331,0337,",
    "01240:0333,0200,0336,0330,0332,0336,0331,0337,0240,0336,0331,0337,0333,0337,",
    "01241:0333,0200,0336,0330,0332,0336,0332,0332,0241,0331,0331,0337,0337,",
    "01242:0333,0200,0336,0332,0332,0336,0330,0330,0336,0333,0242,0333,0337,0337,0331,0337,",
    "01243:01530,",
    "01244:01531,",
    "01245:01532,",
    "01246:01533,",
    "01247:0333,0200,0336,0330,0332,0337,0247,0336,0333,0331,0337,"
  ],
  "x0rel": 0.5,
  "y0rel": 0.3333333333333333,
  "unitrel": 0.049999999999999996,
  "theta0": -1.570796,
  "width": 600,
  "height": 600,
  "scale": 1,
  "backgroundimage": "https://encrypted-tbn0.gstatic.com/images?q=tbn%3AANd9GcSRbdQqmmVVkA0SS612yl0IKWsWVtQnYGn-jA&usqp=CAU",
  "style": {
    "color0": "black",
    "fill0": "black",
    "line0": 1,
    "color1": "black",
    "fill1": "black",
    "line1": 5,
    "color2": "red",
    "fill2": "red",
    "line2": 1,
    "color3": "#FF7900",
    "fill3": "#FF7900",
    "line3": 1,
    "color4": "yellow",
    "fill4": "yellow",
    "line4": 1,
    "color5": "green",
    "fill5": "green",
    "line5": 1,
    "color6": "blue",
    "fill6": "blue",
    "line6": 10,
    "color7": "purple",
    "fill7": "purple",
    "line7": 1
  },
  "controlbuttons": [
    196,
    198,
    200,
    203,
    128,
    216,
    217,
    218,
    219,
    220,
    221,
    222,
    223,
    27,
    8,
    225,
    192,
    16,
    17,
    144,
    145,
    146,
    147,
    148,
    149,
    150,
    151,
    152,
    153,
    154,
    155,
    156,
    157,
    158,
    159,
    160,
    161,
    162,
    136,
    137
  ],
  "imgw": 0.7416666666666667,
  "imgx": 0.135,
  "imgy": 0.14666666666666667,
  "imgtheta": 0
}</json>-->    <line x1="300" y1="200" x2="270" y2="200" style="stroke:#0000ff;stroke-width:10" />
    <line x1="270" y1="200" x2="240" y2="200" style="stroke:#0000ff;stroke-width:10" />
    <line x1="240" y1="200" x2="210" y2="200" style="stroke:#0000ff;stroke-width:10" />
    <line x1="210" y1="200" x2="180" y2="200" style="stroke:#0000ff;stroke-width:10" />
    <line x1="180" y1="200" x2="180" y2="230" style="stroke:#0000ff;stroke-width:10" />
    <line x1="180" y1="230" x2="180" y2="260" style="stroke:#0000ff;stroke-width:10" />
    <line x1="180" y1="260" x2="180" y2="290" style="stroke:#0000ff;stroke-width:10" />
    <line x1="180" y1="290" x2="180" y2="320" style="stroke:#0000ff;stroke-width:10" />
    <line x1="180" y1="320" x2="180" y2="350" style="stroke:#0000ff;stroke-width:10" />
    <line x1="180" y1="350" x2="180" y2="380" style="stroke:#0000ff;stroke-width:10" />
    <line x1="180" y1="380" x2="180" y2="410" style="stroke:#0000ff;stroke-width:10" />
    <line x1="180" y1="410" x2="180" y2="440" style="stroke:#0000ff;stroke-width:10" />
    <line x1="180" y1="440" x2="210" y2="470" style="stroke:#0000ff;stroke-width:10" />
    <line x1="210" y1="470" x2="240" y2="470" style="stroke:#0000ff;stroke-width:10" />
    <line x1="240" y1="470" x2="270" y2="470" style="stroke:#0000ff;stroke-width:10" />
    <line x1="270" y1="470" x2="300" y2="470" style="stroke:#0000ff;stroke-width:10" />
    <line x1="300" y1="470" x2="330" y2="470" style="stroke:#0000ff;stroke-width:10" />
    <line x1="330" y1="470" x2="360" y2="470" style="stroke:#0000ff;stroke-width:10" />
    <line x1="360" y1="470" x2="390" y2="470" style="stroke:#0000ff;stroke-width:10" />
    <line x1="390" y1="470" x2="420" y2="440" style="stroke:#0000ff;stroke-width:10" />
    <line x1="420" y1="440" x2="420" y2="410" style="stroke:#0000ff;stroke-width:10" />
    <line x1="420" y1="410" x2="420" y2="380" style="stroke:#0000ff;stroke-width:10" />
    <line x1="420" y1="380" x2="420" y2="350" style="stroke:#0000ff;stroke-width:10" />
    <line x1="420" y1="350" x2="420" y2="320" style="stroke:#0000ff;stroke-width:10" />
    <line x1="420" y1="320" x2="420" y2="290" style="stroke:#0000ff;stroke-width:10" />
    <line x1="420" y1="290" x2="420" y2="260" style="stroke:#0000ff;stroke-width:10" />
    <line x1="420" y1="260" x2="420" y2="230" style="stroke:#0000ff;stroke-width:10" />
    <line x1="420" y1="230" x2="420" y2="200" style="stroke:#0000ff;stroke-width:10" />
    <line x1="420" y1="200" x2="390" y2="200" style="stroke:#0000ff;stroke-width:10" />
    <line x1="390" y1="200" x2="360" y2="200" style="stroke:#0000ff;stroke-width:10" />
    <line x1="360" y1="200" x2="330" y2="200" style="stroke:#0000ff;stroke-width:10" />
    <line x1="330" y1="200" x2="300" y2="200" style="stroke:#0000ff;stroke-width:10" />
    <line x1="300" y1="200" x2="270" y2="200" style="stroke:#0000ff;stroke-width:10" />
    <line x1="180" y1="200" x2="150" y2="200" style="stroke:#0000ff;stroke-width:10" />
    <line x1="150" y1="200" x2="150" y2="170" style="stroke:#0000ff;stroke-width:10" />
    <line x1="150" y1="170" x2="180" y2="170" style="stroke:#0000ff;stroke-width:10" />
    <line x1="180" y1="170" x2="210" y2="170" style="stroke:#0000ff;stroke-width:10" />
    <line x1="210" y1="170" x2="240" y2="170" style="stroke:#0000ff;stroke-width:10" />
    <line x1="240" y1="170" x2="270" y2="170" style="stroke:#0000ff;stroke-width:10" />
    <line x1="270" y1="170" x2="300" y2="170" style="stroke:#0000ff;stroke-width:10" />
    <line x1="300" y1="170" x2="330" y2="170" style="stroke:#0000ff;stroke-width:10" />
    <line x1="330" y1="170" x2="360" y2="170" style="stroke:#0000ff;stroke-width:10" />
    <line x1="360" y1="170" x2="390" y2="170" style="stroke:#0000ff;stroke-width:10" />
    <line x1="390" y1="170" x2="420" y2="170" style="stroke:#0000ff;stroke-width:10" />
    <line x1="420" y1="170" x2="450" y2="170" style="stroke:#0000ff;stroke-width:10" />
    <line x1="450" y1="170" x2="450" y2="200" style="stroke:#0000ff;stroke-width:10" />
    <line x1="450" y1="200" x2="420" y2="200" style="stroke:#0000ff;stroke-width:10" />
    <line x1="330" y1="170" x2="330" y2="140" style="stroke:#0000ff;stroke-width:10" />
    <line x1="330" y1="140" x2="300" y2="140" style="stroke:#0000ff;stroke-width:10" />
    <line x1="300" y1="140" x2="270" y2="140" style="stroke:#0000ff;stroke-width:10" />
    <line x1="270" y1="140" x2="270" y2="170" style="stroke:#0000ff;stroke-width:10" />
    <line x1="300" y1="410" x2="300" y2="380" style="stroke:#0000ff;stroke-width:10" />
    <line x1="300" y1="380" x2="300" y2="350" style="stroke:#0000ff;stroke-width:10" />
    <line x1="300" y1="350" x2="300" y2="320" style="stroke:#0000ff;stroke-width:10" />
    <line x1="300" y1="320" x2="300" y2="290" style="stroke:#0000ff;stroke-width:10" />
    <line x1="300" y1="290" x2="300" y2="260" style="stroke:#0000ff;stroke-width:10" />
    <line x1="360" y1="410" x2="360" y2="380" style="stroke:#0000ff;stroke-width:10" />
    <line x1="360" y1="380" x2="360" y2="350" style="stroke:#0000ff;stroke-width:10" />
    <line x1="360" y1="350" x2="360" y2="320" style="stroke:#0000ff;stroke-width:10" />
    <line x1="360" y1="320" x2="360" y2="290" style="stroke:#0000ff;stroke-width:10" />
    <line x1="360" y1="290" x2="360" y2="260" style="stroke:#0000ff;stroke-width:10" />
    <line x1="240" y1="410" x2="240" y2="380" style="stroke:#0000ff;stroke-width:10" />
    <line x1="240" y1="380" x2="240" y2="350" style="stroke:#0000ff;stroke-width:10" />
    <line x1="240" y1="350" x2="240" y2="320" style="stroke:#0000ff;stroke-width:10" />
    <line x1="240" y1="320" x2="240" y2="290" style="stroke:#0000ff;stroke-width:10" />
    <line x1="240" y1="290" x2="240" y2="260" style="stroke:#0000ff;stroke-width:10" />
	<path d = "M90 350 L90 320 L60 320 L60 350 L90 350 Z" stroke = "#ff0000" stroke-width = "1" fill = "none" />	<path d = "M90 320 L90 290 L60 290 L60 320 L90 320 Z" stroke = "#ff0000" stroke-width = "1" fill = "none" />	<path d = "M90 290 L90 260 L60 260 L60 290 L90 290 Z" stroke = "#ff0000" stroke-width = "1" fill = "none" />	<path d = "M90 260 L90 230 L60 230 L60 260 L90 260 Z" stroke = "#ff0000" stroke-width = "1" fill = "none" />	<path d = "M90 230 L90 200 L60 200 L60 230 L90 230 Z" stroke = "#ff0000" stroke-width = "1" fill = "none" />	<path d = "M90 200 L90 170 L60 170 L60 200 L90 200 Z" stroke = "#ff0000" stroke-width = "1" fill = "none" />	<path d = "M90 170 L90 140 L60 140 L60 170 L90 170 Z" stroke = "#ff0000" stroke-width = "1" fill = "none" />	<path d = "M90 140 L90 110 L60 110 L60 140 L90 140 Z" stroke = "#ff0000" stroke-width = "1" fill = "none" />	<path d = "M120 350 L120 320 L90 320 L90 350 L120 350 Z" stroke = "#ff0000" stroke-width = "1" fill = "none" />	<path d = "M120 320 L120 290 L90 290 L90 320 L120 320 Z" stroke = "#ff0000" stroke-width = "1" fill = "none" />	<path d = "M120 290 L120 260 L90 260 L90 290 L120 290 Z" stroke = "#ff0000" stroke-width = "1" fill = "none" />	<path d = "M120 260 L120 230 L90 230 L90 260 L120 260 Z" stroke = "#ff0000" stroke-width = "1" fill = "none" />	<path d = "M120 230 L120 200 L90 200 L90 230 L120 230 Z" stroke = "#ff0000" stroke-width = "1" fill = "none" />	<path d = "M120 200 L120 170 L90 170 L90 200 L120 200 Z" stroke = "#ff0000" stroke-width = "1" fill = "none" />	<path d = "M120 170 L120 140 L90 140 L90 170 L120 170 Z" stroke = "#ff0000" stroke-width = "1" fill = "none" />	<path d = "M120 140 L120 110 L90 110 L90 140 L120 140 Z" stroke = "#ff0000" stroke-width = "1" fill = "none" />	<path d = "M150 350 L150 320 L120 320 L120 350 L150 350 Z" stroke = "#ff0000" stroke-width = "1" fill = "none" />	<path d = "M150 320 L150 290 L120 290 L120 320 L150 320 Z" stroke = "#ff0000" stroke-width = "1" fill = "none" />	<path d = "M150 290 L150 260 L120 260 L120 290 L150 290 Z" stroke = "#ff0000" stroke-width = "1" fill = "none" />	<path d = "M150 260 L150 230 L120 230 L120 260 L150 260 Z" stroke = "#ff0000" stroke-width = "1" fill = "none" />	<path d = "M150 230 L150 200 L120 200 L120 230 L150 230 Z" stroke = "#ff0000" stroke-width = "1" fill = "none" />	<path d = "M150 200 L150 170 L120 170 L120 200 L150 200 Z" stroke = "#ff0000" stroke-width = "1" fill = "none" />	<path d = "M150 170 L150 140 L120 140 L120 170 L150 170 Z" stroke = "#ff0000" stroke-width = "1" fill = "none" />	<path d = "M150 140 L150 110 L120 110 L120 140 L150 140 Z" stroke = "#ff0000" stroke-width = "1" fill = "none" />	<path d = "M180 350 L180 320 L150 320 L150 350 L180 350 Z" stroke = "#ff0000" stroke-width = "1" fill = "none" />	<path d = "M180 320 L180 290 L150 290 L150 320 L180 320 Z" stroke = "#ff0000" stroke-width = "1" fill = "none" />	<path d = "M180 290 L180 260 L150 260 L150 290 L180 290 Z" stroke = "#ff0000" stroke-width = "1" fill = "none" />	<path d = "M180 260 L180 230 L150 230 L150 260 L180 260 Z" stroke = "#ff0000" stroke-width = "1" fill = "none" />	<path d = "M180 230 L180 200 L150 200 L150 230 L180 230 Z" stroke = "#ff0000" stroke-width = "1" fill = "none" />	<path d = "M180 200 L180 170 L150 170 L150 200 L180 200 Z" stroke = "#ff0000" stroke-width = "1" fill = "none" />	<path d = "M180 170 L180 140 L150 140 L150 170 L180 170 Z" stroke = "#ff0000" stroke-width = "1" fill = "none" />	<path d = "M180 140 L180 110 L150 110 L150 140 L180 140 Z" stroke = "#ff0000" stroke-width = "1" fill = "none" />	<path d = "M210 350 L210 320 L180 320 L180 350 L210 350 Z" stroke = "#ff0000" stroke-width = "1" fill = "none" />	<path d = "M210 320 L210 290 L180 290 L180 320 L210 320 Z" stroke = "#ff0000" stroke-width = "1" fill = "none" />	<path d = "M210 290 L210 260 L180 260 L180 290 L210 290 Z" stroke = "#ff0000" stroke-width = "1" fill = "none" />	<path d = "M210 260 L210 230 L180 230 L180 260 L210 260 Z" stroke = "#ff0000" stroke-width = "1" fill = "none" />	<path d = "M210 230 L210 200 L180 200 L180 230 L210 230 Z" stroke = "#ff0000" stroke-width = "1" fill = "none" />	<path d = "M210 200 L210 170 L180 170 L180 200 L210 200 Z" stroke = "#ff0000" stroke-width = "1" fill = "none" />	<path d = "M210 170 L210 140 L180 140 L180 170 L210 170 Z" stroke = "#ff0000" stroke-width = "1" fill = "none" />	<path d = "M210 140 L210 110 L180 110 L180 140 L210 140 Z" stroke = "#ff0000" stroke-width = "1" fill = "none" />	<path d = "M240 350 L240 320 L210 320 L210 350 L240 350 Z" stroke = "#ff0000" stroke-width = "1" fill = "none" />	<path d = "M240 320 L240 290 L210 290 L210 320 L240 320 Z" stroke = "#ff0000" stroke-width = "1" fill = "none" />	<path d = "M240 290 L240 260 L210 260 L210 290 L240 290 Z" stroke = "#ff0000" stroke-width = "1" fill = "none" />	<path d = "M240 260 L240 230 L210 230 L210 260 L240 260 Z" stroke = "#ff0000" stroke-width = "1" fill = "none" />	<path d = "M240 230 L240 200 L210 200 L210 230 L240 230 Z" stroke = "#ff0000" stroke-width = "1" fill = "none" />	<path d = "M240 200 L240 170 L210 170 L210 200 L240 200 Z" stroke = "#ff0000" stroke-width = "1" fill = "none" />	<path d = "M240 170 L240 140 L210 140 L210 170 L240 170 Z" stroke = "#ff0000" stroke-width = "1" fill = "none" />	<path d = "M240 140 L240 110 L210 110 L210 140 L240 140 Z" stroke = "#ff0000" stroke-width = "1" fill = "none" />	<path d = "M270 350 L270 320 L240 320 L240 350 L270 350 Z" stroke = "#ff0000" stroke-width = "1" fill = "none" />	<path d = "M270 320 L270 290 L240 290 L240 320 L270 320 Z" stroke = "#ff0000" stroke-width = "1" fill = "none" />	<path d = "M270 290 L270 260 L240 260 L240 290 L270 290 Z" stroke = "#ff0000" stroke-width = "1" fill = "none" />	<path d = "M270 260 L270 230 L240 230 L240 260 L270 260 Z" stroke = "#ff0000" stroke-width = "1" fill = "none" />	<path d = "M270 230 L270 200 L240 200 L240 230 L270 230 Z" stroke = "#ff0000" stroke-width = "1" fill = "none" />	<path d = "M270 200 L270 170 L240 170 L240 200 L270 200 Z" stroke = "#ff0000" stroke-width = "1" fill = "none" />	<path d = "M270 170 L270 140 L240 140 L240 170 L270 170 Z" stroke = "#ff0000" stroke-width = "1" fill = "none" />	<path d = "M270 140 L270 110 L240 110 L240 140 L270 140 Z" stroke = "#ff0000" stroke-width = "1" fill = "none" />	<path d = "M300 350 L300 320 L270 320 L270 350 L300 350 Z" stroke = "#ff0000" stroke-width = "1" fill = "none" />	<path d = "M300 320 L300 290 L270 290 L270 320 L300 320 Z" stroke = "#ff0000" stroke-width = "1" fill = "none" />	<path d = "M300 290 L300 260 L270 260 L270 290 L300 290 Z" stroke = "#ff0000" stroke-width = "1" fill = "none" />	<path d = "M300 260 L300 230 L270 230 L270 260 L300 260 Z" stroke = "#ff0000" stroke-width = "1" fill = "none" />	<path d = "M300 230 L300 200 L270 200 L270 230 L300 230 Z" stroke = "#ff0000" stroke-width = "1" fill = "none" />	<path d = "M300 200 L300 170 L270 170 L270 200 L300 200 Z" stroke = "#ff0000" stroke-width = "1" fill = "none" />	<path d = "M300 170 L300 140 L270 140 L270 170 L300 170 Z" stroke = "#ff0000" stroke-width = "1" fill = "none" />	<path d = "M300 140 L300 110 L270 110 L270 140 L300 140 Z" stroke = "#ff0000" stroke-width = "1" fill = "none" />	<path d = "M330 350 L330 320 L300 320 L300 350 L330 350 Z" stroke = "#ff0000" stroke-width = "1" fill = "none" />	<path d = "M330 320 L330 290 L300 290 L300 320 L330 320 Z" stroke = "#ff0000" stroke-width = "1" fill = "none" />	<path d = "M330 290 L330 260 L300 260 L300 290 L330 290 Z" stroke = "#ff0000" stroke-width = "1" fill = "none" />	<path d = "M330 260 L330 230 L300 230 L300 260 L330 260 Z" stroke = "#ff0000" stroke-width = "1" fill = "none" />	<path d = "M330 230 L330 200 L300 200 L300 230 L330 230 Z" stroke = "#ff0000" stroke-width = "1" fill = "none" />	<path d = "M330 200 L330 170 L300 170 L300 200 L330 200 Z" stroke = "#ff0000" stroke-width = "1" fill = "none" />	<path d = "M330 170 L330 140 L300 140 L300 170 L330 170 Z" stroke = "#ff0000" stroke-width = "1" fill = "none" />	<path d = "M330 140 L330 110 L300 110 L300 140 L330 140 Z" stroke = "#ff0000" stroke-width = "1" fill = "none" />	<path d = "M360 350 L360 320 L330 320 L330 350 L360 350 Z" stroke = "#ff0000" stroke-width = "1" fill = "none" />	<path d = "M360 320 L360 290 L330 290 L330 320 L360 320 Z" stroke = "#ff0000" stroke-width = "1" fill = "none" />	<path d = "M360 290 L360 260 L330 260 L330 290 L360 290 Z" stroke = "#ff0000" stroke-width = "1" fill = "none" />	<path d = "M360 260 L360 230 L330 230 L330 260 L360 260 Z" stroke = "#ff0000" stroke-width = "1" fill = "none" />	<path d = "M360 230 L360 200 L330 200 L330 230 L360 230 Z" stroke = "#ff0000" stroke-width = "1" fill = "none" />	<path d = "M360 200 L360 170 L330 170 L330 200 L360 200 Z" stroke = "#ff0000" stroke-width = "1" fill = "none" />	<path d = "M360 170 L360 140 L330 140 L330 170 L360 170 Z" stroke = "#ff0000" stroke-width = "1" fill = "none" />	<path d = "M360 140 L360 110 L330 110 L330 140 L360 140 Z" stroke = "#ff0000" stroke-width = "1" fill = "none" />	<path d = "M390 350 L390 320 L360 320 L360 350 L390 350 Z" stroke = "#ff0000" stroke-width = "1" fill = "none" />	<path d = "M390 320 L390 290 L360 290 L360 320 L390 320 Z" stroke = "#ff0000" stroke-width = "1" fill = "none" />	<path d = "M390 290 L390 260 L360 260 L360 290 L390 290 Z" stroke = "#ff0000" stroke-width = "1" fill = "none" />	<path d = "M390 260 L390 230 L360 230 L360 260 L390 260 Z" stroke = "#ff0000" stroke-width = "1" fill = "none" />	<path d = "M390 230 L390 200 L360 200 L360 230 L390 230 Z" stroke = "#ff0000" stroke-width = "1" fill = "none" />	<path d = "M390 200 L390 170 L360 170 L360 200 L390 200 Z" stroke = "#ff0000" stroke-width = "1" fill = "none" />	<path d = "M390 170 L390 140 L360 140 L360 170 L390 170 Z" stroke = "#ff0000" stroke-width = "1" fill = "none" />	<path d = "M390 140 L390 110 L360 110 L360 140 L390 140 Z" stroke = "#ff0000" stroke-width = "1" fill = "none" />	<path d = "M420 350 L420 320 L390 320 L390 350 L420 350 Z" stroke = "#ff0000" stroke-width = "1" fill = "none" />	<path d = "M420 320 L420 290 L390 290 L390 320 L420 320 Z" stroke = "#ff0000" stroke-width = "1" fill = "none" />	<path d = "M420 290 L420 260 L390 260 L390 290 L420 290 Z" stroke = "#ff0000" stroke-width = "1" fill = "none" />	<path d = "M420 260 L420 230 L390 230 L390 260 L420 260 Z" stroke = "#ff0000" stroke-width = "1" fill = "none" />	<path d = "M420 230 L420 200 L390 200 L390 230 L420 230 Z" stroke = "#ff0000" stroke-width = "1" fill = "none" />	<path d = "M420 200 L420 170 L390 170 L390 200 L420 200 Z" stroke = "#ff0000" stroke-width = "1" fill = "none" />	<path d = "M420 170 L420 140 L390 140 L390 170 L420 170 Z" stroke = "#ff0000" stroke-width = "1" fill = "none" />	<path d = "M420 140 L420 110 L390 110 L390 140 L420 140 Z" stroke = "#ff0000" stroke-width = "1" fill = "none" />	<path d = "M450 350 L450 320 L420 320 L420 350 L450 350 Z" stroke = "#ff0000" stroke-width = "1" fill = "none" />	<path d = "M450 320 L450 290 L420 290 L420 320 L450 320 Z" stroke = "#ff0000" stroke-width = "1" fill = "none" />	<path d = "M450 290 L450 260 L420 260 L420 290 L450 290 Z" stroke = "#ff0000" stroke-width = "1" fill = "none" />	<path d = "M450 260 L450 230 L420 230 L420 260 L450 260 Z" stroke = "#ff0000" stroke-width = "1" fill = "none" />	<path d = "M450 230 L450 200 L420 200 L420 230 L450 230 Z" stroke = "#ff0000" stroke-width = "1" fill = "none" />	<path d = "M450 200 L450 170 L420 170 L420 200 L450 200 Z" stroke = "#ff0000" stroke-width = "1" fill = "none" />	<path d = "M450 170 L450 140 L420 140 L420 170 L450 170 Z" stroke = "#ff0000" stroke-width = "1" fill = "none" />	<path d = "M450 140 L450 110 L420 110 L420 140 L450 140 Z" stroke = "#ff0000" stroke-width = "1" fill = "none" />	<path d = "M480 350 L480 320 L450 320 L450 350 L480 350 Z" stroke = "#ff0000" stroke-width = "1" fill = "none" />	<path d = "M480 320 L480 290 L450 290 L450 320 L480 320 Z" stroke = "#ff0000" stroke-width = "1" fill = "none" />	<path d = "M480 290 L480 260 L450 260 L450 290 L480 290 Z" stroke = "#ff0000" stroke-width = "1" fill = "none" />	<path d = "M480 260 L480 230 L450 230 L450 260 L480 260 Z" stroke = "#ff0000" stroke-width = "1" fill = "none" />	<path d = "M480 230 L480 200 L450 200 L450 230 L480 230 Z" stroke = "#ff0000" stroke-width = "1" fill = "none" />	<path d = "M480 200 L480 170 L450 170 L450 200 L480 200 Z" stroke = "#ff0000" stroke-width = "1" fill = "none" />	<path d = "M480 170 L480 140 L450 140 L450 170 L480 170 Z" stroke = "#ff0000" stroke-width = "1" fill = "none" />	<path d = "M480 140 L480 110 L450 110 L450 140 L480 140 Z" stroke = "#ff0000" stroke-width = "1" fill = "none" />	<path d = "M510 350 L510 320 L480 320 L480 350 L510 350 Z" stroke = "#ff0000" stroke-width = "1" fill = "none" />	<path d = "M510 320 L510 290 L480 290 L480 320 L510 320 Z" stroke = "#ff0000" stroke-width = "1" fill = "none" />	<path d = "M510 290 L510 260 L480 260 L480 290 L510 290 Z" stroke = "#ff0000" stroke-width = "1" fill = "none" />	<path d = "M510 260 L510 230 L480 230 L480 260 L510 260 Z" stroke = "#ff0000" stroke-width = "1" fill = "none" />	<path d = "M510 230 L510 200 L480 200 L480 230 L510 230 Z" stroke = "#ff0000" stroke-width = "1" fill = "none" />	<path d = "M510 200 L510 170 L480 170 L480 200 L510 200 Z" stroke = "#ff0000" stroke-width = "1" fill = "none" />	<path d = "M510 170 L510 140 L480 140 L480 170 L510 170 Z" stroke = "#ff0000" stroke-width = "1" fill = "none" />	<path d = "M510 140 L510 110 L480 110 L480 140 L510 140 Z" stroke = "#ff0000" stroke-width = "1" fill = "none" />	<path d = "M540 350 L540 320 L510 320 L510 350 L540 350 Z" stroke = "#ff0000" stroke-width = "1" fill = "none" />	<path d = "M540 320 L540 290 L510 290 L510 320 L540 320 Z" stroke = "#ff0000" stroke-width = "1" fill = "none" />	<path d = "M540 290 L540 260 L510 260 L510 290 L540 290 Z" stroke = "#ff0000" stroke-width = "1" fill = "none" />	<path d = "M540 260 L540 230 L510 230 L510 260 L540 260 Z" stroke = "#ff0000" stroke-width = "1" fill = "none" />	<path d = "M540 230 L540 200 L510 200 L510 230 L540 230 Z" stroke = "#ff0000" stroke-width = "1" fill = "none" />	<path d = "M540 200 L540 170 L510 170 L510 200 L540 200 Z" stroke = "#ff0000" stroke-width = "1" fill = "none" />	<path d = "M540 170 L540 140 L510 140 L510 170 L540 170 Z" stroke = "#ff0000" stroke-width = "1" fill = "none" />	<path d = "M540 140 L540 110 L510 110 L510 140 L540 140 Z" stroke = "#ff0000" stroke-width = "1" fill = "none" />	<path d = "M90 590 L90 560 L60 560 L60 590 L90 590 Z" stroke = "#ff0000" stroke-width = "1" fill = "none" />	<path d = "M90 560 L90 530 L60 530 L60 560 L90 560 Z" stroke = "#ff0000" stroke-width = "1" fill = "none" />	<path d = "M90 530 L90 500 L60 500 L60 530 L90 530 Z" stroke = "#ff0000" stroke-width = "1" fill = "none" />	<path d = "M90 500 L90 470 L60 470 L60 500 L90 500 Z" stroke = "#ff0000" stroke-width = "1" fill = "none" />	<path d = "M90 470 L90 440 L60 440 L60 470 L90 470 Z" stroke = "#ff0000" stroke-width = "1" fill = "none" />	<path d = "M90 440 L90 410 L60 410 L60 440 L90 440 Z" stroke = "#ff0000" stroke-width = "1" fill = "none" />	<path d = "M90 410 L90 380 L60 380 L60 410 L90 410 Z" stroke = "#ff0000" stroke-width = "1" fill = "none" />	<path d = "M90 380 L90 350 L60 350 L60 380 L90 380 Z" stroke = "#ff0000" stroke-width = "1" fill = "none" />	<path d = "M120 590 L120 560 L90 560 L90 590 L120 590 Z" stroke = "#ff0000" stroke-width = "1" fill = "none" />	<path d = "M120 560 L120 530 L90 530 L90 560 L120 560 Z" stroke = "#ff0000" stroke-width = "1" fill = "none" />	<path d = "M120 530 L120 500 L90 500 L90 530 L120 530 Z" stroke = "#ff0000" stroke-width = "1" fill = "none" />	<path d = "M120 500 L120 470 L90 470 L90 500 L120 500 Z" stroke = "#ff0000" stroke-width = "1" fill = "none" />	<path d = "M120 470 L120 440 L90 440 L90 470 L120 470 Z" stroke = "#ff0000" stroke-width = "1" fill = "none" />	<path d = "M120 440 L120 410 L90 410 L90 440 L120 440 Z" stroke = "#ff0000" stroke-width = "1" fill = "none" />	<path d = "M120 410 L120 380 L90 380 L90 410 L120 410 Z" stroke = "#ff0000" stroke-width = "1" fill = "none" />	<path d = "M120 380 L120 350 L90 350 L90 380 L120 380 Z" stroke = "#ff0000" stroke-width = "1" fill = "none" />	<path d = "M150 590 L150 560 L120 560 L120 590 L150 590 Z" stroke = "#ff0000" stroke-width = "1" fill = "none" />	<path d = "M150 560 L150 530 L120 530 L120 560 L150 560 Z" stroke = "#ff0000" stroke-width = "1" fill = "none" />	<path d = "M150 530 L150 500 L120 500 L120 530 L150 530 Z" stroke = "#ff0000" stroke-width = "1" fill = "none" />	<path d = "M150 500 L150 470 L120 470 L120 500 L150 500 Z" stroke = "#ff0000" stroke-width = "1" fill = "none" />	<path d = "M150 470 L150 440 L120 440 L120 470 L150 470 Z" stroke = "#ff0000" stroke-width = "1" fill = "none" />	<path d = "M150 440 L150 410 L120 410 L120 440 L150 440 Z" stroke = "#ff0000" stroke-width = "1" fill = "none" />	<path d = "M150 410 L150 380 L120 380 L120 410 L150 410 Z" stroke = "#ff0000" stroke-width = "1" fill = "none" />	<path d = "M150 380 L150 350 L120 350 L120 380 L150 380 Z" stroke = "#ff0000" stroke-width = "1" fill = "none" />	<path d = "M180 590 L180 560 L150 560 L150 590 L180 590 Z" stroke = "#ff0000" stroke-width = "1" fill = "none" />	<path d = "M180 560 L180 530 L150 530 L150 560 L180 560 Z" stroke = "#ff0000" stroke-width = "1" fill = "none" />	<path d = "M180 530 L180 500 L150 500 L150 530 L180 530 Z" stroke = "#ff0000" stroke-width = "1" fill = "none" />	<path d = "M180 500 L180 470 L150 470 L150 500 L180 500 Z" stroke = "#ff0000" stroke-width = "1" fill = "none" />	<path d = "M180 470 L180 440 L150 440 L150 470 L180 470 Z" stroke = "#ff0000" stroke-width = "1" fill = "none" />	<path d = "M180 440 L180 410 L150 410 L150 440 L180 440 Z" stroke = "#ff0000" stroke-width = "1" fill = "none" />	<path d = "M180 410 L180 380 L150 380 L150 410 L180 410 Z" stroke = "#ff0000" stroke-width = "1" fill = "none" />	<path d = "M180 380 L180 350 L150 350 L150 380 L180 380 Z" stroke = "#ff0000" stroke-width = "1" fill = "none" />	<path d = "M210 590 L210 560 L180 560 L180 590 L210 590 Z" stroke = "#ff0000" stroke-width = "1" fill = "none" />	<path d = "M210 560 L210 530 L180 530 L180 560 L210 560 Z" stroke = "#ff0000" stroke-width = "1" fill = "none" />	<path d = "M210 530 L210 500 L180 500 L180 530 L210 530 Z" stroke = "#ff0000" stroke-width = "1" fill = "none" />	<path d = "M210 500 L210 470 L180 470 L180 500 L210 500 Z" stroke = "#ff0000" stroke-width = "1" fill = "none" />	<path d = "M210 470 L210 440 L180 440 L180 470 L210 470 Z" stroke = "#ff0000" stroke-width = "1" fill = "none" />	<path d = "M210 440 L210 410 L180 410 L180 440 L210 440 Z" stroke = "#ff0000" stroke-width = "1" fill = "none" />	<path d = "M210 410 L210 380 L180 380 L180 410 L210 410 Z" stroke = "#ff0000" stroke-width = "1" fill = "none" />	<path d = "M210 380 L210 350 L180 350 L180 380 L210 380 Z" stroke = "#ff0000" stroke-width = "1" fill = "none" />	<path d = "M240 590 L240 560 L210 560 L210 590 L240 590 Z" stroke = "#ff0000" stroke-width = "1" fill = "none" />	<path d = "M240 560 L240 530 L210 530 L210 560 L240 560 Z" stroke = "#ff0000" stroke-width = "1" fill = "none" />	<path d = "M240 530 L240 500 L210 500 L210 530 L240 530 Z" stroke = "#ff0000" stroke-width = "1" fill = "none" />	<path d = "M240 500 L240 470 L210 470 L210 500 L240 500 Z" stroke = "#ff0000" stroke-width = "1" fill = "none" />	<path d = "M240 470 L240 440 L210 440 L210 470 L240 470 Z" stroke = "#ff0000" stroke-width = "1" fill = "none" />	<path d = "M240 440 L240 410 L210 410 L210 440 L240 440 Z" stroke = "#ff0000" stroke-width = "1" fill = "none" />	<path d = "M240 410 L240 380 L210 380 L210 410 L240 410 Z" stroke = "#ff0000" stroke-width = "1" fill = "none" />	<path d = "M240 380 L240 350 L210 350 L210 380 L240 380 Z" stroke = "#ff0000" stroke-width = "1" fill = "none" />	<path d = "M270 590 L270 560 L240 560 L240 590 L270 590 Z" stroke = "#ff0000" stroke-width = "1" fill = "none" />	<path d = "M270 560 L270 530 L240 530 L240 560 L270 560 Z" stroke = "#ff0000" stroke-width = "1" fill = "none" />	<path d = "M270 530 L270 500 L240 500 L240 530 L270 530 Z" stroke = "#ff0000" stroke-width = "1" fill = "none" />	<path d = "M270 500 L270 470 L240 470 L240 500 L270 500 Z" stroke = "#ff0000" stroke-width = "1" fill = "none" />	<path d = "M270 470 L270 440 L240 440 L240 470 L270 470 Z" stroke = "#ff0000" stroke-width = "1" fill = "none" />	<path d = "M270 440 L270 410 L240 410 L240 440 L270 440 Z" stroke = "#ff0000" stroke-width = "1" fill = "none" />	<path d = "M270 410 L270 380 L240 380 L240 410 L270 410 Z" stroke = "#ff0000" stroke-width = "1" fill = "none" />	<path d = "M270 380 L270 350 L240 350 L240 380 L270 380 Z" stroke = "#ff0000" stroke-width = "1" fill = "none" />	<path d = "M300 590 L300 560 L270 560 L270 590 L300 590 Z" stroke = "#ff0000" stroke-width = "1" fill = "none" />	<path d = "M300 560 L300 530 L270 530 L270 560 L300 560 Z" stroke = "#ff0000" stroke-width = "1" fill = "none" />	<path d = "M300 530 L300 500 L270 500 L270 530 L300 530 Z" stroke = "#ff0000" stroke-width = "1" fill = "none" />	<path d = "M300 500 L300 470 L270 470 L270 500 L300 500 Z" stroke = "#ff0000" stroke-width = "1" fill = "none" />	<path d = "M300 470 L300 440 L270 440 L270 470 L300 470 Z" stroke = "#ff0000" stroke-width = "1" fill = "none" />	<path d = "M300 440 L300 410 L270 410 L270 440 L300 440 Z" stroke = "#ff0000" stroke-width = "1" fill = "none" />	<path d = "M300 410 L300 380 L270 380 L270 410 L300 410 Z" stroke = "#ff0000" stroke-width = "1" fill = "none" />	<path d = "M300 380 L300 350 L270 350 L270 380 L300 380 Z" stroke = "#ff0000" stroke-width = "1" fill = "none" />	<path d = "M330 590 L330 560 L300 560 L300 590 L330 590 Z" stroke = "#ff0000" stroke-width = "1" fill = "none" />	<path d = "M330 560 L330 530 L300 530 L300 560 L330 560 Z" stroke = "#ff0000" stroke-width = "1" fill = "none" />	<path d = "M330 530 L330 500 L300 500 L300 530 L330 530 Z" stroke = "#ff0000" stroke-width = "1" fill = "none" />	<path d = "M330 500 L330 470 L300 470 L300 500 L330 500 Z" stroke = "#ff0000" stroke-width = "1" fill = "none" />	<path d = "M330 470 L330 440 L300 440 L300 470 L330 470 Z" stroke = "#ff0000" stroke-width = "1" fill = "none" />	<path d = "M330 440 L330 410 L300 410 L300 440 L330 440 Z" stroke = "#ff0000" stroke-width = "1" fill = "none" />	<path d = "M330 410 L330 380 L300 380 L300 410 L330 410 Z" stroke = "#ff0000" stroke-width = "1" fill = "none" />	<path d = "M330 380 L330 350 L300 350 L300 380 L330 380 Z" stroke = "#ff0000" stroke-width = "1" fill = "none" />	<path d = "M360 590 L360 560 L330 560 L330 590 L360 590 Z" stroke = "#ff0000" stroke-width = "1" fill = "none" />	<path d = "M360 560 L360 530 L330 530 L330 560 L360 560 Z" stroke = "#ff0000" stroke-width = "1" fill = "none" />	<path d = "M360 530 L360 500 L330 500 L330 530 L360 530 Z" stroke = "#ff0000" stroke-width = "1" fill = "none" />	<path d = "M360 500 L360 470 L330 470 L330 500 L360 500 Z" stroke = "#ff0000" stroke-width = "1" fill = "none" />	<path d = "M360 470 L360 440 L330 440 L330 470 L360 470 Z" stroke = "#ff0000" stroke-width = "1" fill = "none" />	<path d = "M360 440 L360 410 L330 410 L330 440 L360 440 Z" stroke = "#ff0000" stroke-width = "1" fill = "none" />	<path d = "M360 410 L360 380 L330 380 L330 410 L360 410 Z" stroke = "#ff0000" stroke-width = "1" fill = "none" />	<path d = "M360 380 L360 350 L330 350 L330 380 L360 380 Z" stroke = "#ff0000" stroke-width = "1" fill = "none" />	<path d = "M390 590 L390 560 L360 560 L360 590 L390 590 Z" stroke = "#ff0000" stroke-width = "1" fill = "none" />	<path d = "M390 560 L390 530 L360 530 L360 560 L390 560 Z" stroke = "#ff0000" stroke-width = "1" fill = "none" />	<path d = "M390 530 L390 500 L360 500 L360 530 L390 530 Z" stroke = "#ff0000" stroke-width = "1" fill = "none" />	<path d = "M390 500 L390 470 L360 470 L360 500 L390 500 Z" stroke = "#ff0000" stroke-width = "1" fill = "none" />	<path d = "M390 470 L390 440 L360 440 L360 470 L390 470 Z" stroke = "#ff0000" stroke-width = "1" fill = "none" />	<path d = "M390 440 L390 410 L360 410 L360 440 L390 440 Z" stroke = "#ff0000" stroke-width = "1" fill = "none" />	<path d = "M390 410 L390 380 L360 380 L360 410 L390 410 Z" stroke = "#ff0000" stroke-width = "1" fill = "none" />	<path d = "M390 380 L390 350 L360 350 L360 380 L390 380 Z" stroke = "#ff0000" stroke-width = "1" fill = "none" />	<path d = "M420 590 L420 560 L390 560 L390 590 L420 590 Z" stroke = "#ff0000" stroke-width = "1" fill = "none" />	<path d = "M420 560 L420 530 L390 530 L390 560 L420 560 Z" stroke = "#ff0000" stroke-width = "1" fill = "none" />	<path d = "M420 530 L420 500 L390 500 L390 530 L420 530 Z" stroke = "#ff0000" stroke-width = "1" fill = "none" />	<path d = "M420 500 L420 470 L390 470 L390 500 L420 500 Z" stroke = "#ff0000" stroke-width = "1" fill = "none" />	<path d = "M420 470 L420 440 L390 440 L390 470 L420 470 Z" stroke = "#ff0000" stroke-width = "1" fill = "none" />	<path d = "M420 440 L420 410 L390 410 L390 440 L420 440 Z" stroke = "#ff0000" stroke-width = "1" fill = "none" />	<path d = "M420 410 L420 380 L390 380 L390 410 L420 410 Z" stroke = "#ff0000" stroke-width = "1" fill = "none" />	<path d = "M420 380 L420 350 L390 350 L390 380 L420 380 Z" stroke = "#ff0000" stroke-width = "1" fill = "none" />	<path d = "M450 590 L450 560 L420 560 L420 590 L450 590 Z" stroke = "#ff0000" stroke-width = "1" fill = "none" />	<path d = "M450 560 L450 530 L420 530 L420 560 L450 560 Z" stroke = "#ff0000" stroke-width = "1" fill = "none" />	<path d = "M450 530 L450 500 L420 500 L420 530 L450 530 Z" stroke = "#ff0000" stroke-width = "1" fill = "none" />	<path d = "M450 500 L450 470 L420 470 L420 500 L450 500 Z" stroke = "#ff0000" stroke-width = "1" fill = "none" />	<path d = "M450 470 L450 440 L420 440 L420 470 L450 470 Z" stroke = "#ff0000" stroke-width = "1" fill = "none" />	<path d = "M450 440 L450 410 L420 410 L420 440 L450 440 Z" stroke = "#ff0000" stroke-width = "1" fill = "none" />	<path d = "M450 410 L450 380 L420 380 L420 410 L450 410 Z" stroke = "#ff0000" stroke-width = "1" fill = "none" />	<path d = "M450 380 L450 350 L420 350 L420 380 L450 380 Z" stroke = "#ff0000" stroke-width = "1" fill = "none" />	<path d = "M480 590 L480 560 L450 560 L450 590 L480 590 Z" stroke = "#ff0000" stroke-width = "1" fill = "none" />	<path d = "M480 560 L480 530 L450 530 L450 560 L480 560 Z" stroke = "#ff0000" stroke-width = "1" fill = "none" />	<path d = "M480 530 L480 500 L450 500 L450 530 L480 530 Z" stroke = "#ff0000" stroke-width = "1" fill = "none" />	<path d = "M480 500 L480 470 L450 470 L450 500 L480 500 Z" stroke = "#ff0000" stroke-width = "1" fill = "none" />	<path d = "M480 470 L480 440 L450 440 L450 470 L480 470 Z" stroke = "#ff0000" stroke-width = "1" fill = "none" />	<path d = "M480 440 L480 410 L450 410 L450 440 L480 440 Z" stroke = "#ff0000" stroke-width = "1" fill = "none" />	<path d = "M480 410 L480 380 L450 380 L450 410 L480 410 Z" stroke = "#ff0000" stroke-width = "1" fill = "none" />	<path d = "M480 380 L480 350 L450 350 L450 380 L480 380 Z" stroke = "#ff0000" stroke-width = "1" fill = "none" />	<path d = "M510 590 L510 560 L480 560 L480 590 L510 590 Z" stroke = "#ff0000" stroke-width = "1" fill = "none" />	<path d = "M510 560 L510 530 L480 530 L480 560 L510 560 Z" stroke = "#ff0000" stroke-width = "1" fill = "none" />	<path d = "M510 530 L510 500 L480 500 L480 530 L510 530 Z" stroke = "#ff0000" stroke-width = "1" fill = "none" />	<path d = "M510 500 L510 470 L480 470 L480 500 L510 500 Z" stroke = "#ff0000" stroke-width = "1" fill = "none" />	<path d = "M510 470 L510 440 L480 440 L480 470 L510 470 Z" stroke = "#ff0000" stroke-width = "1" fill = "none" />	<path d = "M510 440 L510 410 L480 410 L480 440 L510 440 Z" stroke = "#ff0000" stroke-width = "1" fill = "none" />	<path d = "M510 410 L510 380 L480 380 L480 410 L510 410 Z" stroke = "#ff0000" stroke-width = "1" fill = "none" />	<path d = "M510 380 L510 350 L480 350 L480 380 L510 380 Z" stroke = "#ff0000" stroke-width = "1" fill = "none" />	<path d = "M540 590 L540 560 L510 560 L510 590 L540 590 Z" stroke = "#ff0000" stroke-width = "1" fill = "none" />	<path d = "M540 560 L540 530 L510 530 L510 560 L540 560 Z" stroke = "#ff0000" stroke-width = "1" fill = "none" />	<path d = "M540 530 L540 500 L510 500 L510 530 L540 530 Z" stroke = "#ff0000" stroke-width = "1" fill = "none" />	<path d = "M540 500 L540 470 L510 470 L510 500 L540 500 Z" stroke = "#ff0000" stroke-width = "1" fill = "none" />	<path d = "M540 470 L540 440 L510 440 L510 470 L540 470 Z" stroke = "#ff0000" stroke-width = "1" fill = "none" />	<path d = "M540 440 L540 410 L510 410 L510 440 L540 440 Z" stroke = "#ff0000" stroke-width = "1" fill = "none" />	<path d = "M540 410 L540 380 L510 380 L510 410 L540 410 Z" stroke = "#ff0000" stroke-width = "1" fill = "none" />	<path d = "M540 380 L540 350 L510 350 L510 380 L540 380 Z" stroke = "#ff0000" stroke-width = "1" fill = "none" /></svg>