<svg width="600" height="600" viewbox = "0 0 600 600"  xmlns="http://www.w3.org/2000/svg">
<!--<json>{
  "glyph": "0334,0326,0201,0201,0201,0201,0334,0201,0201,0201,0201,0201,0201,0201,0201,0201,0350,0334,0310,0337,0201,0334,0336,0313,0304,0201,0201,0201,0201,0201,0201,0350,0334,0310,0337,0201,0334,0336,0201,0304,0313,0201,0201,0201,0201,0201,0201,0201,0201,0334,0201,0201,0201,0201,0201,0335,0332,0332,0332,0334,0201,0335,0201,0335,0201,0201,0201,0201,0201,0201,0201,0201,0201,0201,0335,0201,0335,0201,0335,0330,0332,0332,0332,0201,0334,0201,0201,0334,0201,0335,0335,0331,0331,0331,0331,0333,0331,0331,0331,0331,0331,0201,0201,0201,0201,0201,0201,0333,0333,0331,0331,0331,0331,0331,0331,0201,0201,0201,0201,0201,0201,0331,0331,0331,0331,0332,0332,0332,0331,0332,0331,0201,0201,0201,0201,0201,0201,0333,0333,0330,0330,0322,0331,0331,0331,0331,0331,0332,0332,0332,0332,0332,0332,0332,0221,0221,0331,0331,0331,0331,0331,0331,0332,0332,0332,0332,0332,0332,0332,0332,0332,0332,0331,0332,0332,0332,0332,0332,0332,0332,0331,0333,0221,0221,0332,0332,0332,0332,0332,0332,0321,0332,0332,0332,0330,0330,0330,0330,0330,0330,0330,0330,0330,0337,0337,0337,0342,0335,0342,0335,0342,0335,0342,0335,0330,0336,0336,0336,0333,0333,0331,0333,0331,0331,0331,0331,0331,0331,0331,0331,0331,0331,0331,0331,0331,",
  "shapes": [
    "0220:0200,0330,0200,0330,0200,0330,0200,0330,0200,0330,0200,0330,0200,0330,0200,0331,0331,0331,0331,0331,0331,0331,0333,",
    "0221:0220,0220,0220,0220,0220,0220,0220,0220,",
    "0222:0221,0221,0221,0221,0221,0221,0221,0221,",
    "0223:0503,",
    "0224:0504,",
    "0225:0505,",
    "0226:0506,",
    "0227:0507,",
    "0230:0504,",
    "0231:0505,",
    "0232:0506,",
    "0233:0507,",
    "0234:0331,0334,0337,",
    "0235:0322,0233,0323,0233,0324,0233,0325,0233,0326,0233,0327,0233,0234,0234,0234,0234,0234,0234,",
    "0236:0304,0313,0334,0331,0337,0306,0322,0362,0203,0335,0335,0203,0335,0335,0203,0363,0335,0335,0312,0323,0350,0335,0312,0336,0362,0203,0334,0334,0203,0334,0334,0334,0334,0334,0337,0203,0363,0335,0336,0331,0335,0324,0336,0362,0203,0335,0335,0335,0335,0203,0335,0335,0335,0335,0203,0363,0334,0334,0331,0325,0336,0334,0362,0203,0334,0334,0203,0334,0334,0334,0334,0334,0337,0203,0363,0334,0334,0334,0334,0334,0336,0330,0334,0334,0334,0326,0336,0362,0203,0334,0334,0334,0334,0203,0334,0334,0334,0334,0203,0363,0335,0335,0331,0336,0327,0362,0335,0203,0335,0335,0203,0335,0335,0335,0335,0335,0337,0203,0363,0334,0336,0331,0320,0342,0334,0334,0334,0334,0342,0330,0335,0337,0331,0342,0335,0335,0342,0335,0337,0342,0334,0334,0334,0334,0342,0330,0335,0337,0331,0342,0335,0335,0342,0337,0335,0342,0334,0334,0334,0334,0342,0335,0335,0335,0335,0330,0335,0335,0335,0335,0335,0337,0362,0203,0335,0335,0335,0335,0203,0335,0335,0335,0335,0203,0354,0304,0313,0335,0336,0333,",
    "0237:01304,01305,01306,",
    "0241:01350,01351,01352,01353,",
    "0242:01310,01311,01312,01313,01314,01316,",
    "0243:0530,",
    "0244:0531,",
    "0245:0532,",
    "0246:0533,",
    "01220:0333,0200,0336,0330,0332,0336,0331,0336,0220,0331,0333,0331,0333,0333,0337,0337,0337,",
    "01221:0333,0200,0336,0330,0336,0331,0332,0331,0336,0330,0333,0332,0332,0332,0332,0336,0221,0331,0331,0333,0333,0337,0337,0337,0337,",
    "01222:01502,",
    "01223:01503,",
    "01224:01504,",
    "01225:01505,",
    "01226:01506,",
    "01227:01507,",
    "01230:01504,",
    "01231:01505,",
    "01232:01506,",
    "01233:01507,",
    "01234:0333,0200,0336,0330,0332,0336,0332,0233,0234,0313,0304,0336,0330,0334,0331,0337,0240,0335,0336,0332,0331,0337,0332,0337,0331,0337,0333,",
    "01235:0333,0200,0336,0330,0332,0336,0331,0333,0337,0332,0336,0330,0235,0313,0304,0320,0332,0337,0331,0337,0333,",
    "01236:0333,0200,0336,0330,0332,0336,0331,0337,0210,0236,0211,0336,0331,0337,0333,0337,",
    "01237:0333,0200,0336,0330,0332,0336,0332,0336,0332,0337,0237,0336,0333,0337,0337,0331,0337,",
    "01240:0333,0200,0336,0330,0332,0336,0331,0337,0240,0336,0331,0337,0333,0337,",
    "01241:0333,0200,0336,0330,0332,0336,0332,0332,0241,0331,0331,0337,0337,",
    "01242:0333,0200,0336,0332,0332,0336,0330,0330,0336,0333,0242,0333,0337,0337,0331,0337,",
    "01243:01530,",
    "01244:01531,",
    "01245:01532,",
    "01246:01533,",
    "01247:0333,0200,0336,0330,0332,0337,0247,0336,0333,0331,0337,"
  ],
  "x0rel": 0.5,
  "y0rel": 0.25,
  "unitrel": 0.049999999999999996,
  "theta0": -1.570796,
  "width": 600,
  "height": 600,
  "scale": 1,
  "backgroundimage": "",
  "style": {
    "color0": "black",
    "fill0": "black",
    "line0": 1,
    "color1": "black",
    "fill1": "black",
    "line1": 5,
    "color2": "red",
    "fill2": "red",
    "line2": 0.2,
    "color3": "#FF7900",
    "fill3": "#FF7900",
    "line3": 1,
    "color4": "yellow",
    "fill4": "yellow",
    "line4": 1,
    "color5": "green",
    "fill5": "green",
    "line5": 1,
    "color6": "blue",
    "fill6": "blue",
    "line6": 10,
    "color7": "purple",
    "fill7": "purple",
    "line7": 1
  },
  "controlbuttons": [
    196,
    198,
    200,
    203,
    128,
    216,
    217,
    218,
    219,
    220,
    221,
    222,
    223,
    27,
    8,
    225,
    192,
    16,
    17,
    144,
    145,
    146,
    147,
    148,
    149,
    150,
    151,
    152,
    153,
    154,
    155,
    156,
    157,
    158,
    159,
    160,
    161,
    162,
    136,
    137
  ],
  "imgw": 0.7416666666666667,
  "imgx": 0.135,
  "imgy": 0.14666666666666667,
  "imgtheta": 0
}</json>-->    <line x1="300" y1="150" x2="270" y2="150" style="stroke:#0000ff;stroke-width:10" />
    <line x1="270" y1="150" x2="240" y2="150" style="stroke:#0000ff;stroke-width:10" />
    <line x1="240" y1="150" x2="210" y2="150" style="stroke:#0000ff;stroke-width:10" />
    <line x1="210" y1="150" x2="180" y2="150" style="stroke:#0000ff;stroke-width:10" />
    <line x1="180" y1="150" x2="180" y2="180" style="stroke:#0000ff;stroke-width:10" />
    <line x1="180" y1="180" x2="180" y2="210" style="stroke:#0000ff;stroke-width:10" />
    <line x1="180" y1="210" x2="180" y2="240" style="stroke:#0000ff;stroke-width:10" />
    <line x1="180" y1="240" x2="180" y2="270" style="stroke:#0000ff;stroke-width:10" />
    <line x1="180" y1="270" x2="180" y2="300" style="stroke:#0000ff;stroke-width:10" />
    <line x1="180" y1="300" x2="180" y2="330" style="stroke:#0000ff;stroke-width:10" />
    <line x1="180" y1="330" x2="180" y2="360" style="stroke:#0000ff;stroke-width:10" />
    <line x1="180" y1="360" x2="180" y2="390" style="stroke:#0000ff;stroke-width:10" />
    <line x1="180" y1="390" x2="180" y2="420" style="stroke:#0000ff;stroke-width:10" />
    <line x1="180" y1="420" x2="210" y2="450" style="stroke:#0000ff;stroke-width:10" />
    <line x1="210" y1="450" x2="240" y2="450" style="stroke:#0000ff;stroke-width:10" />
    <line x1="240" y1="450" x2="270" y2="450" style="stroke:#0000ff;stroke-width:10" />
    <line x1="270" y1="450" x2="300" y2="450" style="stroke:#0000ff;stroke-width:10" />
    <line x1="300" y1="450" x2="330" y2="450" style="stroke:#0000ff;stroke-width:10" />
    <line x1="330" y1="450" x2="360" y2="450" style="stroke:#0000ff;stroke-width:10" />
    <line x1="360" y1="450" x2="390" y2="450" style="stroke:#0000ff;stroke-width:10" />
    <line x1="390" y1="450" x2="420" y2="420" style="stroke:#0000ff;stroke-width:10" />
    <line x1="420" y1="420" x2="420" y2="390" style="stroke:#0000ff;stroke-width:10" />
    <line x1="420" y1="390" x2="420" y2="360" style="stroke:#0000ff;stroke-width:10" />
    <line x1="420" y1="360" x2="420" y2="330" style="stroke:#0000ff;stroke-width:10" />
    <line x1="420" y1="330" x2="420" y2="300" style="stroke:#0000ff;stroke-width:10" />
    <line x1="420" y1="300" x2="420" y2="270" style="stroke:#0000ff;stroke-width:10" />
    <line x1="420" y1="270" x2="420" y2="240" style="stroke:#0000ff;stroke-width:10" />
    <line x1="420" y1="240" x2="420" y2="210" style="stroke:#0000ff;stroke-width:10" />
    <line x1="420" y1="210" x2="420" y2="180" style="stroke:#0000ff;stroke-width:10" />
    <line x1="420" y1="180" x2="420" y2="150" style="stroke:#0000ff;stroke-width:10" />
    <line x1="420" y1="150" x2="390" y2="150" style="stroke:#0000ff;stroke-width:10" />
    <line x1="390" y1="150" x2="360" y2="150" style="stroke:#0000ff;stroke-width:10" />
    <line x1="360" y1="150" x2="330" y2="150" style="stroke:#0000ff;stroke-width:10" />
    <line x1="330" y1="150" x2="300" y2="150" style="stroke:#0000ff;stroke-width:10" />
    <line x1="300" y1="150" x2="270" y2="150" style="stroke:#0000ff;stroke-width:10" />
    <line x1="180" y1="150" x2="150" y2="150" style="stroke:#0000ff;stroke-width:10" />
    <line x1="150" y1="150" x2="150" y2="120" style="stroke:#0000ff;stroke-width:10" />
    <line x1="150" y1="120" x2="180" y2="120" style="stroke:#0000ff;stroke-width:10" />
    <line x1="180" y1="120" x2="210" y2="120" style="stroke:#0000ff;stroke-width:10" />
    <line x1="210" y1="120" x2="240" y2="120" style="stroke:#0000ff;stroke-width:10" />
    <line x1="240" y1="120" x2="270" y2="120" style="stroke:#0000ff;stroke-width:10" />
    <line x1="270" y1="120" x2="300" y2="120" style="stroke:#0000ff;stroke-width:10" />
    <line x1="300" y1="120" x2="330" y2="120" style="stroke:#0000ff;stroke-width:10" />
    <line x1="330" y1="120" x2="360" y2="120" style="stroke:#0000ff;stroke-width:10" />
    <line x1="360" y1="120" x2="390" y2="120" style="stroke:#0000ff;stroke-width:10" />
    <line x1="390" y1="120" x2="420" y2="120" style="stroke:#0000ff;stroke-width:10" />
    <line x1="420" y1="120" x2="450" y2="120" style="stroke:#0000ff;stroke-width:10" />
    <line x1="450" y1="120" x2="450" y2="150" style="stroke:#0000ff;stroke-width:10" />
    <line x1="450" y1="150" x2="420" y2="150" style="stroke:#0000ff;stroke-width:10" />
    <line x1="330" y1="120" x2="330" y2="90" style="stroke:#0000ff;stroke-width:10" />
    <line x1="330" y1="90" x2="300" y2="90" style="stroke:#0000ff;stroke-width:10" />
    <line x1="300" y1="90" x2="270" y2="90" style="stroke:#0000ff;stroke-width:10" />
    <line x1="270" y1="90" x2="270" y2="120" style="stroke:#0000ff;stroke-width:10" />
    <line x1="300" y1="390" x2="300" y2="360" style="stroke:#0000ff;stroke-width:10" />
    <line x1="300" y1="360" x2="300" y2="330" style="stroke:#0000ff;stroke-width:10" />
    <line x1="300" y1="330" x2="300" y2="300" style="stroke:#0000ff;stroke-width:10" />
    <line x1="300" y1="300" x2="300" y2="270" style="stroke:#0000ff;stroke-width:10" />
    <line x1="300" y1="270" x2="300" y2="240" style="stroke:#0000ff;stroke-width:10" />
    <line x1="300" y1="240" x2="300" y2="210" style="stroke:#0000ff;stroke-width:10" />
    <line x1="360" y1="390" x2="360" y2="360" style="stroke:#0000ff;stroke-width:10" />
    <line x1="360" y1="360" x2="360" y2="330" style="stroke:#0000ff;stroke-width:10" />
    <line x1="360" y1="330" x2="360" y2="300" style="stroke:#0000ff;stroke-width:10" />
    <line x1="360" y1="300" x2="360" y2="270" style="stroke:#0000ff;stroke-width:10" />
    <line x1="360" y1="270" x2="360" y2="240" style="stroke:#0000ff;stroke-width:10" />
    <line x1="360" y1="240" x2="360" y2="210" style="stroke:#0000ff;stroke-width:10" />
    <line x1="240" y1="390" x2="240" y2="360" style="stroke:#0000ff;stroke-width:10" />
    <line x1="240" y1="360" x2="240" y2="330" style="stroke:#0000ff;stroke-width:10" />
    <line x1="240" y1="330" x2="240" y2="300" style="stroke:#0000ff;stroke-width:10" />
    <line x1="240" y1="300" x2="240" y2="270" style="stroke:#0000ff;stroke-width:10" />
    <line x1="240" y1="270" x2="240" y2="240" style="stroke:#0000ff;stroke-width:10" />
    <line x1="240" y1="240" x2="240" y2="210" style="stroke:#0000ff;stroke-width:10" />
	<path d = "M90 300 L90 270 L60 270 L60 300 L90 300 Z" stroke = "#ff0000" stroke-width = "0.20000000298023224" fill = "none" />	<path d = "M90 270 L90 240 L60 240 L60 270 L90 270 Z" stroke = "#ff0000" stroke-width = "0.20000000298023224" fill = "none" />	<path d = "M90 240 L90 210 L60 210 L60 240 L90 240 Z" stroke = "#ff0000" stroke-width = "0.20000000298023224" fill = "none" />	<path d = "M90 210 L90 180 L60 180 L60 210 L90 210 Z" stroke = "#ff0000" stroke-width = "0.20000000298023224" fill = "none" />	<path d = "M90 180 L90 150 L60 150 L60 180 L90 180 Z" stroke = "#ff0000" stroke-width = "0.20000000298023224" fill = "none" />	<path d = "M90 150 L90 120 L60 120 L60 150 L90 150 Z" stroke = "#ff0000" stroke-width = "0.20000000298023224" fill = "none" />	<path d = "M90 120 L90 90 L60 90 L60 120 L90 120 Z" stroke = "#ff0000" stroke-width = "0.20000000298023224" fill = "none" />	<path d = "M90 90 L90 60 L60 60 L60 90 L90 90 Z" stroke = "#ff0000" stroke-width = "0.20000000298023224" fill = "none" />	<path d = "M120 300 L120 270 L90 270 L90 300 L120 300 Z" stroke = "#ff0000" stroke-width = "0.20000000298023224" fill = "none" />	<path d = "M120 270 L120 240 L90 240 L90 270 L120 270 Z" stroke = "#ff0000" stroke-width = "0.20000000298023224" fill = "none" />	<path d = "M120 240 L120 210 L90 210 L90 240 L120 240 Z" stroke = "#ff0000" stroke-width = "0.20000000298023224" fill = "none" />	<path d = "M120 210 L120 180 L90 180 L90 210 L120 210 Z" stroke = "#ff0000" stroke-width = "0.20000000298023224" fill = "none" />	<path d = "M120 180 L120 150 L90 150 L90 180 L120 180 Z" stroke = "#ff0000" stroke-width = "0.20000000298023224" fill = "none" />	<path d = "M120 150 L120 120 L90 120 L90 150 L120 150 Z" stroke = "#ff0000" stroke-width = "0.20000000298023224" fill = "none" />	<path d = "M120 120 L120 90 L90 90 L90 120 L120 120 Z" stroke = "#ff0000" stroke-width = "0.20000000298023224" fill = "none" />	<path d = "M120 90 L120 60 L90 60 L90 90 L120 90 Z" stroke = "#ff0000" stroke-width = "0.20000000298023224" fill = "none" />	<path d = "M150 300 L150 270 L120 270 L120 300 L150 300 Z" stroke = "#ff0000" stroke-width = "0.20000000298023224" fill = "none" />	<path d = "M150 270 L150 240 L120 240 L120 270 L150 270 Z" stroke = "#ff0000" stroke-width = "0.20000000298023224" fill = "none" />	<path d = "M150 240 L150 210 L120 210 L120 240 L150 240 Z" stroke = "#ff0000" stroke-width = "0.20000000298023224" fill = "none" />	<path d = "M150 210 L150 180 L120 180 L120 210 L150 210 Z" stroke = "#ff0000" stroke-width = "0.20000000298023224" fill = "none" />	<path d = "M150 180 L150 150 L120 150 L120 180 L150 180 Z" stroke = "#ff0000" stroke-width = "0.20000000298023224" fill = "none" />	<path d = "M150 150 L150 120 L120 120 L120 150 L150 150 Z" stroke = "#ff0000" stroke-width = "0.20000000298023224" fill = "none" />	<path d = "M150 120 L150 90 L120 90 L120 120 L150 120 Z" stroke = "#ff0000" stroke-width = "0.20000000298023224" fill = "none" />	<path d = "M150 90 L150 60 L120 60 L120 90 L150 90 Z" stroke = "#ff0000" stroke-width = "0.20000000298023224" fill = "none" />	<path d = "M180 300 L180 270 L150 270 L150 300 L180 300 Z" stroke = "#ff0000" stroke-width = "0.20000000298023224" fill = "none" />	<path d = "M180 270 L180 240 L150 240 L150 270 L180 270 Z" stroke = "#ff0000" stroke-width = "0.20000000298023224" fill = "none" />	<path d = "M180 240 L180 210 L150 210 L150 240 L180 240 Z" stroke = "#ff0000" stroke-width = "0.20000000298023224" fill = "none" />	<path d = "M180 210 L180 180 L150 180 L150 210 L180 210 Z" stroke = "#ff0000" stroke-width = "0.20000000298023224" fill = "none" />	<path d = "M180 180 L180 150 L150 150 L150 180 L180 180 Z" stroke = "#ff0000" stroke-width = "0.20000000298023224" fill = "none" />	<path d = "M180 150 L180 120 L150 120 L150 150 L180 150 Z" stroke = "#ff0000" stroke-width = "0.20000000298023224" fill = "none" />	<path d = "M180 120 L180 90 L150 90 L150 120 L180 120 Z" stroke = "#ff0000" stroke-width = "0.20000000298023224" fill = "none" />	<path d = "M180 90 L180 60 L150 60 L150 90 L180 90 Z" stroke = "#ff0000" stroke-width = "0.20000000298023224" fill = "none" />	<path d = "M210 300 L210 270 L180 270 L180 300 L210 300 Z" stroke = "#ff0000" stroke-width = "0.20000000298023224" fill = "none" />	<path d = "M210 270 L210 240 L180 240 L180 270 L210 270 Z" stroke = "#ff0000" stroke-width = "0.20000000298023224" fill = "none" />	<path d = "M210 240 L210 210 L180 210 L180 240 L210 240 Z" stroke = "#ff0000" stroke-width = "0.20000000298023224" fill = "none" />	<path d = "M210 210 L210 180 L180 180 L180 210 L210 210 Z" stroke = "#ff0000" stroke-width = "0.20000000298023224" fill = "none" />	<path d = "M210 180 L210 150 L180 150 L180 180 L210 180 Z" stroke = "#ff0000" stroke-width = "0.20000000298023224" fill = "none" />	<path d = "M210 150 L210 120 L180 120 L180 150 L210 150 Z" stroke = "#ff0000" stroke-width = "0.20000000298023224" fill = "none" />	<path d = "M210 120 L210 90 L180 90 L180 120 L210 120 Z" stroke = "#ff0000" stroke-width = "0.20000000298023224" fill = "none" />	<path d = "M210 90 L210 60 L180 60 L180 90 L210 90 Z" stroke = "#ff0000" stroke-width = "0.20000000298023224" fill = "none" />	<path d = "M240 300 L240 270 L210 270 L210 300 L240 300 Z" stroke = "#ff0000" stroke-width = "0.20000000298023224" fill = "none" />	<path d = "M240 270 L240 240 L210 240 L210 270 L240 270 Z" stroke = "#ff0000" stroke-width = "0.20000000298023224" fill = "none" />	<path d = "M240 240 L240 210 L210 210 L210 240 L240 240 Z" stroke = "#ff0000" stroke-width = "0.20000000298023224" fill = "none" />	<path d = "M240 210 L240 180 L210 180 L210 210 L240 210 Z" stroke = "#ff0000" stroke-width = "0.20000000298023224" fill = "none" />	<path d = "M240 180 L240 150 L210 150 L210 180 L240 180 Z" stroke = "#ff0000" stroke-width = "0.20000000298023224" fill = "none" />	<path d = "M240 150 L240 120 L210 120 L210 150 L240 150 Z" stroke = "#ff0000" stroke-width = "0.20000000298023224" fill = "none" />	<path d = "M240 120 L240 90 L210 90 L210 120 L240 120 Z" stroke = "#ff0000" stroke-width = "0.20000000298023224" fill = "none" />	<path d = "M240 90 L240 60 L210 60 L210 90 L240 90 Z" stroke = "#ff0000" stroke-width = "0.20000000298023224" fill = "none" />	<path d = "M270 300 L270 270 L240 270 L240 300 L270 300 Z" stroke = "#ff0000" stroke-width = "0.20000000298023224" fill = "none" />	<path d = "M270 270 L270 240 L240 240 L240 270 L270 270 Z" stroke = "#ff0000" stroke-width = "0.20000000298023224" fill = "none" />	<path d = "M270 240 L270 210 L240 210 L240 240 L270 240 Z" stroke = "#ff0000" stroke-width = "0.20000000298023224" fill = "none" />	<path d = "M270 210 L270 180 L240 180 L240 210 L270 210 Z" stroke = "#ff0000" stroke-width = "0.20000000298023224" fill = "none" />	<path d = "M270 180 L270 150 L240 150 L240 180 L270 180 Z" stroke = "#ff0000" stroke-width = "0.20000000298023224" fill = "none" />	<path d = "M270 150 L270 120 L240 120 L240 150 L270 150 Z" stroke = "#ff0000" stroke-width = "0.20000000298023224" fill = "none" />	<path d = "M270 120 L270 90 L240 90 L240 120 L270 120 Z" stroke = "#ff0000" stroke-width = "0.20000000298023224" fill = "none" />	<path d = "M270 90 L270 60 L240 60 L240 90 L270 90 Z" stroke = "#ff0000" stroke-width = "0.20000000298023224" fill = "none" />	<path d = "M300 300 L300 270 L270 270 L270 300 L300 300 Z" stroke = "#ff0000" stroke-width = "0.20000000298023224" fill = "none" />	<path d = "M300 270 L300 240 L270 240 L270 270 L300 270 Z" stroke = "#ff0000" stroke-width = "0.20000000298023224" fill = "none" />	<path d = "M300 240 L300 210 L270 210 L270 240 L300 240 Z" stroke = "#ff0000" stroke-width = "0.20000000298023224" fill = "none" />	<path d = "M300 210 L300 180 L270 180 L270 210 L300 210 Z" stroke = "#ff0000" stroke-width = "0.20000000298023224" fill = "none" />	<path d = "M300 180 L300 150 L270 150 L270 180 L300 180 Z" stroke = "#ff0000" stroke-width = "0.20000000298023224" fill = "none" />	<path d = "M300 150 L300 120 L270 120 L270 150 L300 150 Z" stroke = "#ff0000" stroke-width = "0.20000000298023224" fill = "none" />	<path d = "M300 120 L300 90 L270 90 L270 120 L300 120 Z" stroke = "#ff0000" stroke-width = "0.20000000298023224" fill = "none" />	<path d = "M300 90 L300 60 L270 60 L270 90 L300 90 Z" stroke = "#ff0000" stroke-width = "0.20000000298023224" fill = "none" />	<path d = "M330 300 L330 270 L300 270 L300 300 L330 300 Z" stroke = "#ff0000" stroke-width = "0.20000000298023224" fill = "none" />	<path d = "M330 270 L330 240 L300 240 L300 270 L330 270 Z" stroke = "#ff0000" stroke-width = "0.20000000298023224" fill = "none" />	<path d = "M330 240 L330 210 L300 210 L300 240 L330 240 Z" stroke = "#ff0000" stroke-width = "0.20000000298023224" fill = "none" />	<path d = "M330 210 L330 180 L300 180 L300 210 L330 210 Z" stroke = "#ff0000" stroke-width = "0.20000000298023224" fill = "none" />	<path d = "M330 180 L330 150 L300 150 L300 180 L330 180 Z" stroke = "#ff0000" stroke-width = "0.20000000298023224" fill = "none" />	<path d = "M330 150 L330 120 L300 120 L300 150 L330 150 Z" stroke = "#ff0000" stroke-width = "0.20000000298023224" fill = "none" />	<path d = "M330 120 L330 90 L300 90 L300 120 L330 120 Z" stroke = "#ff0000" stroke-width = "0.20000000298023224" fill = "none" />	<path d = "M330 90 L330 60 L300 60 L300 90 L330 90 Z" stroke = "#ff0000" stroke-width = "0.20000000298023224" fill = "none" />	<path d = "M360 300 L360 270 L330 270 L330 300 L360 300 Z" stroke = "#ff0000" stroke-width = "0.20000000298023224" fill = "none" />	<path d = "M360 270 L360 240 L330 240 L330 270 L360 270 Z" stroke = "#ff0000" stroke-width = "0.20000000298023224" fill = "none" />	<path d = "M360 240 L360 210 L330 210 L330 240 L360 240 Z" stroke = "#ff0000" stroke-width = "0.20000000298023224" fill = "none" />	<path d = "M360 210 L360 180 L330 180 L330 210 L360 210 Z" stroke = "#ff0000" stroke-width = "0.20000000298023224" fill = "none" />	<path d = "M360 180 L360 150 L330 150 L330 180 L360 180 Z" stroke = "#ff0000" stroke-width = "0.20000000298023224" fill = "none" />	<path d = "M360 150 L360 120 L330 120 L330 150 L360 150 Z" stroke = "#ff0000" stroke-width = "0.20000000298023224" fill = "none" />	<path d = "M360 120 L360 90 L330 90 L330 120 L360 120 Z" stroke = "#ff0000" stroke-width = "0.20000000298023224" fill = "none" />	<path d = "M360 90 L360 60 L330 60 L330 90 L360 90 Z" stroke = "#ff0000" stroke-width = "0.20000000298023224" fill = "none" />	<path d = "M390 300 L390 270 L360 270 L360 300 L390 300 Z" stroke = "#ff0000" stroke-width = "0.20000000298023224" fill = "none" />	<path d = "M390 270 L390 240 L360 240 L360 270 L390 270 Z" stroke = "#ff0000" stroke-width = "0.20000000298023224" fill = "none" />	<path d = "M390 240 L390 210 L360 210 L360 240 L390 240 Z" stroke = "#ff0000" stroke-width = "0.20000000298023224" fill = "none" />	<path d = "M390 210 L390 180 L360 180 L360 210 L390 210 Z" stroke = "#ff0000" stroke-width = "0.20000000298023224" fill = "none" />	<path d = "M390 180 L390 150 L360 150 L360 180 L390 180 Z" stroke = "#ff0000" stroke-width = "0.20000000298023224" fill = "none" />	<path d = "M390 150 L390 120 L360 120 L360 150 L390 150 Z" stroke = "#ff0000" stroke-width = "0.20000000298023224" fill = "none" />	<path d = "M390 120 L390 90 L360 90 L360 120 L390 120 Z" stroke = "#ff0000" stroke-width = "0.20000000298023224" fill = "none" />	<path d = "M390 90 L390 60 L360 60 L360 90 L390 90 Z" stroke = "#ff0000" stroke-width = "0.20000000298023224" fill = "none" />	<path d = "M420 300 L420 270 L390 270 L390 300 L420 300 Z" stroke = "#ff0000" stroke-width = "0.20000000298023224" fill = "none" />	<path d = "M420 270 L420 240 L390 240 L390 270 L420 270 Z" stroke = "#ff0000" stroke-width = "0.20000000298023224" fill = "none" />	<path d = "M420 240 L420 210 L390 210 L390 240 L420 240 Z" stroke = "#ff0000" stroke-width = "0.20000000298023224" fill = "none" />	<path d = "M420 210 L420 180 L390 180 L390 210 L420 210 Z" stroke = "#ff0000" stroke-width = "0.20000000298023224" fill = "none" />	<path d = "M420 180 L420 150 L390 150 L390 180 L420 180 Z" stroke = "#ff0000" stroke-width = "0.20000000298023224" fill = "none" />	<path d = "M420 150 L420 120 L390 120 L390 150 L420 150 Z" stroke = "#ff0000" stroke-width = "0.20000000298023224" fill = "none" />	<path d = "M420 120 L420 90 L390 90 L390 120 L420 120 Z" stroke = "#ff0000" stroke-width = "0.20000000298023224" fill = "none" />	<path d = "M420 90 L420 60 L390 60 L390 90 L420 90 Z" stroke = "#ff0000" stroke-width = "0.20000000298023224" fill = "none" />	<path d = "M450 300 L450 270 L420 270 L420 300 L450 300 Z" stroke = "#ff0000" stroke-width = "0.20000000298023224" fill = "none" />	<path d = "M450 270 L450 240 L420 240 L420 270 L450 270 Z" stroke = "#ff0000" stroke-width = "0.20000000298023224" fill = "none" />	<path d = "M450 240 L450 210 L420 210 L420 240 L450 240 Z" stroke = "#ff0000" stroke-width = "0.20000000298023224" fill = "none" />	<path d = "M450 210 L450 180 L420 180 L420 210 L450 210 Z" stroke = "#ff0000" stroke-width = "0.20000000298023224" fill = "none" />	<path d = "M450 180 L450 150 L420 150 L420 180 L450 180 Z" stroke = "#ff0000" stroke-width = "0.20000000298023224" fill = "none" />	<path d = "M450 150 L450 120 L420 120 L420 150 L450 150 Z" stroke = "#ff0000" stroke-width = "0.20000000298023224" fill = "none" />	<path d = "M450 120 L450 90 L420 90 L420 120 L450 120 Z" stroke = "#ff0000" stroke-width = "0.20000000298023224" fill = "none" />	<path d = "M450 90 L450 60 L420 60 L420 90 L450 90 Z" stroke = "#ff0000" stroke-width = "0.20000000298023224" fill = "none" />	<path d = "M480 300 L480 270 L450 270 L450 300 L480 300 Z" stroke = "#ff0000" stroke-width = "0.20000000298023224" fill = "none" />	<path d = "M480 270 L480 240 L450 240 L450 270 L480 270 Z" stroke = "#ff0000" stroke-width = "0.20000000298023224" fill = "none" />	<path d = "M480 240 L480 210 L450 210 L450 240 L480 240 Z" stroke = "#ff0000" stroke-width = "0.20000000298023224" fill = "none" />	<path d = "M480 210 L480 180 L450 180 L450 210 L480 210 Z" stroke = "#ff0000" stroke-width = "0.20000000298023224" fill = "none" />	<path d = "M480 180 L480 150 L450 150 L450 180 L480 180 Z" stroke = "#ff0000" stroke-width = "0.20000000298023224" fill = "none" />	<path d = "M480 150 L480 120 L450 120 L450 150 L480 150 Z" stroke = "#ff0000" stroke-width = "0.20000000298023224" fill = "none" />	<path d = "M480 120 L480 90 L450 90 L450 120 L480 120 Z" stroke = "#ff0000" stroke-width = "0.20000000298023224" fill = "none" />	<path d = "M480 90 L480 60 L450 60 L450 90 L480 90 Z" stroke = "#ff0000" stroke-width = "0.20000000298023224" fill = "none" />	<path d = "M510 300 L510 270 L480 270 L480 300 L510 300 Z" stroke = "#ff0000" stroke-width = "0.20000000298023224" fill = "none" />	<path d = "M510 270 L510 240 L480 240 L480 270 L510 270 Z" stroke = "#ff0000" stroke-width = "0.20000000298023224" fill = "none" />	<path d = "M510 240 L510 210 L480 210 L480 240 L510 240 Z" stroke = "#ff0000" stroke-width = "0.20000000298023224" fill = "none" />	<path d = "M510 210 L510 180 L480 180 L480 210 L510 210 Z" stroke = "#ff0000" stroke-width = "0.20000000298023224" fill = "none" />	<path d = "M510 180 L510 150 L480 150 L480 180 L510 180 Z" stroke = "#ff0000" stroke-width = "0.20000000298023224" fill = "none" />	<path d = "M510 150 L510 120 L480 120 L480 150 L510 150 Z" stroke = "#ff0000" stroke-width = "0.20000000298023224" fill = "none" />	<path d = "M510 120 L510 90 L480 90 L480 120 L510 120 Z" stroke = "#ff0000" stroke-width = "0.20000000298023224" fill = "none" />	<path d = "M510 90 L510 60 L480 60 L480 90 L510 90 Z" stroke = "#ff0000" stroke-width = "0.20000000298023224" fill = "none" />	<path d = "M540 300 L540 270 L510 270 L510 300 L540 300 Z" stroke = "#ff0000" stroke-width = "0.20000000298023224" fill = "none" />	<path d = "M540 270 L540 240 L510 240 L510 270 L540 270 Z" stroke = "#ff0000" stroke-width = "0.20000000298023224" fill = "none" />	<path d = "M540 240 L540 210 L510 210 L510 240 L540 240 Z" stroke = "#ff0000" stroke-width = "0.20000000298023224" fill = "none" />	<path d = "M540 210 L540 180 L510 180 L510 210 L540 210 Z" stroke = "#ff0000" stroke-width = "0.20000000298023224" fill = "none" />	<path d = "M540 180 L540 150 L510 150 L510 180 L540 180 Z" stroke = "#ff0000" stroke-width = "0.20000000298023224" fill = "none" />	<path d = "M540 150 L540 120 L510 120 L510 150 L540 150 Z" stroke = "#ff0000" stroke-width = "0.20000000298023224" fill = "none" />	<path d = "M540 120 L540 90 L510 90 L510 120 L540 120 Z" stroke = "#ff0000" stroke-width = "0.20000000298023224" fill = "none" />	<path d = "M540 90 L540 60 L510 60 L510 90 L540 90 Z" stroke = "#ff0000" stroke-width = "0.20000000298023224" fill = "none" />	<path d = "M90 540 L90 510 L60 510 L60 540 L90 540 Z" stroke = "#ff0000" stroke-width = "0.20000000298023224" fill = "none" />	<path d = "M90 510 L90 480 L60 480 L60 510 L90 510 Z" stroke = "#ff0000" stroke-width = "0.20000000298023224" fill = "none" />	<path d = "M90 480 L90 450 L60 450 L60 480 L90 480 Z" stroke = "#ff0000" stroke-width = "0.20000000298023224" fill = "none" />	<path d = "M90 450 L90 420 L60 420 L60 450 L90 450 Z" stroke = "#ff0000" stroke-width = "0.20000000298023224" fill = "none" />	<path d = "M90 420 L90 390 L60 390 L60 420 L90 420 Z" stroke = "#ff0000" stroke-width = "0.20000000298023224" fill = "none" />	<path d = "M90 390 L90 360 L60 360 L60 390 L90 390 Z" stroke = "#ff0000" stroke-width = "0.20000000298023224" fill = "none" />	<path d = "M90 360 L90 330 L60 330 L60 360 L90 360 Z" stroke = "#ff0000" stroke-width = "0.20000000298023224" fill = "none" />	<path d = "M90 330 L90 300 L60 300 L60 330 L90 330 Z" stroke = "#ff0000" stroke-width = "0.20000000298023224" fill = "none" />	<path d = "M120 540 L120 510 L90 510 L90 540 L120 540 Z" stroke = "#ff0000" stroke-width = "0.20000000298023224" fill = "none" />	<path d = "M120 510 L120 480 L90 480 L90 510 L120 510 Z" stroke = "#ff0000" stroke-width = "0.20000000298023224" fill = "none" />	<path d = "M120 480 L120 450 L90 450 L90 480 L120 480 Z" stroke = "#ff0000" stroke-width = "0.20000000298023224" fill = "none" />	<path d = "M120 450 L120 420 L90 420 L90 450 L120 450 Z" stroke = "#ff0000" stroke-width = "0.20000000298023224" fill = "none" />	<path d = "M120 420 L120 390 L90 390 L90 420 L120 420 Z" stroke = "#ff0000" stroke-width = "0.20000000298023224" fill = "none" />	<path d = "M120 390 L120 360 L90 360 L90 390 L120 390 Z" stroke = "#ff0000" stroke-width = "0.20000000298023224" fill = "none" />	<path d = "M120 360 L120 330 L90 330 L90 360 L120 360 Z" stroke = "#ff0000" stroke-width = "0.20000000298023224" fill = "none" />	<path d = "M120 330 L120 300 L90 300 L90 330 L120 330 Z" stroke = "#ff0000" stroke-width = "0.20000000298023224" fill = "none" />	<path d = "M150 540 L150 510 L120 510 L120 540 L150 540 Z" stroke = "#ff0000" stroke-width = "0.20000000298023224" fill = "none" />	<path d = "M150 510 L150 480 L120 480 L120 510 L150 510 Z" stroke = "#ff0000" stroke-width = "0.20000000298023224" fill = "none" />	<path d = "M150 480 L150 450 L120 450 L120 480 L150 480 Z" stroke = "#ff0000" stroke-width = "0.20000000298023224" fill = "none" />	<path d = "M150 450 L150 420 L120 420 L120 450 L150 450 Z" stroke = "#ff0000" stroke-width = "0.20000000298023224" fill = "none" />	<path d = "M150 420 L150 390 L120 390 L120 420 L150 420 Z" stroke = "#ff0000" stroke-width = "0.20000000298023224" fill = "none" />	<path d = "M150 390 L150 360 L120 360 L120 390 L150 390 Z" stroke = "#ff0000" stroke-width = "0.20000000298023224" fill = "none" />	<path d = "M150 360 L150 330 L120 330 L120 360 L150 360 Z" stroke = "#ff0000" stroke-width = "0.20000000298023224" fill = "none" />	<path d = "M150 330 L150 300 L120 300 L120 330 L150 330 Z" stroke = "#ff0000" stroke-width = "0.20000000298023224" fill = "none" />	<path d = "M180 540 L180 510 L150 510 L150 540 L180 540 Z" stroke = "#ff0000" stroke-width = "0.20000000298023224" fill = "none" />	<path d = "M180 510 L180 480 L150 480 L150 510 L180 510 Z" stroke = "#ff0000" stroke-width = "0.20000000298023224" fill = "none" />	<path d = "M180 480 L180 450 L150 450 L150 480 L180 480 Z" stroke = "#ff0000" stroke-width = "0.20000000298023224" fill = "none" />	<path d = "M180 450 L180 420 L150 420 L150 450 L180 450 Z" stroke = "#ff0000" stroke-width = "0.20000000298023224" fill = "none" />	<path d = "M180 420 L180 390 L150 390 L150 420 L180 420 Z" stroke = "#ff0000" stroke-width = "0.20000000298023224" fill = "none" />	<path d = "M180 390 L180 360 L150 360 L150 390 L180 390 Z" stroke = "#ff0000" stroke-width = "0.20000000298023224" fill = "none" />	<path d = "M180 360 L180 330 L150 330 L150 360 L180 360 Z" stroke = "#ff0000" stroke-width = "0.20000000298023224" fill = "none" />	<path d = "M180 330 L180 300 L150 300 L150 330 L180 330 Z" stroke = "#ff0000" stroke-width = "0.20000000298023224" fill = "none" />	<path d = "M210 540 L210 510 L180 510 L180 540 L210 540 Z" stroke = "#ff0000" stroke-width = "0.20000000298023224" fill = "none" />	<path d = "M210 510 L210 480 L180 480 L180 510 L210 510 Z" stroke = "#ff0000" stroke-width = "0.20000000298023224" fill = "none" />	<path d = "M210 480 L210 450 L180 450 L180 480 L210 480 Z" stroke = "#ff0000" stroke-width = "0.20000000298023224" fill = "none" />	<path d = "M210 450 L210 420 L180 420 L180 450 L210 450 Z" stroke = "#ff0000" stroke-width = "0.20000000298023224" fill = "none" />	<path d = "M210 420 L210 390 L180 390 L180 420 L210 420 Z" stroke = "#ff0000" stroke-width = "0.20000000298023224" fill = "none" />	<path d = "M210 390 L210 360 L180 360 L180 390 L210 390 Z" stroke = "#ff0000" stroke-width = "0.20000000298023224" fill = "none" />	<path d = "M210 360 L210 330 L180 330 L180 360 L210 360 Z" stroke = "#ff0000" stroke-width = "0.20000000298023224" fill = "none" />	<path d = "M210 330 L210 300 L180 300 L180 330 L210 330 Z" stroke = "#ff0000" stroke-width = "0.20000000298023224" fill = "none" />	<path d = "M240 540 L240 510 L210 510 L210 540 L240 540 Z" stroke = "#ff0000" stroke-width = "0.20000000298023224" fill = "none" />	<path d = "M240 510 L240 480 L210 480 L210 510 L240 510 Z" stroke = "#ff0000" stroke-width = "0.20000000298023224" fill = "none" />	<path d = "M240 480 L240 450 L210 450 L210 480 L240 480 Z" stroke = "#ff0000" stroke-width = "0.20000000298023224" fill = "none" />	<path d = "M240 450 L240 420 L210 420 L210 450 L240 450 Z" stroke = "#ff0000" stroke-width = "0.20000000298023224" fill = "none" />	<path d = "M240 420 L240 390 L210 390 L210 420 L240 420 Z" stroke = "#ff0000" stroke-width = "0.20000000298023224" fill = "none" />	<path d = "M240 390 L240 360 L210 360 L210 390 L240 390 Z" stroke = "#ff0000" stroke-width = "0.20000000298023224" fill = "none" />	<path d = "M240 360 L240 330 L210 330 L210 360 L240 360 Z" stroke = "#ff0000" stroke-width = "0.20000000298023224" fill = "none" />	<path d = "M240 330 L240 300 L210 300 L210 330 L240 330 Z" stroke = "#ff0000" stroke-width = "0.20000000298023224" fill = "none" />	<path d = "M270 540 L270 510 L240 510 L240 540 L270 540 Z" stroke = "#ff0000" stroke-width = "0.20000000298023224" fill = "none" />	<path d = "M270 510 L270 480 L240 480 L240 510 L270 510 Z" stroke = "#ff0000" stroke-width = "0.20000000298023224" fill = "none" />	<path d = "M270 480 L270 450 L240 450 L240 480 L270 480 Z" stroke = "#ff0000" stroke-width = "0.20000000298023224" fill = "none" />	<path d = "M270 450 L270 420 L240 420 L240 450 L270 450 Z" stroke = "#ff0000" stroke-width = "0.20000000298023224" fill = "none" />	<path d = "M270 420 L270 390 L240 390 L240 420 L270 420 Z" stroke = "#ff0000" stroke-width = "0.20000000298023224" fill = "none" />	<path d = "M270 390 L270 360 L240 360 L240 390 L270 390 Z" stroke = "#ff0000" stroke-width = "0.20000000298023224" fill = "none" />	<path d = "M270 360 L270 330 L240 330 L240 360 L270 360 Z" stroke = "#ff0000" stroke-width = "0.20000000298023224" fill = "none" />	<path d = "M270 330 L270 300 L240 300 L240 330 L270 330 Z" stroke = "#ff0000" stroke-width = "0.20000000298023224" fill = "none" />	<path d = "M300 540 L300 510 L270 510 L270 540 L300 540 Z" stroke = "#ff0000" stroke-width = "0.20000000298023224" fill = "none" />	<path d = "M300 510 L300 480 L270 480 L270 510 L300 510 Z" stroke = "#ff0000" stroke-width = "0.20000000298023224" fill = "none" />	<path d = "M300 480 L300 450 L270 450 L270 480 L300 480 Z" stroke = "#ff0000" stroke-width = "0.20000000298023224" fill = "none" />	<path d = "M300 450 L300 420 L270 420 L270 450 L300 450 Z" stroke = "#ff0000" stroke-width = "0.20000000298023224" fill = "none" />	<path d = "M300 420 L300 390 L270 390 L270 420 L300 420 Z" stroke = "#ff0000" stroke-width = "0.20000000298023224" fill = "none" />	<path d = "M300 390 L300 360 L270 360 L270 390 L300 390 Z" stroke = "#ff0000" stroke-width = "0.20000000298023224" fill = "none" />	<path d = "M300 360 L300 330 L270 330 L270 360 L300 360 Z" stroke = "#ff0000" stroke-width = "0.20000000298023224" fill = "none" />	<path d = "M300 330 L300 300 L270 300 L270 330 L300 330 Z" stroke = "#ff0000" stroke-width = "0.20000000298023224" fill = "none" />	<path d = "M330 540 L330 510 L300 510 L300 540 L330 540 Z" stroke = "#ff0000" stroke-width = "0.20000000298023224" fill = "none" />	<path d = "M330 510 L330 480 L300 480 L300 510 L330 510 Z" stroke = "#ff0000" stroke-width = "0.20000000298023224" fill = "none" />	<path d = "M330 480 L330 450 L300 450 L300 480 L330 480 Z" stroke = "#ff0000" stroke-width = "0.20000000298023224" fill = "none" />	<path d = "M330 450 L330 420 L300 420 L300 450 L330 450 Z" stroke = "#ff0000" stroke-width = "0.20000000298023224" fill = "none" />	<path d = "M330 420 L330 390 L300 390 L300 420 L330 420 Z" stroke = "#ff0000" stroke-width = "0.20000000298023224" fill = "none" />	<path d = "M330 390 L330 360 L300 360 L300 390 L330 390 Z" stroke = "#ff0000" stroke-width = "0.20000000298023224" fill = "none" />	<path d = "M330 360 L330 330 L300 330 L300 360 L330 360 Z" stroke = "#ff0000" stroke-width = "0.20000000298023224" fill = "none" />	<path d = "M330 330 L330 300 L300 300 L300 330 L330 330 Z" stroke = "#ff0000" stroke-width = "0.20000000298023224" fill = "none" />	<path d = "M360 540 L360 510 L330 510 L330 540 L360 540 Z" stroke = "#ff0000" stroke-width = "0.20000000298023224" fill = "none" />	<path d = "M360 510 L360 480 L330 480 L330 510 L360 510 Z" stroke = "#ff0000" stroke-width = "0.20000000298023224" fill = "none" />	<path d = "M360 480 L360 450 L330 450 L330 480 L360 480 Z" stroke = "#ff0000" stroke-width = "0.20000000298023224" fill = "none" />	<path d = "M360 450 L360 420 L330 420 L330 450 L360 450 Z" stroke = "#ff0000" stroke-width = "0.20000000298023224" fill = "none" />	<path d = "M360 420 L360 390 L330 390 L330 420 L360 420 Z" stroke = "#ff0000" stroke-width = "0.20000000298023224" fill = "none" />	<path d = "M360 390 L360 360 L330 360 L330 390 L360 390 Z" stroke = "#ff0000" stroke-width = "0.20000000298023224" fill = "none" />	<path d = "M360 360 L360 330 L330 330 L330 360 L360 360 Z" stroke = "#ff0000" stroke-width = "0.20000000298023224" fill = "none" />	<path d = "M360 330 L360 300 L330 300 L330 330 L360 330 Z" stroke = "#ff0000" stroke-width = "0.20000000298023224" fill = "none" />	<path d = "M390 540 L390 510 L360 510 L360 540 L390 540 Z" stroke = "#ff0000" stroke-width = "0.20000000298023224" fill = "none" />	<path d = "M390 510 L390 480 L360 480 L360 510 L390 510 Z" stroke = "#ff0000" stroke-width = "0.20000000298023224" fill = "none" />	<path d = "M390 480 L390 450 L360 450 L360 480 L390 480 Z" stroke = "#ff0000" stroke-width = "0.20000000298023224" fill = "none" />	<path d = "M390 450 L390 420 L360 420 L360 450 L390 450 Z" stroke = "#ff0000" stroke-width = "0.20000000298023224" fill = "none" />	<path d = "M390 420 L390 390 L360 390 L360 420 L390 420 Z" stroke = "#ff0000" stroke-width = "0.20000000298023224" fill = "none" />	<path d = "M390 390 L390 360 L360 360 L360 390 L390 390 Z" stroke = "#ff0000" stroke-width = "0.20000000298023224" fill = "none" />	<path d = "M390 360 L390 330 L360 330 L360 360 L390 360 Z" stroke = "#ff0000" stroke-width = "0.20000000298023224" fill = "none" />	<path d = "M390 330 L390 300 L360 300 L360 330 L390 330 Z" stroke = "#ff0000" stroke-width = "0.20000000298023224" fill = "none" />	<path d = "M420 540 L420 510 L390 510 L390 540 L420 540 Z" stroke = "#ff0000" stroke-width = "0.20000000298023224" fill = "none" />	<path d = "M420 510 L420 480 L390 480 L390 510 L420 510 Z" stroke = "#ff0000" stroke-width = "0.20000000298023224" fill = "none" />	<path d = "M420 480 L420 450 L390 450 L390 480 L420 480 Z" stroke = "#ff0000" stroke-width = "0.20000000298023224" fill = "none" />	<path d = "M420 450 L420 420 L390 420 L390 450 L420 450 Z" stroke = "#ff0000" stroke-width = "0.20000000298023224" fill = "none" />	<path d = "M420 420 L420 390 L390 390 L390 420 L420 420 Z" stroke = "#ff0000" stroke-width = "0.20000000298023224" fill = "none" />	<path d = "M420 390 L420 360 L390 360 L390 390 L420 390 Z" stroke = "#ff0000" stroke-width = "0.20000000298023224" fill = "none" />	<path d = "M420 360 L420 330 L390 330 L390 360 L420 360 Z" stroke = "#ff0000" stroke-width = "0.20000000298023224" fill = "none" />	<path d = "M420 330 L420 300 L390 300 L390 330 L420 330 Z" stroke = "#ff0000" stroke-width = "0.20000000298023224" fill = "none" />	<path d = "M450 540 L450 510 L420 510 L420 540 L450 540 Z" stroke = "#ff0000" stroke-width = "0.20000000298023224" fill = "none" />	<path d = "M450 510 L450 480 L420 480 L420 510 L450 510 Z" stroke = "#ff0000" stroke-width = "0.20000000298023224" fill = "none" />	<path d = "M450 480 L450 450 L420 450 L420 480 L450 480 Z" stroke = "#ff0000" stroke-width = "0.20000000298023224" fill = "none" />	<path d = "M450 450 L450 420 L420 420 L420 450 L450 450 Z" stroke = "#ff0000" stroke-width = "0.20000000298023224" fill = "none" />	<path d = "M450 420 L450 390 L420 390 L420 420 L450 420 Z" stroke = "#ff0000" stroke-width = "0.20000000298023224" fill = "none" />	<path d = "M450 390 L450 360 L420 360 L420 390 L450 390 Z" stroke = "#ff0000" stroke-width = "0.20000000298023224" fill = "none" />	<path d = "M450 360 L450 330 L420 330 L420 360 L450 360 Z" stroke = "#ff0000" stroke-width = "0.20000000298023224" fill = "none" />	<path d = "M450 330 L450 300 L420 300 L420 330 L450 330 Z" stroke = "#ff0000" stroke-width = "0.20000000298023224" fill = "none" />	<path d = "M480 540 L480 510 L450 510 L450 540 L480 540 Z" stroke = "#ff0000" stroke-width = "0.20000000298023224" fill = "none" />	<path d = "M480 510 L480 480 L450 480 L450 510 L480 510 Z" stroke = "#ff0000" stroke-width = "0.20000000298023224" fill = "none" />	<path d = "M480 480 L480 450 L450 450 L450 480 L480 480 Z" stroke = "#ff0000" stroke-width = "0.20000000298023224" fill = "none" />	<path d = "M480 450 L480 420 L450 420 L450 450 L480 450 Z" stroke = "#ff0000" stroke-width = "0.20000000298023224" fill = "none" />	<path d = "M480 420 L480 390 L450 390 L450 420 L480 420 Z" stroke = "#ff0000" stroke-width = "0.20000000298023224" fill = "none" />	<path d = "M480 390 L480 360 L450 360 L450 390 L480 390 Z" stroke = "#ff0000" stroke-width = "0.20000000298023224" fill = "none" />	<path d = "M480 360 L480 330 L450 330 L450 360 L480 360 Z" stroke = "#ff0000" stroke-width = "0.20000000298023224" fill = "none" />	<path d = "M480 330 L480 300 L450 300 L450 330 L480 330 Z" stroke = "#ff0000" stroke-width = "0.20000000298023224" fill = "none" />	<path d = "M510 540 L510 510 L480 510 L480 540 L510 540 Z" stroke = "#ff0000" stroke-width = "0.20000000298023224" fill = "none" />	<path d = "M510 510 L510 480 L480 480 L480 510 L510 510 Z" stroke = "#ff0000" stroke-width = "0.20000000298023224" fill = "none" />	<path d = "M510 480 L510 450 L480 450 L480 480 L510 480 Z" stroke = "#ff0000" stroke-width = "0.20000000298023224" fill = "none" />	<path d = "M510 450 L510 420 L480 420 L480 450 L510 450 Z" stroke = "#ff0000" stroke-width = "0.20000000298023224" fill = "none" />	<path d = "M510 420 L510 390 L480 390 L480 420 L510 420 Z" stroke = "#ff0000" stroke-width = "0.20000000298023224" fill = "none" />	<path d = "M510 390 L510 360 L480 360 L480 390 L510 390 Z" stroke = "#ff0000" stroke-width = "0.20000000298023224" fill = "none" />	<path d = "M510 360 L510 330 L480 330 L480 360 L510 360 Z" stroke = "#ff0000" stroke-width = "0.20000000298023224" fill = "none" />	<path d = "M510 330 L510 300 L480 300 L480 330 L510 330 Z" stroke = "#ff0000" stroke-width = "0.20000000298023224" fill = "none" />	<path d = "M540 540 L540 510 L510 510 L510 540 L540 540 Z" stroke = "#ff0000" stroke-width = "0.20000000298023224" fill = "none" />	<path d = "M540 510 L540 480 L510 480 L510 510 L540 510 Z" stroke = "#ff0000" stroke-width = "0.20000000298023224" fill = "none" />	<path d = "M540 480 L540 450 L510 450 L510 480 L540 480 Z" stroke = "#ff0000" stroke-width = "0.20000000298023224" fill = "none" />	<path d = "M540 450 L540 420 L510 420 L510 450 L540 450 Z" stroke = "#ff0000" stroke-width = "0.20000000298023224" fill = "none" />	<path d = "M540 420 L540 390 L510 390 L510 420 L540 420 Z" stroke = "#ff0000" stroke-width = "0.20000000298023224" fill = "none" />	<path d = "M540 390 L540 360 L510 360 L510 390 L540 390 Z" stroke = "#ff0000" stroke-width = "0.20000000298023224" fill = "none" />	<path d = "M540 360 L540 330 L510 330 L510 360 L540 360 Z" stroke = "#ff0000" stroke-width = "0.20000000298023224" fill = "none" />	<path d = "M540 330 L540 300 L510 300 L510 330 L540 330 Z" stroke = "#ff0000" stroke-width = "0.20000000298023224" fill = "none" />    <line x1="300" y1="270" x2="300" y2="30" style="stroke:#000000;stroke-width:5" />
    <line x1="300" y1="270" x2="540" y2="270" style="stroke:#000000;stroke-width:5" />
    <line x1="300" y1="270" x2="300" y2="510" style="stroke:#000000;stroke-width:5" />
    <line x1="300" y1="270" x2="60" y2="270" style="stroke:#000000;stroke-width:5" />
</svg>