<svg width="712.3" height="335.2" viewbox = "0 0 712.3 335.2"  xmlns="http://www.w3.org/2000/svg">
	<path d = "M105 105 L105 21 L21 21 L21 105 L105 105 Z" stroke = "#000000" stroke-width = "2" fill = "none" />    <circle cx="63" cy = "63" r = "10.475" stroke = "#000000" stroke-width = "2" fill = "#000000" />
	<path d = "M189 105 L189 21 L105 21 L105 105 L189 105 Z" stroke = "#000000" stroke-width = "2" fill = "none" />	<path d = "M157 105 L157 84 L136 84 L136 105 L157 105 Z" stroke = "#000000" stroke-width = "2" fill = "none" />	<path d = "M157 63 L157 42 L136 42 L136 63 L157 63 Z" stroke = "#000000" stroke-width = "2" fill = "none" />	<path d = "M272 105 L272 21 L189 21 L189 105 L272 105 Z" stroke = "#000000" stroke-width = "2" fill = "none" />    <circle cx="230" cy = "63" r = "5.2375" stroke = "#000000" stroke-width = "2" fill = "#000000" />
	<path d = "M356 105 L356 21 L272 21 L272 105 L356 105 Z" stroke = "#000000" stroke-width = "2" fill = "none" />	<path d = "M314 63 L304 63 L304 52 L304 42 L314 42 L325 42 L325 52 L325 63 L314 63 Z" stroke = "#000000" stroke-width = "2" fill = "#000000" />	<path d = "M440 105 L440 21 L356 21 L356 105 L440 105 Z" stroke = "#000000" stroke-width = "2" fill = "none" />	<path d = "M398 63 L388 63 L388 52 L388 42 L377 42 L388 31 L398 21 L409 31 L419 42 L409 42 L409 52 L409 63 L398 63 Z" stroke = "#000000" stroke-width = "2" fill = "#000000" />	<path d = "M524 105 L524 21 L440 21 L440 105 L524 105 Z" stroke = "#000000" stroke-width = "2" fill = "none" />    <line x1="482" y1="84" x2="482" y2="42" style="stroke:#000000;stroke-width:2" />
    <line x1="482" y1="42" x2="446" y2="63" style="stroke:#000000;stroke-width:2" />
    <line x1="446" y1="63" x2="482" y2="84" style="stroke:#000000;stroke-width:2" />
	<path d = "M608 105 L608 21 L524 21 L524 105 L608 105 Z" stroke = "#000000" stroke-width = "2" fill = "none" />    <text x="524" y = "105" fill = "#000000" font-size = "83.8px" font-family = "Arial">A</text>
	<path d = "M691 105 L691 21 L608 21 L608 105 L691 105 Z" stroke = "#000000" stroke-width = "2" fill = "none" /><circle cx="649" cy = "63" r = "9.155485712202802" stroke = "#000000" stroke-width = "2" fill = "none" />
	<path d = "M105 210 L105 126 L21 126 L21 210 L105 210 Z" stroke = "#000000" stroke-width = "2" fill = "none" />	<path d = "M189 210 L189 126 L105 126 L105 210 L189 210 Z" stroke = "#000000" stroke-width = "2" fill = "none" />	<path d = "M272 210 L272 126 L189 126 L189 210 L272 210 Z" stroke = "#000000" stroke-width = "2" fill = "none" />	<path d = "M356 210 L356 126 L272 126 L272 210 L356 210 Z" stroke = "#000000" stroke-width = "2" fill = "none" />	<path d = "M440 210 L440 126 L356 126 L356 210 L440 210 Z" stroke = "#000000" stroke-width = "2" fill = "none" />	<path d = "M524 210 L524 126 L440 126 L440 210 L524 210 Z" stroke = "#000000" stroke-width = "2" fill = "none" />	<path d = "M608 210 L608 126 L524 126 L524 210 L608 210 Z" stroke = "#000000" stroke-width = "2" fill = "none" />	<path d = "M691 210 L691 126 L608 126 L608 210 L691 210 Z" stroke = "#000000" stroke-width = "2" fill = "none" />	<path d = "M105 314 L105 230 L21 230 L21 314 L105 314 Z" stroke = "#000000" stroke-width = "2" fill = "none" /><path    d = "M63,293 C52,293 73,251 63,251" fill = "none" stroke-width = "2" stroke = "#000000" />	<path d = "M189 314 L189 230 L105 230 L105 314 L189 314 Z" stroke = "#000000" stroke-width = "2" fill = "none" />	<path d = "M272 314 L272 230 L189 230 L189 314 L272 314 Z" stroke = "#000000" stroke-width = "2" fill = "none" />	<path d = "M356 314 L356 230 L272 230 L272 314 L356 314 Z" stroke = "#000000" stroke-width = "2" fill = "none" />	<path d = "M440 314 L440 230 L356 230 L356 314 L440 314 Z" stroke = "#000000" stroke-width = "2" fill = "none" />	<path d = "M524 314 L524 230 L440 230 L440 314 L524 314 Z" stroke = "#000000" stroke-width = "2" fill = "none" />	<path d = "M608 314 L608 230 L524 230 L524 314 L608 314 Z" stroke = "#000000" stroke-width = "2" fill = "none" />	<path d = "M691 314 L691 230 L608 230 L608 314 L691 314 Z" stroke = "#000000" stroke-width = "2" fill = "none" /></svg>