<svg width="600" height="600" viewbox = "0 0 600 600"  xmlns="http://www.w3.org/2000/svg">
<!--<json>{
  "glyph": "0335,0321,0306,0330,0335,0335,0362,0203,0335,0203,0335,0203,0335,0203,0335,0203,0335,0203,0354,0334,0300,0336,0336,0336,0331,0333,0331,0330,0336,0331,0337,0337,0337,0337,0211,0211,0336,0330,0336,0332,0331,0332,0336,0330,0330,01127,01127,01127,01056,0331,0332,0332,0332,0332,0336,0331,0332,0337,01101,01103,01124,01111,01117,01116,0331,0332,0332,0332,0332,0331,0332,01107,01105,01117,01115,01105,01124,01122,01131,0331,0331,0332,0332,0332,01056,01117,01122,01107,0300,0306,0350,0335,0306,",
  "x0": 300,
  "y0": 300,
  "unit": 275,
  "width": 600,
  "height": 600,
  "style": {
    "color0": "black",
    "fill0": "black",
    "line0": 1,
    "color1": "black",
    "fill1": "black",
    "line1": 5,
    "color2": "red",
    "fill2": "red",
    "line2": 1,
    "color3": "#FF7900",
    "fill3": "#FF7900",
    "line3": 1,
    "color4": "yellow",
    "fill4": "yellow",
    "line4": 1,
    "color5": "green",
    "fill5": "green",
    "line5": 1,
    "color6": "blue",
    "fill6": "blue",
    "line6": 1,
    "color7": "purple",
    "fill7": "purple",
    "line7": 1
  },
  "shapes": [
    "0220:0313,0304,0336,0332,0337,0342,0336,0333,0330,0334,0337,0342,0335,0336,0331,0332,0333,0336,0332,0337,0342,0336,0333,0334,0333,0337,0342,0335,0336,0331,0336,0332,0337,0342,0336,0333,0330,0334,0337,0342,0335,0336,0331,0336,0332,0337,0342,0336,0333,0330,0334,0337,0342,0335,0336,0331,0336,0332,0337,0342,0336,0333,0330,0334,0337,0342,0335,0336,0331,0337,0337,0337,0337,0337,0336,0336,0336,0336,0336,0336,0332,0337,0342,0336,0333,0334,0333,0337,0342,0335,0336,0331,0337,0337,0337,0337,0337,0337,0332,0336,0336,0336,0330,0336,0333,0330,0337,0336,0333,0337,01304,01313,0331,0331,0333,0333,0333,0333,0333,0336,0330,0337,0337,0337,0337,",
    "0221:0304,0334,0306,0336,0330,0335,0201,0335,0335,0201,0335,0335,0201,0335,0304,0335,0336,0330,0336,0331,0332,0330,0336,0333,0337,01306,0331,0331,0336,0332,0337,0337,0337,0333,0337,",
    "0222:0350,0335,0310,0336,0201,0334,0334,0334,0336,0201,0335,0335,0335,0336,0201,0334,0334,0334,0336,0201,0335,0335,0335,0336,0201,0334,0334,0334,0336,0201,0335,0335,0335,0336,0201,0334,0334,0334,0336,0201,0335,0335,0335,0336,0201,0334,0334,0330,0335,0337,0337,0337,0337,0337,0337,0337,0337,0337,0331,0304,0313,0336,0330,0333,0336,0331,0336,0331,0332,0336,0332,0337,01304,01350,01310,0331,0331,0332,0332,0332,0332,0330,0332,0336,0332,0337,0337,0337,0337,",
    "0223:0304,0335,0330,0334,0334,0306,0350,0335,0312,0336,0313,0337,0330,0334,0334,0334,0334,0313,0336,0330,0334,0334,0334,0334,0334,0334,0330,0335,0335,0335,0335,0312,0335,0312,0336,0313,0337,0201,0335,0335,0335,0335,0335,0312,0336,0201,0334,0334,0334,0334,0334,0336,0201,0335,0335,0335,0335,0335,0336,0201,0334,0334,0334,0334,0334,0334,0335,0336,0201,0331,0335,0334,0334,0337,0330,0335,0337,0331,0334,0337,0330,0335,0337,0331,0334,0337,0330,0334,0313,0336,0312,0337,0331,0334,0334,0334,0313,0304,0313,0336,0336,0330,0333,0333,0336,0331,0332,0336,0331,0337,01312,0331,0332,0332,0332,0332,0336,0330,0337,0337,0337,0337,",
    "0224:0304,0313,0335,0311,0305,0350,0330,0334,0334,0334,0334,0336,0330,0334,0334,0330,0335,0337,0335,0335,0335,0335,0336,0330,0335,0335,0335,0336,0201,0334,0334,0334,0336,0201,0335,0335,0335,0336,0201,0334,0334,0334,0336,0201,0335,0335,0335,0336,0201,0334,0334,0334,0336,0201,0335,0335,0335,0334,0330,0334,0337,0337,0337,0337,0337,0337,0336,0331,0334,0334,0334,0330,0335,0335,0337,0331,0335,0304,0337,0334,0313,0336,0336,0336,0333,0333,0333,0336,0330,0332,0337,0336,0336,0331,0332,0337,0337,01305,01311,0331,0332,0332,0332,0332,0336,0330,0336,0330,0332,0337,0337,0337,0337,0337,",
    "0225:0313,0304,0335,0305,0311,0334,0336,0330,0335,0337,0350,0335,0330,0335,0335,0335,0335,0330,0335,0335,0335,0336,0335,0201,0335,0335,0335,0335,0336,0201,0334,0334,0334,0334,0201,0335,0335,0335,0335,0336,0201,0334,0334,0334,0334,0201,0335,0335,0335,0335,0336,0201,0334,0334,0334,0334,0201,0335,0335,0335,0335,0336,0201,0334,0334,0334,0334,0201,0335,0335,0335,0335,0336,0201,0334,0334,0334,0334,0201,0335,0335,0335,0335,0336,0201,0334,0334,0334,0334,0201,0335,0335,0335,0335,0336,0201,0334,0334,0334,0337,0330,0337,0337,0337,0337,0337,0337,0337,0331,0304,0334,0313,",
    "0226:0313,0304,0335,0306,0350,0312,0330,0334,0334,0334,0334,0334,0336,0330,0334,0334,0330,0331,0334,0336,0342,0334,0334,0342,0330,0334,0336,0331,0342,0335,0335,0335,0335,0342,0334,0336,0342,0334,0334,0342,0330,0334,0336,0331,0342,0335,0335,0335,0335,0342,0334,0336,0342,0334,0334,0342,0334,0337,0330,0335,0337,0331,0334,0337,0330,0335,0337,0331,0313,0336,0312,0335,0337,0342,0330,0335,0335,0335,0337,0330,0335,0335,0335,0313,0337,0304,0313,",
    "0227:0331,0220,0333,0332,0222,0333,0330,0332,0335,0335,0332,0223,0335,0335,0221,0312,0336,0331,0306,0334,0313,0337,0330,0335,0304,0335,0335,0336,0312,0337,0313,0304,0330,0335,0330,0335,0330,0335,0330,0334,0331,0335,0330,0334,0334,0350,0310,0337,0335,0330,0336,0335,0304,0335,0306,0334,0330,0335,0335,0330,0335,0335,0330,0335,0335,0304,0334,0226,0335,0306,0350,0334,0312,0336,0330,0335,0335,0330,0331,0334,0334,0331,0337,0313,0304,0332,0225,0335,0305,0334,0311,0336,0330,0335,0350,0335,0337,0304,0334,0224,0335,0305,0350,0334,0311,0336,0330,0335,0335,0335,0335,0335,0304,0305,0330,0334,0334,0311,0337,0330,0335,0335,0304,0335,0313,",
    "0230:0331,0200,0335,0201,0334,0334,0350,0335,0310,0337,0201,0335,0304,0335,0336,0201,0335,0312,0336,0201,0335,0306,0350,0335,0313,0337,0201,0334,0313,0336,0312,0337,0304,0335,0335,0306,0334,0201,0335,0335,0342,0335,0350,0335,0312,0336,0201,0334,0334,0201,0335,0335,0335,0337,0313,0304,0335,0332,0335,0305,0334,0311,0336,0201,0335,0350,0335,0337,0342,0334,0336,0201,0335,0335,0201,0335,0335,0335,0337,0313,0304,0335,",
    "0231:0342,0336,0333,0342,0336,0332,0342,0333,0333,0342,0336,0333,0342,0332,0332,0342,0332,0332,0342,0332,0332,0342,0333,0333,0333,0333,0333,0333,0333,0337,0337,0337,",
    "0232:0316,0336,0313,0342,0336,0333,0342,0333,0342,0333,0342,0333,0342,0333,0337,0342,0336,0333,0342,0333,0342,0333,0342,0333,0342,0333,0342,0337,0316,0337,0313,",
    "0233:0362,0203,0335,0203,0203,0203,0203,0203,0203,0335,0203,0335,0203,0203,0203,0203,0203,0203,0354,0335,",
    "0234:0314,0336,0313,0320,0233,0322,0232,0232,0232,0232,0232,0232,0334,0232,0334,0231,0231,0231,0231,0231,0231,0334,0231,0334,0314,0337,0313,",
    "0235:0322,0220,0320,0200,",
    "0236:0320,0306,0362,0203,0334,0334,0203,0334,0334,0203,0354,0334,0334,0330,0334,0350,0334,0322,0221,0335,0331,0320,",
    "0237:0304,0320,0362,0203,0350,0310,0334,0334,0334,0337,0203,0334,0334,0334,0336,0203,0354,0304,0322,0334,0334,0222,0335,0320,",
    "01220:0333,0200,0336,0330,0332,0336,0331,0333,0337,0220,0336,0331,0333,0337,0337,0320,",
    "01221:0333,0200,0336,0330,0332,0331,0336,0333,0330,0337,0221,0336,0331,0333,0337,0337,",
    "01222:0333,0200,0336,0330,0332,0336,0331,0333,0337,0332,0222,0333,0336,0333,0331,0337,0337,",
    "01223:0333,0200,0336,0336,0330,0332,0337,0223,0336,0331,0333,0337,0337,0320,",
    "01224:0333,0200,0336,0332,0330,0224,0333,0331,0337,",
    "01225:0333,0200,0336,0336,0332,0332,0330,0337,0225,0304,0333,0331,0336,0330,0337,0337,",
    "01226:0333,0200,0336,0330,0332,0332,0337,0226,0336,0331,0336,0333,0330,0333,0333,0331,0333,0337,0337,",
    "01227:0333,0200,0336,0330,0332,0210,0227,0211,0331,0333,0337,",
    "01230:0333,0200,0336,0330,0332,0336,0230,0337,0331,0333,0337,",
    "01231:0333,0200,0332,0231,",
    "01232:0333,0200,0332,0232,",
    "01233:0333,0200,0336,0332,0336,0330,0337,0330,0336,0331,0332,0332,0336,0336,0333,0331,0333,0337,0233,0331,0333,0333,0337,0331,0333,0333,0336,0333,0336,0331,0332,0333,0337,0337,0337,0337,",
    "01234:0333,0200,0336,0330,0332,0332,0234,0331,0337,0333,0320,",
    "01235:0333,0200,0235,",
    "01236:0333,0200,0236,",
    "01237:0333,0200,0237,",
    "0240:0322,0334,0223,0320,0335,0362,0203,0306,0350,0334,0334,0334,0334,0334,0312,0336,0313,0337,0203,0334,0334,0334,0334,0313,0336,0203,0354,0334,0334,0334,0312,0337,0313,0304,",
    "01240:0333,0200,0240,",
    "0241:0334,0322,0226,0320,0335,0306,0350,0312,0362,0203,0334,0334,0334,0334,0334,0336,0203,0334,0334,0203,0354,0334,0334,0334,0334,0334,0337,0313,0304,",
    "01241:0333,0200,0241,",
    "0242:0334,0322,0224,0335,0320,0305,0311,0350,0362,0203,0334,0334,0334,0334,0336,0203,0334,0334,0203,0354,0334,0334,0334,0334,0337,0313,0304,",
    "01242:0333,0200,0242,",
    "0243:0334,0322,0225,0335,0320,0305,0311,0350,0362,0203,0334,0334,0334,0334,0203,0334,0334,0334,0336,0203,0354,0334,0334,0334,0337,0313,0304,",
    "01243:0333,0200,0243,",
    "0244:0235,0335,0335,0331,0236,0334,0334,0237,0335,0306,0350,0334,0240,0306,0350,0335,0335,0331,0334,0334,0241,0334,0335,0335,0242,0334,0334,0330,0335,0335,0243,0335,0332,0332,0234,0320,0331,0331,0333,",
    "01244:0333,0200,0336,0332,0244,0333,0337,"
  ]
}</json>-->	<path d = "M575 300 L438 538 L163 538 L25 300 L162 62 L437 62 L575 300 Z" stroke = "#000000" stroke-width = "5" fill = "none" />	<path d = "M164 172 L159 167 L159 162 L159 157 L159 152 L159 147 L159 142 L159 137 L159 132 L159 127 L164 127 L164 132 L164 137 L164 142 L164 147 L164 152 L164 157 L164 162 L164 167 L167 167 L167 172 L164 172 Z" stroke = "#000000" stroke-width = "1" fill = "none" />	<path d = "M172 172 L172 167 L172 162 L172 157 L177 157 L177 162 L177 167 L177 172 L172 172 Z" stroke = "#000000" stroke-width = "1" fill = "none" />	<path d = "M182 172 L182 167 L184 167 L184 162 L184 157 L184 152 L184 147 L184 142 L184 137 L184 132 L184 127 L189 127 L189 132 L189 137 L189 142 L189 147 L189 152 L189 157 L189 162 L189 167 L184 172 L182 172 Z" stroke = "#000000" stroke-width = "1" fill = "none" />	<path d = "M204 172 L199 167 L199 162 L199 157 L199 152 L199 147 L199 142 L199 137 L199 132 L199 127 L204 127 L204 132 L204 137 L204 142 L204 147 L204 152 L204 157 L204 162 L204 167 L207 167 L207 172 L204 172 Z" stroke = "#000000" stroke-width = "1" fill = "none" />	<path d = "M212 172 L212 167 L212 162 L212 157 L217 157 L217 162 L217 167 L217 172 L212 172 Z" stroke = "#000000" stroke-width = "1" fill = "none" />	<path d = "M222 172 L222 167 L224 167 L224 162 L224 157 L224 152 L224 147 L224 142 L224 137 L224 132 L224 127 L229 127 L229 132 L229 137 L229 142 L229 147 L229 152 L229 157 L229 162 L229 167 L224 172 L222 172 Z" stroke = "#000000" stroke-width = "1" fill = "none" />	<path d = "M244 172 L239 167 L239 162 L239 157 L239 152 L239 147 L239 142 L239 137 L239 132 L239 127 L244 127 L244 132 L244 137 L244 142 L244 147 L244 152 L244 157 L244 162 L244 167 L247 167 L247 172 L244 172 Z" stroke = "#000000" stroke-width = "1" fill = "none" />	<path d = "M252 172 L252 167 L252 162 L252 157 L257 157 L257 162 L257 167 L257 172 L252 172 Z" stroke = "#000000" stroke-width = "1" fill = "none" />	<path d = "M262 172 L262 167 L264 167 L264 162 L264 157 L264 152 L264 147 L264 142 L264 137 L264 132 L264 127 L269 127 L269 132 L269 137 L269 142 L269 147 L269 152 L269 157 L269 162 L269 167 L264 172 L262 172 Z" stroke = "#000000" stroke-width = "1" fill = "none" />	<path d = "M297 172 L297 167 L292 167 L292 172 L297 172 Z" stroke = "#000000" stroke-width = "1" fill = "none" />	<path d = "M117 239 L117 234 L117 229 L117 224 L117 219 L117 214 L117 209 L117 204 L122 199 L127 194 L129 194 L129 199 L127 199 L122 204 L122 209 L122 214 L127 214 L129 214 L129 219 L124 219 L122 219 L122 224 L122 229 L122 234 L122 239 L117 239 Z" stroke = "#000000" stroke-width = "1" fill = "none" />	<path d = "M147 239 L142 239 L142 234 L142 229 L142 224 L142 219 L137 219 L134 219 L134 214 L139 214 L142 214 L142 209 L142 204 L137 199 L134 199 L134 194 L137 194 L147 204 L147 209 L147 214 L147 219 L147 224 L147 229 L147 234 L147 239 Z" stroke = "#000000" stroke-width = "1" fill = "none" />	<path d = "M162 239 L157 234 L157 229 L157 224 L157 219 L157 214 L157 209 L157 204 L157 199 L162 194 L167 194 L169 194 L169 199 L167 199 L162 199 L162 204 L162 209 L162 214 L162 219 L162 224 L162 229 L162 234 L167 234 L169 234 L169 239 L167 239 L164 239 L162 239 Z" stroke = "#000000" stroke-width = "1" fill = "none" />	<path d = "M174 239 L174 237 L174 234 L177 234 L179 234 L182 234 L182 232 L184 232 L187 232 L187 234 L182 239 L177 239 L174 239 Z" stroke = "#000000" stroke-width = "1" fill = "none" />	<path d = "M174 199 L174 194 L179 194 L182 194 L187 199 L187 202 L182 202 L182 199 L177 199 L174 199 Z" stroke = "#000000" stroke-width = "1" fill = "none" />	<path d = "M212 239 L209 239 L209 234 L209 229 L209 224 L209 219 L209 214 L209 209 L209 204 L209 199 L204 199 L199 199 L197 199 L197 194 L202 194 L207 194 L212 194 L217 194 L222 194 L227 194 L227 199 L222 199 L217 199 L214 199 L214 204 L214 209 L214 214 L214 219 L214 224 L214 229 L214 234 L214 239 L212 239 Z" stroke = "#000000" stroke-width = "1" fill = "none" />	<path d = "M239 239 L239 234 L244 234 L249 234 L249 229 L249 224 L249 219 L249 214 L249 209 L249 204 L249 199 L244 199 L239 199 L239 194 L244 194 L249 194 L254 194 L259 194 L264 194 L264 199 L259 199 L254 199 L254 204 L254 209 L254 214 L254 219 L254 224 L254 229 L254 234 L259 234 L264 234 L264 239 L259 239 L254 239 L249 239 L244 239 L239 239 Z" stroke = "#000000" stroke-width = "1" fill = "none" />	<path d = "M289 239 L289 234 L287 234 L282 229 L282 224 L282 219 L282 214 L282 209 L282 204 L287 199 L289 199 L289 194 L284 194 L282 194 L277 199 L277 204 L277 209 L277 214 L277 219 L277 224 L277 229 L277 234 L282 239 L287 239 L289 239 Z" stroke = "#000000" stroke-width = "1" fill = "none" />	<path d = "M294 239 L294 234 L297 234 L302 229 L302 224 L302 219 L302 214 L302 209 L302 204 L297 199 L294 199 L294 194 L299 194 L302 194 L307 199 L307 204 L307 209 L307 214 L307 219 L307 224 L307 229 L307 234 L302 239 L297 239 L294 239 Z" stroke = "#000000" stroke-width = "1" fill = "none" />	<path d = "M317 239 L317 234 L317 229 L317 224 L317 219 L317 214 L317 209 L317 204 L317 199 L317 194 L322 194 L322 199 L327 204 L332 209 L337 214 L342 219 L342 214 L342 209 L342 204 L342 199 L342 194 L347 194 L347 199 L347 204 L347 209 L347 214 L347 219 L347 224 L347 229 L347 234 L347 239 L342 239 L342 234 L342 229 L337 224 L332 219 L327 214 L322 209 L322 214 L322 219 L322 224 L322 229 L322 234 L322 239 L317 239 Z" stroke = "#000000" stroke-width = "1" fill = "none" />	<path d = "M137 329 L132 324 L132 319 L132 314 L132 309 L132 304 L132 299 L132 294 L132 289 L137 284 L142 284 L144 284 L144 289 L139 289 L137 289 L137 294 L137 299 L137 304 L137 309 L137 314 L137 319 L137 324 L142 324 L147 324 L152 324 L152 329 L147 329 L142 329 L137 329 " stroke = "#000000" stroke-width = "1" fill = "none" />	<path d = "M157 329 L157 324 L157 319 L152 319 L149 319 L149 314 L154 314 L159 314 L162 314 L162 319 L162 324 L162 329 L157 329 " stroke = "#000000" stroke-width = "1" fill = "none" />	<path d = "M162 292 L157 292 L157 289 L152 289 L149 289 L149 284 L152 284 L157 284 L162 289 L162 292 " stroke = "#000000" stroke-width = "1" fill = "none" />	<path d = "M172 329 L172 324 L172 319 L172 314 L172 309 L172 304 L172 299 L172 294 L172 289 L172 284 L177 284 L182 284 L184 284 L184 289 L179 289 L177 289 L177 294 L177 299 L177 304 L182 304 L184 304 L184 309 L179 309 L177 309 L177 314 L177 319 L177 324 L182 324 L184 324 L184 329 L179 329 L177 329 L172 329 Z" stroke = "#000000" stroke-width = "1" fill = "none" />	<path d = "M189 329 L189 324 L194 324 L199 324 L202 324 L202 329 L197 329 L192 329 L189 329 Z" stroke = "#000000" stroke-width = "1" fill = "none" />	<path d = "M189 289 L189 284 L194 284 L199 284 L202 284 L202 289 L197 289 L194 289 L192 289 L189 289 Z" stroke = "#000000" stroke-width = "1" fill = "none" />	<path d = "M224 329 L224 324 L222 324 L217 319 L217 314 L217 309 L217 304 L217 299 L217 294 L222 289 L224 289 L224 284 L219 284 L217 284 L212 289 L212 294 L212 299 L212 304 L212 309 L212 314 L212 319 L212 324 L217 329 L222 329 L224 329 Z" stroke = "#000000" stroke-width = "1" fill = "none" />	<path d = "M229 329 L229 324 L232 324 L237 319 L237 314 L237 309 L237 304 L237 299 L237 294 L232 289 L229 289 L229 284 L234 284 L237 284 L242 289 L242 294 L242 299 L242 304 L242 309 L242 314 L242 319 L242 324 L237 329 L232 329 L229 329 Z" stroke = "#000000" stroke-width = "1" fill = "none" />	<path d = "M252 329 L252 324 L252 319 L252 314 L252 309 L252 304 L252 299 L252 294 L252 289 L252 284 L257 284 L257 289 L262 294 L267 299 L272 294 L277 289 L277 284 L282 284 L282 289 L282 294 L282 299 L282 304 L282 309 L282 314 L282 319 L282 324 L282 329 L277 329 L277 324 L277 319 L277 314 L277 309 L277 304 L277 299 L272 304 L267 309 L262 304 L257 299 L257 304 L257 309 L257 314 L257 319 L257 324 L257 329 L252 329 Z" stroke = "#000000" stroke-width = "1" fill = "none" />	<path d = "M292 329 L292 324 L292 319 L292 314 L292 309 L292 304 L292 299 L292 294 L292 289 L292 284 L297 284 L302 284 L304 284 L304 289 L299 289 L297 289 L297 294 L297 299 L297 304 L302 304 L304 304 L304 309 L299 309 L297 309 L297 314 L297 319 L297 324 L302 324 L304 324 L304 329 L299 329 L297 329 L292 329 Z" stroke = "#000000" stroke-width = "1" fill = "none" />	<path d = "M309 329 L309 324 L314 324 L319 324 L322 324 L322 329 L317 329 L312 329 L309 329 Z" stroke = "#000000" stroke-width = "1" fill = "none" />	<path d = "M309 289 L309 284 L314 284 L319 284 L322 284 L322 289 L317 289 L314 289 L312 289 L309 289 Z" stroke = "#000000" stroke-width = "1" fill = "none" />	<path d = "M347 329 L344 329 L344 324 L344 319 L344 314 L344 309 L344 304 L344 299 L344 294 L344 289 L339 289 L334 289 L332 289 L332 284 L337 284 L342 284 L347 284 L352 284 L357 284 L362 284 L362 289 L357 289 L352 289 L349 289 L349 294 L349 299 L349 304 L349 309 L349 314 L349 319 L349 324 L349 329 L347 329 Z" stroke = "#000000" stroke-width = "1" fill = "none" />	<path d = "M372 329 L372 324 L372 319 L372 314 L372 309 L372 304 L372 299 L372 294 L372 289 L372 284 L377 284 L377 289 L377 294 L377 299 L377 304 L377 309 L377 314 L377 319 L377 324 L377 329 L372 329 Z" stroke = "#000000" stroke-width = "1" fill = "none" />	<path d = "M382 309 L382 304 L387 304 L392 304 L397 299 L397 294 L392 289 L387 289 L382 289 L382 284 L387 284 L392 284 L397 284 L402 289 L402 294 L402 299 L402 304 L397 309 L392 309 L387 309 L382 309 Z" stroke = "#000000" stroke-width = "1" fill = "none" />	<path d = "M402 329 L402 324 L397 319 L392 314 L387 314 L387 319 L392 324 L397 329 L402 329 Z" stroke = "#000000" stroke-width = "1" fill = "none" />	<path d = "M429 329 L424 329 L424 324 L424 319 L424 314 L424 309 L424 304 L422 302 L419 299 L417 297 L414 294 L412 292 L412 289 L412 287 L412 284 L414 284 L417 284 L417 287 L417 289 L419 292 L422 294 L424 297 L427 299 L429 297 L432 294 L434 292 L437 289 L437 287 L437 284 L442 284 L442 289 L442 292 L439 294 L437 297 L434 299 L432 302 L429 304 L429 307 L429 309 L429 312 L429 314 L429 317 L429 319 L429 322 L429 324 L429 327 L429 329 Z" stroke = "#000000" stroke-width = "1" fill = "none" />	<path d = "M334 419 L334 414 L329 414 L329 419 L334 419 Z" stroke = "#000000" stroke-width = "1" fill = "none" />	<path d = "M369 419 L369 414 L367 414 L362 409 L362 404 L362 399 L362 394 L362 389 L362 384 L367 379 L369 379 L369 374 L364 374 L362 374 L357 379 L357 384 L357 389 L357 394 L357 399 L357 404 L357 409 L357 414 L362 419 L367 419 L369 419 Z" stroke = "#000000" stroke-width = "1" fill = "none" />	<path d = "M374 419 L374 414 L377 414 L382 409 L382 404 L382 399 L382 394 L382 389 L382 384 L377 379 L374 379 L374 374 L379 374 L382 374 L387 379 L387 384 L387 389 L387 394 L387 399 L387 404 L387 409 L387 414 L382 419 L377 419 L374 419 Z" stroke = "#000000" stroke-width = "1" fill = "none" />	<path d = "M397 419 L397 414 L397 409 L397 404 L397 399 L397 394 L397 389 L397 384 L397 379 L397 374 L402 374 L402 379 L402 384 L402 389 L402 394 L402 399 L402 404 L402 409 L402 414 L402 419 L397 419 Z" stroke = "#000000" stroke-width = "1" fill = "none" />	<path d = "M407 399 L407 394 L412 394 L417 394 L422 389 L422 384 L417 379 L412 379 L407 379 L407 374 L412 374 L417 374 L422 374 L427 379 L427 384 L427 389 L427 394 L422 399 L417 399 L412 399 L407 399 Z" stroke = "#000000" stroke-width = "1" fill = "none" />	<path d = "M427 419 L427 414 L422 409 L417 404 L412 404 L412 409 L417 414 L422 419 L427 419 Z" stroke = "#000000" stroke-width = "1" fill = "none" />	<path d = "M442 419 L437 414 L437 409 L437 404 L437 399 L437 394 L437 389 L437 384 L437 379 L442 374 L447 374 L449 374 L449 379 L444 379 L442 379 L442 384 L442 389 L442 394 L442 399 L442 404 L442 409 L442 414 L447 414 L452 414 L457 414 L457 419 L452 419 L447 419 L442 419 " stroke = "#000000" stroke-width = "1" fill = "none" />	<path d = "M462 419 L462 414 L462 409 L457 409 L454 409 L454 404 L459 404 L464 404 L467 404 L467 409 L467 414 L467 419 L462 419 " stroke = "#000000" stroke-width = "1" fill = "none" />	<path d = "M467 382 L462 382 L462 379 L457 379 L454 379 L454 374 L457 374 L462 374 L467 379 L467 382 " stroke = "#000000" stroke-width = "1" fill = "none" /></svg>