<svg width="600" height="800" viewbox = "0 0 600 800"  xmlns="http://www.w3.org/2000/svg">
<!--<json>{
  "glyph": "0322,0220,0333,0221,0334,0320,0306,0335,0362,0203,0334,0334,0203,0334,0334,0203,0354,0331,0304,0335,0335,0335,0200,0330,0332,0234,0331,0335,0335,0332,0222,0320,0350,0310,0362,0203,0335,0335,0335,0337,0203,0364,0334,0336,0304,0331,0334,0334,0322,0223,0320,0333,0334,0306,0350,0312,0336,0313,0337,0335,0342,0334,0313,0336,0312,0337,0330,0304,0335,0330,0334,0306,0350,0334,0335,0335,0335,0335,0335,0335,0331,0334,0334,0334,0322,0226,0306,0350,0335,0335,0320,0312,0336,0362,0203,0335,0335,0203,0364,0335,0335,0335,0337,0313,0304,0335,0330,0332,0314,0336,0330,0337,0313,0334,0305,0335,0322,0224,0335,0305,0350,0334,0311,0336,0320,0362,0203,0335,0335,0203,0335,0335,0335,0335,0337,0203,0354,0335,0335,0334,0334,0334,0311,0336,0331,0330,0335,0335,0335,0335,0335,0334,0304,0337,0332,0322,0225,0335,0305,0350,0334,0334,0311,0336,0320,0362,0203,0335,0335,0335,0337,0203,0364,",
  "x0": 312.797219,
  "y0": 501.86936100499986,
  "unit": 252.72351424964725,
  "width": 600,
  "height": 800,
  "style": {
    "color0": "black",
    "fill0": "black",
    "line0": 1,
    "color1": "black",
    "fill1": "black",
    "line1": 5,
    "color2": "red",
    "fill2": "red",
    "line2": 1,
    "color3": "#FF7900",
    "fill3": "#FF7900",
    "line3": 1,
    "color4": "yellow",
    "fill4": "yellow",
    "line4": 1,
    "color5": "green",
    "fill5": "green",
    "line5": 1,
    "color6": "blue",
    "fill6": "blue",
    "line6": 1,
    "color7": "purple",
    "fill7": "purple",
    "line7": 1
  },
  "shapes": [
    "0220:0313,0304,0336,0332,0337,0342,0336,0333,0330,0334,0337,0342,0335,0336,0331,0332,0333,0336,0332,0337,0342,0336,0333,0334,0333,0337,0342,0335,0336,0331,0336,0332,0337,0342,0336,0333,0330,0334,0337,0342,0335,0336,0331,0336,0332,0337,0342,0336,0333,0330,0334,0337,0342,0335,0336,0331,0336,0332,0337,0342,0336,0333,0330,0334,0337,0342,0335,0336,0331,0337,0337,0337,0337,0337,0336,0336,0336,0336,0336,0336,0332,0337,0342,0336,0333,0334,0333,0337,0342,0335,0336,0331,0337,0337,0337,0337,0337,0337,0332,0336,0336,0336,0330,0336,0333,0330,0337,0336,0333,0337,01304,01313,0331,0331,0333,0333,0333,0333,0333,0336,0330,0337,0337,0337,0337,",
    "0221:0304,0334,0306,0336,0330,0335,0201,0335,0335,0201,0335,0335,0201,0335,0304,0335,0336,0330,0336,0331,0332,0330,0336,0333,0337,01306,0331,0331,0336,0332,0337,0337,0337,0333,0337,",
    "0222:0350,0335,0310,0336,0201,0334,0334,0334,0336,0201,0335,0335,0335,0336,0201,0334,0334,0334,0336,0201,0335,0335,0335,0336,0201,0334,0334,0334,0336,0201,0335,0335,0335,0336,0201,0334,0334,0334,0336,0201,0335,0335,0335,0336,0201,0334,0334,0330,0335,0337,0337,0337,0337,0337,0337,0337,0337,0337,0331,0304,0313,0336,0330,0333,0336,0331,0336,0331,0332,0336,0332,0337,01304,01350,01310,0331,0331,0332,0332,0332,0332,0330,0332,0336,0332,0337,0337,0337,0337,",
    "0223:0304,0335,0330,0334,0334,0306,0350,0335,0312,0336,0313,0337,0330,0334,0334,0334,0334,0313,0336,0330,0334,0334,0334,0334,0334,0334,0330,0335,0335,0335,0335,0312,0335,0312,0336,0313,0337,0201,0335,0335,0335,0335,0335,0312,0336,0201,0334,0334,0334,0334,0334,0336,0201,0335,0335,0335,0335,0335,0336,0201,0334,0334,0334,0334,0334,0334,0335,0336,0201,0331,0335,0334,0334,0337,0330,0335,0337,0331,0334,0337,0330,0335,0337,0331,0334,0337,0330,0334,0313,0336,0312,0337,0331,0334,0334,0334,0313,0304,0313,0336,0336,0330,0333,0333,0336,0331,0332,0336,0331,0337,01312,0331,0332,0332,0332,0332,0336,0330,0337,0337,0337,0337,",
    "0224:0304,0313,0335,0311,0305,0350,0330,0334,0334,0334,0334,0336,0330,0334,0334,0330,0335,0337,0335,0335,0335,0335,0336,0330,0335,0335,0335,0336,0201,0334,0334,0334,0336,0201,0335,0335,0335,0336,0201,0334,0334,0334,0336,0201,0335,0335,0335,0336,0201,0334,0334,0334,0336,0201,0335,0335,0335,0334,0330,0334,0337,0337,0337,0337,0337,0337,0336,0331,0334,0334,0334,0330,0335,0335,0337,0331,0335,0304,0337,0334,0313,0336,0336,0336,0333,0333,0333,0336,0330,0332,0337,0336,0336,0331,0332,0337,0337,01305,01311,0331,0332,0332,0332,0332,0336,0330,0336,0330,0332,0337,0337,0337,0337,0337,",
    "0225:0313,0304,0335,0305,0311,0334,0336,0330,0335,0337,0350,0335,0330,0335,0335,0335,0335,0330,0335,0335,0335,0336,0335,0201,0335,0335,0335,0335,0336,0201,0334,0334,0334,0334,0201,0335,0335,0335,0335,0336,0201,0334,0334,0334,0334,0201,0335,0335,0335,0335,0336,0201,0334,0334,0334,0334,0201,0335,0335,0335,0335,0336,0201,0334,0334,0334,0334,0201,0335,0335,0335,0335,0336,0201,0334,0334,0334,0334,0201,0335,0335,0335,0335,0336,0201,0334,0334,0334,0334,0201,0335,0335,0335,0335,0336,0201,0334,0334,0334,0337,0330,0337,0337,0337,0337,0337,0337,0337,0331,0304,0334,0313,",
    "0226:0313,0304,0335,0306,0350,0312,0330,0334,0334,0334,0334,0334,0336,0330,0334,0334,0330,0331,0334,0336,0342,0334,0334,0342,0330,0334,0336,0331,0342,0335,0335,0335,0335,0342,0334,0336,0342,0334,0334,0342,0330,0334,0336,0331,0342,0335,0335,0335,0335,0342,0334,0336,0342,0334,0334,0342,0334,0337,0330,0335,0337,0331,0334,0337,0330,0335,0337,0331,0313,0336,0312,0335,0337,0342,0330,0335,0335,0335,0337,0330,0335,0335,0335,0313,0337,0304,0313,",
    "0227:0331,0220,0333,0332,0222,0333,0330,0332,0335,0335,0332,0223,0335,0335,0221,0312,0336,0331,0306,0334,0313,0337,0330,0335,0304,0335,0335,0336,0312,0337,0313,0304,0330,0335,0330,0335,0330,0335,0330,0334,0331,0335,0330,0334,0334,0350,0310,0337,0335,0330,0336,0335,0304,0335,0306,0334,0330,0335,0335,0330,0335,0335,0330,0335,0335,0304,0334,0226,0335,0306,0350,0334,0312,0336,0330,0335,0335,0330,0331,0334,0334,0331,0337,0313,0304,0332,0225,0335,0305,0334,0311,0336,0330,0335,0350,0335,0337,0304,0334,0224,0335,0305,0350,0334,0311,0336,0330,0335,0335,0335,0335,0335,0304,0305,0330,0334,0334,0311,0337,0330,0335,0335,0304,0335,0313,",
    "0230:0331,0200,0335,0201,0334,0334,0350,0335,0310,0337,0201,0335,0304,0335,0336,0201,0335,0312,0336,0201,0335,0306,0350,0335,0313,0337,0201,0334,0313,0336,0312,0337,0304,0335,0335,0306,0334,0201,0335,0335,0342,0335,0350,0335,0312,0336,0201,0334,0334,0201,0335,0335,0335,0337,0313,0304,0335,0332,0335,0305,0334,0311,0336,0201,0335,0350,0335,0337,0342,0334,0336,0201,0335,0335,0201,0335,0335,0335,0337,0313,0304,0335,",
    "0231:0342,0336,0333,0342,0336,0332,0342,0333,0333,0342,0336,0333,0342,0332,0332,0342,0332,0332,0342,0332,0332,0342,0333,0333,0333,0333,0333,0333,0333,0337,0337,0337,",
    "0232:0316,0336,0313,0342,0336,0333,0342,0333,0342,0333,0342,0333,0342,0333,0337,0342,0336,0333,0342,0333,0342,0333,0342,0333,0342,0333,0342,0337,0316,0337,0313,",
    "0233:0362,0203,0335,0203,0203,0203,0203,0203,0203,0335,0203,0335,0203,0203,0203,0203,0203,0203,0354,0335,",
    "0234:0314,0336,0313,0320,0233,0322,0232,0232,0232,0232,0232,0232,0334,0232,0334,0231,0231,0231,0231,0231,0231,0334,0231,0334,0314,0337,0313,",
    "01220:0333,0200,0336,0330,0332,0336,0331,0333,0337,0220,0336,0331,0333,0337,0337,0320,",
    "01221:0333,0200,0336,0330,0332,0331,0336,0333,0330,0337,0221,0336,0331,0333,0337,0337,",
    "01222:0333,0200,0336,0330,0332,0336,0331,0333,0337,0332,0222,0333,0336,0333,0331,0337,0337,",
    "01223:0333,0200,0336,0336,0330,0332,0337,0223,0336,0331,0333,0337,0337,0320,",
    "01224:0333,0200,0336,0332,0330,0224,0333,0331,0337,",
    "01225:0333,0200,0336,0336,0332,0332,0330,0337,0225,0304,0333,0331,0336,0330,0337,0337,",
    "01226:0333,0200,0336,0330,0332,0332,0337,0226,0336,0331,0336,0333,0330,0333,0333,0331,0333,0337,0337,",
    "01227:0333,0200,0336,0330,0332,0210,0227,0211,0331,0333,0337,",
    "01230:0333,0200,0336,0330,0332,0336,0230,0337,0331,0333,0337,",
    "01231:0333,0200,0332,0231,",
    "01232:0333,0200,0332,0232,",
    "01233:0333,0200,0336,0332,0336,0330,0337,0330,0336,0331,0332,0332,0336,0336,0333,0331,0333,0337,0233,0331,0333,0333,0337,0331,0333,0333,0336,0333,0336,0331,0332,0333,0337,0337,0337,0337,",
    "01234:0333,0200,0336,0330,0332,0332,0234,0331,0337,0333,0320,",
    "01235:0333,0200,",
    "01236:0333,0200,",
    "01237:0333,0200,"
  ]
}</json>-->    <line x1="186" y1="502" x2="186" y2="249" style="stroke:#ff0000;stroke-width:1" />
    <line x1="313" y1="376" x2="60" y2="376" style="stroke:#ff0000;stroke-width:1" />
    <line x1="250" y1="502" x2="250" y2="376" style="stroke:#ff0000;stroke-width:1" />
    <line x1="313" y1="439" x2="186" y2="439" style="stroke:#ff0000;stroke-width:1" />
    <line x1="281" y1="502" x2="281" y2="439" style="stroke:#ff0000;stroke-width:1" />
    <line x1="313" y1="470" x2="250" y2="470" style="stroke:#ff0000;stroke-width:1" />
    <line x1="297" y1="502" x2="297" y2="470" style="stroke:#ff0000;stroke-width:1" />
    <line x1="313" y1="486" x2="281" y2="486" style="stroke:#ff0000;stroke-width:1" />
    <line x1="305" y1="502" x2="305" y2="486" style="stroke:#ff0000;stroke-width:1" />
    <line x1="313" y1="494" x2="297" y2="494" style="stroke:#ff0000;stroke-width:1" />
    <line x1="309" y1="502" x2="309" y2="494" style="stroke:#ff0000;stroke-width:1" />
    <line x1="313" y1="498" x2="305" y2="498" style="stroke:#ff0000;stroke-width:1" />
	<path d = "M123 454 L123 423 L92 423 L92 454 L123 454 Z" stroke = "#ff0000" stroke-width = "1" fill = "none" /><circle cx="107" cy = "439" r = "15.795219640602953" stroke = "#ff0000" stroke-width = "1" fill = "none" />
    <line x1="107" y1="439" x2="107" y2="423" style="stroke:#ff0000;stroke-width:1" />
    <line x1="107" y1="439" x2="123" y2="439" style="stroke:#ff0000;stroke-width:1" />
    <line x1="107" y1="439" x2="107" y2="454" style="stroke:#ff0000;stroke-width:1" />
    <line x1="107" y1="439" x2="92" y2="439" style="stroke:#ff0000;stroke-width:1" />
<circle cx="102" cy = "433" r = "3.9488049101507383" stroke = "#ff0000" stroke-width = "1" fill = "none" />
<circle cx="113" cy = "433" r = "3.9488049101507383" stroke = "#ff0000" stroke-width = "1" fill = "none" />
<circle cx="113" cy = "444" r = "3.9488049101507383" stroke = "#ff0000" stroke-width = "1" fill = "none" />
<circle cx="102" cy = "444" r = "3.9488049101507383" stroke = "#ff0000" stroke-width = "1" fill = "none" />
	<path d = "M155 454 L155 423 L123 423 L123 454 L155 454 Z" stroke = "#ff0000" stroke-width = "1" fill = "none" />	<path d = "M147 447 L147 439 L139 439 L131 439 L131 447 L139 447 L147 447 Z" stroke = "#ff0000" stroke-width = "1" fill = "none" />    <line x1="139" y1="447" x2="139" y2="439" style="stroke:#ff0000;stroke-width:1" />
    <line x1="439" y1="502" x2="376" y2="392" style="stroke:#ff0000;stroke-width:1" />
    <line x1="376" y1="392" x2="502" y2="392" style="stroke:#ff0000;stroke-width:1" />
    <line x1="502" y1="392" x2="439" y2="502" style="stroke:#ff0000;stroke-width:1" />
	<path d = "M455 439 L455 407 L423 407 L423 439 L455 439 Z" stroke = "#ff0000" stroke-width = "1" fill = "none" />    <line x1="439" y1="423" x2="439" y2="407" style="stroke:#ff0000;stroke-width:1" />
    <line x1="439" y1="423" x2="453" y2="415" style="stroke:#ff0000;stroke-width:1" />
    <line x1="439" y1="423" x2="453" y2="431" style="stroke:#ff0000;stroke-width:1" />
    <line x1="439" y1="423" x2="439" y2="439" style="stroke:#ff0000;stroke-width:1" />
    <line x1="439" y1="423" x2="425" y2="431" style="stroke:#ff0000;stroke-width:1" />
<circle cx="439" cy = "423" r = "15.795219640602953" stroke = "#ff0000" stroke-width = "1" fill = "none" />
<circle cx="435" cy = "416" r = "1.9744024550753692" stroke = "#ff0000" stroke-width = "1" fill = "none" />
<circle cx="443" cy = "416" r = "1.9744024550753692" stroke = "#ff0000" stroke-width = "1" fill = "none" />
<circle cx="447" cy = "423" r = "1.9744024550753692" stroke = "#ff0000" stroke-width = "1" fill = "none" />
<circle cx="443" cy = "430" r = "1.9744024550753692" stroke = "#ff0000" stroke-width = "1" fill = "none" />
<circle cx="435" cy = "430" r = "1.9744024550753692" stroke = "#ff0000" stroke-width = "1" fill = "none" />
    <line x1="439" y1="423" x2="425" y2="415" style="stroke:#ff0000;stroke-width:1" />
<circle cx="431" cy = "423" r = "1.9744024550753692" stroke = "#ff0000" stroke-width = "1" fill = "none" />
	<path d = "M566 502 L439 283 L313 502 L566 502 Z" stroke = "#000000" stroke-width = "1" fill = "none" />	<path d = "M313 502 L313 249 L60 249 L60 502 L313 502 Z" stroke = "#000000" stroke-width = "1" fill = "none" />	<path d = "M60 249 L60 165 L144 165 L229 165 L313 165 L397 165 L481 165 L566 165 L566 249 L481 249 L397 249 L313 249 L229 249 L144 249 L60 249 Z" stroke = "#000000" stroke-width = "1" fill = "none" />    <line x1="60" y1="249" x2="60" y2="232" style="stroke:#ff0000;stroke-width:1" />
    <line x1="68" y1="249" x2="68" y2="241" style="stroke:#ff0000;stroke-width:1" />
    <line x1="77" y1="249" x2="77" y2="241" style="stroke:#ff0000;stroke-width:1" />
    <line x1="85" y1="249" x2="85" y2="241" style="stroke:#ff0000;stroke-width:1" />
    <line x1="94" y1="249" x2="94" y2="241" style="stroke:#ff0000;stroke-width:1" />
    <line x1="102" y1="249" x2="102" y2="232" style="stroke:#ff0000;stroke-width:1" />
    <line x1="111" y1="249" x2="111" y2="241" style="stroke:#ff0000;stroke-width:1" />
    <line x1="119" y1="249" x2="119" y2="241" style="stroke:#ff0000;stroke-width:1" />
    <line x1="127" y1="249" x2="127" y2="241" style="stroke:#ff0000;stroke-width:1" />
    <line x1="136" y1="249" x2="136" y2="241" style="stroke:#ff0000;stroke-width:1" />
    <line x1="144" y1="249" x2="144" y2="241" style="stroke:#ff0000;stroke-width:1" />
    <line x1="144" y1="249" x2="144" y2="232" style="stroke:#ff0000;stroke-width:1" />
    <line x1="153" y1="249" x2="153" y2="241" style="stroke:#ff0000;stroke-width:1" />
    <line x1="161" y1="249" x2="161" y2="241" style="stroke:#ff0000;stroke-width:1" />
    <line x1="170" y1="249" x2="170" y2="241" style="stroke:#ff0000;stroke-width:1" />
    <line x1="178" y1="249" x2="178" y2="241" style="stroke:#ff0000;stroke-width:1" />
    <line x1="186" y1="249" x2="186" y2="232" style="stroke:#ff0000;stroke-width:1" />
    <line x1="195" y1="249" x2="195" y2="241" style="stroke:#ff0000;stroke-width:1" />
    <line x1="203" y1="249" x2="203" y2="241" style="stroke:#ff0000;stroke-width:1" />
    <line x1="212" y1="249" x2="212" y2="241" style="stroke:#ff0000;stroke-width:1" />
    <line x1="220" y1="249" x2="220" y2="241" style="stroke:#ff0000;stroke-width:1" />
    <line x1="229" y1="249" x2="229" y2="241" style="stroke:#ff0000;stroke-width:1" />
    <line x1="229" y1="249" x2="229" y2="232" style="stroke:#ff0000;stroke-width:1" />
    <line x1="237" y1="249" x2="237" y2="241" style="stroke:#ff0000;stroke-width:1" />
    <line x1="245" y1="249" x2="245" y2="241" style="stroke:#ff0000;stroke-width:1" />
    <line x1="254" y1="249" x2="254" y2="241" style="stroke:#ff0000;stroke-width:1" />
    <line x1="262" y1="249" x2="262" y2="241" style="stroke:#ff0000;stroke-width:1" />
    <line x1="271" y1="249" x2="271" y2="232" style="stroke:#ff0000;stroke-width:1" />
    <line x1="279" y1="249" x2="279" y2="241" style="stroke:#ff0000;stroke-width:1" />
    <line x1="288" y1="249" x2="288" y2="241" style="stroke:#ff0000;stroke-width:1" />
    <line x1="296" y1="249" x2="296" y2="241" style="stroke:#ff0000;stroke-width:1" />
    <line x1="304" y1="249" x2="304" y2="241" style="stroke:#ff0000;stroke-width:1" />
    <line x1="313" y1="249" x2="313" y2="241" style="stroke:#ff0000;stroke-width:1" />
    <line x1="313" y1="249" x2="313" y2="232" style="stroke:#ff0000;stroke-width:1" />
    <line x1="321" y1="249" x2="321" y2="241" style="stroke:#ff0000;stroke-width:1" />
    <line x1="330" y1="249" x2="330" y2="241" style="stroke:#ff0000;stroke-width:1" />
    <line x1="338" y1="249" x2="338" y2="241" style="stroke:#ff0000;stroke-width:1" />
    <line x1="346" y1="249" x2="346" y2="241" style="stroke:#ff0000;stroke-width:1" />
    <line x1="355" y1="249" x2="355" y2="232" style="stroke:#ff0000;stroke-width:1" />
    <line x1="363" y1="249" x2="363" y2="241" style="stroke:#ff0000;stroke-width:1" />
    <line x1="372" y1="249" x2="372" y2="241" style="stroke:#ff0000;stroke-width:1" />
    <line x1="380" y1="249" x2="380" y2="241" style="stroke:#ff0000;stroke-width:1" />
    <line x1="389" y1="249" x2="389" y2="241" style="stroke:#ff0000;stroke-width:1" />
    <line x1="397" y1="249" x2="397" y2="241" style="stroke:#ff0000;stroke-width:1" />
    <line x1="397" y1="249" x2="397" y2="232" style="stroke:#ff0000;stroke-width:1" />
    <line x1="405" y1="249" x2="405" y2="241" style="stroke:#ff0000;stroke-width:1" />
    <line x1="414" y1="249" x2="414" y2="241" style="stroke:#ff0000;stroke-width:1" />
    <line x1="422" y1="249" x2="422" y2="241" style="stroke:#ff0000;stroke-width:1" />
    <line x1="431" y1="249" x2="431" y2="241" style="stroke:#ff0000;stroke-width:1" />
    <line x1="439" y1="249" x2="439" y2="232" style="stroke:#ff0000;stroke-width:1" />
    <line x1="448" y1="249" x2="448" y2="241" style="stroke:#ff0000;stroke-width:1" />
    <line x1="456" y1="249" x2="456" y2="241" style="stroke:#ff0000;stroke-width:1" />
    <line x1="464" y1="249" x2="464" y2="241" style="stroke:#ff0000;stroke-width:1" />
    <line x1="473" y1="249" x2="473" y2="241" style="stroke:#ff0000;stroke-width:1" />
    <line x1="481" y1="249" x2="481" y2="241" style="stroke:#ff0000;stroke-width:1" />
    <line x1="481" y1="249" x2="481" y2="232" style="stroke:#ff0000;stroke-width:1" />
    <line x1="490" y1="249" x2="490" y2="241" style="stroke:#ff0000;stroke-width:1" />
    <line x1="498" y1="249" x2="498" y2="241" style="stroke:#ff0000;stroke-width:1" />
    <line x1="507" y1="249" x2="507" y2="241" style="stroke:#ff0000;stroke-width:1" />
    <line x1="515" y1="249" x2="515" y2="241" style="stroke:#ff0000;stroke-width:1" />
    <line x1="523" y1="249" x2="523" y2="232" style="stroke:#ff0000;stroke-width:1" />
    <line x1="532" y1="249" x2="532" y2="241" style="stroke:#ff0000;stroke-width:1" />
    <line x1="540" y1="249" x2="540" y2="241" style="stroke:#ff0000;stroke-width:1" />
    <line x1="549" y1="249" x2="549" y2="241" style="stroke:#ff0000;stroke-width:1" />
    <line x1="557" y1="249" x2="557" y2="241" style="stroke:#ff0000;stroke-width:1" />
    <line x1="566" y1="249" x2="566" y2="241" style="stroke:#ff0000;stroke-width:1" />
    <line x1="566" y1="249" x2="549" y2="249" style="stroke:#ff0000;stroke-width:1" />
    <line x1="566" y1="241" x2="557" y2="241" style="stroke:#ff0000;stroke-width:1" />
    <line x1="566" y1="232" x2="557" y2="232" style="stroke:#ff0000;stroke-width:1" />
    <line x1="566" y1="224" x2="557" y2="224" style="stroke:#ff0000;stroke-width:1" />
    <line x1="566" y1="215" x2="557" y2="215" style="stroke:#ff0000;stroke-width:1" />
    <line x1="566" y1="207" x2="549" y2="207" style="stroke:#ff0000;stroke-width:1" />
    <line x1="566" y1="199" x2="557" y2="199" style="stroke:#ff0000;stroke-width:1" />
    <line x1="566" y1="190" x2="557" y2="190" style="stroke:#ff0000;stroke-width:1" />
    <line x1="566" y1="182" x2="557" y2="182" style="stroke:#ff0000;stroke-width:1" />
    <line x1="566" y1="173" x2="557" y2="173" style="stroke:#ff0000;stroke-width:1" />
    <line x1="566" y1="165" x2="557" y2="165" style="stroke:#ff0000;stroke-width:1" />
    <line x1="566" y1="165" x2="566" y2="249" style="stroke:#ff0000;stroke-width:1" />
    <line x1="523" y1="165" x2="523" y2="207" style="stroke:#ff0000;stroke-width:1" />
    <line x1="544" y1="165" x2="544" y2="186" style="stroke:#ff0000;stroke-width:1" />
    <line x1="502" y1="165" x2="502" y2="186" style="stroke:#ff0000;stroke-width:1" />
    <line x1="492" y1="165" x2="492" y2="175" style="stroke:#ff0000;stroke-width:1" />
    <line x1="513" y1="165" x2="513" y2="175" style="stroke:#ff0000;stroke-width:1" />
    <line x1="534" y1="165" x2="534" y2="175" style="stroke:#ff0000;stroke-width:1" />
    <line x1="555" y1="165" x2="555" y2="175" style="stroke:#ff0000;stroke-width:1" />
    <line x1="481" y1="165" x2="481" y2="249" style="stroke:#ff0000;stroke-width:1" />
    <line x1="439" y1="165" x2="439" y2="207" style="stroke:#ff0000;stroke-width:1" />
    <line x1="460" y1="165" x2="460" y2="186" style="stroke:#ff0000;stroke-width:1" />
    <line x1="418" y1="165" x2="418" y2="186" style="stroke:#ff0000;stroke-width:1" />
    <line x1="408" y1="165" x2="408" y2="175" style="stroke:#ff0000;stroke-width:1" />
    <line x1="429" y1="165" x2="429" y2="175" style="stroke:#ff0000;stroke-width:1" />
    <line x1="450" y1="165" x2="450" y2="175" style="stroke:#ff0000;stroke-width:1" />
    <line x1="471" y1="165" x2="471" y2="175" style="stroke:#ff0000;stroke-width:1" />
    <line x1="397" y1="165" x2="397" y2="249" style="stroke:#ff0000;stroke-width:1" />
    <line x1="355" y1="165" x2="355" y2="207" style="stroke:#ff0000;stroke-width:1" />
    <line x1="376" y1="165" x2="376" y2="186" style="stroke:#ff0000;stroke-width:1" />
    <line x1="334" y1="165" x2="334" y2="186" style="stroke:#ff0000;stroke-width:1" />
    <line x1="323" y1="165" x2="323" y2="175" style="stroke:#ff0000;stroke-width:1" />
    <line x1="344" y1="165" x2="344" y2="175" style="stroke:#ff0000;stroke-width:1" />
    <line x1="365" y1="165" x2="365" y2="175" style="stroke:#ff0000;stroke-width:1" />
    <line x1="387" y1="165" x2="387" y2="175" style="stroke:#ff0000;stroke-width:1" />
    <line x1="313" y1="165" x2="313" y2="249" style="stroke:#ff0000;stroke-width:1" />
    <line x1="271" y1="165" x2="271" y2="207" style="stroke:#ff0000;stroke-width:1" />
    <line x1="292" y1="165" x2="292" y2="186" style="stroke:#ff0000;stroke-width:1" />
    <line x1="250" y1="165" x2="250" y2="186" style="stroke:#ff0000;stroke-width:1" />
    <line x1="239" y1="165" x2="239" y2="175" style="stroke:#ff0000;stroke-width:1" />
    <line x1="260" y1="165" x2="260" y2="175" style="stroke:#ff0000;stroke-width:1" />
    <line x1="281" y1="165" x2="281" y2="175" style="stroke:#ff0000;stroke-width:1" />
    <line x1="302" y1="165" x2="302" y2="175" style="stroke:#ff0000;stroke-width:1" />
    <line x1="229" y1="165" x2="229" y2="249" style="stroke:#ff0000;stroke-width:1" />
    <line x1="186" y1="165" x2="186" y2="207" style="stroke:#ff0000;stroke-width:1" />
    <line x1="207" y1="165" x2="207" y2="186" style="stroke:#ff0000;stroke-width:1" />
    <line x1="165" y1="165" x2="165" y2="186" style="stroke:#ff0000;stroke-width:1" />
    <line x1="155" y1="165" x2="155" y2="175" style="stroke:#ff0000;stroke-width:1" />
    <line x1="176" y1="165" x2="176" y2="175" style="stroke:#ff0000;stroke-width:1" />
    <line x1="197" y1="165" x2="197" y2="175" style="stroke:#ff0000;stroke-width:1" />
    <line x1="218" y1="165" x2="218" y2="175" style="stroke:#ff0000;stroke-width:1" />
    <line x1="144" y1="165" x2="144" y2="249" style="stroke:#ff0000;stroke-width:1" />
    <line x1="102" y1="165" x2="102" y2="207" style="stroke:#ff0000;stroke-width:1" />
    <line x1="123" y1="165" x2="123" y2="186" style="stroke:#ff0000;stroke-width:1" />
    <line x1="81" y1="165" x2="81" y2="186" style="stroke:#ff0000;stroke-width:1" />
    <line x1="71" y1="165" x2="71" y2="175" style="stroke:#ff0000;stroke-width:1" />
    <line x1="92" y1="165" x2="92" y2="175" style="stroke:#ff0000;stroke-width:1" />
    <line x1="113" y1="165" x2="113" y2="175" style="stroke:#ff0000;stroke-width:1" />
    <line x1="134" y1="165" x2="134" y2="175" style="stroke:#ff0000;stroke-width:1" />
    <line x1="60" y1="165" x2="144" y2="165" style="stroke:#ff0000;stroke-width:1" />
    <line x1="60" y1="207" x2="102" y2="207" style="stroke:#ff0000;stroke-width:1" />
    <line x1="60" y1="186" x2="81" y2="186" style="stroke:#ff0000;stroke-width:1" />
    <line x1="60" y1="228" x2="81" y2="228" style="stroke:#ff0000;stroke-width:1" />
    <line x1="60" y1="239" x2="71" y2="239" style="stroke:#ff0000;stroke-width:1" />
    <line x1="60" y1="218" x2="71" y2="218" style="stroke:#ff0000;stroke-width:1" />
    <line x1="60" y1="196" x2="71" y2="196" style="stroke:#ff0000;stroke-width:1" />
    <line x1="60" y1="175" x2="71" y2="175" style="stroke:#ff0000;stroke-width:1" />
    <line x1="313" y1="502" x2="186" y2="628" style="stroke:#ff0000;stroke-width:1" />
    <line x1="186" y1="628" x2="313" y2="628" style="stroke:#ff0000;stroke-width:1" />
    <line x1="313" y1="628" x2="250" y2="691" style="stroke:#ff0000;stroke-width:1" />
    <line x1="250" y1="691" x2="313" y2="691" style="stroke:#ff0000;stroke-width:1" />
    <line x1="313" y1="691" x2="281" y2="723" style="stroke:#ff0000;stroke-width:1" />
    <line x1="281" y1="723" x2="313" y2="723" style="stroke:#ff0000;stroke-width:1" />
    <line x1="313" y1="723" x2="297" y2="739" style="stroke:#ff0000;stroke-width:1" />
    <line x1="297" y1="739" x2="313" y2="739" style="stroke:#ff0000;stroke-width:1" />
    <line x1="313" y1="739" x2="305" y2="747" style="stroke:#ff0000;stroke-width:1" />
	<path d = "M202 533 L202 565 L234 565 L234 533 L202 533 Z" stroke = "#ff0000" stroke-width = "1" fill = "none" /><circle cx="218" cy = "549" r = "15.79521964060295" stroke = "#ff0000" stroke-width = "1" fill = "none" />
    <line x1="218" y1="549" x2="218" y2="565" style="stroke:#ff0000;stroke-width:1" />
    <line x1="218" y1="549" x2="202" y2="549" style="stroke:#ff0000;stroke-width:1" />
    <line x1="218" y1="549" x2="218" y2="533" style="stroke:#ff0000;stroke-width:1" />
    <line x1="218" y1="549" x2="234" y2="549" style="stroke:#ff0000;stroke-width:1" />
<circle cx="224" cy = "555" r = "3.9488049101507374" stroke = "#ff0000" stroke-width = "1" fill = "none" />
<circle cx="212" cy = "555" r = "3.9488049101507374" stroke = "#ff0000" stroke-width = "1" fill = "none" />
<circle cx="212" cy = "544" r = "3.9488049101507374" stroke = "#ff0000" stroke-width = "1" fill = "none" />
<circle cx="224" cy = "544" r = "3.9488049101507374" stroke = "#ff0000" stroke-width = "1" fill = "none" />
	<path d = "M171 533 L171 565 L202 565 L202 533 L171 533 Z" stroke = "#ff0000" stroke-width = "1" fill = "none" />	<path d = "M175 560 L186 549 L175 538 " stroke = "#ff0000" stroke-width = "1" fill = "none" />    <line x1="186" y1="549" x2="182" y2="549" style="stroke:#ff0000;stroke-width:1" />
    <line x1="179" y1="549" x2="175" y2="549" style="stroke:#ff0000;stroke-width:1" />
	<path d = "M139 533 L139 565 L171 565 L171 533 L139 533 Z" stroke = "#ff0000" stroke-width = "1" fill = "none" />    <line x1="155" y1="533" x2="139" y2="549" style="stroke:#ff0000;stroke-width:1" />
    <line x1="139" y1="549" x2="155" y2="565" style="stroke:#ff0000;stroke-width:1" />
    <line x1="155" y1="565" x2="171" y2="549" style="stroke:#ff0000;stroke-width:1" />
    <line x1="171" y1="549" x2="155" y2="533" style="stroke:#ff0000;stroke-width:1" />
	<path d = "M313 502 L313 755 L60 502 " stroke = "#000000" stroke-width = "1" fill = "none" />    <line x1="459" y1="502" x2="313" y2="586" style="stroke:#ff0000;stroke-width:1" />
    <line x1="313" y1="586" x2="361" y2="502" style="stroke:#ff0000;stroke-width:1" />
    <line x1="361" y1="502" x2="313" y2="530" style="stroke:#ff0000;stroke-width:1" />
    <line x1="313" y1="530" x2="329" y2="502" style="stroke:#ff0000;stroke-width:1" />
    <line x1="329" y1="502" x2="313" y2="511" style="stroke:#ff0000;stroke-width:1" />
	<path d = "M329 628 L360 628 L360 597 L329 597 L329 628 Z" stroke = "#ff0000" stroke-width = "1" fill = "none" />	<path d = "M329 628 L356 612 L329 597 " stroke = "#ff0000" stroke-width = "1" fill = "none" />    <line x1="338" y1="612" x2="356" y2="612" style="stroke:#ff0000;stroke-width:1" />
    <line x1="338" y1="612" x2="329" y2="628" style="stroke:#ff0000;stroke-width:1" />
    <line x1="338" y1="612" x2="329" y2="597" style="stroke:#ff0000;stroke-width:1" />
    <line x1="313" y1="755" x2="459" y2="502" style="stroke:#000000;stroke-width:1" />
    <line x1="566" y1="356" x2="481" y2="356" style="stroke:#ff0000;stroke-width:1" />
    <line x1="566" y1="356" x2="523" y2="429" style="stroke:#ff0000;stroke-width:1" />
    <line x1="523" y1="380" x2="523" y2="429" style="stroke:#ff0000;stroke-width:1" />
    <line x1="523" y1="380" x2="481" y2="356" style="stroke:#ff0000;stroke-width:1" />
    <line x1="523" y1="380" x2="495" y2="380" style="stroke:#ff0000;stroke-width:1" />
    <line x1="523" y1="380" x2="509" y2="405" style="stroke:#ff0000;stroke-width:1" />
    <line x1="509" y1="388" x2="509" y2="405" style="stroke:#ff0000;stroke-width:1" />
    <line x1="509" y1="388" x2="495" y2="380" style="stroke:#ff0000;stroke-width:1" />
    <line x1="509" y1="388" x2="500" y2="388" style="stroke:#ff0000;stroke-width:1" />
    <line x1="509" y1="388" x2="505" y2="396" style="stroke:#ff0000;stroke-width:1" />
    <line x1="566" y1="356" x2="502" y2="392" style="stroke:#ff0000;stroke-width:1" />
	<path d = "M439 283 L566 356 L566 502 " stroke = "#000000" stroke-width = "1" fill = "none" />    <line x1="405" y1="39" x2="461" y2="117" style="stroke:#ff0000;stroke-width:1" />
    <line x1="461" y1="117" x2="496" y2="68" style="stroke:#ff0000;stroke-width:1" />
    <line x1="496" y1="68" x2="518" y2="98" style="stroke:#ff0000;stroke-width:1" />
    <line x1="518" y1="98" x2="531" y2="80" style="stroke:#ff0000;stroke-width:1" />
    <line x1="531" y1="80" x2="540" y2="91" style="stroke:#ff0000;stroke-width:1" />
    <line x1="540" y1="91" x2="545" y2="84" style="stroke:#ff0000;stroke-width:1" />
	<path d = "M408 126 L398 96 L368 105 L378 135 L408 126 Z" stroke = "#ff0000" stroke-width = "1" fill = "none" />    <line x1="388" y1="116" x2="383" y2="101" style="stroke:#ff0000;stroke-width:1" />
    <line x1="388" y1="116" x2="401" y2="106" style="stroke:#ff0000;stroke-width:1" />
    <line x1="388" y1="116" x2="401" y2="125" style="stroke:#ff0000;stroke-width:1" />
    <line x1="388" y1="116" x2="383" y2="131" style="stroke:#ff0000;stroke-width:1" />
    <line x1="388" y1="116" x2="372" y2="116" style="stroke:#ff0000;stroke-width:1" />
<circle cx="388" cy = "116" r = "15.795219640602948" stroke = "#ff0000" stroke-width = "1" fill = "none" />
<circle cx="391" cy = "108" r = "1.9744024550753685" stroke = "#ff0000" stroke-width = "1" fill = "none" />
<circle cx="396" cy = "116" r = "1.9744024550753685" stroke = "#ff0000" stroke-width = "1" fill = "none" />
<circle cx="391" cy = "123" r = "1.9744024550753685" stroke = "#ff0000" stroke-width = "1" fill = "none" />
<circle cx="382" cy = "120" r = "1.9744024550753685" stroke = "#ff0000" stroke-width = "1" fill = "none" />
<circle cx="382" cy = "111" r = "1.9744024550753685" stroke = "#ff0000" stroke-width = "1" fill = "none" />
	<path d = "M438 116 L428 86 L398 96 L408 126 L438 116 Z" stroke = "#ff0000" stroke-width = "1" fill = "none" />	<path d = "M438 116 L408 75 L408 126 L438 116 Z" stroke = "#ff0000" stroke-width = "1" fill = "none" />    <line x1="438" y1="116" x2="408" y2="106" style="stroke:#ff0000;stroke-width:1" />
    <line x1="408" y1="106" x2="419" y2="90" style="stroke:#ff0000;stroke-width:1" />
    <line x1="419" y1="90" x2="408" y2="87" style="stroke:#ff0000;stroke-width:1" />
	<path d = "M313 165 L405 39 L553 87 L313 165 Z" stroke = "#000000" stroke-width = "1" fill = "none" />    <line x1="60" y1="165" x2="186" y2="73" style="stroke:#ff0000;stroke-width:1" />
    <line x1="186" y1="73" x2="157" y2="165" style="stroke:#ff0000;stroke-width:1" />
    <line x1="157" y1="165" x2="235" y2="108" style="stroke:#ff0000;stroke-width:1" />
    <line x1="235" y1="108" x2="216" y2="165" style="stroke:#ff0000;stroke-width:1" />
    <line x1="216" y1="165" x2="265" y2="130" style="stroke:#ff0000;stroke-width:1" />
    <line x1="265" y1="130" x2="253" y2="165" style="stroke:#ff0000;stroke-width:1" />
    <line x1="253" y1="165" x2="283" y2="143" style="stroke:#ff0000;stroke-width:1" />
    <line x1="283" y1="143" x2="276" y2="165" style="stroke:#ff0000;stroke-width:1" />
    <line x1="276" y1="165" x2="294" y2="152" style="stroke:#ff0000;stroke-width:1" />
    <line x1="294" y1="152" x2="290" y2="165" style="stroke:#ff0000;stroke-width:1" />
    <line x1="290" y1="165" x2="301" y2="157" style="stroke:#ff0000;stroke-width:1" />
    <line x1="301" y1="157" x2="299" y2="165" style="stroke:#ff0000;stroke-width:1" />
    <line x1="299" y1="165" x2="306" y2="160" style="stroke:#ff0000;stroke-width:1" />
    <line x1="306" y1="160" x2="304" y2="165" style="stroke:#ff0000;stroke-width:1" />
	<path d = "M60 165 L108 16 L313 165 " stroke = "#000000" stroke-width = "1" fill = "none" /></svg>