<svg width="712.3" height="335.2" viewbox = "0 0 712.3 335.2"  xmlns="http://www.w3.org/2000/svg">
	<path d = "M105 105 L105 21 L21 21 L21 105 L105 105 Z" stroke = "#000000" stroke-width = "1" fill = "none" />    <circle cx="63" cy = "63" r = "5.2375" stroke = "#000000" stroke-width = "1" fill = "#000000" />
    <circle cx="63" cy = "47" r = "5.2375" stroke = "#000000" stroke-width = "1" fill = "#000000" />
	<path d = "M189 105 L189 21 L105 21 L105 105 L189 105 Z" stroke = "#000000" stroke-width = "1" fill = "none" />    <circle cx="147" cy = "63" r = "5.2375" stroke = "#000000" stroke-width = "1" fill = "#000000" />
    <circle cx="147" cy = "79" r = "5.2375" stroke = "#000000" stroke-width = "1" fill = "#000000" />
	<path d = "M272 105 L272 21 L189 21 L189 105 L272 105 Z" stroke = "#000000" stroke-width = "1" fill = "none" />    <circle cx="230" cy = "63" r = "5.2375" stroke = "#000000" stroke-width = "1" fill = "#000000" />
    <circle cx="215" cy = "63" r = "5.2375" stroke = "#000000" stroke-width = "1" fill = "#000000" />
	<path d = "M356 105 L356 21 L272 21 L272 105 L356 105 Z" stroke = "#000000" stroke-width = "1" fill = "none" />    <circle cx="314" cy = "63" r = "5.2375" stroke = "#000000" stroke-width = "1" fill = "#000000" />
    <circle cx="330" cy = "63" r = "5.2375" stroke = "#000000" stroke-width = "1" fill = "#000000" />
	<path d = "M440 105 L440 21 L356 21 L356 105 L440 105 Z" stroke = "#000000" stroke-width = "1" fill = "none" /><circle cx="398" cy = "63" r = "5.2375" stroke = "#000000" stroke-width = "1" fill = "none" />
<circle cx="398" cy = "42" r = "5.2375" stroke = "#000000" stroke-width = "1" fill = "none" />
	<path d = "M524 105 L524 21 L440 21 L440 105 L524 105 Z" stroke = "#000000" stroke-width = "1" fill = "none" /><circle cx="482" cy = "63" r = "5.2375" stroke = "#000000" stroke-width = "1" fill = "none" />
<circle cx="482" cy = "84" r = "5.2375" stroke = "#000000" stroke-width = "1" fill = "none" />
	<path d = "M608 105 L608 21 L524 21 L524 105 L608 105 Z" stroke = "#000000" stroke-width = "1" fill = "none" /><circle cx="566" cy = "63" r = "5.2375" stroke = "#000000" stroke-width = "1" fill = "none" />
<circle cx="545" cy = "63" r = "5.2375" stroke = "#000000" stroke-width = "1" fill = "none" />
	<path d = "M691 105 L691 21 L608 21 L608 105 L691 105 Z" stroke = "#000000" stroke-width = "1" fill = "none" /><circle cx="649" cy = "63" r = "5.2375" stroke = "#000000" stroke-width = "1" fill = "none" />
<circle cx="665" cy = "63" r = "5.2375" stroke = "#000000" stroke-width = "1" fill = "none" />
	<path d = "M105 210 L105 126 L21 126 L21 210 L105 210 Z" stroke = "#000000" stroke-width = "1" fill = "none" /><circle cx="63" cy = "168" r = "5.2375" stroke = "#000000" stroke-width = "1" fill = "none" />
<circle cx="63" cy = "147" r = "5.2375" stroke = "#000000" stroke-width = "1" fill = "none" />
	<path d = "M189 210 L189 126 L105 126 L105 210 L189 210 Z" stroke = "#000000" stroke-width = "1" fill = "none" /><circle cx="147" cy = "168" r = "5.2375" stroke = "#000000" stroke-width = "1" fill = "none" />
<circle cx="147" cy = "189" r = "5.2375" stroke = "#000000" stroke-width = "1" fill = "none" />
	<path d = "M272 210 L272 126 L189 126 L189 210 L272 210 Z" stroke = "#000000" stroke-width = "1" fill = "none" /><circle cx="230" cy = "168" r = "5.2375" stroke = "#000000" stroke-width = "1" fill = "none" />
<circle cx="209" cy = "168" r = "5.2375" stroke = "#000000" stroke-width = "1" fill = "none" />
	<path d = "M356 210 L356 126 L272 126 L272 210 L356 210 Z" stroke = "#000000" stroke-width = "1" fill = "none" /><circle cx="314" cy = "168" r = "5.2375" stroke = "#000000" stroke-width = "1" fill = "none" />
<circle cx="330" cy = "168" r = "5.2375" stroke = "#000000" stroke-width = "1" fill = "none" />
	<path d = "M440 210 L440 126 L356 126 L356 210 L440 210 Z" stroke = "#000000" stroke-width = "1" fill = "none" />	<path d = "M524 210 L524 126 L440 126 L440 210 L524 210 Z" stroke = "#000000" stroke-width = "1" fill = "none" />	<path d = "M608 210 L608 126 L524 126 L524 210 L608 210 Z" stroke = "#000000" stroke-width = "1" fill = "none" />	<path d = "M602 189 L529 189 L566 125 L602 189 Z" stroke = "#ff0000" stroke-width = "1" fill = "#ff0000" />	<path d = "M602 189 L566 167 L529 189 L602 189 Z" stroke = "#ff7900" stroke-width = "1" fill = "#ff7900" />	<path d = "M566 167 L578 189 L553 189 L566 167 Z" stroke = "#ffff00" stroke-width = "1" fill = "#ffff00" />	<path d = "M578 189 L566 182 L553 189 L578 189 Z" stroke = "#008000" stroke-width = "1" fill = "#008000" />	<path d = "M566 182 L562 189 L570 189 L566 182 Z" stroke = "#0000ff" stroke-width = "1" fill = "#0000ff" />	<path d = "M562 189 L566 186 L570 189 L562 189 Z" stroke = "#800080" stroke-width = "1" fill = "#800080" />    <line x1="566" y1="186" x2="562" y2="189" style="stroke:#000000;stroke-width:1" />
    <line x1="566" y1="186" x2="570" y2="189" style="stroke:#000000;stroke-width:1" />
    <line x1="566" y1="182" x2="570" y2="189" style="stroke:#000000;stroke-width:1" />
    <line x1="566" y1="182" x2="562" y2="189" style="stroke:#000000;stroke-width:1" />
    <line x1="566" y1="182" x2="553" y2="189" style="stroke:#000000;stroke-width:1" />
    <line x1="566" y1="182" x2="578" y2="189" style="stroke:#000000;stroke-width:1" />
    <line x1="566" y1="167" x2="578" y2="189" style="stroke:#000000;stroke-width:1" />
    <line x1="566" y1="167" x2="553" y2="189" style="stroke:#000000;stroke-width:1" />
    <line x1="566" y1="167" x2="529" y2="189" style="stroke:#000000;stroke-width:1" />
    <line x1="566" y1="167" x2="602" y2="189" style="stroke:#000000;stroke-width:1" />
	<path d = "M529 189 L566 125 L602 189 L529 189 Z" stroke = "#000000" stroke-width = "1" fill = "none" />	<path d = "M691 210 L691 126 L608 126 L608 210 L691 210 Z" stroke = "#000000" stroke-width = "1" fill = "none" />	<path d = "M639 168 L639 147 L618 147 L618 168 L639 168 Z" stroke = "#000000" stroke-width = "1" fill = "none" /><circle cx="628" cy = "157" r = "10.475" stroke = "#000000" stroke-width = "1" fill = "none" />
    <line x1="628" y1="157" x2="628" y2="147" style="stroke:#000000;stroke-width:1" />
    <line x1="628" y1="157" x2="639" y2="157" style="stroke:#000000;stroke-width:1" />
    <line x1="628" y1="157" x2="628" y2="168" style="stroke:#000000;stroke-width:1" />
    <line x1="628" y1="157" x2="618" y2="157" style="stroke:#000000;stroke-width:1" />
<circle cx="625" cy = "153" r = "2.61875" stroke = "#000000" stroke-width = "1" fill = "none" />
<circle cx="632" cy = "153" r = "2.61875" stroke = "#000000" stroke-width = "1" fill = "none" />
<circle cx="632" cy = "161" r = "2.61875" stroke = "#000000" stroke-width = "1" fill = "none" />
<circle cx="625" cy = "161" r = "2.61875" stroke = "#000000" stroke-width = "1" fill = "none" />
	<path d = "M660 168 L660 147 L639 147 L639 168 L660 168 Z" stroke = "#000000" stroke-width = "1" fill = "none" />    <line x1="649" y1="157" x2="649" y2="147" style="stroke:#000000;stroke-width:1" />
    <line x1="649" y1="157" x2="659" y2="154" style="stroke:#000000;stroke-width:1" />
    <line x1="649" y1="157" x2="656" y2="166" style="stroke:#000000;stroke-width:1" />
    <line x1="649" y1="157" x2="643" y2="166" style="stroke:#000000;stroke-width:1" />
    <line x1="649" y1="157" x2="639" y2="154" style="stroke:#000000;stroke-width:1" />
<circle cx="649" cy = "157" r = "10.475" stroke = "#000000" stroke-width = "1" fill = "none" />
<circle cx="653" cy = "153" r = "1.309375" stroke = "#000000" stroke-width = "1" fill = "none" />
<circle cx="654" cy = "159" r = "1.309375" stroke = "#000000" stroke-width = "1" fill = "none" />
<circle cx="649" cy = "162" r = "1.309375" stroke = "#000000" stroke-width = "1" fill = "none" />
<circle cx="644" cy = "159" r = "1.309375" stroke = "#000000" stroke-width = "1" fill = "none" />
<circle cx="646" cy = "153" r = "1.309375" stroke = "#000000" stroke-width = "1" fill = "none" />
	<path d = "M681 168 L681 147 L660 147 L660 168 L681 168 Z" stroke = "#000000" stroke-width = "1" fill = "none" />    <line x1="670" y1="157" x2="670" y2="147" style="stroke:#000000;stroke-width:1" />
    <line x1="670" y1="157" x2="679" y2="152" style="stroke:#000000;stroke-width:1" />
    <line x1="670" y1="157" x2="679" y2="162" style="stroke:#000000;stroke-width:1" />
    <line x1="670" y1="157" x2="670" y2="168" style="stroke:#000000;stroke-width:1" />
    <line x1="670" y1="157" x2="661" y2="162" style="stroke:#000000;stroke-width:1" />
<circle cx="670" cy = "157" r = "10.475" stroke = "#000000" stroke-width = "1" fill = "none" />
<circle cx="668" cy = "153" r = "1.309375" stroke = "#000000" stroke-width = "1" fill = "none" />
<circle cx="673" cy = "153" r = "1.309375" stroke = "#000000" stroke-width = "1" fill = "none" />
<circle cx="676" cy = "157" r = "1.309375" stroke = "#000000" stroke-width = "1" fill = "none" />
<circle cx="673" cy = "162" r = "1.309375" stroke = "#000000" stroke-width = "1" fill = "none" />
<circle cx="668" cy = "162" r = "1.309375" stroke = "#000000" stroke-width = "1" fill = "none" />
    <line x1="670" y1="157" x2="661" y2="152" style="stroke:#000000;stroke-width:1" />
<circle cx="665" cy = "157" r = "1.309375" stroke = "#000000" stroke-width = "1" fill = "none" />
	<path d = "M105 314 L105 230 L21 230 L21 314 L105 314 Z" stroke = "#000000" stroke-width = "1" fill = "none" />	<path d = "M189 314 L189 230 L105 230 L105 314 L189 314 Z" stroke = "#000000" stroke-width = "1" fill = "none" />	<path d = "M126 272 L126 251 L105 251 L105 272 L126 272 Z" stroke = "#000000" stroke-width = "1" fill = "none" />	<path d = "M123 254 L115 262 L123 269 " stroke = "#000000" stroke-width = "1" fill = "none" />    <line x1="115" y1="262" x2="118" y2="262" style="stroke:#000000;stroke-width:1" />
    <line x1="120" y1="262" x2="123" y2="262" style="stroke:#000000;stroke-width:1" />
	<path d = "M147 272 L147 251 L126 251 L126 272 L147 272 Z" stroke = "#000000" stroke-width = "1" fill = "none" />	<path d = "M144 269 L136 262 L138 260 " stroke = "#000000" stroke-width = "1" fill = "none" />    <line x1="140" y1="258" x2="142" y2="256" style="stroke:#000000;stroke-width:1" />
    <line x1="144" y1="254" x2="145" y2="253" style="stroke:#000000;stroke-width:1" />
    <line x1="136" y1="262" x2="147" y2="262" style="stroke:#000000;stroke-width:1" />
	<path d = "M168 272 L168 251 L147 251 L147 272 L168 272 Z" stroke = "#000000" stroke-width = "1" fill = "none" />    <line x1="157" y1="262" x2="165" y2="254" style="stroke:#000000;stroke-width:1" />
    <line x1="157" y1="262" x2="160" y2="261" style="stroke:#000000;stroke-width:1" />
    <line x1="162" y1="261" x2="165" y2="260" style="stroke:#000000;stroke-width:1" />
    <line x1="157" y1="262" x2="160" y2="263" style="stroke:#000000;stroke-width:1" />
    <line x1="162" y1="263" x2="165" y2="264" style="stroke:#000000;stroke-width:1" />
    <line x1="157" y1="262" x2="165" y2="269" style="stroke:#000000;stroke-width:1" />
	<path d = "M189 272 L189 251 L168 251 L168 272 L189 272 Z" stroke = "#000000" stroke-width = "1" fill = "none" />    <line x1="178" y1="262" x2="188" y2="259" style="stroke:#000000;stroke-width:1" />
    <line x1="178" y1="262" x2="188" y2="265" style="stroke:#000000;stroke-width:1" />
    <line x1="178" y1="262" x2="180" y2="264" style="stroke:#000000;stroke-width:1" />
    <line x1="182" y1="266" x2="184" y2="267" style="stroke:#000000;stroke-width:1" />
    <line x1="178" y1="262" x2="180" y2="260" style="stroke:#000000;stroke-width:1" />
    <line x1="182" y1="258" x2="184" y2="256" style="stroke:#000000;stroke-width:1" />
	<path d = "M272 314 L272 230 L189 230 L189 314 L272 314 Z" stroke = "#000000" stroke-width = "1" fill = "none" />	<path d = "M209 272 L209 262 L199 262 L199 272 L209 272 Z" stroke = "#000000" stroke-width = "1" fill = "none" />    <line x1="204" y1="272" x2="209" y2="267" style="stroke:#000000;stroke-width:1" />
    <line x1="209" y1="267" x2="204" y2="262" style="stroke:#000000;stroke-width:1" />
    <line x1="204" y1="262" x2="199" y2="267" style="stroke:#000000;stroke-width:1" />
    <line x1="199" y1="267" x2="204" y2="272" style="stroke:#000000;stroke-width:1" />
	<path d = "M220 272 L220 262 L209 262 L209 272 L220 272 Z" stroke = "#000000" stroke-width = "1" fill = "none" />	<path d = "M220 272 L215 256 L209 272 L220 272 Z" stroke = "#000000" stroke-width = "1" fill = "none" />    <line x1="220" y1="272" x2="212" y2="266" style="stroke:#000000;stroke-width:1" />
    <line x1="212" y1="266" x2="217" y2="262" style="stroke:#000000;stroke-width:1" />
    <line x1="217" y1="262" x2="214" y2="260" style="stroke:#000000;stroke-width:1" />
	<path d = "M230 272 L230 262 L220 262 L220 272 L230 272 Z" stroke = "#000000" stroke-width = "1" fill = "none" />	<path d = "M230 272 L225 263 L220 272 " stroke = "#000000" stroke-width = "1" fill = "none" />    <line x1="225" y1="269" x2="225" y2="263" style="stroke:#000000;stroke-width:1" />
    <line x1="225" y1="269" x2="230" y2="272" style="stroke:#000000;stroke-width:1" />
    <line x1="225" y1="269" x2="220" y2="272" style="stroke:#000000;stroke-width:1" />
	<path d = "M241 272 L241 262 L230 262 L230 272 L241 272 Z" stroke = "#000000" stroke-width = "1" fill = "none" />	<path d = "M238 270 L238 267 L236 267 L233 267 L233 270 L236 270 L238 270 Z" stroke = "#000000" stroke-width = "1" fill = "none" />    <line x1="236" y1="270" x2="236" y2="267" style="stroke:#000000;stroke-width:1" />
	<path d = "M251 272 L251 262 L241 262 L241 272 L251 272 Z" stroke = "#000000" stroke-width = "1" fill = "none" />	<path d = "M244 269 L244 265 L241 265 L241 269 L244 269 Z" stroke = "#000000" stroke-width = "1" fill = "none" />	<path d = "M248 269 L248 265 L244 265 L244 269 L248 269 Z" stroke = "#000000" stroke-width = "1" fill = "none" />	<path d = "M251 269 L251 265 L248 265 L248 269 L251 269 Z" stroke = "#000000" stroke-width = "1" fill = "none" />	<path d = "M262 272 L262 262 L251 262 L251 272 L262 272 Z" stroke = "#000000" stroke-width = "1" fill = "none" /><circle cx="254" cy = "270" r = "1.3093749999999997" stroke = "#000000" stroke-width = "1" fill = "none" />
<circle cx="254" cy = "264" r = "1.3093749999999997" stroke = "#000000" stroke-width = "1" fill = "none" />
<circle cx="257" cy = "267" r = "1.3093749999999997" stroke = "#000000" stroke-width = "1" fill = "none" />
<circle cx="259" cy = "264" r = "1.3093749999999997" stroke = "#000000" stroke-width = "1" fill = "none" />
<circle cx="259" cy = "270" r = "1.3093749999999997" stroke = "#000000" stroke-width = "1" fill = "none" />
	<path d = "M356 314 L356 230 L272 230 L272 314 L356 314 Z" stroke = "#000000" stroke-width = "1" fill = "none" />    <circle cx="314" cy = "272" r = "5.2375" stroke = "#000000" stroke-width = "1" fill = "#000000" />
    <circle cx="314" cy = "257" r = "5.2375" stroke = "#000000" stroke-width = "1" fill = "#000000" />
	<path d = "M440 314 L440 230 L356 230 L356 314 L440 314 Z" stroke = "#000000" stroke-width = "1" fill = "none" />    <circle cx="398" cy = "272" r = "5.2375" stroke = "#000000" stroke-width = "1" fill = "#000000" />
    <circle cx="398" cy = "288" r = "5.2375" stroke = "#000000" stroke-width = "1" fill = "#000000" />
	<path d = "M524 314 L524 230 L440 230 L440 314 L524 314 Z" stroke = "#000000" stroke-width = "1" fill = "none" />    <circle cx="482" cy = "272" r = "5.2375" stroke = "#000000" stroke-width = "1" fill = "#000000" />
    <circle cx="466" cy = "272" r = "5.2375" stroke = "#000000" stroke-width = "1" fill = "#000000" />
	<path d = "M608 314 L608 230 L524 230 L524 314 L608 314 Z" stroke = "#000000" stroke-width = "1" fill = "none" />    <circle cx="566" cy = "272" r = "5.2375" stroke = "#000000" stroke-width = "1" fill = "#000000" />
    <circle cx="581" cy = "272" r = "5.2375" stroke = "#000000" stroke-width = "1" fill = "#000000" />
	<path d = "M691 314 L691 230 L608 230 L608 314 L691 314 Z" stroke = "#000000" stroke-width = "1" fill = "none" /></svg>