<svg width="400" height="400" viewbox = "0 0 400 400"  xmlns="http://www.w3.org/2000/svg">
<!--<json>{
  "glyph": "0321,0331,0332,0336,0336,0362,0203,0335,0203,0203,0203,0203,0203,0203,0203,0203,0335,0203,0335,0203,0203,0203,0203,0203,0203,0203,0203,0354,0335,0330,0333,0333,0333,0333,0330,0306,0350,0334,0362,0203,0335,0203,0203,0203,0203,0203,0335,0335,0335,0203,0335,0335,0335,0203,0203,0203,0203,0203,0335,0203,0354,0331,0334,0304,0335,0335,0333,0333,0334,0362,0203,0334,0350,0334,0310,0337,0203,0334,0334,0203,0334,0334,0334,0336,0203,0354,0335,0335,0304,0313,0336,0336,0332,0337,0337,0337,0362,0203,0203,0335,0336,0336,0203,0335,0337,0203,0203,0203,0203,0335,0336,0336,0337,0335,0335,0354,0334,0330,0330,0330,0330,0330,0330,0330,0330,0336,0332,0337,0337,0334,0350,0310,0362,0203,0335,0335,0335,0337,0203,0335,0335,0203,0335,0335,0335,0336,0203,0354,0335,0335,0304,0313,0304,0332,0332,0332,0332,0331,0332,0332,0332,0331,0336,0333,0331,0362,0203,0335,0203,0203,0203,0203,0335,0203,0335,0203,0203,0203,0203,0354,0335,0333,0333,0333,0333,0336,0330,0337,0337,0310,0350,0362,0203,0335,0335,0335,0337,0203,0335,0335,0203,0335,0335,0335,0336,0203,0354,",
  "x0": 228.22369650268888,
  "y0": 200,
  "unit": 142.65583530550015,
  "width": 400,
  "height": 400,
  "style": {
    "color0": "#00ff00",
    "fill0": "#00ff00",
    "line0": 3,
    "color1": "black",
    "fill1": "black",
    "line1": 5,
    "color2": "red",
    "fill2": "red",
    "line2": 1,
    "color3": "#FF7900",
    "fill3": "#FF7900",
    "line3": 1,
    "color4": "yellow",
    "fill4": "yellow",
    "line4": 1,
    "color5": "green",
    "fill5": "green",
    "line5": 1,
    "color6": "blue",
    "fill6": "blue",
    "line6": 1,
    "color7": "purple",
    "fill7": "purple",
    "line7": 1
  },
  "shapes": [
    "0220:0305,0350,0334,0362,0203,0335,0335,0203,0335,0335,0335,0203,0335,0335,0203,0363,0335,0335,0335,0335,",
    "01220:0333,0200,0336,0330,0332,0336,0326,0220,0320,0337,0313,0304,0331,0333,0337,",
    "0221:0305,0350,0350,0334,0362,0203,0335,0335,0203,0335,0335,0335,0335,0335,0335,0335,0335,0203,0335,0335,0203,0363,0335,0335,0335,0335,0335,0335,0335,0335,0335,",
    "01221:0333,0200,0336,0330,0332,0336,0326,0221,0320,0313,0304,0337,0331,0333,0337,",
    "0222:0341,0336,0333,0341,0332,0337,0333,0333,0333,",
    "01222:0333,0200,"
  ]
}</json>-->	<path d = "M86 343 L86 307 L121 307 L157 307 L193 307 L228 307 L264 307 L300 307 L335 307 L371 307 L371 343 L335 343 L300 343 L264 343 L228 343 L193 343 L157 343 L121 343 L86 343 Z" stroke = "#000000" stroke-width = "5" fill = "none" />	<path d = "M228 271 L210 240 L210 205 L210 169 L210 133 L210 98 L210 62 L246 62 L246 98 L246 133 L246 169 L246 205 L246 240 L228 271 Z" stroke = "#000000" stroke-width = "5" fill = "none" />	<path d = "M317 240 L282 240 L317 276 L353 240 L317 240 Z" stroke = "#000000" stroke-width = "5" fill = "none" />	<path d = "M308 240 L308 169 L308 98 L326 98 L326 133 L326 169 L326 205 L326 240 Z" stroke = "#000000" stroke-width = "5" fill = "none" />	<path d = "M317 98 L282 98 L317 62 L353 98 L317 98 Z" stroke = "#000000" stroke-width = "5" fill = "none" />	<path d = "M86 187 L86 169 L103 169 L121 169 L139 169 L157 169 L157 187 L139 187 L121 187 L103 187 L86 187 Z" stroke = "#000000" stroke-width = "5" fill = "none" />	<path d = "M157 178 L157 142 L193 178 L157 214 L157 178 Z" stroke = "#000000" stroke-width = "5" fill = "none" /></svg>