<svg width="674" height="674" viewbox = "0 0 674 674"  xmlns="http://www.w3.org/2000/svg">
<!--<json></json>-->    <line x1="94" y1="337" x2="175" y2="337" style="stroke:#000000;stroke-width:1" />
    <line x1="175" y1="337" x2="256" y2="337" style="stroke:#000000;stroke-width:1" />
    <line x1="256" y1="337" x2="337" y2="337" style="stroke:#000000;stroke-width:1" />
    <line x1="337" y1="337" x2="418" y2="337" style="stroke:#000000;stroke-width:1" />
    <line x1="418" y1="337" x2="499" y2="337" style="stroke:#000000;stroke-width:1" />
    <line x1="499" y1="337" x2="580" y2="337" style="stroke:#000000;stroke-width:1" />
    <line x1="580" y1="337" x2="580" y2="418" style="stroke:#000000;stroke-width:1" />
    <line x1="580" y1="418" x2="499" y2="418" style="stroke:#000000;stroke-width:1" />
    <line x1="499" y1="418" x2="418" y2="418" style="stroke:#000000;stroke-width:1" />
    <line x1="418" y1="418" x2="337" y2="418" style="stroke:#000000;stroke-width:1" />
    <line x1="337" y1="418" x2="256" y2="418" style="stroke:#000000;stroke-width:1" />
    <line x1="256" y1="418" x2="175" y2="418" style="stroke:#000000;stroke-width:1" />
    <line x1="175" y1="418" x2="94" y2="418" style="stroke:#000000;stroke-width:1" />
    <line x1="94" y1="418" x2="94" y2="337" style="stroke:#000000;stroke-width:1" />
    <line x1="94" y1="499" x2="94" y2="418" style="stroke:#000000;stroke-width:1" />
    <line x1="94" y1="580" x2="94" y2="499" style="stroke:#000000;stroke-width:1" />
    <line x1="94" y1="580" x2="175" y2="580" style="stroke:#000000;stroke-width:1" />
    <line x1="175" y1="580" x2="256" y2="580" style="stroke:#000000;stroke-width:1" />
    <line x1="256" y1="580" x2="337" y2="580" style="stroke:#000000;stroke-width:1" />
    <line x1="337" y1="580" x2="418" y2="580" style="stroke:#000000;stroke-width:1" />
    <line x1="418" y1="580" x2="499" y2="580" style="stroke:#000000;stroke-width:1" />
    <line x1="499" y1="580" x2="580" y2="580" style="stroke:#000000;stroke-width:1" />
    <line x1="580" y1="580" x2="580" y2="499" style="stroke:#000000;stroke-width:1" />
    <line x1="580" y1="499" x2="580" y2="418" style="stroke:#000000;stroke-width:1" />
    <line x1="580" y1="499" x2="499" y2="499" style="stroke:#000000;stroke-width:1" />
    <line x1="499" y1="499" x2="418" y2="499" style="stroke:#000000;stroke-width:1" />
    <line x1="418" y1="499" x2="337" y2="499" style="stroke:#000000;stroke-width:1" />
    <line x1="337" y1="499" x2="256" y2="499" style="stroke:#000000;stroke-width:1" />
    <line x1="256" y1="499" x2="175" y2="499" style="stroke:#000000;stroke-width:1" />
    <line x1="175" y1="499" x2="94" y2="499" style="stroke:#000000;stroke-width:1" />
    <line x1="94" y1="337" x2="94" y2="256" style="stroke:#000000;stroke-width:1" />
    <line x1="94" y1="256" x2="175" y2="256" style="stroke:#000000;stroke-width:1" />
    <line x1="175" y1="256" x2="256" y2="256" style="stroke:#000000;stroke-width:1" />
    <line x1="256" y1="256" x2="337" y2="256" style="stroke:#000000;stroke-width:1" />
    <line x1="337" y1="256" x2="418" y2="256" style="stroke:#000000;stroke-width:1" />
    <line x1="418" y1="256" x2="499" y2="256" style="stroke:#000000;stroke-width:1" />
    <line x1="499" y1="256" x2="580" y2="256" style="stroke:#000000;stroke-width:1" />
    <line x1="580" y1="256" x2="580" y2="337" style="stroke:#000000;stroke-width:1" />
    <line x1="580" y1="256" x2="580" y2="175" style="stroke:#000000;stroke-width:1" />
    <line x1="580" y1="175" x2="499" y2="175" style="stroke:#000000;stroke-width:1" />
    <line x1="499" y1="175" x2="418" y2="175" style="stroke:#000000;stroke-width:1" />
    <line x1="418" y1="175" x2="337" y2="175" style="stroke:#000000;stroke-width:1" />
    <line x1="337" y1="175" x2="256" y2="175" style="stroke:#000000;stroke-width:1" />
    <line x1="256" y1="175" x2="175" y2="175" style="stroke:#000000;stroke-width:1" />
    <line x1="175" y1="175" x2="94" y2="175" style="stroke:#000000;stroke-width:1" />
    <line x1="94" y1="175" x2="94" y2="256" style="stroke:#000000;stroke-width:1" />
    <line x1="94" y1="175" x2="94" y2="94" style="stroke:#000000;stroke-width:1" />
    <line x1="94" y1="94" x2="175" y2="94" style="stroke:#000000;stroke-width:1" />
    <line x1="175" y1="94" x2="256" y2="94" style="stroke:#000000;stroke-width:1" />
    <line x1="256" y1="94" x2="337" y2="94" style="stroke:#000000;stroke-width:1" />
    <line x1="337" y1="94" x2="418" y2="94" style="stroke:#000000;stroke-width:1" />
    <line x1="418" y1="94" x2="499" y2="94" style="stroke:#000000;stroke-width:1" />
    <line x1="499" y1="94" x2="580" y2="94" style="stroke:#000000;stroke-width:1" />
    <line x1="580" y1="94" x2="580" y2="175" style="stroke:#000000;stroke-width:1" />
</svg>