<svg width="674" height="674" viewbox = "0 0 674 674"  xmlns="http://www.w3.org/2000/svg">
<!--<json></json>-->	<path d = "M285 256 L281 252 L281 247 L281 243 L281 238 L285 238 L285 243 L285 247 L285 252 L290 252 L292 252 L292 247 L297 247 L297 252 L301 252 L303 252 L303 247 L303 243 L303 238 L308 238 L308 243 L308 247 L308 252 L303 256 L299 256 L294 256 L290 256 L285 256 Z" stroke = "#000000" stroke-width = "1" fill = "none" />	<path d = "M321 256 L317 252 L317 247 L317 243 L317 238 L321 238 L321 243 L321 247 L321 252 L326 252 L328 252 L328 247 L333 247 L333 252 L337 252 L339 252 L339 247 L339 243 L339 238 L344 238 L344 243 L344 247 L344 252 L339 256 L335 256 L330 256 L326 256 L321 256 Z" stroke = "#000000" stroke-width = "1" fill = "none" />	<path d = "M357 256 L353 252 L353 247 L353 243 L353 238 L357 238 L357 243 L357 247 L357 252 L362 252 L364 252 L364 247 L368 247 L368 252 L373 252 L375 252 L375 247 L375 243 L375 238 L380 238 L380 243 L380 247 L380 252 L375 256 L371 256 L366 256 L362 256 L357 256 Z" stroke = "#000000" stroke-width = "1" fill = "none" />	<path d = "M404 256 L404 252 L400 252 L400 256 L404 256 Z" stroke = "#000000" stroke-width = "1" fill = "none" />	<path d = "M182 337 L182 333 L182 328 L182 324 L182 319 L186 319 L186 321 L189 319 L191 319 L193 321 L195 321 L198 321 L200 319 L202 319 L204 319 L207 319 L209 321 L209 324 L209 326 L209 328 L209 330 L209 333 L209 335 L209 337 L204 337 L204 333 L204 328 L204 324 L200 324 L198 326 L198 330 L198 335 L198 337 L195 337 L193 337 L193 335 L193 333 L193 330 L193 328 L193 326 L191 324 L189 324 L186 326 L186 330 L186 335 L186 337 L182 337 Z" stroke = "#000000" stroke-width = "1" fill = "none" />	<path d = "M222 337 L218 333 L218 328 L222 324 L227 324 L227 328 L222 328 L222 333 L227 333 L227 337 L222 337 Z" stroke = "#000000" stroke-width = "1" fill = "none" />	<path d = "M245 337 L240 337 L240 335 L238 337 L236 337 L234 337 L231 337 L231 333 L236 333 L240 328 L236 328 L231 328 L231 324 L236 324 L240 324 L240 319 L240 315 L236 315 L231 315 L231 310 L236 310 L240 310 L245 310 L245 315 L245 319 L245 324 L245 328 L245 333 L245 337 " stroke = "#000000" stroke-width = "1" fill = "none" />	<path d = "M227 315 L227 310 L222 310 L218 315 L222 315 L227 315 " stroke = "#000000" stroke-width = "1" fill = "none" />	<path d = "M254 359 L254 355 L254 350 L254 346 L254 341 L254 337 L254 333 L254 328 L254 324 L254 319 L254 315 L258 315 L258 319 L258 324 L258 328 L258 333 L258 337 L258 341 L258 346 L258 350 L258 355 L258 359 L254 359 Z" stroke = "#000000" stroke-width = "1" fill = "none" />	<path d = "M263 337 L263 333 L267 333 L272 333 L276 333 L276 328 L276 324 L276 319 L272 319 L267 319 L263 319 L263 315 L267 315 L272 315 L276 315 L281 319 L281 324 L281 328 L281 333 L276 337 L272 337 L267 337 L263 337 Z" stroke = "#000000" stroke-width = "1" fill = "none" />	<path d = "M306 337 L301 337 L301 333 L301 328 L301 324 L301 319 L301 315 L301 310 L301 306 L301 301 L299 303 L299 301 L299 299 L301 297 L303 297 L306 297 L306 299 L306 301 L306 303 L306 306 L306 308 L306 310 L306 312 L306 315 L306 317 L306 319 L306 321 L306 324 L306 326 L306 328 L306 330 L306 333 L308 330 L308 333 L308 335 L306 337 Z" stroke = "#000000" stroke-width = "1" fill = "none" />	<path d = "M330 337 L326 333 L326 328 L326 324 L326 319 L330 315 L335 315 L337 315 L337 319 L333 319 L330 319 L330 324 L335 324 L337 324 L337 328 L333 328 L330 328 L330 333 L335 333 L337 333 L337 337 L335 337 L330 337 Z" stroke = "#000000" stroke-width = "1" fill = "none" />	<path d = "M341 337 L341 333 L346 333 L350 333 L353 333 L348 337 L344 337 L341 337 Z" stroke = "#000000" stroke-width = "1" fill = "none" />	<path d = "M341 328 L341 324 L346 324 L348 324 L348 319 L344 319 L341 319 L341 315 L346 315 L348 315 L353 319 L353 324 L348 328 L344 328 L341 328 Z" stroke = "#000000" stroke-width = "1" fill = "none" />	<path d = "M377 337 L373 337 L373 333 L373 328 L373 324 L373 319 L373 315 L373 310 L373 306 L373 301 L371 303 L371 301 L371 299 L373 297 L375 297 L377 297 L377 299 L377 301 L377 303 L377 306 L377 308 L377 310 L377 312 L377 315 L377 317 L377 319 L377 321 L377 324 L377 326 L377 328 L377 330 L377 333 L380 330 L380 333 L380 335 L377 337 Z" stroke = "#000000" stroke-width = "1" fill = "none" />	<path d = "M402 337 L398 333 L398 328 L402 324 L407 324 L407 328 L402 328 L402 333 L407 333 L407 337 L402 337 Z" stroke = "#000000" stroke-width = "1" fill = "none" />	<path d = "M425 337 L420 337 L420 335 L418 337 L416 337 L413 337 L411 337 L411 333 L416 333 L420 328 L416 328 L411 328 L411 324 L416 324 L420 324 L420 319 L420 315 L416 315 L411 315 L411 310 L416 310 L420 310 L425 310 L425 315 L425 319 L425 324 L425 328 L425 333 L425 337 " stroke = "#000000" stroke-width = "1" fill = "none" />	<path d = "M407 315 L407 310 L402 310 L398 315 L402 315 L407 315 " stroke = "#000000" stroke-width = "1" fill = "none" />	<path d = "M438 337 L434 333 L434 328 L434 324 L434 319 L438 319 L438 324 L438 328 L438 333 L443 333 L445 333 L445 328 L449 328 L449 333 L454 333 L456 333 L456 328 L456 324 L456 319 L461 319 L461 324 L461 328 L461 333 L456 337 L452 337 L447 337 L443 337 L438 337 Z" stroke = "#000000" stroke-width = "1" fill = "none" />	<path d = "M474 337 L474 333 L474 328 L474 324 L474 319 L474 315 L479 315 L479 319 L483 315 L488 315 L492 315 L497 319 L497 324 L497 328 L497 333 L497 337 L492 337 L492 333 L492 328 L492 324 L488 319 L483 319 L479 324 L479 328 L479 333 L479 337 L474 337 Z" stroke = "#000000" stroke-width = "1" fill = "none" />	<path d = "M279 418 L279 413 L274 413 L274 418 L279 418 Z" stroke = "#000000" stroke-width = "1" fill = "none" />	<path d = "M303 418 L303 413 L303 409 L303 404 L303 400 L303 395 L308 395 L308 400 L312 395 L317 395 L321 395 L326 400 L326 404 L326 409 L326 413 L326 418 L321 418 L321 413 L321 409 L321 404 L317 400 L312 400 L308 404 L308 409 L308 413 L308 418 L303 418 Z" stroke = "#000000" stroke-width = "1" fill = "none" />	<path d = "M339 418 L335 413 L335 409 L335 404 L335 400 L339 395 L344 395 L346 395 L346 400 L341 400 L339 400 L339 404 L344 404 L346 404 L346 409 L341 409 L339 409 L339 413 L344 413 L346 413 L346 418 L344 418 L339 418 Z" stroke = "#000000" stroke-width = "1" fill = "none" />	<path d = "M350 418 L350 413 L355 413 L359 413 L362 413 L357 418 L353 418 L350 418 Z" stroke = "#000000" stroke-width = "1" fill = "none" />	<path d = "M350 409 L350 404 L355 404 L357 404 L357 400 L353 400 L350 400 L350 395 L355 395 L357 395 L362 400 L362 404 L357 409 L353 409 L350 409 Z" stroke = "#000000" stroke-width = "1" fill = "none" />	<path d = "M382 418 L382 413 L382 409 L377 409 L377 404 L382 404 L382 400 L382 395 L386 395 L386 400 L386 404 L391 404 L391 409 L386 409 L386 413 L386 418 L386 422 L386 427 L391 427 L395 422 L398 422 L398 425 L395 427 L393 429 L391 431 L389 431 L386 431 L384 431 L382 431 L382 429 L382 427 L382 425 L382 422 L382 420 L382 418 Z" stroke = "#000000" stroke-width = "1" fill = "none" />    <line x1="337" y1="125" x2="154" y2="231" style="stroke:#000000;stroke-width:1" />
    <line x1="154" y1="231" x2="154" y2="443" style="stroke:#000000;stroke-width:1" />
    <line x1="154" y1="443" x2="337" y2="549" style="stroke:#000000;stroke-width:1" />
    <line x1="337" y1="549" x2="520" y2="443" style="stroke:#000000;stroke-width:1" />
    <line x1="520" y1="443" x2="520" y2="231" style="stroke:#000000;stroke-width:1" />
    <line x1="520" y1="231" x2="337" y2="125" style="stroke:#000000;stroke-width:1" />
</svg>