<svg width="674" height="674" viewbox = "0 0 674 674"  xmlns="http://www.w3.org/2000/svg">
<!--<json></json>-->    <circle cx="337" cy = "261" r = "5.055" stroke = "#000000" stroke-width = "1" fill = "#000000" />
    <circle cx="337" cy = "276" r = "5.055" stroke = "#000000" stroke-width = "1" fill = "#000000" />
    <circle cx="337" cy = "292" r = "5.055" stroke = "#000000" stroke-width = "1" fill = "#000000" />
    <circle cx="337" cy = "307" r = "5.055" stroke = "#000000" stroke-width = "1" fill = "#000000" />
    <circle cx="337" cy = "322" r = "5.055" stroke = "#000000" stroke-width = "1" fill = "#000000" />
    <circle cx="337" cy = "337" r = "5.055" stroke = "#000000" stroke-width = "1" fill = "#000000" />
    <circle cx="337" cy = "352" r = "5.055" stroke = "#000000" stroke-width = "1" fill = "#000000" />
    <circle cx="337" cy = "367" r = "5.055" stroke = "#000000" stroke-width = "1" fill = "#000000" />
    <circle cx="337" cy = "382" r = "5.055" stroke = "#000000" stroke-width = "1" fill = "#000000" />
    <circle cx="337" cy = "398" r = "5.055" stroke = "#000000" stroke-width = "1" fill = "#000000" />
    <circle cx="337" cy = "413" r = "5.055" stroke = "#000000" stroke-width = "1" fill = "#000000" />
    <circle cx="337" cy = "428" r = "5.055" stroke = "#000000" stroke-width = "1" fill = "#000000" />
    <circle cx="337" cy = "443" r = "5.055" stroke = "#000000" stroke-width = "1" fill = "#000000" />
    <circle cx="337" cy = "458" r = "5.055" stroke = "#000000" stroke-width = "1" fill = "#000000" />
    <circle cx="337" cy = "473" r = "5.055" stroke = "#000000" stroke-width = "1" fill = "#000000" />
    <circle cx="337" cy = "489" r = "5.055" stroke = "#000000" stroke-width = "1" fill = "#000000" />
    <circle cx="337" cy = "504" r = "5.055" stroke = "#000000" stroke-width = "1" fill = "#000000" />
    <circle cx="337" cy = "519" r = "5.055" stroke = "#000000" stroke-width = "1" fill = "#000000" />
    <circle cx="337" cy = "534" r = "5.055" stroke = "#000000" stroke-width = "1" fill = "#000000" />
    <circle cx="352" cy = "625" r = "5.055" stroke = "#000000" stroke-width = "1" fill = "#000000" />
    <circle cx="367" cy = "625" r = "5.055" stroke = "#000000" stroke-width = "1" fill = "#000000" />
    <circle cx="382" cy = "625" r = "5.055" stroke = "#000000" stroke-width = "1" fill = "#000000" />
    <circle cx="398" cy = "625" r = "5.055" stroke = "#000000" stroke-width = "1" fill = "#000000" />
    <circle cx="413" cy = "625" r = "5.055" stroke = "#000000" stroke-width = "1" fill = "#000000" />
    <circle cx="428" cy = "625" r = "5.055" stroke = "#000000" stroke-width = "1" fill = "#000000" />
    <circle cx="443" cy = "625" r = "5.055" stroke = "#000000" stroke-width = "1" fill = "#000000" />
    <circle cx="458" cy = "625" r = "5.055" stroke = "#000000" stroke-width = "1" fill = "#000000" />
    <circle cx="473" cy = "625" r = "5.055" stroke = "#000000" stroke-width = "1" fill = "#000000" />
    <circle cx="489" cy = "625" r = "5.055" stroke = "#000000" stroke-width = "1" fill = "#000000" />
    <circle cx="504" cy = "610" r = "5.055" stroke = "#000000" stroke-width = "1" fill = "#000000" />
    <circle cx="519" cy = "595" r = "5.055" stroke = "#000000" stroke-width = "1" fill = "#000000" />
    <circle cx="534" cy = "580" r = "5.055" stroke = "#000000" stroke-width = "1" fill = "#000000" />
    <circle cx="534" cy = "564" r = "5.055" stroke = "#000000" stroke-width = "1" fill = "#000000" />
    <circle cx="534" cy = "549" r = "5.055" stroke = "#000000" stroke-width = "1" fill = "#000000" />
    <circle cx="534" cy = "534" r = "5.055" stroke = "#000000" stroke-width = "1" fill = "#000000" />
    <circle cx="534" cy = "519" r = "5.055" stroke = "#000000" stroke-width = "1" fill = "#000000" />
    <circle cx="534" cy = "504" r = "5.055" stroke = "#000000" stroke-width = "1" fill = "#000000" />
    <circle cx="534" cy = "489" r = "5.055" stroke = "#000000" stroke-width = "1" fill = "#000000" />
    <circle cx="534" cy = "473" r = "5.055" stroke = "#000000" stroke-width = "1" fill = "#000000" />
    <circle cx="534" cy = "458" r = "5.055" stroke = "#000000" stroke-width = "1" fill = "#000000" />
    <circle cx="534" cy = "443" r = "5.055" stroke = "#000000" stroke-width = "1" fill = "#000000" />
    <circle cx="534" cy = "428" r = "5.055" stroke = "#000000" stroke-width = "1" fill = "#000000" />
    <circle cx="534" cy = "413" r = "5.055" stroke = "#000000" stroke-width = "1" fill = "#000000" />
    <circle cx="534" cy = "398" r = "5.055" stroke = "#000000" stroke-width = "1" fill = "#000000" />
    <circle cx="534" cy = "382" r = "5.055" stroke = "#000000" stroke-width = "1" fill = "#000000" />
    <circle cx="534" cy = "367" r = "5.055" stroke = "#000000" stroke-width = "1" fill = "#000000" />
    <circle cx="534" cy = "352" r = "5.055" stroke = "#000000" stroke-width = "1" fill = "#000000" />
    <circle cx="534" cy = "337" r = "5.055" stroke = "#000000" stroke-width = "1" fill = "#000000" />
    <circle cx="534" cy = "322" r = "5.055" stroke = "#000000" stroke-width = "1" fill = "#000000" />
    <circle cx="534" cy = "307" r = "5.055" stroke = "#000000" stroke-width = "1" fill = "#000000" />
    <circle cx="534" cy = "292" r = "5.055" stroke = "#000000" stroke-width = "1" fill = "#000000" />
    <circle cx="534" cy = "276" r = "5.055" stroke = "#000000" stroke-width = "1" fill = "#000000" />
    <circle cx="534" cy = "261" r = "5.055" stroke = "#000000" stroke-width = "1" fill = "#000000" />
    <circle cx="534" cy = "246" r = "5.055" stroke = "#000000" stroke-width = "1" fill = "#000000" />
    <circle cx="534" cy = "231" r = "5.055" stroke = "#000000" stroke-width = "1" fill = "#000000" />
    <circle cx="534" cy = "216" r = "5.055" stroke = "#000000" stroke-width = "1" fill = "#000000" />
    <circle cx="534" cy = "201" r = "5.055" stroke = "#000000" stroke-width = "1" fill = "#000000" />
    <circle cx="534" cy = "185" r = "5.055" stroke = "#000000" stroke-width = "1" fill = "#000000" />
    <circle cx="549" cy = "185" r = "5.055" stroke = "#000000" stroke-width = "1" fill = "#000000" />
    <circle cx="564" cy = "185" r = "5.055" stroke = "#000000" stroke-width = "1" fill = "#000000" />
    <circle cx="580" cy = "185" r = "5.055" stroke = "#000000" stroke-width = "1" fill = "#000000" />
    <circle cx="580" cy = "170" r = "5.055" stroke = "#000000" stroke-width = "1" fill = "#000000" />
    <circle cx="580" cy = "155" r = "5.055" stroke = "#000000" stroke-width = "1" fill = "#000000" />
    <circle cx="580" cy = "140" r = "5.055" stroke = "#000000" stroke-width = "1" fill = "#000000" />
    <circle cx="564" cy = "140" r = "5.055" stroke = "#000000" stroke-width = "1" fill = "#000000" />
    <circle cx="549" cy = "140" r = "5.055" stroke = "#000000" stroke-width = "1" fill = "#000000" />
    <circle cx="534" cy = "140" r = "5.055" stroke = "#000000" stroke-width = "1" fill = "#000000" />
    <circle cx="519" cy = "140" r = "5.055" stroke = "#000000" stroke-width = "1" fill = "#000000" />
    <circle cx="504" cy = "140" r = "5.055" stroke = "#000000" stroke-width = "1" fill = "#000000" />
    <circle cx="489" cy = "140" r = "5.055" stroke = "#000000" stroke-width = "1" fill = "#000000" />
    <circle cx="473" cy = "140" r = "5.055" stroke = "#000000" stroke-width = "1" fill = "#000000" />
    <circle cx="458" cy = "140" r = "5.055" stroke = "#000000" stroke-width = "1" fill = "#000000" />
    <circle cx="443" cy = "140" r = "5.055" stroke = "#000000" stroke-width = "1" fill = "#000000" />
    <circle cx="428" cy = "140" r = "5.055" stroke = "#000000" stroke-width = "1" fill = "#000000" />
    <circle cx="413" cy = "140" r = "5.055" stroke = "#000000" stroke-width = "1" fill = "#000000" />
    <circle cx="398" cy = "140" r = "5.055" stroke = "#000000" stroke-width = "1" fill = "#000000" />
    <circle cx="382" cy = "140" r = "5.055" stroke = "#000000" stroke-width = "1" fill = "#000000" />
    <circle cx="367" cy = "140" r = "5.055" stroke = "#000000" stroke-width = "1" fill = "#000000" />
    <circle cx="352" cy = "140" r = "5.055" stroke = "#000000" stroke-width = "1" fill = "#000000" />
    <circle cx="337" cy = "140" r = "5.055" stroke = "#000000" stroke-width = "1" fill = "#000000" />
    <circle cx="322" cy = "140" r = "5.055" stroke = "#000000" stroke-width = "1" fill = "#000000" />
    <circle cx="307" cy = "140" r = "5.055" stroke = "#000000" stroke-width = "1" fill = "#000000" />
    <circle cx="292" cy = "140" r = "5.055" stroke = "#000000" stroke-width = "1" fill = "#000000" />
    <circle cx="276" cy = "140" r = "5.055" stroke = "#000000" stroke-width = "1" fill = "#000000" />
    <circle cx="261" cy = "140" r = "5.055" stroke = "#000000" stroke-width = "1" fill = "#000000" />
    <circle cx="261" cy = "125" r = "5.055" stroke = "#000000" stroke-width = "1" fill = "#000000" />
    <circle cx="261" cy = "110" r = "5.055" stroke = "#000000" stroke-width = "1" fill = "#000000" />
    <circle cx="276" cy = "94" r = "5.055" stroke = "#000000" stroke-width = "1" fill = "#000000" />
    <circle cx="292" cy = "94" r = "5.055" stroke = "#000000" stroke-width = "1" fill = "#000000" />
    <circle cx="307" cy = "94" r = "5.055" stroke = "#000000" stroke-width = "1" fill = "#000000" />
    <circle cx="322" cy = "94" r = "5.055" stroke = "#000000" stroke-width = "1" fill = "#000000" />
    <circle cx="337" cy = "94" r = "5.055" stroke = "#000000" stroke-width = "1" fill = "#000000" />
    <circle cx="352" cy = "94" r = "5.055" stroke = "#000000" stroke-width = "1" fill = "#000000" />
    <circle cx="367" cy = "94" r = "5.055" stroke = "#000000" stroke-width = "1" fill = "#000000" />
    <circle cx="382" cy = "94" r = "5.055" stroke = "#000000" stroke-width = "1" fill = "#000000" />
    <circle cx="398" cy = "94" r = "5.055" stroke = "#000000" stroke-width = "1" fill = "#000000" />
    <circle cx="413" cy = "94" r = "5.055" stroke = "#000000" stroke-width = "1" fill = "#000000" />
    <circle cx="428" cy = "110" r = "5.055" stroke = "#000000" stroke-width = "1" fill = "#000000" />
    <circle cx="428" cy = "125" r = "5.055" stroke = "#000000" stroke-width = "1" fill = "#000000" />
    <circle cx="246" cy = "140" r = "5.055" stroke = "#000000" stroke-width = "1" fill = "#000000" />
    <circle cx="231" cy = "140" r = "5.055" stroke = "#000000" stroke-width = "1" fill = "#000000" />
    <circle cx="216" cy = "140" r = "5.055" stroke = "#000000" stroke-width = "1" fill = "#000000" />
    <circle cx="201" cy = "140" r = "5.055" stroke = "#000000" stroke-width = "1" fill = "#000000" />
    <circle cx="185" cy = "140" r = "5.055" stroke = "#000000" stroke-width = "1" fill = "#000000" />
    <circle cx="170" cy = "140" r = "5.055" stroke = "#000000" stroke-width = "1" fill = "#000000" />
    <circle cx="155" cy = "140" r = "5.055" stroke = "#000000" stroke-width = "1" fill = "#000000" />
    <circle cx="140" cy = "140" r = "5.055" stroke = "#000000" stroke-width = "1" fill = "#000000" />
    <circle cx="125" cy = "140" r = "5.055" stroke = "#000000" stroke-width = "1" fill = "#000000" />
    <circle cx="110" cy = "140" r = "5.055" stroke = "#000000" stroke-width = "1" fill = "#000000" />
    <circle cx="94" cy = "140" r = "5.055" stroke = "#000000" stroke-width = "1" fill = "#000000" />
    <circle cx="94" cy = "155" r = "5.055" stroke = "#000000" stroke-width = "1" fill = "#000000" />
    <circle cx="94" cy = "170" r = "5.055" stroke = "#000000" stroke-width = "1" fill = "#000000" />
    <circle cx="94" cy = "185" r = "5.055" stroke = "#000000" stroke-width = "1" fill = "#000000" />
    <circle cx="110" cy = "185" r = "5.055" stroke = "#000000" stroke-width = "1" fill = "#000000" />
    <circle cx="125" cy = "185" r = "5.055" stroke = "#000000" stroke-width = "1" fill = "#000000" />
    <circle cx="140" cy = "185" r = "5.055" stroke = "#000000" stroke-width = "1" fill = "#000000" />
    <circle cx="140" cy = "201" r = "5.055" stroke = "#000000" stroke-width = "1" fill = "#000000" />
    <circle cx="140" cy = "216" r = "5.055" stroke = "#000000" stroke-width = "1" fill = "#000000" />
    <circle cx="140" cy = "231" r = "5.055" stroke = "#000000" stroke-width = "1" fill = "#000000" />
    <circle cx="140" cy = "246" r = "5.055" stroke = "#000000" stroke-width = "1" fill = "#000000" />
    <circle cx="140" cy = "261" r = "5.055" stroke = "#000000" stroke-width = "1" fill = "#000000" />
    <circle cx="140" cy = "276" r = "5.055" stroke = "#000000" stroke-width = "1" fill = "#000000" />
    <circle cx="140" cy = "292" r = "5.055" stroke = "#000000" stroke-width = "1" fill = "#000000" />
    <circle cx="140" cy = "307" r = "5.055" stroke = "#000000" stroke-width = "1" fill = "#000000" />
    <circle cx="140" cy = "322" r = "5.055" stroke = "#000000" stroke-width = "1" fill = "#000000" />
    <circle cx="140" cy = "337" r = "5.055" stroke = "#000000" stroke-width = "1" fill = "#000000" />
    <circle cx="140" cy = "352" r = "5.055" stroke = "#000000" stroke-width = "1" fill = "#000000" />
    <circle cx="140" cy = "367" r = "5.055" stroke = "#000000" stroke-width = "1" fill = "#000000" />
    <circle cx="140" cy = "382" r = "5.055" stroke = "#000000" stroke-width = "1" fill = "#000000" />
    <circle cx="140" cy = "398" r = "5.055" stroke = "#000000" stroke-width = "1" fill = "#000000" />
    <circle cx="140" cy = "413" r = "5.055" stroke = "#000000" stroke-width = "1" fill = "#000000" />
    <circle cx="140" cy = "428" r = "5.055" stroke = "#000000" stroke-width = "1" fill = "#000000" />
    <circle cx="140" cy = "443" r = "5.055" stroke = "#000000" stroke-width = "1" fill = "#000000" />
    <circle cx="140" cy = "458" r = "5.055" stroke = "#000000" stroke-width = "1" fill = "#000000" />
    <circle cx="140" cy = "473" r = "5.055" stroke = "#000000" stroke-width = "1" fill = "#000000" />
    <circle cx="140" cy = "489" r = "5.055" stroke = "#000000" stroke-width = "1" fill = "#000000" />
    <circle cx="140" cy = "504" r = "5.055" stroke = "#000000" stroke-width = "1" fill = "#000000" />
    <circle cx="140" cy = "519" r = "5.055" stroke = "#000000" stroke-width = "1" fill = "#000000" />
    <circle cx="140" cy = "534" r = "5.055" stroke = "#000000" stroke-width = "1" fill = "#000000" />
    <circle cx="140" cy = "549" r = "5.055" stroke = "#000000" stroke-width = "1" fill = "#000000" />
    <circle cx="140" cy = "564" r = "5.055" stroke = "#000000" stroke-width = "1" fill = "#000000" />
    <circle cx="140" cy = "580" r = "5.055" stroke = "#000000" stroke-width = "1" fill = "#000000" />
    <circle cx="140" cy = "595" r = "5.055" stroke = "#000000" stroke-width = "1" fill = "#000000" />
    <circle cx="155" cy = "610" r = "5.055" stroke = "#000000" stroke-width = "1" fill = "#000000" />
    <circle cx="170" cy = "625" r = "5.055" stroke = "#000000" stroke-width = "1" fill = "#000000" />
    <circle cx="185" cy = "625" r = "5.055" stroke = "#000000" stroke-width = "1" fill = "#000000" />
    <circle cx="201" cy = "625" r = "5.055" stroke = "#000000" stroke-width = "1" fill = "#000000" />
    <circle cx="216" cy = "625" r = "5.055" stroke = "#000000" stroke-width = "1" fill = "#000000" />
    <circle cx="231" cy = "625" r = "5.055" stroke = "#000000" stroke-width = "1" fill = "#000000" />
    <circle cx="246" cy = "625" r = "5.055" stroke = "#000000" stroke-width = "1" fill = "#000000" />
    <circle cx="261" cy = "625" r = "5.055" stroke = "#000000" stroke-width = "1" fill = "#000000" />
    <circle cx="276" cy = "625" r = "5.055" stroke = "#000000" stroke-width = "1" fill = "#000000" />
    <circle cx="292" cy = "625" r = "5.055" stroke = "#000000" stroke-width = "1" fill = "#000000" />
    <circle cx="307" cy = "625" r = "5.055" stroke = "#000000" stroke-width = "1" fill = "#000000" />
    <circle cx="322" cy = "625" r = "5.055" stroke = "#000000" stroke-width = "1" fill = "#000000" />
    <circle cx="337" cy = "625" r = "5.055" stroke = "#000000" stroke-width = "1" fill = "#000000" />
    <circle cx="428" cy = "534" r = "5.055" stroke = "#000000" stroke-width = "1" fill = "#000000" />
    <circle cx="428" cy = "519" r = "5.055" stroke = "#000000" stroke-width = "1" fill = "#000000" />
    <circle cx="428" cy = "504" r = "5.055" stroke = "#000000" stroke-width = "1" fill = "#000000" />
    <circle cx="428" cy = "489" r = "5.055" stroke = "#000000" stroke-width = "1" fill = "#000000" />
    <circle cx="428" cy = "473" r = "5.055" stroke = "#000000" stroke-width = "1" fill = "#000000" />
    <circle cx="428" cy = "458" r = "5.055" stroke = "#000000" stroke-width = "1" fill = "#000000" />
    <circle cx="428" cy = "443" r = "5.055" stroke = "#000000" stroke-width = "1" fill = "#000000" />
    <circle cx="428" cy = "428" r = "5.055" stroke = "#000000" stroke-width = "1" fill = "#000000" />
    <circle cx="428" cy = "413" r = "5.055" stroke = "#000000" stroke-width = "1" fill = "#000000" />
    <circle cx="428" cy = "398" r = "5.055" stroke = "#000000" stroke-width = "1" fill = "#000000" />
    <circle cx="428" cy = "382" r = "5.055" stroke = "#000000" stroke-width = "1" fill = "#000000" />
    <circle cx="428" cy = "367" r = "5.055" stroke = "#000000" stroke-width = "1" fill = "#000000" />
    <circle cx="428" cy = "352" r = "5.055" stroke = "#000000" stroke-width = "1" fill = "#000000" />
    <circle cx="428" cy = "337" r = "5.055" stroke = "#000000" stroke-width = "1" fill = "#000000" />
    <circle cx="428" cy = "322" r = "5.055" stroke = "#000000" stroke-width = "1" fill = "#000000" />
    <circle cx="428" cy = "307" r = "5.055" stroke = "#000000" stroke-width = "1" fill = "#000000" />
    <circle cx="428" cy = "292" r = "5.055" stroke = "#000000" stroke-width = "1" fill = "#000000" />
    <circle cx="428" cy = "276" r = "5.055" stroke = "#000000" stroke-width = "1" fill = "#000000" />
    <circle cx="428" cy = "261" r = "5.055" stroke = "#000000" stroke-width = "1" fill = "#000000" />
    <circle cx="519" cy = "185" r = "5.055" stroke = "#000000" stroke-width = "1" fill = "#000000" />
    <circle cx="504" cy = "185" r = "5.055" stroke = "#000000" stroke-width = "1" fill = "#000000" />
    <circle cx="489" cy = "185" r = "5.055" stroke = "#000000" stroke-width = "1" fill = "#000000" />
    <circle cx="473" cy = "185" r = "5.055" stroke = "#000000" stroke-width = "1" fill = "#000000" />
    <circle cx="458" cy = "185" r = "5.055" stroke = "#000000" stroke-width = "1" fill = "#000000" />
    <circle cx="443" cy = "185" r = "5.055" stroke = "#000000" stroke-width = "1" fill = "#000000" />
    <circle cx="428" cy = "185" r = "5.055" stroke = "#000000" stroke-width = "1" fill = "#000000" />
    <circle cx="413" cy = "185" r = "5.055" stroke = "#000000" stroke-width = "1" fill = "#000000" />
    <circle cx="398" cy = "185" r = "5.055" stroke = "#000000" stroke-width = "1" fill = "#000000" />
    <circle cx="382" cy = "185" r = "5.055" stroke = "#000000" stroke-width = "1" fill = "#000000" />
    <circle cx="367" cy = "185" r = "5.055" stroke = "#000000" stroke-width = "1" fill = "#000000" />
    <circle cx="352" cy = "185" r = "5.055" stroke = "#000000" stroke-width = "1" fill = "#000000" />
    <circle cx="337" cy = "185" r = "5.055" stroke = "#000000" stroke-width = "1" fill = "#000000" />
    <circle cx="322" cy = "185" r = "5.055" stroke = "#000000" stroke-width = "1" fill = "#000000" />
    <circle cx="307" cy = "185" r = "5.055" stroke = "#000000" stroke-width = "1" fill = "#000000" />
    <circle cx="292" cy = "185" r = "5.055" stroke = "#000000" stroke-width = "1" fill = "#000000" />
    <circle cx="276" cy = "185" r = "5.055" stroke = "#000000" stroke-width = "1" fill = "#000000" />
    <circle cx="261" cy = "185" r = "5.055" stroke = "#000000" stroke-width = "1" fill = "#000000" />
    <circle cx="246" cy = "185" r = "5.055" stroke = "#000000" stroke-width = "1" fill = "#000000" />
    <circle cx="231" cy = "185" r = "5.055" stroke = "#000000" stroke-width = "1" fill = "#000000" />
    <circle cx="216" cy = "185" r = "5.055" stroke = "#000000" stroke-width = "1" fill = "#000000" />
    <circle cx="201" cy = "185" r = "5.055" stroke = "#000000" stroke-width = "1" fill = "#000000" />
    <circle cx="185" cy = "185" r = "5.055" stroke = "#000000" stroke-width = "1" fill = "#000000" />
    <circle cx="170" cy = "185" r = "5.055" stroke = "#000000" stroke-width = "1" fill = "#000000" />
    <circle cx="155" cy = "185" r = "5.055" stroke = "#000000" stroke-width = "1" fill = "#000000" />
    <circle cx="246" cy = "261" r = "5.055" stroke = "#000000" stroke-width = "1" fill = "#000000" />
    <circle cx="246" cy = "276" r = "5.055" stroke = "#000000" stroke-width = "1" fill = "#000000" />
    <circle cx="246" cy = "292" r = "5.055" stroke = "#000000" stroke-width = "1" fill = "#000000" />
    <circle cx="246" cy = "307" r = "5.055" stroke = "#000000" stroke-width = "1" fill = "#000000" />
    <circle cx="246" cy = "322" r = "5.055" stroke = "#000000" stroke-width = "1" fill = "#000000" />
    <circle cx="246" cy = "337" r = "5.055" stroke = "#000000" stroke-width = "1" fill = "#000000" />
    <circle cx="246" cy = "352" r = "5.055" stroke = "#000000" stroke-width = "1" fill = "#000000" />
    <circle cx="246" cy = "367" r = "5.055" stroke = "#000000" stroke-width = "1" fill = "#000000" />
    <circle cx="246" cy = "382" r = "5.055" stroke = "#000000" stroke-width = "1" fill = "#000000" />
    <circle cx="246" cy = "398" r = "5.055" stroke = "#000000" stroke-width = "1" fill = "#000000" />
    <circle cx="246" cy = "413" r = "5.055" stroke = "#000000" stroke-width = "1" fill = "#000000" />
    <circle cx="246" cy = "428" r = "5.055" stroke = "#000000" stroke-width = "1" fill = "#000000" />
    <circle cx="246" cy = "443" r = "5.055" stroke = "#000000" stroke-width = "1" fill = "#000000" />
    <circle cx="246" cy = "458" r = "5.055" stroke = "#000000" stroke-width = "1" fill = "#000000" />
    <circle cx="246" cy = "473" r = "5.055" stroke = "#000000" stroke-width = "1" fill = "#000000" />
    <circle cx="246" cy = "489" r = "5.055" stroke = "#000000" stroke-width = "1" fill = "#000000" />
    <circle cx="246" cy = "504" r = "5.055" stroke = "#000000" stroke-width = "1" fill = "#000000" />
    <circle cx="246" cy = "519" r = "5.055" stroke = "#000000" stroke-width = "1" fill = "#000000" />
    <circle cx="246" cy = "534" r = "5.055" stroke = "#000000" stroke-width = "1" fill = "#000000" />
</svg>