<svg width="600" height="600" viewbox = "0 0 600 600"  xmlns="http://www.w3.org/2000/svg">
<!--<json>{
  "glyph": "0320,0362,0203,0333,0334,0350,0334,0346,0332,0335,0203,0363,0304,0331,0331,0320,0362,0203,0333,0334,0350,0334,0346,0332,0335,0203,0363,0335,0335,0335,0335,0330,0322,0334,0334,0330,0330,0330,0330,0334,0334,0362,0203,0334,0334,0203,0334,0334,0330,0334,0334,0334,0345,0363,0335,0335,0335,0300,0330,0333,0330,0332,0336,0330,0337,0335,0306,0335,0330,0362,0331,0334,0346,0330,0335,0335,0335,0346,0333,0363,",
  "x0": 300,
  "y0": 300,
  "unit": 72.72727272727272,
  "width": 600,
  "height": 600,
  "style": {
    "color0": "black",
    "fill0": "black",
    "line0": 1,
    "color1": "black",
    "fill1": "black",
    "line1": 5,
    "color2": "red",
    "fill2": "red",
    "line2": 1,
    "color3": "#FF7900",
    "fill3": "#FF7900",
    "line3": 1,
    "color4": "yellow",
    "fill4": "yellow",
    "line4": 1,
    "color5": "green",
    "fill5": "green",
    "line5": 1,
    "color6": "blue",
    "fill6": "blue",
    "line6": 1,
    "color7": "purple",
    "fill7": "purple",
    "line7": 1
  },
  "shapes": [
    "0220:0305,0350,0334,0362,0203,0335,0335,0203,0335,0335,0335,0203,0335,0335,0203,0363,0335,0335,0335,0335,",
    "01220:0333,0200,0336,0330,0332,0336,0326,0220,0320,0337,0313,0304,0331,0333,0337,",
    "0221:0305,0350,0350,0334,0362,0203,0335,0335,0203,0335,0335,0335,0335,0335,0335,0335,0335,0203,0335,0335,0203,0363,0335,0335,0335,0335,0335,0335,0335,0335,0335,",
    "01221:0333,0200,0336,0330,0332,0336,0326,0221,0320,0313,0304,0337,0331,0333,0337,",
    "0222:0341,0336,0333,0341,0332,0337,0333,0333,0333,",
    "01222:0333,0200,"
  ]
}</json>-->	<path d = "M300 300 L300 227 M372.72727272727275 300           A72.72727272727272 72.72727272727272 0 0 1 300 227.27272727272728L300 300 Z" stroke = "#000000" stroke-width = "1" fill = "#000000" />	<path d = "M445 300 L373 300 M445.4545454545455 227.2727272727273           A72.72727272727272 72.72727272727272 0 0 1 372.72727272727275 300L445 300 Z" stroke = "#000000" stroke-width = "1" fill = "#000000" />	<path d = "M155 227 L155 300 L227 300 M227.2727272727274 300           A72.72727272727272 72.72727272727272 0 0 1 154.5454545454546 227.27272727272725Z" stroke = "#ff0000" stroke-width = "1" fill = "#ff0000" />	<path d = "M336 181 M336.3636363636364 55.19815245204086           A72.72727272727272 72.72727272727272 0 0 1 336.3636363636364 181.16548391159554M336.3636363636364 181.16548391159554           A72.72727272727272 72.72727272727272 0 0 1 336.3636363636364 55.198152452040866Z" stroke = "#000000" stroke-width = "1" fill = "#000000" /></svg>