<svg width="674" height="674" viewbox = "0 0 674 674"  xmlns="http://www.w3.org/2000/svg">
<!--<json></json>-->	<path d = "M337 496 L324 496 L324 443 L324 390 L350 390 L350 443 L350 496 L337 496 Z" stroke = "#000000" stroke-width = "1" fill = "#000000" />	<path d = "M383 311 L376 299 L422 273 L468 246 L481 269 L435 296 L389 322 L383 311 Z" stroke = "#000000" stroke-width = "1" fill = "#000000" />	<path d = "M520 284 L534 284 L534 337 L534 390 L507 390 L507 337 L507 284 L520 284 Z" stroke = "#000000" stroke-width = "1" fill = "#000000" />	<path d = "M475 470 L481 481 L435 508 L389 534 L376 511 L422 485 L468 458 L475 470 Z" stroke = "#000000" stroke-width = "1" fill = "#000000" />	<path d = "M291 523 L285 534 L239 508 L193 481 L206 458 L252 485 L298 511 L291 523 Z" stroke = "#000000" stroke-width = "1" fill = "#000000" />	<path d = "M154 390 L140 390 L140 337 L140 284 L167 284 L167 337 L167 390 L154 390 Z" stroke = "#000000" stroke-width = "1" fill = "#000000" />	<path d = "M199 258 L206 246 L252 273 L298 299 L285 322 L239 296 L193 269 L199 258 Z" stroke = "#000000" stroke-width = "1" fill = "#000000" />	<path d = "M199 205 L193 194 L239 167 L285 141 L298 164 L252 190 L206 216 L199 205 Z" stroke = "#000000" stroke-width = "1" fill = "#000000" />	<path d = "M383 152 L389 141 L435 167 L481 194 L468 216 L422 190 L376 164 L383 152 Z" stroke = "#000000" stroke-width = "1" fill = "#000000" />    <circle cx="520" cy = "231" r = "13.234161813130717" stroke = "#ff0000" stroke-width = "1" fill = "#ff0000" />
    <circle cx="520" cy = "443" r = "13.234161813130717" stroke = "#0000ff" stroke-width = "1" fill = "#0000ff" />
    <circle cx="337" cy = "549" r = "13.234161813130717" stroke = "#ff0000" stroke-width = "1" fill = "#ff0000" />
    <circle cx="154" cy = "443" r = "13.234161813130717" stroke = "#0000ff" stroke-width = "1" fill = "#0000ff" />
    <circle cx="154" cy = "231" r = "13.234161813130717" stroke = "#ff0000" stroke-width = "1" fill = "#ff0000" />
    <circle cx="337" cy = "126" r = "13.234161813130717" stroke = "#0000ff" stroke-width = "1" fill = "#0000ff" />
    <circle cx="337" cy = "337" r = "13.234161813130717" stroke = "#008000" stroke-width = "1" fill = "#008000" />
	<path d = "M62 179 L62 284 L62 390 L62 496 L154 549 L245 602 L337 655 L429 602 L520 549 L612 496 L612 390 L612 284 L612 179 L520 126 L429 73 L337 20 L245 73 L154 126 L62 179 Z" stroke = "#000000" stroke-width = "1" fill = "none" /></svg>