<svg width="674" height="674" viewbox = "0 0 674 674"  xmlns="http://www.w3.org/2000/svg">
<!--<json></json>-->	<path d = "M337 337 L337 95 L95 95 L95 337 L337 337 Z" stroke = "#000000" stroke-width = "1" fill = "none" />    <line x1="337" y1="337" x2="579" y2="337" style="stroke:#000000;stroke-width:1" />
    <line x1="579" y1="337" x2="458" y2="127" style="stroke:#000000;stroke-width:1" />
    <line x1="458" y1="127" x2="337" y2="337" style="stroke:#000000;stroke-width:1" />
    <line x1="458" y1="127" x2="579" y2="197" style="stroke:#000000;stroke-width:1" />
    <line x1="579" y1="197" x2="579" y2="337" style="stroke:#000000;stroke-width:1" />
    <line x1="458" y1="127" x2="337" y2="57" style="stroke:#000000;stroke-width:1" />
    <line x1="337" y1="57" x2="337" y2="337" style="stroke:#000000;stroke-width:1" />
    <line x1="337" y1="337" x2="383" y2="479" style="stroke:#000000;stroke-width:1" />
    <line x1="383" y1="479" x2="579" y2="337" style="stroke:#000000;stroke-width:1" />
    <line x1="579" y1="337" x2="533" y2="479" style="stroke:#000000;stroke-width:1" />
    <line x1="533" y1="479" x2="383" y2="479" style="stroke:#000000;stroke-width:1" />
    <line x1="337" y1="337" x2="95" y2="579" style="stroke:#000000;stroke-width:1" />
    <line x1="95" y1="579" x2="95" y2="337" style="stroke:#000000;stroke-width:1" />
    <line x1="337" y1="216" x2="95" y2="216" style="stroke:#ff0000;stroke-width:1" />
    <line x1="216" y1="337" x2="216" y2="95" style="stroke:#ff0000;stroke-width:1" />
    <line x1="276" y1="337" x2="276" y2="216" style="stroke:#ff0000;stroke-width:1" />
    <line x1="337" y1="276" x2="216" y2="276" style="stroke:#ff0000;stroke-width:1" />
    <line x1="307" y1="337" x2="307" y2="276" style="stroke:#ff0000;stroke-width:1" />
    <line x1="337" y1="307" x2="276" y2="307" style="stroke:#ff0000;stroke-width:1" />
    <line x1="322" y1="337" x2="322" y2="307" style="stroke:#ff0000;stroke-width:1" />
    <line x1="337" y1="322" x2="307" y2="322" style="stroke:#ff0000;stroke-width:1" />
    <line x1="329" y1="337" x2="329" y2="322" style="stroke:#ff0000;stroke-width:1" />
    <line x1="337" y1="329" x2="322" y2="329" style="stroke:#ff0000;stroke-width:1" />
    <line x1="95" y1="337" x2="216" y2="458" style="stroke:#ff0000;stroke-width:1" />
    <line x1="216" y1="458" x2="95" y2="458" style="stroke:#ff0000;stroke-width:1" />
    <line x1="95" y1="458" x2="155" y2="519" style="stroke:#ff0000;stroke-width:1" />
    <line x1="155" y1="519" x2="95" y2="519" style="stroke:#ff0000;stroke-width:1" />
    <line x1="95" y1="519" x2="125" y2="549" style="stroke:#ff0000;stroke-width:1" />
    <line x1="125" y1="549" x2="95" y2="549" style="stroke:#ff0000;stroke-width:1" />
    <line x1="95" y1="549" x2="110" y2="564" style="stroke:#ff0000;stroke-width:1" />
    <line x1="458" y1="337" x2="519" y2="232" style="stroke:#ff0000;stroke-width:1" />
    <line x1="458" y1="337" x2="398" y2="232" style="stroke:#ff0000;stroke-width:1" />
    <line x1="398" y1="232" x2="519" y2="232" style="stroke:#ff0000;stroke-width:1" />
    <line x1="579" y1="197" x2="499" y2="197" style="stroke:#ff0000;stroke-width:1" />
    <line x1="579" y1="197" x2="539" y2="267" style="stroke:#ff0000;stroke-width:1" />
    <line x1="499" y1="197" x2="539" y2="220" style="stroke:#ff0000;stroke-width:1" />
    <line x1="539" y1="220" x2="539" y2="267" style="stroke:#ff0000;stroke-width:1" />
    <line x1="539" y1="220" x2="525" y2="244" style="stroke:#ff0000;stroke-width:1" />
    <line x1="539" y1="220" x2="512" y2="220" style="stroke:#ff0000;stroke-width:1" />
    <line x1="512" y1="220" x2="525" y2="228" style="stroke:#ff0000;stroke-width:1" />
    <line x1="525" y1="228" x2="525" y2="244" style="stroke:#ff0000;stroke-width:1" />
    <line x1="525" y1="228" x2="516" y2="228" style="stroke:#ff0000;stroke-width:1" />
    <line x1="525" y1="228" x2="521" y2="236" style="stroke:#ff0000;stroke-width:1" />
    <line x1="579" y1="197" x2="519" y2="232" style="stroke:#ff0000;stroke-width:1" />
    <line x1="337" y1="57" x2="418" y2="197" style="stroke:#ff0000;stroke-width:1" />
    <line x1="418" y1="197" x2="337" y2="244" style="stroke:#ff0000;stroke-width:1" />
    <line x1="337" y1="244" x2="364" y2="290" style="stroke:#ff0000;stroke-width:1" />
    <line x1="364" y1="290" x2="337" y2="306" style="stroke:#ff0000;stroke-width:1" />
    <line x1="337" y1="306" x2="346" y2="321" style="stroke:#ff0000;stroke-width:1" />
    <line x1="346" y1="321" x2="337" y2="327" style="stroke:#ff0000;stroke-width:1" />
    <line x1="337" y1="337" x2="458" y2="425" style="stroke:#ff0000;stroke-width:1" />
    <line x1="458" y1="425" x2="430" y2="337" style="stroke:#ff0000;stroke-width:1" />
    <line x1="430" y1="337" x2="504" y2="391" style="stroke:#ff0000;stroke-width:1" />
    <line x1="504" y1="391" x2="487" y2="337" style="stroke:#ff0000;stroke-width:1" />
    <line x1="487" y1="337" x2="533" y2="371" style="stroke:#ff0000;stroke-width:1" />
    <line x1="533" y1="371" x2="522" y2="337" style="stroke:#ff0000;stroke-width:1" />
    <line x1="522" y1="337" x2="551" y2="358" style="stroke:#ff0000;stroke-width:1" />
    <line x1="551" y1="358" x2="544" y2="337" style="stroke:#ff0000;stroke-width:1" />
    <line x1="544" y1="337" x2="562" y2="350" style="stroke:#ff0000;stroke-width:1" />
    <line x1="562" y1="350" x2="557" y2="337" style="stroke:#ff0000;stroke-width:1" />
    <line x1="557" y1="337" x2="568" y2="345" style="stroke:#ff0000;stroke-width:1" />
    <line x1="568" y1="345" x2="566" y2="337" style="stroke:#ff0000;stroke-width:1" />
    <line x1="533" y1="479" x2="504" y2="391" style="stroke:#ff0000;stroke-width:1" />
    <line x1="504" y1="391" x2="562" y2="391" style="stroke:#ff0000;stroke-width:1" />
    <line x1="562" y1="391" x2="551" y2="358" style="stroke:#ff0000;stroke-width:1" />
    <line x1="551" y1="358" x2="573" y2="358" style="stroke:#ff0000;stroke-width:1" />
    <line x1="573" y1="358" x2="568" y2="345" style="stroke:#ff0000;stroke-width:1" />
    <line x1="533" y1="479" x2="458" y2="425" style="stroke:#ff0000;stroke-width:1" />
    <line x1="458" y1="425" x2="440" y2="479" style="stroke:#ff0000;stroke-width:1" />
    <line x1="440" y1="479" x2="412" y2="459" style="stroke:#ff0000;stroke-width:1" />
    <line x1="412" y1="459" x2="405" y2="479" style="stroke:#ff0000;stroke-width:1" />
    <line x1="405" y1="479" x2="394" y2="471" style="stroke:#ff0000;stroke-width:1" />
</svg>