<svg width="500" height="250" viewbox = "0 0 500 250"  xmlns="http://www.w3.org/2000/svg">
<!--<json>{
  "glyph": "0330,0330,0336,0330,0337,0335,0362,0203,0203,0203,0203,0203,0335,0203,0203,0203,0203,0203,0335,0203,0203,0203,0203,0203,0203,0203,0203,0203,0203,0335,0203,0203,0203,0203,0203,0335,0203,0203,0203,0203,0203,0354,0325,0334,0331,0331,0336,0336,0331,0337,0330,0332,0336,0332,0337,0335,0362,0203,0203,0203,0306,0334,0334,0203,0203,0203,0334,0334,0203,0203,0203,0363,0350,0334,0306,0322,0362,0203,0203,0203,0335,0335,0203,0203,0203,0335,0335,0203,0203,0203,0363,0334,0331,0331,0331,0335,0350,0335,0306,0325,0362,0203,0203,0203,0335,0335,0203,0203,0203,0335,0335,0203,0203,0203,0363,0335,0335,0330,0330,0330,0334,0350,0334,0322,0306,0362,0203,0203,0203,0335,0335,0203,0203,0203,0335,0335,0203,0203,0203,0363,0300,0333,0333,0333,0333,0336,0336,0330,0332,0333,0332,0332,0332,0332,0330,0330,0332,0335,0337,0326,0306,0362,0203,0203,0203,0334,0334,0203,0203,0203,0334,0334,0203,0203,0203,0363,0350,0334,0330,0330,0330,0334,0334,0334,0362,0203,0203,0203,0335,0335,0335,0335,0203,0203,0203,0335,0335,0335,0335,0203,0203,0203,0363,0300,0332,0332,0332,0332,0336,0333,0331,0331,0331,0330,0325,0336,0314,0337,0347,0300,0330,0332,0332,0332,0336,0330,0332,0331,0331,0331,0331,0331,0336,0336,0337,0337,0337,0330,0330,0336,0336,0330,0332,0332,0332,0331,0336,0336,0336,0333,0331,0331,0331,0331,0331,0331,0331,0333,0211,0337,0337,0337,0337,0350,0322,0362,0203,0335,0203,0335,0203,0335,0203,0335,0203,0335,0203,0335,0203,0335,0203,0363,0300,0331,0331,0331,0332,0332,0336,0330,0336,0330,0332,061,060,042,0365,0330,0330,0330,0332,0332,0330,0332,0330,0332,0330,0332,0330,0330,0330,0332,0332,0332,0332,0332,065,042,0365,0300,0333,0333,0333,0333,0336,0330,0332,0336,0332,0336,0331,0337,061,056,065,042,0365,",
  "x0": 250,
  "y0": 125,
  "unit": 48,
  "width": 500,
  "height": 250,
  "style": {
    "color0": "#00ff00",
    "fill0": "#00ff00",
    "line0": 1,
    "color1": "black",
    "fill1": "black",
    "line1": 5,
    "color2": "red",
    "fill2": "red",
    "line2": 1,
    "color3": "#FF7900",
    "fill3": "#FF7900",
    "line3": 1,
    "color4": "yellow",
    "fill4": "yellow",
    "line4": 1,
    "color5": "green",
    "fill5": "green",
    "line5": 1,
    "color6": "blue",
    "fill6": "blue",
    "line6": 1,
    "color7": "purple",
    "fill7": "purple",
    "line7": 1
  },
  "shapes": [
    "0220:0306,0362,0203,0334,0334,0203,0334,0334,0203,0363,0334,0334,",
    "01220:0333,0200,0336,0330,0332,0336,0326,0220,0320,0337,0313,0304,0331,0333,0337,",
    "0221:0336,0331,0332,0337,0322,0220,0330,0304,0335,0325,0220,0304,0330,0335,0322,0220,0330,0325,0304,0335,0220,0304,0335,0336,0330,0332,0337,",
    "01221:0333,0200,0336,0330,0332,0336,0326,0221,0320,0313,0304,0337,0331,0333,0337,",
    "0222:0336,0332,",
    "01222:0333,0200,"
  ]
}</json>-->	<path d = "M250 5 L298 5 L346 5 L394 5 L442 5 L490 5 L490 53 L490 101 L490 149 L490 197 L490 245 L442 245 L394 245 L346 245 L298 245 L250 245 L202 245 L154 245 L106 245 L58 245 L10 245 L10 197 L10 149 L10 101 L10 53 L10 5 L58 5 L106 5 L154 5 L202 5 L250 5 Z" stroke = "#00ff00" stroke-width = "1" fill = "none" />	<path d = "M214 89 L238 89 L262 89 L286 89 L274 68 L262 47 L250 27 L238 47 L226 68 L214 89 Z" stroke = "#008000" stroke-width = "1" fill = "#008000" />	<path d = "M214 89 L214 113 L214 137 L214 161 L193 149 L172 137 L152 125 L172 113 L193 101 L214 89 Z" stroke = "#ff0000" stroke-width = "1" fill = "#ff0000" />	<path d = "M214 161 L238 161 L262 161 L286 161 L274 182 L262 203 L250 223 L238 203 L226 182 L214 161 Z" stroke = "#008000" stroke-width = "1" fill = "#008000" />	<path d = "M286 161 L286 137 L286 113 L286 89 L307 101 L328 113 L348 125 L328 137 L307 149 L286 161 Z" stroke = "#ff0000" stroke-width = "1" fill = "#ff0000" />	<path d = "M382 89 L406 89 L430 89 L454 89 L442 68 L430 47 L418 27 L406 47 L394 68 L382 89 Z" stroke = "#0000ff" stroke-width = "1" fill = "#0000ff" />	<path d = "M382 161 L406 161 L430 161 L454 161 L442 182 L430 203 L418 223 L406 203 L394 182 L382 161 Z" stroke = "#0000ff" stroke-width = "1" fill = "#0000ff" />    <circle cx="82" cy = "173" r = "36" stroke = "#008000" stroke-width = "1" fill = "#008000" />
	<path d = "M49 88 L49 60 L68 41 L96 41 L115 60 L115 88 L96 107 L68 107 L49 88 Z" stroke = "#ff0000" stroke-width = "1" fill = "#ff0000" />    <text x="142" y = "233" fill = "#00ff00" font-size = "12px" font-family = "Arial">10"</text>
    <text x="22" y = "125" fill = "#00ff00" font-size = "12px" font-family = "Arial">5"</text>
    <text x="406" y = "107" fill = "#00ff00" font-size = "12px" font-family = "Arial">1.5"</text>
</svg>