<svg width="674" height="674" viewbox = "0 0 674 674"  xmlns="http://www.w3.org/2000/svg">
<!--<json></json>-->	<path d = "M337 337 L337 70 L70 70 L70 337 L337 337 Z" stroke = "#000000" stroke-width = "1" fill = "none" />    <line x1="337" y1="337" x2="604" y2="337" style="stroke:#000000;stroke-width:1" />
    <line x1="604" y1="337" x2="471" y2="105" style="stroke:#000000;stroke-width:1" />
    <line x1="471" y1="105" x2="337" y2="337" style="stroke:#000000;stroke-width:1" />
    <line x1="471" y1="105" x2="604" y2="183" style="stroke:#000000;stroke-width:1" />
    <line x1="604" y1="183" x2="604" y2="337" style="stroke:#000000;stroke-width:1" />
    <line x1="471" y1="105" x2="337" y2="28" style="stroke:#000000;stroke-width:1" />
    <line x1="337" y1="28" x2="337" y2="337" style="stroke:#000000;stroke-width:1" />
    <line x1="337" y1="337" x2="388" y2="494" style="stroke:#000000;stroke-width:1" />
    <line x1="388" y1="494" x2="604" y2="337" style="stroke:#000000;stroke-width:1" />
    <line x1="604" y1="337" x2="553" y2="494" style="stroke:#000000;stroke-width:1" />
    <line x1="553" y1="494" x2="388" y2="494" style="stroke:#000000;stroke-width:1" />
    <line x1="337" y1="337" x2="70" y2="604" style="stroke:#000000;stroke-width:1" />
    <line x1="70" y1="604" x2="70" y2="337" style="stroke:#000000;stroke-width:1" />
    <line x1="337" y1="203" x2="70" y2="203" style="stroke:#ff0000;stroke-width:1" />
    <line x1="203" y1="337" x2="203" y2="70" style="stroke:#ff0000;stroke-width:1" />
    <line x1="270" y1="337" x2="270" y2="203" style="stroke:#ff0000;stroke-width:1" />
    <line x1="337" y1="270" x2="203" y2="270" style="stroke:#ff0000;stroke-width:1" />
    <line x1="304" y1="337" x2="304" y2="270" style="stroke:#ff0000;stroke-width:1" />
    <line x1="337" y1="304" x2="270" y2="304" style="stroke:#ff0000;stroke-width:1" />
    <line x1="320" y1="337" x2="320" y2="304" style="stroke:#ff0000;stroke-width:1" />
    <line x1="337" y1="320" x2="304" y2="320" style="stroke:#ff0000;stroke-width:1" />
    <line x1="329" y1="337" x2="329" y2="320" style="stroke:#ff0000;stroke-width:1" />
    <line x1="337" y1="329" x2="320" y2="329" style="stroke:#ff0000;stroke-width:1" />
    <line x1="70" y1="337" x2="203" y2="471" style="stroke:#ff0000;stroke-width:1" />
    <line x1="203" y1="471" x2="70" y2="471" style="stroke:#ff0000;stroke-width:1" />
    <line x1="70" y1="471" x2="136" y2="538" style="stroke:#ff0000;stroke-width:1" />
    <line x1="136" y1="538" x2="70" y2="538" style="stroke:#ff0000;stroke-width:1" />
    <line x1="70" y1="538" x2="103" y2="571" style="stroke:#ff0000;stroke-width:1" />
    <line x1="103" y1="571" x2="70" y2="571" style="stroke:#ff0000;stroke-width:1" />
    <line x1="70" y1="571" x2="86" y2="588" style="stroke:#ff0000;stroke-width:1" />
    <line x1="471" y1="337" x2="538" y2="221" style="stroke:#ff0000;stroke-width:1" />
    <line x1="471" y1="337" x2="404" y2="221" style="stroke:#ff0000;stroke-width:1" />
    <line x1="404" y1="221" x2="538" y2="221" style="stroke:#ff0000;stroke-width:1" />
    <line x1="604" y1="183" x2="515" y2="183" style="stroke:#ff0000;stroke-width:1" />
    <line x1="604" y1="183" x2="560" y2="260" style="stroke:#ff0000;stroke-width:1" />
    <line x1="515" y1="183" x2="560" y2="208" style="stroke:#ff0000;stroke-width:1" />
    <line x1="560" y1="208" x2="560" y2="260" style="stroke:#ff0000;stroke-width:1" />
    <line x1="560" y1="208" x2="545" y2="234" style="stroke:#ff0000;stroke-width:1" />
    <line x1="560" y1="208" x2="530" y2="208" style="stroke:#ff0000;stroke-width:1" />
    <line x1="530" y1="208" x2="545" y2="217" style="stroke:#ff0000;stroke-width:1" />
    <line x1="545" y1="217" x2="545" y2="234" style="stroke:#ff0000;stroke-width:1" />
    <line x1="545" y1="217" x2="535" y2="217" style="stroke:#ff0000;stroke-width:1" />
    <line x1="545" y1="217" x2="540" y2="226" style="stroke:#ff0000;stroke-width:1" />
    <line x1="604" y1="183" x2="538" y2="221" style="stroke:#ff0000;stroke-width:1" />
    <line x1="337" y1="28" x2="426" y2="183" style="stroke:#ff0000;stroke-width:1" />
    <line x1="426" y1="183" x2="337" y2="234" style="stroke:#ff0000;stroke-width:1" />
    <line x1="337" y1="234" x2="367" y2="286" style="stroke:#ff0000;stroke-width:1" />
    <line x1="367" y1="286" x2="337" y2="303" style="stroke:#ff0000;stroke-width:1" />
    <line x1="337" y1="303" x2="347" y2="320" style="stroke:#ff0000;stroke-width:1" />
    <line x1="347" y1="320" x2="337" y2="326" style="stroke:#ff0000;stroke-width:1" />
    <line x1="337" y1="337" x2="471" y2="434" style="stroke:#ff0000;stroke-width:1" />
    <line x1="471" y1="434" x2="439" y2="337" style="stroke:#ff0000;stroke-width:1" />
    <line x1="439" y1="337" x2="522" y2="397" style="stroke:#ff0000;stroke-width:1" />
    <line x1="522" y1="397" x2="502" y2="337" style="stroke:#ff0000;stroke-width:1" />
    <line x1="502" y1="337" x2="553" y2="374" style="stroke:#ff0000;stroke-width:1" />
    <line x1="553" y1="374" x2="541" y2="337" style="stroke:#ff0000;stroke-width:1" />
    <line x1="541" y1="337" x2="573" y2="360" style="stroke:#ff0000;stroke-width:1" />
    <line x1="573" y1="360" x2="565" y2="337" style="stroke:#ff0000;stroke-width:1" />
    <line x1="565" y1="337" x2="585" y2="351" style="stroke:#ff0000;stroke-width:1" />
    <line x1="585" y1="351" x2="580" y2="337" style="stroke:#ff0000;stroke-width:1" />
    <line x1="580" y1="337" x2="592" y2="346" style="stroke:#ff0000;stroke-width:1" />
    <line x1="592" y1="346" x2="589" y2="337" style="stroke:#ff0000;stroke-width:1" />
    <line x1="553" y1="494" x2="522" y2="397" style="stroke:#ff0000;stroke-width:1" />
    <line x1="522" y1="397" x2="585" y2="397" style="stroke:#ff0000;stroke-width:1" />
    <line x1="585" y1="397" x2="573" y2="360" style="stroke:#ff0000;stroke-width:1" />
    <line x1="573" y1="360" x2="597" y2="360" style="stroke:#ff0000;stroke-width:1" />
    <line x1="597" y1="360" x2="592" y2="346" style="stroke:#ff0000;stroke-width:1" />
    <line x1="553" y1="494" x2="471" y2="434" style="stroke:#ff0000;stroke-width:1" />
    <line x1="471" y1="434" x2="451" y2="494" style="stroke:#ff0000;stroke-width:1" />
    <line x1="451" y1="494" x2="420" y2="471" style="stroke:#ff0000;stroke-width:1" />
    <line x1="420" y1="471" x2="412" y2="494" style="stroke:#ff0000;stroke-width:1" />
    <line x1="412" y1="494" x2="400" y2="485" style="stroke:#ff0000;stroke-width:1" />
</svg>