<svg width="674" height="674" viewbox = "0 0 674 674"  xmlns="http://www.w3.org/2000/svg">
<!--<json></json>-->	<path d = "M306 256 L301 252 L301 247 L301 243 L301 238 L306 238 L306 243 L306 247 L306 252 L310 252 L312 252 L312 247 L317 247 L317 252 L321 252 L324 252 L324 247 L324 243 L324 238 L328 238 L328 243 L328 247 L328 252 L324 256 L319 256 L315 256 L310 256 L306 256 Z" stroke = "#000000" stroke-width = "1" fill = "none" />	<path d = "M341 256 L337 252 L337 247 L337 243 L337 238 L341 238 L341 243 L341 247 L341 252 L346 252 L348 252 L348 247 L353 247 L353 252 L357 252 L359 252 L359 247 L359 243 L359 238 L364 238 L364 243 L364 247 L364 252 L359 256 L355 256 L350 256 L346 256 L341 256 Z" stroke = "#000000" stroke-width = "1" fill = "none" />	<path d = "M377 256 L373 252 L373 247 L373 243 L373 238 L377 238 L377 243 L377 247 L377 252 L382 252 L384 252 L384 247 L389 247 L389 252 L393 252 L395 252 L395 247 L395 243 L395 238 L400 238 L400 243 L400 247 L400 252 L395 256 L391 256 L386 256 L382 256 L377 256 Z" stroke = "#000000" stroke-width = "1" fill = "none" />	<path d = "M425 256 L425 252 L420 252 L420 256 L425 256 Z" stroke = "#000000" stroke-width = "1" fill = "none" />	<path d = "M202 337 L202 333 L202 328 L202 324 L202 319 L207 319 L207 321 L209 319 L211 319 L213 321 L216 321 L218 321 L220 319 L222 319 L225 319 L227 319 L229 321 L229 324 L229 326 L229 328 L229 330 L229 333 L229 335 L229 337 L225 337 L225 333 L225 328 L225 324 L220 324 L218 326 L218 330 L218 335 L218 337 L216 337 L213 337 L213 335 L213 333 L213 330 L213 328 L213 326 L211 324 L209 324 L207 326 L207 330 L207 335 L207 337 L202 337 Z" stroke = "#000000" stroke-width = "1" fill = "none" />	<path d = "M243 337 L238 333 L238 328 L243 324 L247 324 L247 328 L243 328 L243 333 L247 333 L247 337 L243 337 Z" stroke = "#000000" stroke-width = "1" fill = "none" />	<path d = "M265 337 L261 337 L261 335 L258 337 L256 337 L254 337 L252 337 L252 333 L256 333 L261 328 L256 328 L252 328 L252 324 L256 324 L261 324 L261 319 L261 315 L256 315 L252 315 L252 310 L256 310 L261 310 L265 310 L265 315 L265 319 L265 324 L265 328 L265 333 L265 337 " stroke = "#000000" stroke-width = "1" fill = "none" />	<path d = "M247 315 L247 310 L243 310 L238 315 L243 315 L247 315 " stroke = "#000000" stroke-width = "1" fill = "none" />	<path d = "M274 359 L274 355 L274 350 L274 346 L274 341 L274 337 L274 333 L274 328 L274 324 L274 319 L274 315 L279 315 L279 319 L279 324 L279 328 L279 333 L279 337 L279 341 L279 346 L279 350 L279 355 L279 359 L274 359 Z" stroke = "#000000" stroke-width = "1" fill = "none" />	<path d = "M283 337 L283 333 L288 333 L292 333 L297 333 L297 328 L297 324 L297 319 L292 319 L288 319 L283 319 L283 315 L288 315 L292 315 L297 315 L301 319 L301 324 L301 328 L301 333 L297 337 L292 337 L288 337 L283 337 Z" stroke = "#000000" stroke-width = "1" fill = "none" />	<path d = "M326 337 L321 337 L321 333 L321 328 L321 324 L321 319 L321 315 L321 310 L321 306 L321 301 L319 303 L319 301 L319 299 L321 297 L324 297 L326 297 L326 299 L326 301 L326 303 L326 306 L326 308 L326 310 L326 312 L326 315 L326 317 L326 319 L326 321 L326 324 L326 326 L326 328 L326 330 L326 333 L328 330 L328 333 L328 335 L326 337 Z" stroke = "#000000" stroke-width = "1" fill = "none" />	<path d = "M350 337 L346 333 L346 328 L346 324 L346 319 L350 315 L355 315 L357 315 L357 319 L353 319 L350 319 L350 324 L355 324 L357 324 L357 328 L353 328 L350 328 L350 333 L355 333 L357 333 L357 337 L355 337 L350 337 Z" stroke = "#000000" stroke-width = "1" fill = "none" />	<path d = "M362 337 L362 333 L366 333 L371 333 L373 333 L368 337 L364 337 L362 337 Z" stroke = "#000000" stroke-width = "1" fill = "none" />	<path d = "M362 328 L362 324 L366 324 L368 324 L368 319 L364 319 L362 319 L362 315 L366 315 L368 315 L373 319 L373 324 L368 328 L364 328 L362 328 Z" stroke = "#000000" stroke-width = "1" fill = "none" />	<path d = "M398 337 L393 337 L393 333 L393 328 L393 324 L393 319 L393 315 L393 310 L393 306 L393 301 L391 303 L391 301 L391 299 L393 297 L395 297 L398 297 L398 299 L398 301 L398 303 L398 306 L398 308 L398 310 L398 312 L398 315 L398 317 L398 319 L398 321 L398 324 L398 326 L398 328 L398 330 L398 333 L400 330 L400 333 L400 335 L398 337 Z" stroke = "#000000" stroke-width = "1" fill = "none" />	<path d = "M422 337 L418 333 L418 328 L422 324 L427 324 L427 328 L422 328 L422 333 L427 333 L427 337 L422 337 Z" stroke = "#000000" stroke-width = "1" fill = "none" />	<path d = "M445 337 L440 337 L440 335 L438 337 L436 337 L434 337 L431 337 L431 333 L436 333 L440 328 L436 328 L431 328 L431 324 L436 324 L440 324 L440 319 L440 315 L436 315 L431 315 L431 310 L436 310 L440 310 L445 310 L445 315 L445 319 L445 324 L445 328 L445 333 L445 337 " stroke = "#000000" stroke-width = "1" fill = "none" />	<path d = "M427 315 L427 310 L422 310 L418 315 L422 315 L427 315 " stroke = "#000000" stroke-width = "1" fill = "none" />	<path d = "M458 337 L454 333 L454 328 L454 324 L454 319 L458 319 L458 324 L458 328 L458 333 L463 333 L465 333 L465 328 L470 328 L470 333 L474 333 L476 333 L476 328 L476 324 L476 319 L481 319 L481 324 L481 328 L481 333 L476 337 L472 337 L467 337 L463 337 L458 337 Z" stroke = "#000000" stroke-width = "1" fill = "none" />	<path d = "M494 337 L494 333 L494 328 L494 324 L494 319 L494 315 L499 315 L499 319 L503 315 L508 315 L512 315 L517 319 L517 324 L517 328 L517 333 L517 337 L512 337 L512 333 L512 328 L512 324 L508 319 L503 319 L499 324 L499 328 L499 333 L499 337 L494 337 Z" stroke = "#000000" stroke-width = "1" fill = "none" />	<path d = "M299 418 L299 413 L294 413 L294 418 L299 418 Z" stroke = "#000000" stroke-width = "1" fill = "none" />	<path d = "M324 418 L324 413 L324 409 L324 404 L324 400 L324 395 L328 395 L328 400 L333 395 L337 395 L341 395 L346 400 L346 404 L346 409 L346 413 L346 418 L341 418 L341 413 L341 409 L341 404 L337 400 L333 400 L328 404 L328 409 L328 413 L328 418 L324 418 Z" stroke = "#000000" stroke-width = "1" fill = "none" />	<path d = "M359 418 L355 413 L355 409 L355 404 L355 400 L359 395 L364 395 L366 395 L366 400 L362 400 L359 400 L359 404 L364 404 L366 404 L366 409 L362 409 L359 409 L359 413 L364 413 L366 413 L366 418 L364 418 L359 418 Z" stroke = "#000000" stroke-width = "1" fill = "none" />	<path d = "M371 418 L371 413 L375 413 L380 413 L382 413 L377 418 L373 418 L371 418 Z" stroke = "#000000" stroke-width = "1" fill = "none" />	<path d = "M371 409 L371 404 L375 404 L377 404 L377 400 L373 400 L371 400 L371 395 L375 395 L377 395 L382 400 L382 404 L377 409 L373 409 L371 409 Z" stroke = "#000000" stroke-width = "1" fill = "none" />	<path d = "M402 418 L402 413 L402 409 L398 409 L398 404 L402 404 L402 400 L402 395 L407 395 L407 400 L407 404 L411 404 L411 409 L407 409 L407 413 L407 418 L407 422 L407 427 L411 427 L416 422 L418 422 L418 425 L416 427 L413 429 L411 431 L409 431 L407 431 L404 431 L402 431 L402 429 L402 427 L402 425 L402 422 L402 420 L402 418 Z" stroke = "#000000" stroke-width = "1" fill = "none" /></svg>