<svg width="250" height="250" viewbox = "0 0 250 250"  xmlns="http://www.w3.org/2000/svg">
<!--<json></json>-->	<path d = "M5 215 L5 185 L5 155 L5 125 L5 95 L5 65 L5 35 " stroke = "#000000" stroke-width = "5" fill = "none" />  <path d="M5.000000000000007 34.99999999999999           A30 30 0 0 1 35.00000000000001 5" fill = "none" stroke = "#000000" stroke-width = "5" />
	<path d = "M35 5 L65 5 L95 5 L125 5 L155 5 L185 5 L215 5 " stroke = "#000000" stroke-width = "5" fill = "none" />  <path d="M215 5           A30 30 0 0 1 245 35" fill = "none" stroke = "#000000" stroke-width = "5" />
	<path d = "M245 35 L245 65 L245 95 L245 125 L245 155 L245 185 L245 215 " stroke = "#000000" stroke-width = "5" fill = "none" />  <path d="M245 215           A30 30 0 0 1 215 245" fill = "none" stroke = "#000000" stroke-width = "5" />
	<path d = "M215 245 L185 245 L155 245 L125 245 L95 245 L65 245 L35 245 " stroke = "#000000" stroke-width = "5" fill = "none" />  <path d="M34.99999999999999 245           A30 30 0 0 1 4.999999999999993 215" fill = "none" stroke = "#000000" stroke-width = "5" />
	<path d = "M125 125 L155 125 L155 155 L155 185 L185 185 L155 215 L125 245 L95 215 L65 185 L95 185 L95 155 L95 125 L125 125 Z" stroke = "#000000" stroke-width = "5" fill = "none" />	<path d = "M65 215 L35 215 L35 185 L35 155 L35 125 L35 95 L35 65 L35 35 L65 35 L95 35 L125 35 L155 35 L185 35 L215 35 L215 65 L215 95 L215 125 L215 155 L215 185 L215 215 L185 215 " stroke = "#000000" stroke-width = "5" fill = "none" /></svg>