<svg width="300" height="300" viewbox = "0 0 300 300"  xmlns="http://www.w3.org/2000/svg">
<!--<json>{
  "glyph": "0336,0336,0321,0334,0362,0203,0335,0203,0350,0334,0310,0337,0203,0335,0336,0203,0335,0335,0203,0203,0203,0203,0335,0335,0203,0335,0337,0203,0334,0336,0203,0335,0335,0203,0354,0335,0335,0304,0313,0330,0320,0336,0330,0333,0337,0222,0331,0331,0336,0330,0332,0337,0331,0331,0321,0331,0332,0332,0332,0332,0330,0336,0331,0333,0337,0337,0200,0336,0336,0336,0333,0337,0337,0337,0333,0200,0336,0336,0336,0333,0337,0337,0337,0333,0200,0336,0336,0336,0333,0337,0337,0337,0333,0200,0336,0336,0336,0333,0337,0337,0337,0333,0200,0332,0332,0320,0336,0336,0332,0332,0336,0333,0333,0337,0337,0337,0336,0336,0330,0332,0337,0222,0333,0336,0336,0333,0337,0337,0333,0222,0333,0336,0336,0333,0337,0337,0333,0222,0331,0331,0332,0332,0332,0332,0332,0332,0332,0332,0332,0332,0336,0333,0337,0210,0164,0162,0141,0163,0150,040,0162,0157,0142,0157,0164,040,0157,0160,0145,0162,0141,0164,0157,0162,0365,0331,0331,0332,0336,0332,0337,0223,0223,0223,0223,0223,0223,0223,0330,0330,0330,0330,0330,0330,0330,0330,0330,0326,0330,0330,0336,0336,0333,0337,0337,0332,0330,0337,0362,0203,0334,0203,0203,0203,0203,0203,0203,0203,0334,0203,0334,0203,0203,0203,0203,0203,0203,0203,0363,",
  "robotglyph": "0400,0401,0407,0500,0501,0400,0401,0407,0500,0501,0400,0401,0407,0500,0501,0400,0401,0407,0500,0501,0400,0401,0407,0500,0501,0400,0401,0407,0500,0501,",
  "shapes": [
    "0220:0304,0313,0336,0336,0330,0337,0350,0362,0203,0310,0335,0335,0335,0336,0203,0335,0335,0203,0363,0335,0335,0335,0337,0313,0304,0336,0331,0337,0337,",
    "0221:0321,0341,0350,0350,0334,0336,0330,0334,0334,0334,0334,0334,0334,0337,0337,0330,0335,0335,0335,0335,0335,0335,0335,0335,0362,0203,0335,0335,0335,0335,0335,0335,0336,0203,0334,0334,0334,0334,0334,0334,0337,0203,0364,0335,0335,0335,0335,0335,0335,0335,0336,0336,0330,0335,0335,0335,0335,0335,0335,0335,0335,0362,0203,0334,0334,0334,0334,0334,0334,0203,0364,0331,0334,0337,0337,0330,0335,0335,0335,0335,0335,0335,0336,0336,0330,0335,0304,0337,",
    "0222:0304,0334,0306,0362,0203,0335,0335,0203,0335,0335,0203,0354,0335,0335,0336,0330,0335,0201,0335,0335,0201,0335,0335,0201,0335,0331,0337,0304,0335,",
    "0223:0304,0313,0320,0362,0203,0335,0203,0335,0350,0335,0310,0337,0203,0363,0324,0334,0334,0334,0336,0362,0203,0334,0337,0203,0334,0334,0334,0336,0203,0334,0337,0203,0363,0334,0334,0334,0336,0330,0320,0334,0337,0362,0203,0335,0335,0335,0336,0203,0335,0335,0203,0363,0331,0335,0335,0313,0304,",
    "0224:0304,0362,0203,0334,0312,0336,0203,0334,0306,0350,0334,0313,0337,0203,0354,0334,0334,0334,0334,0334,0334,0330,0335,0335,0335,0335,0335,0312,0336,0201,0334,0334,0334,0334,0334,0336,0201,0335,0335,0335,0335,0335,0336,0201,0334,0334,0334,0334,0334,0336,0201,0335,0335,0335,0335,0335,0336,0201,0331,0335,0337,0330,0334,0337,0331,0335,0337,0330,0334,0337,0331,0335,0337,0330,0334,0334,0334,0334,0334,0313,0336,0312,0337,0304,0313,0306,0350,0335,0312,0336,0362,0203,0334,0334,0203,0364,0331,0334,0336,0342,0334,0334,0342,0330,0335,0335,0335,0335,0335,0336,0201,0334,0334,0201,0331,0334,0336,0342,0334,0334,0342,0330,0335,0335,0335,0335,0335,0336,0201,0334,0334,0201,0335,0337,0330,0334,0337,0331,0335,0335,0331,0335,0337,0330,0335,0304,0335,0335,0313,0336,0312,0337,0342,0330,0335,0312,0337,0331,0313,0337,0313,0304,",
    "0225:",
    "0226:0304,0334,0305,0311,0350,0324,0362,0203,0335,0335,0335,0337,0203,0335,0335,0335,0335,0203,0335,0363,0322,0335,0335,0335,0336,0362,0203,0335,0335,0335,0336,0335,0203,0335,0335,0203,0363,0331,0335,0335,0335,0335,0362,0203,0335,0335,0335,0335,0336,0203,0335,0335,0203,0363,0331,0335,0335,0335,0335,0362,0203,0335,0335,0335,0335,0336,0203,0335,0335,0203,0363,0331,0337,0331,0335,0337,0337,0337,0320,0362,0203,0334,0334,0334,0336,0203,0334,0334,0334,0337,0203,0354,0331,0336,0334,0201,0335,0335,0335,0335,0336,0201,0334,0334,0334,0334,0201,0335,0335,0335,0335,0336,0201,0334,0334,0334,0334,0201,0335,0335,0335,0335,0336,0201,0334,0334,0334,0337,0330,0337,0337,0337,0331,0334,0334,0304,0336,0335,0313,0304,",
    "0227:0305,0311,0350,0324,0362,0203,0335,0335,0335,0335,0337,0203,0335,0335,0335,0335,0336,0203,0363,0322,0335,0335,0335,0336,0335,0362,0203,0335,0335,0335,0335,0336,0203,0335,0335,0203,0363,0331,0335,0335,0335,0335,0362,0203,0335,0335,0335,0335,0336,0203,0335,0335,0203,0363,0331,0335,0335,0335,0335,0362,0203,0335,0335,0335,0335,0336,0203,0335,0335,0203,0363,0331,0337,0331,0337,0337,0337,0320,0362,0203,0335,0335,0203,0335,0335,0335,0335,0337,0203,0354,0336,0336,0336,0336,0331,0335,0335,0336,0342,0335,0337,0201,0335,0335,0335,0335,0201,0334,0334,0334,0334,0337,0201,0335,0335,0335,0335,0201,0334,0334,0334,0334,0337,0201,0335,0335,0335,0337,0313,0304,",
    "0230:0305,0362,0203,0335,0335,0203,0335,0335,0203,0335,0335,0203,0335,0335,0203,0354,0311,0335,0335,0336,0336,0330,0350,0335,0305,0350,",
    "0231:0305,0350,0334,0331,0337,0337,",
    "0232:0336,0332,0330,0337,0335,0322,0230,0323,0230,0324,0230,0325,0230,0326,0230,0327,0230,0231,0231,0231,0231,0231,0231,",
    "0233:0306,0350,0335,0312,0337,0201,0335,0335,0335,0335,0201,0335,0335,0335,0335,0201,0335,0335,0335,0336,0330,0335,0335,0335,0337,0201,0335,0335,0335,0335,0201,0335,0335,0335,0335,0201,0336,0336,0331,0335,0335,",
    "0234:0331,0334,0337,",
    "0235:0322,0233,0323,0233,0324,0233,0325,0233,0326,0233,0327,0233,0234,0234,0234,0234,0234,0234,",
    "0236:0304,0313,0334,0331,0337,0306,0322,0362,0203,0335,0335,0203,0335,0335,0203,0363,0335,0335,0312,0323,0350,0335,0312,0336,0362,0203,0334,0334,0203,0334,0334,0334,0334,0334,0337,0203,0363,0335,0336,0331,0335,0324,0336,0362,0203,0335,0335,0335,0335,0203,0335,0335,0335,0335,0203,0363,0334,0334,0331,0325,0336,0334,0362,0203,0334,0334,0203,0334,0334,0334,0334,0334,0337,0203,0363,0334,0334,0334,0334,0334,0336,0330,0334,0334,0334,0326,0336,0362,0203,0334,0334,0334,0334,0203,0334,0334,0334,0334,0203,0363,0335,0335,0331,0336,0327,0362,0335,0203,0335,0335,0203,0335,0335,0335,0335,0335,0337,0203,0363,0334,0336,0331,0320,0342,0334,0334,0334,0334,0342,0330,0335,0337,0331,0342,0335,0335,0342,0335,0337,0342,0334,0334,0334,0334,0342,0330,0335,0337,0331,0342,0335,0335,0342,0337,0335,0342,0334,0334,0334,0334,0342,0335,0335,0335,0335,0330,0335,0335,0335,0335,0335,0337,0362,0203,0335,0335,0335,0335,0203,0335,0335,0335,0335,0203,0354,0304,0313,0335,0336,0333,",
    "0237:01304,01305,01306,",
    "0240:",
    "0241:01350,01351,01352,01353,",
    "0242:01310,01311,01312,01313,01314,01316,",
    "0243:0530,",
    "0244:0531,",
    "0245:0532,",
    "0246:0533,",
    "0247:",
    "01220:0333,0200,0336,0330,0332,0336,0331,0337,0220,0336,0331,0337,0333,0337,",
    "01221:0333,0200,0336,0330,0332,0336,0331,0333,0337,0221,0313,0304,0336,0331,0333,0337,0337,",
    "01222:0333,0200,0336,0330,0332,0336,0333,0331,0337,0222,0336,0333,0331,0337,0337,",
    "01223:0333,0200,0336,0330,0336,0331,0332,0332,0337,0223,0336,0331,0333,0333,0337,0337,",
    "01224:0333,0200,0336,0336,0330,0332,0337,0224,0336,0331,0333,0337,0337,",
    "01225:0333,0200,0336,0330,0332,0336,0331,0333,0337,0225,0336,0333,0331,0337,0337,",
    "01226:0333,0200,0336,0336,0330,0332,0337,0226,0336,0333,0331,0337,0337,",
    "01227:0333,0200,0336,0330,0332,0336,0332,0337,0227,0333,0336,0333,0337,0331,0337,",
    "01230:0333,0200,0336,0330,0332,0334,0336,0331,0337,0230,0230,0230,0231,0231,0231,0304,0313,0336,0335,0333,0337,0331,0337,",
    "01231:0333,0200,0336,0330,0332,0334,0336,0331,0337,0230,0231,0313,0304,0335,0336,0332,0336,0330,0334,0337,0240,0335,0336,0331,0337,0337,0333,0331,0337,",
    "01232:0333,0200,0336,0330,0332,0232,0313,0304,0334,0336,0333,0331,0331,0331,0333,0333,0337,0337,0320,",
    "01233:0333,0200,0336,0330,0332,0336,0332,0233,0234,0313,0304,0332,0337,0331,0337,0333,",
    "01234:0333,0200,0336,0330,0332,0336,0332,0233,0234,0313,0304,0336,0330,0334,0331,0337,0240,0335,0336,0332,0331,0337,0332,0337,0331,0337,0333,",
    "01235:0333,0200,0336,0330,0332,0336,0331,0333,0337,0332,0336,0330,0235,0313,0304,0320,0332,0337,0331,0337,0333,",
    "01236:0333,0200,0336,0330,0332,0336,0331,0337,0210,0236,0211,0336,0331,0337,0333,0337,",
    "01237:0333,0200,0336,0330,0332,0336,0332,0336,0332,0337,0237,0336,0333,0337,0337,0331,0337,",
    "01240:0333,0200,0336,0330,0332,0336,0331,0337,0240,0336,0331,0337,0333,0337,",
    "01241:0333,0200,0336,0330,0332,0336,0332,0332,0241,0331,0331,0337,0337,",
    "01242:0333,0200,0336,0332,0332,0336,0330,0330,0336,0333,0242,0333,0337,0337,0331,0337,",
    "01243:01530,",
    "01244:01531,",
    "01245:01532,",
    "01246:01533,",
    "01247:0333,0200,0336,0330,0332,0337,0247,0336,0333,0331,0337,"
  ],
  "x0rel": 0.5,
  "y0rel": 0.5,
  "unitrel": 0.35,
  "theta0": -1.570796,
  "width": 300,
  "height": 300,
  "scale": 1,
  "backgroundimage": "",
  "style": {
    "color0": "black",
    "fill0": "black",
    "line0": 1,
    "color1": "black",
    "fill1": "black",
    "line1": 5,
    "color2": "red",
    "fill2": "red",
    "line2": 5,
    "color3": "#FF7900",
    "fill3": "#FF7900",
    "line3": 1,
    "color4": "yellow",
    "fill4": "yellow",
    "line4": 1,
    "color5": "green",
    "fill5": "green",
    "line5": 1,
    "color6": "blue",
    "fill6": "blue",
    "line6": 8,
    "color7": "purple",
    "fill7": "purple",
    "line7": 1
  },
  "controlbuttons": [
    196,
    198,
    200,
    203,
    128,
    216,
    217,
    218,
    219,
    220,
    221,
    222,
    223,
    27,
    8,
    225,
    192,
    16,
    17,
    144,
    145,
    146,
    147,
    148,
    149,
    150,
    151,
    152,
    153,
    154,
    155,
    156,
    157,
    158,
    159,
    160,
    161,
    162,
    136,
    137
  ],
  "robotactions": "0400,0401,0402,0403,0404,0405,0406,0407,0500,0501,0510,0511,0512,0513,0514,0515"
}</json>-->	<path d = "M150 150 L124 150 L124 124 L98 97 L98 71 L124 71 L150 71 L176 71 L203 71 L203 98 L176 124 L176 150 L150 150 Z" stroke = "#000000" stroke-width = "5" fill = "none" />	<path d = "M163 111 L137 111 L150 88 L163 111 Z" stroke = "#000000" stroke-width = "1" fill = "none" />    <line x1="150" y1="111" x2="143" y2="99" style="stroke:#000000;stroke-width:1" />
    <line x1="143" y1="99" x2="157" y2="99" style="stroke:#000000;stroke-width:1" />
    <line x1="157" y1="99" x2="150" y2="111" style="stroke:#000000;stroke-width:1" />
	<path d = "M58 216 L58 163 L6 163 L6 216 L58 216 Z" stroke = "#000000" stroke-width = "5" fill = "none" />	<path d = "M117 216 L117 163 L65 163 L65 216 L117 216 Z" stroke = "#000000" stroke-width = "5" fill = "none" />	<path d = "M176 216 L176 163 L124 163 L124 216 L176 216 Z" stroke = "#000000" stroke-width = "5" fill = "none" />	<path d = "M235 216 L235 163 L183 163 L183 216 L235 216 Z" stroke = "#000000" stroke-width = "5" fill = "none" />	<path d = "M294 216 L294 163 L242 163 L242 216 L294 216 Z" stroke = "#000000" stroke-width = "5" fill = "none" />	<path d = "M163 203 L137 202 L150 180 L163 203 Z" stroke = "#000000" stroke-width = "1" fill = "none" />    <line x1="150" y1="202" x2="143" y2="191" style="stroke:#000000;stroke-width:1" />
    <line x1="143" y1="191" x2="157" y2="191" style="stroke:#000000;stroke-width:1" />
    <line x1="157" y1="191" x2="150" y2="202" style="stroke:#000000;stroke-width:1" />
	<path d = "M222 203 L196 203 L209 180 L222 203 Z" stroke = "#000000" stroke-width = "1" fill = "none" />    <line x1="209" y1="203" x2="202" y2="191" style="stroke:#000000;stroke-width:1" />
    <line x1="202" y1="191" x2="216" y2="191" style="stroke:#000000;stroke-width:1" />
    <line x1="216" y1="191" x2="209" y2="203" style="stroke:#000000;stroke-width:1" />
	<path d = "M281 203 L255 203 L268 180 L281 203 Z" stroke = "#000000" stroke-width = "1" fill = "none" />    <line x1="268" y1="203" x2="262" y2="191" style="stroke:#000000;stroke-width:1" />
    <line x1="262" y1="191" x2="275" y2="191" style="stroke:#000000;stroke-width:1" />
    <line x1="275" y1="191" x2="268" y2="203" style="stroke:#000000;stroke-width:1" />
    <text x="32" y = "255" fill = "#000000" font-size = "22.943341283563107px" font-family = "Arial">trash robot operator</text>
	<path d = "M-3 301 L-3 278 L20 278 L-3 301 Z" stroke = "#000000" stroke-width = "1" fill = "#000000" />	<path d = "M-3 301 L20 301 L43 278 L20 278 L-3 301 Z" stroke = "#ffff00" stroke-width = "1" fill = "#ffff00" />	<path d = "M20 301 L43 278 L43 301 L20 301 Z" stroke = "#000000" stroke-width = "1" fill = "#000000" />	<path d = "M43 301 L43 278 L66 278 L43 301 Z" stroke = "#000000" stroke-width = "1" fill = "#000000" />	<path d = "M43 301 L66 301 L89 278 L66 278 L43 301 Z" stroke = "#ffff00" stroke-width = "1" fill = "#ffff00" />	<path d = "M66 301 L89 278 L89 301 L66 301 Z" stroke = "#000000" stroke-width = "1" fill = "#000000" />	<path d = "M89 301 L89 278 L112 278 L89 301 Z" stroke = "#000000" stroke-width = "1" fill = "#000000" />	<path d = "M89 301 L112 301 L135 278 L112 278 L89 301 Z" stroke = "#ffff00" stroke-width = "1" fill = "#ffff00" />	<path d = "M112 301 L135 278 L135 301 L112 301 Z" stroke = "#000000" stroke-width = "1" fill = "#000000" />	<path d = "M135 301 L135 278 L158 278 L135 301 Z" stroke = "#000000" stroke-width = "1" fill = "#000000" />	<path d = "M135 301 L158 301 L181 278 L158 278 L135 301 Z" stroke = "#ffff00" stroke-width = "1" fill = "#ffff00" />	<path d = "M158 301 L181 278 L181 301 L158 301 Z" stroke = "#000000" stroke-width = "1" fill = "#000000" />	<path d = "M181 301 L181 278 L204 278 L181 301 Z" stroke = "#000000" stroke-width = "1" fill = "#000000" />	<path d = "M181 301 L204 301 L227 278 L204 278 L181 301 Z" stroke = "#ffff00" stroke-width = "1" fill = "#ffff00" />	<path d = "M204 301 L227 278 L227 301 L204 301 Z" stroke = "#000000" stroke-width = "1" fill = "#000000" />	<path d = "M227 301 L227 278 L250 278 L227 301 Z" stroke = "#000000" stroke-width = "1" fill = "#000000" />	<path d = "M227 301 L250 301 L273 278 L250 278 L227 301 Z" stroke = "#ffff00" stroke-width = "1" fill = "#ffff00" />	<path d = "M250 301 L273 278 L273 301 L250 301 Z" stroke = "#000000" stroke-width = "1" fill = "#000000" />	<path d = "M273 301 L273 278 L296 278 L273 301 Z" stroke = "#000000" stroke-width = "1" fill = "#000000" />	<path d = "M273 301 L296 301 L319 278 L296 278 L273 301 Z" stroke = "#ffff00" stroke-width = "1" fill = "#ffff00" />	<path d = "M296 301 L319 278 L319 301 L296 301 Z" stroke = "#000000" stroke-width = "1" fill = "#000000" />	<path d = "M301 26 L301 -20 L256 -20 L210 -20 L164 -20 L118 -20 L72 -20 L26 -20 L-20 -20 L-20 26 L26 26 L72 26 L118 26 L164 26 L210 26 L256 26 L301 26 Z" stroke = "#0000ff" stroke-width = "8" fill = "#0000ff" /></svg>