<svg width="674" height="674" viewbox = "0 0 674 674"  xmlns="http://www.w3.org/2000/svg">
<!--<json>{
  "glyph": "0327,0233,0234,0330,0336,0335,0335,0326,0231,0334,0334,0232,0337,0330,0335,0333,0336,0335,0335,0335,0327,0337,0335,0335,0350,0335,0335,0331,0334,0337,0330,0335,0335,0335,0335,0336,0234,0233,0321,0335,0337,0201,0334,0334,0201,0334,0334,0334,0201,0334,0334,0201,0331,0334,0336,0201,0334,0201,0334,0334,0334,0334,0201,0334,0201,0334,",
  "x0": 337,
  "y0": 543.305,
  "unit": 190.71080924808018,
  "width": 674,
  "height": 674,
  "style": {
    "color0": "black",
    "fill0": "black",
    "line0": 1,
    "color1": "black",
    "fill1": "black",
    "line1": 5,
    "color2": "black",
    "fill2": "red",
    "line2": 1,
    "color3": "#FF7900",
    "fill3": "#FF7900",
    "line3": 1,
    "color4": "yellow",
    "fill4": "yellow",
    "line4": 1,
    "color5": "green",
    "fill5": "green",
    "line5": 1,
    "color6": "blue",
    "fill6": "blue",
    "line6": 1,
    "color7": "purple",
    "fill7": "purple",
    "line7": 1
  }
}</json>-->	<path d = "M337 543 L337 353 L156 294 L337 543 Z" stroke = "#800080" stroke-width = "1" fill = "#800080" />	<path d = "M337 543 L337 353 L518 294 L337 543 Z" stroke = "#800080" stroke-width = "1" fill = "#800080" />	<path d = "M337 353 L518 294 L337 235 L337 353 Z" stroke = "#0000ff" stroke-width = "1" fill = "#0000ff" />	<path d = "M337 353 L156 294 L337 235 L337 353 Z" stroke = "#0000ff" stroke-width = "1" fill = "#0000ff" />	<path d = "M337 44 L337 235 L156 294 L337 44 Z" stroke = "#800080" stroke-width = "1" fill = "#800080" />	<path d = "M337 44 L337 235 L518 294 L337 44 Z" stroke = "#800080" stroke-width = "1" fill = "#800080" />    <line x1="337" y1="44" x2="156" y2="294" style="stroke:#000000;stroke-width:5" />
    <line x1="156" y1="294" x2="337" y2="543" style="stroke:#000000;stroke-width:5" />
    <line x1="337" y1="543" x2="518" y2="294" style="stroke:#000000;stroke-width:5" />
    <line x1="518" y1="294" x2="337" y2="44" style="stroke:#000000;stroke-width:5" />
    <line x1="518" y1="294" x2="337" y2="235" style="stroke:#000000;stroke-width:5" />
    <line x1="337" y1="235" x2="156" y2="294" style="stroke:#000000;stroke-width:5" />
    <line x1="156" y1="294" x2="337" y2="353" style="stroke:#000000;stroke-width:5" />
    <line x1="337" y1="353" x2="518" y2="294" style="stroke:#000000;stroke-width:5" />
</svg>