<svg width="674" height="674" viewbox = "0 0 674 674"  xmlns="http://www.w3.org/2000/svg">
<!--<json></json>-->	<path d = "M337 337 L337 95 L95 95 L95 337 L337 337 Z" stroke = "#000000" stroke-width = "1" fill = "none" />    <line x1="337" y1="337" x2="579" y2="337" style="stroke:#000000;stroke-width:1" />
    <line x1="579" y1="337" x2="458" y2="127" style="stroke:#000000;stroke-width:1" />
    <line x1="458" y1="127" x2="337" y2="337" style="stroke:#000000;stroke-width:1" />
    <line x1="458" y1="127" x2="579" y2="197" style="stroke:#000000;stroke-width:1" />
    <line x1="579" y1="197" x2="579" y2="337" style="stroke:#000000;stroke-width:1" />
    <line x1="458" y1="127" x2="337" y2="57" style="stroke:#000000;stroke-width:1" />
    <line x1="337" y1="57" x2="337" y2="337" style="stroke:#000000;stroke-width:1" />
    <line x1="337" y1="337" x2="383" y2="479" style="stroke:#000000;stroke-width:1" />
    <line x1="383" y1="479" x2="579" y2="337" style="stroke:#000000;stroke-width:1" />
    <line x1="579" y1="337" x2="533" y2="479" style="stroke:#000000;stroke-width:1" />
    <line x1="533" y1="479" x2="383" y2="479" style="stroke:#000000;stroke-width:1" />
    <line x1="337" y1="337" x2="95" y2="579" style="stroke:#000000;stroke-width:1" />
    <line x1="95" y1="579" x2="95" y2="337" style="stroke:#000000;stroke-width:1" />
</svg>