<svg width="600" height="700" viewbox = "0 0 600 700"  xmlns="http://www.w3.org/2000/svg">
<!--<json>{
  "glyph": "0322,0227,0320,0230,0331,0332,0335,0335,0314,0335,0335,0314,0336,0331,0337,0234,",
  "x0": 300,
  "y0": 295,
  "unit": 275,
  "width": 600,
  "height": 700,
  "style": {
    "color0": "black",
    "fill0": "black",
    "line0": 1,
    "color1": "black",
    "fill1": "black",
    "line1": 5,
    "color2": "red",
    "fill2": "red",
    "line2": 1,
    "color3": "#FF7900",
    "fill3": "#FF7900",
    "line3": 1,
    "color4": "yellow",
    "fill4": "yellow",
    "line4": 1,
    "color5": "green",
    "fill5": "green",
    "line5": 1,
    "color6": "blue",
    "fill6": "blue",
    "line6": 1,
    "color7": "purple",
    "fill7": "purple",
    "line7": 1
  },
  "shapes": [
    "0220:0313,0304,0336,0332,0337,0342,0336,0333,0330,0334,0337,0342,0335,0336,0331,0332,0333,0336,0332,0337,0342,0336,0333,0334,0333,0337,0342,0335,0336,0331,0336,0332,0337,0342,0336,0333,0330,0334,0337,0342,0335,0336,0331,0336,0332,0337,0342,0336,0333,0330,0334,0337,0342,0335,0336,0331,0336,0332,0337,0342,0336,0333,0330,0334,0337,0342,0335,0336,0331,0337,0337,0337,0337,0337,0336,0336,0336,0336,0336,0336,0332,0337,0342,0336,0333,0334,0333,0337,0342,0335,0336,0331,0337,0337,0337,0337,0337,0337,0332,0336,0336,0336,0330,0336,0333,0330,0337,0336,0333,0337,01304,01313,0331,0331,0333,0333,0333,0333,0333,0336,0330,0337,0337,0337,0337,",
    "0221:0304,0334,0306,0336,0330,0335,0201,0335,0335,0201,0335,0335,0201,0335,0304,0335,0336,0330,0336,0331,0332,0330,0336,0333,0337,01306,0331,0331,0336,0332,0337,0337,0337,0333,0337,",
    "0222:0350,0335,0310,0336,0201,0334,0334,0334,0336,0201,0335,0335,0335,0336,0201,0334,0334,0334,0336,0201,0335,0335,0335,0336,0201,0334,0334,0334,0336,0201,0335,0335,0335,0336,0201,0334,0334,0334,0336,0201,0335,0335,0335,0336,0201,0334,0334,0330,0335,0337,0337,0337,0337,0337,0337,0337,0337,0337,0331,0304,0313,0336,0330,0333,0336,0331,0336,0331,0332,0336,0332,0337,01304,01350,01310,0331,0331,0332,0332,0332,0332,0330,0332,0336,0332,0337,0337,0337,0337,",
    "0223:0304,0335,0330,0334,0334,0306,0350,0335,0312,0336,0313,0337,0330,0334,0334,0334,0334,0313,0336,0330,0334,0334,0334,0334,0334,0334,0330,0335,0335,0335,0335,0312,0335,0312,0336,0313,0337,0201,0335,0335,0335,0335,0335,0312,0336,0201,0334,0334,0334,0334,0334,0336,0201,0335,0335,0335,0335,0335,0336,0201,0334,0334,0334,0334,0334,0334,0335,0336,0201,0331,0335,0334,0334,0337,0330,0335,0337,0331,0334,0337,0330,0335,0337,0331,0334,0337,0330,0334,0313,0336,0312,0337,0331,0334,0334,0334,0313,0304,0313,0336,0336,0330,0333,0333,0336,0331,0332,0336,0331,0337,01312,0331,0332,0332,0332,0332,0336,0330,0337,0337,0337,0337,",
    "0224:0304,0313,0335,0311,0305,0350,0330,0334,0334,0334,0334,0336,0330,0334,0334,0330,0335,0337,0335,0335,0335,0335,0336,0330,0335,0335,0335,0336,0201,0334,0334,0334,0336,0201,0335,0335,0335,0336,0201,0334,0334,0334,0336,0201,0335,0335,0335,0336,0201,0334,0334,0334,0336,0201,0335,0335,0335,0334,0330,0334,0337,0337,0337,0337,0337,0337,0336,0331,0334,0334,0334,0330,0335,0335,0337,0331,0335,0304,0337,0334,0313,0336,0336,0336,0333,0333,0333,0336,0330,0332,0337,0336,0336,0331,0332,0337,0337,01305,01311,0331,0332,0332,0332,0332,0336,0330,0336,0330,0332,0337,0337,0337,0337,0337,",
    "0225:0313,0304,0335,0305,0311,0334,0336,0330,0335,0337,0350,0335,0330,0335,0335,0335,0335,0330,0335,0335,0335,0336,0335,0201,0335,0335,0335,0335,0336,0201,0334,0334,0334,0334,0201,0335,0335,0335,0335,0336,0201,0334,0334,0334,0334,0201,0335,0335,0335,0335,0336,0201,0334,0334,0334,0334,0201,0335,0335,0335,0335,0336,0201,0334,0334,0334,0334,0201,0335,0335,0335,0335,0336,0201,0334,0334,0334,0334,0201,0335,0335,0335,0335,0336,0201,0334,0334,0334,0334,0201,0335,0335,0335,0335,0336,0201,0334,0334,0334,0337,0330,0337,0337,0337,0337,0337,0337,0337,0331,0304,0334,0313,",
    "0226:0313,0304,0335,0306,0350,0312,0330,0334,0334,0334,0334,0334,0336,0330,0334,0334,0330,0331,0334,0336,0342,0334,0334,0342,0330,0334,0336,0331,0342,0335,0335,0335,0335,0342,0334,0336,0342,0334,0334,0342,0330,0334,0336,0331,0342,0335,0335,0335,0335,0342,0334,0336,0342,0334,0334,0342,0334,0337,0330,0335,0337,0331,0334,0337,0330,0335,0337,0331,0313,0336,0312,0335,0337,0342,0330,0335,0335,0335,0337,0330,0335,0335,0335,0313,0337,0304,0313,",
    "0227:0331,0220,0333,0332,0222,0333,0330,0332,0335,0335,0332,0223,0335,0335,0221,0312,0336,0331,0306,0334,0313,0337,0330,0335,0304,0335,0335,0336,0312,0337,0313,0304,0330,0335,0330,0335,0330,0335,0330,0334,0331,0335,0330,0334,0334,0350,0310,0337,0335,0330,0336,0335,0304,0335,0306,0334,0330,0335,0335,0330,0335,0335,0330,0335,0335,0304,0334,0226,0335,0306,0350,0334,0312,0336,0330,0335,0335,0330,0331,0334,0334,0331,0337,0313,0304,0332,0225,0335,0305,0334,0311,0336,0330,0335,0350,0335,0337,0304,0334,0224,0335,0305,0350,0334,0311,0336,0330,0335,0335,0335,0335,0335,0304,0305,0330,0334,0334,0311,0337,0330,0335,0335,0304,0335,0313,",
    "0230:0331,0200,0335,0201,0334,0334,0350,0335,0310,0337,0201,0335,0304,0335,0336,0201,0335,0312,0336,0201,0335,0306,0350,0335,0313,0337,0201,0334,0313,0336,0312,0337,0304,0335,0335,0306,0334,0201,0335,0335,0342,0335,0350,0335,0312,0336,0201,0334,0334,0201,0335,0335,0335,0337,0313,0304,0335,0332,0335,0305,0334,0311,0336,0201,0335,0350,0335,0337,0342,0334,0336,0201,0335,0335,0201,0335,0335,0335,0337,0313,0304,0335,",
    "0231:0342,0336,0333,0342,0336,0332,0342,0333,0333,0342,0336,0333,0342,0332,0332,0342,0332,0332,0342,0332,0332,0342,0333,0333,0333,0333,0333,0333,0333,0337,0337,0337,",
    "0232:0316,0336,0313,0342,0336,0333,0342,0333,0342,0333,0342,0333,0342,0333,0337,0342,0336,0333,0342,0333,0342,0333,0342,0333,0342,0333,0342,0337,0316,0337,0313,",
    "0233:0362,0203,0335,0203,0203,0203,0203,0203,0203,0335,0203,0335,0203,0203,0203,0203,0203,0203,0354,0335,",
    "0234:0314,0336,0313,0320,0233,0322,0232,0232,0232,0232,0232,0232,0334,0232,0334,0231,0231,0231,0231,0231,0231,0334,0231,0334,0314,0337,0313,",
    "0235:0322,0220,0320,0200,",
    "0236:0320,0306,0362,0203,0334,0334,0203,0334,0334,0203,0354,0334,0334,0330,0334,0350,0334,0322,0221,0335,0331,0320,",
    "0237:0304,0320,0362,0203,0350,0310,0334,0334,0334,0337,0203,0334,0334,0334,0336,0203,0354,0304,0322,0334,0334,0222,0335,0320,",
    "01220:0333,0200,0336,0330,0332,0336,0331,0333,0337,0220,0336,0331,0333,0337,0337,0320,",
    "01221:0333,0200,0336,0330,0332,0331,0336,0333,0330,0337,0221,0336,0331,0333,0337,0337,",
    "01222:0333,0200,0336,0330,0332,0336,0331,0333,0337,0332,0222,0333,0336,0333,0331,0337,0337,",
    "01223:0333,0200,0336,0336,0330,0332,0337,0223,0336,0331,0333,0337,0337,0320,",
    "01224:0333,0200,0336,0332,0330,0224,0333,0331,0337,",
    "01225:0333,0200,0336,0336,0332,0332,0330,0337,0225,0304,0333,0331,0336,0330,0337,0337,",
    "01226:0333,0200,0336,0330,0332,0332,0337,0226,0336,0331,0336,0333,0330,0333,0333,0331,0333,0337,0337,",
    "01227:0333,0200,0336,0330,0332,0210,0227,0211,0331,0333,0337,",
    "01230:0333,0200,0336,0330,0332,0336,0230,0337,0331,0333,0337,",
    "01231:0333,0200,0332,0231,",
    "01232:0333,0200,0332,0232,",
    "01233:0333,0200,0336,0332,0336,0330,0337,0330,0336,0331,0332,0332,0336,0336,0333,0331,0333,0337,0233,0331,0333,0333,0337,0331,0333,0333,0336,0333,0336,0331,0332,0333,0337,0337,0337,0337,",
    "01234:0333,0200,0336,0330,0332,0332,0234,0331,0337,0333,0320,",
    "01235:0333,0200,0235,",
    "01236:0333,0200,0236,",
    "01237:0333,0200,0237,",
    "0240:0322,0334,0223,0320,0335,0362,0203,0306,0350,0334,0334,0334,0334,0334,0312,0336,0313,0337,0203,0334,0334,0334,0334,0313,0336,0203,0354,0334,0334,0334,0312,0337,0313,0304,",
    "01240:0333,0200,0240,",
    "0241:0334,0322,0226,0320,0335,0306,0350,0312,0362,0203,0334,0334,0334,0334,0334,0336,0203,0334,0334,0203,0354,0334,0334,0334,0334,0334,0337,0313,0304,",
    "01241:0333,0200,0241,",
    "0242:0334,0322,0224,0335,0320,0305,0311,0350,0362,0203,0334,0334,0334,0334,0336,0203,0334,0334,0203,0354,0334,0334,0334,0334,0337,0313,0304,",
    "01242:0333,0200,0242,",
    "0243:0334,0322,0225,0335,0320,0305,0311,0350,0362,0203,0334,0334,0334,0334,0203,0334,0334,0334,0336,0203,0354,0334,0334,0334,0337,0313,0304,",
    "01243:0333,0200,0243,",
    "0244:0235,0335,0335,0331,0236,0334,0334,0237,0335,0306,0350,0334,0240,0306,0350,0335,0335,0331,0334,0334,0241,0334,0335,0335,0242,0334,0334,0330,0335,0335,0243,0335,0332,0332,0234,0320,0331,0331,0333,",
    "01244:0333,0200,0336,0332,0244,0333,0337,"
  ]
}</json>-->    <line x1="163" y1="570" x2="163" y2="295" style="stroke:#ff0000;stroke-width:1" />
    <line x1="300" y1="433" x2="25" y2="432" style="stroke:#ff0000;stroke-width:1" />
    <line x1="231" y1="570" x2="231" y2="433" style="stroke:#ff0000;stroke-width:1" />
    <line x1="300" y1="501" x2="163" y2="501" style="stroke:#ff0000;stroke-width:1" />
    <line x1="266" y1="570" x2="266" y2="501" style="stroke:#ff0000;stroke-width:1" />
    <line x1="300" y1="536" x2="231" y2="536" style="stroke:#ff0000;stroke-width:1" />
    <line x1="283" y1="570" x2="283" y2="536" style="stroke:#ff0000;stroke-width:1" />
    <line x1="300" y1="553" x2="266" y2="553" style="stroke:#ff0000;stroke-width:1" />
    <line x1="291" y1="570" x2="291" y2="553" style="stroke:#ff0000;stroke-width:1" />
    <line x1="300" y1="561" x2="283" y2="561" style="stroke:#ff0000;stroke-width:1" />
    <line x1="296" y1="570" x2="296" y2="561" style="stroke:#ff0000;stroke-width:1" />
    <line x1="300" y1="566" x2="291" y2="566" style="stroke:#ff0000;stroke-width:1" />
	<path d = "M94 518 L94 484 L59 484 L59 518 L94 518 Z" stroke = "#ff0000" stroke-width = "1" fill = "none" /><circle cx="77" cy = "501" r = "17.1875" stroke = "#ff0000" stroke-width = "1" fill = "none" />
    <line x1="77" y1="501" x2="77" y2="484" style="stroke:#ff0000;stroke-width:1" />
    <line x1="77" y1="501" x2="94" y2="501" style="stroke:#ff0000;stroke-width:1" />
    <line x1="77" y1="501" x2="77" y2="518" style="stroke:#ff0000;stroke-width:1" />
    <line x1="77" y1="501" x2="59" y2="501" style="stroke:#ff0000;stroke-width:1" />
<circle cx="70" cy = "495" r = "4.296875" stroke = "#ff0000" stroke-width = "1" fill = "none" />
<circle cx="83" cy = "495" r = "4.296875" stroke = "#ff0000" stroke-width = "1" fill = "none" />
<circle cx="83" cy = "507" r = "4.296875" stroke = "#ff0000" stroke-width = "1" fill = "none" />
<circle cx="70" cy = "507" r = "4.296875" stroke = "#ff0000" stroke-width = "1" fill = "none" />
	<path d = "M128 518 L128 484 L94 484 L94 518 L128 518 Z" stroke = "#ff0000" stroke-width = "1" fill = "none" />	<path d = "M120 510 L120 501 L111 501 L102 501 L102 510 L111 510 L120 510 Z" stroke = "#ff0000" stroke-width = "1" fill = "none" />    <line x1="111" y1="510" x2="111" y2="501" style="stroke:#ff0000;stroke-width:1" />
    <line x1="300" y1="570" x2="438" y2="433" style="stroke:#ff0000;stroke-width:1" />
    <line x1="438" y1="433" x2="300" y2="433" style="stroke:#ff0000;stroke-width:1" />
    <line x1="300" y1="433" x2="369" y2="364" style="stroke:#ff0000;stroke-width:1" />
    <line x1="369" y1="364" x2="300" y2="364" style="stroke:#ff0000;stroke-width:1" />
    <line x1="300" y1="364" x2="334" y2="329" style="stroke:#ff0000;stroke-width:1" />
    <line x1="334" y1="329" x2="300" y2="329" style="stroke:#ff0000;stroke-width:1" />
    <line x1="300" y1="329" x2="317" y2="312" style="stroke:#ff0000;stroke-width:1" />
    <line x1="317" y1="312" x2="300" y2="312" style="stroke:#ff0000;stroke-width:1" />
    <line x1="300" y1="312" x2="309" y2="304" style="stroke:#ff0000;stroke-width:1" />
	<path d = "M420 536 L420 501 L386 501 L386 536 L420 536 Z" stroke = "#ff0000" stroke-width = "1" fill = "none" /><circle cx="403" cy = "518" r = "17.187499999999993" stroke = "#ff0000" stroke-width = "1" fill = "none" />
    <line x1="403" y1="518" x2="403" y2="501" style="stroke:#ff0000;stroke-width:1" />
    <line x1="403" y1="518" x2="420" y2="518" style="stroke:#ff0000;stroke-width:1" />
    <line x1="403" y1="518" x2="403" y2="536" style="stroke:#ff0000;stroke-width:1" />
    <line x1="403" y1="518" x2="386" y2="518" style="stroke:#ff0000;stroke-width:1" />
<circle cx="397" cy = "512" r = "4.296874999999998" stroke = "#ff0000" stroke-width = "1" fill = "none" />
<circle cx="409" cy = "512" r = "4.296874999999998" stroke = "#ff0000" stroke-width = "1" fill = "none" />
<circle cx="409" cy = "525" r = "4.296874999999998" stroke = "#ff0000" stroke-width = "1" fill = "none" />
<circle cx="397" cy = "525" r = "4.296874999999998" stroke = "#ff0000" stroke-width = "1" fill = "none" />
	<path d = "M455 536 L455 501 L420 501 L420 536 L455 536 Z" stroke = "#ff0000" stroke-width = "1" fill = "none" />	<path d = "M450 506 L437 518 L450 531 " stroke = "#ff0000" stroke-width = "1" fill = "none" />    <line x1="437" y1="518" x2="442" y2="518" style="stroke:#ff0000;stroke-width:1" />
    <line x1="446" y1="518" x2="450" y2="518" style="stroke:#ff0000;stroke-width:1" />
	<path d = "M489 536 L489 501 L455 501 L455 536 L489 536 Z" stroke = "#ff0000" stroke-width = "1" fill = "none" />    <line x1="472" y1="536" x2="489" y2="518" style="stroke:#ff0000;stroke-width:1" />
    <line x1="489" y1="518" x2="472" y2="501" style="stroke:#ff0000;stroke-width:1" />
    <line x1="472" y1="501" x2="455" y2="518" style="stroke:#ff0000;stroke-width:1" />
    <line x1="455" y1="518" x2="472" y2="536" style="stroke:#ff0000;stroke-width:1" />
    <line x1="575" y1="454" x2="483" y2="295" style="stroke:#ff0000;stroke-width:1" />
    <line x1="483" y1="295" x2="575" y2="348" style="stroke:#ff0000;stroke-width:1" />
    <line x1="575" y1="348" x2="544" y2="295" style="stroke:#ff0000;stroke-width:1" />
    <line x1="544" y1="295" x2="575" y2="313" style="stroke:#ff0000;stroke-width:1" />
    <line x1="575" y1="313" x2="565" y2="295" style="stroke:#ff0000;stroke-width:1" />
	<path d = "M437 312 L437 347 L472 347 L472 312 L437 312 Z" stroke = "#ff0000" stroke-width = "1" fill = "none" />	<path d = "M437 312 L455 342 L472 312 " stroke = "#ff0000" stroke-width = "1" fill = "none" />    <line x1="455" y1="322" x2="455" y2="342" style="stroke:#ff0000;stroke-width:1" />
    <line x1="455" y1="322" x2="437" y2="312" style="stroke:#ff0000;stroke-width:1" />
    <line x1="455" y1="322" x2="472" y2="312" style="stroke:#ff0000;stroke-width:1" />
    <line x1="437" y1="295" x2="369" y2="176" style="stroke:#ff0000;stroke-width:1" />
    <line x1="369" y1="176" x2="506" y2="176" style="stroke:#ff0000;stroke-width:1" />
    <line x1="506" y1="176" x2="437" y2="295" style="stroke:#ff0000;stroke-width:1" />
	<path d = "M455 226 L455 192 L420 192 L420 226 L455 226 Z" stroke = "#ff0000" stroke-width = "1" fill = "none" />    <line x1="437" y1="209" x2="437" y2="192" style="stroke:#ff0000;stroke-width:1" />
    <line x1="437" y1="209" x2="452" y2="200" style="stroke:#ff0000;stroke-width:1" />
    <line x1="437" y1="209" x2="452" y2="218" style="stroke:#ff0000;stroke-width:1" />
    <line x1="437" y1="209" x2="437" y2="226" style="stroke:#ff0000;stroke-width:1" />
    <line x1="437" y1="209" x2="423" y2="218" style="stroke:#ff0000;stroke-width:1" />
<circle cx="437" cy = "209" r = "17.187499999999996" stroke = "#ff0000" stroke-width = "1" fill = "none" />
<circle cx="433" cy = "202" r = "2.1484374999999996" stroke = "#ff0000" stroke-width = "1" fill = "none" />
<circle cx="442" cy = "202" r = "2.1484374999999996" stroke = "#ff0000" stroke-width = "1" fill = "none" />
<circle cx="446" cy = "209" r = "2.1484374999999996" stroke = "#ff0000" stroke-width = "1" fill = "none" />
<circle cx="442" cy = "217" r = "2.1484374999999996" stroke = "#ff0000" stroke-width = "1" fill = "none" />
<circle cx="433" cy = "217" r = "2.1484374999999996" stroke = "#ff0000" stroke-width = "1" fill = "none" />
    <line x1="437" y1="209" x2="423" y2="200" style="stroke:#ff0000;stroke-width:1" />
<circle cx="429" cy = "209" r = "2.1484374999999996" stroke = "#ff0000" stroke-width = "1" fill = "none" />
    <line x1="300" y1="136" x2="346" y2="216" style="stroke:#ff0000;stroke-width:1" />
    <line x1="300" y1="136" x2="392" y2="136" style="stroke:#ff0000;stroke-width:1" />
    <line x1="346" y1="163" x2="392" y2="136" style="stroke:#ff0000;stroke-width:1" />
    <line x1="346" y1="163" x2="346" y2="216" style="stroke:#ff0000;stroke-width:1" />
    <line x1="346" y1="163" x2="361" y2="189" style="stroke:#ff0000;stroke-width:1" />
    <line x1="346" y1="163" x2="376" y2="163" style="stroke:#ff0000;stroke-width:1" />
    <line x1="361" y1="172" x2="376" y2="163" style="stroke:#ff0000;stroke-width:1" />
    <line x1="361" y1="172" x2="361" y2="189" style="stroke:#ff0000;stroke-width:1" />
    <line x1="361" y1="172" x2="366" y2="180" style="stroke:#ff0000;stroke-width:1" />
    <line x1="361" y1="172" x2="371" y2="172" style="stroke:#ff0000;stroke-width:1" />
    <line x1="300" y1="136" x2="369" y2="176" style="stroke:#ff0000;stroke-width:1" />
    <line x1="25" y1="295" x2="162" y2="195" style="stroke:#ff0000;stroke-width:1" />
    <line x1="162" y1="195" x2="130" y2="295" style="stroke:#ff0000;stroke-width:1" />
    <line x1="130" y1="295" x2="215" y2="233" style="stroke:#ff0000;stroke-width:1" />
    <line x1="215" y1="233" x2="195" y2="295" style="stroke:#ff0000;stroke-width:1" />
    <line x1="195" y1="295" x2="247" y2="257" style="stroke:#ff0000;stroke-width:1" />
    <line x1="247" y1="257" x2="235" y2="295" style="stroke:#ff0000;stroke-width:1" />
    <line x1="235" y1="295" x2="268" y2="271" style="stroke:#ff0000;stroke-width:1" />
    <line x1="268" y1="271" x2="260" y2="295" style="stroke:#ff0000;stroke-width:1" />
    <line x1="260" y1="295" x2="280" y2="280" style="stroke:#ff0000;stroke-width:1" />
    <line x1="280" y1="280" x2="275" y2="295" style="stroke:#ff0000;stroke-width:1" />
    <line x1="275" y1="295" x2="288" y2="286" style="stroke:#ff0000;stroke-width:1" />
    <line x1="288" y1="286" x2="285" y2="295" style="stroke:#ff0000;stroke-width:1" />
    <line x1="285" y1="295" x2="292" y2="289" style="stroke:#ff0000;stroke-width:1" />
    <line x1="292" y1="289" x2="291" y2="295" style="stroke:#ff0000;stroke-width:1" />
    <line x1="247" y1="133" x2="215" y2="233" style="stroke:#ff0000;stroke-width:1" />
    <line x1="215" y1="233" x2="280" y2="233" style="stroke:#ff0000;stroke-width:1" />
    <line x1="280" y1="233" x2="268" y2="271" style="stroke:#ff0000;stroke-width:1" />
    <line x1="268" y1="271" x2="292" y2="271" style="stroke:#ff0000;stroke-width:1" />
    <line x1="292" y1="271" x2="288" y2="286" style="stroke:#ff0000;stroke-width:1" />
    <line x1="288" y1="286" x2="297" y2="286" style="stroke:#ff0000;stroke-width:1" />
	<path d = "M173 192 L193 164 L165 144 L145 172 L173 192 Z" stroke = "#ff0000" stroke-width = "1" fill = "none" />    <line x1="169" y1="168" x2="179" y2="154" style="stroke:#ff0000;stroke-width:1" />
    <line x1="169" y1="168" x2="185" y2="173" style="stroke:#ff0000;stroke-width:1" />
    <line x1="169" y1="168" x2="169" y2="185" style="stroke:#ff0000;stroke-width:1" />
    <line x1="169" y1="168" x2="153" y2="173" style="stroke:#ff0000;stroke-width:1" />
    <line x1="169" y1="168" x2="159" y2="154" style="stroke:#ff0000;stroke-width:1" />
<circle cx="169" cy = "168" r = "17.18749999999999" stroke = "#ff0000" stroke-width = "1" fill = "none" />
<circle cx="177" cy = "165" r = "2.1484374999999987" stroke = "#ff0000" stroke-width = "1" fill = "none" />
<circle cx="174" cy = "175" r = "2.1484374999999987" stroke = "#ff0000" stroke-width = "1" fill = "none" />
<circle cx="164" cy = "175" r = "2.1484374999999987" stroke = "#ff0000" stroke-width = "1" fill = "none" />
<circle cx="161" cy = "165" r = "2.1484374999999987" stroke = "#ff0000" stroke-width = "1" fill = "none" />
<circle cx="169" cy = "159" r = "2.1484374999999987" stroke = "#ff0000" stroke-width = "1" fill = "none" />
	<path d = "M201 212 L221 184 L193 164 L173 192 L201 212 Z" stroke = "#ff0000" stroke-width = "1" fill = "none" />	<path d = "M201 212 L218 159 L173 192 L201 212 Z" stroke = "#ff0000" stroke-width = "1" fill = "none" />    <line x1="201" y1="212" x2="190" y2="180" style="stroke:#ff0000;stroke-width:1" />
    <line x1="190" y1="180" x2="211" y2="180" style="stroke:#ff0000;stroke-width:1" />
    <line x1="211" y1="180" x2="207" y2="167" style="stroke:#ff0000;stroke-width:1" />
	<path d = "M300 570 L300 295 L25 295 L25 570 L300 570 Z" stroke = "#000000" stroke-width = "1" fill = "none" />    <line x1="300" y1="570" x2="575" y2="570" style="stroke:#000000;stroke-width:1" />
    <line x1="575" y1="570" x2="300" y2="295" style="stroke:#000000;stroke-width:1" />
    <line x1="300" y1="295" x2="575" y2="295" style="stroke:#000000;stroke-width:1" />
    <line x1="575" y1="295" x2="575" y2="454" style="stroke:#000000;stroke-width:1" />
    <line x1="575" y1="454" x2="300" y2="295" style="stroke:#000000;stroke-width:1" />
    <line x1="300" y1="295" x2="437" y2="57" style="stroke:#000000;stroke-width:1" />
    <line x1="437" y1="57" x2="575" y2="295" style="stroke:#000000;stroke-width:1" />
    <line x1="437" y1="57" x2="300" y2="136" style="stroke:#000000;stroke-width:1" />
    <line x1="300" y1="136" x2="300" y2="295" style="stroke:#000000;stroke-width:1" />
    <line x1="25" y1="295" x2="78" y2="133" style="stroke:#000000;stroke-width:1" />
    <line x1="78" y1="133" x2="300" y2="295" style="stroke:#000000;stroke-width:1" />
    <line x1="78" y1="133" x2="247" y2="133" style="stroke:#000000;stroke-width:1" />
    <line x1="247" y1="133" x2="300" y2="295" style="stroke:#000000;stroke-width:1" />
	<path d = "M25 662 L25 570 L117 570 L208 570 L300 570 L392 570 L483 570 L575 570 L575 662 L483 662 L392 662 L300 662 L208 662 L117 662 L25 662 Z" stroke = "#000000" stroke-width = "1" fill = "none" />    <line x1="25" y1="662" x2="25" y2="643" style="stroke:#ff0000;stroke-width:1" />
    <line x1="34" y1="662" x2="34" y2="653" style="stroke:#ff0000;stroke-width:1" />
    <line x1="43" y1="662" x2="43" y2="653" style="stroke:#ff0000;stroke-width:1" />
    <line x1="53" y1="662" x2="53" y2="653" style="stroke:#ff0000;stroke-width:1" />
    <line x1="62" y1="662" x2="62" y2="653" style="stroke:#ff0000;stroke-width:1" />
    <line x1="71" y1="662" x2="71" y2="643" style="stroke:#ff0000;stroke-width:1" />
    <line x1="80" y1="662" x2="80" y2="653" style="stroke:#ff0000;stroke-width:1" />
    <line x1="89" y1="662" x2="89" y2="653" style="stroke:#ff0000;stroke-width:1" />
    <line x1="98" y1="662" x2="98" y2="653" style="stroke:#ff0000;stroke-width:1" />
    <line x1="108" y1="662" x2="108" y2="653" style="stroke:#ff0000;stroke-width:1" />
    <line x1="117" y1="662" x2="117" y2="653" style="stroke:#ff0000;stroke-width:1" />
    <line x1="117" y1="662" x2="117" y2="643" style="stroke:#ff0000;stroke-width:1" />
    <line x1="126" y1="662" x2="126" y2="653" style="stroke:#ff0000;stroke-width:1" />
    <line x1="135" y1="662" x2="135" y2="653" style="stroke:#ff0000;stroke-width:1" />
    <line x1="144" y1="662" x2="144" y2="653" style="stroke:#ff0000;stroke-width:1" />
    <line x1="153" y1="662" x2="153" y2="653" style="stroke:#ff0000;stroke-width:1" />
    <line x1="163" y1="662" x2="163" y2="643" style="stroke:#ff0000;stroke-width:1" />
    <line x1="172" y1="662" x2="172" y2="653" style="stroke:#ff0000;stroke-width:1" />
    <line x1="181" y1="662" x2="181" y2="653" style="stroke:#ff0000;stroke-width:1" />
    <line x1="190" y1="662" x2="190" y2="653" style="stroke:#ff0000;stroke-width:1" />
    <line x1="199" y1="662" x2="199" y2="653" style="stroke:#ff0000;stroke-width:1" />
    <line x1="208" y1="662" x2="208" y2="653" style="stroke:#ff0000;stroke-width:1" />
    <line x1="208" y1="662" x2="208" y2="643" style="stroke:#ff0000;stroke-width:1" />
    <line x1="218" y1="662" x2="218" y2="653" style="stroke:#ff0000;stroke-width:1" />
    <line x1="227" y1="662" x2="227" y2="653" style="stroke:#ff0000;stroke-width:1" />
    <line x1="236" y1="662" x2="236" y2="653" style="stroke:#ff0000;stroke-width:1" />
    <line x1="245" y1="662" x2="245" y2="653" style="stroke:#ff0000;stroke-width:1" />
    <line x1="254" y1="662" x2="254" y2="643" style="stroke:#ff0000;stroke-width:1" />
    <line x1="263" y1="662" x2="263" y2="653" style="stroke:#ff0000;stroke-width:1" />
    <line x1="273" y1="662" x2="273" y2="653" style="stroke:#ff0000;stroke-width:1" />
    <line x1="282" y1="662" x2="282" y2="653" style="stroke:#ff0000;stroke-width:1" />
    <line x1="291" y1="662" x2="291" y2="653" style="stroke:#ff0000;stroke-width:1" />
    <line x1="300" y1="662" x2="300" y2="653" style="stroke:#ff0000;stroke-width:1" />
    <line x1="300" y1="662" x2="300" y2="643" style="stroke:#ff0000;stroke-width:1" />
    <line x1="309" y1="662" x2="309" y2="653" style="stroke:#ff0000;stroke-width:1" />
    <line x1="318" y1="662" x2="318" y2="653" style="stroke:#ff0000;stroke-width:1" />
    <line x1="328" y1="662" x2="328" y2="653" style="stroke:#ff0000;stroke-width:1" />
    <line x1="337" y1="662" x2="337" y2="653" style="stroke:#ff0000;stroke-width:1" />
    <line x1="346" y1="662" x2="346" y2="643" style="stroke:#ff0000;stroke-width:1" />
    <line x1="355" y1="662" x2="355" y2="653" style="stroke:#ff0000;stroke-width:1" />
    <line x1="364" y1="662" x2="364" y2="653" style="stroke:#ff0000;stroke-width:1" />
    <line x1="373" y1="662" x2="373" y2="653" style="stroke:#ff0000;stroke-width:1" />
    <line x1="383" y1="662" x2="383" y2="653" style="stroke:#ff0000;stroke-width:1" />
    <line x1="392" y1="662" x2="392" y2="653" style="stroke:#ff0000;stroke-width:1" />
    <line x1="392" y1="662" x2="392" y2="643" style="stroke:#ff0000;stroke-width:1" />
    <line x1="401" y1="662" x2="401" y2="653" style="stroke:#ff0000;stroke-width:1" />
    <line x1="410" y1="662" x2="410" y2="653" style="stroke:#ff0000;stroke-width:1" />
    <line x1="419" y1="662" x2="419" y2="653" style="stroke:#ff0000;stroke-width:1" />
    <line x1="428" y1="662" x2="428" y2="653" style="stroke:#ff0000;stroke-width:1" />
    <line x1="438" y1="662" x2="438" y2="643" style="stroke:#ff0000;stroke-width:1" />
    <line x1="447" y1="662" x2="447" y2="653" style="stroke:#ff0000;stroke-width:1" />
    <line x1="456" y1="662" x2="456" y2="653" style="stroke:#ff0000;stroke-width:1" />
    <line x1="465" y1="662" x2="465" y2="653" style="stroke:#ff0000;stroke-width:1" />
    <line x1="474" y1="662" x2="474" y2="653" style="stroke:#ff0000;stroke-width:1" />
    <line x1="483" y1="662" x2="483" y2="653" style="stroke:#ff0000;stroke-width:1" />
    <line x1="483" y1="662" x2="483" y2="643" style="stroke:#ff0000;stroke-width:1" />
    <line x1="493" y1="662" x2="493" y2="653" style="stroke:#ff0000;stroke-width:1" />
    <line x1="502" y1="662" x2="502" y2="653" style="stroke:#ff0000;stroke-width:1" />
    <line x1="511" y1="662" x2="511" y2="653" style="stroke:#ff0000;stroke-width:1" />
    <line x1="520" y1="662" x2="520" y2="653" style="stroke:#ff0000;stroke-width:1" />
    <line x1="529" y1="662" x2="529" y2="643" style="stroke:#ff0000;stroke-width:1" />
    <line x1="538" y1="662" x2="538" y2="653" style="stroke:#ff0000;stroke-width:1" />
    <line x1="548" y1="662" x2="548" y2="653" style="stroke:#ff0000;stroke-width:1" />
    <line x1="557" y1="662" x2="557" y2="653" style="stroke:#ff0000;stroke-width:1" />
    <line x1="566" y1="662" x2="566" y2="653" style="stroke:#ff0000;stroke-width:1" />
    <line x1="575" y1="662" x2="575" y2="653" style="stroke:#ff0000;stroke-width:1" />
    <line x1="575" y1="662" x2="557" y2="662" style="stroke:#ff0000;stroke-width:1" />
    <line x1="575" y1="653" x2="566" y2="653" style="stroke:#ff0000;stroke-width:1" />
    <line x1="575" y1="643" x2="566" y2="643" style="stroke:#ff0000;stroke-width:1" />
    <line x1="575" y1="634" x2="566" y2="634" style="stroke:#ff0000;stroke-width:1" />
    <line x1="575" y1="625" x2="566" y2="625" style="stroke:#ff0000;stroke-width:1" />
    <line x1="575" y1="616" x2="557" y2="616" style="stroke:#ff0000;stroke-width:1" />
    <line x1="575" y1="607" x2="566" y2="607" style="stroke:#ff0000;stroke-width:1" />
    <line x1="575" y1="598" x2="566" y2="598" style="stroke:#ff0000;stroke-width:1" />
    <line x1="575" y1="588" x2="566" y2="588" style="stroke:#ff0000;stroke-width:1" />
    <line x1="575" y1="579" x2="566" y2="579" style="stroke:#ff0000;stroke-width:1" />
    <line x1="575" y1="570" x2="566" y2="570" style="stroke:#ff0000;stroke-width:1" />
    <line x1="575" y1="570" x2="575" y2="662" style="stroke:#ff0000;stroke-width:1" />
    <line x1="529" y1="570" x2="529" y2="616" style="stroke:#ff0000;stroke-width:1" />
    <line x1="552" y1="570" x2="552" y2="593" style="stroke:#ff0000;stroke-width:1" />
    <line x1="506" y1="570" x2="506" y2="593" style="stroke:#ff0000;stroke-width:1" />
    <line x1="495" y1="570" x2="495" y2="581" style="stroke:#ff0000;stroke-width:1" />
    <line x1="518" y1="570" x2="518" y2="581" style="stroke:#ff0000;stroke-width:1" />
    <line x1="541" y1="570" x2="541" y2="581" style="stroke:#ff0000;stroke-width:1" />
    <line x1="564" y1="570" x2="564" y2="581" style="stroke:#ff0000;stroke-width:1" />
    <line x1="483" y1="570" x2="483" y2="662" style="stroke:#ff0000;stroke-width:1" />
    <line x1="438" y1="570" x2="438" y2="616" style="stroke:#ff0000;stroke-width:1" />
    <line x1="460" y1="570" x2="460" y2="593" style="stroke:#ff0000;stroke-width:1" />
    <line x1="415" y1="570" x2="415" y2="593" style="stroke:#ff0000;stroke-width:1" />
    <line x1="403" y1="570" x2="403" y2="581" style="stroke:#ff0000;stroke-width:1" />
    <line x1="426" y1="570" x2="426" y2="581" style="stroke:#ff0000;stroke-width:1" />
    <line x1="449" y1="570" x2="449" y2="581" style="stroke:#ff0000;stroke-width:1" />
    <line x1="472" y1="570" x2="472" y2="581" style="stroke:#ff0000;stroke-width:1" />
    <line x1="392" y1="570" x2="392" y2="662" style="stroke:#ff0000;stroke-width:1" />
    <line x1="346" y1="570" x2="346" y2="616" style="stroke:#ff0000;stroke-width:1" />
    <line x1="369" y1="570" x2="369" y2="593" style="stroke:#ff0000;stroke-width:1" />
    <line x1="323" y1="570" x2="323" y2="593" style="stroke:#ff0000;stroke-width:1" />
    <line x1="311" y1="570" x2="311" y2="581" style="stroke:#ff0000;stroke-width:1" />
    <line x1="334" y1="570" x2="334" y2="581" style="stroke:#ff0000;stroke-width:1" />
    <line x1="357" y1="570" x2="357" y2="581" style="stroke:#ff0000;stroke-width:1" />
    <line x1="380" y1="570" x2="380" y2="581" style="stroke:#ff0000;stroke-width:1" />
    <line x1="300" y1="570" x2="300" y2="662" style="stroke:#ff0000;stroke-width:1" />
    <line x1="254" y1="570" x2="254" y2="616" style="stroke:#ff0000;stroke-width:1" />
    <line x1="277" y1="570" x2="277" y2="593" style="stroke:#ff0000;stroke-width:1" />
    <line x1="231" y1="570" x2="231" y2="593" style="stroke:#ff0000;stroke-width:1" />
    <line x1="220" y1="570" x2="220" y2="581" style="stroke:#ff0000;stroke-width:1" />
    <line x1="243" y1="570" x2="243" y2="581" style="stroke:#ff0000;stroke-width:1" />
    <line x1="266" y1="570" x2="266" y2="581" style="stroke:#ff0000;stroke-width:1" />
    <line x1="289" y1="570" x2="289" y2="581" style="stroke:#ff0000;stroke-width:1" />
    <line x1="208" y1="570" x2="208" y2="662" style="stroke:#ff0000;stroke-width:1" />
    <line x1="163" y1="570" x2="163" y2="616" style="stroke:#ff0000;stroke-width:1" />
    <line x1="185" y1="570" x2="185" y2="593" style="stroke:#ff0000;stroke-width:1" />
    <line x1="140" y1="570" x2="140" y2="593" style="stroke:#ff0000;stroke-width:1" />
    <line x1="128" y1="570" x2="128" y2="581" style="stroke:#ff0000;stroke-width:1" />
    <line x1="151" y1="570" x2="151" y2="581" style="stroke:#ff0000;stroke-width:1" />
    <line x1="174" y1="570" x2="174" y2="581" style="stroke:#ff0000;stroke-width:1" />
    <line x1="197" y1="570" x2="197" y2="581" style="stroke:#ff0000;stroke-width:1" />
    <line x1="117" y1="570" x2="117" y2="662" style="stroke:#ff0000;stroke-width:1" />
    <line x1="71" y1="570" x2="71" y2="616" style="stroke:#ff0000;stroke-width:1" />
    <line x1="94" y1="570" x2="94" y2="593" style="stroke:#ff0000;stroke-width:1" />
    <line x1="48" y1="570" x2="48" y2="593" style="stroke:#ff0000;stroke-width:1" />
    <line x1="36" y1="570" x2="36" y2="581" style="stroke:#ff0000;stroke-width:1" />
    <line x1="59" y1="570" x2="59" y2="581" style="stroke:#ff0000;stroke-width:1" />
    <line x1="82" y1="570" x2="82" y2="581" style="stroke:#ff0000;stroke-width:1" />
    <line x1="105" y1="570" x2="105" y2="581" style="stroke:#ff0000;stroke-width:1" />
    <line x1="25" y1="570" x2="117" y2="570" style="stroke:#ff0000;stroke-width:1" />
    <line x1="25" y1="616" x2="71" y2="616" style="stroke:#ff0000;stroke-width:1" />
    <line x1="25" y1="593" x2="48" y2="593" style="stroke:#ff0000;stroke-width:1" />
    <line x1="25" y1="639" x2="48" y2="639" style="stroke:#ff0000;stroke-width:1" />
    <line x1="25" y1="650" x2="36" y2="650" style="stroke:#ff0000;stroke-width:1" />
    <line x1="25" y1="627" x2="36" y2="627" style="stroke:#ff0000;stroke-width:1" />
    <line x1="25" y1="604" x2="36" y2="604" style="stroke:#ff0000;stroke-width:1" />
    <line x1="25" y1="581" x2="36" y2="581" style="stroke:#ff0000;stroke-width:1" />
</svg>