<svg width="600" height="600" viewbox = "0 0 600 600"  xmlns="http://www.w3.org/2000/svg">
<!--<json>{
  "glyph": "0227,",
  "x0": 300,
  "y0": 300,
  "unit": 250,
  "width": 600,
  "height": 600,
  "style": {
    "color0": "black",
    "fill0": "black",
    "line0": 1,
    "color1": "black",
    "fill1": "black",
    "line1": 5,
    "color2": "red",
    "fill2": "red",
    "line2": 1,
    "color3": "#FF7900",
    "fill3": "#FF7900",
    "line3": 1,
    "color4": "yellow",
    "fill4": "yellow",
    "line4": 1,
    "color5": "green",
    "fill5": "green",
    "line5": 1,
    "color6": "blue",
    "fill6": "blue",
    "line6": 1,
    "color7": "purple",
    "fill7": "purple",
    "line7": 1
  },
  "shapes": [
    "0220:0313,0304,0336,0332,0337,0342,0336,0333,0330,0334,0337,0342,0335,0336,0331,0332,0333,0336,0332,0337,0342,0336,0333,0334,0333,0337,0342,0335,0336,0331,0336,0332,0337,0342,0336,0333,0330,0334,0337,0342,0335,0336,0331,0336,0332,0337,0342,0336,0333,0330,0334,0337,0342,0335,0336,0331,0336,0332,0337,0342,0336,0333,0330,0334,0337,0342,0335,0336,0331,0337,0337,0337,0337,0337,0336,0336,0336,0336,0336,0336,0332,0337,0342,0336,0333,0334,0333,0337,0342,0335,0336,0331,0337,0337,0337,0337,0337,0337,0332,0336,0336,0336,0330,0336,0333,0330,0337,0336,0333,0337,01304,01313,0331,0331,0333,0333,0333,0333,0333,0336,0330,0337,0337,0337,0337,",
    "0221:0304,0334,0306,0336,0330,0335,0201,0335,0335,0201,0335,0335,0201,0335,0304,0335,0336,0330,0336,0331,0332,0330,0336,0333,0337,01306,0331,0331,0336,0332,0337,0337,0337,0333,0337,",
    "0222:0350,0335,0310,0336,0201,0334,0334,0334,0336,0201,0335,0335,0335,0336,0201,0334,0334,0334,0336,0201,0335,0335,0335,0336,0201,0334,0334,0334,0336,0201,0335,0335,0335,0336,0201,0334,0334,0334,0336,0201,0335,0335,0335,0336,0201,0334,0334,0330,0335,0337,0337,0337,0337,0337,0337,0337,0337,0337,0331,0304,0313,0336,0330,0333,0336,0331,0336,0331,0332,0336,0332,0337,01304,01350,01310,0331,0331,0332,0332,0332,0332,0330,0332,0336,0332,0337,0337,0337,0337,",
    "0223:0304,0335,0330,0334,0334,0306,0350,0335,0312,0336,0313,0337,0330,0334,0334,0334,0334,0313,0336,0330,0334,0334,0334,0334,0334,0334,0330,0335,0335,0335,0335,0312,0335,0312,0336,0313,0337,0201,0335,0335,0335,0335,0335,0312,0336,0201,0334,0334,0334,0334,0334,0336,0201,0335,0335,0335,0335,0335,0336,0201,0334,0334,0334,0334,0334,0334,0335,0336,0201,0331,0335,0334,0334,0337,0330,0335,0337,0331,0334,0337,0330,0335,0337,0331,0334,0337,0330,0334,0313,0336,0312,0337,0331,0334,0334,0334,0313,0304,0313,0336,0336,0330,0333,0333,0336,0331,0332,0336,0331,0337,01312,0331,0332,0332,0332,0332,0336,0330,0337,0337,0337,0337,",
    "0224:0304,0313,0335,0311,0305,0350,0330,0334,0334,0334,0334,0336,0330,0334,0334,0330,0335,0337,0335,0335,0335,0335,0336,0330,0335,0335,0335,0336,0201,0334,0334,0334,0336,0201,0335,0335,0335,0336,0201,0334,0334,0334,0336,0201,0335,0335,0335,0336,0201,0334,0334,0334,0336,0201,0335,0335,0335,0334,0330,0334,0337,0337,0337,0337,0337,0337,0336,0331,0334,0334,0334,0330,0335,0335,0337,0331,0335,0304,0337,0334,0313,0336,0336,0336,0333,0333,0333,0336,0330,0332,0337,0336,0336,0331,0332,0337,0337,01305,01311,0331,0332,0332,0332,0332,0336,0330,0336,0330,0332,0337,0337,0337,0337,0337,",
    "0225:0313,0304,0335,0305,0311,0334,0336,0330,0335,0337,0350,0335,0330,0335,0335,0335,0335,0330,0335,0335,0335,0336,0335,0201,0335,0335,0335,0335,0336,0201,0334,0334,0334,0334,0201,0335,0335,0335,0335,0336,0201,0334,0334,0334,0334,0201,0335,0335,0335,0335,0336,0201,0334,0334,0334,0334,0201,0335,0335,0335,0335,0336,0201,0334,0334,0334,0334,0201,0335,0335,0335,0335,0336,0201,0334,0334,0334,0334,0201,0335,0335,0335,0335,0336,0201,0334,0334,0334,0334,0201,0335,0335,0335,0335,0336,0201,0334,0334,0334,0337,0330,0337,0337,0337,0337,0337,0337,0337,0331,0304,0334,0313,",
    "0226:0313,0304,0335,0306,0350,0312,0330,0334,0334,0334,0334,0334,0336,0330,0334,0334,0330,0331,0334,0336,0342,0334,0334,0342,0330,0334,0336,0331,0342,0335,0335,0335,0335,0342,0334,0336,0342,0334,0334,0342,0330,0334,0336,0331,0342,0335,0335,0335,0335,0342,0334,0336,0342,0334,0334,0342,0334,0337,0330,0335,0337,0331,0334,0337,0330,0335,0337,0331,0313,0336,0312,0335,0337,0342,0330,0335,0335,0335,0337,0330,0335,0335,0335,0313,0337,0304,0313,",
    "0227:0331,0220,0333,0332,0222,0333,0330,0332,0335,0335,0332,0223,0335,0335,0221,0312,0336,0331,0306,0334,0313,0337,0330,0335,0304,0335,0335,0336,0312,0337,0313,0304,0330,0335,0330,0335,0330,0335,0330,0334,0331,0335,0330,0334,0334,0350,0310,0337,0335,0330,0336,0335,0304,0335,0306,0334,0330,0335,0335,0330,0335,0335,0330,0335,0335,0304,0334,0226,0335,0306,0350,0334,0312,0336,0330,0335,0335,0330,0331,0334,0334,0331,0337,0313,0304,0332,0225,0335,0305,0334,0311,0336,0330,0335,0350,0335,0337,0304,0334,0224,0335,0305,0350,0334,0311,0336,0330,0335,0335,0335,0335,0335,0304,0305,0330,0334,0334,0311,0337,0330,0335,0335,0304,0335,0313,",
    "0230:0331,0200,0335,0201,0334,0334,0350,0335,0310,0337,0201,0335,0304,0335,0336,0201,0335,0312,0336,0201,0335,0306,0350,0335,0313,0337,0201,0334,0313,0336,0312,0337,0304,0335,0335,0306,0334,0201,0335,0335,0342,0335,0350,0335,0312,0336,0201,0334,0334,0201,0335,0335,0335,0337,0313,0304,0335,0332,0335,0305,0334,0311,0336,0201,0335,0350,0335,0337,0342,0334,0336,0201,0335,0335,0201,0335,0335,0335,0337,0313,0304,0335,",
    "0231:0342,0336,0333,0342,0336,0332,0342,0333,0333,0342,0336,0333,0342,0332,0332,0342,0332,0332,0342,0332,0332,0342,0333,0333,0333,0333,0333,0333,0333,0337,0337,0337,",
    "0232:0316,0336,0313,0342,0336,0333,0342,0333,0342,0333,0342,0333,0342,0333,0337,0342,0336,0333,0342,0333,0342,0333,0342,0333,0342,0333,0342,0337,0316,0337,0313,",
    "0233:0362,0203,0335,0203,0203,0203,0203,0203,0203,0335,0203,0335,0203,0203,0203,0203,0203,0203,0354,0335,",
    "0234:0314,0336,0313,0320,0233,0322,0232,0232,0232,0232,0232,0232,0334,0232,0334,0231,0231,0231,0231,0231,0231,0334,0231,0334,0314,0337,0313,",
    "0235:0322,0220,0320,0200,",
    "0236:0320,0306,0362,0203,0334,0334,0203,0334,0334,0203,0354,0334,0334,0330,0334,0350,0334,0322,0221,0335,0331,0320,",
    "0237:0304,0320,0362,0203,0350,0310,0334,0334,0334,0337,0203,0334,0334,0334,0336,0203,0354,0304,0322,0334,0334,0222,0335,0320,",
    "01220:0333,0200,0336,0330,0332,0336,0331,0333,0337,0220,0336,0331,0333,0337,0337,0320,",
    "01221:0333,0200,0336,0330,0332,0331,0336,0333,0330,0337,0221,0336,0331,0333,0337,0337,",
    "01222:0333,0200,0336,0330,0332,0336,0331,0333,0337,0332,0222,0333,0336,0333,0331,0337,0337,",
    "01223:0333,0200,0336,0336,0330,0332,0337,0223,0336,0331,0333,0337,0337,0320,",
    "01224:0333,0200,0336,0332,0330,0224,0333,0331,0337,",
    "01225:0333,0200,0336,0336,0332,0332,0330,0337,0225,0304,0333,0331,0336,0330,0337,0337,",
    "01226:0333,0200,0336,0330,0332,0332,0337,0226,0336,0331,0336,0333,0330,0333,0333,0331,0333,0337,0337,",
    "01227:0333,0200,0336,0330,0332,0210,0227,0211,0331,0333,0337,",
    "01230:0333,0200,0336,0330,0332,0336,0230,0337,0331,0333,0337,",
    "01231:0333,0200,0332,0231,",
    "01232:0333,0200,0332,0232,",
    "01233:0333,0200,0336,0332,0336,0330,0337,0330,0336,0331,0332,0332,0336,0336,0333,0331,0333,0337,0233,0331,0333,0333,0337,0331,0333,0333,0336,0333,0336,0331,0332,0333,0337,0337,0337,0337,",
    "01234:0333,0200,0336,0330,0332,0332,0234,0331,0337,0333,0320,",
    "01235:0333,0200,0235,",
    "01236:0333,0200,0236,",
    "01237:0333,0200,0237,",
    "0240:0322,0334,0223,0320,0335,0362,0203,0306,0350,0334,0334,0334,0334,0334,0312,0336,0313,0337,0203,0334,0334,0334,0334,0313,0336,0203,0354,0334,0334,0334,0312,0337,0313,0304,",
    "01240:0333,0200,0240,",
    "0241:0334,0322,0226,0320,0335,0306,0350,0312,0362,0203,0334,0334,0334,0334,0334,0336,0203,0334,0334,0203,0354,0334,0334,0334,0334,0334,0337,0313,0304,",
    "01241:0333,0200,0241,",
    "0242:0334,0322,0224,0335,0320,0305,0311,0350,0362,0203,0334,0334,0334,0334,0336,0203,0334,0334,0203,0354,0334,0334,0334,0334,0337,0313,0304,",
    "01242:0333,0200,0242,",
    "0243:0334,0322,0225,0335,0320,0305,0311,0350,0362,0203,0334,0334,0334,0334,0203,0334,0334,0334,0336,0203,0354,0334,0334,0334,0337,0313,0304,",
    "01243:0333,0200,0243,",
    "0244:0235,0335,0335,0331,0236,0334,0334,0237,0335,0306,0350,0334,0240,0306,0350,0335,0335,0331,0334,0334,0241,0334,0335,0335,0242,0334,0334,0330,0335,0335,0243,0335,0332,0332,0234,0320,0331,0331,0333,",
    "01244:0333,0200,0336,0332,0244,0333,0337,"
  ]
}</json>-->    <line x1="175" y1="550" x2="175" y2="300" style="stroke:#000000;stroke-width:1" />
    <line x1="300" y1="425" x2="50" y2="425" style="stroke:#000000;stroke-width:1" />
    <line x1="238" y1="550" x2="238" y2="425" style="stroke:#000000;stroke-width:1" />
    <line x1="300" y1="488" x2="175" y2="488" style="stroke:#000000;stroke-width:1" />
    <line x1="269" y1="550" x2="269" y2="488" style="stroke:#000000;stroke-width:1" />
    <line x1="300" y1="519" x2="238" y2="519" style="stroke:#000000;stroke-width:1" />
    <line x1="284" y1="550" x2="284" y2="519" style="stroke:#000000;stroke-width:1" />
    <line x1="300" y1="534" x2="269" y2="534" style="stroke:#000000;stroke-width:1" />
    <line x1="292" y1="550" x2="292" y2="534" style="stroke:#000000;stroke-width:1" />
    <line x1="300" y1="542" x2="284" y2="542" style="stroke:#000000;stroke-width:1" />
    <line x1="296" y1="550" x2="296" y2="542" style="stroke:#000000;stroke-width:1" />
    <line x1="300" y1="546" x2="292" y2="546" style="stroke:#000000;stroke-width:1" />
	<path d = "M113 503 L113 472 L81 472 L81 503 L113 503 Z" stroke = "#000000" stroke-width = "1" fill = "none" /><circle cx="97" cy = "488" r = "15.625" stroke = "#000000" stroke-width = "1" fill = "none" />
    <line x1="97" y1="488" x2="97" y2="472" style="stroke:#000000;stroke-width:1" />
    <line x1="97" y1="488" x2="113" y2="488" style="stroke:#000000;stroke-width:1" />
    <line x1="97" y1="488" x2="97" y2="503" style="stroke:#000000;stroke-width:1" />
    <line x1="97" y1="488" x2="81" y2="488" style="stroke:#000000;stroke-width:1" />
<circle cx="91" cy = "482" r = "3.90625" stroke = "#000000" stroke-width = "1" fill = "none" />
<circle cx="102" cy = "482" r = "3.90625" stroke = "#000000" stroke-width = "1" fill = "none" />
<circle cx="102" cy = "493" r = "3.90625" stroke = "#000000" stroke-width = "1" fill = "none" />
<circle cx="91" cy = "493" r = "3.90625" stroke = "#000000" stroke-width = "1" fill = "none" />
	<path d = "M144 503 L144 472 L113 472 L113 503 L144 503 Z" stroke = "#000000" stroke-width = "1" fill = "none" />	<path d = "M136 495 L136 488 L128 488 L120 488 L120 495 L128 495 L136 495 Z" stroke = "#000000" stroke-width = "1" fill = "none" />    <line x1="128" y1="495" x2="128" y2="488" style="stroke:#000000;stroke-width:1" />
    <line x1="300" y1="550" x2="425" y2="425" style="stroke:#000000;stroke-width:1" />
    <line x1="425" y1="425" x2="300" y2="425" style="stroke:#000000;stroke-width:1" />
    <line x1="300" y1="425" x2="363" y2="363" style="stroke:#000000;stroke-width:1" />
    <line x1="363" y1="363" x2="300" y2="363" style="stroke:#000000;stroke-width:1" />
    <line x1="300" y1="363" x2="331" y2="331" style="stroke:#000000;stroke-width:1" />
    <line x1="331" y1="331" x2="300" y2="331" style="stroke:#000000;stroke-width:1" />
    <line x1="300" y1="331" x2="316" y2="316" style="stroke:#000000;stroke-width:1" />
    <line x1="316" y1="316" x2="300" y2="316" style="stroke:#000000;stroke-width:1" />
    <line x1="300" y1="316" x2="308" y2="308" style="stroke:#000000;stroke-width:1" />
	<path d = "M409 519 L409 488 L378 488 L378 519 L409 519 Z" stroke = "#000000" stroke-width = "1" fill = "none" /><circle cx="394" cy = "503" r = "15.625" stroke = "#000000" stroke-width = "1" fill = "none" />
    <line x1="394" y1="503" x2="394" y2="488" style="stroke:#000000;stroke-width:1" />
    <line x1="394" y1="503" x2="409" y2="503" style="stroke:#000000;stroke-width:1" />
    <line x1="394" y1="503" x2="394" y2="519" style="stroke:#000000;stroke-width:1" />
    <line x1="394" y1="503" x2="378" y2="503" style="stroke:#000000;stroke-width:1" />
<circle cx="388" cy = "498" r = "3.90625" stroke = "#000000" stroke-width = "1" fill = "none" />
<circle cx="399" cy = "498" r = "3.90625" stroke = "#000000" stroke-width = "1" fill = "none" />
<circle cx="399" cy = "509" r = "3.90625" stroke = "#000000" stroke-width = "1" fill = "none" />
<circle cx="388" cy = "509" r = "3.90625" stroke = "#000000" stroke-width = "1" fill = "none" />
	<path d = "M441 519 L441 488 L409 488 L409 519 L441 519 Z" stroke = "#000000" stroke-width = "1" fill = "none" />	<path d = "M436 492 L425 503 L436 514 " stroke = "#000000" stroke-width = "1" fill = "none" />    <line x1="425" y1="503" x2="429" y2="503" style="stroke:#000000;stroke-width:1" />
    <line x1="433" y1="503" x2="437" y2="503" style="stroke:#000000;stroke-width:1" />
	<path d = "M472 519 L472 488 L441 488 L441 519 L472 519 Z" stroke = "#000000" stroke-width = "1" fill = "none" />    <line x1="456" y1="519" x2="472" y2="503" style="stroke:#000000;stroke-width:1" />
    <line x1="472" y1="503" x2="456" y2="488" style="stroke:#000000;stroke-width:1" />
    <line x1="456" y1="488" x2="441" y2="503" style="stroke:#000000;stroke-width:1" />
    <line x1="441" y1="503" x2="456" y2="519" style="stroke:#000000;stroke-width:1" />
    <line x1="550" y1="444" x2="467" y2="300" style="stroke:#000000;stroke-width:1" />
    <line x1="467" y1="300" x2="550" y2="348" style="stroke:#000000;stroke-width:1" />
    <line x1="550" y1="348" x2="522" y2="300" style="stroke:#000000;stroke-width:1" />
    <line x1="522" y1="300" x2="550" y2="316" style="stroke:#000000;stroke-width:1" />
    <line x1="550" y1="316" x2="541" y2="300" style="stroke:#000000;stroke-width:1" />
	<path d = "M425 316 L425 347 L456 347 L456 316 L425 316 Z" stroke = "#000000" stroke-width = "1" fill = "none" />	<path d = "M425 316 L441 343 L456 316 " stroke = "#000000" stroke-width = "1" fill = "none" />    <line x1="441" y1="325" x2="441" y2="343" style="stroke:#000000;stroke-width:1" />
    <line x1="441" y1="325" x2="425" y2="316" style="stroke:#000000;stroke-width:1" />
    <line x1="441" y1="325" x2="456" y2="316" style="stroke:#000000;stroke-width:1" />
    <line x1="425" y1="300" x2="362" y2="192" style="stroke:#000000;stroke-width:1" />
    <line x1="362" y1="192" x2="487" y2="192" style="stroke:#000000;stroke-width:1" />
    <line x1="487" y1="192" x2="425" y2="300" style="stroke:#000000;stroke-width:1" />
	<path d = "M441 238 L441 206 L409 206 L409 238 L441 238 Z" stroke = "#000000" stroke-width = "1" fill = "none" />    <line x1="425" y1="222" x2="425" y2="206" style="stroke:#000000;stroke-width:1" />
    <line x1="425" y1="222" x2="439" y2="214" style="stroke:#000000;stroke-width:1" />
    <line x1="425" y1="222" x2="439" y2="230" style="stroke:#000000;stroke-width:1" />
    <line x1="425" y1="222" x2="425" y2="238" style="stroke:#000000;stroke-width:1" />
    <line x1="425" y1="222" x2="411" y2="230" style="stroke:#000000;stroke-width:1" />
<circle cx="425" cy = "222" r = "15.625" stroke = "#000000" stroke-width = "1" fill = "none" />
<circle cx="421" cy = "215" r = "1.953125" stroke = "#000000" stroke-width = "1" fill = "none" />
<circle cx="429" cy = "215" r = "1.953125" stroke = "#000000" stroke-width = "1" fill = "none" />
<circle cx="433" cy = "222" r = "1.953125" stroke = "#000000" stroke-width = "1" fill = "none" />
<circle cx="429" cy = "229" r = "1.953125" stroke = "#000000" stroke-width = "1" fill = "none" />
<circle cx="421" cy = "229" r = "1.953125" stroke = "#000000" stroke-width = "1" fill = "none" />
    <line x1="425" y1="222" x2="411" y2="214" style="stroke:#000000;stroke-width:1" />
<circle cx="417" cy = "222" r = "1.953125" stroke = "#000000" stroke-width = "1" fill = "none" />
    <line x1="300" y1="156" x2="342" y2="228" style="stroke:#000000;stroke-width:1" />
    <line x1="300" y1="156" x2="383" y2="156" style="stroke:#000000;stroke-width:1" />
    <line x1="342" y1="180" x2="383" y2="156" style="stroke:#000000;stroke-width:1" />
    <line x1="342" y1="180" x2="342" y2="228" style="stroke:#000000;stroke-width:1" />
    <line x1="342" y1="180" x2="356" y2="204" style="stroke:#000000;stroke-width:1" />
    <line x1="342" y1="180" x2="369" y2="180" style="stroke:#000000;stroke-width:1" />
    <line x1="356" y1="188" x2="369" y2="180" style="stroke:#000000;stroke-width:1" />
    <line x1="356" y1="188" x2="356" y2="204" style="stroke:#000000;stroke-width:1" />
    <line x1="356" y1="188" x2="360" y2="196" style="stroke:#000000;stroke-width:1" />
    <line x1="356" y1="188" x2="365" y2="188" style="stroke:#000000;stroke-width:1" />
    <line x1="300" y1="156" x2="362" y2="192" style="stroke:#000000;stroke-width:1" />
    <line x1="50" y1="300" x2="175" y2="209" style="stroke:#000000;stroke-width:1" />
    <line x1="175" y1="209" x2="145" y2="300" style="stroke:#000000;stroke-width:1" />
    <line x1="145" y1="300" x2="223" y2="244" style="stroke:#000000;stroke-width:1" />
    <line x1="223" y1="244" x2="205" y2="300" style="stroke:#000000;stroke-width:1" />
    <line x1="205" y1="300" x2="252" y2="265" style="stroke:#000000;stroke-width:1" />
    <line x1="252" y1="265" x2="241" y2="300" style="stroke:#000000;stroke-width:1" />
    <line x1="241" y1="300" x2="270" y2="279" style="stroke:#000000;stroke-width:1" />
    <line x1="270" y1="279" x2="264" y2="300" style="stroke:#000000;stroke-width:1" />
    <line x1="264" y1="300" x2="282" y2="287" style="stroke:#000000;stroke-width:1" />
    <line x1="282" y1="287" x2="277" y2="300" style="stroke:#000000;stroke-width:1" />
    <line x1="277" y1="300" x2="289" y2="292" style="stroke:#000000;stroke-width:1" />
    <line x1="289" y1="292" x2="286" y2="300" style="stroke:#000000;stroke-width:1" />
    <line x1="286" y1="300" x2="293" y2="295" style="stroke:#000000;stroke-width:1" />
    <line x1="293" y1="295" x2="291" y2="300" style="stroke:#000000;stroke-width:1" />
    <line x1="252" y1="153" x2="223" y2="244" style="stroke:#000000;stroke-width:1" />
    <line x1="223" y1="244" x2="282" y2="244" style="stroke:#000000;stroke-width:1" />
    <line x1="282" y1="244" x2="270" y2="279" style="stroke:#000000;stroke-width:1" />
    <line x1="270" y1="279" x2="293" y2="279" style="stroke:#000000;stroke-width:1" />
    <line x1="293" y1="279" x2="289" y2="292" style="stroke:#000000;stroke-width:1" />
    <line x1="289" y1="292" x2="297" y2="292" style="stroke:#000000;stroke-width:1" />
	<path d = "M185 206 L203 181 L178 163 L159 188 L185 206 Z" stroke = "#000000" stroke-width = "1" fill = "none" />    <line x1="181" y1="185" x2="190" y2="172" style="stroke:#000000;stroke-width:1" />
    <line x1="181" y1="185" x2="196" y2="189" style="stroke:#000000;stroke-width:1" />
    <line x1="181" y1="185" x2="181" y2="200" style="stroke:#000000;stroke-width:1" />
    <line x1="181" y1="185" x2="166" y2="189" style="stroke:#000000;stroke-width:1" />
    <line x1="181" y1="185" x2="172" y2="172" style="stroke:#000000;stroke-width:1" />
<circle cx="181" cy = "185" r = "15.624999999999996" stroke = "#000000" stroke-width = "1" fill = "none" />
<circle cx="188" cy = "182" r = "1.9531249999999996" stroke = "#000000" stroke-width = "1" fill = "none" />
<circle cx="186" cy = "191" r = "1.9531249999999996" stroke = "#000000" stroke-width = "1" fill = "none" />
<circle cx="176" cy = "191" r = "1.9531249999999996" stroke = "#000000" stroke-width = "1" fill = "none" />
<circle cx="174" cy = "182" r = "1.9531249999999996" stroke = "#000000" stroke-width = "1" fill = "none" />
<circle cx="181" cy = "177" r = "1.9531249999999996" stroke = "#000000" stroke-width = "1" fill = "none" />
	<path d = "M210 225 L228 200 L203 181 L185 206 L210 225 Z" stroke = "#000000" stroke-width = "1" fill = "none" />	<path d = "M210 225 L225 177 L185 206 L210 225 Z" stroke = "#000000" stroke-width = "1" fill = "none" />    <line x1="210" y1="225" x2="200" y2="195" style="stroke:#000000;stroke-width:1" />
    <line x1="200" y1="195" x2="219" y2="195" style="stroke:#000000;stroke-width:1" />
    <line x1="219" y1="195" x2="216" y2="184" style="stroke:#000000;stroke-width:1" />
</svg>