<svg width="400" height="400" viewbox = "0 0 400 400"  xmlns="http://www.w3.org/2000/svg">
<!--<json>{
  "glyph": "0322,0220,0333,0221,0334,0320,0306,0335,0362,0203,0334,0334,0203,0334,0334,0203,0354,0331,0304,0335,0335,0335,0200,0330,0332,0234,0331,0335,0335,0332,0222,0320,0350,0310,0362,0203,0335,0335,0335,0337,0203,0364,0334,0336,0304,0331,0334,0334,0322,0223,0320,0333,0334,0306,0350,0312,0336,0313,0337,0335,0342,0334,0313,0336,0312,0337,0330,0304,0335,0330,0334,0306,0350,0334,0335,0335,0335,0335,0335,0335,0331,0334,0334,0334,0322,0226,0306,0350,0335,0335,0320,0312,0336,0362,0203,0335,0335,0203,0364,0335,0335,0335,0337,0313,0304,0335,0330,0332,0314,0336,0330,0337,0313,0334,0305,0335,0322,0224,0335,0305,0350,0334,0311,0336,0320,0362,0203,0335,0335,0203,0335,0335,0335,0335,0337,0203,0354,0335,0335,0334,0334,0334,0311,0336,0331,0330,0335,0335,0335,0335,0335,0334,0304,0337,0332,0322,0225,0335,0305,0350,0334,0334,0311,0336,0320,0362,0203,0335,0335,0335,0337,0203,0364,",
  "x0": 200,
  "y0": 266.55,
  "unit": 129.68712300500013,
  "width": 400,
  "height": 400,
  "style": {
    "color0": "black",
    "fill0": "black",
    "line0": 1,
    "color1": "black",
    "fill1": "black",
    "line1": 5,
    "color2": "red",
    "fill2": "red",
    "line2": 1,
    "color3": "#FF7900",
    "fill3": "#FF7900",
    "line3": 1,
    "color4": "yellow",
    "fill4": "yellow",
    "line4": 1,
    "color5": "green",
    "fill5": "green",
    "line5": 1,
    "color6": "blue",
    "fill6": "blue",
    "line6": 1,
    "color7": "purple",
    "fill7": "purple",
    "line7": 1
  },
  "shapes": [
    "0220:0313,0304,0336,0332,0337,0342,0336,0333,0330,0334,0337,0342,0335,0336,0331,0332,0333,0336,0332,0337,0342,0336,0333,0334,0333,0337,0342,0335,0336,0331,0336,0332,0337,0342,0336,0333,0330,0334,0337,0342,0335,0336,0331,0336,0332,0337,0342,0336,0333,0330,0334,0337,0342,0335,0336,0331,0336,0332,0337,0342,0336,0333,0330,0334,0337,0342,0335,0336,0331,0337,0337,0337,0337,0337,0336,0336,0336,0336,0336,0336,0332,0337,0342,0336,0333,0334,0333,0337,0342,0335,0336,0331,0337,0337,0337,0337,0337,0337,0332,0336,0336,0336,0330,0336,0333,0330,0337,0336,0333,0337,01304,01313,0331,0331,0333,0333,0333,0333,0333,0336,0330,0337,0337,0337,0337,",
    "0221:0304,0334,0306,0336,0330,0335,0201,0335,0335,0201,0335,0335,0201,0335,0304,0335,0336,0330,0336,0331,0332,0330,0336,0333,0337,01306,0331,0331,0336,0332,0337,0337,0337,0333,0337,",
    "0222:0350,0335,0310,0336,0201,0334,0334,0334,0336,0201,0335,0335,0335,0336,0201,0334,0334,0334,0336,0201,0335,0335,0335,0336,0201,0334,0334,0334,0336,0201,0335,0335,0335,0336,0201,0334,0334,0334,0336,0201,0335,0335,0335,0336,0201,0334,0334,0330,0335,0337,0337,0337,0337,0337,0337,0337,0337,0337,0331,0304,0313,0336,0330,0333,0336,0331,0336,0331,0332,0336,0332,0337,01304,01350,01310,0331,0331,0332,0332,0332,0332,0330,0332,0336,0332,0337,0337,0337,0337,",
    "0223:0304,0335,0330,0334,0334,0306,0350,0335,0312,0336,0313,0337,0330,0334,0334,0334,0334,0313,0336,0330,0334,0334,0334,0334,0334,0334,0330,0335,0335,0335,0335,0312,0335,0312,0336,0313,0337,0201,0335,0335,0335,0335,0335,0312,0336,0201,0334,0334,0334,0334,0334,0336,0201,0335,0335,0335,0335,0335,0336,0201,0334,0334,0334,0334,0334,0334,0335,0336,0201,0331,0335,0334,0334,0337,0330,0335,0337,0331,0334,0337,0330,0335,0337,0331,0334,0337,0330,0334,0313,0336,0312,0337,0331,0334,0334,0334,0313,0304,0313,0336,0336,0330,0333,0333,0336,0331,0332,0336,0331,0337,01312,0331,0332,0332,0332,0332,0336,0330,0337,0337,0337,0337,",
    "0224:0304,0313,0335,0311,0305,0350,0330,0334,0334,0334,0334,0336,0330,0334,0334,0330,0335,0337,0335,0335,0335,0335,0336,0330,0335,0335,0335,0336,0201,0334,0334,0334,0336,0201,0335,0335,0335,0336,0201,0334,0334,0334,0336,0201,0335,0335,0335,0336,0201,0334,0334,0334,0336,0201,0335,0335,0335,0334,0330,0334,0337,0337,0337,0337,0337,0337,0336,0331,0334,0334,0334,0330,0335,0335,0337,0331,0335,0304,0337,0334,0313,0336,0336,0336,0333,0333,0333,0336,0330,0332,0337,0336,0336,0331,0332,0337,0337,01305,01311,0331,0332,0332,0332,0332,0336,0330,0336,0330,0332,0337,0337,0337,0337,0337,",
    "0225:0313,0304,0335,0305,0311,0334,0336,0330,0335,0337,0350,0335,0330,0335,0335,0335,0335,0330,0335,0335,0335,0336,0335,0201,0335,0335,0335,0335,0336,0201,0334,0334,0334,0334,0201,0335,0335,0335,0335,0336,0201,0334,0334,0334,0334,0201,0335,0335,0335,0335,0336,0201,0334,0334,0334,0334,0201,0335,0335,0335,0335,0336,0201,0334,0334,0334,0334,0201,0335,0335,0335,0335,0336,0201,0334,0334,0334,0334,0201,0335,0335,0335,0335,0336,0201,0334,0334,0334,0334,0201,0335,0335,0335,0335,0336,0201,0334,0334,0334,0337,0330,0337,0337,0337,0337,0337,0337,0337,0331,0304,0334,0313,",
    "0226:0313,0304,0335,0306,0350,0312,0330,0334,0334,0334,0334,0334,0336,0330,0334,0334,0330,0331,0334,0336,0342,0334,0334,0342,0330,0334,0336,0331,0342,0335,0335,0335,0335,0342,0334,0336,0342,0334,0334,0342,0330,0334,0336,0331,0342,0335,0335,0335,0335,0342,0334,0336,0342,0334,0334,0342,0334,0337,0330,0335,0337,0331,0334,0337,0330,0335,0337,0331,0313,0336,0312,0335,0337,0342,0330,0335,0335,0335,0337,0330,0335,0335,0335,0313,0337,0304,0313,",
    "0227:0331,0220,0333,0332,0222,0333,0330,0332,0335,0335,0332,0223,0335,0335,0221,0312,0336,0331,0306,0334,0313,0337,0330,0335,0304,0335,0335,0336,0312,0337,0313,0304,0330,0335,0330,0335,0330,0335,0330,0334,0331,0335,0330,0334,0334,0350,0310,0337,0335,0330,0336,0335,0304,0335,0306,0334,0330,0335,0335,0330,0335,0335,0330,0335,0335,0304,0334,0226,0335,0306,0350,0334,0312,0336,0330,0335,0335,0330,0331,0334,0334,0331,0337,0313,0304,0332,0225,0335,0305,0334,0311,0336,0330,0335,0350,0335,0337,0304,0334,0224,0335,0305,0350,0334,0311,0336,0330,0335,0335,0335,0335,0335,0304,0305,0330,0334,0334,0311,0337,0330,0335,0335,0304,0335,0313,",
    "0230:0331,0200,0335,0201,0334,0334,0350,0335,0310,0337,0201,0335,0304,0335,0336,0201,0335,0312,0336,0201,0335,0306,0350,0335,0313,0337,0201,0334,0313,0336,0312,0337,0304,0335,0335,0306,0334,0201,0335,0335,0342,0335,0350,0335,0312,0336,0201,0334,0334,0201,0335,0335,0335,0337,0313,0304,0335,0332,0335,0305,0334,0311,0336,0201,0335,0350,0335,0337,0342,0334,0336,0201,0335,0335,0201,0335,0335,0335,0337,0313,0304,0335,",
    "0231:0342,0336,0333,0342,0336,0332,0342,0333,0333,0342,0336,0333,0342,0332,0332,0342,0332,0332,0342,0332,0332,0342,0333,0333,0333,0333,0333,0333,0333,0337,0337,0337,",
    "0232:0316,0336,0313,0342,0336,0333,0342,0333,0342,0333,0342,0333,0342,0333,0337,0342,0336,0333,0342,0333,0342,0333,0342,0333,0342,0333,0342,0337,0316,0337,0313,",
    "0233:0362,0203,0335,0203,0203,0203,0203,0203,0203,0335,0203,0335,0203,0203,0203,0203,0203,0203,0354,0335,",
    "0234:0314,0336,0313,0320,0233,0322,0232,0232,0232,0232,0232,0232,0334,0232,0334,0231,0231,0231,0231,0231,0231,0334,0231,0334,0314,0337,0313,",
    "01220:0333,0200,0336,0330,0332,0336,0331,0333,0337,0220,0336,0331,0333,0337,0337,0320,",
    "01221:0333,0200,0336,0330,0332,0331,0336,0333,0330,0337,0221,0336,0331,0333,0337,0337,",
    "01222:0333,0200,0336,0330,0332,0336,0331,0333,0337,0332,0222,0333,0336,0333,0331,0337,0337,",
    "01223:0333,0200,0336,0336,0330,0332,0337,0223,0336,0331,0333,0337,0337,0320,",
    "01224:0333,0200,0336,0332,0330,0224,0333,0331,0337,",
    "01225:0333,0200,0336,0336,0332,0332,0330,0337,0225,0304,0333,0331,0336,0330,0337,0337,",
    "01226:0333,0200,0336,0330,0332,0332,0337,0226,0336,0331,0336,0333,0330,0333,0333,0331,0333,0337,0337,",
    "01227:0333,0200,0336,0330,0332,0210,0227,0211,0331,0333,0337,",
    "01230:0333,0200,0336,0330,0332,0336,0230,0337,0331,0333,0337,",
    "01231:0333,0200,0332,0231,",
    "01232:0333,0200,0332,0232,",
    "01233:0333,0200,0336,0332,0336,0330,0337,0330,0336,0331,0332,0332,0336,0336,0333,0331,0333,0337,0233,0331,0333,0333,0337,0331,0333,0333,0336,0333,0336,0331,0332,0333,0337,0337,0337,0337,",
    "01234:0333,0200,0336,0330,0332,0332,0234,0331,0337,0333,0320,",
    "01235:0333,0200,",
    "01236:0333,0200,",
    "01237:0333,0200,"
  ]
}</json>-->    <line x1="135" y1="267" x2="135" y2="137" style="stroke:#ff0000;stroke-width:1" />
    <line x1="200" y1="202" x2="70" y2="202" style="stroke:#ff0000;stroke-width:1" />
    <line x1="168" y1="267" x2="168" y2="202" style="stroke:#ff0000;stroke-width:1" />
    <line x1="200" y1="234" x2="135" y2="234" style="stroke:#ff0000;stroke-width:1" />
    <line x1="184" y1="267" x2="184" y2="234" style="stroke:#ff0000;stroke-width:1" />
    <line x1="200" y1="250" x2="168" y2="250" style="stroke:#ff0000;stroke-width:1" />
    <line x1="192" y1="267" x2="192" y2="250" style="stroke:#ff0000;stroke-width:1" />
    <line x1="200" y1="258" x2="184" y2="258" style="stroke:#ff0000;stroke-width:1" />
    <line x1="196" y1="267" x2="196" y2="258" style="stroke:#ff0000;stroke-width:1" />
    <line x1="200" y1="262" x2="192" y2="262" style="stroke:#ff0000;stroke-width:1" />
    <line x1="198" y1="267" x2="198" y2="262" style="stroke:#ff0000;stroke-width:1" />
    <line x1="200" y1="265" x2="196" y2="265" style="stroke:#ff0000;stroke-width:1" />
	<path d = "M103 242 L103 226 L87 226 L87 242 L103 242 Z" stroke = "#ff0000" stroke-width = "1" fill = "none" /><circle cx="95" cy = "234" r = "8.105445187812508" stroke = "#ff0000" stroke-width = "1" fill = "none" />
    <line x1="95" y1="234" x2="95" y2="226" style="stroke:#ff0000;stroke-width:1" />
    <line x1="95" y1="234" x2="103" y2="234" style="stroke:#ff0000;stroke-width:1" />
    <line x1="95" y1="234" x2="95" y2="242" style="stroke:#ff0000;stroke-width:1" />
    <line x1="95" y1="234" x2="87" y2="234" style="stroke:#ff0000;stroke-width:1" />
<circle cx="92" cy = "231" r = "2.026361296953127" stroke = "#ff0000" stroke-width = "1" fill = "none" />
<circle cx="97" cy = "231" r = "2.026361296953127" stroke = "#ff0000" stroke-width = "1" fill = "none" />
<circle cx="97" cy = "237" r = "2.026361296953127" stroke = "#ff0000" stroke-width = "1" fill = "none" />
<circle cx="92" cy = "237" r = "2.026361296953127" stroke = "#ff0000" stroke-width = "1" fill = "none" />
	<path d = "M119 242 L119 226 L103 226 L103 242 L119 242 Z" stroke = "#ff0000" stroke-width = "1" fill = "none" />	<path d = "M115 238 L115 234 L111 234 L107 234 L107 238 L111 238 L115 238 Z" stroke = "#ff0000" stroke-width = "1" fill = "none" />    <line x1="111" y1="238" x2="111" y2="234" style="stroke:#ff0000;stroke-width:1" />
    <line x1="265" y1="267" x2="232" y2="210" style="stroke:#ff0000;stroke-width:1" />
    <line x1="232" y1="210" x2="297" y2="210" style="stroke:#ff0000;stroke-width:1" />
    <line x1="297" y1="210" x2="265" y2="267" style="stroke:#ff0000;stroke-width:1" />
	<path d = "M273 234 L273 218 L257 218 L257 234 L273 234 Z" stroke = "#ff0000" stroke-width = "1" fill = "none" />    <line x1="265" y1="226" x2="265" y2="218" style="stroke:#ff0000;stroke-width:1" />
    <line x1="265" y1="226" x2="272" y2="222" style="stroke:#ff0000;stroke-width:1" />
    <line x1="265" y1="226" x2="272" y2="230" style="stroke:#ff0000;stroke-width:1" />
    <line x1="265" y1="226" x2="265" y2="234" style="stroke:#ff0000;stroke-width:1" />
    <line x1="265" y1="226" x2="258" y2="230" style="stroke:#ff0000;stroke-width:1" />
<circle cx="265" cy = "226" r = "8.105445187812508" stroke = "#ff0000" stroke-width = "1" fill = "none" />
<circle cx="263" cy = "223" r = "1.0131806484765635" stroke = "#ff0000" stroke-width = "1" fill = "none" />
<circle cx="267" cy = "223" r = "1.0131806484765635" stroke = "#ff0000" stroke-width = "1" fill = "none" />
<circle cx="269" cy = "226" r = "1.0131806484765635" stroke = "#ff0000" stroke-width = "1" fill = "none" />
<circle cx="267" cy = "230" r = "1.0131806484765635" stroke = "#ff0000" stroke-width = "1" fill = "none" />
<circle cx="263" cy = "230" r = "1.0131806484765635" stroke = "#ff0000" stroke-width = "1" fill = "none" />
    <line x1="265" y1="226" x2="258" y2="222" style="stroke:#ff0000;stroke-width:1" />
<circle cx="261" cy = "226" r = "1.0131806484765635" stroke = "#ff0000" stroke-width = "1" fill = "none" />
	<path d = "M330 267 L265 154 L200 267 L330 267 Z" stroke = "#000000" stroke-width = "1" fill = "none" />	<path d = "M200 267 L200 137 L70 137 L70 267 L200 267 Z" stroke = "#000000" stroke-width = "1" fill = "none" />	<path d = "M70 137 L70 94 L114 94 L157 94 L200 94 L243 94 L286 94 L330 94 L330 137 L286 137 L243 137 L200 137 L157 137 L114 137 L70 137 Z" stroke = "#000000" stroke-width = "1" fill = "none" />    <line x1="70" y1="137" x2="70" y2="128" style="stroke:#ff0000;stroke-width:1" />
    <line x1="75" y1="137" x2="75" y2="133" style="stroke:#ff0000;stroke-width:1" />
    <line x1="79" y1="137" x2="79" y2="133" style="stroke:#ff0000;stroke-width:1" />
    <line x1="83" y1="137" x2="83" y2="133" style="stroke:#ff0000;stroke-width:1" />
    <line x1="88" y1="137" x2="88" y2="133" style="stroke:#ff0000;stroke-width:1" />
    <line x1="92" y1="137" x2="92" y2="128" style="stroke:#ff0000;stroke-width:1" />
    <line x1="96" y1="137" x2="96" y2="133" style="stroke:#ff0000;stroke-width:1" />
    <line x1="101" y1="137" x2="101" y2="133" style="stroke:#ff0000;stroke-width:1" />
    <line x1="105" y1="137" x2="105" y2="133" style="stroke:#ff0000;stroke-width:1" />
    <line x1="109" y1="137" x2="109" y2="133" style="stroke:#ff0000;stroke-width:1" />
    <line x1="114" y1="137" x2="114" y2="133" style="stroke:#ff0000;stroke-width:1" />
    <line x1="114" y1="137" x2="114" y2="128" style="stroke:#ff0000;stroke-width:1" />
    <line x1="118" y1="137" x2="118" y2="133" style="stroke:#ff0000;stroke-width:1" />
    <line x1="122" y1="137" x2="122" y2="133" style="stroke:#ff0000;stroke-width:1" />
    <line x1="127" y1="137" x2="127" y2="133" style="stroke:#ff0000;stroke-width:1" />
    <line x1="131" y1="137" x2="131" y2="133" style="stroke:#ff0000;stroke-width:1" />
    <line x1="135" y1="137" x2="135" y2="128" style="stroke:#ff0000;stroke-width:1" />
    <line x1="139" y1="137" x2="139" y2="133" style="stroke:#ff0000;stroke-width:1" />
    <line x1="144" y1="137" x2="144" y2="133" style="stroke:#ff0000;stroke-width:1" />
    <line x1="148" y1="137" x2="148" y2="133" style="stroke:#ff0000;stroke-width:1" />
    <line x1="152" y1="137" x2="152" y2="133" style="stroke:#ff0000;stroke-width:1" />
    <line x1="157" y1="137" x2="157" y2="133" style="stroke:#ff0000;stroke-width:1" />
    <line x1="157" y1="137" x2="157" y2="128" style="stroke:#ff0000;stroke-width:1" />
    <line x1="161" y1="137" x2="161" y2="133" style="stroke:#ff0000;stroke-width:1" />
    <line x1="165" y1="137" x2="165" y2="133" style="stroke:#ff0000;stroke-width:1" />
    <line x1="170" y1="137" x2="170" y2="133" style="stroke:#ff0000;stroke-width:1" />
    <line x1="174" y1="137" x2="174" y2="133" style="stroke:#ff0000;stroke-width:1" />
    <line x1="178" y1="137" x2="178" y2="128" style="stroke:#ff0000;stroke-width:1" />
    <line x1="183" y1="137" x2="183" y2="133" style="stroke:#ff0000;stroke-width:1" />
    <line x1="187" y1="137" x2="187" y2="133" style="stroke:#ff0000;stroke-width:1" />
    <line x1="191" y1="137" x2="191" y2="133" style="stroke:#ff0000;stroke-width:1" />
    <line x1="196" y1="137" x2="196" y2="133" style="stroke:#ff0000;stroke-width:1" />
    <line x1="200" y1="137" x2="200" y2="133" style="stroke:#ff0000;stroke-width:1" />
    <line x1="200" y1="137" x2="200" y2="128" style="stroke:#ff0000;stroke-width:1" />
    <line x1="204" y1="137" x2="204" y2="133" style="stroke:#ff0000;stroke-width:1" />
    <line x1="209" y1="137" x2="209" y2="133" style="stroke:#ff0000;stroke-width:1" />
    <line x1="213" y1="137" x2="213" y2="133" style="stroke:#ff0000;stroke-width:1" />
    <line x1="217" y1="137" x2="217" y2="133" style="stroke:#ff0000;stroke-width:1" />
    <line x1="222" y1="137" x2="222" y2="128" style="stroke:#ff0000;stroke-width:1" />
    <line x1="226" y1="137" x2="226" y2="133" style="stroke:#ff0000;stroke-width:1" />
    <line x1="230" y1="137" x2="230" y2="133" style="stroke:#ff0000;stroke-width:1" />
    <line x1="235" y1="137" x2="235" y2="133" style="stroke:#ff0000;stroke-width:1" />
    <line x1="239" y1="137" x2="239" y2="133" style="stroke:#ff0000;stroke-width:1" />
    <line x1="243" y1="137" x2="243" y2="133" style="stroke:#ff0000;stroke-width:1" />
    <line x1="243" y1="137" x2="243" y2="128" style="stroke:#ff0000;stroke-width:1" />
    <line x1="248" y1="137" x2="248" y2="133" style="stroke:#ff0000;stroke-width:1" />
    <line x1="252" y1="137" x2="252" y2="133" style="stroke:#ff0000;stroke-width:1" />
    <line x1="256" y1="137" x2="256" y2="133" style="stroke:#ff0000;stroke-width:1" />
    <line x1="261" y1="137" x2="261" y2="133" style="stroke:#ff0000;stroke-width:1" />
    <line x1="265" y1="137" x2="265" y2="128" style="stroke:#ff0000;stroke-width:1" />
    <line x1="269" y1="137" x2="269" y2="133" style="stroke:#ff0000;stroke-width:1" />
    <line x1="273" y1="137" x2="273" y2="133" style="stroke:#ff0000;stroke-width:1" />
    <line x1="278" y1="137" x2="278" y2="133" style="stroke:#ff0000;stroke-width:1" />
    <line x1="282" y1="137" x2="282" y2="133" style="stroke:#ff0000;stroke-width:1" />
    <line x1="286" y1="137" x2="286" y2="133" style="stroke:#ff0000;stroke-width:1" />
    <line x1="286" y1="137" x2="286" y2="128" style="stroke:#ff0000;stroke-width:1" />
    <line x1="291" y1="137" x2="291" y2="133" style="stroke:#ff0000;stroke-width:1" />
    <line x1="295" y1="137" x2="295" y2="133" style="stroke:#ff0000;stroke-width:1" />
    <line x1="299" y1="137" x2="299" y2="133" style="stroke:#ff0000;stroke-width:1" />
    <line x1="304" y1="137" x2="304" y2="133" style="stroke:#ff0000;stroke-width:1" />
    <line x1="308" y1="137" x2="308" y2="128" style="stroke:#ff0000;stroke-width:1" />
    <line x1="312" y1="137" x2="312" y2="133" style="stroke:#ff0000;stroke-width:1" />
    <line x1="317" y1="137" x2="317" y2="133" style="stroke:#ff0000;stroke-width:1" />
    <line x1="321" y1="137" x2="321" y2="133" style="stroke:#ff0000;stroke-width:1" />
    <line x1="325" y1="137" x2="325" y2="133" style="stroke:#ff0000;stroke-width:1" />
    <line x1="330" y1="137" x2="330" y2="133" style="stroke:#ff0000;stroke-width:1" />
    <line x1="330" y1="137" x2="321" y2="137" style="stroke:#ff0000;stroke-width:1" />
    <line x1="330" y1="133" x2="325" y2="133" style="stroke:#ff0000;stroke-width:1" />
    <line x1="330" y1="128" x2="325" y2="128" style="stroke:#ff0000;stroke-width:1" />
    <line x1="330" y1="124" x2="325" y2="124" style="stroke:#ff0000;stroke-width:1" />
    <line x1="330" y1="120" x2="325" y2="120" style="stroke:#ff0000;stroke-width:1" />
    <line x1="330" y1="115" x2="321" y2="115" style="stroke:#ff0000;stroke-width:1" />
    <line x1="330" y1="111" x2="325" y2="111" style="stroke:#ff0000;stroke-width:1" />
    <line x1="330" y1="107" x2="325" y2="107" style="stroke:#ff0000;stroke-width:1" />
    <line x1="330" y1="102" x2="325" y2="102" style="stroke:#ff0000;stroke-width:1" />
    <line x1="330" y1="98" x2="325" y2="98" style="stroke:#ff0000;stroke-width:1" />
    <line x1="330" y1="94" x2="325" y2="94" style="stroke:#ff0000;stroke-width:1" />
    <line x1="330" y1="94" x2="330" y2="137" style="stroke:#ff0000;stroke-width:1" />
    <line x1="308" y1="94" x2="308" y2="115" style="stroke:#ff0000;stroke-width:1" />
    <line x1="319" y1="94" x2="319" y2="104" style="stroke:#ff0000;stroke-width:1" />
    <line x1="297" y1="94" x2="297" y2="104" style="stroke:#ff0000;stroke-width:1" />
    <line x1="292" y1="94" x2="292" y2="99" style="stroke:#ff0000;stroke-width:1" />
    <line x1="303" y1="94" x2="303" y2="99" style="stroke:#ff0000;stroke-width:1" />
    <line x1="313" y1="94" x2="313" y2="99" style="stroke:#ff0000;stroke-width:1" />
    <line x1="324" y1="94" x2="324" y2="99" style="stroke:#ff0000;stroke-width:1" />
    <line x1="286" y1="94" x2="286" y2="137" style="stroke:#ff0000;stroke-width:1" />
    <line x1="265" y1="94" x2="265" y2="115" style="stroke:#ff0000;stroke-width:1" />
    <line x1="276" y1="94" x2="276" y2="104" style="stroke:#ff0000;stroke-width:1" />
    <line x1="254" y1="94" x2="254" y2="104" style="stroke:#ff0000;stroke-width:1" />
    <line x1="249" y1="94" x2="249" y2="99" style="stroke:#ff0000;stroke-width:1" />
    <line x1="259" y1="94" x2="259" y2="99" style="stroke:#ff0000;stroke-width:1" />
    <line x1="270" y1="94" x2="270" y2="99" style="stroke:#ff0000;stroke-width:1" />
    <line x1="281" y1="94" x2="281" y2="99" style="stroke:#ff0000;stroke-width:1" />
    <line x1="243" y1="94" x2="243" y2="137" style="stroke:#ff0000;stroke-width:1" />
    <line x1="222" y1="94" x2="222" y2="115" style="stroke:#ff0000;stroke-width:1" />
    <line x1="232" y1="94" x2="232" y2="104" style="stroke:#ff0000;stroke-width:1" />
    <line x1="211" y1="94" x2="211" y2="104" style="stroke:#ff0000;stroke-width:1" />
    <line x1="205" y1="94" x2="205" y2="99" style="stroke:#ff0000;stroke-width:1" />
    <line x1="216" y1="94" x2="216" y2="99" style="stroke:#ff0000;stroke-width:1" />
    <line x1="227" y1="94" x2="227" y2="99" style="stroke:#ff0000;stroke-width:1" />
    <line x1="238" y1="94" x2="238" y2="99" style="stroke:#ff0000;stroke-width:1" />
    <line x1="200" y1="94" x2="200" y2="137" style="stroke:#ff0000;stroke-width:1" />
    <line x1="178" y1="94" x2="178" y2="115" style="stroke:#ff0000;stroke-width:1" />
    <line x1="189" y1="94" x2="189" y2="104" style="stroke:#ff0000;stroke-width:1" />
    <line x1="168" y1="94" x2="168" y2="104" style="stroke:#ff0000;stroke-width:1" />
    <line x1="162" y1="94" x2="162" y2="99" style="stroke:#ff0000;stroke-width:1" />
    <line x1="173" y1="94" x2="173" y2="99" style="stroke:#ff0000;stroke-width:1" />
    <line x1="184" y1="94" x2="184" y2="99" style="stroke:#ff0000;stroke-width:1" />
    <line x1="195" y1="94" x2="195" y2="99" style="stroke:#ff0000;stroke-width:1" />
    <line x1="157" y1="94" x2="157" y2="137" style="stroke:#ff0000;stroke-width:1" />
    <line x1="135" y1="94" x2="135" y2="115" style="stroke:#ff0000;stroke-width:1" />
    <line x1="146" y1="94" x2="146" y2="104" style="stroke:#ff0000;stroke-width:1" />
    <line x1="124" y1="94" x2="124" y2="104" style="stroke:#ff0000;stroke-width:1" />
    <line x1="119" y1="94" x2="119" y2="99" style="stroke:#ff0000;stroke-width:1" />
    <line x1="130" y1="94" x2="130" y2="99" style="stroke:#ff0000;stroke-width:1" />
    <line x1="141" y1="94" x2="141" y2="99" style="stroke:#ff0000;stroke-width:1" />
    <line x1="151" y1="94" x2="151" y2="99" style="stroke:#ff0000;stroke-width:1" />
    <line x1="114" y1="94" x2="114" y2="137" style="stroke:#ff0000;stroke-width:1" />
    <line x1="92" y1="94" x2="92" y2="115" style="stroke:#ff0000;stroke-width:1" />
    <line x1="103" y1="94" x2="103" y2="104" style="stroke:#ff0000;stroke-width:1" />
    <line x1="81" y1="94" x2="81" y2="104" style="stroke:#ff0000;stroke-width:1" />
    <line x1="76" y1="94" x2="76" y2="99" style="stroke:#ff0000;stroke-width:1" />
    <line x1="87" y1="94" x2="87" y2="99" style="stroke:#ff0000;stroke-width:1" />
    <line x1="97" y1="94" x2="97" y2="99" style="stroke:#ff0000;stroke-width:1" />
    <line x1="108" y1="94" x2="108" y2="99" style="stroke:#ff0000;stroke-width:1" />
    <line x1="70" y1="94" x2="114" y2="94" style="stroke:#ff0000;stroke-width:1" />
    <line x1="70" y1="115" x2="92" y2="115" style="stroke:#ff0000;stroke-width:1" />
    <line x1="70" y1="104" x2="81" y2="104" style="stroke:#ff0000;stroke-width:1" />
    <line x1="70" y1="126" x2="81" y2="126" style="stroke:#ff0000;stroke-width:1" />
    <line x1="70" y1="131" x2="76" y2="131" style="stroke:#ff0000;stroke-width:1" />
    <line x1="70" y1="121" x2="76" y2="121" style="stroke:#ff0000;stroke-width:1" />
    <line x1="70" y1="110" x2="76" y2="110" style="stroke:#ff0000;stroke-width:1" />
    <line x1="70" y1="99" x2="76" y2="99" style="stroke:#ff0000;stroke-width:1" />
    <line x1="200" y1="267" x2="135" y2="331" style="stroke:#ff0000;stroke-width:1" />
    <line x1="135" y1="331" x2="200" y2="331" style="stroke:#ff0000;stroke-width:1" />
    <line x1="200" y1="331" x2="168" y2="364" style="stroke:#ff0000;stroke-width:1" />
    <line x1="168" y1="364" x2="200" y2="364" style="stroke:#ff0000;stroke-width:1" />
    <line x1="200" y1="364" x2="184" y2="380" style="stroke:#ff0000;stroke-width:1" />
    <line x1="184" y1="380" x2="200" y2="380" style="stroke:#ff0000;stroke-width:1" />
    <line x1="200" y1="380" x2="192" y2="388" style="stroke:#ff0000;stroke-width:1" />
    <line x1="192" y1="388" x2="200" y2="388" style="stroke:#ff0000;stroke-width:1" />
    <line x1="200" y1="388" x2="196" y2="392" style="stroke:#ff0000;stroke-width:1" />
	<path d = "M143 283 L143 299 L159 299 L159 283 L143 283 Z" stroke = "#ff0000" stroke-width = "1" fill = "none" /><circle cx="151" cy = "291" r = "8.105445187812505" stroke = "#ff0000" stroke-width = "1" fill = "none" />
    <line x1="151" y1="291" x2="151" y2="299" style="stroke:#ff0000;stroke-width:1" />
    <line x1="151" y1="291" x2="143" y2="291" style="stroke:#ff0000;stroke-width:1" />
    <line x1="151" y1="291" x2="151" y2="283" style="stroke:#ff0000;stroke-width:1" />
    <line x1="151" y1="291" x2="159" y2="291" style="stroke:#ff0000;stroke-width:1" />
<circle cx="154" cy = "294" r = "2.026361296953126" stroke = "#ff0000" stroke-width = "1" fill = "none" />
<circle cx="149" cy = "294" r = "2.026361296953126" stroke = "#ff0000" stroke-width = "1" fill = "none" />
<circle cx="149" cy = "288" r = "2.026361296953126" stroke = "#ff0000" stroke-width = "1" fill = "none" />
<circle cx="154" cy = "288" r = "2.026361296953126" stroke = "#ff0000" stroke-width = "1" fill = "none" />
	<path d = "M127 283 L127 299 L143 299 L143 283 L127 283 Z" stroke = "#ff0000" stroke-width = "1" fill = "none" />	<path d = "M129 297 L135 291 L129 285 " stroke = "#ff0000" stroke-width = "1" fill = "none" />    <line x1="135" y1="291" x2="133" y2="291" style="stroke:#ff0000;stroke-width:1" />
    <line x1="131" y1="291" x2="129" y2="291" style="stroke:#ff0000;stroke-width:1" />
	<path d = "M111 283 L111 299 L127 299 L127 283 L111 283 Z" stroke = "#ff0000" stroke-width = "1" fill = "none" />    <line x1="119" y1="283" x2="111" y2="291" style="stroke:#ff0000;stroke-width:1" />
    <line x1="111" y1="291" x2="119" y2="299" style="stroke:#ff0000;stroke-width:1" />
    <line x1="119" y1="299" x2="127" y2="291" style="stroke:#ff0000;stroke-width:1" />
    <line x1="127" y1="291" x2="119" y2="283" style="stroke:#ff0000;stroke-width:1" />
	<path d = "M200 267 L200 396 L70 267 " stroke = "#000000" stroke-width = "1" fill = "none" />    <line x1="275" y1="267" x2="200" y2="310" style="stroke:#ff0000;stroke-width:1" />
    <line x1="200" y1="310" x2="225" y2="267" style="stroke:#ff0000;stroke-width:1" />
    <line x1="225" y1="267" x2="200" y2="281" style="stroke:#ff0000;stroke-width:1" />
    <line x1="200" y1="281" x2="208" y2="267" style="stroke:#ff0000;stroke-width:1" />
    <line x1="208" y1="267" x2="200" y2="271" style="stroke:#ff0000;stroke-width:1" />
	<path d = "M208 331 L224 331 L224 315 L208 315 L208 331 Z" stroke = "#ff0000" stroke-width = "1" fill = "none" />	<path d = "M208 331 L222 323 L208 315 " stroke = "#ff0000" stroke-width = "1" fill = "none" />    <line x1="213" y1="323" x2="222" y2="323" style="stroke:#ff0000;stroke-width:1" />
    <line x1="213" y1="323" x2="208" y2="331" style="stroke:#ff0000;stroke-width:1" />
    <line x1="213" y1="323" x2="208" y2="315" style="stroke:#ff0000;stroke-width:1" />
    <line x1="200" y1="396" x2="275" y2="267" style="stroke:#000000;stroke-width:1" />
    <line x1="330" y1="192" x2="286" y2="192" style="stroke:#ff0000;stroke-width:1" />
    <line x1="330" y1="192" x2="308" y2="229" style="stroke:#ff0000;stroke-width:1" />
    <line x1="308" y1="204" x2="308" y2="229" style="stroke:#ff0000;stroke-width:1" />
    <line x1="308" y1="204" x2="286" y2="192" style="stroke:#ff0000;stroke-width:1" />
    <line x1="308" y1="204" x2="294" y2="204" style="stroke:#ff0000;stroke-width:1" />
    <line x1="308" y1="204" x2="301" y2="217" style="stroke:#ff0000;stroke-width:1" />
    <line x1="301" y1="208" x2="301" y2="217" style="stroke:#ff0000;stroke-width:1" />
    <line x1="301" y1="208" x2="294" y2="204" style="stroke:#ff0000;stroke-width:1" />
    <line x1="301" y1="208" x2="296" y2="208" style="stroke:#ff0000;stroke-width:1" />
    <line x1="301" y1="208" x2="298" y2="212" style="stroke:#ff0000;stroke-width:1" />
    <line x1="330" y1="192" x2="297" y2="210" style="stroke:#ff0000;stroke-width:1" />
	<path d = "M265 154 L330 192 L330 267 " stroke = "#000000" stroke-width = "1" fill = "none" />    <line x1="247" y1="29" x2="276" y2="69" style="stroke:#ff0000;stroke-width:1" />
    <line x1="276" y1="69" x2="294" y2="44" style="stroke:#ff0000;stroke-width:1" />
    <line x1="294" y1="44" x2="305" y2="59" style="stroke:#ff0000;stroke-width:1" />
    <line x1="305" y1="59" x2="312" y2="50" style="stroke:#ff0000;stroke-width:1" />
    <line x1="312" y1="50" x2="316" y2="56" style="stroke:#ff0000;stroke-width:1" />
    <line x1="316" y1="56" x2="319" y2="52" style="stroke:#ff0000;stroke-width:1" />
	<path d = "M249 73 L244 58 L228 63 L233 79 L249 73 Z" stroke = "#ff0000" stroke-width = "1" fill = "none" />    <line x1="239" y1="68" x2="236" y2="61" style="stroke:#ff0000;stroke-width:1" />
    <line x1="239" y1="68" x2="245" y2="64" style="stroke:#ff0000;stroke-width:1" />
    <line x1="239" y1="68" x2="245" y2="73" style="stroke:#ff0000;stroke-width:1" />
    <line x1="239" y1="68" x2="236" y2="76" style="stroke:#ff0000;stroke-width:1" />
    <line x1="239" y1="68" x2="231" y2="68" style="stroke:#ff0000;stroke-width:1" />
<circle cx="239" cy = "68" r = "8.105445187812505" stroke = "#ff0000" stroke-width = "1" fill = "none" />
<circle cx="240" cy = "64" r = "1.013180648476563" stroke = "#ff0000" stroke-width = "1" fill = "none" />
<circle cx="243" cy = "68" r = "1.013180648476563" stroke = "#ff0000" stroke-width = "1" fill = "none" />
<circle cx="240" cy = "72" r = "1.013180648476563" stroke = "#ff0000" stroke-width = "1" fill = "none" />
<circle cx="235" cy = "71" r = "1.013180648476563" stroke = "#ff0000" stroke-width = "1" fill = "none" />
<circle cx="235" cy = "66" r = "1.013180648476563" stroke = "#ff0000" stroke-width = "1" fill = "none" />
	<path d = "M264 68 L259 53 L244 58 L249 73 L264 68 Z" stroke = "#ff0000" stroke-width = "1" fill = "none" />	<path d = "M264 68 L249 47 L249 73 L264 68 Z" stroke = "#ff0000" stroke-width = "1" fill = "none" />    <line x1="264" y1="68" x2="249" y2="63" style="stroke:#ff0000;stroke-width:1" />
    <line x1="249" y1="63" x2="255" y2="55" style="stroke:#ff0000;stroke-width:1" />
    <line x1="255" y1="55" x2="249" y2="53" style="stroke:#ff0000;stroke-width:1" />
	<path d = "M200 94 L247 29 L323 54 L200 94 Z" stroke = "#000000" stroke-width = "1" fill = "none" />    <line x1="70" y1="94" x2="135" y2="47" style="stroke:#ff0000;stroke-width:1" />
    <line x1="135" y1="47" x2="120" y2="94" style="stroke:#ff0000;stroke-width:1" />
    <line x1="120" y1="94" x2="160" y2="65" style="stroke:#ff0000;stroke-width:1" />
    <line x1="160" y1="65" x2="150" y2="94" style="stroke:#ff0000;stroke-width:1" />
    <line x1="150" y1="94" x2="175" y2="76" style="stroke:#ff0000;stroke-width:1" />
    <line x1="175" y1="76" x2="169" y2="94" style="stroke:#ff0000;stroke-width:1" />
    <line x1="169" y1="94" x2="185" y2="83" style="stroke:#ff0000;stroke-width:1" />
    <line x1="185" y1="83" x2="181" y2="94" style="stroke:#ff0000;stroke-width:1" />
    <line x1="181" y1="94" x2="191" y2="87" style="stroke:#ff0000;stroke-width:1" />
    <line x1="191" y1="87" x2="188" y2="94" style="stroke:#ff0000;stroke-width:1" />
    <line x1="188" y1="94" x2="194" y2="89" style="stroke:#ff0000;stroke-width:1" />
    <line x1="194" y1="89" x2="193" y2="94" style="stroke:#ff0000;stroke-width:1" />
    <line x1="193" y1="94" x2="196" y2="91" style="stroke:#ff0000;stroke-width:1" />
    <line x1="196" y1="91" x2="196" y2="94" style="stroke:#ff0000;stroke-width:1" />
	<path d = "M70 94 L95 17 L200 94 " stroke = "#000000" stroke-width = "1" fill = "none" /></svg>