<svg width="100" height="100" viewbox = "0 0 100 100"  xmlns="http://www.w3.org/2000/svg">
	<path d = "M5 72 L5 27 M5.0000000000000036 26.999999999999996           A22.5 22.5 0 0 1 27.500000000000004 4.5L50 5 L73 5 M72.5 4.5           A22.5 22.5 0 0 1 95 27L95 50 L95 72 M95 72           A22.5 22.5 0 0 1 72.5 94.5L50 95 L28 95 M27.499999999999996 94.5           A22.5 22.5 0 0 1 4.9999999999999964 72" stroke = "black" stroke-width = "3" fill = "none" />	<path d = "M16 83 L33 79 L21 67 L16 83 Z" stroke = "black" stroke-width = "1" fill = "black" />	<path d = "M24 64 L36 76 L47 64 L59 52 L71 40 L59 28 L47 40 L36 52 L24 64 Z" stroke = "black" stroke-width = "1" fill = "black" />	<path d = "M62 25 L68 19 L74 25 L80 31 L74 37 L68 31 L62 25 Z" stroke = "black" stroke-width = "1" fill = "black" />    <circle cx="74" cy = "25" r = "8.424428603786113" stroke = "black" stroke-width = "1" fill = "black" />
</svg>