<svg width="300" height="100" viewbox = "0 0 300 100"  xmlns="http://www.w3.org/2000/svg">
<!--<json>{
  "glyph": "0332,0336,0332,0332,0336,0333,0337,0220,0220,0220,0220,0220,0220,",
  "shapes": [
    "0220:0362,0203,0335,0335,0306,0350,0334,0312,0336,0313,0337,0203,0335,0335,0203,0335,0335,0335,0335,0335,0336,0312,0337,0203,0363,0331,0335,0335,0334,0334,0335,0335,0335,0324,0336,0362,0203,0334,0334,0313,0337,0203,0334,0334,0203,0334,0334,0336,0203,0334,0334,0334,0334,0337,0203,0335,0335,0203,0363,0334,0334,0334,0334,0336,0320,0330,0334,0334,0337,0362,0203,0334,0334,0203,0335,0335,0335,0335,0336,0203,0335,0335,0335,0312,0337,0203,0203,0335,0335,0336,0335,0203,0363,0331,0312,0335,0335,0335,0337,0330,0313,0304,",
    "0221:0332,0332,0220,0220,0220,",
    "0222:",
    "0223:",
    "0224:0304,0313,0336,0336,0334,0310,0350,0362,0203,0335,0335,0203,0203,0334,0334,0203,0335,0335,0335,0337,0203,0203,0335,0335,0203,0203,0335,0335,0335,0336,0203,0334,0334,0203,0203,0335,0335,0203,0363,0304,0335,0313,0337,0337,",
    "0225:0306,0201,0334,0334,0201,0334,0334,0201,0334,0334,",
    "0226:0331,0332,0337,0101,0365,",
    "0227:0336,0336,0341,0337,0337,0330,",
    "0230:0221,",
    "0231:0220,",
    "0232:0321,0342,0330,0335,0335,0321,0306,0320,0350,0335,0336,0336,0362,0203,0334,0334,0334,0334,0203,0334,0334,0334,0334,0203,0363,0335,0337,0337,0304,",
    "0233:",
    "0234:",
    "0235:",
    "0236:",
    "0237:",
    "0240:0334,0336,0336,0366,0337,0337,0333,0335,0335,0336,0336,0367,0334,0337,0337,",
    "0241:",
    "0242:",
    "0243:",
    "0244:",
    "0245:",
    "0246:",
    "0247:",
    "01220:0333,0200,0336,0330,0332,0336,0332,0220,0333,0331,0331,0333,0337,0337,",
    "01221:0333,0200,0336,0330,0332,0336,0332,0332,0220,0220,0220,0220,0332,0331,0331,0336,0333,0337,0337,0337,",
    "01222:0333,0200,0336,0330,0332,0336,0331,0332,0337,0222,0336,0333,0331,0337,0337,",
    "01223:0333,0200,0336,0330,0332,0336,0333,0331,0337,0223,0333,0336,0333,0331,0337,0337,",
    "01224:0333,0200,0336,0332,0330,0224,0333,0331,0337,",
    "01225:0333,0200,0336,0336,0332,0332,0330,0337,0225,0304,0333,0331,0336,0330,0337,0337,",
    "01226:0333,0200,0336,0330,0332,0226,0333,0331,0330,",
    "01227:0333,0200,0336,0330,0332,0210,0227,0211,0331,0333,0337,",
    "01230:0333,0200,0336,0330,0332,0336,0331,0333,0337,0230,0335,0333,0331,0336,0333,0331,0337,0337,",
    "01231:0333,0200,0336,0330,0332,0336,0331,0332,0337,0220,0336,0334,0333,0330,0337,0337,0331,",
    "01232:0333,0200,0336,0330,0332,0336,0331,0337,0232,0336,0333,0331,0331,0331,0333,0337,0337,",
    "01233:0333,0200,0336,0332,0337,0336,0330,0332,0336,0331,0333,0337,0332,0233,0331,0336,0330,0337,0337,",
    "01234:0333,0200,0336,0330,0332,0332,0332,0336,0333,0337,0234,0333,0333,0333,0331,0336,0333,0331,0337,0337,0337,0210,0210,0337,0336,",
    "01235:0333,0200,0235,",
    "01236:0333,0200,0236,",
    "01237:0333,0200,0336,0330,0332,0332,0237,0331,0336,0332,0337,0337,",
    "01240:0333,0200,0336,0332,0336,0330,0337,0240,0333,0336,0330,0337,0337,0331,",
    "01241:0333,0200,0336,0332,0241,0333,0337,",
    "01242:0333,0200,0336,0332,0332,0336,0330,0330,0242,0336,0331,0331,0331,0331,0332,0337,0337,0337,",
    "01243:0333,0200,0336,0332,0332,0243,0337,",
    "01244:0333,0200,0332,0336,0330,0336,0336,0243,0243,0243,0243,0331,0331,0331,0331,0337,0337,0337,",
    "01245:0333,0200,0336,0332,0336,0331,0337,0245,0333,0336,0330,0337,0337,",
    "01246:0333,0200,0330,0332,0336,0331,0336,0332,0337,0246,0333,0333,0336,0333,0331,0331,0337,0337,",
    "01247:0333,0200,0336,0330,0332,0337,0247,0336,0333,0331,0337,"
  ],
  "x0rel": 0.5,
  "y0rel": 0.5,
  "unitrel": 0.25,
  "theta0": -1.570796,
  "width": 300,
  "height": 100,
  "scale": 1,
  "backgroundimage": "",
  "style": {
    "color0": "black",
    "fill0": "black",
    "line0": 1,
    "color1": "black",
    "fill1": "black",
    "line1": 5,
    "color2": "red",
    "fill2": "red",
    "line2": 2,
    "color3": "#FF7900",
    "fill3": "#FF7900",
    "line3": 2,
    "color4": "yellow",
    "fill4": "yellow",
    "line4": 2,
    "color5": "green",
    "fill5": "green",
    "line5": 2,
    "color6": "blue",
    "fill6": "blue",
    "line6": 2,
    "color7": "purple",
    "fill7": "purple",
    "line7": 2
  },
  "controlbuttons": [
    196,
    198,
    200,
    203,
    128,
    216,
    217,
    218,
    219,
    220,
    221,
    222,
    223,
    27,
    8,
    134,
    225,
    192,
    16,
    17,
    145,
    151,
    146,
    232,
    233
  ]
}</json>-->	<path d = "M19 50 L19 12 L40 50 L19 87 L19 50 Z" stroke = "#000000" stroke-width = "1" fill = "#000000" />	<path d = "M19 87 L40 87 L62 50 L40 12 L19 12 L40 50 L19 87 Z" stroke = "#ffff00" stroke-width = "2" fill = "#ffff00" />	<path d = "M40 87 L62 50 L40 12 L62 12 L62 50 L62 87 L40 87 Z" stroke = "#000000" stroke-width = "1" fill = "#000000" />	<path d = "M62 50 L62 12 L84 50 L62 87 L62 50 Z" stroke = "#000000" stroke-width = "1" fill = "#000000" />	<path d = "M62 87 L84 87 L105 50 L84 12 L62 12 L84 50 L62 87 Z" stroke = "#ffff00" stroke-width = "2" fill = "#ffff00" />	<path d = "M84 87 L105 50 L84 12 L105 12 L105 50 L105 87 L84 87 Z" stroke = "#000000" stroke-width = "1" fill = "#000000" />	<path d = "M105 50 L105 12 L127 50 L105 87 L105 50 Z" stroke = "#000000" stroke-width = "1" fill = "#000000" />	<path d = "M105 87 L127 87 L149 50 L127 12 L105 12 L127 50 L105 87 Z" stroke = "#ffff00" stroke-width = "2" fill = "#ffff00" />	<path d = "M127 87 L149 50 L127 12 L149 12 L149 50 L149 87 L127 87 Z" stroke = "#000000" stroke-width = "1" fill = "#000000" />	<path d = "M149 50 L149 12 L170 50 L149 87 L149 50 Z" stroke = "#000000" stroke-width = "1" fill = "#000000" />	<path d = "M149 87 L170 88 L192 50 L170 13 L149 12 L170 50 L149 87 Z" stroke = "#ffff00" stroke-width = "2" fill = "#ffff00" />	<path d = "M170 88 L192 50 L170 13 L192 13 L192 50 L192 88 L170 88 Z" stroke = "#000000" stroke-width = "1" fill = "#000000" />	<path d = "M192 50 L192 13 L214 50 L192 88 L192 50 Z" stroke = "#000000" stroke-width = "1" fill = "#000000" />	<path d = "M192 88 L214 88 L235 50 L214 13 L192 13 L214 50 L192 88 Z" stroke = "#ffff00" stroke-width = "2" fill = "#ffff00" />	<path d = "M214 88 L235 50 L214 13 L235 13 L235 50 L235 88 L214 88 Z" stroke = "#000000" stroke-width = "1" fill = "#000000" />	<path d = "M235 50 L235 13 L257 50 L235 88 L235 50 Z" stroke = "#000000" stroke-width = "1" fill = "#000000" />	<path d = "M235 88 L257 88 L279 50 L257 13 L235 13 L257 50 L235 88 Z" stroke = "#ffff00" stroke-width = "2" fill = "#ffff00" />	<path d = "M257 88 L279 50 L257 13 L279 13 L279 50 L279 88 L257 88 Z" stroke = "#000000" stroke-width = "1" fill = "#000000" /></svg>