<svg width="800" height="400" viewbox = "0 0 800 400"  xmlns="http://www.w3.org/2000/svg">
<!--<json>{
  "glyph": "0332,0332,0332,0336,0330,0330,0226,0333,0333,0333,0227,0333,0333,0333,0230,0333,0333,0333,0231,0333,0333,0333,0232,0331,0331,0331,0331,0332,0332,0332,0332,0332,0332,0332,0332,0332,0332,0332,0332,0336,0330,0337,0333,0333,0233,0333,0333,0333,0333,0333,0333,0234,0330,0332,0332,0332,0332,0332,0332,0332,0332,0332,0336,0330,0336,0330,0333,0337,01015,0163,0141,0166,0145,0365,0333,0333,0333,0333,0333,0333,0144,0145,0154,0145,0164,0145,0365,0333,0333,0333,0333,0333,0333,01015,0156,0145,0167,040,0145,0154,0145,0155,0145,0156,0164,0332,0332,0365,01015,0333,0333,0333,0333,0333,0333,0333,0333,0333,01015,0165,0160,0365,01015,0333,0333,0333,0333,0333,01015,0144,0157,0167,0156,0365,0331,0331,0331,0331,0331,0331,0332,0332,0332,0332,0331,0332,0332,0332,0332,0332,0332,01015,0155,0157,0166,0145,040,0145,0154,0145,0155,0145,0156,0164,040,0144,0157,0167,0156,0365,0332,0332,0332,0332,0332,0332,0332,0332,0332,0332,0332,0332,0332,01015,0155,0157,0166,0145,040,0145,0154,0145,0155,0145,0156,0164,040,0165,0160,0365,",
  "shapes": [
    "0220:0314,0336,0313,0333,0331,0331,0337,0337,0321,0332,0362,0203,0336,0336,0333,0350,0334,0345,0335,0330,0335,0335,0337,0337,0203,0336,0336,0335,0333,0334,0334,0345,0335,0330,0335,0335,0337,0337,0203,0335,0336,0336,0333,0334,0334,0345,0335,0330,0335,0335,0337,0337,0203,0335,0336,0336,0333,0334,0334,0345,0333,0364,0335,0335,0335,0304,0337,0330,0333,0336,0333,0314,0337,0313,0320,",
    "0221:0220,0350,0335,0313,0304,0336,0331,0336,0336,0332,0337,0337,0337,0362,0203,0335,0336,0336,0203,0335,0337,0337,0203,0335,0336,0336,0203,0363,0335,0336,0333,0337,0337,0337,0330,0336,0336,0336,0336,0330,0337,0362,0346,0363,0336,0331,0337,0337,0337,0337,0331,0336,0336,0336,0335,0335,0336,0330,0335,0337,0330,0334,0334,0337,0306,0362,0203,0335,0335,0203,0335,0335,0203,0363,0334,0304,0335,0336,0333,0336,0330,0337,0337,0337,0337,0336,0330,0337,0350,0334,0304,",
    "0222:0220,0336,0336,0336,0347,0337,0337,0321,0201,0336,0336,0347,0337,0337,0335,0350,0335,0310,0337,0201,0336,0313,0336,0336,0347,0335,0335,0335,0337,0337,0330,0330,0336,0336,0347,0335,0335,0335,0337,0337,0310,0337,0201,0334,0336,0331,0313,0304,0337,0320,",
    "0223:0220,0336,0332,0336,0336,0332,0337,0337,0331,0337,0321,0342,0336,0336,0333,0337,0337,0342,0333,0342,0336,0336,0332,0337,0337,0342,0336,0330,0336,0331,0334,0337,0362,0203,0336,0203,0364,0333,0333,0335,0335,0337,0362,0203,0336,0203,0364,0334,0330,0335,0331,0337,0362,0203,0336,0203,0364,0334,0336,0332,0332,0332,0337,0342,0335,0335,0330,0330,0330,0330,0332,0335,0336,0331,0337,0337,0362,0203,0336,0203,0364,0331,0336,0331,0334,0337,0342,0333,0333,0333,0335,0336,0331,0337,0337,0362,0203,0336,0203,0364,0335,0335,0330,0336,0330,0335,0337,0342,0331,0331,0331,0331,0335,0331,0336,0331,0337,0337,0362,0203,0336,0203,0364,0335,0333,0336,0333,0337,0342,0333,0333,0331,0331,0337,0337,0320,",
    "0224:0336,0336,0350,0334,0310,0337,0362,0203,0335,0335,0335,0336,0313,0337,0305,0311,0334,0337,0203,0363,0335,0335,0362,0203,0335,0335,0350,0334,0336,0313,0336,0304,0350,0310,0337,0334,0203,0364,0335,0335,0335,0335,0336,0334,0313,0304,0337,0337,0335,",
    "0225:0220,0210,0224,0224,0224,0224,0211,",
    "0226:0220,0336,0331,0334,0336,0330,0337,0321,0336,0362,0203,0335,0203,0203,0203,0203,0203,0335,0203,0203,0203,0203,0335,0203,0203,0203,0203,0203,0335,0203,0364,0330,0334,0331,0337,0201,0335,0336,0350,0334,0331,0362,0203,0335,0335,0203,0364,0331,0335,0313,0304,0337,0330,0336,0330,0337,0337,0320,",
    "0227:0304,0350,0335,0313,0304,0322,0336,0336,0336,0330,0332,0337,0337,0362,0203,0335,0336,0203,0335,0337,0203,0334,0203,0335,0336,0203,0335,0337,0203,0334,0203,0335,0336,0203,0335,0337,0203,0334,0203,0335,0336,0203,0335,0337,0203,0363,0320,0336,0334,0336,0333,0331,0337,0337,0337,0350,0334,0304,0220,",
    "0230:0220,0321,0210,0210,0210,0350,0332,0362,0334,0331,0335,0335,0334,0345,0335,0335,0345,0335,0335,0345,0335,0335,0350,0334,0345,0364,0335,0335,0335,0335,0335,0335,0335,0334,0334,0304,0336,0342,0335,0342,0335,0342,0335,0342,0335,0337,0211,0211,0211,",
    "0231:0220,0336,0331,0334,0331,0337,0321,0342,0333,0342,0336,0332,0330,0335,0336,0331,0337,0201,0350,0335,0336,0331,0362,0203,0335,0335,0203,0364,0331,0334,0334,0334,0331,0337,0337,0304,0320,",
    "0232:0335,0335,0220,0336,0331,0334,0331,0337,0321,0342,0333,0342,0336,0332,0330,0335,0336,0331,0337,0201,0350,0335,0336,0331,0362,0203,0335,0335,0203,0364,0331,0334,0334,0334,0331,0337,0337,0304,0320,0335,0335,",
    "0233:0220,0336,0331,0335,0331,0337,0321,0342,0332,0342,0336,0333,0337,0342,0330,0336,0336,0336,0330,0337,0366,0332,0332,0332,0367,0350,0335,0306,0350,0320,0335,0362,0203,0334,0334,0334,0334,0203,0334,0334,0334,0334,0203,0363,0335,0304,0350,0335,0304,0331,0331,0331,0336,0332,0337,0337,0332,0337,",
    "0234:0335,0335,0233,0335,0335,",
    "0235:0220,0336,0331,0336,0336,0347,0337,0337,0337,0330,0336,0336,0336,0347,0335,0337,0335,0337,0337,0321,0342,0336,0336,0336,0330,0320,0337,0306,0350,0335,0362,0203,0334,0334,0334,0334,0203,0334,0334,0334,0334,0203,0363,0335,0336,0330,0337,0337,0304,0331,0337,",
    "0236:0220,0336,0333,0331,0337,0321,0200,0336,0330,0332,0336,0333,0331,0337,0200,0336,0330,0332,0337,0337,0320,",
    "0237:0220,0336,0331,0332,0335,0337,0321,0306,0362,0203,0334,0334,0203,0334,0334,0203,0354,0335,0336,0331,0335,0342,0335,0201,0334,0334,0342,0335,0335,0331,0335,0304,0334,0330,0337,0320,",
    "0240:0220,0336,0336,0331,0337,0321,0342,0335,0342,0335,0335,0342,0336,0333,0340,0335,0337,0330,0336,0330,0337,0340,0337,0331,0336,0336,0330,0337,0337,0320,",
    "0241:0220,0336,0332,01015,0141,0142,0143,0365,0333,0337,",
    "0242:0220,0336,0332,01015,01141,01142,01143,0332,0336,0336,0336,0333,0337,0337,0337,0337,",
    "0243:0220,0336,0336,0330,0332,0332,0332,0200,0333,0200,0333,0200,0333,0200,0333,0200,0333,0200,0333,0200,0333,0200,0331,0200,0332,0200,0332,0200,0332,0200,0332,0200,0332,0200,0332,0200,0332,0200,0331,0200,0333,0200,0333,0200,0333,0200,0333,0200,0333,0200,0333,0200,0333,0200,0330,0332,0332,0332,0332,0337,0337,",
    "0244:0220,0336,0336,0330,0332,0321,0322,0204,0321,0200,0331,0331,0324,0204,0321,0200,0331,0331,0326,0204,0321,0200,0333,0336,0330,0335,0337,0337,0326,0342,0332,0324,0342,0332,0322,0342,0320,0334,0331,0336,0336,0330,0337,0337,0337,",
    "0245:0220,0336,0336,0330,0333,0337,0321,0200,0331,0331,0200,0336,0330,0332,0330,0320,0330,0336,0330,0335,0331,0331,0337,0337,0350,0310,0362,0203,0335,0335,0335,0336,0203,0335,0335,0203,0363,0335,0336,0313,0304,0333,0336,0331,0337,0313,0337,0337,",
    "0246:0220,0336,0333,0336,0333,0331,0331,0337,0337,0321,0200,0330,0332,0336,0333,0336,0336,0330,0337,0201,0335,0335,0350,0334,0330,0335,0335,0335,0335,0362,0203,0334,0334,0203,0364,0331,0335,0335,0335,0331,0304,0336,0331,0332,0332,0332,0332,0331,0331,0331,0331,0334,0330,0337,0201,0335,0335,0350,0334,0330,0335,0335,0335,0335,0362,0203,0334,0334,0203,0364,0331,0334,0330,0336,0330,0304,0334,0333,0333,0337,0337,0337,0320,",
    "0247:0220,0336,0330,0332,0336,0331,0336,0331,0332,0332,0341,0333,0333,0333,0341,0333,0333,0333,0341,0333,0333,0333,0341,0333,0333,0333,0341,0331,0331,0332,0332,0332,0332,0332,0332,0332,0332,0332,0332,0332,0336,0333,0337,0341,0333,0333,0333,0341,0333,0333,0333,0341,0333,0333,0333,0341,0333,0333,0331,0331,0336,0332,0337,0341,0332,0332,0332,0341,0332,0332,0332,0341,0332,0332,0332,0341,0332,0332,0332,0341,0330,0330,0333,0333,0333,0333,0333,0333,0330,0337,0337,0337,",
    "01220:0333,0200,0336,0330,0332,0210,0220,0211,0333,0331,0337,",
    "01221:0333,0200,0336,0330,0332,0210,0221,0211,0333,0331,0337,",
    "01222:0333,0200,0336,0330,0332,0210,0222,0211,0333,0331,0337,",
    "01223:0333,0200,0336,0330,0332,0210,0223,0211,0333,0331,0337,",
    "01224:0333,0200,0336,0330,0332,0224,0334,0333,0331,0337,",
    "01225:0333,0200,0336,0330,0332,0210,0225,0211,0333,0331,0337,",
    "01226:0333,0200,0336,0330,0332,0210,0226,0211,0333,0331,0337,",
    "01227:0333,0200,0336,0330,0332,0210,0227,0211,0331,0333,0337,",
    "01230:0333,0200,0336,0330,0332,0210,0230,0211,0333,0331,0320,0337,",
    "01231:0333,0200,0336,0330,0332,0210,0231,0211,",
    "01232:0333,0200,0336,0330,0332,0210,0232,0211,0333,0331,",
    "01233:0333,0200,0336,0330,0332,0210,0233,0211,0333,0331,0337,",
    "01234:0333,0200,0336,0330,0332,0210,0234,0211,0333,0331,0337,",
    "01235:0333,0200,0336,0330,0332,0210,0235,0211,0333,0331,0337,",
    "01236:0333,0200,0336,0330,0332,0210,0236,0211,0333,0331,0337,",
    "01237:0333,0200,0336,0330,0332,0210,0237,0211,0333,0331,0337,",
    "01240:0333,0200,0336,0330,0332,0210,0240,0211,0333,0331,0337,",
    "01241:0333,0200,0336,0332,0330,0210,0241,0211,0333,0331,0337,",
    "01242:0333,0200,0336,0330,0332,0210,0242,0211,0333,0331,0337,",
    "01243:0333,0200,0336,0330,0332,0210,0243,0211,0333,0331,0337,",
    "01244:0333,0200,0336,0330,0332,0210,0244,0211,0333,0331,0337,",
    "01245:0333,0200,0336,0330,0332,0210,0245,0211,0333,0331,0337,",
    "01246:0333,0200,0336,0330,0332,0210,0246,0211,0333,0331,0337,",
    "01247:0333,0200,0336,0330,0332,0210,0247,0211,0333,0331,0337,"
  ],
  "x0rel": 0.5,
  "y0rel": 0.5,
  "unitrel": 0.125,
  "theta0": -1.570796,
  "width": 800,
  "height": 400,
  "scale": 1,
  "backgroundimage": "",
  "style": {
    "color0": "black",
    "fill0": "black",
    "line0": 1,
    "color1": "black",
    "fill1": "black",
    "line1": 3,
    "color2": "red",
    "fill2": "red",
    "line2": 2,
    "color3": "#FF7900",
    "fill3": "#FF7900",
    "line3": 2,
    "color4": "yellow",
    "fill4": "yellow",
    "line4": 2,
    "color5": "green",
    "fill5": "green",
    "line5": 2,
    "color6": "blue",
    "fill6": "blue",
    "line6": 2,
    "color7": "purple",
    "fill7": "purple",
    "line7": 2
  },
  "controlbuttons": [
    196,
    198,
    200,
    203,
    128,
    216,
    217,
    218,
    219,
    220,
    221,
    222,
    223,
    27,
    8,
    134,
    225,
    192,
    16,
    17,
    145,
    151,
    146,
    232,
    233
  ]
}</json>-->	<path d = "M50 133 L50 67 M50.000043572671586 66.66655228845997           A16.666666666666668 16.666666666666668 0 0 1 66.66671568591897 49.9998910683758L133 50 M133.33338235258208 49.99991285470223           A16.666666666666668 16.666666666666668 0 0 1 150.00004357266624 66.66658496794962L150 133 M150.00002178633983 133.33325163461274           A16.666666666666668 16.666666666666668 0 0 1 133.33334967309244 149.9999128546969L67 150 M66.66668300642934 149.9998910683705           A16.666666666666668 16.666666666666668 0 0 1 50.00002178634517 133.3332189551231" stroke = "#000000" stroke-width = "3" fill = "none" />	<path d = "M88 125 L75 125 L75 112 L75 100 L75 87 L75 75 L75 62 L88 62 L100 62 L113 62 L125 62 L125 75 L125 87 L125 100 L125 112 L125 125 L113 125 " stroke = "#000000" stroke-width = "3" fill = "none" />    <line x1="100" y1="112" x2="100" y2="137" style="stroke:#000000;stroke-width:3" />
	<path d = "M109 129 L100 137 L91 129 " stroke = "#000000" stroke-width = "3" fill = "none" />	<path d = "M250 91 L268 73 L277 82 L259 100 L277 118 L268 127 L250 109 L232 127 L223 118 L241 100 L223 82 L232 73 L250 91 Z" stroke = "#ff0000" stroke-width = "2" fill = "#ff0000" />	<path d = "M200 133 L200 67 M200.00004357266366 66.66660130769476           A16.666666666666668 16.666666666666668 0 0 1 216.66671568591107 49.9999400876106L283 50 M283.3333823525741 49.99996187393725           A16.666666666666668 16.666666666666668 0 0 1 300.0000435726583 66.6666339871847L300 133 M300.0000217863315 133.33330065384774           A16.666666666666668 16.666666666666668 0 0 1 283.33334967308406 149.99996187393185L217 150 M216.666683006421 149.99994008760498           A16.666666666666668 16.666666666666668 0 0 1 200.00002178633693 133.33326797435748" stroke = "#000000" stroke-width = "3" fill = "none" />	<path d = "M350 133 L350 67 M350.000043572656 66.66665032692961           A16.666666666666668 16.666666666666668 0 0 1 366.6667156859035 49.99998910684556L433 50 M433.33338235256656 50.00001089317266           A16.666666666666668 16.666666666666668 0 0 1 450.0000435726506 66.66668300642021L450 133 M450.0000217863234 133.33334967308326           A16.666666666666668 16.666666666666668 0 0 1 433.3333496730758 150.00001089316726L367 150 M366.66668300641277 149.99998910683993           A16.666666666666668 16.666666666666668 0 0 1 350.0000217863288 133.33331699359232" stroke = "#000000" stroke-width = "3" fill = "none" />	<path d = "M376 76 M376.3932426440935 76.3931945354472           A33.38505354221893 33.38505354221893 0 0 1 423.60683814404894 76.39320996460997M423.60683814404894 76.39320996460997           A33.38505354221893 33.38505354221893 0 0 1 423.6068227148861 123.60680546456543M423.6068227148861 123.60680546456543           A33.38505354221893 33.38505354221893 0 0 1 376.3932272149308 123.60679003540265M376.3932272149308 123.60679003540265           A33.38505354221893 33.38505354221893 0 0 1 366.6149791372727 99.99998908994083" stroke = "#000000" stroke-width = "3" fill = "none" />    <line x1="400" y1="100" x2="400" y2="83" style="stroke:#000000;stroke-width:3" />
    <line x1="400" y1="100" x2="417" y2="100" style="stroke:#000000;stroke-width:3" />
    <line x1="400" y1="100" x2="400" y2="117" style="stroke:#000000;stroke-width:3" />
    <line x1="400" y1="100" x2="383" y2="100" style="stroke:#000000;stroke-width:3" />
	<path d = "M500 133 L500 67 M500.00004357264817 66.66669934616584           A16.666666666666668 16.666666666666668 0 0 1 516.6667156858957 50.00003812608195L583 50 M583.3333823525589 50.00005991240877           A16.666666666666668 16.666666666666668 0 0 1 600.0000435726429 66.66673202565626L600 133 M600.0000217863164 133.33339869231952           A16.666666666666668 16.666666666666668 0 0 1 583.3333496730689 150.0000599124036L517 150 M516.6666830064056 150.0000381260775           A16.666666666666668 16.666666666666668 0 0 1 500.0000217863215 133.3333660128302" stroke = "#000000" stroke-width = "3" fill = "none" />    <line x1="575" y1="125" x2="525" y2="125" style="stroke:#000000;stroke-width:3" />
    <line x1="575" y1="75" x2="525" y2="75" style="stroke:#000000;stroke-width:3" />
    <line x1="550" y1="113" x2="550" y2="88" style="stroke:#000000;stroke-width:3" />
	<path d = "M541 96 L550 88 L559 96 " stroke = "#000000" stroke-width = "3" fill = "none" />	<path d = "M750 67 L750 133 M750.0000217863078 133.33344771155214           A16.666666666666668 16.666666666666668 0 0 1 733.3333496730605 150.00010893163633L667 150 M666.6666830063973 150.00008714531072           A16.666666666666668 16.666666666666668 0 0 1 650.000021786313 133.33341503206353L650 67 M650.0000435726383 66.66674836540025           A16.666666666666668 16.666666666666668 0 0 1 666.6667156858855 50.000087145315874L733 50 M733.3333823525488 50.00010893164077           A16.666666666666668 16.666666666666668 0 0 1 750.0000435726333 66.66678104488777" stroke = "#000000" stroke-width = "3" fill = "none" />    <line x1="675" y1="75" x2="725" y2="75" style="stroke:#000000;stroke-width:3" />
    <line x1="675" y1="125" x2="725" y2="125" style="stroke:#000000;stroke-width:3" />
    <line x1="700" y1="88" x2="700" y2="113" style="stroke:#000000;stroke-width:3" />
	<path d = "M709 104 L700 113 L691 104 " stroke = "#000000" stroke-width = "3" fill = "none" />	<path d = "M150 308 L150 242 M149.99998638356328 241.66658496795714           A16.666666666666668 16.666666666666668 0 0 1 166.66665849681024 224.99992374787263L233 225 M233.3333251634734 224.99994553419702           A16.666666666666668 16.666666666666668 0 0 1 249.999986383558 241.6666176474439L250 308 M249.9999645972335 308.3332843141072           A16.666666666666668 16.666666666666668 0 0 1 233.33329248398658 324.99994553419174L167 325 M166.6666258173233 324.99992374786757           A16.666666666666668 16.666666666666668 0 0 1 149.99996459723866 308.33325163462075" stroke = "#000000" stroke-width = "3" fill = "none" />    <line x1="175" y1="300" x2="225" y2="300" style="stroke:#000000;stroke-width:3" />
    <line x1="175" y1="250" x2="225" y2="250" style="stroke:#000000;stroke-width:3" />
    <line x1="175" y1="275" x2="225" y2="275" style="stroke:#000000;stroke-width:3" />
<path    d = "M231,275 C244,275 244,237 231,237" fill = "none" stroke-width = "3" stroke = "#000000" />	<path d = "M231 237 L234 250 L243 241 L231 237 Z" stroke = "#000000" stroke-width = "1" fill = "#000000" />	<path d = "M550 242 L550 308 M549.9999645972198 308.3333823525524           A16.666666666666668 16.666666666666668 0 0 1 533.3332924839737 325.0000435726378L467 325 M466.6666258173104 325.000021786317           A16.666666666666668 16.666666666666668 0 0 1 449.9999645972249 308.33334967307104L450 242 M449.9999863835454 241.66668300640774           A16.666666666666668 16.666666666666668 0 0 1 466.6666584967913 225.00002178632218L533 225 M533.3333251634546 225.00004357264228           A16.666666666666668 16.666666666666668 0 0 1 549.9999863835403 241.66671568588808" stroke = "#000000" stroke-width = "3" fill = "none" />    <line x1="525" y1="250" x2="475" y2="250" style="stroke:#000000;stroke-width:3" />
    <line x1="525" y1="300" x2="475" y2="300" style="stroke:#000000;stroke-width:3" />
    <line x1="525" y1="275" x2="475" y2="275" style="stroke:#000000;stroke-width:3" />
<path    d = "M469,275 C456,275 456,313 469,313" fill = "none" stroke-width = "3" stroke = "#000000" />	<path d = "M469 313 L466 300 L457 309 L469 313 Z" stroke = "#000000" stroke-width = "1" fill = "#000000" />    <text x="63" y = "187" fill = "#000000" font-size = "25px" font-family = "Arial">save</text>
    <text x="213" y = "187" fill = "#000000" font-size = "25px" font-family = "Arial">delete</text>
    <text x="313" y = "187" fill = "#000000" font-size = "25px" font-family = "Arial">new element</text>
    <text x="538" y = "188" fill = "#000000" font-size = "25px" font-family = "Arial">up</text>
    <text x="663" y = "188" fill = "#000000" font-size = "25px" font-family = "Arial">down</text>
    <text x="412" y = "363" fill = "#000000" font-size = "25px" font-family = "Arial">move element down</text>
    <text x="87" y = "362" fill = "#000000" font-size = "25px" font-family = "Arial">move element up</text>
</svg>