<svg width="150" height="150" viewbox = "0 0 150 150"  xmlns="http://www.w3.org/2000/svg">
<path d = "M147 147 L147 3 L3 3 L3 147 L147 147 Z" stroke = "#000000" stroke-width = "4" fill = "none" />	<path d = "M75 75 L61 61 L75 19 Z" stroke = "#000000" stroke-width = "1" fill = "#000000" />	<path d = "M75 75 L89 61 L75 19 " stroke = "#000000" stroke-width = "1" fill = "none" />	<path d = "M75 75 L89 61 L131 75 Z" stroke = "#000000" stroke-width = "1" fill = "#000000" />	<path d = "M75 75 L89 89 L131 75 " stroke = "#000000" stroke-width = "1" fill = "none" />	<path d = "M75 75 L89 89 L75 131 Z" stroke = "#000000" stroke-width = "1" fill = "#000000" />	<path d = "M75 75 L61 89 L75 131 " stroke = "#000000" stroke-width = "1" fill = "none" />	<path d = "M75 75 L61 89 L19 75 Z" stroke = "#000000" stroke-width = "1" fill = "#000000" />	<path d = "M75 75 L61 61 L19 75 " stroke = "#000000" stroke-width = "1" fill = "none" /></svg>