<svg width="150" height="150" viewbox="0 0 150 150" xmlns="http://www.w3.org/2000/svg">
<path d="M147 147 L147 3 L3 3 L3 147 L147 147 Z" stroke="#000000" stroke-width="4" fill="none"/>	<path d="M111 111 L111 39 L39 39 L39 111 L111 111 Z" stroke="#000000" stroke-width="4" fill="none"/>	<path d="M75 39 L75 21 L57 21 L39 21 L21 21 L21 39 L21 57 L21 75 L21 93 L39 93 " stroke="#000000" stroke-width="4" fill="none"/>	<path d="M57 111 L57 129 L75 129 L93 129 L111 129 L129 129 L129 111 L129 93 L129 75 L111 75 " stroke="#000000" stroke-width="4" fill="none"/></svg>