<svg width="100" height="100" viewbox = "0 0 100 100"  xmlns="http://www.w3.org/2000/svg">
	<path d = "M98 98 L98 2 L2 2 L2 98 L98 98 Z" stroke = "black" stroke-width = "1" fill = "none" />    <line x1="50" y1="50" x2="50" y2="26" style="stroke:black;stroke-width:3" />
    <line x1="50" y1="50" x2="74" y2="50" style="stroke:black;stroke-width:3" />
    <line x1="50" y1="50" x2="50" y2="74" style="stroke:black;stroke-width:3" />
    <line x1="50" y1="50" x2="26" y2="50" style="stroke:black;stroke-width:3" />
  <path d="M24.58359213500127 24.583592135001265           A35.94422870948741 35.94422870948741 0 0 1 75.41640786499873 24.583592135001265" fill = "none" stroke = "black" stroke-width = "3" />
  <path d="M75.41640786499873 24.583592135001265           A35.94422870948741 35.94422870948741 0 0 1 75.41640786499873 75.41640786499873" fill = "none" stroke = "black" stroke-width = "3" />
  <path d="M75.41640786499873 75.41640786499873           A35.94422870948741 35.94422870948741 0 0 1 24.58359213500127 75.41640786499873" fill = "none" stroke = "black" stroke-width = "3" />
  <path d="M24.58359213500127 75.41640786499873           A35.94422870948741 35.94422870948741 0 0 1 14.055771290512588 50.00000000000001" fill = "none" stroke = "black" stroke-width = "3" />
  <path d="M14.055771290512588 50.00000000000001           A35.94422870948741 35.94422870948741 0 0 1 16.7918627834 36.24473918373754" fill = "none" stroke = "black" stroke-width = "3" />
</svg>