<svg width="100" height="100" viewbox = "0 0 100 100"  xmlns="http://www.w3.org/2000/svg">
	<path d = "M98 98 L98 2 L2 2 L2 98 L98 98 Z" stroke = "black" stroke-width = "1" fill = "none" />    <line x1="14" y1="74" x2="14" y2="26" style="stroke:black;stroke-width:3" />
    <line x1="26" y1="74" x2="26" y2="26" style="stroke:black;stroke-width:3" />
    <line x1="74" y1="74" x2="74" y2="26" style="stroke:black;stroke-width:3" />
    <line x1="86" y1="74" x2="86" y2="26" style="stroke:black;stroke-width:3" />
    <line x1="92" y1="74" x2="68" y2="74" style="stroke:black;stroke-width:3" />
    <line x1="92" y1="26" x2="68" y2="26" style="stroke:black;stroke-width:3" />
    <line x1="32" y1="26" x2="8" y2="26" style="stroke:black;stroke-width:3" />
    <line x1="32" y1="74" x2="8" y2="74" style="stroke:black;stroke-width:3" />
    <line x1="20" y1="26" x2="20" y2="14" style="stroke:black;stroke-width:3" />
    <line x1="20" y1="74" x2="20" y2="86" style="stroke:black;stroke-width:3" />
    <line x1="80" y1="74" x2="80" y2="86" style="stroke:black;stroke-width:3" />
    <line x1="80" y1="26" x2="80" y2="14" style="stroke:black;stroke-width:3" />
    <line x1="74" y1="38" x2="26" y2="38" style="stroke:black;stroke-width:3" />
    <line x1="74" y1="62" x2="26" y2="62" style="stroke:black;stroke-width:3" />
</svg>