<svg width="150" height="150" viewbox = "0 0 150 150"  xmlns="http://www.w3.org/2000/svg">
 <circle cx="75" cy = "53" r = "5.505318019189195" stroke = "#000000" stroke-width = "1" fill = "#000000" />
    <line x1="75" y1="53" x2="31" y2="97" style="stroke:#000000;stroke-width:4" />
    <line x1="75" y1="53" x2="119" y2="97" style="stroke:#000000;stroke-width:4" />
    <circle cx="119" cy = "97" r = "5.505318019189195" stroke = "#000000" stroke-width = "1" fill = "#000000" />
    <circle cx="31" cy = "97" r = "5.505318019189195" stroke = "#000000" stroke-width = "1" fill = "#000000" />
    <circle cx="75" cy = "97" r = "5.505318019189195" stroke = "#000000" stroke-width = "1" fill = "#000000" />
    <line x1="75" y1="97" x2="75" y2="53" style="stroke:#000000;stroke-width:4" />
	<path d = "M9 75 L9 53 L9 31 M8.936198162611849 30.957434257170746           A22.02127207675678 22.02127207675678 0 0 1 30.957477435806783 8.936169376854473L53 9 L75 9 L97 9 L119 9 M119.04256574282921 8.936198162611788           A22.02127207675678 22.02127207675678 0 0 1 141.0638306231455 30.95747743580672L141 53 L141 75 L141 97 L141 119 M141.06380183738818 119.04256574282914           A22.02127207675678 22.02127207675678 0 0 1 119.04252256419325 141.0638306231454L97 141 L75 141 L53 141 L31 141 M30.957434257170828 141.0638018373881           A22.02127207675678 22.02127207675678 0 0 1 8.93616937685455 119.04252256419316L9 97 L9 75 " stroke = "#000000" stroke-width = "4" fill = "none" /></svg>