<svg width="800" height="800" viewbox = "0 0 800 800"  xmlns="http://www.w3.org/2000/svg">
<!--<json>{
  "glyph": "0210,0336,0220,0335,0335,0220,0335,0335,0220,0335,0335,0220,0335,0335,0220,0330,0221,0334,0221,0334,0221,0335,0335,0335,0221,0335,0330,0335,0335,0221,0330,0221,0335,0330,0335,0334,0220,0334,0221,0331,0334,0334,0334,0334,0330,0334,0331,0335,0335,0334,0334,0220,0335,0335,0330,0335,0335,0335,0201,0335,0335,0201,0331,0334,0201,0335,0201,0331,0334,0201,0335,0201,0335,0201,0335,0335,0201,0334,0334,0334,0201,0335,0335,0335,0335,0201,0331,0334,0201,0335,0201,0331,0334,0334,0201,0335,0335,0201,0201,0335,0201,0331,0334,0334,0201,0335,0335,0201,0331,0335,0335,0335,0335,0201,0334,0201,0331,0335,0201,0334,0201,0201,0334,0201,0335,0335,0335,0201,0335,0335,0201,0335,0335,0335,0201,0331,0334,0334,0201,0335,0335,0201,0331,0334,0334,0201,0335,0335,0201,0334,0334,0201,0335,0201,0335,0335,0335,0335,0342,0334,0334,0334,0334,0201,0335,0335,0335,0335,0201,0331,0335,0335,0201,0334,0201,0334,0334,0334,0334,0342,0335,0335,0335,0335,0334,0334,0334,0334,0330,0334,0331,0334,0334,0334,0334,0334,0331,0331,0334,0334,0334,0334,0335,0335,0335,0330,0334,0334,0334,0330,0335,0335,0330,0334,0334,0334,0330,0335,0335,0335,0333,0334,0334,0330,0335,0201,0335,0335,0335,0342,0334,0201,0335,0342,0334,0201,0335,0201,0334,0201,0335,0201,0335,0335,0335,0335,0342,0334,0334,0334,0334,0201,0335,0335,0335,0335,0201,0334,0334,0334,0330,0335,0330,0334,0330,0335,0335,0335,0330,0330,0334,0330,0335,0330,0335,0335,0331,0334,0334,0334,0334,0334,0334,0334,0330,0335,0335,0334,0334,0330,0335,",
  "shapes": [
    "0220:0305,0362,0203,0335,0203,0335,0350,0335,0203,0335,0335,0203,0354,0335,0335,0335,0305,0350,",
    "0221:0305,0350,0362,0203,0335,0203,0335,0335,0335,0335,0203,0335,0203,0354,0335,0335,0335,0335,",
    "0222:",
    "0223:",
    "0224:",
    "0225:",
    "0226:",
    "0227:",
    "0230:",
    "0231:",
    "0232:",
    "0233:",
    "0234:",
    "0235:",
    "0236:",
    "0237:",
    "0240:",
    "0241:",
    "0242:",
    "0243:",
    "0244:",
    "0245:",
    "0246:",
    "0247:",
    "01220:0333,0200,0336,0330,0332,0336,0331,0337,0210,0210,0220,0211,0211,0313,0304,0336,0331,0333,0333,0337,0337,",
    "01221:0333,0200,0336,0330,0332,0336,0331,0332,0337,0210,0210,0221,0211,0211,0313,0304,0313,0336,0331,0332,0337,0337,0333,",
    "01222:0333,0200,0336,0330,0332,0336,0333,0331,0337,0222,0336,0333,0331,0337,0337,",
    "01223:0333,0200,0336,0330,0336,0331,0332,0332,0337,0223,0336,0331,0333,0333,0337,0337,",
    "01224:0333,0200,0336,0336,0330,0332,0337,0224,0336,0331,0333,0337,0337,",
    "01225:0333,0200,0336,0330,0332,0336,0331,0333,0337,0225,0336,0333,0331,0337,0337,",
    "01226:0333,0200,0336,0336,0330,0332,0337,0226,0336,0333,0331,0337,0337,",
    "01227:0333,0200,0336,0330,0332,0336,0332,0337,0227,0333,0336,0333,0337,0331,0337,",
    "01230:0333,0200,0336,0330,0332,0334,0336,0331,0337,0230,0230,0230,0231,0231,0231,0304,0313,0336,0335,0333,0337,0331,0337,",
    "01231:0333,0200,0336,0330,0332,0334,0336,0331,0337,0230,0231,0313,0304,0335,0336,0332,0336,0330,0334,0337,0240,0335,0336,0331,0337,0337,0333,0331,0337,",
    "01232:0333,0200,0336,0330,0332,0232,0313,0304,0334,0336,0333,0331,0331,0331,0333,0333,0337,0337,0320,",
    "01233:0333,0200,0336,0330,0332,0336,0332,0233,0234,0313,0304,0332,0337,0331,0337,0333,",
    "01234:0333,0200,0336,0330,0332,0336,0332,0233,0234,0313,0304,0336,0330,0334,0331,0337,0240,0335,0336,0332,0331,0337,0332,0337,0331,0337,0333,",
    "01235:0333,0200,0336,0330,0332,0336,0331,0333,0337,0332,0336,0330,0235,0313,0304,0320,0332,0337,0331,0337,0333,",
    "01236:0333,0200,0336,0330,0332,0336,0331,0337,0210,0236,0211,0336,0331,0337,0333,0337,",
    "01237:0333,0200,0336,0330,0332,0336,0332,0336,0332,0337,0237,0336,0333,0337,0337,0331,0337,",
    "01240:0333,0200,0336,0330,0332,0336,0331,0337,0240,0336,0331,0337,0333,0337,",
    "01241:0333,0200,0336,0330,0332,0336,0332,0332,0241,0331,0331,0337,0337,",
    "01242:0333,0200,0336,0332,0332,0336,0330,0330,0336,0333,0242,0333,0337,0337,0331,0337,",
    "01243:0333,0200,0336,0332,0332,0243,0337,",
    "01244:0333,0200,0332,0336,0330,0336,0336,0243,0243,0243,0243,0331,0331,0331,0331,0337,0337,0337,",
    "01245:0333,0200,0336,0332,0336,0331,0337,0245,0333,0336,0330,0337,0337,",
    "01246:0333,0200,0330,0332,0336,0331,0336,0332,0337,0246,0333,0333,0336,0333,0331,0331,0337,0337,",
    "01247:0333,0200,0336,0330,0332,0337,0247,0336,0333,0331,0337,"
  ],
  "x0rel": 0.5,
  "y0rel": 0.5,
  "unitrel": 0.35,
  "theta0": -1.570796,
  "width": 800,
  "height": 800,
  "scale": 1,
  "backgroundimage": "",
  "style": {
    "color0": "black",
    "fill0": "black",
    "line0": 2,
    "color1": "black",
    "fill1": "black",
    "line1": 5,
    "color2": "red",
    "fill2": "red",
    "line2": 1,
    "color3": "#FF7900",
    "fill3": "#FF7900",
    "line3": 1,
    "color4": "yellow",
    "fill4": "yellow",
    "line4": 1,
    "color5": "green",
    "fill5": "green",
    "line5": 1,
    "color6": "blue",
    "fill6": "blue",
    "line6": 1,
    "color7": "purple",
    "fill7": "purple",
    "line7": 1
  },
  "controlbuttons": [
    196,
    198,
    200,
    203,
    128,
    216,
    217,
    218,
    219,
    220,
    221,
    222,
    223,
    27,
    8,
    225,
    192,
    16,
    17,
    144,
    145,
    146,
    147,
    148,
    149,
    150,
    151,
    152,
    153,
    154,
    155,
    156,
    157,
    158,
    159,
    160,
    161,
    162,
    136,
    137
  ]
}</json>-->	<path d = "M400 400 L400 278 L516 240 L516 362 L400 400 Z" stroke = "#000000" stroke-width = "2" fill = "none" />	<path d = "M400 400 L516 362 L588 461 L472 499 L400 400 Z" stroke = "#000000" stroke-width = "2" fill = "none" />	<path d = "M400 400 L472 499 L400 598 L328 499 L400 400 Z" stroke = "#000000" stroke-width = "2" fill = "none" />	<path d = "M400 400 L328 499 L212 461 L284 362 L400 400 Z" stroke = "#000000" stroke-width = "2" fill = "none" />	<path d = "M400 400 L284 362 L284 240 L400 278 L400 400 Z" stroke = "#000000" stroke-width = "2" fill = "none" />	<path d = "M284 362 L167 324 L95 225 L212 263 L284 362 Z" stroke = "#000000" stroke-width = "2" fill = "none" />	<path d = "M284 362 L167 400 L51 362 L167 324 L284 362 Z" stroke = "#000000" stroke-width = "2" fill = "none" />	<path d = "M284 362 L212 461 L95 499 L167 400 L284 362 Z" stroke = "#000000" stroke-width = "2" fill = "none" />	<path d = "M284 362 L212 263 L212 141 L284 240 L284 362 Z" stroke = "#000000" stroke-width = "2" fill = "none" />	<path d = "M284 240 L400 202 L516 240 L400 278 L284 240 Z" stroke = "#000000" stroke-width = "2" fill = "none" />	<path d = "M400 202 L516 164 L633 202 L516 240 L400 202 Z" stroke = "#000000" stroke-width = "2" fill = "none" />	<path d = "M516 240 L633 278 L633 400 L516 362 L516 240 Z" stroke = "#000000" stroke-width = "2" fill = "none" />	<path d = "M516 240 L633 202 L749 240 L633 278 L516 240 Z" stroke = "#000000" stroke-width = "2" fill = "none" />	<path d = "M400 202 L284 240 L212 141 L328 103 L400 202 Z" stroke = "#000000" stroke-width = "2" fill = "none" />    <line x1="328" y1="103" x2="444" y2="65" style="stroke:#000000;stroke-width:2" />
    <line x1="444" y1="65" x2="516" y2="164" style="stroke:#000000;stroke-width:2" />
    <line x1="444" y1="65" x2="561" y2="103" style="stroke:#000000;stroke-width:2" />
    <line x1="561" y1="103" x2="633" y2="202" style="stroke:#000000;stroke-width:2" />
    <line x1="561" y1="103" x2="677" y2="141" style="stroke:#000000;stroke-width:2" />
    <line x1="677" y1="141" x2="749" y2="240" style="stroke:#000000;stroke-width:2" />
    <line x1="749" y1="240" x2="749" y2="362" style="stroke:#000000;stroke-width:2" />
    <line x1="749" y1="362" x2="633" y2="400" style="stroke:#000000;stroke-width:2" />
    <line x1="633" y1="400" x2="705" y2="499" style="stroke:#000000;stroke-width:2" />
    <line x1="705" y1="499" x2="588" y2="461" style="stroke:#000000;stroke-width:2" />
    <line x1="705" y1="499" x2="588" y2="537" style="stroke:#000000;stroke-width:2" />
    <line x1="588" y1="537" x2="472" y2="499" style="stroke:#000000;stroke-width:2" />
    <line x1="588" y1="537" x2="516" y2="636" style="stroke:#000000;stroke-width:2" />
    <line x1="516" y1="636" x2="400" y2="598" style="stroke:#000000;stroke-width:2" />
    <line x1="400" y1="598" x2="284" y2="560" style="stroke:#000000;stroke-width:2" />
    <line x1="284" y1="560" x2="212" y2="461" style="stroke:#000000;stroke-width:2" />
    <line x1="284" y1="560" x2="167" y2="598" style="stroke:#000000;stroke-width:2" />
    <line x1="167" y1="598" x2="95" y2="499" style="stroke:#000000;stroke-width:2" />
    <line x1="167" y1="598" x2="284" y2="636" style="stroke:#000000;stroke-width:2" />
    <line x1="284" y1="636" x2="400" y2="598" style="stroke:#000000;stroke-width:2" />
    <line x1="284" y1="636" x2="400" y2="674" style="stroke:#000000;stroke-width:2" />
    <line x1="400" y1="674" x2="516" y2="636" style="stroke:#000000;stroke-width:2" />
    <line x1="516" y1="636" x2="633" y2="598" style="stroke:#000000;stroke-width:2" />
    <line x1="633" y1="598" x2="705" y2="499" style="stroke:#000000;stroke-width:2" />
    <line x1="705" y1="499" x2="777" y2="598" style="stroke:#000000;stroke-width:2" />
    <line x1="777" y1="598" x2="705" y2="697" style="stroke:#000000;stroke-width:2" />
    <line x1="705" y1="697" x2="633" y2="598" style="stroke:#000000;stroke-width:2" />
    <line x1="705" y1="697" x2="588" y2="735" style="stroke:#000000;stroke-width:2" />
    <line x1="588" y1="735" x2="516" y2="636" style="stroke:#000000;stroke-width:2" />
    <line x1="588" y1="735" x2="472" y2="773" style="stroke:#000000;stroke-width:2" />
    <line x1="472" y1="773" x2="400" y2="674" style="stroke:#000000;stroke-width:2" />
    <line x1="400" y1="674" x2="284" y2="711" style="stroke:#000000;stroke-width:2" />
    <line x1="284" y1="711" x2="167" y2="674" style="stroke:#000000;stroke-width:2" />
    <line x1="167" y1="674" x2="284" y2="636" style="stroke:#000000;stroke-width:2" />
    <line x1="167" y1="674" x2="51" y2="636" style="stroke:#000000;stroke-width:2" />
    <line x1="51" y1="636" x2="167" y2="598" style="stroke:#000000;stroke-width:2" />
    <line x1="51" y1="636" x2="123" y2="735" style="stroke:#000000;stroke-width:2" />
    <line x1="123" y1="735" x2="239" y2="773" style="stroke:#000000;stroke-width:2" />
    <line x1="239" y1="773" x2="167" y2="674" style="stroke:#000000;stroke-width:2" />
    <line x1="95" y1="225" x2="95" y2="103" style="stroke:#000000;stroke-width:2" />
    <line x1="95" y1="103" x2="212" y2="141" style="stroke:#000000;stroke-width:2" />
    <line x1="95" y1="103" x2="212" y2="65" style="stroke:#000000;stroke-width:2" />
    <line x1="212" y1="65" x2="328" y2="103" style="stroke:#000000;stroke-width:2" />
    <line x1="212" y1="65" x2="328" y2="27" style="stroke:#000000;stroke-width:2" />
    <line x1="328" y1="27" x2="444" y2="65" style="stroke:#000000;stroke-width:2" />
    <line x1="444" y1="65" x2="561" y2="27" style="stroke:#000000;stroke-width:2" />
    <line x1="561" y1="27" x2="677" y2="65" style="stroke:#000000;stroke-width:2" />
    <line x1="677" y1="65" x2="561" y2="103" style="stroke:#000000;stroke-width:2" />
    <line x1="677" y1="65" x2="794" y2="103" style="stroke:#000000;stroke-width:2" />
    <line x1="794" y1="103" x2="677" y2="141" style="stroke:#000000;stroke-width:2" />
</svg>