<svg width="800" height="800" viewbox = "0 0 800 800"  xmlns="http://www.w3.org/2000/svg">
<!--<json>{
  "glyph": "0331,0332,0336,0331,0336,0330,0332,0337,0337,0336,0222,0222,0222,0222,0222,0221,0222,0222,0222,0222,0335,0335,0222,0222,0222,0222,0221,0332,0222,0222,0222,0222,0222,0335,0335,0222,0222,0222,0222,0222,0221,0222,0222,0222,0222,0335,0335,",
  "shapes": [
    "0220:0304,0313,0335,0305,0311,0362,0203,0334,0350,0334,0337,0203,0334,0334,0334,0334,0203,0354,0335,0335,0336,0331,0304,0335,0313,",
    "0221:0313,0304,0334,0305,0311,0337,0333,0336,0304,0313,0334,",
    "0222:0320,0220,0322,0313,0304,0334,0305,0350,0335,0311,0201,0335,0335,0335,0335,0336,0201,0334,0334,0334,0334,0201,0335,0335,0335,0335,0336,0201,0334,0334,0334,0334,0201,0335,0335,0335,0335,0336,0201,0334,0334,0334,0334,0201,0335,0335,0335,0335,0336,0201,0334,0334,0334,0334,0201,0335,0335,0335,0335,0336,0201,0334,0334,0334,0337,0330,0337,0337,0337,0337,0337,0331,0334,0334,0336,0313,0304,0335,",
    "0223:",
    "0224:",
    "0225:",
    "0226:",
    "0227:",
    "0230:",
    "0231:",
    "0232:",
    "0233:",
    "0234:",
    "0235:",
    "0236:",
    "0237:",
    "0240:",
    "0241:",
    "0242:",
    "0243:",
    "0244:",
    "0245:",
    "0246:",
    "0247:",
    "01220:0333,0200,0336,0330,0332,0336,0331,0337,0220,0332,0313,0304,0336,0331,0333,0333,0337,0337,",
    "01221:0333,0200,0336,0330,0332,0336,0331,0333,0332,0332,0220,0221,0220,0221,0331,0332,0313,0337,0337,0333,",
    "01222:0333,0200,0336,0330,0332,0336,0331,0332,0222,0332,0313,0304,0331,0332,0337,0337,0333,0320,",
    "01223:0333,0200,0336,0330,0336,0331,0332,0332,0337,0223,0336,0331,0333,0333,0337,0337,",
    "01224:0333,0200,0336,0336,0330,0332,0337,0224,0336,0331,0333,0337,0337,",
    "01225:0333,0200,0336,0330,0332,0336,0331,0333,0337,0225,0336,0333,0331,0337,0337,",
    "01226:0333,0200,0336,0336,0330,0332,0337,0226,0336,0333,0331,0337,0337,",
    "01227:0333,0200,0336,0330,0332,0336,0332,0337,0227,0333,0336,0333,0337,0331,0337,",
    "01230:0333,0200,0336,0330,0332,0334,0336,0331,0337,0230,0230,0230,0231,0231,0231,0304,0313,0336,0335,0333,0337,0331,0337,",
    "01231:0333,0200,0336,0330,0332,0334,0336,0331,0337,0230,0231,0313,0304,0335,0336,0332,0336,0330,0334,0337,0240,0335,0336,0331,0337,0337,0333,0331,0337,",
    "01232:0333,0200,0336,0330,0332,0232,0313,0304,0334,0336,0333,0331,0331,0331,0333,0333,0337,0337,0320,",
    "01233:0333,0200,0336,0330,0332,0336,0332,0233,0234,0313,0304,0332,0337,0331,0337,0333,",
    "01234:0333,0200,0336,0330,0332,0336,0332,0233,0234,0313,0304,0336,0330,0334,0331,0337,0240,0335,0336,0332,0331,0337,0332,0337,0331,0337,0333,",
    "01235:0333,0200,0336,0330,0332,0336,0331,0333,0337,0332,0336,0330,0235,0313,0304,0320,0332,0337,0331,0337,0333,",
    "01236:0333,0200,0336,0330,0332,0336,0331,0337,0210,0236,0211,0336,0331,0337,0333,0337,",
    "01237:0333,0200,0336,0330,0332,0336,0332,0336,0332,0337,0237,0336,0333,0337,0337,0331,0337,",
    "01240:0333,0200,0336,0330,0332,0336,0331,0337,0240,0336,0331,0337,0333,0337,",
    "01241:0333,0200,0336,0330,0332,0336,0332,0332,0241,0331,0331,0337,0337,",
    "01242:0333,0200,0336,0332,0332,0336,0330,0330,0336,0333,0242,0333,0337,0337,0331,0337,",
    "01243:0333,0200,0336,0332,0332,0243,0337,",
    "01244:0333,0200,0332,0336,0330,0336,0336,0243,0243,0243,0243,0331,0331,0331,0331,0337,0337,0337,",
    "01245:0333,0200,0336,0332,0336,0331,0337,0245,0333,0336,0330,0337,0337,",
    "01246:0333,0200,0330,0332,0336,0331,0336,0332,0337,0246,0333,0333,0336,0333,0331,0331,0337,0337,",
    "01247:0333,0200,0336,0330,0332,0337,0247,0336,0333,0331,0337,"
  ],
  "x0rel": 0.5,
  "y0rel": 0.5,
  "unitrel": 0.35,
  "theta0": -1.570796,
  "width": 800,
  "height": 800,
  "scale": 1,
  "backgroundimage": "",
  "style": {
    "color0": "black",
    "fill0": "black",
    "line0": 2,
    "color1": "black",
    "fill1": "black",
    "line1": 5,
    "color2": "red",
    "fill2": "red",
    "line2": 1,
    "color3": "#FF7900",
    "fill3": "#FF7900",
    "line3": 1,
    "color4": "yellow",
    "fill4": "yellow",
    "line4": 1,
    "color5": "green",
    "fill5": "green",
    "line5": 1,
    "color6": "blue",
    "fill6": "blue",
    "line6": 1,
    "color7": "purple",
    "fill7": "purple",
    "line7": 1
  },
  "controlbuttons": [
    196,
    198,
    200,
    203,
    128,
    216,
    217,
    218,
    219,
    220,
    221,
    222,
    223,
    27,
    8,
    225,
    192,
    16,
    17,
    144,
    145,
    146,
    147,
    148,
    149,
    150,
    151,
    152,
    153,
    154,
    155,
    156,
    157,
    158,
    159,
    160,
    161,
    162,
    136,
    137
  ]
}</json>-->	<path d = "M50 750 L190 750 L120 535 L50 750 Z" stroke = "#000000" stroke-width = "2" fill = "none" />    <line x1="190" y1="750" x2="77" y2="668" style="stroke:#ff0000;stroke-width:1" />
    <line x1="77" y1="668" x2="163" y2="668" style="stroke:#ff0000;stroke-width:1" />
    <line x1="163" y1="668" x2="93" y2="617" style="stroke:#ff0000;stroke-width:1" />
    <line x1="93" y1="617" x2="147" y2="617" style="stroke:#ff0000;stroke-width:1" />
    <line x1="147" y1="617" x2="103" y2="585" style="stroke:#ff0000;stroke-width:1" />
    <line x1="103" y1="585" x2="137" y2="585" style="stroke:#ff0000;stroke-width:1" />
    <line x1="137" y1="585" x2="110" y2="566" style="stroke:#ff0000;stroke-width:1" />
    <line x1="110" y1="566" x2="130" y2="566" style="stroke:#ff0000;stroke-width:1" />
    <line x1="130" y1="566" x2="114" y2="554" style="stroke:#ff0000;stroke-width:1" />
    <line x1="114" y1="554" x2="126" y2="554" style="stroke:#ff0000;stroke-width:1" />
	<path d = "M190 750 L330 750 L260 535 L190 750 Z" stroke = "#000000" stroke-width = "2" fill = "none" />    <line x1="330" y1="750" x2="217" y2="668" style="stroke:#ff0000;stroke-width:1" />
    <line x1="217" y1="668" x2="303" y2="668" style="stroke:#ff0000;stroke-width:1" />
    <line x1="303" y1="668" x2="233" y2="617" style="stroke:#ff0000;stroke-width:1" />
    <line x1="233" y1="617" x2="287" y2="617" style="stroke:#ff0000;stroke-width:1" />
    <line x1="287" y1="617" x2="243" y2="585" style="stroke:#ff0000;stroke-width:1" />
    <line x1="243" y1="585" x2="277" y2="585" style="stroke:#ff0000;stroke-width:1" />
    <line x1="277" y1="585" x2="250" y2="566" style="stroke:#ff0000;stroke-width:1" />
    <line x1="250" y1="566" x2="270" y2="566" style="stroke:#ff0000;stroke-width:1" />
    <line x1="270" y1="566" x2="254" y2="554" style="stroke:#ff0000;stroke-width:1" />
    <line x1="254" y1="554" x2="266" y2="554" style="stroke:#ff0000;stroke-width:1" />
	<path d = "M330 750 L470 750 L400 535 L330 750 Z" stroke = "#000000" stroke-width = "2" fill = "none" />    <line x1="470" y1="750" x2="357" y2="668" style="stroke:#ff0000;stroke-width:1" />
    <line x1="357" y1="668" x2="443" y2="668" style="stroke:#ff0000;stroke-width:1" />
    <line x1="443" y1="668" x2="373" y2="617" style="stroke:#ff0000;stroke-width:1" />
    <line x1="373" y1="617" x2="427" y2="617" style="stroke:#ff0000;stroke-width:1" />
    <line x1="427" y1="617" x2="383" y2="585" style="stroke:#ff0000;stroke-width:1" />
    <line x1="383" y1="585" x2="417" y2="585" style="stroke:#ff0000;stroke-width:1" />
    <line x1="417" y1="585" x2="390" y2="566" style="stroke:#ff0000;stroke-width:1" />
    <line x1="390" y1="566" x2="410" y2="566" style="stroke:#ff0000;stroke-width:1" />
    <line x1="410" y1="566" x2="394" y2="554" style="stroke:#ff0000;stroke-width:1" />
    <line x1="394" y1="554" x2="406" y2="554" style="stroke:#ff0000;stroke-width:1" />
	<path d = "M470 750 L610 750 L540 535 L470 750 Z" stroke = "#000000" stroke-width = "2" fill = "none" />    <line x1="610" y1="750" x2="497" y2="668" style="stroke:#ff0000;stroke-width:1" />
    <line x1="497" y1="668" x2="583" y2="668" style="stroke:#ff0000;stroke-width:1" />
    <line x1="583" y1="668" x2="513" y2="617" style="stroke:#ff0000;stroke-width:1" />
    <line x1="513" y1="617" x2="567" y2="617" style="stroke:#ff0000;stroke-width:1" />
    <line x1="567" y1="617" x2="523" y2="585" style="stroke:#ff0000;stroke-width:1" />
    <line x1="523" y1="585" x2="557" y2="585" style="stroke:#ff0000;stroke-width:1" />
    <line x1="557" y1="585" x2="530" y2="566" style="stroke:#ff0000;stroke-width:1" />
    <line x1="530" y1="566" x2="550" y2="566" style="stroke:#ff0000;stroke-width:1" />
    <line x1="550" y1="566" x2="534" y2="554" style="stroke:#ff0000;stroke-width:1" />
    <line x1="534" y1="554" x2="546" y2="554" style="stroke:#ff0000;stroke-width:1" />
	<path d = "M610 750 L750 750 L680 535 L610 750 Z" stroke = "#000000" stroke-width = "2" fill = "none" />    <line x1="750" y1="750" x2="637" y2="668" style="stroke:#ff0000;stroke-width:1" />
    <line x1="637" y1="668" x2="723" y2="668" style="stroke:#ff0000;stroke-width:1" />
    <line x1="723" y1="668" x2="653" y2="617" style="stroke:#ff0000;stroke-width:1" />
    <line x1="653" y1="617" x2="707" y2="617" style="stroke:#ff0000;stroke-width:1" />
    <line x1="707" y1="617" x2="663" y2="585" style="stroke:#ff0000;stroke-width:1" />
    <line x1="663" y1="585" x2="697" y2="585" style="stroke:#ff0000;stroke-width:1" />
    <line x1="697" y1="585" x2="670" y2="566" style="stroke:#ff0000;stroke-width:1" />
    <line x1="670" y1="566" x2="690" y2="566" style="stroke:#ff0000;stroke-width:1" />
    <line x1="690" y1="566" x2="674" y2="554" style="stroke:#ff0000;stroke-width:1" />
    <line x1="674" y1="554" x2="686" y2="554" style="stroke:#ff0000;stroke-width:1" />
	<path d = "M680 535 L540 535 L610 750 L680 535 Z" stroke = "#000000" stroke-width = "2" fill = "none" />    <line x1="540" y1="535" x2="653" y2="617" style="stroke:#ff0000;stroke-width:1" />
    <line x1="653" y1="617" x2="567" y2="617" style="stroke:#ff0000;stroke-width:1" />
    <line x1="567" y1="617" x2="637" y2="668" style="stroke:#ff0000;stroke-width:1" />
    <line x1="637" y1="668" x2="583" y2="668" style="stroke:#ff0000;stroke-width:1" />
    <line x1="583" y1="668" x2="627" y2="699" style="stroke:#ff0000;stroke-width:1" />
    <line x1="627" y1="699" x2="593" y2="699" style="stroke:#ff0000;stroke-width:1" />
    <line x1="593" y1="699" x2="620" y2="719" style="stroke:#ff0000;stroke-width:1" />
    <line x1="620" y1="719" x2="600" y2="719" style="stroke:#ff0000;stroke-width:1" />
    <line x1="600" y1="719" x2="616" y2="731" style="stroke:#ff0000;stroke-width:1" />
    <line x1="616" y1="731" x2="604" y2="731" style="stroke:#ff0000;stroke-width:1" />
	<path d = "M540 535 L400 535 L470 750 L540 535 Z" stroke = "#000000" stroke-width = "2" fill = "none" />    <line x1="400" y1="535" x2="513" y2="617" style="stroke:#ff0000;stroke-width:1" />
    <line x1="513" y1="617" x2="427" y2="617" style="stroke:#ff0000;stroke-width:1" />
    <line x1="427" y1="617" x2="497" y2="668" style="stroke:#ff0000;stroke-width:1" />
    <line x1="497" y1="668" x2="443" y2="668" style="stroke:#ff0000;stroke-width:1" />
    <line x1="443" y1="668" x2="487" y2="699" style="stroke:#ff0000;stroke-width:1" />
    <line x1="487" y1="699" x2="453" y2="699" style="stroke:#ff0000;stroke-width:1" />
    <line x1="453" y1="699" x2="480" y2="719" style="stroke:#ff0000;stroke-width:1" />
    <line x1="480" y1="719" x2="460" y2="719" style="stroke:#ff0000;stroke-width:1" />
    <line x1="460" y1="719" x2="476" y2="731" style="stroke:#ff0000;stroke-width:1" />
    <line x1="476" y1="731" x2="464" y2="731" style="stroke:#ff0000;stroke-width:1" />
	<path d = "M400 535 L260 535 L330 750 L400 535 Z" stroke = "#000000" stroke-width = "2" fill = "none" />    <line x1="260" y1="535" x2="373" y2="617" style="stroke:#ff0000;stroke-width:1" />
    <line x1="373" y1="617" x2="287" y2="617" style="stroke:#ff0000;stroke-width:1" />
    <line x1="287" y1="617" x2="357" y2="668" style="stroke:#ff0000;stroke-width:1" />
    <line x1="357" y1="668" x2="303" y2="668" style="stroke:#ff0000;stroke-width:1" />
    <line x1="303" y1="668" x2="347" y2="699" style="stroke:#ff0000;stroke-width:1" />
    <line x1="347" y1="699" x2="313" y2="699" style="stroke:#ff0000;stroke-width:1" />
    <line x1="313" y1="699" x2="340" y2="719" style="stroke:#ff0000;stroke-width:1" />
    <line x1="340" y1="719" x2="320" y2="719" style="stroke:#ff0000;stroke-width:1" />
    <line x1="320" y1="719" x2="336" y2="731" style="stroke:#ff0000;stroke-width:1" />
    <line x1="336" y1="731" x2="324" y2="731" style="stroke:#ff0000;stroke-width:1" />
	<path d = "M260 535 L120 535 L190 750 L260 535 Z" stroke = "#000000" stroke-width = "2" fill = "none" />    <line x1="120" y1="535" x2="233" y2="617" style="stroke:#ff0000;stroke-width:1" />
    <line x1="233" y1="617" x2="147" y2="617" style="stroke:#ff0000;stroke-width:1" />
    <line x1="147" y1="617" x2="217" y2="668" style="stroke:#ff0000;stroke-width:1" />
    <line x1="217" y1="668" x2="163" y2="668" style="stroke:#ff0000;stroke-width:1" />
    <line x1="163" y1="668" x2="207" y2="699" style="stroke:#ff0000;stroke-width:1" />
    <line x1="207" y1="699" x2="173" y2="699" style="stroke:#ff0000;stroke-width:1" />
    <line x1="173" y1="699" x2="200" y2="719" style="stroke:#ff0000;stroke-width:1" />
    <line x1="200" y1="719" x2="180" y2="719" style="stroke:#ff0000;stroke-width:1" />
    <line x1="180" y1="719" x2="196" y2="731" style="stroke:#ff0000;stroke-width:1" />
    <line x1="196" y1="731" x2="184" y2="731" style="stroke:#ff0000;stroke-width:1" />
	<path d = "M120 535 L260 535 L190 319 L120 535 Z" stroke = "#000000" stroke-width = "2" fill = "none" />    <line x1="260" y1="535" x2="147" y2="452" style="stroke:#ff0000;stroke-width:1" />
    <line x1="147" y1="452" x2="233" y2="452" style="stroke:#ff0000;stroke-width:1" />
    <line x1="233" y1="452" x2="163" y2="401" style="stroke:#ff0000;stroke-width:1" />
    <line x1="163" y1="401" x2="217" y2="401" style="stroke:#ff0000;stroke-width:1" />
    <line x1="217" y1="401" x2="173" y2="370" style="stroke:#ff0000;stroke-width:1" />
    <line x1="173" y1="370" x2="207" y2="370" style="stroke:#ff0000;stroke-width:1" />
    <line x1="207" y1="370" x2="180" y2="351" style="stroke:#ff0000;stroke-width:1" />
    <line x1="180" y1="351" x2="200" y2="351" style="stroke:#ff0000;stroke-width:1" />
    <line x1="200" y1="351" x2="184" y2="339" style="stroke:#ff0000;stroke-width:1" />
    <line x1="184" y1="339" x2="196" y2="339" style="stroke:#ff0000;stroke-width:1" />
	<path d = "M260 535 L400 535 L330 319 L260 535 Z" stroke = "#000000" stroke-width = "2" fill = "none" />    <line x1="400" y1="535" x2="287" y2="452" style="stroke:#ff0000;stroke-width:1" />
    <line x1="287" y1="452" x2="373" y2="452" style="stroke:#ff0000;stroke-width:1" />
    <line x1="373" y1="452" x2="303" y2="401" style="stroke:#ff0000;stroke-width:1" />
    <line x1="303" y1="401" x2="357" y2="401" style="stroke:#ff0000;stroke-width:1" />
    <line x1="357" y1="401" x2="313" y2="370" style="stroke:#ff0000;stroke-width:1" />
    <line x1="313" y1="370" x2="347" y2="370" style="stroke:#ff0000;stroke-width:1" />
    <line x1="347" y1="370" x2="320" y2="351" style="stroke:#ff0000;stroke-width:1" />
    <line x1="320" y1="351" x2="340" y2="351" style="stroke:#ff0000;stroke-width:1" />
    <line x1="340" y1="351" x2="324" y2="339" style="stroke:#ff0000;stroke-width:1" />
    <line x1="324" y1="339" x2="336" y2="339" style="stroke:#ff0000;stroke-width:1" />
	<path d = "M400 535 L540 535 L470 319 L400 535 Z" stroke = "#000000" stroke-width = "2" fill = "none" />    <line x1="540" y1="535" x2="427" y2="452" style="stroke:#ff0000;stroke-width:1" />
    <line x1="427" y1="452" x2="513" y2="452" style="stroke:#ff0000;stroke-width:1" />
    <line x1="513" y1="452" x2="443" y2="401" style="stroke:#ff0000;stroke-width:1" />
    <line x1="443" y1="401" x2="497" y2="401" style="stroke:#ff0000;stroke-width:1" />
    <line x1="497" y1="401" x2="453" y2="370" style="stroke:#ff0000;stroke-width:1" />
    <line x1="453" y1="370" x2="487" y2="370" style="stroke:#ff0000;stroke-width:1" />
    <line x1="487" y1="370" x2="460" y2="351" style="stroke:#ff0000;stroke-width:1" />
    <line x1="460" y1="351" x2="480" y2="351" style="stroke:#ff0000;stroke-width:1" />
    <line x1="480" y1="351" x2="464" y2="339" style="stroke:#ff0000;stroke-width:1" />
    <line x1="464" y1="339" x2="476" y2="339" style="stroke:#ff0000;stroke-width:1" />
	<path d = "M540 535 L680 535 L610 319 L540 535 Z" stroke = "#000000" stroke-width = "2" fill = "none" />    <line x1="680" y1="535" x2="567" y2="452" style="stroke:#ff0000;stroke-width:1" />
    <line x1="567" y1="452" x2="653" y2="452" style="stroke:#ff0000;stroke-width:1" />
    <line x1="653" y1="452" x2="583" y2="401" style="stroke:#ff0000;stroke-width:1" />
    <line x1="583" y1="401" x2="637" y2="401" style="stroke:#ff0000;stroke-width:1" />
    <line x1="637" y1="401" x2="593" y2="370" style="stroke:#ff0000;stroke-width:1" />
    <line x1="593" y1="370" x2="627" y2="370" style="stroke:#ff0000;stroke-width:1" />
    <line x1="627" y1="370" x2="600" y2="351" style="stroke:#ff0000;stroke-width:1" />
    <line x1="600" y1="351" x2="620" y2="351" style="stroke:#ff0000;stroke-width:1" />
    <line x1="620" y1="351" x2="604" y2="339" style="stroke:#ff0000;stroke-width:1" />
    <line x1="604" y1="339" x2="616" y2="339" style="stroke:#ff0000;stroke-width:1" />
	<path d = "M750 319 L610 319 L680 535 L750 319 Z" stroke = "#000000" stroke-width = "2" fill = "none" />    <line x1="610" y1="319" x2="723" y2="401" style="stroke:#ff0000;stroke-width:1" />
    <line x1="723" y1="401" x2="637" y2="401" style="stroke:#ff0000;stroke-width:1" />
    <line x1="637" y1="401" x2="707" y2="452" style="stroke:#ff0000;stroke-width:1" />
    <line x1="707" y1="452" x2="653" y2="452" style="stroke:#ff0000;stroke-width:1" />
    <line x1="653" y1="452" x2="697" y2="484" style="stroke:#ff0000;stroke-width:1" />
    <line x1="697" y1="484" x2="663" y2="484" style="stroke:#ff0000;stroke-width:1" />
    <line x1="663" y1="484" x2="690" y2="503" style="stroke:#ff0000;stroke-width:1" />
    <line x1="690" y1="503" x2="670" y2="503" style="stroke:#ff0000;stroke-width:1" />
    <line x1="670" y1="503" x2="686" y2="515" style="stroke:#ff0000;stroke-width:1" />
    <line x1="686" y1="515" x2="674" y2="515" style="stroke:#ff0000;stroke-width:1" />
	<path d = "M610 319 L470 319 L540 535 L610 319 Z" stroke = "#000000" stroke-width = "2" fill = "none" />    <line x1="470" y1="319" x2="583" y2="401" style="stroke:#ff0000;stroke-width:1" />
    <line x1="583" y1="401" x2="497" y2="401" style="stroke:#ff0000;stroke-width:1" />
    <line x1="497" y1="401" x2="567" y2="452" style="stroke:#ff0000;stroke-width:1" />
    <line x1="567" y1="452" x2="513" y2="452" style="stroke:#ff0000;stroke-width:1" />
    <line x1="513" y1="452" x2="557" y2="484" style="stroke:#ff0000;stroke-width:1" />
    <line x1="557" y1="484" x2="523" y2="484" style="stroke:#ff0000;stroke-width:1" />
    <line x1="523" y1="484" x2="550" y2="503" style="stroke:#ff0000;stroke-width:1" />
    <line x1="550" y1="503" x2="530" y2="503" style="stroke:#ff0000;stroke-width:1" />
    <line x1="530" y1="503" x2="546" y2="515" style="stroke:#ff0000;stroke-width:1" />
    <line x1="546" y1="515" x2="534" y2="515" style="stroke:#ff0000;stroke-width:1" />
	<path d = "M470 319 L330 319 L400 535 L470 319 Z" stroke = "#000000" stroke-width = "2" fill = "none" />    <line x1="330" y1="319" x2="443" y2="401" style="stroke:#ff0000;stroke-width:1" />
    <line x1="443" y1="401" x2="357" y2="401" style="stroke:#ff0000;stroke-width:1" />
    <line x1="357" y1="401" x2="427" y2="452" style="stroke:#ff0000;stroke-width:1" />
    <line x1="427" y1="452" x2="373" y2="452" style="stroke:#ff0000;stroke-width:1" />
    <line x1="373" y1="452" x2="417" y2="484" style="stroke:#ff0000;stroke-width:1" />
    <line x1="417" y1="484" x2="383" y2="484" style="stroke:#ff0000;stroke-width:1" />
    <line x1="383" y1="484" x2="410" y2="503" style="stroke:#ff0000;stroke-width:1" />
    <line x1="410" y1="503" x2="390" y2="503" style="stroke:#ff0000;stroke-width:1" />
    <line x1="390" y1="503" x2="406" y2="515" style="stroke:#ff0000;stroke-width:1" />
    <line x1="406" y1="515" x2="394" y2="515" style="stroke:#ff0000;stroke-width:1" />
	<path d = "M330 319 L190 319 L260 535 L330 319 Z" stroke = "#000000" stroke-width = "2" fill = "none" />    <line x1="190" y1="319" x2="303" y2="401" style="stroke:#ff0000;stroke-width:1" />
    <line x1="303" y1="401" x2="217" y2="401" style="stroke:#ff0000;stroke-width:1" />
    <line x1="217" y1="401" x2="287" y2="452" style="stroke:#ff0000;stroke-width:1" />
    <line x1="287" y1="452" x2="233" y2="452" style="stroke:#ff0000;stroke-width:1" />
    <line x1="233" y1="452" x2="277" y2="484" style="stroke:#ff0000;stroke-width:1" />
    <line x1="277" y1="484" x2="243" y2="484" style="stroke:#ff0000;stroke-width:1" />
    <line x1="243" y1="484" x2="270" y2="503" style="stroke:#ff0000;stroke-width:1" />
    <line x1="270" y1="503" x2="250" y2="503" style="stroke:#ff0000;stroke-width:1" />
    <line x1="250" y1="503" x2="266" y2="515" style="stroke:#ff0000;stroke-width:1" />
    <line x1="266" y1="515" x2="254" y2="515" style="stroke:#ff0000;stroke-width:1" />
	<path d = "M190 319 L50 319 L120 535 L190 319 Z" stroke = "#000000" stroke-width = "2" fill = "none" />    <line x1="50" y1="319" x2="163" y2="401" style="stroke:#ff0000;stroke-width:1" />
    <line x1="163" y1="401" x2="77" y2="401" style="stroke:#ff0000;stroke-width:1" />
    <line x1="77" y1="401" x2="147" y2="452" style="stroke:#ff0000;stroke-width:1" />
    <line x1="147" y1="452" x2="93" y2="452" style="stroke:#ff0000;stroke-width:1" />
    <line x1="93" y1="452" x2="137" y2="484" style="stroke:#ff0000;stroke-width:1" />
    <line x1="137" y1="484" x2="103" y2="484" style="stroke:#ff0000;stroke-width:1" />
    <line x1="103" y1="484" x2="130" y2="503" style="stroke:#ff0000;stroke-width:1" />
    <line x1="130" y1="503" x2="110" y2="503" style="stroke:#ff0000;stroke-width:1" />
    <line x1="110" y1="503" x2="126" y2="515" style="stroke:#ff0000;stroke-width:1" />
    <line x1="126" y1="515" x2="114" y2="515" style="stroke:#ff0000;stroke-width:1" />
	<path d = "M50 319 L190 319 L120 104 L50 319 Z" stroke = "#000000" stroke-width = "2" fill = "none" />    <line x1="190" y1="319" x2="77" y2="237" style="stroke:#ff0000;stroke-width:1" />
    <line x1="77" y1="237" x2="163" y2="237" style="stroke:#ff0000;stroke-width:1" />
    <line x1="163" y1="237" x2="93" y2="186" style="stroke:#ff0000;stroke-width:1" />
    <line x1="93" y1="186" x2="147" y2="186" style="stroke:#ff0000;stroke-width:1" />
    <line x1="147" y1="186" x2="103" y2="155" style="stroke:#ff0000;stroke-width:1" />
    <line x1="103" y1="155" x2="137" y2="155" style="stroke:#ff0000;stroke-width:1" />
    <line x1="137" y1="155" x2="110" y2="135" style="stroke:#ff0000;stroke-width:1" />
    <line x1="110" y1="135" x2="130" y2="135" style="stroke:#ff0000;stroke-width:1" />
    <line x1="130" y1="135" x2="114" y2="123" style="stroke:#ff0000;stroke-width:1" />
    <line x1="114" y1="123" x2="126" y2="123" style="stroke:#ff0000;stroke-width:1" />
	<path d = "M190 319 L330 319 L260 104 L190 319 Z" stroke = "#000000" stroke-width = "2" fill = "none" />    <line x1="330" y1="319" x2="217" y2="237" style="stroke:#ff0000;stroke-width:1" />
    <line x1="217" y1="237" x2="303" y2="237" style="stroke:#ff0000;stroke-width:1" />
    <line x1="303" y1="237" x2="233" y2="186" style="stroke:#ff0000;stroke-width:1" />
    <line x1="233" y1="186" x2="287" y2="186" style="stroke:#ff0000;stroke-width:1" />
    <line x1="287" y1="186" x2="243" y2="155" style="stroke:#ff0000;stroke-width:1" />
    <line x1="243" y1="155" x2="277" y2="155" style="stroke:#ff0000;stroke-width:1" />
    <line x1="277" y1="155" x2="250" y2="135" style="stroke:#ff0000;stroke-width:1" />
    <line x1="250" y1="135" x2="270" y2="135" style="stroke:#ff0000;stroke-width:1" />
    <line x1="270" y1="135" x2="254" y2="123" style="stroke:#ff0000;stroke-width:1" />
    <line x1="254" y1="123" x2="266" y2="123" style="stroke:#ff0000;stroke-width:1" />
	<path d = "M330 319 L470 319 L400 104 L330 319 Z" stroke = "#000000" stroke-width = "2" fill = "none" />    <line x1="470" y1="319" x2="357" y2="237" style="stroke:#ff0000;stroke-width:1" />
    <line x1="357" y1="237" x2="443" y2="237" style="stroke:#ff0000;stroke-width:1" />
    <line x1="443" y1="237" x2="373" y2="186" style="stroke:#ff0000;stroke-width:1" />
    <line x1="373" y1="186" x2="427" y2="186" style="stroke:#ff0000;stroke-width:1" />
    <line x1="427" y1="186" x2="383" y2="155" style="stroke:#ff0000;stroke-width:1" />
    <line x1="383" y1="155" x2="417" y2="155" style="stroke:#ff0000;stroke-width:1" />
    <line x1="417" y1="155" x2="390" y2="135" style="stroke:#ff0000;stroke-width:1" />
    <line x1="390" y1="135" x2="410" y2="135" style="stroke:#ff0000;stroke-width:1" />
    <line x1="410" y1="135" x2="394" y2="123" style="stroke:#ff0000;stroke-width:1" />
    <line x1="394" y1="123" x2="406" y2="123" style="stroke:#ff0000;stroke-width:1" />
	<path d = "M470 319 L610 319 L540 104 L470 319 Z" stroke = "#000000" stroke-width = "2" fill = "none" />    <line x1="610" y1="319" x2="497" y2="237" style="stroke:#ff0000;stroke-width:1" />
    <line x1="497" y1="237" x2="583" y2="237" style="stroke:#ff0000;stroke-width:1" />
    <line x1="583" y1="237" x2="513" y2="186" style="stroke:#ff0000;stroke-width:1" />
    <line x1="513" y1="186" x2="567" y2="186" style="stroke:#ff0000;stroke-width:1" />
    <line x1="567" y1="186" x2="523" y2="155" style="stroke:#ff0000;stroke-width:1" />
    <line x1="523" y1="155" x2="557" y2="155" style="stroke:#ff0000;stroke-width:1" />
    <line x1="557" y1="155" x2="530" y2="135" style="stroke:#ff0000;stroke-width:1" />
    <line x1="530" y1="135" x2="550" y2="135" style="stroke:#ff0000;stroke-width:1" />
    <line x1="550" y1="135" x2="534" y2="123" style="stroke:#ff0000;stroke-width:1" />
    <line x1="534" y1="123" x2="546" y2="123" style="stroke:#ff0000;stroke-width:1" />
	<path d = "M610 319 L750 319 L680 104 L610 319 Z" stroke = "#000000" stroke-width = "2" fill = "none" />    <line x1="750" y1="319" x2="637" y2="237" style="stroke:#ff0000;stroke-width:1" />
    <line x1="637" y1="237" x2="723" y2="237" style="stroke:#ff0000;stroke-width:1" />
    <line x1="723" y1="237" x2="653" y2="186" style="stroke:#ff0000;stroke-width:1" />
    <line x1="653" y1="186" x2="707" y2="186" style="stroke:#ff0000;stroke-width:1" />
    <line x1="707" y1="186" x2="663" y2="155" style="stroke:#ff0000;stroke-width:1" />
    <line x1="663" y1="155" x2="697" y2="155" style="stroke:#ff0000;stroke-width:1" />
    <line x1="697" y1="155" x2="670" y2="135" style="stroke:#ff0000;stroke-width:1" />
    <line x1="670" y1="135" x2="690" y2="135" style="stroke:#ff0000;stroke-width:1" />
    <line x1="690" y1="135" x2="674" y2="123" style="stroke:#ff0000;stroke-width:1" />
    <line x1="674" y1="123" x2="686" y2="123" style="stroke:#ff0000;stroke-width:1" />
	<path d = "M680 104 L540 104 L610 319 L680 104 Z" stroke = "#000000" stroke-width = "2" fill = "none" />    <line x1="540" y1="104" x2="653" y2="186" style="stroke:#ff0000;stroke-width:1" />
    <line x1="653" y1="186" x2="567" y2="186" style="stroke:#ff0000;stroke-width:1" />
    <line x1="567" y1="186" x2="637" y2="237" style="stroke:#ff0000;stroke-width:1" />
    <line x1="637" y1="237" x2="583" y2="237" style="stroke:#ff0000;stroke-width:1" />
    <line x1="583" y1="237" x2="627" y2="268" style="stroke:#ff0000;stroke-width:1" />
    <line x1="627" y1="268" x2="593" y2="268" style="stroke:#ff0000;stroke-width:1" />
    <line x1="593" y1="268" x2="620" y2="288" style="stroke:#ff0000;stroke-width:1" />
    <line x1="620" y1="288" x2="600" y2="288" style="stroke:#ff0000;stroke-width:1" />
    <line x1="600" y1="288" x2="616" y2="300" style="stroke:#ff0000;stroke-width:1" />
    <line x1="616" y1="300" x2="604" y2="300" style="stroke:#ff0000;stroke-width:1" />
	<path d = "M540 104 L400 104 L470 319 L540 104 Z" stroke = "#000000" stroke-width = "2" fill = "none" />    <line x1="400" y1="104" x2="513" y2="186" style="stroke:#ff0000;stroke-width:1" />
    <line x1="513" y1="186" x2="427" y2="186" style="stroke:#ff0000;stroke-width:1" />
    <line x1="427" y1="186" x2="497" y2="237" style="stroke:#ff0000;stroke-width:1" />
    <line x1="497" y1="237" x2="443" y2="237" style="stroke:#ff0000;stroke-width:1" />
    <line x1="443" y1="237" x2="487" y2="268" style="stroke:#ff0000;stroke-width:1" />
    <line x1="487" y1="268" x2="453" y2="268" style="stroke:#ff0000;stroke-width:1" />
    <line x1="453" y1="268" x2="480" y2="288" style="stroke:#ff0000;stroke-width:1" />
    <line x1="480" y1="288" x2="460" y2="288" style="stroke:#ff0000;stroke-width:1" />
    <line x1="460" y1="288" x2="476" y2="300" style="stroke:#ff0000;stroke-width:1" />
    <line x1="476" y1="300" x2="464" y2="300" style="stroke:#ff0000;stroke-width:1" />
	<path d = "M400 104 L260 104 L330 319 L400 104 Z" stroke = "#000000" stroke-width = "2" fill = "none" />    <line x1="260" y1="104" x2="373" y2="186" style="stroke:#ff0000;stroke-width:1" />
    <line x1="373" y1="186" x2="287" y2="186" style="stroke:#ff0000;stroke-width:1" />
    <line x1="287" y1="186" x2="357" y2="237" style="stroke:#ff0000;stroke-width:1" />
    <line x1="357" y1="237" x2="303" y2="237" style="stroke:#ff0000;stroke-width:1" />
    <line x1="303" y1="237" x2="347" y2="268" style="stroke:#ff0000;stroke-width:1" />
    <line x1="347" y1="268" x2="313" y2="268" style="stroke:#ff0000;stroke-width:1" />
    <line x1="313" y1="268" x2="340" y2="288" style="stroke:#ff0000;stroke-width:1" />
    <line x1="340" y1="288" x2="320" y2="288" style="stroke:#ff0000;stroke-width:1" />
    <line x1="320" y1="288" x2="336" y2="300" style="stroke:#ff0000;stroke-width:1" />
    <line x1="336" y1="300" x2="324" y2="300" style="stroke:#ff0000;stroke-width:1" />
	<path d = "M260 104 L120 104 L190 319 L260 104 Z" stroke = "#000000" stroke-width = "2" fill = "none" />    <line x1="120" y1="104" x2="233" y2="186" style="stroke:#ff0000;stroke-width:1" />
    <line x1="233" y1="186" x2="147" y2="186" style="stroke:#ff0000;stroke-width:1" />
    <line x1="147" y1="186" x2="217" y2="237" style="stroke:#ff0000;stroke-width:1" />
    <line x1="217" y1="237" x2="163" y2="237" style="stroke:#ff0000;stroke-width:1" />
    <line x1="163" y1="237" x2="207" y2="268" style="stroke:#ff0000;stroke-width:1" />
    <line x1="207" y1="268" x2="173" y2="268" style="stroke:#ff0000;stroke-width:1" />
    <line x1="173" y1="268" x2="200" y2="288" style="stroke:#ff0000;stroke-width:1" />
    <line x1="200" y1="288" x2="180" y2="288" style="stroke:#ff0000;stroke-width:1" />
    <line x1="180" y1="288" x2="196" y2="300" style="stroke:#ff0000;stroke-width:1" />
    <line x1="196" y1="300" x2="184" y2="300" style="stroke:#ff0000;stroke-width:1" />
</svg>