<svg width="600" height="600" viewbox = "0 0 600 600"  xmlns="http://www.w3.org/2000/svg">
<!--<json>{
  "glyph": "0337,0220,0335,0220,0335,0220,0335,0220,0330,0220,0331,0335,0330,0220,0331,0335,0330,0220,0331,0335,0330,0220,0331,0350,0334,0310,0336,0330,0337,0304,0312,0313,0313,0335,0336,0331,0337,0220,0336,0337,0335,0336,0332,0337,0310,0336,0330,0335,0330,0335,0337,0313,0336,0331,0337,0220,0336,0330,0337,0335,0310,0336,0330,0335,0330,0334,0337,0313,0336,0331,0337,0220,0336,0330,0337,0334,0310,0336,0330,0335,0330,0335,0337,0313,0336,0331,0337,0220,0313,0336,0330,0335,0310,0337,0330,0350,0334,0313,0304,0310,0337,0333,0220,0332,0330,0335,0220,0332,0220,0334,0326,0336,0336,0341,0337,0337,0331,0331,0331,0331,0336,0336,0341,0337,0337,0330,0330,0333,0333,0336,0336,0341,0337,0337,0332,0332,0332,0332,0336,0336,0341,0337,0337,0333,0333,0322,0330,0336,0336,0341,0337,0337,0333,0327,0336,0336,0341,0330,0330,0330,0330,0341,0331,0331,0331,0331,0331,0331,0331,0323,0331,0341,0332,0332,0332,0332,0332,0332,0332,0332,0323,0325,0341,0333,0333,0333,0333,0331,0331,0331,0331,0324,0320,0341,0330,0330,0330,0330,0324,0341,0320,0337,",
  "shapes": [
    "0220:0321,0304,0313,0336,0336,0336,0336,0330,0334,0362,0203,0335,0337,0337,0337,0203,0336,0203,0336,0203,0335,0203,0335,0337,0337,0203,0336,0203,0336,0203,0335,0336,0203,0354,0335,0331,0337,0337,0337,0336,0336,0330,0336,0336,0341,0337,0337,0331,0337,0337,0337,0330,0336,0336,0336,0331,0336,0336,0341,0337,0337,0330,0337,0337,0337,0331,",
    "0221:",
    "0222:0336,0336,0336,0347,0337,0337,0337,0330,",
    "0223:0334,0336,0362,0203,0335,0203,0203,0335,0203,0203,0335,0203,0203,0335,0203,0363,0335,0330,0330,0337,",
    "0224:0304,0313,0336,0336,0334,0310,0350,0362,0203,0335,0335,0203,0203,0334,0334,0203,0335,0335,0335,0337,0203,0203,0335,0335,0203,0203,0335,0335,0335,0336,0203,0334,0334,0203,0203,0335,0335,0203,0363,0304,0335,0313,0337,0337,",
    "0225:0306,0201,0334,0334,0201,0334,0334,0201,0334,0334,",
    "0226:0331,0332,0337,0101,0365,",
    "0227:0336,0336,0341,0337,0337,0330,",
    "0230:0311,0200,0304,0350,0334,0343,0335,0330,0336,0331,0304,0335,",
    "0231:0230,0230,0230,0230,0230,0230,0230,0230,0230,0230,0230,0230,0230,0230,0230,0230,",
    "0232:",
    "0233:",
    "0234:",
    "0235:",
    "0236:",
    "0237:",
    "0240:0334,0336,0336,0366,0337,0337,0333,0335,0335,0336,0336,0367,0334,0337,0337,",
    "0241:",
    "0242:",
    "0243:",
    "0244:",
    "0245:",
    "0246:",
    "0247:",
    "01220:0333,0200,0336,0330,0332,0336,0331,0337,0220,0304,0336,0331,0333,0333,0337,0337,0320,",
    "01221:0333,0200,0336,0332,0221,0221,0333,0331,0331,0337,",
    "01222:0333,0200,0336,0332,0330,0332,0333,0222,0333,0331,0331,0337,",
    "01223:0333,0200,0336,0330,0332,0336,0333,0332,0223,0336,0333,0331,0333,0333,0331,0331,0333,0320,0331,0337,0337,0337,",
    "01224:0333,0200,0336,0332,0330,0224,0333,0331,0337,",
    "01225:0333,0200,0336,0336,0332,0332,0330,0337,0225,0304,0333,0331,0336,0330,0337,0337,",
    "01226:0333,0200,0336,0330,0332,0226,0333,0331,0330,",
    "01227:0333,0200,0336,0330,0332,0210,0227,0211,0331,0333,0337,",
    "01230:0333,0200,0336,0330,0332,0230,0331,0304,0333,0337,",
    "01231:0333,0200,0332,0336,0330,0333,0336,0336,0330,0332,0231,0333,0333,0331,0331,0331,0333,0333,0331,0331,0333,0337,0337,0337,0337,0336,",
    "01232:0333,0200,0336,0330,0332,0331,0232,0331,0331,0331,0333,0337,",
    "01233:0333,0200,0336,0332,0337,0336,0330,0332,0336,0331,0333,0337,0332,0233,0331,0336,0330,0337,0337,",
    "01234:0333,0200,0336,0330,0332,0332,0332,0336,0333,0337,0234,0333,0333,0333,0331,0336,0333,0331,0337,0337,0337,0210,0210,0337,0336,",
    "01235:0333,0200,0235,",
    "01236:0333,0200,0236,",
    "01237:0333,0200,0336,0330,0332,0332,0237,0331,0336,0332,0337,0337,",
    "01240:0333,0200,0336,0332,0336,0330,0337,0240,0333,0336,0330,0337,0337,0331,",
    "01241:0333,0200,0336,0332,0241,0333,0337,",
    "01242:0333,0200,0336,0332,0332,0336,0330,0330,0242,0336,0331,0331,0331,0331,0332,0337,0337,0337,",
    "01243:0333,0200,0336,0332,0332,0243,0337,",
    "01244:0333,0200,0332,0336,0330,0336,0336,0243,0243,0243,0243,0331,0331,0331,0331,0337,0337,0337,",
    "01245:0333,0200,0336,0332,0336,0331,0337,0245,0333,0336,0330,0337,0337,",
    "01246:0333,0200,0330,0332,0336,0331,0336,0332,0337,0246,0333,0333,0336,0333,0331,0331,0337,0337,",
    "01247:0333,0200,0336,0330,0332,0337,0247,0336,0333,0331,0337,"
  ],
  "x0rel": 0.5,
  "y0rel": 0.5,
  "unitrel": 0.1,
  "theta0": -1.570796,
  "width": 600,
  "height": 600,
  "scale": 1,
  "backgroundimage": "",
  "style": {
    "color0": "black",
    "fill0": "black",
    "line0": 2,
    "color1": "black",
    "fill1": "white",
    "line1": 1,
    "color2": "red",
    "fill2": "red",
    "line2": 2,
    "color3": "#FF7900",
    "fill3": "#FF7900",
    "line3": 2,
    "color4": "yellow",
    "fill4": "yellow",
    "line4": 2,
    "color5": "green",
    "fill5": "green",
    "line5": 2,
    "color6": "blue",
    "fill6": "blue",
    "line6": 2,
    "color7": "purple",
    "fill7": "purple",
    "line7": 2
  },
  "controlbuttons": [
    196,
    198,
    200,
    203,
    128,
    216,
    217,
    218,
    219,
    220,
    221,
    222,
    223,
    27,
    8,
    134,
    225,
    192,
    16,
    17,
    145,
    151,
    146
  ]
}</json>-->	<path d = "M300 293 L293 292 L293 232 L293 202 L293 187 L308 188 L308 248 L308 278 L308 293 L300 293 Z" stroke = "#000000" stroke-width = "1" fill = "none" /><circle cx="300" cy = "285" r = "3.75" stroke = "#000000" stroke-width = "1" fill = "none" />
<circle cx="300" cy = "195" r = "3.75" stroke = "#000000" stroke-width = "1" fill = "none" />
	<path d = "M307 300 L308 293 L368 293 L398 293 L413 293 L412 308 L352 308 L322 308 L307 308 L307 300 Z" stroke = "#000000" stroke-width = "1" fill = "none" /><circle cx="315" cy = "300" r = "3.75" stroke = "#000000" stroke-width = "1" fill = "none" />
<circle cx="405" cy = "300" r = "3.75" stroke = "#000000" stroke-width = "1" fill = "none" />
	<path d = "M300 307 L307 308 L307 368 L307 398 L307 413 L292 412 L292 352 L292 322 L292 307 L300 307 Z" stroke = "#000000" stroke-width = "1" fill = "none" /><circle cx="300" cy = "315" r = "3.75" stroke = "#000000" stroke-width = "1" fill = "none" />
<circle cx="300" cy = "405" r = "3.75" stroke = "#000000" stroke-width = "1" fill = "none" />
	<path d = "M293 300 L292 307 L232 307 L202 307 L187 307 L188 292 L248 292 L278 292 L293 292 L293 300 Z" stroke = "#000000" stroke-width = "1" fill = "none" /><circle cx="285" cy = "300" r = "3.75" stroke = "#000000" stroke-width = "1" fill = "none" />
<circle cx="195" cy = "300" r = "3.75" stroke = "#000000" stroke-width = "1" fill = "none" />
	<path d = "M173 300 L172 307 L112 307 L82 307 L67 307 L68 292 L128 292 L158 292 L173 292 L173 300 Z" stroke = "#000000" stroke-width = "1" fill = "none" /><circle cx="165" cy = "300" r = "3.75" stroke = "#000000" stroke-width = "1" fill = "none" />
<circle cx="75" cy = "300" r = "3.75" stroke = "#000000" stroke-width = "1" fill = "none" />
	<path d = "M300 173 L293 172 L293 112 L293 82 L293 67 L308 68 L308 128 L308 158 L308 173 L300 173 Z" stroke = "#000000" stroke-width = "1" fill = "none" /><circle cx="300" cy = "165" r = "3.75" stroke = "#000000" stroke-width = "1" fill = "none" />
<circle cx="300" cy = "75" r = "3.75" stroke = "#000000" stroke-width = "1" fill = "none" />
	<path d = "M427 300 L428 293 L488 293 L518 293 L533 293 L532 308 L472 308 L442 308 L427 308 L427 300 Z" stroke = "#000000" stroke-width = "1" fill = "none" /><circle cx="435" cy = "300" r = "3.75" stroke = "#000000" stroke-width = "1" fill = "none" />
<circle cx="525" cy = "300" r = "3.75" stroke = "#000000" stroke-width = "1" fill = "none" />
	<path d = "M300 427 L307 428 L307 488 L307 518 L307 533 L292 532 L292 472 L292 442 L292 427 L300 427 Z" stroke = "#000000" stroke-width = "1" fill = "none" /><circle cx="300" cy = "435" r = "3.75" stroke = "#000000" stroke-width = "1" fill = "none" />
<circle cx="300" cy = "525" r = "3.75" stroke = "#000000" stroke-width = "1" fill = "none" />
	<path d = "M397 323 L402 328 L360 371 L339 392 L328 402 L318 392 L360 349 L381 328 L392 318 L397 323 Z" stroke = "#000000" stroke-width = "1" fill = "none" /><circle cx="392" cy = "328" r = "3.7499999999999996" stroke = "#000000" stroke-width = "1" fill = "none" />
<circle cx="328" cy = "392" r = "3.7499999999999996" stroke = "#000000" stroke-width = "1" fill = "none" />
	<path d = "M323 203 L328 198 L371 240 L392 261 L402 272 L392 282 L349 240 L328 219 L318 208 L323 203 Z" stroke = "#000000" stroke-width = "1" fill = "none" /><circle cx="328" cy = "208" r = "3.7499999999999996" stroke = "#000000" stroke-width = "1" fill = "none" />
<circle cx="392" cy = "272" r = "3.7499999999999996" stroke = "#000000" stroke-width = "1" fill = "none" />
	<path d = "M277 203 L282 208 L240 251 L219 272 L208 282 L198 272 L240 229 L261 208 L272 198 L277 203 Z" stroke = "#000000" stroke-width = "1" fill = "none" /><circle cx="272" cy = "208" r = "3.7499999999999996" stroke = "#000000" stroke-width = "1" fill = "none" />
<circle cx="208" cy = "272" r = "3.7499999999999996" stroke = "#000000" stroke-width = "1" fill = "none" />
	<path d = "M277 397 L272 402 L229 360 L208 339 L198 328 L208 318 L251 360 L272 381 L282 392 L277 397 Z" stroke = "#000000" stroke-width = "1" fill = "none" /><circle cx="272" cy = "392" r = "3.7499999999999996" stroke = "#000000" stroke-width = "1" fill = "none" />
<circle cx="208" cy = "328" r = "3.7499999999999996" stroke = "#000000" stroke-width = "1" fill = "none" />
	<path d = "M420 293 L413 293 L413 233 L413 203 L413 188 L428 188 L428 248 L428 278 L428 293 L420 293 Z" stroke = "#000000" stroke-width = "1" fill = "none" /><circle cx="420" cy = "285" r = "3.7499999999999996" stroke = "#000000" stroke-width = "1" fill = "none" />
<circle cx="420" cy = "195" r = "3.7499999999999996" stroke = "#000000" stroke-width = "1" fill = "none" />
	<path d = "M308 180 L308 173 L368 173 L398 173 L413 173 L413 188 L353 188 L323 188 L308 188 L308 180 Z" stroke = "#000000" stroke-width = "1" fill = "none" /><circle cx="315" cy = "180" r = "3.7499999999999996" stroke = "#000000" stroke-width = "1" fill = "none" />
<circle cx="405" cy = "180" r = "3.7499999999999996" stroke = "#000000" stroke-width = "1" fill = "none" />
	<path d = "M308 60 L308 53 L368 53 L398 53 L413 53 L413 68 L353 68 L323 68 L308 68 L308 60 Z" stroke = "#000000" stroke-width = "1" fill = "none" /><circle cx="315" cy = "60" r = "3.7499999999999996" stroke = "#000000" stroke-width = "1" fill = "none" />
<circle cx="405" cy = "60" r = "3.7499999999999996" stroke = "#000000" stroke-width = "1" fill = "none" />
<circle cx="300" cy = "60" r = "29.999999999999996" stroke = "#0000ff" stroke-width = "2" fill = "none" />
<circle cx="300" cy = "540" r = "29.999999999999996" stroke = "#0000ff" stroke-width = "2" fill = "none" />
<circle cx="540" cy = "300" r = "29.999999999999996" stroke = "#0000ff" stroke-width = "2" fill = "none" />
<circle cx="60" cy = "300" r = "29.999999999999996" stroke = "#0000ff" stroke-width = "2" fill = "none" />
<circle cx="300" cy = "180" r = "29.999999999999996" stroke = "#ff0000" stroke-width = "2" fill = "none" />
<circle cx="420" cy = "180" r = "29.999999999999996" stroke = "#800080" stroke-width = "2" fill = "none" />
<circle cx="420" cy = "60" r = "29.999999999999996" stroke = "#800080" stroke-width = "2" fill = "none" />
<circle cx="420" cy = "300" r = "29.999999999999996" stroke = "#ff7900" stroke-width = "2" fill = "none" />
<circle cx="180" cy = "300" r = "29.999999999999996" stroke = "#008000" stroke-width = "2" fill = "none" />
<circle cx="300" cy = "420" r = "29.999999999999996" stroke = "#000000" stroke-width = "2" fill = "none" />
<circle cx="300" cy = "300" r = "29.999999999999996" stroke = "#ffff00" stroke-width = "2" fill = "none" />
</svg>