<svg width="500" height="500" viewbox = "0 0 500 500"  xmlns="http://www.w3.org/2000/svg">
<!--<json>{
  "glyph": "0330,0330,0330,0332,0332,0332,0332,0337,0336,0336,0332,0337,01101,01102,01103,01104,01105,01106,01107,0331,0332,0332,0332,0332,0332,0332,0332,0332,0336,0332,0333,0337,0331,01110,01111,01112,01113,01114,01115,01116,01117,0331,0332,0332,0332,0332,0332,0332,0332,0332,0336,0331,0337,01120,01121,01122,01123,01124,01125,01126,0331,0331,0332,0332,0332,0332,0332,0332,01127,01130,0333,0332,01131,01132,0331,01015,",
  "shapes": [
    "0600:0332,0337,0341,0333,0341,0336,0332,0341,",
    "0601:0700,0702,0703,0700,0700,0700,0700,0700,",
    "0602:",
    "0603:",
    "0604:",
    "0605:",
    "0606:",
    "0607:",
    "0220:0330,0336,0336,0347,0337,0337,",
    "0221:0336,0336,0333,0337,0200,0330,0330,0336,0332,0337,0337,",
    "0222:0336,0336,0336,0347,0337,0337,0337,0330,",
    "0223:0334,0336,0362,0203,0335,0203,0203,0335,0203,0203,0335,0203,0203,0335,0203,0363,0335,0330,0330,0337,",
    "0224:0304,0313,0336,0336,0334,0310,0350,0362,0203,0335,0335,0203,0203,0334,0334,0203,0335,0335,0335,0337,0203,0203,0335,0335,0203,0203,0335,0335,0335,0336,0203,0334,0334,0203,0203,0335,0335,0203,0363,0304,0335,0313,0337,0337,",
    "0225:0306,0201,0334,0334,0201,0334,0334,0201,0334,0334,",
    "0226:0331,0332,0337,0101,0365,",
    "0227:0336,0336,0341,0337,0337,0330,",
    "0230:",
    "0231:",
    "0232:",
    "0233:",
    "0234:",
    "0235:",
    "0236:",
    "0237:",
    "0240:0334,0336,0336,0366,0337,0337,0333,0335,0335,0336,0336,0367,0334,0337,0337,",
    "0241:",
    "0242:",
    "0243:",
    "0244:",
    "0245:",
    "0246:",
    "0247:",
    "01220:0333,0200,0336,0332,0220,0333,0331,0337,",
    "01221:0333,0200,0336,0332,0221,0221,0333,0331,0331,0337,",
    "01222:0333,0200,0336,0332,0330,0332,0333,0222,0333,0331,0331,0337,",
    "01223:0333,0200,0336,0330,0332,0336,0223,0331,0333,0331,0331,0333,0337,0337,",
    "01224:0333,0200,0336,0332,0330,0224,0333,0331,0337,",
    "01225:0333,0200,0336,0336,0332,0332,0330,0337,0225,0304,0333,0331,0336,0330,0337,0337,",
    "01226:0333,0200,0336,0330,0332,0226,0333,0331,0330,",
    "01227:0333,0200,0336,0330,0332,0210,0227,0211,0331,0333,0337,",
    "01230:0333,0200,0336,0330,0332,0230,0331,0304,0333,0337,",
    "01231:0333,0200,0332,0336,0330,0333,0336,0336,0330,0332,0231,0333,0333,0331,0331,0331,0333,0333,0331,0331,0333,0337,0337,0337,0337,0336,",
    "01232:0333,0200,0336,0330,0332,0331,0232,0331,0331,0331,0333,0337,",
    "01233:0333,0200,0336,0332,0337,0336,0330,0332,0336,0331,0333,0337,0332,0233,0331,0336,0330,0337,0337,",
    "01234:0333,0200,0336,0330,0332,0332,0332,0336,0333,0337,0234,0333,0333,0333,0331,0336,0333,0331,0337,0337,0337,0210,0210,0337,0336,",
    "01235:0333,0200,0235,",
    "01236:0333,0200,0236,",
    "01237:0333,0200,0336,0330,0332,0332,0237,0331,0336,0332,0337,0337,",
    "01240:0333,0200,0336,0332,0336,0330,0337,0240,0333,0336,0330,0337,0337,0331,",
    "01241:0333,0200,0336,0332,0241,0333,0337,",
    "01242:0333,0200,0336,0332,0332,0336,0330,0330,0242,0336,0331,0331,0331,0331,0332,0337,0337,0337,",
    "01243:0333,0200,0336,0332,0332,0243,0337,",
    "01244:0333,0200,0332,0336,0330,0336,0336,0243,0243,0243,0243,0331,0331,0331,0331,0337,0337,0337,",
    "01245:0333,0200,0336,0332,0336,0331,0337,0245,0333,0336,0330,0337,0337,",
    "01246:0333,0200,0330,0332,0336,0331,0336,0332,0337,0246,0333,0333,0336,0333,0331,0331,0337,0337,",
    "01247:0333,0200,0336,0330,0332,0337,0247,0336,0333,0331,0337,"
  ],
  "x0rel": 0.5,
  "y0rel": 0.5,
  "unitrel": 0.1,
  "theta0": -1.570796,
  "width": 500,
  "height": 500,
  "scale": 1,
  "backgroundimage": "",
  "style": {
    "color0": "black",
    "fill0": "black",
    "line0": 1,
    "color1": "white",
    "fill1": "white",
    "line1": 1,
    "color2": "red",
    "fill2": "red",
    "line2": 1,
    "color3": "#FF7900",
    "fill3": "#FF7900",
    "line3": 1,
    "color4": "yellow",
    "fill4": "yellow",
    "line4": 1,
    "color5": "green",
    "fill5": "green",
    "line5": 1,
    "color6": "blue",
    "fill6": "blue",
    "line6": 1,
    "color7": "purple",
    "fill7": "purple",
    "line7": 1
  },
  "controlbuttons": [
    196,
    198,
    200,
    203,
    128,
    216,
    217,
    218,
    219,
    220,
    221,
    222,
    223,
    27,
    8,
    134,
    225,
    192,
    16,
    17,
    145,
    151,
    146
  ]
}</json>-->	<path d = "M25 100 L25 50 L50 50 L50 100 L25 100 Z" stroke = "#ffffff" stroke-width = "1" fill = "#ffffff" />	<path d = "M50 100 L50 50 L75 50 L61 75 L75 100 L50 100 Z" stroke = "#0000ff" stroke-width = "1" fill = "#0000ff" />	<path d = "M75 100 L75 50 L25 50 L25 100 L75 100 Z" stroke = "#000000" stroke-width = "1" fill = "none" />	<path d = "M81 100 L81 50 L131 50 L117 75 L131 100 L106 100 L81 100 Z" stroke = "#ff0000" stroke-width = "1" fill = "#ff0000" />	<path d = "M131 100 L131 50 L81 50 L81 100 L131 100 Z" stroke = "#000000" stroke-width = "1" fill = "none" />	<path d = "M138 50 L188 50 L188 60 L138 60 L138 50 Z" stroke = "#0000ff" stroke-width = "1" fill = "#0000ff" />	<path d = "M138 60 L188 60 L188 70 L138 70 L138 60 Z" stroke = "#ffffff" stroke-width = "1" fill = "#ffffff" />	<path d = "M138 70 L188 70 L188 80 L138 80 L138 70 Z" stroke = "#ff0000" stroke-width = "1" fill = "#ff0000" />	<path d = "M138 80 L188 80 L188 90 L138 90 L138 80 Z" stroke = "#ffffff" stroke-width = "1" fill = "#ffffff" />	<path d = "M138 90 L188 90 L188 100 L138 100 Z" stroke = "#0000ff" stroke-width = "1" fill = "#0000ff" />	<path d = "M188 100 L188 50 L138 50 L138 100 L188 100 Z" stroke = "#000000" stroke-width = "1" fill = "none" />	<path d = "M194 100 L194 90 L244 90 L244 100 L194 100 Z" stroke = "#ffff00" stroke-width = "1" fill = "#ffff00" />	<path d = "M194 90 L244 90 L244 80 L244 70 L244 60 L194 60 L194 70 L194 80 L194 90 Z" stroke = "#0000ff" stroke-width = "1" fill = "#0000ff" />	<path d = "M194 60 L244 60 L244 50 L194 50 Z" stroke = "#ffff00" stroke-width = "1" fill = "#ffff00" />	<path d = "M244 100 L244 50 L194 50 L194 100 L244 100 Z" stroke = "#000000" stroke-width = "1" fill = "none" />	<path d = "M250 100 L250 75 L275 75 L300 75 L300 100 L275 100 L250 100 Z" stroke = "#ff0000" stroke-width = "1" fill = "#ff0000" />	<path d = "M250 75 L250 50 L275 50 L300 50 L300 75 L275 75 L250 75 Z" stroke = "#0000ff" stroke-width = "1" fill = "#0000ff" />	<path d = "M300 100 L300 50 L250 50 L250 100 L300 100 Z" stroke = "#000000" stroke-width = "1" fill = "none" />	<path d = "M356 100 L356 50 L306 50 L306 100 L356 100 Z" stroke = "#ffffff" stroke-width = "1" fill = "#ffffff" />	<path d = "M331 100 L306 75 L331 50 L356 75 L331 100 Z" stroke = "#ff0000" stroke-width = "1" fill = "#ff0000" />	<path d = "M356 100 L356 50 L306 50 L306 100 L356 100 Z" stroke = "#000000" stroke-width = "1" fill = "none" />	<path d = "M363 100 L363 50 L373 50 L373 100 L363 100 Z" stroke = "#ffff00" stroke-width = "1" fill = "#ffff00" />	<path d = "M373 100 L373 50 L383 50 L383 100 L373 100 Z" stroke = "#0000ff" stroke-width = "1" fill = "#0000ff" />	<path d = "M383 100 L383 50 L393 50 L393 100 L383 100 Z" stroke = "#ffff00" stroke-width = "1" fill = "#ffff00" />	<path d = "M393 100 L393 50 L403 50 L403 100 L393 100 Z" stroke = "#0000ff" stroke-width = "1" fill = "#0000ff" />	<path d = "M403 100 L403 50 L413 50 L413 100 L403 100 Z" stroke = "#ffff00" stroke-width = "1" fill = "#ffff00" />	<path d = "M413 100 L413 50 L363 50 L363 100 L413 100 Z" stroke = "#000000" stroke-width = "1" fill = "none" />	<path d = "M19 200 L19 150 L44 150 L44 200 L19 200 Z" stroke = "#ffffff" stroke-width = "1" fill = "#ffffff" />	<path d = "M44 200 L44 150 L69 150 L69 200 L44 200 Z" stroke = "#ff0000" stroke-width = "1" fill = "#ff0000" />	<path d = "M69 200 L69 150 L19 150 L19 200 L69 200 Z" stroke = "#000000" stroke-width = "1" fill = "none" />	<path d = "M125 200 L125 150 L75 150 L75 200 L125 200 Z" stroke = "#ffff00" stroke-width = "1" fill = "#ffff00" />    <circle cx="100" cy = "175" r = "12.5" stroke = "#000000" stroke-width = "1" fill = "#000000" />
	<path d = "M125 200 L125 150 L75 150 L75 200 L125 200 Z" stroke = "#000000" stroke-width = "1" fill = "none" />	<path d = "M131 200 L131 183 L181 183 L181 200 L131 200 Z" stroke = "#0000ff" stroke-width = "1" fill = "#0000ff" />	<path d = "M131 183 L131 167 L181 167 L181 183 L131 183 Z" stroke = "#ffffff" stroke-width = "1" fill = "#ffffff" />	<path d = "M131 167 L131 150 L181 150 L181 167 L131 167 Z" stroke = "#0000ff" stroke-width = "1" fill = "#0000ff" />	<path d = "M181 200 L181 150 L131 150 L131 200 L181 200 Z" stroke = "#000000" stroke-width = "1" fill = "none" />	<path d = "M188 200 L188 150 L213 150 L213 200 L188 200 Z" stroke = "#ffff00" stroke-width = "1" fill = "#ffff00" />	<path d = "M213 200 L213 150 L238 150 L238 200 L213 200 Z" stroke = "#0000ff" stroke-width = "1" fill = "#0000ff" />	<path d = "M238 200 L238 150 L188 150 L188 200 L238 200 Z" stroke = "#000000" stroke-width = "1" fill = "none" />	<path d = "M269 200 L269 175 L244 175 L244 200 L269 200 Z" stroke = "#000000" stroke-width = "1" fill = "#000000" />	<path d = "M294 175 L294 150 L269 150 L269 175 L294 175 Z" stroke = "#000000" stroke-width = "1" fill = "#000000" />	<path d = "M269 175 L269 150 L244 150 L244 175 L269 175 Z" stroke = "#ffff00" stroke-width = "1" fill = "#ffff00" />	<path d = "M294 200 L294 175 L269 175 L269 200 L294 200 Z" stroke = "#ffff00" stroke-width = "1" fill = "#ffff00" />	<path d = "M294 200 L294 150 L244 150 L244 200 L294 200 Z" stroke = "#000000" stroke-width = "1" fill = "none" />	<path d = "M350 200 L350 150 L300 150 L300 200 L350 200 Z" stroke = "#0000ff" stroke-width = "1" fill = "#0000ff" />	<path d = "M350 200 L350 194 L344 188 L338 181 L331 175 L325 169 L319 163 L313 156 L306 150 L300 150 L300 156 L306 163 L313 169 L319 175 L325 181 L331 188 L338 194 L344 200 L350 200 Z" stroke = "#ffffff" stroke-width = "1" fill = "#ffffff" />	<path d = "M306 200 L313 194 L319 188 L325 181 L331 175 L338 169 L344 163 L350 156 L350 150 L344 150 L338 156 L331 163 L325 169 L319 175 L313 181 L306 188 L300 194 L300 200 L306 200 Z" stroke = "#ffffff" stroke-width = "1" fill = "#ffffff" />	<path d = "M350 200 L350 150 L300 150 L300 200 L350 200 Z" stroke = "#000000" stroke-width = "1" fill = "none" />	<path d = "M369 200 L369 188 L356 188 L356 200 L369 200 Z" stroke = "#ffffff" stroke-width = "1" fill = "#ffffff" />	<path d = "M394 200 L394 188 L381 188 L381 200 L394 200 Z" stroke = "#ffffff" stroke-width = "1" fill = "#ffffff" />	<path d = "M406 188 L406 175 L394 175 L394 188 L406 188 Z" stroke = "#ffffff" stroke-width = "1" fill = "#ffffff" />	<path d = "M381 188 L381 175 L369 175 L369 188 L381 188 Z" stroke = "#ffffff" stroke-width = "1" fill = "#ffffff" />	<path d = "M369 175 L369 163 L356 163 L356 175 L369 175 Z" stroke = "#ffffff" stroke-width = "1" fill = "#ffffff" />	<path d = "M394 175 L394 163 L381 163 L381 175 L394 175 Z" stroke = "#ffffff" stroke-width = "1" fill = "#ffffff" />	<path d = "M406 163 L406 150 L394 150 L394 163 L406 163 Z" stroke = "#ffffff" stroke-width = "1" fill = "#ffffff" />	<path d = "M381 163 L381 150 L369 150 L369 163 L381 163 Z" stroke = "#ffffff" stroke-width = "1" fill = "#ffffff" />	<path d = "M369 163 L369 150 L356 150 L356 163 L369 163 Z" stroke = "#0000ff" stroke-width = "1" fill = "#0000ff" />	<path d = "M394 163 L394 150 L381 150 L381 163 L394 163 Z" stroke = "#0000ff" stroke-width = "1" fill = "#0000ff" />	<path d = "M381 175 L381 163 L369 163 L369 175 L381 175 Z" stroke = "#0000ff" stroke-width = "1" fill = "#0000ff" />	<path d = "M406 175 L406 163 L394 163 L394 175 L406 175 Z" stroke = "#0000ff" stroke-width = "1" fill = "#0000ff" />	<path d = "M394 188 L394 175 L381 175 L381 188 L394 188 Z" stroke = "#0000ff" stroke-width = "1" fill = "#0000ff" />	<path d = "M369 188 L369 175 L356 175 L356 188 L369 188 Z" stroke = "#0000ff" stroke-width = "1" fill = "#0000ff" />	<path d = "M381 200 L381 188 L369 188 L369 200 L381 200 Z" stroke = "#0000ff" stroke-width = "1" fill = "#0000ff" />	<path d = "M406 200 L406 188 L394 188 L394 200 L406 200 Z" stroke = "#0000ff" stroke-width = "1" fill = "#0000ff" />	<path d = "M406 200 L406 150 L356 150 L356 200 L406 200 Z" stroke = "#000000" stroke-width = "1" fill = "none" />	<path d = "M413 200 L413 150 L463 200 L413 200 Z" stroke = "#ffff00" stroke-width = "1" fill = "#ffff00" />	<path d = "M463 200 L413 150 L463 150 L463 200 Z" stroke = "#ff0000" stroke-width = "1" fill = "#ff0000" />	<path d = "M463 200 L463 150 L413 150 L413 200 L463 200 Z" stroke = "#000000" stroke-width = "1" fill = "none" />	<path d = "M119 275 L119 225 L69 225 L69 275 L119 275 Z" stroke = "#0000ff" stroke-width = "1" fill = "#0000ff" />	<path d = "M102 258 L102 242 L85 242 L85 258 L102 258 Z" stroke = "#ffffff" stroke-width = "1" fill = "#ffffff" />	<path d = "M119 275 L119 225 L69 225 L69 275 L119 275 Z" stroke = "#000000" stroke-width = "1" fill = "none" />	<path d = "M175 275 L175 225 L125 225 L125 275 L175 275 Z" stroke = "#ffff00" stroke-width = "1" fill = "#ffff00" />	<path d = "M175 275 L175 225 L125 225 L125 275 L175 275 Z" stroke = "#000000" stroke-width = "1" fill = "none" />	<path d = "M231 275 L231 225 L181 225 L181 275 L231 275 Z" stroke = "#ff0000" stroke-width = "1" fill = "#ff0000" />	<path d = "M211 275 L211 225 L201 225 L201 275 L211 275 Z" stroke = "#ffff00" stroke-width = "1" fill = "#ffff00" />	<path d = "M181 255 L231 255 L231 245 L181 245 L181 255 Z" stroke = "#ffff00" stroke-width = "1" fill = "#ffff00" />	<path d = "M231 275 L231 225 L181 225 L181 275 L231 275 Z" stroke = "#000000" stroke-width = "1" fill = "none" />	<path d = "M287 275 L288 225 L238 225 L237 275 L287 275 Z" stroke = "#ffffff" stroke-width = "1" fill = "#ffffff" />	<path d = "M271 258 L271 242 L254 242 L254 258 L271 258 Z" stroke = "#0000ff" stroke-width = "1" fill = "#0000ff" />	<path d = "M287 275 L288 225 L238 225 L237 275 L287 275 Z" stroke = "#000000" stroke-width = "1" fill = "none" />	<path d = "M294 275 L294 225 L310 225 L310 275 L294 275 Z" stroke = "#ff0000" stroke-width = "1" fill = "#ff0000" />	<path d = "M310 275 L310 225 L327 225 L327 275 L310 275 Z" stroke = "#ffffff" stroke-width = "1" fill = "#ffffff" />	<path d = "M327 275 L327 225 L344 225 L344 275 L327 275 Z" stroke = "#0000ff" stroke-width = "1" fill = "#0000ff" />	<path d = "M344 275 L344 225 L294 225 L294 275 L344 275 Z" stroke = "#000000" stroke-width = "1" fill = "none" />	<path d = "M375 275 L375 250 L350 250 L350 275 L375 275 Z" stroke = "#ffffff" stroke-width = "1" fill = "#ffffff" />	<path d = "M400 250 L400 225 L375 225 L375 250 L400 250 Z" stroke = "#ffffff" stroke-width = "1" fill = "#ffffff" />	<path d = "M375 250 L375 225 L350 225 L350 250 L375 250 Z" stroke = "#ff0000" stroke-width = "1" fill = "#ff0000" />	<path d = "M400 275 L400 250 L375 250 L375 275 L400 275 Z" stroke = "#ff0000" stroke-width = "1" fill = "#ff0000" />	<path d = "M400 275 L400 225 L350 225 L350 275 L400 275 Z" stroke = "#000000" stroke-width = "1" fill = "none" />	<path d = "M456 275 L456 225 L406 225 L406 275 L456 275 Z" stroke = "#ffffff" stroke-width = "1" fill = "#ffffff" />	<path d = "M456 275 L456 269 L450 263 L444 256 L437 250 L431 244 L425 238 L419 231 L413 225 L406 225 L406 231 L413 238 L419 244 L425 250 L431 256 L437 263 L444 269 L450 275 L456 275 Z" stroke = "#ff0000" stroke-width = "1" fill = "#ff0000" />	<path d = "M412 275 L419 269 L425 263 L431 256 L437 250 L444 244 L450 238 L456 231 L456 225 L450 225 L444 231 L438 238 L431 244 L425 250 L419 256 L412 263 L406 269 L406 275 L412 275 Z" stroke = "#ff0000" stroke-width = "1" fill = "#ff0000" />	<path d = "M456 275 L456 225 L406 225 L406 275 L456 275 Z" stroke = "#000000" stroke-width = "1" fill = "none" />	<path d = "M212 375 L212 325 L162 325 L162 375 L212 375 Z" stroke = "#0000ff" stroke-width = "1" fill = "#0000ff" />	<path d = "M202 365 L202 335 L172 335 L172 365 L202 365 Z" stroke = "#ffffff" stroke-width = "1" fill = "#ffffff" />	<path d = "M192 355 L192 345 L182 345 L182 355 L192 355 Z" stroke = "#ff0000" stroke-width = "1" fill = "#ff0000" />	<path d = "M212 375 L212 325 L162 325 L162 375 L212 375 Z" stroke = "#000000" stroke-width = "1" fill = "none" />	<path d = "M269 375 L269 325 L219 325 L219 375 L269 375 Z" stroke = "#ffffff" stroke-width = "1" fill = "#ffffff" />	<path d = "M249 375 L249 325 L239 325 L239 375 L249 375 Z" stroke = "#0000ff" stroke-width = "1" fill = "#0000ff" />	<path d = "M269 355 L219 355 L219 345 L269 345 L269 355 Z" stroke = "#0000ff" stroke-width = "1" fill = "#0000ff" />	<path d = "M269 375 L269 325 L219 325 L219 375 L269 375 Z" stroke = "#000000" stroke-width = "1" fill = "none" />	<path d = "M275 375 L285 365 L295 355 L305 345 L315 335 L325 325 L325 335 L315 345 L305 355 L295 365 L285 375 L275 375 Z" stroke = "#ff0000" stroke-width = "1" fill = "#ff0000" />	<path d = "M275 375 L275 365 L285 355 L295 345 L305 335 L315 325 L325 325 L315 335 L305 345 L295 355 L285 365 L275 375 Z" stroke = "#ffff00" stroke-width = "1" fill = "#ffff00" />	<path d = "M275 365 L275 355 L285 345 L295 335 L305 325 L315 325 L305 335 L295 345 L285 355 L275 365 Z" stroke = "#ff0000" stroke-width = "1" fill = "#ff0000" />	<path d = "M275 355 L285 345 L295 335 L305 325 L295 325 L285 335 L275 345 L275 355 Z" stroke = "#ffff00" stroke-width = "1" fill = "#ffff00" />	<path d = "M275 345 L285 335 L295 325 L285 325 L275 335 L275 345 Z" stroke = "#ff0000" stroke-width = "1" fill = "#ff0000" />	<path d = "M275 335 L275 325 L285 325 L275 335 Z" stroke = "#ffff00" stroke-width = "1" fill = "#ffff00" />	<path d = "M325 335 L315 345 L305 355 L295 365 L285 375 L295 375 L305 365 L315 355 L325 345 L325 335 Z" stroke = "#ffff00" stroke-width = "1" fill = "#ffff00" />	<path d = "M325 345 L315 355 L305 365 L295 375 L305 375 L315 365 L325 355 L325 345 Z" stroke = "#ff0000" stroke-width = "1" fill = "#ff0000" />	<path d = "M325 355 L325 365 L315 375 L305 375 L315 365 L325 355 Z" stroke = "#ffff00" stroke-width = "1" fill = "#ffff00" />	<path d = "M325 365 L315 375 L325 375 L325 365 Z" stroke = "#ff0000" stroke-width = "1" fill = "#ff0000" />	<path d = "M325 375 L325 325 L275 325 L275 375 L325 375 Z" stroke = "#000000" stroke-width = "1" fill = "none" />	<path d = "M331 375 L356 350 L331 325 L331 375 Z" stroke = "#000000" stroke-width = "1" fill = "#000000" />	<path d = "M331 375 L381 375 L356 350 L331 375 Z" stroke = "#ff0000" stroke-width = "1" fill = "#ff0000" />	<path d = "M356 350 L331 325 L381 325 L356 350 Z" stroke = "#ffff00" stroke-width = "1" fill = "#ffff00" />	<path d = "M356 350 L381 375 L381 325 L356 350 Z" stroke = "#0000ff" stroke-width = "1" fill = "#0000ff" />	<path d = "M381 375 L381 325 L331 325 L331 375 L381 375 Z" stroke = "#000000" stroke-width = "1" fill = "none" /></svg>