<svg width="500" height="700" viewbox = "0 0 500 700"  xmlns="http://www.w3.org/2000/svg">
<!--<json>{
  "glyph": "0337,0233,",
  "shapes": [
    "0220:0200,0336,0330,0332,0342,0335,0342,0335,0342,0335,0342,0335,0336,0331,0333,0342,0335,0342,0335,0342,0335,0342,0335,0336,0333,0331,0342,0335,0342,0335,0342,0335,0342,0335,0342,0336,0331,0333,0342,0335,0342,0335,0342,0335,0342,0335,0342,0336,0331,0333,0342,0335,0342,0335,0342,0335,0342,0335,0331,0333,0337,0337,0337,0337,0337,",
    "0221:0327,0204,0326,0336,0330,0204,0331,0332,0204,0320,0200,0330,0333,0200,0331,0337,0200,0336,",
    "0222:0221,0221,0221,0221,0221,0337,0337,0337,0337,0337,",
    "0223:0326,0304,0350,0310,0362,0203,0335,0335,0335,0337,0203,0335,0335,0335,0336,0203,0363,0335,0335,0335,0327,0336,0362,0203,0335,0335,0203,0335,0335,0335,0337,0203,0363,0335,0335,0320,0362,0203,0335,0335,0335,0337,0203,0335,0335,0335,0336,0203,0354,0335,0335,0335,0336,0342,0334,0334,0335,0336,0304,0336,0337,0333,",
    "0224:0331,0332,0337,0223,0223,0223,0223,0304,0333,0337,0337,0337,0337,0337,0337,0337,0337,0332,0336,0336,0333,0330,0313,",
    "0225:0312,0306,0350,0335,0335,0335,0335,0335,0362,0203,0335,0335,0335,0335,0203,0335,0335,0335,0335,0203,0354,0334,0335,0336,0336,0331,0335,0336,0201,0335,0335,0201,0335,0337,0330,0335,0336,0201,0335,0335,0201,0335,0337,0330,0335,0336,0201,0335,0335,0201,0335,0335,0335,0335,0201,0335,0335,0201,0331,0334,0334,0334,0334,0201,0335,0335,0335,0335,0201,0335,0335,0342,0334,0334,0334,0334,0342,0334,0334,0334,0332,0335,0335,0335,0201,0335,0335,0342,0334,0334,0334,0334,0201,0334,0334,0334,0334,0201,0334,0334,0342,0330,0335,0335,0201,0334,0334,0342,0335,0335,0335,0335,0201,0335,0335,0335,0335,0201,0335,0335,0342,0334,0334,0334,0334,0201,0335,0335,0335,0335,0342,0335,0335,0330,0334,0334,0330,0335,0335,0330,0335,0335,0330,0335,0335,",
    "0226:0337,0330,0337,0225,0312,0337,0225,0312,0337,0225,",
    "0227:0306,0362,0203,0335,0335,0203,0335,0335,0203,0354,0335,0335,0312,0335,0336,0336,0330,0334,0334,0350,0334,0336,0201,0335,0335,0201,0335,0337,0330,0335,0336,0201,0335,0335,0201,0335,0337,0330,0335,0336,0201,0335,0335,0201,0335,0337,0330,0335,0335,0335,0336,0322,0362,0203,0334,0334,0203,0334,0334,0334,0334,0203,0334,0334,0203,0363,0334,0334,0334,0326,0334,0362,0203,0335,0335,0203,0335,0335,0335,0335,0203,0335,0335,0203,0363,0335,0335,0335,0335,0330,0325,0334,0334,0362,0203,0335,0335,0335,0335,0203,0335,0335,0203,0335,0335,0335,0335,0203,0363,0320,0334,0334,0342,0334,0334,0334,0334,0342,0335,0335,0331,0342,0335,0335,0362,0203,0334,0334,0203,0334,0334,0203,0334,0334,0203,0334,0334,0203,0334,0334,0203,0354,0331,0335,0335,0335,0335,0201,0335,0335,0335,0335,0201,0334,0334,0201,0331,0335,0335,0335,0335,0201,0334,0334,0334,0334,0201,0334,0334,0201,0335,0335,0335,0335,0335,0333,0334,0342,0335,0335,0335,0333,0334,0334,0334,0201,0334,0334,0342,0335,0335,0335,0335,0201,0335,0335,0335,0335,0201,0335,0335,0330,0330,0334,0334,0330,0335,0335,0335,0306,",
    "0230:0336,0336,0306,0331,0332,0306,0326,0362,0203,0335,0203,0335,0203,0335,0203,0335,0203,0335,0203,0363,0324,0335,0335,0350,0334,0312,0337,0201,0335,0335,0335,0335,0201,0335,0335,0335,0335,0201,0335,0336,0331,0335,0337,0201,0335,0335,0335,0335,0201,0335,0335,0335,0335,0201,0335,0335,0335,0335,0336,0336,0330,0335,0337,0201,0335,0335,0335,0335,0201,0335,0335,0335,0335,0201,0335,0335,0335,0336,0330,0335,0335,0335,0337,0201,0335,0335,0335,0335,0201,0335,0335,0335,0335,0201,0335,0335,0335,0335,0336,0336,0330,0335,0337,0201,0335,0335,0335,0335,0201,0335,0335,0335,0335,0201,0335,0335,0335,0335,0334,0336,0330,0335,0335,0335,0337,0201,0335,0335,0335,0335,0201,0335,0335,0335,0335,0201,0334,0336,0331,0341,0337,0341,0337,0341,0306,0313,0337,0337,0320,",
    "0231:0230,0333,0230,0331,0230,0331,0332,0230,0331,0230,0330,0332,0230,0330,0230,0330,0230,0333,0230,0331,0333,0230,0331,0331,0332,",
    "0232:0321,0306,0334,0362,0203,0335,0203,0335,0203,0335,0203,0335,0203,0335,0203,0354,0334,0201,0335,0335,0201,0335,0201,0331,0335,0333,0201,0334,0201,0331,0331,0332,0331,0342,0350,0312,0335,0312,0334,0330,0335,0333,0334,0334,0334,0334,0337,0342,0335,0335,0336,0333,0334,0334,0337,0342,0335,0335,0336,0333,0334,0334,0337,0342,0334,0334,0201,0335,0335,0335,0335,0201,0331,0335,0336,0335,0333,0334,0334,0334,0313,0337,0342,0335,0336,0333,0334,0334,0334,0337,0342,0335,0336,0333,0334,0334,0334,0337,0342,0330,0335,0335,0336,0342,0334,0334,0334,0334,0342,0334,0334,0334,0334,",
    "0233:0336,0232,0306,0333,0333,0333,0331,0332,0331,0332,0332,0331,0231,",
    "0234:0336,0366,0330,0333,0333,0336,0331,0337,0367,0335,0335,0366,0331,0333,0333,0367,0335,0335,0337,",
    "0235:0313,0336,0314,0336,0313,0337,0234,0234,0234,0234,0314,0337,0313,",
    "0236:0336,0336,0336,0336,0347,0337,0337,0337,0337,",
    "0237:0246,0331,0332,0331,0246,0330,0333,0331,0331,0333,0246,0332,0330,",
    "0240:0304,0313,0200,0336,0332,0350,0335,0310,0337,0304,0313,",
    "0241:0350,0310,0336,0334,0304,0313,0333,0337,",
    "0242:0240,0240,0240,0240,0240,0240,0240,0240,0241,0241,0241,0241,0241,0241,0241,0241,",
    "0243:0306,0342,0334,0342,0334,0342,0334,0342,0334,0342,0334,0342,0330,0334,0334,0201,0334,0201,0334,0201,0334,0201,0334,0201,0334,0201,0334,0312,0350,0334,0337,0342,0334,0334,0201,0335,0335,0335,0335,0342,0336,0332,0335,0335,0337,0342,0335,0335,0201,0334,0334,0334,0334,0334,0335,0342,0336,0332,0335,0306,",
    "0244:0305,0322,0311,0350,0362,0203,0335,0203,0335,0335,0335,0335,0203,0335,0203,0363,0320,0335,0335,0335,0335,0362,0203,0335,0203,0335,0335,0335,0335,0203,0335,0203,0354,0335,0335,0335,0335,",
    "0245:0326,0305,0350,0311,0362,0203,0335,0335,0203,0335,0335,0335,0203,0335,0335,0203,0363,0320,0335,0335,0335,0362,0203,0335,0335,0203,0335,0335,0335,0203,0335,0335,0203,0354,0335,0335,0335,",
    "0246:0306,0322,0362,0203,0334,0203,0334,0334,0203,0334,0203,0334,0363,0334,0325,0362,0203,0335,0203,0335,0335,0203,0335,0203,0363,0335,0335,0330,0326,0334,0362,0203,0335,0335,0203,0335,0203,0335,0335,0203,0363,0320,0335,0201,0335,0335,0201,0335,0201,0335,0335,0201,0334,0201,0335,0335,0201,0335,0201,0335,0333,0201,0335,0335,0201,0335,0201,0335,0335,0330,0331,0314,",
    "0247:0330,0336,0336,0336,0331,01300,01301,01302,01303,01304,01305,01306,01307,0337,0337,0337,0332,0336,0336,0336,0331,01310,01311,01312,01313,01314,01315,01316,01317,0337,0337,0337,0332,0336,0336,0336,0331,01320,01321,01322,01323,01324,01325,01326,01327,0337,0337,0337,0332,0336,0336,0336,0331,01330,01331,01332,01333,01334,01335,01336,01337,0337,0337,0337,0332,0336,0336,0336,0331,01340,01341,01342,01343,01344,01345,01346,01347,0337,0337,0337,0332,0336,0336,0336,0331,01350,01351,01352,01353,01354,01355,01356,01357,0337,0337,0337,0332,0336,0336,0336,0331,01360,01361,01362,01363,01364,01365,01366,01367,0337,0337,0337,0332,0336,0336,0336,0331,01370,01371,01372,01373,01374,01375,01376,01377,0337,0337,0337,0332,",
    "01220:0333,0200,0336,0332,0220,0336,0225,0337,0331,0333,0337,",
    "01221:0333,0200,0336,0332,0221,0221,0333,0331,0331,0337,",
    "01222:0333,0200,0336,0332,0330,0332,0333,0336,0225,0337,0222,0333,0331,0331,0337,",
    "01223:0333,0200,0336,0330,0332,0336,0223,0336,0331,0337,0225,0336,0330,0337,0331,0333,0331,0331,0333,0337,0337,",
    "01224:0333,0200,0336,0332,0330,0224,0333,0331,0337,",
    "01225:0333,0200,0336,0336,0332,0332,0330,0337,0225,0304,0333,0331,0336,0330,0337,0337,",
    "01226:0333,0200,0336,0330,0332,0226,0333,0331,0330,",
    "01227:0333,0200,0336,0330,0332,0336,0331,0337,0227,0337,0330,0335,0335,0335,0337,0337,0330,0334,0334,0334,0313,0304,0336,0331,0337,0333,0337,",
    "01230:0333,0200,0336,0330,0332,0336,0337,0230,0304,0337,0313,0304,0336,0331,0333,0337,",
    "01231:0333,0200,0336,0330,0332,0336,0331,0332,0336,0330,0337,0231,0331,0333,0336,0331,0337,0337,0337,",
    "01232:0333,0200,0336,0330,0332,0331,0336,0330,0337,0232,0336,0330,0337,0333,0337,0331,",
    "01233:0333,0200,0336,0330,0332,0336,0233,0337,0337,0304,0313,0331,0333,0337,",
    "01234:0333,0200,0336,0330,0332,0336,0331,0337,0234,0336,0330,0336,0330,0337,0337,0333,0337,0331,",
    "01235:0333,0200,0336,0332,0336,0330,0337,0235,0336,0330,0337,0333,0337,0331,",
    "01236:0333,0200,0336,0330,0332,0336,0342,0335,0342,0335,0342,0335,0342,0335,0337,0236,0331,0333,0337,",
    "01237:0333,0200,0336,0330,0332,0336,0237,0313,0337,0304,0313,0331,0333,0337,",
    "01240:0333,0200,0336,0330,0332,0336,0331,0333,0337,0240,0240,0241,0241,0336,0331,0333,0337,0337,",
    "01241:0333,0200,0336,0330,0332,0336,0331,0333,0337,0240,0240,0241,0241,0336,0330,0332,0336,0334,0330,0337,0201,0336,0336,0306,0350,0335,0335,0335,0336,0362,0203,0334,0334,0334,0334,0337,0203,0334,0334,0334,0334,0203,0334,0334,0334,0334,0336,0203,0363,0313,0304,0337,0337,0332,0337,0337,0331,0337,0333,",
    "01242:0333,0200,0242,",
    "01243:0333,0200,0336,0330,0332,0243,0313,0304,0331,0333,0337,",
    "01244:0333,0200,0336,0330,0332,0336,0331,0337,0244,0313,0304,0336,0331,0337,0333,0337,",
    "01245:0333,0200,0336,0330,0332,0336,0331,0337,0245,0313,0304,0336,0331,0337,0333,0337,",
    "01246:0333,0200,0336,0330,0332,0336,0331,0246,0313,0331,0313,0304,0333,0333,0337,0337,",
    "01247:0247,0333,"
  ],
  "x0rel": 0.5,
  "y0rel": 0.5,
  "unitrel": 0.25,
  "theta0": -1.570796,
  "width": 500,
  "height": 700,
  "scale": 1,
  "backgroundimage": "",
  "style": {
    "color0": "black",
    "fill0": "black",
    "line0": 2,
    "color1": "black",
    "fill1": "black",
    "line1": 5,
    "color2": "red",
    "fill2": "red",
    "line2": 2,
    "color3": "#FF7900",
    "fill3": "#FF7900",
    "line3": 2,
    "color4": "yellow",
    "fill4": "yellow",
    "line4": 2,
    "color5": "green",
    "fill5": "green",
    "line5": 2,
    "color6": "blue",
    "fill6": "blue",
    "line6": 2,
    "color7": "purple",
    "fill7": "purple",
    "line7": 2
  },
  "controlbuttons": [
    196,
    197,
    198,
    232,
    233,
    200,
    201,
    202,
    203,
    204,
    208,
    209,
    210,
    211,
    212,
    213,
    214,
    215,
    216,
    217,
    218,
    219,
    220,
    221,
    222,
    223,
    225,
    227,
    129,
    128,
    146,
    149,
    147,
    145,
    150,
    154,
    155,
    157,
    159,
    164,
    165,
    16,
    8,
    17
  ]
}</json>-->	<path d = "M250 350 L142 287 L142 162 L250 100 L358 163 L358 288 L250 350 Z" stroke = "#000000" stroke-width = "5" fill = "none" />    <line x1="250" y1="350" x2="250" y2="475" style="stroke:#000000;stroke-width:5" />
    <line x1="250" y1="475" x2="142" y2="412" style="stroke:#000000;stroke-width:5" />
    <line x1="142" y1="412" x2="142" y2="287" style="stroke:#000000;stroke-width:5" />
    <line x1="250" y1="475" x2="358" y2="413" style="stroke:#000000;stroke-width:5" />
    <line x1="358" y1="413" x2="358" y2="288" style="stroke:#000000;stroke-width:5" />
    <line x1="250" y1="600" x2="250" y2="475" style="stroke:#000000;stroke-width:5" />
    <line x1="358" y1="413" x2="142" y2="412" style="stroke:#000000;stroke-width:5" />
    <line x1="358" y1="288" x2="142" y2="287" style="stroke:#000000;stroke-width:5" />
    <line x1="358" y1="163" x2="142" y2="162" style="stroke:#000000;stroke-width:5" />
    <line x1="358" y1="163" x2="250" y2="350" style="stroke:#000000;stroke-width:5" />
    <line x1="250" y1="350" x2="142" y2="162" style="stroke:#000000;stroke-width:5" />
    <line x1="358" y1="288" x2="142" y2="162" style="stroke:#000000;stroke-width:5" />
    <line x1="358" y1="163" x2="142" y2="287" style="stroke:#000000;stroke-width:5" />
    <line x1="250" y1="100" x2="250" y2="350" style="stroke:#000000;stroke-width:5" />
    <line x1="250" y1="350" x2="142" y2="412" style="stroke:#000000;stroke-width:5" />
    <line x1="250" y1="350" x2="358" y2="413" style="stroke:#000000;stroke-width:5" />
	<path d = "M223 366 L223 334 L250 319 L277 334 L277 366 L250 381 L223 366 Z" stroke = "#0000ff" stroke-width = "2" fill = "#0000ff" />    <line x1="223" y1="366" x2="250" y2="319" style="stroke:#ffff00;stroke-width:2" />
    <line x1="250" y1="319" x2="277" y2="366" style="stroke:#ffff00;stroke-width:2" />
    <line x1="277" y1="366" x2="223" y2="366" style="stroke:#ffff00;stroke-width:2" />
    <line x1="250" y1="381" x2="223" y2="334" style="stroke:#ffff00;stroke-width:2" />
    <line x1="223" y1="334" x2="277" y2="334" style="stroke:#ffff00;stroke-width:2" />
    <line x1="277" y1="334" x2="250" y2="381" style="stroke:#ffff00;stroke-width:2" />
    <line x1="241" y1="366" x2="241" y2="334" style="stroke:#ffff00;stroke-width:2" />
    <line x1="241" y1="334" x2="268" y2="350" style="stroke:#ffff00;stroke-width:2" />
    <line x1="268" y1="350" x2="241" y2="366" style="stroke:#ffff00;stroke-width:2" />
    <line x1="232" y1="350" x2="259" y2="334" style="stroke:#ffff00;stroke-width:2" />
    <line x1="259" y1="334" x2="259" y2="366" style="stroke:#ffff00;stroke-width:2" />
    <line x1="259" y1="366" x2="232" y2="350" style="stroke:#ffff00;stroke-width:2" />
    <line x1="241" y1="345" x2="259" y2="345" style="stroke:#ffff00;stroke-width:2" />
    <line x1="259" y1="345" x2="250" y2="360" style="stroke:#ffff00;stroke-width:2" />
    <line x1="250" y1="360" x2="241" y2="345" style="stroke:#ffff00;stroke-width:2" />
    <line x1="250" y1="340" x2="259" y2="355" style="stroke:#ffff00;stroke-width:2" />
    <line x1="259" y1="355" x2="241" y2="355" style="stroke:#ffff00;stroke-width:2" />
    <line x1="241" y1="355" x2="250" y2="340" style="stroke:#ffff00;stroke-width:2" />
<circle cx="250" cy = "350" r = "10.416666666666668" stroke = "#ffff00" stroke-width = "2" fill = "none" />
<circle cx="250" cy = "350" r = "18.042195912175806" stroke = "#ffff00" stroke-width = "2" fill = "none" />
<circle cx="250" cy = "350" r = "31.25" stroke = "#ffff00" stroke-width = "2" fill = "none" />
	<path d = "M331 303 L331 272 L358 256 L385 272 L385 303 L358 319 L331 303 Z" stroke = "#0000ff" stroke-width = "2" fill = "#0000ff" />    <line x1="331" y1="303" x2="358" y2="256" style="stroke:#ffff00;stroke-width:2" />
    <line x1="358" y1="256" x2="385" y2="303" style="stroke:#ffff00;stroke-width:2" />
    <line x1="385" y1="303" x2="331" y2="303" style="stroke:#ffff00;stroke-width:2" />
    <line x1="358" y1="319" x2="331" y2="272" style="stroke:#ffff00;stroke-width:2" />
    <line x1="331" y1="272" x2="385" y2="272" style="stroke:#ffff00;stroke-width:2" />
    <line x1="385" y1="272" x2="358" y2="319" style="stroke:#ffff00;stroke-width:2" />
    <line x1="349" y1="303" x2="349" y2="272" style="stroke:#ffff00;stroke-width:2" />
    <line x1="349" y1="272" x2="376" y2="288" style="stroke:#ffff00;stroke-width:2" />
    <line x1="376" y1="288" x2="349" y2="303" style="stroke:#ffff00;stroke-width:2" />
    <line x1="340" y1="288" x2="367" y2="272" style="stroke:#ffff00;stroke-width:2" />
    <line x1="367" y1="272" x2="367" y2="303" style="stroke:#ffff00;stroke-width:2" />
    <line x1="367" y1="303" x2="340" y2="288" style="stroke:#ffff00;stroke-width:2" />
    <line x1="349" y1="282" x2="367" y2="282" style="stroke:#ffff00;stroke-width:2" />
    <line x1="367" y1="282" x2="358" y2="298" style="stroke:#ffff00;stroke-width:2" />
    <line x1="358" y1="298" x2="349" y2="282" style="stroke:#ffff00;stroke-width:2" />
    <line x1="358" y1="277" x2="367" y2="293" style="stroke:#ffff00;stroke-width:2" />
    <line x1="367" y1="293" x2="349" y2="293" style="stroke:#ffff00;stroke-width:2" />
    <line x1="349" y1="293" x2="358" y2="277" style="stroke:#ffff00;stroke-width:2" />
<circle cx="358" cy = "288" r = "10.416666666666668" stroke = "#ffff00" stroke-width = "2" fill = "none" />
<circle cx="358" cy = "288" r = "18.042195912175806" stroke = "#ffff00" stroke-width = "2" fill = "none" />
<circle cx="358" cy = "288" r = "31.25" stroke = "#ffff00" stroke-width = "2" fill = "none" />
	<path d = "M331 428 L331 397 L358 381 L385 397 L385 428 L358 444 L331 428 Z" stroke = "#0000ff" stroke-width = "2" fill = "#0000ff" />    <line x1="331" y1="428" x2="358" y2="381" style="stroke:#ffff00;stroke-width:2" />
    <line x1="358" y1="381" x2="385" y2="428" style="stroke:#ffff00;stroke-width:2" />
    <line x1="385" y1="428" x2="331" y2="428" style="stroke:#ffff00;stroke-width:2" />
    <line x1="358" y1="444" x2="331" y2="397" style="stroke:#ffff00;stroke-width:2" />
    <line x1="331" y1="397" x2="385" y2="397" style="stroke:#ffff00;stroke-width:2" />
    <line x1="385" y1="397" x2="358" y2="444" style="stroke:#ffff00;stroke-width:2" />
    <line x1="349" y1="428" x2="349" y2="397" style="stroke:#ffff00;stroke-width:2" />
    <line x1="349" y1="397" x2="376" y2="413" style="stroke:#ffff00;stroke-width:2" />
    <line x1="376" y1="413" x2="349" y2="428" style="stroke:#ffff00;stroke-width:2" />
    <line x1="340" y1="413" x2="367" y2="397" style="stroke:#ffff00;stroke-width:2" />
    <line x1="367" y1="397" x2="367" y2="428" style="stroke:#ffff00;stroke-width:2" />
    <line x1="367" y1="428" x2="340" y2="413" style="stroke:#ffff00;stroke-width:2" />
    <line x1="349" y1="407" x2="367" y2="407" style="stroke:#ffff00;stroke-width:2" />
    <line x1="367" y1="407" x2="358" y2="423" style="stroke:#ffff00;stroke-width:2" />
    <line x1="358" y1="423" x2="349" y2="407" style="stroke:#ffff00;stroke-width:2" />
    <line x1="358" y1="402" x2="367" y2="418" style="stroke:#ffff00;stroke-width:2" />
    <line x1="367" y1="418" x2="349" y2="418" style="stroke:#ffff00;stroke-width:2" />
    <line x1="349" y1="418" x2="358" y2="402" style="stroke:#ffff00;stroke-width:2" />
<circle cx="358" cy = "413" r = "10.416666666666668" stroke = "#ffff00" stroke-width = "2" fill = "none" />
<circle cx="358" cy = "413" r = "18.042195912175806" stroke = "#ffff00" stroke-width = "2" fill = "none" />
<circle cx="358" cy = "413" r = "31.25" stroke = "#ffff00" stroke-width = "2" fill = "none" />
	<path d = "M223 491 L223 459 L250 444 L277 459 L277 491 L250 506 L223 491 Z" stroke = "#0000ff" stroke-width = "2" fill = "#0000ff" />    <line x1="223" y1="491" x2="250" y2="444" style="stroke:#ffff00;stroke-width:2" />
    <line x1="250" y1="444" x2="277" y2="491" style="stroke:#ffff00;stroke-width:2" />
    <line x1="277" y1="491" x2="223" y2="491" style="stroke:#ffff00;stroke-width:2" />
    <line x1="250" y1="506" x2="223" y2="459" style="stroke:#ffff00;stroke-width:2" />
    <line x1="223" y1="459" x2="277" y2="459" style="stroke:#ffff00;stroke-width:2" />
    <line x1="277" y1="459" x2="250" y2="506" style="stroke:#ffff00;stroke-width:2" />
    <line x1="241" y1="491" x2="241" y2="459" style="stroke:#ffff00;stroke-width:2" />
    <line x1="241" y1="459" x2="268" y2="475" style="stroke:#ffff00;stroke-width:2" />
    <line x1="268" y1="475" x2="241" y2="491" style="stroke:#ffff00;stroke-width:2" />
    <line x1="232" y1="475" x2="259" y2="459" style="stroke:#ffff00;stroke-width:2" />
    <line x1="259" y1="459" x2="259" y2="491" style="stroke:#ffff00;stroke-width:2" />
    <line x1="259" y1="491" x2="232" y2="475" style="stroke:#ffff00;stroke-width:2" />
    <line x1="241" y1="470" x2="259" y2="470" style="stroke:#ffff00;stroke-width:2" />
    <line x1="259" y1="470" x2="250" y2="485" style="stroke:#ffff00;stroke-width:2" />
    <line x1="250" y1="485" x2="241" y2="470" style="stroke:#ffff00;stroke-width:2" />
    <line x1="250" y1="465" x2="259" y2="480" style="stroke:#ffff00;stroke-width:2" />
    <line x1="259" y1="480" x2="241" y2="480" style="stroke:#ffff00;stroke-width:2" />
    <line x1="241" y1="480" x2="250" y2="465" style="stroke:#ffff00;stroke-width:2" />
<circle cx="250" cy = "475" r = "10.416666666666668" stroke = "#ffff00" stroke-width = "2" fill = "none" />
<circle cx="250" cy = "475" r = "18.042195912175806" stroke = "#ffff00" stroke-width = "2" fill = "none" />
<circle cx="250" cy = "475" r = "31.25" stroke = "#ffff00" stroke-width = "2" fill = "none" />
	<path d = "M223 616 L223 584 L250 569 L277 584 L277 616 L250 631 L223 616 Z" stroke = "#0000ff" stroke-width = "2" fill = "#0000ff" />    <line x1="223" y1="616" x2="250" y2="569" style="stroke:#ffff00;stroke-width:2" />
    <line x1="250" y1="569" x2="277" y2="616" style="stroke:#ffff00;stroke-width:2" />
    <line x1="277" y1="616" x2="223" y2="616" style="stroke:#ffff00;stroke-width:2" />
    <line x1="250" y1="631" x2="223" y2="584" style="stroke:#ffff00;stroke-width:2" />
    <line x1="223" y1="584" x2="277" y2="584" style="stroke:#ffff00;stroke-width:2" />
    <line x1="277" y1="584" x2="250" y2="631" style="stroke:#ffff00;stroke-width:2" />
    <line x1="241" y1="616" x2="241" y2="584" style="stroke:#ffff00;stroke-width:2" />
    <line x1="241" y1="584" x2="268" y2="600" style="stroke:#ffff00;stroke-width:2" />
    <line x1="268" y1="600" x2="241" y2="616" style="stroke:#ffff00;stroke-width:2" />
    <line x1="232" y1="600" x2="259" y2="584" style="stroke:#ffff00;stroke-width:2" />
    <line x1="259" y1="584" x2="259" y2="616" style="stroke:#ffff00;stroke-width:2" />
    <line x1="259" y1="616" x2="232" y2="600" style="stroke:#ffff00;stroke-width:2" />
    <line x1="241" y1="595" x2="259" y2="595" style="stroke:#ffff00;stroke-width:2" />
    <line x1="259" y1="595" x2="250" y2="610" style="stroke:#ffff00;stroke-width:2" />
    <line x1="250" y1="610" x2="241" y2="595" style="stroke:#ffff00;stroke-width:2" />
    <line x1="250" y1="590" x2="259" y2="605" style="stroke:#ffff00;stroke-width:2" />
    <line x1="259" y1="605" x2="241" y2="605" style="stroke:#ffff00;stroke-width:2" />
    <line x1="241" y1="605" x2="250" y2="590" style="stroke:#ffff00;stroke-width:2" />
<circle cx="250" cy = "600" r = "10.416666666666668" stroke = "#ffff00" stroke-width = "2" fill = "none" />
<circle cx="250" cy = "600" r = "18.042195912175806" stroke = "#ffff00" stroke-width = "2" fill = "none" />
<circle cx="250" cy = "600" r = "31.25" stroke = "#ffff00" stroke-width = "2" fill = "none" />
	<path d = "M115 428 L115 397 L142 381 L169 397 L169 428 L142 444 L115 428 Z" stroke = "#0000ff" stroke-width = "2" fill = "#0000ff" />    <line x1="115" y1="428" x2="142" y2="381" style="stroke:#ffff00;stroke-width:2" />
    <line x1="142" y1="381" x2="169" y2="428" style="stroke:#ffff00;stroke-width:2" />
    <line x1="169" y1="428" x2="115" y2="428" style="stroke:#ffff00;stroke-width:2" />
    <line x1="142" y1="444" x2="115" y2="397" style="stroke:#ffff00;stroke-width:2" />
    <line x1="115" y1="397" x2="169" y2="397" style="stroke:#ffff00;stroke-width:2" />
    <line x1="169" y1="397" x2="142" y2="444" style="stroke:#ffff00;stroke-width:2" />
    <line x1="133" y1="428" x2="133" y2="397" style="stroke:#ffff00;stroke-width:2" />
    <line x1="133" y1="397" x2="160" y2="412" style="stroke:#ffff00;stroke-width:2" />
    <line x1="160" y1="412" x2="133" y2="428" style="stroke:#ffff00;stroke-width:2" />
    <line x1="124" y1="412" x2="151" y2="397" style="stroke:#ffff00;stroke-width:2" />
    <line x1="151" y1="397" x2="151" y2="428" style="stroke:#ffff00;stroke-width:2" />
    <line x1="151" y1="428" x2="124" y2="412" style="stroke:#ffff00;stroke-width:2" />
    <line x1="133" y1="407" x2="151" y2="407" style="stroke:#ffff00;stroke-width:2" />
    <line x1="151" y1="407" x2="142" y2="423" style="stroke:#ffff00;stroke-width:2" />
    <line x1="142" y1="423" x2="133" y2="407" style="stroke:#ffff00;stroke-width:2" />
    <line x1="142" y1="402" x2="151" y2="418" style="stroke:#ffff00;stroke-width:2" />
    <line x1="151" y1="418" x2="133" y2="418" style="stroke:#ffff00;stroke-width:2" />
    <line x1="133" y1="418" x2="142" y2="402" style="stroke:#ffff00;stroke-width:2" />
<circle cx="142" cy = "412" r = "10.416666666666668" stroke = "#ffff00" stroke-width = "2" fill = "none" />
<circle cx="142" cy = "412" r = "18.042195912175806" stroke = "#ffff00" stroke-width = "2" fill = "none" />
<circle cx="142" cy = "412" r = "31.25" stroke = "#ffff00" stroke-width = "2" fill = "none" />
	<path d = "M115 303 L115 272 L142 256 L169 272 L169 303 L142 319 L115 303 Z" stroke = "#0000ff" stroke-width = "2" fill = "#0000ff" />    <line x1="115" y1="303" x2="142" y2="256" style="stroke:#ffff00;stroke-width:2" />
    <line x1="142" y1="256" x2="169" y2="303" style="stroke:#ffff00;stroke-width:2" />
    <line x1="169" y1="303" x2="115" y2="303" style="stroke:#ffff00;stroke-width:2" />
    <line x1="142" y1="319" x2="115" y2="272" style="stroke:#ffff00;stroke-width:2" />
    <line x1="115" y1="272" x2="169" y2="272" style="stroke:#ffff00;stroke-width:2" />
    <line x1="169" y1="272" x2="142" y2="319" style="stroke:#ffff00;stroke-width:2" />
    <line x1="133" y1="303" x2="133" y2="272" style="stroke:#ffff00;stroke-width:2" />
    <line x1="133" y1="272" x2="160" y2="287" style="stroke:#ffff00;stroke-width:2" />
    <line x1="160" y1="287" x2="133" y2="303" style="stroke:#ffff00;stroke-width:2" />
    <line x1="124" y1="287" x2="151" y2="272" style="stroke:#ffff00;stroke-width:2" />
    <line x1="151" y1="272" x2="151" y2="303" style="stroke:#ffff00;stroke-width:2" />
    <line x1="151" y1="303" x2="124" y2="287" style="stroke:#ffff00;stroke-width:2" />
    <line x1="133" y1="282" x2="151" y2="282" style="stroke:#ffff00;stroke-width:2" />
    <line x1="151" y1="282" x2="142" y2="298" style="stroke:#ffff00;stroke-width:2" />
    <line x1="142" y1="298" x2="133" y2="282" style="stroke:#ffff00;stroke-width:2" />
    <line x1="142" y1="277" x2="151" y2="293" style="stroke:#ffff00;stroke-width:2" />
    <line x1="151" y1="293" x2="133" y2="293" style="stroke:#ffff00;stroke-width:2" />
    <line x1="133" y1="293" x2="142" y2="277" style="stroke:#ffff00;stroke-width:2" />
<circle cx="142" cy = "287" r = "10.416666666666668" stroke = "#ffff00" stroke-width = "2" fill = "none" />
<circle cx="142" cy = "287" r = "18.042195912175806" stroke = "#ffff00" stroke-width = "2" fill = "none" />
<circle cx="142" cy = "287" r = "31.25" stroke = "#ffff00" stroke-width = "2" fill = "none" />
	<path d = "M115 178 L115 147 L142 131 L169 147 L169 178 L142 194 L115 178 Z" stroke = "#0000ff" stroke-width = "2" fill = "#0000ff" />    <line x1="115" y1="178" x2="142" y2="131" style="stroke:#ffff00;stroke-width:2" />
    <line x1="142" y1="131" x2="169" y2="178" style="stroke:#ffff00;stroke-width:2" />
    <line x1="169" y1="178" x2="115" y2="178" style="stroke:#ffff00;stroke-width:2" />
    <line x1="142" y1="194" x2="115" y2="147" style="stroke:#ffff00;stroke-width:2" />
    <line x1="115" y1="147" x2="169" y2="147" style="stroke:#ffff00;stroke-width:2" />
    <line x1="169" y1="147" x2="142" y2="194" style="stroke:#ffff00;stroke-width:2" />
    <line x1="133" y1="178" x2="133" y2="147" style="stroke:#ffff00;stroke-width:2" />
    <line x1="133" y1="147" x2="160" y2="162" style="stroke:#ffff00;stroke-width:2" />
    <line x1="160" y1="162" x2="133" y2="178" style="stroke:#ffff00;stroke-width:2" />
    <line x1="124" y1="162" x2="151" y2="147" style="stroke:#ffff00;stroke-width:2" />
    <line x1="151" y1="147" x2="151" y2="178" style="stroke:#ffff00;stroke-width:2" />
    <line x1="151" y1="178" x2="124" y2="162" style="stroke:#ffff00;stroke-width:2" />
    <line x1="133" y1="157" x2="151" y2="157" style="stroke:#ffff00;stroke-width:2" />
    <line x1="151" y1="157" x2="142" y2="173" style="stroke:#ffff00;stroke-width:2" />
    <line x1="142" y1="173" x2="133" y2="157" style="stroke:#ffff00;stroke-width:2" />
    <line x1="142" y1="152" x2="151" y2="168" style="stroke:#ffff00;stroke-width:2" />
    <line x1="151" y1="168" x2="133" y2="168" style="stroke:#ffff00;stroke-width:2" />
    <line x1="133" y1="168" x2="142" y2="152" style="stroke:#ffff00;stroke-width:2" />
<circle cx="142" cy = "162" r = "10.416666666666668" stroke = "#ffff00" stroke-width = "2" fill = "none" />
<circle cx="142" cy = "162" r = "18.042195912175806" stroke = "#ffff00" stroke-width = "2" fill = "none" />
<circle cx="142" cy = "162" r = "31.25" stroke = "#ffff00" stroke-width = "2" fill = "none" />
	<path d = "M223 116 L223 84 L250 69 L277 84 L277 116 L250 131 L223 116 Z" stroke = "#0000ff" stroke-width = "2" fill = "#0000ff" />    <line x1="223" y1="116" x2="250" y2="69" style="stroke:#ffff00;stroke-width:2" />
    <line x1="250" y1="69" x2="277" y2="116" style="stroke:#ffff00;stroke-width:2" />
    <line x1="277" y1="116" x2="223" y2="116" style="stroke:#ffff00;stroke-width:2" />
    <line x1="250" y1="131" x2="223" y2="84" style="stroke:#ffff00;stroke-width:2" />
    <line x1="223" y1="84" x2="277" y2="84" style="stroke:#ffff00;stroke-width:2" />
    <line x1="277" y1="84" x2="250" y2="131" style="stroke:#ffff00;stroke-width:2" />
    <line x1="241" y1="116" x2="241" y2="84" style="stroke:#ffff00;stroke-width:2" />
    <line x1="241" y1="84" x2="268" y2="100" style="stroke:#ffff00;stroke-width:2" />
    <line x1="268" y1="100" x2="241" y2="116" style="stroke:#ffff00;stroke-width:2" />
    <line x1="232" y1="100" x2="259" y2="84" style="stroke:#ffff00;stroke-width:2" />
    <line x1="259" y1="84" x2="259" y2="116" style="stroke:#ffff00;stroke-width:2" />
    <line x1="259" y1="116" x2="232" y2="100" style="stroke:#ffff00;stroke-width:2" />
    <line x1="241" y1="95" x2="259" y2="95" style="stroke:#ffff00;stroke-width:2" />
    <line x1="259" y1="95" x2="250" y2="110" style="stroke:#ffff00;stroke-width:2" />
    <line x1="250" y1="110" x2="241" y2="95" style="stroke:#ffff00;stroke-width:2" />
    <line x1="250" y1="90" x2="259" y2="105" style="stroke:#ffff00;stroke-width:2" />
    <line x1="259" y1="105" x2="241" y2="105" style="stroke:#ffff00;stroke-width:2" />
    <line x1="241" y1="105" x2="250" y2="90" style="stroke:#ffff00;stroke-width:2" />
<circle cx="250" cy = "100" r = "10.416666666666668" stroke = "#ffff00" stroke-width = "2" fill = "none" />
<circle cx="250" cy = "100" r = "18.042195912175806" stroke = "#ffff00" stroke-width = "2" fill = "none" />
<circle cx="250" cy = "100" r = "31.25" stroke = "#ffff00" stroke-width = "2" fill = "none" />
	<path d = "M331 178 L331 147 L358 131 L385 147 L385 178 L358 194 L331 178 Z" stroke = "#0000ff" stroke-width = "2" fill = "#0000ff" />    <line x1="331" y1="178" x2="358" y2="131" style="stroke:#ffff00;stroke-width:2" />
    <line x1="358" y1="131" x2="385" y2="178" style="stroke:#ffff00;stroke-width:2" />
    <line x1="385" y1="178" x2="331" y2="178" style="stroke:#ffff00;stroke-width:2" />
    <line x1="358" y1="194" x2="331" y2="147" style="stroke:#ffff00;stroke-width:2" />
    <line x1="331" y1="147" x2="385" y2="147" style="stroke:#ffff00;stroke-width:2" />
    <line x1="385" y1="147" x2="358" y2="194" style="stroke:#ffff00;stroke-width:2" />
    <line x1="349" y1="178" x2="349" y2="147" style="stroke:#ffff00;stroke-width:2" />
    <line x1="349" y1="147" x2="376" y2="163" style="stroke:#ffff00;stroke-width:2" />
    <line x1="376" y1="163" x2="349" y2="178" style="stroke:#ffff00;stroke-width:2" />
    <line x1="340" y1="163" x2="367" y2="147" style="stroke:#ffff00;stroke-width:2" />
    <line x1="367" y1="147" x2="367" y2="178" style="stroke:#ffff00;stroke-width:2" />
    <line x1="367" y1="178" x2="340" y2="163" style="stroke:#ffff00;stroke-width:2" />
    <line x1="349" y1="157" x2="367" y2="157" style="stroke:#ffff00;stroke-width:2" />
    <line x1="367" y1="157" x2="358" y2="173" style="stroke:#ffff00;stroke-width:2" />
    <line x1="358" y1="173" x2="349" y2="157" style="stroke:#ffff00;stroke-width:2" />
    <line x1="358" y1="152" x2="367" y2="168" style="stroke:#ffff00;stroke-width:2" />
    <line x1="367" y1="168" x2="349" y2="168" style="stroke:#ffff00;stroke-width:2" />
    <line x1="349" y1="168" x2="358" y2="152" style="stroke:#ffff00;stroke-width:2" />
<circle cx="358" cy = "163" r = "10.416666666666668" stroke = "#ffff00" stroke-width = "2" fill = "none" />
<circle cx="358" cy = "163" r = "18.042195912175806" stroke = "#ffff00" stroke-width = "2" fill = "none" />
<circle cx="358" cy = "163" r = "31.25" stroke = "#ffff00" stroke-width = "2" fill = "none" />
</svg>