<svg width="400" height="400" viewbox = "0 0 400 400"  xmlns="http://www.w3.org/2000/svg">
<!--<json>{
  "glyph": "0211,0211,0211,0210,0210,0336,0245,0335,0335,0245,0335,0335,0245,0335,0335,0245,0335,0335,0335,0334,0245,0330,0334,0244,0334,0244,0335,0335,0335,0244,0334,0244,0335,0335,0330,0334,0334,0331,0244,0335,0244,0335,0244,0335,0244,0335,0330,0334,0334,0331,0244,0335,0244,0335,0244,0335,0244,0335,0330,0334,0334,0331,0244,0335,0244,0335,0244,0335,0244,0335,0330,0334,0334,0331,0244,0335,0244,0335,0244,0335,0244,0330,0334,0245,0335,0335,0330,0334,0334,0331,0335,0334,0245,0335,0333,0331,0245,0335,0333,0331,0245,0335,0333,0334,0331,0245,0335,0333,0331,0245,0335,0333,0331,0245,0335,0333,0334,0331,0245,0335,0333,0331,0245,0335,0333,0331,0245,0335,0333,0334,0331,0245,0335,0333,0331,0245,0335,0333,0331,0245,0335,0333,0334,0331,0245,0335,0333,0331,0245,0330,0335,0335,0330,0335,0334,0334,0334,0331,0244,0335,0244,0335,0244,0335,0330,0334,0334,0331,0244,0335,0244,0335,0330,0334,0334,0331,0244,0335,0244,0335,0244,0333,0334,0331,0244,0335,0335,0244,0334,0244,0335,0335,0330,0334,0334,0331,0335,0334,0245,0335,0332,0335,0334,0244,0333,0335,0334,0244,0335,0244,0335,0245,0335,0333,0334,0245,0335,0333,0334,0330,0335,0335,0333,0334,0334,0244,0244,0334,0244,0334,0244,0330,0334,0245,0330,0245,0335,0335,0335,0335,0333,0334,0332,0334,0334,0331,0335,0335,0334,0334,0245,0335,0333,0334,0335,0331,0335,0334,0245,0335,0333,0331,0335,0334,0244,0334,0331,0335,0335,0334,0334,0245,0335,0333,0334,0244,0335,0244,0335,0244,0335,0335,0333,0334,0334,0334,0332,0335,0335,0245,0330,0334,0334,0334,0331,0335,0334,0245,0335,0331,0335,0334,0244,0334,0334,0331,0335,0335,0335,0335,0335,0331,0334,0334,0245,0335,0335,0330,0335,0335,0333,0334,0334,0334,0244,0334,0244,0330,0335,0334,0244,0331,0335,0330,0244,0334,0244,0335,0335,0330,0334,0331,0334,0331,0335,0244,0334,0244,0335,0335,0244,0330,0335,0334,0244,0334,0244,0330,0335,0331,0334,0334,0245,0330,0335,0335,0334,0244,0335,0330,0334,0334,0331,0335,0244,0334,0244,0334,0334,0334,0330,0335,0335,0335,0330,0334,0334,0334,0330,0335,0335,0335,0330,0335,0334,0330,0331,0244,0330,0335,0331,0334,0244,0335,0335,0331,0334,0334,0245,0334,0244,0330,0334,0245,0330,0335,0335,0335,0331,0334,0244,0334,0244,0330,0335,0331,0334,0334,0245,",
  "shapes": [
    "0220:0330,0336,0336,0347,0337,0337,",
    "0221:0336,0336,0333,0337,0200,0330,0330,0336,0332,0337,0337,",
    "0222:0336,0336,0336,0347,0337,0337,0337,0330,",
    "0223:0334,0336,0362,0203,0335,0203,0203,0335,0203,0203,0335,0203,0203,0335,0203,0363,0335,0330,0330,0337,",
    "0224:0304,0313,0336,0336,0334,0310,0350,0362,0203,0335,0335,0203,0203,0334,0334,0203,0335,0335,0335,0337,0203,0203,0335,0335,0203,0203,0335,0335,0335,0336,0203,0334,0334,0203,0203,0335,0335,0203,0363,0304,0335,0313,0337,0337,",
    "0225:0313,0304,0201,0334,0336,0336,0336,0306,0362,0203,0335,0335,0337,0203,0335,0335,0203,0335,0335,0336,0203,0363,0304,0335,0337,0337,0337,0331,",
    "0226:0313,0304,0330,0335,0336,0366,0334,0334,0331,0332,0332,0367,0366,0335,0335,0331,0333,0333,0367,0334,0337,0330,",
    "0227:0306,0314,0336,0330,0335,0335,0342,0335,0331,0334,0334,0201,0335,0330,0335,0201,0335,0331,0330,0330,0335,0335,0201,0334,0342,0335,0335,0342,0334,0331,0335,0331,0334,0330,0322,0362,0203,0335,0335,0203,0335,0203,0335,0335,0203,0363,0335,0330,0326,0335,0362,0203,0335,0203,0335,0335,0203,0335,0203,0363,0331,0325,0334,0334,0362,0203,0334,0334,0203,0334,0203,0334,0334,0203,0363,0320,0335,0342,0334,0334,0342,0334,0334,0342,0330,0334,0334,0201,0334,0201,0334,0201,0334,0201,0334,0201,0334,0201,0334,0335,0331,0334,0332,0335,0332,0331,",
    "0230:0313,0304,0336,0330,0350,0310,0362,0203,0335,0335,0335,0336,0203,0335,0335,0203,0363,0335,0335,0335,0337,0313,0304,0331,0337,",
    "0231:0350,0310,0362,0203,0335,0335,0203,0335,0335,0335,0337,0203,0363,0324,0334,0334,0334,0336,0362,0203,0335,0334,0334,0337,0203,0334,0334,0334,0334,0335,0336,0203,0334,0337,0203,0363,0335,0320,0336,0331,0335,0335,0335,0337,0362,0203,0335,0335,0335,0336,0203,0335,0335,0203,0363,0331,0304,0335,0313,",
    "0232:0336,0336,0336,0336,0336,0362,0203,0337,0203,0306,0334,0337,0203,0335,0335,0203,0203,0334,0334,0203,0203,0335,0335,0203,0203,0334,0334,0203,0203,0335,0335,0203,0203,0334,0334,0203,0335,0203,0336,0336,0203,0304,0337,0337,0337,0337,0337,0364,",
    "0233:0336,0336,0362,0203,0336,0203,0334,0364,0337,0330,0335,0335,0337,0342,0336,0330,0332,0331,0337,0342,0336,0330,0334,0336,0362,0203,0337,0203,0335,0364,0335,0337,0337,0335,0335,",
    "0234:0336,0366,0330,0333,0333,0336,0331,0337,0367,0335,0335,0366,0331,0333,0333,0367,0335,0335,0337,",
    "0235:0313,0336,0314,0336,0313,0337,0234,0234,0234,0234,0314,0337,0313,",
    "0236:0336,0336,0336,0336,0347,0337,0337,0337,0337,",
    "0237:0246,0331,0332,0331,0246,0330,0333,0331,0331,0333,0246,0332,0330,",
    "0240:0304,0313,0200,0336,0332,0350,0335,0310,0337,0304,0313,",
    "0241:0350,0310,0336,0334,0304,0313,0333,0337,",
    "0242:0240,0240,0240,0240,0240,0240,0240,0240,0241,0241,0241,0241,0241,0241,0241,0241,",
    "0243:0306,0342,0334,0342,0334,0342,0334,0342,0334,0342,0334,0342,0330,0334,0334,0201,0334,0201,0334,0201,0334,0201,0334,0201,0334,0201,0334,0312,0350,0334,0337,0342,0334,0334,0201,0335,0335,0335,0335,0342,0336,0332,0335,0335,0337,0342,0335,0335,0201,0334,0334,0334,0334,0334,0335,0342,0336,0332,0335,0306,",
    "0244:0305,0322,0311,0350,0362,0203,0335,0203,0335,0335,0335,0335,0203,0335,0203,0363,0320,0335,0335,0335,0335,0362,0203,0335,0203,0335,0335,0335,0335,0203,0335,0203,0354,0335,0335,0335,0335,",
    "0245:0326,0305,0350,0311,0362,0203,0335,0335,0203,0335,0335,0335,0203,0335,0335,0203,0363,0320,0335,0335,0335,0362,0203,0335,0335,0203,0335,0335,0335,0203,0335,0335,0203,0354,0335,0335,0335,",
    "0246:0306,0322,0362,0203,0334,0203,0334,0334,0203,0334,0203,0334,0363,0334,0325,0362,0203,0335,0203,0335,0335,0203,0335,0203,0363,0335,0335,0330,0326,0334,0362,0203,0335,0335,0203,0335,0203,0335,0335,0203,0363,0320,0335,0201,0335,0335,0201,0335,0201,0335,0335,0201,0334,0201,0335,0335,0201,0335,0201,0335,0333,0201,0335,0335,0201,0335,0201,0335,0335,0330,0331,0314,",
    "0247:0330,0336,0336,0336,0331,01300,01301,01302,01303,01304,01305,01306,01307,0337,0337,0337,0332,0336,0336,0336,0331,01310,01311,01312,01313,01314,01315,01316,01317,0337,0337,0337,0332,0336,0336,0336,0331,01320,01321,01322,01323,01324,01325,01326,01327,0337,0337,0337,0332,0336,0336,0336,0331,01330,01331,01332,01333,01334,01335,01336,01337,0337,0337,0337,0332,0336,0336,0336,0331,01340,01341,01342,01343,01344,01345,01346,01347,0337,0337,0337,0332,0336,0336,0336,0331,01350,01351,01352,01353,01354,01355,01356,01357,0337,0337,0337,0332,0336,0336,0336,0331,01360,01361,01362,01363,01364,01365,01366,01367,0337,0337,0337,0332,0336,0336,0336,0331,01370,01371,01372,01373,01374,01375,01376,01377,0337,0337,0337,0332,",
    "01220:0333,0200,0336,0332,0220,0336,0225,0337,0331,0333,0337,",
    "01221:0333,0200,0336,0332,0221,0221,0333,0331,0331,0337,",
    "01222:0333,0200,0336,0332,0330,0332,0333,0336,0225,0337,0222,0333,0331,0331,0337,",
    "01223:0333,0200,0336,0330,0332,0336,0223,0336,0331,0337,0225,0336,0330,0337,0331,0333,0331,0331,0333,0337,0337,",
    "01224:0333,0200,0336,0332,0330,0224,0333,0331,0337,",
    "01225:0333,0200,0336,0336,0332,0332,0330,0337,0225,0304,0333,0331,0336,0330,0337,0337,",
    "01226:0333,0200,0336,0330,0332,0226,0333,0331,0330,",
    "01227:0333,0200,0336,0330,0332,0336,0331,0332,0337,0306,0201,0335,0335,0201,0335,0335,0201,0335,0335,0227,0337,0313,0304,0336,0331,0332,0337,0337,0333,",
    "01230:0333,0200,0336,0332,0336,0330,0337,0230,0336,0331,0337,0333,0337,",
    "01231:0333,0200,0336,0330,0332,0336,0331,0332,0336,0330,0337,0231,0331,0333,0336,0331,0337,0337,0337,",
    "01232:0333,0200,0336,0330,0332,0331,0336,0330,0337,0232,0336,0330,0337,0333,0337,0331,",
    "01233:0333,0200,0336,0332,0336,0330,0337,0233,0336,0330,0333,0333,0337,0337,0331,",
    "01234:0333,0200,0336,0330,0332,0336,0331,0337,0234,0336,0330,0336,0330,0337,0337,0333,0337,0331,",
    "01235:0333,0200,0336,0332,0336,0330,0337,0235,0336,0330,0337,0333,0337,0331,",
    "01236:0333,0200,0336,0330,0332,0336,0342,0335,0342,0335,0342,0335,0342,0335,0337,0236,0331,0333,0337,",
    "01237:0333,0200,0336,0330,0332,0336,0237,0313,0337,0304,0313,0331,0333,0337,",
    "01240:0333,0200,0336,0330,0332,0336,0331,0333,0337,0240,0240,0241,0241,0336,0331,0333,0337,0337,",
    "01241:0333,0200,0336,0330,0332,0336,0331,0333,0337,0240,0240,0241,0241,0336,0330,0332,0336,0334,0330,0337,0201,0336,0336,0306,0350,0335,0335,0335,0336,0362,0203,0334,0334,0334,0334,0337,0203,0334,0334,0334,0334,0203,0334,0334,0334,0334,0336,0203,0363,0313,0304,0337,0337,0332,0337,0337,0331,0337,0333,",
    "01242:0333,0200,0242,",
    "01243:0333,0200,0336,0330,0332,0243,0313,0304,0331,0333,0337,",
    "01244:0333,0200,0336,0330,0332,0336,0331,0337,0244,0313,0304,0336,0331,0337,0333,0337,",
    "01245:0333,0200,0336,0330,0332,0336,0331,0337,0245,0313,0304,0336,0331,0337,0333,0337,",
    "01246:0333,0200,0336,0330,0332,0336,0331,0246,0313,0331,0313,0304,0333,0333,0337,0337,",
    "01247:0247,0333,"
  ],
  "x0rel": 0.5,
  "y0rel": 0.5,
  "unitrel": 0.25,
  "theta0": -1.570796,
  "width": 400,
  "height": 400,
  "scale": 1,
  "backgroundimage": "",
  "style": {
    "color0": "black",
    "fill0": "black",
    "line0": 2,
    "color1": "black",
    "fill1": "white",
    "line1": 1,
    "color2": "red",
    "fill2": "red",
    "line2": 2,
    "color3": "#FF7900",
    "fill3": "#FF7900",
    "line3": 2,
    "color4": "yellow",
    "fill4": "yellow",
    "line4": 2,
    "color5": "green",
    "fill5": "green",
    "line5": 2,
    "color6": "blue",
    "fill6": "blue",
    "line6": 2,
    "color7": "purple",
    "fill7": "purple",
    "line7": 2
  },
  "controlbuttons": [
    196,
    197,
    198,
    232,
    233,
    200,
    201,
    202,
    203,
    204,
    208,
    209,
    210,
    211,
    212,
    213,
    214,
    215,
    216,
    217,
    218,
    219,
    220,
    221,
    222,
    223,
    225,
    227,
    129,
    128,
    146,
    149,
    147,
    145,
    150,
    154,
    155,
    157,
    159,
    164,
    165,
    16,
    8,
    17
  ]
}</json>-->	<path d = "M150 235 L150 173 L210 153 L210 216 L150 235 Z" stroke = "#0000ff" stroke-width = "2" fill = "#0000ff" />	<path d = "M150 235 L150 173 L210 153 L210 216 L150 235 Z" stroke = "#000000" stroke-width = "2" fill = "none" />	<path d = "M150 235 L210 216 L247 267 L187 286 L150 235 Z" stroke = "#0000ff" stroke-width = "2" fill = "#0000ff" />	<path d = "M150 235 L210 216 L247 267 L187 286 L150 235 Z" stroke = "#000000" stroke-width = "2" fill = "none" />	<path d = "M150 235 L187 286 L150 337 L113 286 L150 235 Z" stroke = "#0000ff" stroke-width = "2" fill = "#0000ff" />	<path d = "M150 235 L187 286 L150 337 L113 286 L150 235 Z" stroke = "#000000" stroke-width = "2" fill = "none" />	<path d = "M150 235 L113 286 L53 267 L90 216 L150 235 Z" stroke = "#0000ff" stroke-width = "2" fill = "#0000ff" />	<path d = "M150 235 L113 286 L53 267 L90 216 L150 235 Z" stroke = "#000000" stroke-width = "2" fill = "none" />	<path d = "M150 235 L90 216 L90 153 L150 173 L150 235 Z" stroke = "#0000ff" stroke-width = "2" fill = "#0000ff" />	<path d = "M150 235 L90 216 L90 153 L150 173 L150 235 Z" stroke = "#000000" stroke-width = "2" fill = "none" />	<path d = "M90 216 L30 235 L-30 216 L30 197 L90 216 Z" stroke = "#ff0000" stroke-width = "2" fill = "#ff0000" />	<path d = "M90 216 L30 235 L-30 216 L30 197 L90 216 Z" stroke = "#000000" stroke-width = "2" fill = "none" />	<path d = "M90 216 L53 267 L-7 286 L30 235 L90 216 Z" stroke = "#ff0000" stroke-width = "2" fill = "#ff0000" />	<path d = "M90 216 L53 267 L-7 286 L30 235 L90 216 Z" stroke = "#000000" stroke-width = "2" fill = "none" />	<path d = "M90 216 L53 165 L53 102 L90 153 L90 216 Z" stroke = "#ff0000" stroke-width = "2" fill = "#ff0000" />	<path d = "M90 216 L53 165 L53 102 L90 153 L90 216 Z" stroke = "#000000" stroke-width = "2" fill = "none" />	<path d = "M90 216 L30 197 L-7 146 L53 165 L90 216 Z" stroke = "#ff0000" stroke-width = "2" fill = "#ff0000" />	<path d = "M90 216 L30 197 L-7 146 L53 165 L90 216 Z" stroke = "#000000" stroke-width = "2" fill = "none" />	<path d = "M150 173 L90 153 L53 102 L113 122 L150 173 Z" stroke = "#ff0000" stroke-width = "2" fill = "#ff0000" />	<path d = "M150 173 L90 153 L53 102 L113 122 L150 173 Z" stroke = "#000000" stroke-width = "2" fill = "none" />	<path d = "M150 173 L113 122 L113 59 L150 110 L150 173 Z" stroke = "#ff0000" stroke-width = "2" fill = "#ff0000" />	<path d = "M150 173 L113 122 L113 59 L150 110 L150 173 Z" stroke = "#000000" stroke-width = "2" fill = "none" />	<path d = "M150 173 L150 110 L187 59 L187 122 L150 173 Z" stroke = "#ff0000" stroke-width = "2" fill = "#ff0000" />	<path d = "M150 173 L150 110 L187 59 L187 122 L150 173 Z" stroke = "#000000" stroke-width = "2" fill = "none" />	<path d = "M150 173 L187 122 L247 102 L210 153 L150 173 Z" stroke = "#ff0000" stroke-width = "2" fill = "#ff0000" />	<path d = "M150 173 L187 122 L247 102 L210 153 L150 173 Z" stroke = "#000000" stroke-width = "2" fill = "none" />	<path d = "M210 216 L210 153 L247 102 L247 165 L210 216 Z" stroke = "#ff0000" stroke-width = "2" fill = "#ff0000" />	<path d = "M210 216 L210 153 L247 102 L247 165 L210 216 Z" stroke = "#000000" stroke-width = "2" fill = "none" />	<path d = "M210 216 L247 165 L307 146 L270 197 L210 216 Z" stroke = "#ff0000" stroke-width = "2" fill = "#ff0000" />	<path d = "M210 216 L247 165 L307 146 L270 197 L210 216 Z" stroke = "#000000" stroke-width = "2" fill = "none" />	<path d = "M210 216 L270 197 L330 216 L270 235 L210 216 Z" stroke = "#ff0000" stroke-width = "2" fill = "#ff0000" />	<path d = "M210 216 L270 197 L330 216 L270 235 L210 216 Z" stroke = "#000000" stroke-width = "2" fill = "none" />	<path d = "M210 216 L270 235 L307 286 L247 267 L210 216 Z" stroke = "#ff0000" stroke-width = "2" fill = "#ff0000" />	<path d = "M210 216 L270 235 L307 286 L247 267 L210 216 Z" stroke = "#000000" stroke-width = "2" fill = "none" />	<path d = "M187 286 L247 267 L307 286 L247 306 L187 286 Z" stroke = "#ff0000" stroke-width = "2" fill = "#ff0000" />	<path d = "M187 286 L247 267 L307 286 L247 306 L187 286 Z" stroke = "#000000" stroke-width = "2" fill = "none" />	<path d = "M187 286 L247 306 L284 357 L224 337 L187 286 Z" stroke = "#ff0000" stroke-width = "2" fill = "#ff0000" />	<path d = "M187 286 L247 306 L284 357 L224 337 L187 286 Z" stroke = "#000000" stroke-width = "2" fill = "none" />	<path d = "M187 286 L224 337 L224 400 L187 349 L187 286 Z" stroke = "#ff0000" stroke-width = "2" fill = "#ff0000" />	<path d = "M187 286 L224 337 L224 400 L187 349 L187 286 Z" stroke = "#000000" stroke-width = "2" fill = "none" />	<path d = "M187 286 L187 349 L150 400 L150 337 L187 286 Z" stroke = "#ff0000" stroke-width = "2" fill = "#ff0000" />	<path d = "M187 286 L187 349 L150 400 L150 337 L187 286 Z" stroke = "#000000" stroke-width = "2" fill = "none" />	<path d = "M113 286 L150 337 L150 400 L113 349 L113 286 Z" stroke = "#ff0000" stroke-width = "2" fill = "#ff0000" />	<path d = "M113 286 L150 337 L150 400 L113 349 L113 286 Z" stroke = "#000000" stroke-width = "2" fill = "none" />	<path d = "M113 286 L113 349 L76 400 L76 337 L113 286 Z" stroke = "#ff0000" stroke-width = "2" fill = "#ff0000" />	<path d = "M113 286 L113 349 L76 400 L76 337 L113 286 Z" stroke = "#000000" stroke-width = "2" fill = "none" />	<path d = "M113 286 L76 337 L16 357 L53 306 L113 286 Z" stroke = "#ff0000" stroke-width = "2" fill = "#ff0000" />	<path d = "M113 286 L76 337 L16 357 L53 306 L113 286 Z" stroke = "#000000" stroke-width = "2" fill = "none" />	<path d = "M113 286 L53 306 L-7 286 L53 267 L113 286 Z" stroke = "#ff0000" stroke-width = "2" fill = "#ff0000" />	<path d = "M113 286 L53 306 L-7 286 L53 267 L113 286 Z" stroke = "#000000" stroke-width = "2" fill = "none" />	<path d = "M53 306 L16 357 L-44 337 L-7 286 L53 306 Z" stroke = "#0000ff" stroke-width = "2" fill = "#0000ff" />	<path d = "M53 306 L16 357 L-44 337 L-7 286 L53 306 Z" stroke = "#000000" stroke-width = "2" fill = "none" />	<path d = "M30 235 L-7 286 L-67 267 L-30 216 L30 235 Z" stroke = "#0000ff" stroke-width = "2" fill = "#0000ff" />	<path d = "M30 235 L-7 286 L-67 267 L-30 216 L30 235 Z" stroke = "#000000" stroke-width = "2" fill = "none" />	<path d = "M30 197 L-30 216 L-67 165 L-7 146 L30 197 Z" stroke = "#0000ff" stroke-width = "2" fill = "#0000ff" />	<path d = "M30 197 L-30 216 L-67 165 L-7 146 L30 197 Z" stroke = "#000000" stroke-width = "2" fill = "none" />	<path d = "M53 165 L-7 146 L-7 83 L53 102 L53 165 Z" stroke = "#0000ff" stroke-width = "2" fill = "#0000ff" />	<path d = "M53 165 L-7 146 L-7 83 L53 102 L53 165 Z" stroke = "#000000" stroke-width = "2" fill = "none" />	<path d = "M113 122 L53 102 L53 39 L113 59 L113 122 Z" stroke = "#0000ff" stroke-width = "2" fill = "#0000ff" />	<path d = "M113 122 L53 102 L53 39 L113 59 L113 122 Z" stroke = "#000000" stroke-width = "2" fill = "none" />	<path d = "M150 110 L113 59 L150 8 L187 59 L150 110 Z" stroke = "#0000ff" stroke-width = "2" fill = "#0000ff" />	<path d = "M150 110 L113 59 L150 8 L187 59 L150 110 Z" stroke = "#000000" stroke-width = "2" fill = "none" />	<path d = "M187 122 L187 59 L247 39 L247 102 L187 122 Z" stroke = "#0000ff" stroke-width = "2" fill = "#0000ff" />	<path d = "M187 122 L187 59 L247 39 L247 102 L187 122 Z" stroke = "#000000" stroke-width = "2" fill = "none" />	<path d = "M247 165 L247 102 L307 83 L307 146 L247 165 Z" stroke = "#0000ff" stroke-width = "2" fill = "#0000ff" />	<path d = "M247 165 L247 102 L307 83 L307 146 L247 165 Z" stroke = "#000000" stroke-width = "2" fill = "none" />	<path d = "M270 197 L307 146 L367 165 L330 216 L270 197 Z" stroke = "#0000ff" stroke-width = "2" fill = "#0000ff" />	<path d = "M270 197 L307 146 L367 165 L330 216 L270 197 Z" stroke = "#000000" stroke-width = "2" fill = "none" />	<path d = "M270 235 L330 216 L367 267 L307 286 L270 235 Z" stroke = "#0000ff" stroke-width = "2" fill = "#0000ff" />	<path d = "M270 235 L330 216 L367 267 L307 286 L270 235 Z" stroke = "#000000" stroke-width = "2" fill = "none" />	<path d = "M247 306 L307 286 L344 337 L284 357 L247 306 Z" stroke = "#0000ff" stroke-width = "2" fill = "#0000ff" />	<path d = "M247 306 L307 286 L344 337 L284 357 L247 306 Z" stroke = "#000000" stroke-width = "2" fill = "none" />	<path d = "M224 337 L284 357 L284 420 L224 400 L224 337 Z" stroke = "#0000ff" stroke-width = "2" fill = "#0000ff" />	<path d = "M224 337 L284 357 L284 420 L224 400 L224 337 Z" stroke = "#000000" stroke-width = "2" fill = "none" />	<path d = "M187 349 L224 400 L187 451 L150 400 L187 349 Z" stroke = "#0000ff" stroke-width = "2" fill = "#0000ff" />	<path d = "M187 349 L224 400 L187 451 L150 400 L187 349 Z" stroke = "#000000" stroke-width = "2" fill = "none" />	<path d = "M113 349 L150 400 L113 451 L76 400 L113 349 Z" stroke = "#0000ff" stroke-width = "2" fill = "#0000ff" />	<path d = "M113 349 L150 400 L113 451 L76 400 L113 349 Z" stroke = "#000000" stroke-width = "2" fill = "none" />	<path d = "M76 337 L76 400 L16 420 L16 357 L76 337 Z" stroke = "#0000ff" stroke-width = "2" fill = "#0000ff" />	<path d = "M76 337 L76 400 L16 420 L16 357 L76 337 Z" stroke = "#000000" stroke-width = "2" fill = "none" />	<path d = "M16 357 L16 420 L-21 471 L-21 408 L16 357 Z" stroke = "#ff0000" stroke-width = "2" fill = "#ff0000" />	<path d = "M16 357 L16 420 L-21 471 L-21 408 L16 357 Z" stroke = "#000000" stroke-width = "2" fill = "none" />	<path d = "M16 357 L-21 408 L-81 427 L-44 376 L16 357 Z" stroke = "#ff0000" stroke-width = "2" fill = "#ff0000" />	<path d = "M16 357 L-21 408 L-81 427 L-44 376 L16 357 Z" stroke = "#000000" stroke-width = "2" fill = "none" />	<path d = "M16 357 L-44 376 L-104 357 L-44 337 L16 357 Z" stroke = "#ff0000" stroke-width = "2" fill = "#ff0000" />	<path d = "M16 357 L-44 376 L-104 357 L-44 337 L16 357 Z" stroke = "#000000" stroke-width = "2" fill = "none" />	<path d = "M-7 286 L-44 337 L-104 357 L-67 306 L-7 286 Z" stroke = "#ff0000" stroke-width = "2" fill = "#ff0000" />	<path d = "M-7 286 L-44 337 L-104 357 L-67 306 L-7 286 Z" stroke = "#000000" stroke-width = "2" fill = "none" />	<path d = "M-7 286 L-67 306 L-126 286 L-67 267 L-7 286 Z" stroke = "#ff0000" stroke-width = "2" fill = "#ff0000" />	<path d = "M-7 286 L-67 306 L-126 286 L-67 267 L-7 286 Z" stroke = "#000000" stroke-width = "2" fill = "none" />	<path d = "M-30 216 L-67 267 L-126 286 L-89 235 L-30 216 Z" stroke = "#ff0000" stroke-width = "2" fill = "#ff0000" />	<path d = "M-30 216 L-67 267 L-126 286 L-89 235 L-30 216 Z" stroke = "#000000" stroke-width = "2" fill = "none" />	<path d = "M-30 216 L-89 235 L-149 216 L-89 197 L-30 216 Z" stroke = "#ff0000" stroke-width = "2" fill = "#ff0000" />	<path d = "M-30 216 L-89 235 L-149 216 L-89 197 L-30 216 Z" stroke = "#000000" stroke-width = "2" fill = "none" />	<path d = "M-30 216 L-89 197 L-126 146 L-67 165 L-30 216 Z" stroke = "#ff0000" stroke-width = "2" fill = "#ff0000" />	<path d = "M-30 216 L-89 197 L-126 146 L-67 165 L-30 216 Z" stroke = "#000000" stroke-width = "2" fill = "none" />	<path d = "M-7 146 L-67 165 L-126 146 L-67 126 L-7 146 Z" stroke = "#ff0000" stroke-width = "2" fill = "#ff0000" />	<path d = "M-7 146 L-67 165 L-126 146 L-67 126 L-7 146 Z" stroke = "#000000" stroke-width = "2" fill = "none" />	<path d = "M-7 146 L-44 95 L-44 32 L-7 83 L-7 146 Z" stroke = "#ff0000" stroke-width = "2" fill = "#ff0000" />	<path d = "M-7 146 L-44 95 L-44 32 L-7 83 L-7 146 Z" stroke = "#000000" stroke-width = "2" fill = "none" />	<path d = "M-7 146 L-67 126 L-104 75 L-44 95 L-7 146 Z" stroke = "#ff0000" stroke-width = "2" fill = "#ff0000" />	<path d = "M-7 146 L-67 126 L-104 75 L-44 95 L-7 146 Z" stroke = "#000000" stroke-width = "2" fill = "none" />	<path d = "M53 102 L-7 83 L-7 20 L53 39 L53 102 Z" stroke = "#0000ff" stroke-width = "2" fill = "#0000ff" />	<path d = "M53 102 L-7 83 L-7 20 L53 39 L53 102 Z" stroke = "#000000" stroke-width = "2" fill = "none" />	<path d = "M-7 83 L-44 32 L-44 -31 L-7 20 L-7 83 Z" stroke = "#ff0000" stroke-width = "2" fill = "#ff0000" />	<path d = "M-7 83 L-44 32 L-44 -31 L-7 20 L-7 83 Z" stroke = "#000000" stroke-width = "2" fill = "none" />	<path d = "M-7 20 L-44 -31 L-44 -94 L-7 -43 L-7 20 Z" stroke = "#ff0000" stroke-width = "2" fill = "#ff0000" />	<path d = "M-7 20 L-44 -31 L-44 -94 L-7 -43 L-7 20 Z" stroke = "#000000" stroke-width = "2" fill = "none" />	<path d = "M-7 20 L-7 -43 L30 -94 L30 -31 L-7 20 Z" stroke = "#ff0000" stroke-width = "2" fill = "#ff0000" />	<path d = "M-7 20 L-7 -43 L30 -94 L30 -31 L-7 20 Z" stroke = "#000000" stroke-width = "2" fill = "none" />	<path d = "M-7 20 L30 -31 L90 -12 L53 39 L-7 20 Z" stroke = "#0000ff" stroke-width = "2" fill = "#0000ff" />	<path d = "M-7 20 L30 -31 L90 -12 L53 39 L-7 20 Z" stroke = "#000000" stroke-width = "2" fill = "none" />	<path d = "M53 39 L90 -12 L150 8 L113 59 L53 39 Z" stroke = "#0000ff" stroke-width = "2" fill = "#0000ff" />	<path d = "M53 39 L90 -12 L150 8 L113 59 L53 39 Z" stroke = "#000000" stroke-width = "2" fill = "none" />	<path d = "M187 59 L224 8 L284 -12 L247 39 L187 59 Z" stroke = "#ff0000" stroke-width = "2" fill = "#ff0000" />	<path d = "M187 59 L224 8 L284 -12 L247 39 L187 59 Z" stroke = "#000000" stroke-width = "2" fill = "none" />	<path d = "M187 59 L224 8 L284 -12 L247 39 L187 59 Z" stroke = "#ff0000" stroke-width = "2" fill = "#ff0000" />	<path d = "M187 59 L224 8 L284 -12 L247 39 L187 59 Z" stroke = "#000000" stroke-width = "2" fill = "none" />	<path d = "M187 59 L187 -4 L224 -55 L224 8 L187 59 Z" stroke = "#ff0000" stroke-width = "2" fill = "#ff0000" />	<path d = "M187 59 L187 -4 L224 -55 L224 8 L187 59 Z" stroke = "#000000" stroke-width = "2" fill = "none" />	<path d = "M187 59 L150 8 L150 -55 L187 -4 L187 59 Z" stroke = "#ff0000" stroke-width = "2" fill = "#ff0000" />	<path d = "M187 59 L150 8 L150 -55 L187 -4 L187 59 Z" stroke = "#000000" stroke-width = "2" fill = "none" />	<path d = "M150 8 L90 -12 L90 -75 L150 -55 L150 8 Z" stroke = "#0000ff" stroke-width = "2" fill = "#0000ff" />	<path d = "M150 8 L90 -12 L90 -75 L150 -55 L150 8 Z" stroke = "#000000" stroke-width = "2" fill = "none" />	<path d = "M90 -12 L30 -31 L30 -94 L90 -75 L90 -12 Z" stroke = "#0000ff" stroke-width = "2" fill = "#0000ff" />	<path d = "M90 -12 L30 -31 L30 -94 L90 -75 L90 -12 Z" stroke = "#000000" stroke-width = "2" fill = "none" />	<path d = "M187 -4 L150 -55 L187 -106 L224 -55 L187 -4 Z" stroke = "#0000ff" stroke-width = "2" fill = "#0000ff" />	<path d = "M187 -4 L150 -55 L187 -106 L224 -55 L187 -4 Z" stroke = "#000000" stroke-width = "2" fill = "none" />	<path d = "M224 8 L224 -55 L284 -75 L284 -12 L224 8 Z" stroke = "#0000ff" stroke-width = "2" fill = "#0000ff" />	<path d = "M224 8 L224 -55 L284 -75 L284 -12 L224 8 Z" stroke = "#000000" stroke-width = "2" fill = "none" />	<path d = "M247 39 L284 -12 L344 -31 L307 20 L247 39 Z" stroke = "#ff0000" stroke-width = "2" fill = "#ff0000" />	<path d = "M247 39 L284 -12 L344 -31 L307 20 L247 39 Z" stroke = "#000000" stroke-width = "2" fill = "none" />	<path d = "M247 102 L247 39 L307 20 L307 83 L247 102 Z" stroke = "#0000ff" stroke-width = "2" fill = "#0000ff" />	<path d = "M247 102 L247 39 L307 20 L307 83 L247 102 Z" stroke = "#000000" stroke-width = "2" fill = "none" />	<path d = "M307 83 L307 20 L344 -31 L344 32 L307 83 Z" stroke = "#ff0000" stroke-width = "2" fill = "#ff0000" />	<path d = "M307 83 L307 20 L344 -31 L344 32 L307 83 Z" stroke = "#000000" stroke-width = "2" fill = "none" />	<path d = "M307 83 L344 32 L404 12 L367 63 L307 83 Z" stroke = "#ff0000" stroke-width = "2" fill = "#ff0000" />	<path d = "M307 83 L344 32 L404 12 L367 63 L307 83 Z" stroke = "#000000" stroke-width = "2" fill = "none" />	<path d = "M307 83 L367 63 L426 83 L367 102 L307 83 Z" stroke = "#ff0000" stroke-width = "2" fill = "#ff0000" />	<path d = "M307 83 L367 63 L426 83 L367 102 L307 83 Z" stroke = "#000000" stroke-width = "2" fill = "none" />	<path d = "M307 83 L367 102 L367 165 L307 146 L307 83 Z" stroke = "#0000ff" stroke-width = "2" fill = "#0000ff" />	<path d = "M307 83 L367 102 L367 165 L307 146 L307 83 Z" stroke = "#000000" stroke-width = "2" fill = "none" />	<path d = "M367 165 L367 102 L426 83 L426 146 L367 165 Z" stroke = "#0000ff" stroke-width = "2" fill = "#0000ff" />	<path d = "M367 165 L367 102 L426 83 L426 146 L367 165 Z" stroke = "#000000" stroke-width = "2" fill = "none" />	<path d = "M330 216 L367 165 L426 146 L389 197 L330 216 Z" stroke = "#ff0000" stroke-width = "2" fill = "#ff0000" />	<path d = "M330 216 L367 165 L426 146 L389 197 L330 216 Z" stroke = "#000000" stroke-width = "2" fill = "none" />	<path d = "M330 216 L389 197 L426 247 L367 267 L330 216 Z" stroke = "#0000ff" stroke-width = "2" fill = "#0000ff" />	<path d = "M330 216 L389 197 L426 247 L367 267 L330 216 Z" stroke = "#000000" stroke-width = "2" fill = "none" />	<path d = "M307 286 L367 306 L404 357 L344 337 L307 286 Z" stroke = "#ff0000" stroke-width = "2" fill = "#ff0000" />	<path d = "M307 286 L367 306 L404 357 L344 337 L307 286 Z" stroke = "#000000" stroke-width = "2" fill = "none" />	<path d = "M307 286 L367 267 L426 286 L367 306 L307 286 Z" stroke = "#ff0000" stroke-width = "2" fill = "#ff0000" />	<path d = "M307 286 L367 267 L426 286 L367 306 L307 286 Z" stroke = "#000000" stroke-width = "2" fill = "none" />	<path d = "M367 267 L426 247 L486 267 L426 286 L367 267 Z" stroke = "#ff0000" stroke-width = "2" fill = "#ff0000" />	<path d = "M367 267 L426 247 L486 267 L426 286 L367 267 Z" stroke = "#000000" stroke-width = "2" fill = "none" />	<path d = "M367 306 L426 325 L463 376 L404 357 L367 306 Z" stroke = "#ff0000" stroke-width = "2" fill = "#ff0000" />	<path d = "M367 306 L426 325 L463 376 L404 357 L367 306 Z" stroke = "#000000" stroke-width = "2" fill = "none" />	<path d = "M367 306 L426 286 L486 306 L426 325 L367 306 Z" stroke = "#ff0000" stroke-width = "2" fill = "#ff0000" />	<path d = "M367 306 L426 286 L486 306 L426 325 L367 306 Z" stroke = "#000000" stroke-width = "2" fill = "none" />	<path d = "M284 357 L344 376 L381 427 L321 408 L284 357 Z" stroke = "#ff0000" stroke-width = "2" fill = "#ff0000" />	<path d = "M284 357 L344 376 L381 427 L321 408 L284 357 Z" stroke = "#000000" stroke-width = "2" fill = "none" />	<path d = "M284 357 L344 337 L404 357 L344 376 L284 357 Z" stroke = "#ff0000" stroke-width = "2" fill = "#ff0000" />	<path d = "M284 357 L344 337 L404 357 L344 376 L284 357 Z" stroke = "#000000" stroke-width = "2" fill = "none" />	<path d = "M284 357 L321 408 L321 471 L284 420 L284 357 Z" stroke = "#ff0000" stroke-width = "2" fill = "#ff0000" />	<path d = "M284 357 L321 408 L321 471 L284 420 L284 357 Z" stroke = "#000000" stroke-width = "2" fill = "none" />	<path d = "M321 408 L358 459 L358 521 L321 471 L321 408 Z" stroke = "#ff0000" stroke-width = "2" fill = "#ff0000" />	<path d = "M321 408 L358 459 L358 521 L321 471 L321 408 Z" stroke = "#000000" stroke-width = "2" fill = "none" />	<path d = "M321 408 L381 427 L418 478 L358 459 L321 408 Z" stroke = "#ff0000" stroke-width = "2" fill = "#ff0000" />	<path d = "M321 408 L381 427 L418 478 L358 459 L321 408 Z" stroke = "#000000" stroke-width = "2" fill = "none" />	<path d = "M344 376 L404 357 L441 408 L381 427 L344 376 Z" stroke = "#0000ff" stroke-width = "2" fill = "#0000ff" />	<path d = "M344 376 L404 357 L441 408 L381 427 L344 376 Z" stroke = "#000000" stroke-width = "2" fill = "none" />	<path d = "M404 357 L463 376 L500 427 L441 408 L404 357 Z" stroke = "#ff0000" stroke-width = "2" fill = "#ff0000" />	<path d = "M404 357 L463 376 L500 427 L441 408 L404 357 Z" stroke = "#000000" stroke-width = "2" fill = "none" />	<path d = "M381 427 L441 447 L477 497 L418 478 L381 427 Z" stroke = "#ff0000" stroke-width = "2" fill = "#ff0000" />	<path d = "M381 427 L441 447 L477 497 L418 478 L381 427 Z" stroke = "#000000" stroke-width = "2" fill = "none" />	<path d = "M381 427 L441 408 L500 427 L441 447 L381 427 Z" stroke = "#ff0000" stroke-width = "2" fill = "#ff0000" />	<path d = "M381 427 L441 408 L500 427 L441 447 L381 427 Z" stroke = "#000000" stroke-width = "2" fill = "none" />	<path d = "M426 286 L486 267 L546 286 L486 306 L426 286 Z" stroke = "#ff0000" stroke-width = "2" fill = "#ff0000" />	<path d = "M426 286 L486 267 L546 286 L486 306 L426 286 Z" stroke = "#000000" stroke-width = "2" fill = "none" />	<path d = "M426 247 L486 228 L546 247 L486 267 L426 247 Z" stroke = "#ff0000" stroke-width = "2" fill = "#ff0000" />	<path d = "M426 247 L486 228 L546 247 L486 267 L426 247 Z" stroke = "#000000" stroke-width = "2" fill = "none" />	<path d = "M389 197 L449 177 L486 228 L426 247 L389 197 Z" stroke = "#0000ff" stroke-width = "2" fill = "#0000ff" />	<path d = "M389 197 L449 177 L486 228 L426 247 L389 197 Z" stroke = "#000000" stroke-width = "2" fill = "none" />	<path d = "M389 197 L426 146 L486 126 L449 177 L389 197 Z" stroke = "#ff0000" stroke-width = "2" fill = "#ff0000" />	<path d = "M389 197 L426 146 L486 126 L449 177 L389 197 Z" stroke = "#000000" stroke-width = "2" fill = "none" />	<path d = "M426 146 L426 83 L486 63 L486 126 L426 146 Z" stroke = "#0000ff" stroke-width = "2" fill = "#0000ff" />	<path d = "M426 146 L426 83 L486 63 L486 126 L426 146 Z" stroke = "#000000" stroke-width = "2" fill = "none" />	<path d = "M367 63 L426 44 L486 63 L426 83 L367 63 Z" stroke = "#ff0000" stroke-width = "2" fill = "#ff0000" />	<path d = "M367 63 L426 44 L486 63 L426 83 L367 63 Z" stroke = "#000000" stroke-width = "2" fill = "none" />	<path d = "M367 63 L404 12 L463 -7 L426 44 L367 63 Z" stroke = "#ff0000" stroke-width = "2" fill = "#ff0000" />	<path d = "M367 63 L404 12 L463 -7 L426 44 L367 63 Z" stroke = "#000000" stroke-width = "2" fill = "none" />	<path d = "M344 32 L344 -31 L404 -51 L404 12 L344 32 Z" stroke = "#0000ff" stroke-width = "2" fill = "#0000ff" />	<path d = "M344 32 L344 -31 L404 -51 L404 12 L344 32 Z" stroke = "#000000" stroke-width = "2" fill = "none" /></svg>