<svg width="500" height="500" viewbox = "0 0 500 500"  xmlns="http://www.w3.org/2000/svg">
<!--<json>{
  "glyph": "0336,0331,0337,0337,0237,0336,0331,0331,0331,0237,0336,0331,0331,0331,0237,",
  "shapes": [
    "0220:0330,0336,0336,0347,0337,0337,",
    "0221:0336,0336,0333,0337,0200,0330,0330,0336,0332,0337,0337,",
    "0222:0336,0336,0336,0347,0337,0337,0337,0330,",
    "0223:0334,0336,0362,0203,0335,0203,0203,0335,0203,0203,0335,0203,0203,0335,0203,0363,0335,0330,0330,0337,",
    "0224:0304,0313,0336,0336,0334,0310,0350,0362,0203,0335,0335,0203,0203,0334,0334,0203,0335,0335,0335,0337,0203,0203,0335,0335,0203,0203,0335,0335,0335,0336,0203,0334,0334,0203,0203,0335,0335,0203,0363,0304,0335,0313,0337,0337,",
    "0225:0313,0304,0201,0334,0336,0336,0336,0306,0362,0203,0335,0335,0337,0203,0335,0335,0203,0335,0335,0336,0203,0363,0304,0335,0337,0337,0337,0331,",
    "0226:0313,0304,0330,0335,0336,0366,0334,0334,0331,0332,0332,0367,0366,0335,0335,0331,0333,0333,0367,0334,0337,0330,",
    "0227:0336,0336,0341,0337,0337,0330,",
    "0230:0313,0304,0336,0330,0350,0310,0362,0203,0335,0335,0335,0336,0203,0335,0335,0203,0363,0335,0335,0335,0337,0313,0304,0331,0337,",
    "0231:0350,0310,0362,0203,0335,0335,0203,0335,0335,0335,0337,0203,0363,0324,0334,0334,0334,0336,0362,0203,0335,0334,0334,0337,0203,0334,0334,0334,0334,0335,0336,0203,0334,0337,0203,0363,0335,0320,0336,0331,0335,0335,0335,0337,0362,0203,0335,0335,0335,0336,0203,0335,0335,0203,0363,0331,0304,0335,0313,",
    "0232:0336,0336,0336,0336,0336,0362,0203,0337,0203,0306,0334,0337,0203,0335,0335,0203,0203,0334,0334,0203,0203,0335,0335,0203,0203,0334,0334,0203,0203,0335,0335,0203,0203,0334,0334,0203,0335,0203,0336,0336,0203,0304,0337,0337,0337,0337,0337,0364,",
    "0233:0336,0336,0362,0203,0336,0203,0334,0364,0337,0330,0335,0335,0337,0342,0336,0330,0332,0331,0337,0342,0336,0330,0334,0336,0362,0203,0337,0203,0335,0364,0335,0337,0337,0335,0335,",
    "0234:0336,0366,0330,0333,0333,0336,0331,0337,0367,0335,0335,0366,0331,0333,0333,0367,0335,0335,0337,",
    "0235:0313,0336,0314,0336,0313,0337,0234,0234,0234,0234,0314,0337,0313,",
    "0236:0336,0336,0336,0336,0347,0337,0337,0337,0337,",
    "0237:0246,0331,0332,0331,0246,0330,0333,0331,0331,0333,0246,0332,0330,",
    "0240:0304,0313,0200,0336,0332,0350,0335,0310,0337,0304,0313,",
    "0241:0350,0310,0336,0334,0304,0313,0333,0337,",
    "0242:0240,0240,0240,0240,0240,0240,0240,0240,0241,0241,0241,0241,0241,0241,0241,0241,",
    "0243:0306,0342,0334,0342,0334,0342,0334,0342,0334,0342,0334,0342,0330,0334,0334,0201,0334,0201,0334,0201,0334,0201,0334,0201,0334,0201,0334,0312,0350,0334,0337,0342,0334,0334,0201,0335,0335,0335,0335,0342,0336,0332,0335,0335,0337,0342,0335,0335,0201,0334,0334,0334,0334,0334,0335,0342,0336,0332,0335,0306,",
    "0244:0305,0322,0311,0350,0362,0203,0335,0203,0335,0335,0335,0335,0203,0335,0203,0363,0320,0335,0335,0335,0335,0362,0203,0335,0203,0335,0335,0335,0335,0203,0335,0203,0354,0335,0335,0335,0335,",
    "0245:0326,0305,0350,0311,0362,0203,0335,0335,0203,0335,0335,0335,0203,0335,0335,0203,0363,0320,0335,0335,0335,0362,0203,0335,0335,0203,0335,0335,0335,0203,0335,0335,0203,0354,0335,0335,0335,",
    "0246:0306,0322,0362,0203,0334,0203,0334,0334,0203,0334,0203,0334,0363,0334,0325,0362,0203,0335,0203,0335,0335,0203,0335,0203,0363,0335,0335,0330,0326,0334,0362,0203,0335,0335,0203,0335,0203,0335,0335,0203,0363,0320,0335,0201,0335,0335,0201,0335,0201,0335,0335,0201,0334,0201,0335,0335,0201,0335,0201,0335,0333,0201,0335,0335,0201,0335,0201,0335,0335,0330,0331,0314,",
    "0247:0330,0336,0336,0336,0331,01300,01301,01302,01303,01304,01305,01306,01307,0337,0337,0337,0332,0336,0336,0336,0331,01310,01311,01312,01313,01314,01315,01316,01317,0337,0337,0337,0332,0336,0336,0336,0331,01320,01321,01322,01323,01324,01325,01326,01327,0337,0337,0337,0332,0336,0336,0336,0331,01330,01331,01332,01333,01334,01335,01336,01337,0337,0337,0337,0332,0336,0336,0336,0331,01340,01341,01342,01343,01344,01345,01346,01347,0337,0337,0337,0332,0336,0336,0336,0331,01350,01351,01352,01353,01354,01355,01356,01357,0337,0337,0337,0332,0336,0336,0336,0331,01360,01361,01362,01363,01364,01365,01366,01367,0337,0337,0337,0332,0336,0336,0336,0331,01370,01371,01372,01373,01374,01375,01376,01377,0337,0337,0337,0332,",
    "01220:0333,0200,0336,0332,0220,0336,0225,0337,0331,0333,0337,",
    "01221:0333,0200,0336,0332,0221,0221,0333,0331,0331,0337,",
    "01222:0333,0200,0336,0332,0330,0332,0333,0336,0225,0337,0222,0333,0331,0331,0337,",
    "01223:0333,0200,0336,0330,0332,0336,0223,0336,0331,0337,0225,0336,0330,0337,0331,0333,0331,0331,0333,0337,0337,",
    "01224:0333,0200,0336,0332,0330,0224,0333,0331,0337,",
    "01225:0333,0200,0336,0336,0332,0332,0330,0337,0225,0304,0333,0331,0336,0330,0337,0337,",
    "01226:0333,0200,0336,0330,0332,0226,0333,0331,0330,",
    "01227:0333,0200,0336,0330,0332,0210,0227,0211,0331,0333,0337,",
    "01230:0333,0200,0336,0332,0336,0330,0337,0230,0336,0331,0337,0333,0337,",
    "01231:0333,0200,0336,0330,0332,0336,0331,0332,0336,0330,0337,0231,0331,0333,0336,0331,0337,0337,0337,",
    "01232:0333,0200,0336,0330,0332,0331,0336,0330,0337,0232,0336,0330,0337,0333,0337,0331,",
    "01233:0333,0200,0336,0332,0336,0330,0337,0233,0336,0330,0333,0333,0337,0337,0331,",
    "01234:0333,0200,0336,0330,0332,0336,0331,0337,0234,0336,0330,0336,0330,0337,0337,0333,0337,0331,",
    "01235:0333,0200,0336,0332,0336,0330,0337,0235,0336,0330,0337,0333,0337,0331,",
    "01236:0333,0200,0336,0330,0332,0336,0342,0335,0342,0335,0342,0335,0342,0335,0337,0236,0331,0333,0337,",
    "01237:0333,0200,0336,0330,0332,0336,0237,0313,0337,0304,0313,0331,0333,0337,",
    "01240:0333,0200,0336,0330,0332,0336,0331,0333,0337,0240,0240,0241,0241,0336,0331,0333,0337,0337,",
    "01241:0333,0200,0336,0330,0332,0336,0331,0333,0337,0240,0240,0241,0241,0336,0330,0332,0336,0334,0330,0337,0201,0336,0336,0306,0350,0335,0335,0335,0336,0362,0203,0334,0334,0334,0334,0337,0203,0334,0334,0334,0334,0203,0334,0334,0334,0334,0336,0203,0363,0313,0304,0337,0337,0332,0337,0337,0331,0337,0333,",
    "01242:0333,0200,0242,",
    "01243:0333,0200,0336,0330,0332,0243,0313,0304,0331,0333,0337,",
    "01244:0333,0200,0336,0330,0332,0336,0331,0337,0244,0313,0304,0336,0331,0337,0333,0337,",
    "01245:0333,0200,0336,0330,0332,0336,0331,0337,0245,0313,0304,0336,0331,0337,0333,0337,",
    "01246:0333,0200,0336,0330,0332,0336,0331,0246,0313,0331,0313,0304,0333,0333,0337,0337,",
    "01247:0247,0333,"
  ],
  "x0rel": 0.5,
  "y0rel": 0.5,
  "unitrel": 0.1,
  "theta0": -1.570796,
  "width": 500,
  "height": 500,
  "scale": 1,
  "backgroundimage": "",
  "style": {
    "color0": "black",
    "fill0": "black",
    "line0": 2,
    "color1": "black",
    "fill1": "black",
    "line1": 5,
    "color2": "red",
    "fill2": "red",
    "line2": 2,
    "color3": "#FF7900",
    "fill3": "#FF7900",
    "line3": 2,
    "color4": "yellow",
    "fill4": "yellow",
    "line4": 2,
    "color5": "green",
    "fill5": "green",
    "line5": 2,
    "color6": "blue",
    "fill6": "blue",
    "line6": 2,
    "color7": "purple",
    "fill7": "purple",
    "line7": 2
  },
  "controlbuttons": [
    196,
    197,
    198,
    232,
    233,
    200,
    201,
    202,
    203,
    204,
    208,
    209,
    210,
    211,
    212,
    213,
    214,
    215,
    216,
    217,
    218,
    219,
    220,
    221,
    222,
    223,
    225,
    227,
    129,
    128,
    146,
    149,
    147,
    145,
    150,
    154,
    155,
    157,
    159,
    164,
    165,
    16,
    8,
    17
  ]
}</json>-->	<path d = "M250 283 L250 150 L135 84 L135 217 L250 283 Z" stroke = "#ff0000" stroke-width = "2" fill = "#ff0000" />	<path d = "M250 283 L250 150 L365 84 L365 217 L250 283 Z" stroke = "#008000" stroke-width = "2" fill = "#008000" />	<path d = "M250 150 L135 84 L250 17 L365 84 L250 150 Z" stroke = "#0000ff" stroke-width = "2" fill = "#0000ff" />    <line x1="250" y1="150" x2="135" y2="84" style="stroke:#000000;stroke-width:2" />
    <line x1="135" y1="84" x2="250" y2="17" style="stroke:#000000;stroke-width:2" />
    <line x1="250" y1="17" x2="365" y2="84" style="stroke:#000000;stroke-width:2" />
    <line x1="365" y1="84" x2="250" y2="150" style="stroke:#000000;stroke-width:2" />
    <line x1="250" y1="150" x2="250" y2="283" style="stroke:#000000;stroke-width:2" />
    <line x1="250" y1="283" x2="135" y2="217" style="stroke:#000000;stroke-width:2" />
    <line x1="135" y1="217" x2="135" y2="84" style="stroke:#000000;stroke-width:2" />
    <line x1="250" y1="150" x2="365" y2="84" style="stroke:#000000;stroke-width:2" />
    <line x1="365" y1="84" x2="365" y2="217" style="stroke:#000000;stroke-width:2" />
    <line x1="365" y1="217" x2="250" y2="283" style="stroke:#000000;stroke-width:2" />
	<path d = "M135 483 L135 350 L19 283 L19 416 L135 483 Z" stroke = "#ff0000" stroke-width = "2" fill = "#ff0000" />	<path d = "M135 483 L135 350 L250 283 L250 416 L135 483 Z" stroke = "#008000" stroke-width = "2" fill = "#008000" />	<path d = "M135 350 L19 283 L135 217 L250 283 L135 350 Z" stroke = "#0000ff" stroke-width = "2" fill = "#0000ff" />    <line x1="135" y1="350" x2="19" y2="283" style="stroke:#000000;stroke-width:2" />
    <line x1="19" y1="283" x2="135" y2="217" style="stroke:#000000;stroke-width:2" />
    <line x1="135" y1="217" x2="250" y2="283" style="stroke:#000000;stroke-width:2" />
    <line x1="250" y1="283" x2="135" y2="350" style="stroke:#000000;stroke-width:2" />
    <line x1="135" y1="350" x2="135" y2="483" style="stroke:#000000;stroke-width:2" />
    <line x1="135" y1="483" x2="19" y2="416" style="stroke:#000000;stroke-width:2" />
    <line x1="19" y1="416" x2="19" y2="283" style="stroke:#000000;stroke-width:2" />
    <line x1="135" y1="350" x2="250" y2="283" style="stroke:#000000;stroke-width:2" />
    <line x1="250" y1="283" x2="250" y2="416" style="stroke:#000000;stroke-width:2" />
    <line x1="250" y1="416" x2="135" y2="483" style="stroke:#000000;stroke-width:2" />
	<path d = "M365 483 L365 350 L250 283 L250 416 L365 483 Z" stroke = "#ff0000" stroke-width = "2" fill = "#ff0000" />	<path d = "M365 483 L365 350 L481 283 L481 416 L365 483 Z" stroke = "#008000" stroke-width = "2" fill = "#008000" />	<path d = "M365 350 L250 283 L365 217 L481 283 L365 350 Z" stroke = "#0000ff" stroke-width = "2" fill = "#0000ff" />    <line x1="365" y1="350" x2="250" y2="283" style="stroke:#000000;stroke-width:2" />
    <line x1="250" y1="283" x2="365" y2="217" style="stroke:#000000;stroke-width:2" />
    <line x1="365" y1="217" x2="481" y2="283" style="stroke:#000000;stroke-width:2" />
    <line x1="481" y1="283" x2="365" y2="350" style="stroke:#000000;stroke-width:2" />
    <line x1="365" y1="350" x2="365" y2="483" style="stroke:#000000;stroke-width:2" />
    <line x1="365" y1="483" x2="250" y2="416" style="stroke:#000000;stroke-width:2" />
    <line x1="250" y1="416" x2="250" y2="283" style="stroke:#000000;stroke-width:2" />
    <line x1="365" y1="350" x2="481" y2="283" style="stroke:#000000;stroke-width:2" />
    <line x1="481" y1="283" x2="481" y2="416" style="stroke:#000000;stroke-width:2" />
    <line x1="481" y1="416" x2="365" y2="483" style="stroke:#000000;stroke-width:2" />
	<path d = "M250 416 L250 372 L212 350 L212 394 L250 416 Z" stroke = "#ff0000" stroke-width = "2" fill = "#ff0000" />	<path d = "M250 416 L250 372 L288 350 L288 394 L250 416 Z" stroke = "#008000" stroke-width = "2" fill = "#008000" />	<path d = "M250 372 L212 350 L250 328 L288 350 L250 372 Z" stroke = "#0000ff" stroke-width = "2" fill = "#0000ff" />    <line x1="250" y1="372" x2="212" y2="350" style="stroke:#000000;stroke-width:2" />
    <line x1="212" y1="350" x2="250" y2="328" style="stroke:#000000;stroke-width:2" />
    <line x1="250" y1="328" x2="288" y2="350" style="stroke:#000000;stroke-width:2" />
    <line x1="288" y1="350" x2="250" y2="372" style="stroke:#000000;stroke-width:2" />
    <line x1="250" y1="372" x2="250" y2="416" style="stroke:#000000;stroke-width:2" />
    <line x1="250" y1="416" x2="212" y2="394" style="stroke:#000000;stroke-width:2" />
    <line x1="212" y1="394" x2="212" y2="350" style="stroke:#000000;stroke-width:2" />
    <line x1="250" y1="372" x2="288" y2="350" style="stroke:#000000;stroke-width:2" />
    <line x1="288" y1="350" x2="288" y2="394" style="stroke:#000000;stroke-width:2" />
    <line x1="288" y1="394" x2="250" y2="416" style="stroke:#000000;stroke-width:2" />
	<path d = "M212 483 L212 439 L173 416 L173 461 L212 483 Z" stroke = "#ff0000" stroke-width = "2" fill = "#ff0000" />	<path d = "M212 483 L212 439 L250 416 L250 461 L212 483 Z" stroke = "#008000" stroke-width = "2" fill = "#008000" />	<path d = "M212 439 L173 416 L212 394 L250 416 L212 439 Z" stroke = "#0000ff" stroke-width = "2" fill = "#0000ff" />    <line x1="212" y1="439" x2="173" y2="416" style="stroke:#000000;stroke-width:2" />
    <line x1="173" y1="416" x2="212" y2="394" style="stroke:#000000;stroke-width:2" />
    <line x1="212" y1="394" x2="250" y2="416" style="stroke:#000000;stroke-width:2" />
    <line x1="250" y1="416" x2="212" y2="439" style="stroke:#000000;stroke-width:2" />
    <line x1="212" y1="439" x2="212" y2="483" style="stroke:#000000;stroke-width:2" />
    <line x1="212" y1="483" x2="173" y2="461" style="stroke:#000000;stroke-width:2" />
    <line x1="173" y1="461" x2="173" y2="416" style="stroke:#000000;stroke-width:2" />
    <line x1="212" y1="439" x2="250" y2="416" style="stroke:#000000;stroke-width:2" />
    <line x1="250" y1="416" x2="250" y2="461" style="stroke:#000000;stroke-width:2" />
    <line x1="250" y1="461" x2="212" y2="483" style="stroke:#000000;stroke-width:2" />
	<path d = "M288 483 L288 439 L250 416 L250 461 L288 483 Z" stroke = "#ff0000" stroke-width = "2" fill = "#ff0000" />	<path d = "M288 483 L288 439 L327 416 L327 461 L288 483 Z" stroke = "#008000" stroke-width = "2" fill = "#008000" />	<path d = "M288 439 L250 416 L288 394 L327 416 L288 439 Z" stroke = "#0000ff" stroke-width = "2" fill = "#0000ff" />    <line x1="288" y1="439" x2="250" y2="416" style="stroke:#000000;stroke-width:2" />
    <line x1="250" y1="416" x2="288" y2="394" style="stroke:#000000;stroke-width:2" />
    <line x1="288" y1="394" x2="327" y2="416" style="stroke:#000000;stroke-width:2" />
    <line x1="327" y1="416" x2="288" y2="439" style="stroke:#000000;stroke-width:2" />
    <line x1="288" y1="439" x2="288" y2="483" style="stroke:#000000;stroke-width:2" />
    <line x1="288" y1="483" x2="250" y2="461" style="stroke:#000000;stroke-width:2" />
    <line x1="250" y1="461" x2="250" y2="416" style="stroke:#000000;stroke-width:2" />
    <line x1="288" y1="439" x2="327" y2="416" style="stroke:#000000;stroke-width:2" />
    <line x1="327" y1="416" x2="327" y2="461" style="stroke:#000000;stroke-width:2" />
    <line x1="327" y1="461" x2="288" y2="483" style="stroke:#000000;stroke-width:2" />
	<path d = "M250 461 L250 446 L237 439 L237 453 L250 461 Z" stroke = "#ff0000" stroke-width = "2" fill = "#ff0000" />	<path d = "M250 461 L250 446 L263 439 L263 453 L250 461 Z" stroke = "#008000" stroke-width = "2" fill = "#008000" />	<path d = "M250 446 L237 439 L250 431 L263 439 L250 446 Z" stroke = "#0000ff" stroke-width = "2" fill = "#0000ff" />    <line x1="250" y1="446" x2="237" y2="439" style="stroke:#000000;stroke-width:2" />
    <line x1="237" y1="439" x2="250" y2="431" style="stroke:#000000;stroke-width:2" />
    <line x1="250" y1="431" x2="263" y2="439" style="stroke:#000000;stroke-width:2" />
    <line x1="263" y1="439" x2="250" y2="446" style="stroke:#000000;stroke-width:2" />
    <line x1="250" y1="446" x2="250" y2="461" style="stroke:#000000;stroke-width:2" />
    <line x1="250" y1="461" x2="237" y2="453" style="stroke:#000000;stroke-width:2" />
    <line x1="237" y1="453" x2="237" y2="439" style="stroke:#000000;stroke-width:2" />
    <line x1="250" y1="446" x2="263" y2="439" style="stroke:#000000;stroke-width:2" />
    <line x1="263" y1="439" x2="263" y2="453" style="stroke:#000000;stroke-width:2" />
    <line x1="263" y1="453" x2="250" y2="461" style="stroke:#000000;stroke-width:2" />
	<path d = "M237 483 L237 468 L224 461 L224 476 L237 483 Z" stroke = "#ff0000" stroke-width = "2" fill = "#ff0000" />	<path d = "M237 483 L237 468 L250 461 L250 476 L237 483 Z" stroke = "#008000" stroke-width = "2" fill = "#008000" />	<path d = "M237 468 L224 461 L237 453 L250 461 L237 468 Z" stroke = "#0000ff" stroke-width = "2" fill = "#0000ff" />    <line x1="237" y1="468" x2="224" y2="461" style="stroke:#000000;stroke-width:2" />
    <line x1="224" y1="461" x2="237" y2="453" style="stroke:#000000;stroke-width:2" />
    <line x1="237" y1="453" x2="250" y2="461" style="stroke:#000000;stroke-width:2" />
    <line x1="250" y1="461" x2="237" y2="468" style="stroke:#000000;stroke-width:2" />
    <line x1="237" y1="468" x2="237" y2="483" style="stroke:#000000;stroke-width:2" />
    <line x1="237" y1="483" x2="224" y2="476" style="stroke:#000000;stroke-width:2" />
    <line x1="224" y1="476" x2="224" y2="461" style="stroke:#000000;stroke-width:2" />
    <line x1="237" y1="468" x2="250" y2="461" style="stroke:#000000;stroke-width:2" />
    <line x1="250" y1="461" x2="250" y2="476" style="stroke:#000000;stroke-width:2" />
    <line x1="250" y1="476" x2="237" y2="483" style="stroke:#000000;stroke-width:2" />
	<path d = "M263 483 L263 468 L250 461 L250 476 L263 483 Z" stroke = "#ff0000" stroke-width = "2" fill = "#ff0000" />	<path d = "M263 483 L263 468 L276 461 L276 476 L263 483 Z" stroke = "#008000" stroke-width = "2" fill = "#008000" />	<path d = "M263 468 L250 461 L263 453 L276 461 L263 468 Z" stroke = "#0000ff" stroke-width = "2" fill = "#0000ff" />    <line x1="263" y1="468" x2="250" y2="461" style="stroke:#000000;stroke-width:2" />
    <line x1="250" y1="461" x2="263" y2="453" style="stroke:#000000;stroke-width:2" />
    <line x1="263" y1="453" x2="276" y2="461" style="stroke:#000000;stroke-width:2" />
    <line x1="276" y1="461" x2="263" y2="468" style="stroke:#000000;stroke-width:2" />
    <line x1="263" y1="468" x2="263" y2="483" style="stroke:#000000;stroke-width:2" />
    <line x1="263" y1="483" x2="250" y2="476" style="stroke:#000000;stroke-width:2" />
    <line x1="250" y1="476" x2="250" y2="461" style="stroke:#000000;stroke-width:2" />
    <line x1="263" y1="468" x2="276" y2="461" style="stroke:#000000;stroke-width:2" />
    <line x1="276" y1="461" x2="276" y2="476" style="stroke:#000000;stroke-width:2" />
    <line x1="276" y1="476" x2="263" y2="483" style="stroke:#000000;stroke-width:2" />
</svg>