<svg width="500" height="500" viewbox = "0 0 500 500"  xmlns="http://www.w3.org/2000/svg">
<!--<json>{
  "glyph": "0331,0331,0331,0337,0331,0331,0336,0336,0330,0331,0331,0337,0337,0337,0337,0221,0220,0220,0220,0220,0220,0220,0220,0220,0220,0220,0220,0220,0220,0220,",
  "shapes": [
    "0220:0306,0334,0325,0362,0203,0335,0203,0335,0203,0335,0203,0335,0203,0335,0203,0354,0335,0336,0330,0350,0335,0312,0337,0313,0306,0335,",
    "0221:0220,0220,0220,0220,0220,0220,0220,0220,0220,0220,0220,0220,0220,0220,0220,0220,",
    "0222:0306,0342,0335,0336,0336,0221,0332,0221,0332,0221,0332,0221,0334,0330,0221,0334,0334,0332,0335,0221,0335,0331,0331,0331,0334,0221,0333,0221,0333,0221,0335,0331,0331,0337,0337,",
    "0223:0334,0336,0362,0203,0335,0203,0203,0335,0203,0203,0335,0203,0203,0335,0203,0363,0335,0330,0330,0337,",
    "0224:0304,0313,0336,0336,0334,0310,0350,0362,0203,0335,0335,0203,0203,0334,0334,0203,0335,0335,0335,0337,0203,0203,0335,0335,0203,0203,0335,0335,0335,0336,0203,0334,0334,0203,0203,0335,0335,0203,0363,0304,0335,0313,0337,0337,",
    "0225:0313,0304,0201,0334,0336,0336,0336,0306,0362,0203,0335,0335,0337,0203,0335,0335,0203,0335,0335,0336,0203,0363,0304,0335,0337,0337,0337,0331,",
    "0226:0313,0304,0330,0335,0336,0366,0334,0334,0331,0332,0332,0367,0366,0335,0335,0331,0333,0333,0367,0334,0337,0330,",
    "0227:0336,0336,0341,0337,0337,0330,",
    "0230:0313,0304,0336,0330,0350,0310,0362,0203,0335,0335,0335,0336,0203,0335,0335,0203,0363,0335,0335,0335,0337,0313,0304,0331,0337,",
    "0231:0350,0310,0362,0203,0335,0335,0203,0335,0335,0335,0337,0203,0363,0324,0334,0334,0334,0336,0362,0203,0335,0334,0334,0337,0203,0334,0334,0334,0334,0335,0336,0203,0334,0337,0203,0363,0335,0320,0336,0331,0335,0335,0335,0337,0362,0203,0335,0335,0335,0336,0203,0335,0335,0203,0363,0331,0304,0335,0313,",
    "0232:0336,0336,0336,0336,0336,0362,0203,0337,0203,0306,0334,0337,0203,0335,0335,0203,0203,0334,0334,0203,0203,0335,0335,0203,0203,0334,0334,0203,0203,0335,0335,0203,0203,0334,0334,0203,0335,0203,0336,0336,0203,0304,0337,0337,0337,0337,0337,0364,",
    "0233:0336,0336,0362,0203,0336,0203,0334,0364,0337,0330,0335,0335,0337,0342,0336,0330,0332,0331,0337,0342,0336,0330,0334,0336,0362,0203,0337,0203,0335,0364,0335,0337,0337,0335,0335,",
    "0234:0336,0366,0330,0333,0333,0336,0331,0337,0367,0335,0335,0366,0331,0333,0333,0367,0335,0335,0337,",
    "0235:0313,0336,0314,0336,0313,0337,0234,0234,0234,0234,0314,0337,0313,",
    "0236:0336,0336,0336,0336,0347,0337,0337,0337,0337,",
    "0237:0246,0331,0332,0331,0246,0330,0333,0331,0331,0333,0246,0332,0330,",
    "0240:0304,0313,0200,0336,0332,0350,0335,0310,0337,0304,0313,",
    "0241:0350,0310,0336,0334,0304,0313,0333,0337,",
    "0242:0240,0240,0240,0240,0240,0240,0240,0240,0241,0241,0241,0241,0241,0241,0241,0241,",
    "0243:0306,0342,0334,0342,0334,0342,0334,0342,0334,0342,0334,0342,0330,0334,0334,0201,0334,0201,0334,0201,0334,0201,0334,0201,0334,0201,0334,0312,0350,0334,0337,0342,0334,0334,0201,0335,0335,0335,0335,0342,0336,0332,0335,0335,0337,0342,0335,0335,0201,0334,0334,0334,0334,0334,0335,0342,0336,0332,0335,0306,",
    "0244:0305,0322,0311,0350,0362,0203,0335,0203,0335,0335,0335,0335,0203,0335,0203,0363,0320,0335,0335,0335,0335,0362,0203,0335,0203,0335,0335,0335,0335,0203,0335,0203,0354,0335,0335,0335,0335,",
    "0245:0326,0305,0350,0311,0362,0203,0335,0335,0203,0335,0335,0335,0203,0335,0335,0203,0363,0320,0335,0335,0335,0362,0203,0335,0335,0203,0335,0335,0335,0203,0335,0335,0203,0354,0335,0335,0335,",
    "0246:0306,0322,0362,0203,0334,0203,0334,0334,0203,0334,0203,0334,0363,0334,0325,0362,0203,0335,0203,0335,0335,0203,0335,0203,0363,0335,0335,0330,0326,0334,0362,0203,0335,0335,0203,0335,0203,0335,0335,0203,0363,0320,0335,0201,0335,0335,0201,0335,0201,0335,0335,0201,0334,0201,0335,0335,0201,0335,0201,0335,0333,0201,0335,0335,0201,0335,0201,0335,0335,0330,0331,0314,",
    "0247:0330,0336,0336,0336,0331,01300,01301,01302,01303,01304,01305,01306,01307,0337,0337,0337,0332,0336,0336,0336,0331,01310,01311,01312,01313,01314,01315,01316,01317,0337,0337,0337,0332,0336,0336,0336,0331,01320,01321,01322,01323,01324,01325,01326,01327,0337,0337,0337,0332,0336,0336,0336,0331,01330,01331,01332,01333,01334,01335,01336,01337,0337,0337,0337,0332,0336,0336,0336,0331,01340,01341,01342,01343,01344,01345,01346,01347,0337,0337,0337,0332,0336,0336,0336,0331,01350,01351,01352,01353,01354,01355,01356,01357,0337,0337,0337,0332,0336,0336,0336,0331,01360,01361,01362,01363,01364,01365,01366,01367,0337,0337,0337,0332,0336,0336,0336,0331,01370,01371,01372,01373,01374,01375,01376,01377,0337,0337,0337,0332,",
    "01220:0333,0200,0336,0330,0332,0336,0220,0313,0304,0337,0331,0333,0337,",
    "01221:0333,0200,0336,0330,0332,0336,0331,0337,0221,0304,0313,0336,0331,0337,0333,0337,",
    "01222:0333,0200,0336,0332,0330,0332,0333,0336,0225,0337,0222,0333,0331,0331,0337,",
    "01223:0333,0200,0336,0330,0332,0336,0223,0336,0331,0337,0225,0336,0330,0337,0331,0333,0331,0331,0333,0337,0337,",
    "01224:0333,0200,0336,0332,0330,0224,0333,0331,0337,",
    "01225:0333,0200,0336,0336,0332,0332,0330,0337,0225,0304,0333,0331,0336,0330,0337,0337,",
    "01226:0333,0200,0336,0330,0332,0226,0333,0331,0330,",
    "01227:0333,0200,0336,0330,0332,0210,0227,0211,0331,0333,0337,",
    "01230:0333,0200,0336,0332,0336,0330,0337,0230,0336,0331,0337,0333,0337,",
    "01231:0333,0200,0336,0330,0332,0336,0331,0332,0336,0330,0337,0231,0331,0333,0336,0331,0337,0337,0337,",
    "01232:0333,0200,0336,0330,0332,0331,0336,0330,0337,0232,0336,0330,0337,0333,0337,0331,",
    "01233:0333,0200,0336,0332,0336,0330,0337,0233,0336,0330,0333,0333,0337,0337,0331,",
    "01234:0333,0200,0336,0330,0332,0336,0331,0337,0234,0336,0330,0336,0330,0337,0337,0333,0337,0331,",
    "01235:0333,0200,0336,0332,0336,0330,0337,0235,0336,0330,0337,0333,0337,0331,",
    "01236:0333,0200,0336,0330,0332,0336,0342,0335,0342,0335,0342,0335,0342,0335,0337,0236,0331,0333,0337,",
    "01237:0333,0200,0336,0330,0332,0336,0237,0313,0337,0304,0313,0331,0333,0337,",
    "01240:0333,0200,0336,0330,0332,0336,0331,0333,0337,0240,0240,0241,0241,0336,0331,0333,0337,0337,",
    "01241:0333,0200,0336,0330,0332,0336,0331,0333,0337,0240,0240,0241,0241,0336,0330,0332,0336,0334,0330,0337,0201,0336,0336,0306,0350,0335,0335,0335,0336,0362,0203,0334,0334,0334,0334,0337,0203,0334,0334,0334,0334,0203,0334,0334,0334,0334,0336,0203,0363,0313,0304,0337,0337,0332,0337,0337,0331,0337,0333,",
    "01242:0333,0200,0242,",
    "01243:0333,0200,0336,0330,0332,0243,0313,0304,0331,0333,0337,",
    "01244:0333,0200,0336,0330,0332,0336,0331,0337,0244,0313,0304,0336,0331,0337,0333,0337,",
    "01245:0333,0200,0336,0330,0332,0336,0331,0337,0245,0313,0304,0336,0331,0337,0333,0337,",
    "01246:0333,0200,0336,0330,0332,0336,0331,0246,0313,0331,0313,0304,0333,0333,0337,0337,",
    "01247:0247,0333,"
  ],
  "x0rel": 0.5,
  "y0rel": 0.5,
  "unitrel": 0.1,
  "theta0": -1.570796,
  "width": 500,
  "height": 500,
  "scale": 1,
  "backgroundimage": "",
  "style": {
    "color0": "black",
    "fill0": "black",
    "line0": 2,
    "color1": "black",
    "fill1": "black",
    "line1": 5,
    "color2": "red",
    "fill2": "red",
    "line2": 2,
    "color3": "#FF7900",
    "fill3": "#FF7900",
    "line3": 2,
    "color4": "yellow",
    "fill4": "yellow",
    "line4": 2,
    "color5": "green",
    "fill5": "green",
    "line5": 5,
    "color6": "blue",
    "fill6": "blue",
    "line6": 2,
    "color7": "purple",
    "fill7": "purple",
    "line7": 2
  },
  "controlbuttons": [
    196,
    197,
    198,
    232,
    233,
    200,
    201,
    202,
    203,
    204,
    208,
    209,
    210,
    211,
    212,
    213,
    214,
    215,
    216,
    217,
    218,
    219,
    220,
    221,
    222,
    223,
    225,
    227,
    129,
    128,
    146,
    149,
    147,
    145,
    150,
    154,
    155,
    157,
    159,
    164,
    165,
    16,
    8,
    17
  ]
}</json>-->	<path d = "M250 625 L-96 425 L-96 25 L250 -175 L596 25 L596 425 L250 625 Z" stroke = "#008000" stroke-width = "5" fill = "none" />	<path d = "M77 525 L-96 225 L77 -75 L423 -75 L596 225 L423 525 L77 525 Z" stroke = "#008000" stroke-width = "5" fill = "none" />	<path d = "M-10 375 L-10 75 L250 -75 L510 75 L510 375 L250 525 L-10 375 Z" stroke = "#008000" stroke-width = "5" fill = "none" />	<path d = "M-10 225 L120 0 L380 0 L510 225 L380 450 L120 450 L-10 225 Z" stroke = "#008000" stroke-width = "5" fill = "none" />	<path d = "M55 112 L250 0 L445 113 L445 338 L250 450 L55 337 L55 112 Z" stroke = "#008000" stroke-width = "5" fill = "none" />	<path d = "M153 56 L347 56 L445 225 L347 394 L153 394 L55 225 L153 56 Z" stroke = "#008000" stroke-width = "5" fill = "none" />	<path d = "M250 56 L396 141 L396 309 L250 394 L104 309 L104 141 L250 56 Z" stroke = "#008000" stroke-width = "5" fill = "none" />	<path d = "M323 98 L396 225 L323 352 L177 352 L104 225 L177 98 L323 98 Z" stroke = "#008000" stroke-width = "5" fill = "none" />	<path d = "M360 162 L360 288 L250 352 L140 288 L140 162 L250 98 L360 162 Z" stroke = "#008000" stroke-width = "5" fill = "none" />	<path d = "M360 225 L305 320 L195 320 L140 225 L195 130 L305 130 L360 225 Z" stroke = "#008000" stroke-width = "5" fill = "none" />	<path d = "M332 272 L250 320 L168 272 L168 178 L250 130 L332 178 L332 272 Z" stroke = "#008000" stroke-width = "5" fill = "none" />	<path d = "M291 296 L209 296 L168 225 L209 154 L291 154 L332 225 L291 296 Z" stroke = "#008000" stroke-width = "5" fill = "none" />	<path d = "M250 296 L188 261 L188 189 L250 154 L312 189 L312 261 L250 296 Z" stroke = "#008000" stroke-width = "5" fill = "none" />	<path d = "M219 278 L188 225 L219 172 L281 172 L312 225 L281 278 L219 278 Z" stroke = "#008000" stroke-width = "5" fill = "none" />	<path d = "M204 252 L204 198 L250 172 L296 198 L296 252 L250 278 L204 252 Z" stroke = "#008000" stroke-width = "5" fill = "none" />	<path d = "M204 225 L227 185 L273 185 L296 225 L273 265 L227 265 L204 225 Z" stroke = "#008000" stroke-width = "5" fill = "none" />	<path d = "M215 205 L250 185 L285 205 L285 245 L250 265 L215 245 L215 205 Z" stroke = "#008000" stroke-width = "5" fill = "none" />	<path d = "M233 195 L267 195 L285 225 L267 255 L233 255 L215 225 L233 195 Z" stroke = "#008000" stroke-width = "5" fill = "none" />	<path d = "M250 195 L276 210 L276 240 L250 255 L224 240 L224 210 L250 195 Z" stroke = "#008000" stroke-width = "5" fill = "none" />	<path d = "M263 202 L276 225 L263 248 L237 248 L224 225 L237 202 L263 202 Z" stroke = "#008000" stroke-width = "5" fill = "none" />	<path d = "M270 214 L270 236 L250 248 L230 236 L230 214 L250 202 L270 214 Z" stroke = "#008000" stroke-width = "5" fill = "none" />	<path d = "M270 225 L260 242 L240 242 L230 225 L240 208 L260 208 L270 225 Z" stroke = "#008000" stroke-width = "5" fill = "none" />	<path d = "M265 233 L250 242 L235 233 L235 217 L250 208 L265 217 L265 233 Z" stroke = "#008000" stroke-width = "5" fill = "none" />	<path d = "M257 238 L243 238 L235 225 L243 212 L257 212 L265 225 L257 238 Z" stroke = "#008000" stroke-width = "5" fill = "none" />	<path d = "M250 238 L239 231 L239 219 L250 212 L261 219 L261 231 L250 238 Z" stroke = "#008000" stroke-width = "5" fill = "none" />	<path d = "M245 235 L239 225 L245 215 L255 215 L261 225 L255 235 L245 235 Z" stroke = "#008000" stroke-width = "5" fill = "none" />	<path d = "M242 230 L242 220 L250 215 L258 220 L258 230 L250 235 L242 230 Z" stroke = "#008000" stroke-width = "5" fill = "none" />	<path d = "M242 225 L246 218 L254 218 L258 225 L254 232 L246 232 L242 225 Z" stroke = "#008000" stroke-width = "5" fill = "none" />	<path d = "M244 221 L250 218 L256 221 L256 229 L250 232 L244 229 L244 221 Z" stroke = "#008000" stroke-width = "5" fill = "none" />	<path d = "M247 220 L253 220 L256 225 L253 230 L247 230 L244 225 L247 220 Z" stroke = "#008000" stroke-width = "5" fill = "none" /></svg>