<svg width="800" height="200" viewbox = "0 0 800 200"  xmlns="http://www.w3.org/2000/svg">
<!--<json>{
  "glyph": "0333,0333,0333,0333,0336,0331,0333,0337,0211,0211,0211,0336,01015,0322,01101,0323,01102,0324,01103,0325,01104,0326,01105,0327,01106,0322,01107,0323,01110,0324,01111,0325,01112,0326,01113,",
  "shapes": [
    "0600:0332,0337,0341,0333,0341,0336,0332,0341,",
    "0601:0700,0702,0703,0700,0700,0700,0700,0700,",
    "0602:",
    "0603:",
    "0604:",
    "0605:",
    "0606:",
    "0607:",
    "0220:0330,0336,0336,0347,0337,0337,",
    "0221:0336,0336,0333,0337,0200,0330,0330,0336,0332,0337,0337,",
    "0222:0336,0336,0336,0347,0337,0337,0337,0330,",
    "0223:0334,0336,0362,0203,0335,0203,0203,0335,0203,0203,0335,0203,0203,0335,0203,0363,0335,0330,0330,0337,",
    "0224:0304,0313,0336,0336,0334,0310,0350,0362,0203,0335,0335,0203,0203,0334,0334,0203,0335,0335,0335,0337,0203,0203,0335,0335,0203,0203,0335,0335,0335,0336,0203,0334,0334,0203,0203,0335,0335,0203,0363,0304,0335,0313,0337,0337,",
    "0225:0306,0201,0334,0334,0201,0334,0334,0201,0334,0334,",
    "0226:0331,0332,0337,0101,0365,",
    "0227:0336,0336,0341,0337,0337,0330,",
    "0230:",
    "0231:",
    "0232:",
    "0233:",
    "0234:",
    "0235:",
    "0236:",
    "0237:",
    "0240:0334,0336,0336,0366,0337,0337,0333,0335,0335,0336,0336,0367,0334,0337,0337,",
    "0241:",
    "0242:",
    "0243:",
    "0244:",
    "0245:",
    "0246:",
    "0247:",
    "01220:0333,0200,0336,0332,0220,0333,0331,0337,",
    "01221:0333,0200,0336,0332,0221,0221,0333,0331,0331,0337,",
    "01222:0333,0200,0336,0332,0330,0332,0333,0222,0333,0331,0331,0337,",
    "01223:0333,0200,0336,0330,0332,0336,0223,0331,0333,0331,0331,0333,0337,0337,",
    "01224:0333,0200,0336,0332,0330,0224,0333,0331,0337,",
    "01225:0333,0200,0336,0336,0332,0332,0330,0337,0225,0304,0333,0331,0336,0330,0337,0337,",
    "01226:0333,0200,0336,0330,0332,0226,0333,0331,0330,",
    "01227:0333,0200,0336,0330,0332,0210,0227,0211,0331,0333,0337,",
    "01230:0333,0200,0336,0330,0332,0230,0331,0304,0333,0337,",
    "01231:0333,0200,0332,0336,0330,0333,0336,0336,0330,0332,0231,0333,0333,0331,0331,0331,0333,0333,0331,0331,0333,0337,0337,0337,0337,0336,",
    "01232:0333,0200,0336,0330,0332,0331,0232,0331,0331,0331,0333,0337,",
    "01233:0333,0200,0336,0332,0337,0336,0330,0332,0336,0331,0333,0337,0332,0233,0331,0336,0330,0337,0337,",
    "01234:0333,0200,0336,0330,0332,0332,0332,0336,0333,0337,0234,0333,0333,0333,0331,0336,0333,0331,0337,0337,0337,0210,0210,0337,0336,",
    "01235:0333,0200,0235,",
    "01236:0333,0200,0236,",
    "01237:0333,0200,0336,0330,0332,0332,0237,0331,0336,0332,0337,0337,",
    "01240:0333,0200,0336,0332,0336,0330,0337,0240,0333,0336,0330,0337,0337,0331,",
    "01241:0333,0200,0336,0332,0241,0333,0337,",
    "01242:0333,0200,0336,0332,0332,0336,0330,0330,0242,0336,0331,0331,0331,0331,0332,0337,0337,0337,",
    "01243:0333,0200,0336,0332,0332,0243,0337,",
    "01244:0333,0200,0332,0336,0330,0336,0336,0243,0243,0243,0243,0331,0331,0331,0331,0337,0337,0337,",
    "01245:0333,0200,0336,0332,0336,0331,0337,0245,0333,0336,0330,0337,0337,",
    "01246:0333,0200,0330,0332,0336,0331,0336,0332,0337,0246,0333,0333,0336,0333,0331,0331,0337,0337,",
    "01247:0333,0200,0336,0330,0332,0337,0247,0336,0333,0331,0337,"
  ],
  "x0rel": 0.5,
  "y0rel": 0.5,
  "unitrel": 0.1,
  "theta0": -1.570796,
  "width": 800,
  "height": 200,
  "scale": 1,
  "backgroundimage": "",
  "style": {
    "color0": "black",
    "fill0": "black",
    "line0": 2,
    "color1": "black",
    "fill1": "black",
    "line1": 5,
    "color2": "red",
    "fill2": "red",
    "line2": 2,
    "color3": "#FF7900",
    "fill3": "#FF7900",
    "line3": 2,
    "color4": "yellow",
    "fill4": "yellow",
    "line4": 2,
    "color5": "green",
    "fill5": "green",
    "line5": 2,
    "color6": "blue",
    "fill6": "blue",
    "line6": 2,
    "color7": "purple",
    "fill7": "purple",
    "line7": 2
  },
  "controlbuttons": [
    196,
    198,
    200,
    203,
    128,
    216,
    217,
    218,
    219,
    220,
    221,
    222,
    223,
    27,
    8,
    134,
    225,
    192,
    16,
    17,
    145,
    151,
    146
  ]
}</json>-->	<path d = "M716 85 L716 90 L717 92 L718 94 L719 96 L721 97 L723 98 L725 99 L726 100 L728 102 L730 103 L732 104 L733 106 L735 107 L737 108 L739 110 L740 111 L742 113 L743 114 L745 116 L746 117 L748 119 L748 121 L748 123 L748 126 L747 128 L746 130 L745 132 L744 133 L743 135 L742 137 L743 135 L743 133 L742 131 L741 129 L739 127 L738 126 L736 124 L735 123 L733 121 L732 120 L730 118 L728 117 L727 116 L725 114 L723 113 L721 112 L720 110 L718 109 L716 107 L715 106 L714 104 L712 102 L712 100 L711 98 L711 96 L712 94 L713 92 L714 90 L715 88 L716 86 Z" stroke = "#ff0000" stroke-width = "2" fill = "#ff0000" />	<path d = "M737 108 L739 104 L742 101 L738 99 L734 97 L734 96 L736 92 L738 88 L740 86 L741 88 L742 89 L744 90 L746 91 L749 91 L750 91 L746 99 L744 103 L741 106 L737 108 Z" stroke = "#ff0000" stroke-width = "2" fill = "#ff0000" />	<path d = "M717 110 L717 112 L716 114 L717 116 L717 118 L718 120 L720 122 L721 123 L723 124 L723 125 L721 129 L719 133 L718 135 L716 135 L714 136 L711 136 L709 137 L708 138 L709 136 L710 134 L711 132 L712 130 L711 128 L710 126 L709 124 L709 122 L709 120 L710 118 L711 116 L712 114 L713 112 L715 111 L716 109 Z" stroke = "#ff0000" stroke-width = "2" fill = "#ff0000" />	<path d = "M663 79 L665 81 L668 83 L671 84 L674 85 L677 85 L681 85 L684 85 L687 86 L690 88 L690 91 L691 95 L691 98 L691 101 L691 105 L691 108 L691 111 L691 115 L691 118 L691 121 L693 124 L695 124 L696 125 L692 130 L688 136 L685 135 L682 135 L678 135 L675 135 L672 135 L668 135 L665 135 L662 135 L658 135 L655 135 L652 135 L648 136 L647 136 L651 130 L655 125 L655 124 L668 124 L682 123 L683 123 L684 123 L684 120 L684 116 L684 113 L684 110 L683 106 L683 103 L683 100 L680 98 L677 97 L673 97 L670 97 L667 96 L664 96 L660 95 L657 93 L655 91 L654 90 L656 87 L658 85 L660 82 L662 79 L662 79 Z" stroke = "#ff7900" stroke-width = "2" fill = "#ff7900" />	<path d = "M608 91 L611 87 L614 83 L615 80 L616 80 L616 82 L617 85 L619 86 L620 88 L622 88 L622 89 L622 99 L622 109 L623 119 L623 124 L623 126 L623 127 L618 136 L618 136 L618 137 L617 127 L617 126 L617 124 L612 126 L607 128 L602 130 L600 131 L598 132 L596 134 L595 136 L595 134 L596 131 L597 129 L598 127 L600 125 L601 123 L603 121 L605 120 L608 119 L610 118 L613 118 L615 117 L616 115 L617 112 L617 109 L617 107 L617 104 L617 102 L615 100 L612 99 L610 98 L609 96 L608 94 L608 91 Z" stroke = "#ffff00" stroke-width = "2" fill = "#ffff00" />	<path d = "M530 77 L531 78 L532 79 L533 80 L535 80 L536 81 L538 82 L539 82 L541 82 L542 82 L543 83 L545 83 L546 83 L548 83 L549 83 L551 83 L552 83 L554 83 L555 83 L557 83 L558 83 L560 83 L561 83 L563 83 L564 84 L566 84 L567 85 L568 86 L568 87 L568 89 L568 90 L567 92 L566 93 L565 94 L564 95 L563 96 L562 97 L561 98 L560 100 L560 101 L560 102 L560 104 L560 105 L560 107 L560 108 L560 110 L561 111 L561 113 L561 114 L561 116 L561 117 L561 119 L561 120 L561 122 L561 123 L561 125 L560 126 L559 127 L558 128 L557 130 L556 131 L555 132 L555 133 L554 134 L553 136 L552 137 L551 138 L551 137 L551 135 L550 129 L550 123 L550 117 L550 111 L550 105 L551 102 L551 99 L552 97 L553 95 L550 95 L547 95 L544 95 L541 95 L538 95 L535 94 L532 94 L529 94 L526 93 L524 92 L521 90 L523 87 L525 85 L526 82 L528 80 L530 78 Z" stroke = "#008000" stroke-width = "2" fill = "#008000" />	<path d = "M471 81 L472 83 L475 84 L477 85 L480 85 L482 85 L485 86 L488 86 L490 86 L493 86 L496 86 L498 86 L501 86 L504 87 L506 88 L507 90 L507 93 L506 95 L505 98 L504 100 L504 101 L503 103 L503 104 L503 105 L503 107 L503 108 L504 109 L504 111 L504 112 L504 113 L504 114 L504 116 L504 117 L505 118 L505 120 L504 121 L504 122 L503 123 L502 124 L502 125 L501 126 L500 128 L499 129 L499 130 L498 131 L497 132 L496 133 L496 130 L496 128 L496 125 L496 122 L496 120 L495 117 L495 115 L495 112 L495 109 L495 107 L495 104 L495 101 L495 99 L495 98 L493 97 L492 97 L491 97 L489 97 L488 97 L487 97 L485 97 L484 97 L483 97 L482 97 L480 97 L479 97 L478 97 L476 97 L475 97 L474 97 L472 96 L471 96 L470 96 L468 96 L467 95 L466 95 L465 94 L464 93 L463 92 L462 91 L466 87 L469 83 L470 81 L470 81 Z" stroke = "#0000ff" stroke-width = "2" fill = "#0000ff" />	<path d = "M471 124 L471 119 L471 116 L471 114 L471 111 L471 109 L472 106 L472 103 L473 101 L471 103 L470 105 L468 107 L467 109 L465 111 L464 112 L464 112 L464 113 L464 114 L464 114 L464 117 L464 120 L464 122 L464 125 L464 128 L464 130 L464 133 L464 134 L465 132 L467 130 L468 128 L470 126 L471 125 Z" stroke = "#0000ff" stroke-width = "2" fill = "#0000ff" />	<path d = "M407 78 L407 79 L407 81 L407 82 L408 83 L409 84 L410 85 L411 86 L412 86 L417 87 L422 88 L428 88 L430 89 L433 89 L435 89 L438 89 L440 90 L443 91 L444 93 L444 95 L444 98 L443 100 L441 102 L441 105 L441 108 L441 110 L441 113 L441 115 L441 118 L441 121 L441 123 L441 126 L441 128 L439 130 L438 132 L436 134 L434 136 L432 138 L432 135 L432 132 L432 130 L432 127 L432 125 L432 122 L432 119 L432 117 L432 114 L432 112 L432 109 L432 106 L432 104 L432 101 L432 99 L430 99 L427 99 L424 99 L422 99 L419 99 L417 99 L414 99 L411 99 L409 99 L407 101 L407 104 L406 106 L406 109 L406 111 L406 114 L406 117 L406 119 L406 122 L406 124 L406 127 L405 129 L403 131 L401 133 L400 135 L398 137 L398 134 L398 132 L398 129 L397 127 L397 124 L397 121 L397 119 L397 116 L397 114 L397 111 L398 109 L399 106 L400 104 L402 102 L404 100 L402 98 L400 96 L399 94 L398 91 L399 89 L400 87 L402 85 L403 83 L405 80 L406 78 Z" stroke = "#800080" stroke-width = "2" fill = "#800080" />	<path d = "M353 77 L354 79 L356 81 L358 83 L361 83 L364 83 L366 83 L369 83 L372 83 L371 85 L369 87 L368 90 L367 92 L366 94 L365 95 L360 95 L359 100 L359 106 L359 111 L360 113 L360 116 L360 119 L360 121 L359 124 L358 126 L357 128 L355 131 L354 133 L353 135 L352 138 L351 139 L351 134 L351 128 L351 123 L351 118 L351 112 L352 107 L354 103 L357 98 L357 97 L358 95 L355 95 L352 96 L350 96 L347 97 L346 97 L346 92 L348 87 L350 82 L353 78 Z" stroke = "#ff0000" stroke-width = "2" fill = "#ff0000" />	<path d = "M291 80 L293 81 L295 83 L297 84 L299 84 L302 85 L303 85 L303 86 L303 87 L302 88 L302 89 L302 90 L302 92 L302 93 L301 94 L301 95 L301 100 L301 104 L301 109 L301 114 L301 118 L299 122 L297 126 L295 131 L292 135 L293 130 L292 125 L292 121 L292 116 L292 111 L293 107 L294 102 L295 100 L295 98 L295 96 L294 94 L291 94 L289 94 L287 93 L285 91 L285 90 L284 89 L287 86 L290 82 L291 80 Z" stroke = "#ff7900" stroke-width = "2" fill = "#ff7900" />	<path d = "M210 79 L211 82 L214 83 L216 85 L218 86 L220 87 L222 89 L221 91 L220 94 L220 96 L219 99 L218 102 L218 104 L218 107 L218 109 L218 112 L218 115 L218 117 L219 120 L220 122 L223 122 L226 122 L228 122 L231 122 L234 122 L236 122 L239 122 L242 122 L244 122 L247 122 L247 120 L247 117 L247 114 L247 112 L247 109 L247 106 L246 104 L244 102 L242 100 L240 98 L238 97 L235 97 L233 98 L231 100 L230 102 L228 104 L227 107 L226 109 L225 112 L224 114 L224 112 L223 109 L224 107 L226 104 L227 102 L228 100 L229 97 L231 95 L232 93 L234 91 L235 88 L237 86 L239 85 L241 83 L243 84 L246 85 L248 86 L250 88 L252 89 L254 91 L255 94 L255 96 L256 99 L256 102 L256 104 L256 107 L256 110 L255 112 L255 115 L254 117 L253 120 L251 122 L250 124 L249 126 L247 128 L246 131 L244 133 L243 134 L233 134 L222 134 L212 134 L210 134 L210 133 L210 131 L210 130 L210 127 L210 125 L210 122 L210 119 L210 117 L210 114 L210 113 L211 111 L211 110 L212 109 L213 108 L214 106 L215 103 L216 102 L216 101 L215 100 L210 98 L206 95 L205 94 L204 93 L205 92 L205 90 L206 89 L206 88 L207 87 L207 85 L207 84 L208 83 L208 81 L209 80 L209 79 Z" stroke = "#ffff00" stroke-width = "2" fill = "#ffff00" />	<path d = "M161 79 L161 83 L163 87 L166 90 L169 92 L172 95 L171 99 L171 103 L169 106 L168 110 L166 114 L164 117 L162 121 L163 117 L164 113 L164 109 L162 106 L159 103 L155 101 L153 98 L152 94 L152 90 L154 86 L156 83 L159 80 L160 78 Z" stroke = "#008000" stroke-width = "2" fill = "#008000" />	<path d = "M88 75 L90 78 L93 80 L96 81 L100 82 L103 82 L107 82 L110 82 L114 84 L117 86 L118 89 L120 92 L121 95 L122 99 L122 102 L122 106 L122 109 L122 113 L121 116 L120 120 L119 123 L117 126 L115 129 L113 132 L111 135 L110 136 L95 136 L88 136 L81 136 L78 136 L76 137 L79 130 L83 124 L84 123 L91 123 L98 123 L105 123 L112 123 L114 123 L114 119 L113 115 L113 112 L112 108 L111 105 L109 102 L107 99 L104 97 L101 96 L97 96 L94 96 L90 96 L87 95 L83 94 L81 91 L80 90 L79 89 L81 86 L83 83 L85 80 L87 77 L88 76 Z" stroke = "#0000ff" stroke-width = "2" fill = "#0000ff" /></svg>