<svg width="350" height="600" viewbox = "0 0 350 600"  xmlns="http://www.w3.org/2000/svg">
<!--<json>{
  "glyph": "0211,0330,0306,0335,0335,0221,0335,0335,0221,0335,0335,0221,0335,0335,0221,0335,0335,0221,0335,0335,0221,0335,0335,0335,0222,0335,0335,0335,0335,0222,0335,0335,0335,0335,0222,0334,0335,0335,0335,0335,0335,0335,0223,0334,0334,0334,0334,0330,0335,0335,0335,0335,0335,0335,0335,0335,0223,0335,0335,0331,0335,0335,0223,0334,0334,0220,0331,0220,0330,0334,0334,0330,0220,0335,0335,0335,0335,0331,0334,0334,0220,0331,0220,0334,0334,0331,0220,0335,0335,0330,0220,0331,0331,0331,0322,0221,0335,0335,0221,0331,0334,0334,0334,0334,0221,0331,0220,0335,0335,0330,0330,0330,0330,0335,0335,0335,0335,0335,0335,0335,0335,0221,0331,0334,0334,0334,0334,0221,0331,0334,0334,0334,0334,0221,0331,0220,0330,0330,",
  "shapes": [
    "0220:0313,0321,0336,0336,0336,0347,0337,0337,0337,0306,0350,",
    "0221:0321,0313,0304,0334,0336,0336,0336,0336,0362,0203,0335,0337,0337,0337,0337,0203,0335,0336,0336,0336,0203,0335,0337,0337,0203,0203,0335,0336,0336,0336,0203,0363,0335,0337,0337,0337,0337,0330,0306,0350,",
    "0222:0304,0313,0321,0336,0336,0336,0336,0334,0362,0203,0335,0337,0337,0337,0337,0203,0336,0203,0336,0203,0335,0336,0203,0335,0337,0337,0337,0203,0336,0203,0336,0203,0335,0336,0336,0203,0363,0335,0337,0337,0337,0337,0312,0320,0337,0330,0306,0336,0313,0350,",
    "0223:0321,0313,0304,0334,0336,0336,0336,0336,0362,0203,0335,0337,0337,0337,0337,0203,0203,0335,0336,0336,0336,0203,0335,0337,0337,0203,0203,0203,0203,0335,0336,0336,0336,0203,0363,0335,0337,0337,0337,0337,0330,0306,0330,0350,",
    "0224:0304,0313,0336,0336,0334,0310,0350,0362,0203,0335,0335,0203,0203,0334,0334,0203,0335,0335,0335,0337,0203,0203,0335,0335,0203,0203,0335,0335,0335,0336,0203,0334,0334,0203,0203,0335,0335,0203,0363,0304,0335,0313,0337,0337,",
    "0225:0313,0321,0336,0336,0347,0337,0337,0306,0350,",
    "0226:",
    "0227:0336,0336,0341,0337,0337,0330,",
    "0230:0313,0304,0220,0304,0336,0336,0336,0336,0331,0333,0337,01015,",
    "0231:0304,0313,0336,0330,0333,0337,0337,0337,0306,0350,",
    "0232:0337,0337,0230,01015,0320,01101,0231,",
    "0233:",
    "0234:",
    "0235:",
    "0236:",
    "0237:",
    "0240:0330,0331,",
    "0241:",
    "0242:",
    "0243:",
    "0244:",
    "0245:",
    "0246:",
    "0247:",
    "01220:0333,0200,0336,0330,0332,0220,0313,0304,0320,0333,0331,0337,",
    "01221:0333,0200,0336,0330,0332,0336,0331,0337,0221,0331,0320,0313,0304,0336,0333,0333,0331,0337,0337,",
    "01222:0333,0200,0336,0330,0332,0336,0331,0336,0331,0337,0337,0222,0312,0337,0331,0336,0313,0304,0336,0333,0333,0336,0331,0337,0337,0337,",
    "01223:0333,0200,0336,0330,0332,0336,0331,0221,0221,0331,0331,0313,0304,0320,0333,0333,0331,0337,0337,",
    "01224:0333,0200,0336,0332,0330,0224,0333,0331,0337,",
    "01225:0333,0200,0336,0330,0332,0225,0304,0313,0320,0333,0331,0337,",
    "01226:0333,0200,0336,0330,0332,0226,0333,0331,0330,",
    "01227:0333,0200,0336,0330,0332,0210,0227,0211,0331,0333,0337,",
    "01230:0333,0200,0336,0330,0332,0220,0304,0336,0332,0335,0336,0366,0335,0335,0331,0333,0333,0367,0332,0332,0335,0335,0331,0366,0334,0334,0331,0332,0332,0367,0335,0320,0333,0331,0331,0337,0337,0333,0337,",
    "01231:0333,0200,0336,0330,0332,0220,0304,0336,0333,0334,0336,0366,0335,0335,0331,0332,0332,0367,0333,0333,0334,0334,0331,0366,0335,0335,0331,0333,0333,0367,0334,0320,0337,0333,0336,0333,0331,0331,0337,0337,0337,",
    "01232:0333,0200,0336,0330,0332,0232,0313,0304,0336,0331,0333,0337,0320,",
    "01233:0333,0200,0336,0332,0337,0336,0330,0332,0336,0331,0333,0337,0332,0233,0331,0336,0330,0337,0337,",
    "01234:0333,0200,0336,0330,0332,0332,0332,0336,0333,0337,0234,0333,0333,0333,0331,0336,0333,0331,0337,0337,0337,0210,0210,0337,0336,",
    "01235:0333,0200,0235,",
    "01236:0333,0200,0236,",
    "01237:0333,0200,0336,0330,0332,0332,0237,0331,0336,0332,0337,0337,",
    "01240:0333,",
    "01241:0333,0200,0336,0332,0241,0333,0337,",
    "01242:0333,0200,0336,0332,0332,0336,0330,0330,0242,0336,0331,0331,0331,0331,0332,0337,0337,0337,",
    "01243:0333,0200,0336,0332,0332,0243,0337,",
    "01244:0333,0200,0332,0336,0330,0336,0336,0243,0243,0243,0243,0331,0331,0331,0331,0337,0337,0337,",
    "01245:0333,0200,0336,0332,0336,0331,0337,0245,0333,0336,0330,0337,0337,",
    "01246:0333,0200,0330,0332,0336,0331,0336,0332,0337,0246,0333,0333,0336,0333,0331,0331,0337,0337,",
    "01247:0333,0200,0336,0330,0332,0337,0247,0336,0333,0331,0337,"
  ],
  "x0rel": 0.5,
  "y0rel": 0.5,
  "unitrel": 0.25,
  "theta0": -1.570796,
  "width": 350,
  "height": 600,
  "scale": 1,
  "backgroundimage": "",
  "style": {
    "color0": "black",
    "fill0": "black",
    "line0": 2,
    "color1": "black",
    "fill1": "white",
    "line1": 4,
    "color2": "red",
    "fill2": "red",
    "line2": 2,
    "color3": "#FF7900",
    "fill3": "#FF7900",
    "line3": 2,
    "color4": "yellow",
    "fill4": "yellow",
    "line4": 2,
    "color5": "green",
    "fill5": "green",
    "line5": 2,
    "color6": "blue",
    "fill6": "blue",
    "line6": 2,
    "color7": "purple",
    "fill7": "purple",
    "line7": 2
  },
  "controlbuttons": [
    196,
    198,
    200,
    203,
    128,
    216,
    217,
    218,
    219,
    220,
    221,
    222,
    223,
    27,
    8,
    134,
    225,
    192,
    16,
    17,
    145,
    151,
    146
  ]
}</json>-->	<path d = "M175 200 L178 194 L265 245 L259 255 L215 230 L172 205 L175 200 Z" stroke = "#000000" stroke-width = "4" fill = "#ffffff" />	<path d = "M262 250 L268 250 L268 350 L255 350 L255 300 L255 250 L262 250 Z" stroke = "#000000" stroke-width = "4" fill = "#ffffff" />	<path d = "M262 350 L265 355 L178 406 L172 395 L215 370 L259 345 L262 350 Z" stroke = "#000000" stroke-width = "4" fill = "#ffffff" />	<path d = "M175 400 L172 406 L85 355 L91 345 L135 370 L178 395 L175 400 Z" stroke = "#000000" stroke-width = "4" fill = "#ffffff" />	<path d = "M88 350 L82 350 L82 250 L95 250 L95 300 L95 350 L88 350 Z" stroke = "#000000" stroke-width = "4" fill = "#ffffff" />	<path d = "M88 250 L85 245 L172 194 L178 205 L135 230 L91 255 L88 250 Z" stroke = "#000000" stroke-width = "4" fill = "#ffffff" />	<path d = "M175 200 L180 197 L230 283 L256 327 L268 348 L257 355 L207 268 L182 225 L170 203 L175 200 Z" stroke = "#000000" stroke-width = "4" fill = "#ffffff" />	<path d = "M262 350 L262 356 L162 356 L112 356 L87 356 L87 344 L187 344 L237 344 L262 344 L262 350 Z" stroke = "#000000" stroke-width = "4" fill = "#ffffff" />	<path d = "M88 350 L83 347 L133 260 L158 217 L170 195 L181 201 L131 288 L106 332 L94 353 L88 350 Z" stroke = "#000000" stroke-width = "4" fill = "#ffffff" />	<path d = "M175 200 L181 200 L181 300 L181 400 L169 400 L169 350 L169 300 L169 250 L169 200 L175 200 Z" stroke = "#000000" stroke-width = "4" fill = "#ffffff" />	<path d = "M262 350 L259 355 L172 305 L85 255 L91 245 L135 270 L178 295 L221 320 L265 345 L262 350 Z" stroke = "#000000" stroke-width = "4" fill = "#ffffff" />	<path d = "M88 350 L85 345 L172 295 L259 245 L265 255 L221 280 L178 305 L135 330 L91 355 L88 350 Z" stroke = "#000000" stroke-width = "4" fill = "#ffffff" />    <circle cx="262" cy = "250" r = "12.513843186636844" stroke = "#000000" stroke-width = "4" fill = "#ffffff" />
    <circle cx="262" cy = "350" r = "12.513843186636844" stroke = "#000000" stroke-width = "4" fill = "#ffffff" />
    <circle cx="175" cy = "200" r = "12.513843186636844" stroke = "#000000" stroke-width = "4" fill = "#ffffff" />
    <circle cx="88" cy = "250" r = "12.513843186636844" stroke = "#000000" stroke-width = "4" fill = "#ffffff" />
    <circle cx="88" cy = "350" r = "12.513843186636844" stroke = "#000000" stroke-width = "4" fill = "#ffffff" />
    <circle cx="175" cy = "400" r = "12.513843186636844" stroke = "#000000" stroke-width = "4" fill = "#ffffff" />
    <circle cx="175" cy = "300" r = "12.513843186636844" stroke = "#000000" stroke-width = "4" fill = "#ffffff" />
	<path d = "M175 600 L169 600 L169 500 L181 500 L181 550 L181 600 L175 600 Z" stroke = "#000000" stroke-width = "4" fill = "#ffffff" />	<path d = "M175 500 L172 495 L259 445 L265 456 L221 481 L178 506 L175 500 Z" stroke = "#000000" stroke-width = "4" fill = "#ffffff" />	<path d = "M175 500 L172 506 L85 456 L91 445 L135 470 L178 495 L175 500 Z" stroke = "#000000" stroke-width = "4" fill = "#ffffff" />    <circle cx="175" cy = "500" r = "12.513843186636844" stroke = "#000000" stroke-width = "4" fill = "#ffffff" />
	<path d = "M175 100 L178 105 L91 155 L85 144 L129 119 L172 94 L175 100 Z" stroke = "#000000" stroke-width = "4" fill = "#ffffff" />	<path d = "M175 100 L178 94 L265 144 L259 155 L215 130 L172 105 L175 100 Z" stroke = "#000000" stroke-width = "4" fill = "#ffffff" />	<path d = "M175 100 L169 100 L169 0 L181 0 L181 50 L181 100 L175 100 Z" stroke = "#000000" stroke-width = "4" fill = "#ffffff" />    <circle cx="175" cy = "100" r = "12.513843186636844" stroke = "#000000" stroke-width = "4" fill = "#ffffff" />
</svg>