<svg width="500" height="500" viewbox = "0 0 500 500"  xmlns="http://www.w3.org/2000/svg">
<!--<json>{
  "glyph": "0331,0211,0177,0177,0214,0214,0334,0331,0331,0331,0331,0332,0332,0332,0337,0337,0337,0227,0312,0337,0227,0337,0227,0312,0337,0227,0300,0336,0330,0332,0330,0336,0331,0332,0337,01306,01350,01312,",
  "shapes": [
    "0220:0200,0336,0330,0332,0342,0335,0342,0335,0342,0335,0342,0335,0336,0331,0333,0342,0335,0342,0335,0342,0335,0342,0335,0336,0333,0331,0342,0335,0342,0335,0342,0335,0342,0335,0342,0336,0331,0333,0342,0335,0342,0335,0342,0335,0342,0335,0342,0336,0331,0333,0342,0335,0342,0335,0342,0335,0342,0335,0331,0333,0337,0337,0337,0337,0337,",
    "0221:0327,0204,0326,0336,0330,0204,0331,0332,0204,0320,0200,0330,0333,0200,0331,0337,0200,0336,",
    "0222:0221,0221,0221,0221,0221,0337,0337,0337,0337,0337,",
    "0223:0326,0304,0350,0310,0362,0203,0335,0335,0335,0337,0203,0335,0335,0335,0336,0203,0363,0335,0335,0335,0327,0336,0362,0203,0335,0335,0203,0335,0335,0335,0337,0203,0363,0335,0335,0320,0362,0203,0335,0335,0335,0337,0203,0335,0335,0335,0336,0203,0354,0335,0335,0335,0336,0342,0334,0334,0335,0336,0304,0336,0337,0333,",
    "0224:0331,0332,0337,0223,0223,0223,0223,0304,0333,0337,0337,0337,0337,0337,0337,0337,0337,0332,0336,0336,0333,0330,0313,",
    "0225:0312,0306,0350,0335,0335,0335,0335,0335,0362,0203,0335,0335,0335,0335,0203,0335,0335,0335,0335,0203,0354,0334,0335,0336,0336,0331,0335,0336,0201,0335,0335,0201,0335,0337,0330,0335,0336,0201,0335,0335,0201,0335,0337,0330,0335,0336,0201,0335,0335,0201,0335,0335,0335,0335,0201,0335,0335,0201,0331,0334,0334,0334,0334,0201,0335,0335,0335,0335,0201,0335,0335,0342,0334,0334,0334,0334,0342,0334,0334,0334,0332,0335,0335,0335,0201,0335,0335,0342,0334,0334,0334,0334,0201,0334,0334,0334,0334,0201,0334,0334,0342,0330,0335,0335,0201,0334,0334,0342,0335,0335,0335,0335,0201,0335,0335,0335,0335,0201,0335,0335,0342,0334,0334,0334,0334,0201,0335,0335,0335,0335,0342,0335,0335,0330,0334,0334,0330,0335,0335,0330,0335,0335,0330,0335,0335,",
    "0226:0337,0330,0337,0225,0312,0337,0225,0312,0337,0225,",
    "0227:0306,0362,0203,0335,0335,0203,0335,0335,0203,0354,0335,0335,0312,0335,0336,0336,0330,0334,0334,0350,0334,0336,0201,0335,0335,0201,0335,0337,0330,0335,0336,0201,0335,0335,0201,0335,0337,0330,0335,0336,0201,0335,0335,0201,0335,0337,0330,0335,0335,0335,0336,0322,0362,0203,0334,0334,0203,0334,0334,0334,0334,0203,0334,0334,0203,0363,0334,0334,0334,0326,0334,0362,0203,0335,0335,0203,0335,0335,0335,0335,0203,0335,0335,0203,0363,0335,0335,0335,0335,0330,0325,0334,0334,0362,0203,0335,0335,0335,0335,0203,0335,0335,0203,0335,0335,0335,0335,0203,0363,0320,0334,0334,0342,0334,0334,0334,0334,0342,0335,0335,0331,0342,0335,0335,0362,0203,0334,0334,0203,0334,0334,0203,0334,0334,0203,0334,0334,0203,0334,0334,0203,0354,0331,0335,0335,0335,0335,0201,0335,0335,0335,0335,0201,0334,0334,0201,0331,0335,0335,0335,0335,0201,0334,0334,0334,0334,0201,0334,0334,0201,0335,0335,0335,0335,0335,0333,0334,0342,0335,0335,0335,0333,0334,0334,0334,0201,0334,0334,0342,0335,0335,0335,0335,0201,0335,0335,0335,0335,0201,0335,0335,0330,0330,0334,0334,0330,0335,0335,0335,0306,",
    "0230:0313,0304,0336,0330,0350,0310,0362,0203,0335,0335,0335,0336,0203,0335,0335,0203,0363,0335,0335,0335,0337,0313,0304,0331,0337,",
    "0231:0350,0310,0362,0203,0335,0335,0203,0335,0335,0335,0337,0203,0363,0324,0334,0334,0334,0336,0362,0203,0335,0334,0334,0337,0203,0334,0334,0334,0334,0335,0336,0203,0334,0337,0203,0363,0335,0320,0336,0331,0335,0335,0335,0337,0362,0203,0335,0335,0335,0336,0203,0335,0335,0203,0363,0331,0304,0335,0313,",
    "0232:0336,0336,0336,0336,0336,0362,0203,0337,0203,0306,0334,0337,0203,0335,0335,0203,0203,0334,0334,0203,0203,0335,0335,0203,0203,0334,0334,0203,0203,0335,0335,0203,0203,0334,0334,0203,0335,0203,0336,0336,0203,0304,0337,0337,0337,0337,0337,0364,",
    "0233:0336,0336,0362,0203,0336,0203,0334,0364,0337,0330,0335,0335,0337,0342,0336,0330,0332,0331,0337,0342,0336,0330,0334,0336,0362,0203,0337,0203,0335,0364,0335,0337,0337,0335,0335,",
    "0234:0336,0366,0330,0333,0333,0336,0331,0337,0367,0335,0335,0366,0331,0333,0333,0367,0335,0335,0337,",
    "0235:0313,0336,0314,0336,0313,0337,0234,0234,0234,0234,0314,0337,0313,",
    "0236:0336,0336,0336,0336,0347,0337,0337,0337,0337,",
    "0237:0246,0331,0332,0331,0246,0330,0333,0331,0331,0333,0246,0332,0330,",
    "0240:0304,0313,0200,0336,0332,0350,0335,0310,0337,0304,0313,",
    "0241:0350,0310,0336,0334,0304,0313,0333,0337,",
    "0242:0240,0240,0240,0240,0240,0240,0240,0240,0241,0241,0241,0241,0241,0241,0241,0241,",
    "0243:0306,0342,0334,0342,0334,0342,0334,0342,0334,0342,0334,0342,0330,0334,0334,0201,0334,0201,0334,0201,0334,0201,0334,0201,0334,0201,0334,0312,0350,0334,0337,0342,0334,0334,0201,0335,0335,0335,0335,0342,0336,0332,0335,0335,0337,0342,0335,0335,0201,0334,0334,0334,0334,0334,0335,0342,0336,0332,0335,0306,",
    "0244:0305,0322,0311,0350,0362,0203,0335,0203,0335,0335,0335,0335,0203,0335,0203,0363,0320,0335,0335,0335,0335,0362,0203,0335,0203,0335,0335,0335,0335,0203,0335,0203,0354,0335,0335,0335,0335,",
    "0245:0326,0305,0350,0311,0362,0203,0335,0335,0203,0335,0335,0335,0203,0335,0335,0203,0363,0320,0335,0335,0335,0362,0203,0335,0335,0203,0335,0335,0335,0203,0335,0335,0203,0354,0335,0335,0335,",
    "0246:0306,0322,0362,0203,0334,0203,0334,0334,0203,0334,0203,0334,0363,0334,0325,0362,0203,0335,0203,0335,0335,0203,0335,0203,0363,0335,0335,0330,0326,0334,0362,0203,0335,0335,0203,0335,0203,0335,0335,0203,0363,0320,0335,0201,0335,0335,0201,0335,0201,0335,0335,0201,0334,0201,0335,0335,0201,0335,0201,0335,0333,0201,0335,0335,0201,0335,0201,0335,0335,0330,0331,0314,",
    "0247:0330,0336,0336,0336,0331,01300,01301,01302,01303,01304,01305,01306,01307,0337,0337,0337,0332,0336,0336,0336,0331,01310,01311,01312,01313,01314,01315,01316,01317,0337,0337,0337,0332,0336,0336,0336,0331,01320,01321,01322,01323,01324,01325,01326,01327,0337,0337,0337,0332,0336,0336,0336,0331,01330,01331,01332,01333,01334,01335,01336,01337,0337,0337,0337,0332,0336,0336,0336,0331,01340,01341,01342,01343,01344,01345,01346,01347,0337,0337,0337,0332,0336,0336,0336,0331,01350,01351,01352,01353,01354,01355,01356,01357,0337,0337,0337,0332,0336,0336,0336,0331,01360,01361,01362,01363,01364,01365,01366,01367,0337,0337,0337,0332,0336,0336,0336,0331,01370,01371,01372,01373,01374,01375,01376,01377,0337,0337,0337,0332,",
    "01220:0333,0200,0336,0332,0220,0336,0225,0337,0331,0333,0337,",
    "01221:0333,0200,0336,0332,0221,0221,0333,0331,0331,0337,",
    "01222:0333,0200,0336,0332,0330,0332,0333,0336,0225,0337,0222,0333,0331,0331,0337,",
    "01223:0333,0200,0336,0330,0332,0336,0223,0336,0331,0337,0225,0336,0330,0337,0331,0333,0331,0331,0333,0337,0337,",
    "01224:0333,0200,0336,0332,0330,0224,0333,0331,0337,",
    "01225:0333,0200,0336,0336,0332,0332,0330,0337,0225,0304,0333,0331,0336,0330,0337,0337,",
    "01226:0333,0200,0336,0330,0332,0226,0333,0331,0330,",
    "01227:0333,0200,0336,0330,0332,0336,0331,0337,0227,0337,0330,0335,0335,0335,0337,0337,0330,0334,0334,0334,0313,0304,0336,0331,0337,0333,0337,",
    "01230:0333,0200,0336,0332,0336,0330,0337,0230,0336,0331,0337,0333,0337,",
    "01231:0333,0200,0336,0330,0332,0336,0331,0332,0336,0330,0337,0231,0331,0333,0336,0331,0337,0337,0337,",
    "01232:0333,0200,0336,0330,0332,0331,0336,0330,0337,0232,0336,0330,0337,0333,0337,0331,",
    "01233:0333,0200,0336,0332,0336,0330,0337,0233,0336,0330,0333,0333,0337,0337,0331,",
    "01234:0333,0200,0336,0330,0332,0336,0331,0337,0234,0336,0330,0336,0330,0337,0337,0333,0337,0331,",
    "01235:0333,0200,0336,0332,0336,0330,0337,0235,0336,0330,0337,0333,0337,0331,",
    "01236:0333,0200,0336,0330,0332,0336,0342,0335,0342,0335,0342,0335,0342,0335,0337,0236,0331,0333,0337,",
    "01237:0333,0200,0336,0330,0332,0336,0237,0313,0337,0304,0313,0331,0333,0337,",
    "01240:0333,0200,0336,0330,0332,0336,0331,0333,0337,0240,0240,0241,0241,0336,0331,0333,0337,0337,",
    "01241:0333,0200,0336,0330,0332,0336,0331,0333,0337,0240,0240,0241,0241,0336,0330,0332,0336,0334,0330,0337,0201,0336,0336,0306,0350,0335,0335,0335,0336,0362,0203,0334,0334,0334,0334,0337,0203,0334,0334,0334,0334,0203,0334,0334,0334,0334,0336,0203,0363,0313,0304,0337,0337,0332,0337,0337,0331,0337,0333,",
    "01242:0333,0200,0242,",
    "01243:0333,0200,0336,0330,0332,0243,0313,0304,0331,0333,0337,",
    "01244:0333,0200,0336,0330,0332,0336,0331,0337,0244,0313,0304,0336,0331,0337,0333,0337,",
    "01245:0333,0200,0336,0330,0332,0336,0331,0337,0245,0313,0304,0336,0331,0337,0333,0337,",
    "01246:0333,0200,0336,0330,0332,0336,0331,0246,0313,0331,0313,0304,0333,0333,0337,0337,",
    "01247:0247,0333,"
  ],
  "x0rel": 0.5,
  "y0rel": 0.5,
  "unitrel": 0.1,
  "theta0": -1.570796,
  "width": 500,
  "height": 500,
  "scale": 1,
  "backgroundimage": "",
  "style": {
    "color0": "black",
    "fill0": "black",
    "line0": 2,
    "color1": "black",
    "fill1": "black",
    "line1": 5,
    "color2": "red",
    "fill2": "red",
    "line2": 2,
    "color3": "#FF7900",
    "fill3": "#FF7900",
    "line3": 2,
    "color4": "yellow",
    "fill4": "yellow",
    "line4": 2,
    "color5": "green",
    "fill5": "green",
    "line5": 2,
    "color6": "blue",
    "fill6": "blue",
    "line6": 2,
    "color7": "purple",
    "fill7": "purple",
    "line7": 2
  },
  "controlbuttons": [
    196,
    197,
    198,
    232,
    233,
    200,
    201,
    202,
    203,
    204,
    208,
    209,
    210,
    211,
    212,
    213,
    214,
    215,
    216,
    217,
    218,
    219,
    220,
    221,
    222,
    223,
    225,
    227,
    129,
    128,
    146,
    149,
    147,
    145,
    150,
    154,
    155,
    157,
    159,
    164,
    165,
    16,
    8,
    17
  ]
}</json>-->	<path d = "M490 480 L10 480 L250 64 L490 480 Z" stroke = "#000000" stroke-width = "2" fill = "none" />    <line x1="410" y1="341" x2="410" y2="434" style="stroke:#000000;stroke-width:2" />
    <line x1="410" y1="434" x2="330" y2="480" style="stroke:#000000;stroke-width:2" />
    <line x1="170" y1="480" x2="90" y2="434" style="stroke:#000000;stroke-width:2" />
    <line x1="90" y1="434" x2="90" y2="341" style="stroke:#000000;stroke-width:2" />
    <line x1="170" y1="203" x2="250" y2="157" style="stroke:#000000;stroke-width:2" />
    <line x1="250" y1="157" x2="330" y2="203" style="stroke:#000000;stroke-width:2" />
	<path d = "M410 341 L330 388 L330 480 L410 434 L410 341 Z" stroke = "#ff0000" stroke-width = "2" fill = "#ff0000" />	<path d = "M410 341 L330 388 L250 341 L330 295 L410 341 Z" stroke = "#0000ff" stroke-width = "2" fill = "#0000ff" />	<path d = "M330 388 L330 480 L250 434 L250 341 L330 388 Z" stroke = "#008000" stroke-width = "2" fill = "#008000" />    <line x1="330" y1="388" x2="410" y2="341" style="stroke:#000000;stroke-width:2" />
    <line x1="330" y1="388" x2="250" y2="341" style="stroke:#000000;stroke-width:2" />
    <line x1="330" y1="480" x2="330" y2="388" style="stroke:#000000;stroke-width:2" />
	<path d = "M330 480 L410 434 L410 341 L330 295 L250 341 L250 434 L330 480 Z" stroke = "#000000" stroke-width = "2" fill = "none" />    <line x1="250" y1="434" x2="170" y2="480" style="stroke:#000000;stroke-width:2" />
    <line x1="170" y1="480" x2="170" y2="388" style="stroke:#000000;stroke-width:2" />
    <line x1="170" y1="388" x2="90" y2="341" style="stroke:#000000;stroke-width:2" />
    <line x1="170" y1="388" x2="250" y2="341" style="stroke:#000000;stroke-width:2" />
    <line x1="250" y1="341" x2="170" y2="295" style="stroke:#000000;stroke-width:2" />
    <line x1="170" y1="295" x2="90" y2="341" style="stroke:#000000;stroke-width:2" />
    <line x1="170" y1="295" x2="170" y2="203" style="stroke:#000000;stroke-width:2" />
    <line x1="250" y1="341" x2="250" y2="249" style="stroke:#000000;stroke-width:2" />
    <line x1="250" y1="249" x2="170" y2="203" style="stroke:#000000;stroke-width:2" />
    <line x1="250" y1="249" x2="330" y2="203" style="stroke:#000000;stroke-width:2" />
    <line x1="330" y1="203" x2="330" y2="295" style="stroke:#000000;stroke-width:2" />
	<path d = "M170 480 L10 480 L90 341 L170 480 Z" stroke = "#000000" stroke-width = "2" fill = "none" />    <line x1="143" y1="434" x2="143" y2="465" style="stroke:#000000;stroke-width:2" />
    <line x1="143" y1="465" x2="117" y2="480" style="stroke:#000000;stroke-width:2" />
    <line x1="63" y1="480" x2="37" y2="465" style="stroke:#000000;stroke-width:2" />
    <line x1="37" y1="465" x2="37" y2="434" style="stroke:#000000;stroke-width:2" />
    <line x1="63" y1="388" x2="90" y2="372" style="stroke:#000000;stroke-width:2" />
    <line x1="90" y1="372" x2="117" y2="388" style="stroke:#000000;stroke-width:2" />
	<path d = "M143 434 L117 449 L117 480 L143 465 L143 434 Z" stroke = "#ff0000" stroke-width = "2" fill = "#ff0000" />	<path d = "M143 434 L117 449 L90 434 L117 418 L143 434 Z" stroke = "#0000ff" stroke-width = "2" fill = "#0000ff" />	<path d = "M117 449 L117 480 L90 465 L90 434 L117 449 Z" stroke = "#008000" stroke-width = "2" fill = "#008000" />    <line x1="117" y1="449" x2="143" y2="434" style="stroke:#000000;stroke-width:2" />
    <line x1="117" y1="449" x2="90" y2="434" style="stroke:#000000;stroke-width:2" />
    <line x1="117" y1="480" x2="117" y2="449" style="stroke:#000000;stroke-width:2" />
	<path d = "M117 480 L143 465 L143 434 L117 418 L90 434 L90 465 L117 480 Z" stroke = "#000000" stroke-width = "2" fill = "none" />    <line x1="90" y1="465" x2="63" y2="480" style="stroke:#000000;stroke-width:2" />
    <line x1="63" y1="480" x2="63" y2="449" style="stroke:#000000;stroke-width:2" />
    <line x1="63" y1="449" x2="37" y2="434" style="stroke:#000000;stroke-width:2" />
    <line x1="63" y1="449" x2="90" y2="434" style="stroke:#000000;stroke-width:2" />
    <line x1="90" y1="434" x2="63" y2="418" style="stroke:#000000;stroke-width:2" />
    <line x1="63" y1="418" x2="37" y2="434" style="stroke:#000000;stroke-width:2" />
    <line x1="63" y1="418" x2="63" y2="388" style="stroke:#000000;stroke-width:2" />
    <line x1="90" y1="434" x2="90" y2="403" style="stroke:#000000;stroke-width:2" />
    <line x1="90" y1="403" x2="63" y2="388" style="stroke:#000000;stroke-width:2" />
    <line x1="90" y1="403" x2="117" y2="388" style="stroke:#000000;stroke-width:2" />
    <line x1="117" y1="388" x2="117" y2="418" style="stroke:#000000;stroke-width:2" />
	<path d = "M63 480 L10 480 L37 434 L63 480 Z" stroke = "#000000" stroke-width = "2" fill = "none" />    <line x1="54" y1="465" x2="54" y2="475" style="stroke:#000000;stroke-width:2" />
    <line x1="54" y1="475" x2="46" y2="480" style="stroke:#000000;stroke-width:2" />
    <line x1="28" y1="480" x2="19" y2="475" style="stroke:#000000;stroke-width:2" />
    <line x1="19" y1="475" x2="19" y2="465" style="stroke:#000000;stroke-width:2" />
    <line x1="28" y1="449" x2="37" y2="444" style="stroke:#000000;stroke-width:2" />
    <line x1="37" y1="444" x2="46" y2="449" style="stroke:#000000;stroke-width:2" />
	<path d = "M54 465 L46 470 L46 480 L54 475 L54 465 Z" stroke = "#ff0000" stroke-width = "2" fill = "#ff0000" />	<path d = "M54 465 L46 470 L37 465 L46 459 L54 465 Z" stroke = "#0000ff" stroke-width = "2" fill = "#0000ff" />	<path d = "M46 470 L46 480 L37 475 L37 465 L46 470 Z" stroke = "#008000" stroke-width = "2" fill = "#008000" />    <line x1="46" y1="470" x2="54" y2="465" style="stroke:#000000;stroke-width:2" />
    <line x1="46" y1="470" x2="37" y2="465" style="stroke:#000000;stroke-width:2" />
    <line x1="46" y1="480" x2="46" y2="470" style="stroke:#000000;stroke-width:2" />
	<path d = "M46 480 L54 475 L54 465 L46 459 L37 465 L37 475 L46 480 Z" stroke = "#000000" stroke-width = "2" fill = "none" />    <line x1="37" y1="475" x2="28" y2="480" style="stroke:#000000;stroke-width:2" />
    <line x1="28" y1="480" x2="28" y2="470" style="stroke:#000000;stroke-width:2" />
    <line x1="28" y1="470" x2="19" y2="465" style="stroke:#000000;stroke-width:2" />
    <line x1="28" y1="470" x2="37" y2="465" style="stroke:#000000;stroke-width:2" />
    <line x1="37" y1="465" x2="28" y2="459" style="stroke:#000000;stroke-width:2" />
    <line x1="28" y1="459" x2="19" y2="465" style="stroke:#000000;stroke-width:2" />
    <line x1="28" y1="459" x2="28" y2="449" style="stroke:#000000;stroke-width:2" />
    <line x1="37" y1="465" x2="37" y2="454" style="stroke:#000000;stroke-width:2" />
    <line x1="37" y1="454" x2="28" y2="449" style="stroke:#000000;stroke-width:2" />
    <line x1="37" y1="454" x2="46" y2="449" style="stroke:#000000;stroke-width:2" />
    <line x1="46" y1="449" x2="46" y2="459" style="stroke:#000000;stroke-width:2" />
	<path d = "M28 480 L10 480 L19 465 L28 480 Z" stroke = "#000000" stroke-width = "2" fill = "none" />    <line x1="25" y1="475" x2="25" y2="478" style="stroke:#000000;stroke-width:2" />
    <line x1="25" y1="478" x2="22" y2="480" style="stroke:#000000;stroke-width:2" />
    <line x1="16" y1="480" x2="13" y2="478" style="stroke:#000000;stroke-width:2" />
    <line x1="13" y1="478" x2="13" y2="475" style="stroke:#000000;stroke-width:2" />
    <line x1="16" y1="470" x2="19" y2="468" style="stroke:#000000;stroke-width:2" />
    <line x1="19" y1="468" x2="22" y2="470" style="stroke:#000000;stroke-width:2" />
	<path d = "M25 475 L22 477 L22 480 L25 478 L25 475 Z" stroke = "#ff0000" stroke-width = "2" fill = "#ff0000" />	<path d = "M25 475 L22 477 L19 475 L22 473 L25 475 Z" stroke = "#0000ff" stroke-width = "2" fill = "#0000ff" />	<path d = "M22 477 L22 480 L19 478 L19 475 L22 477 Z" stroke = "#008000" stroke-width = "2" fill = "#008000" />    <line x1="22" y1="477" x2="25" y2="475" style="stroke:#000000;stroke-width:2" />
    <line x1="22" y1="477" x2="19" y2="475" style="stroke:#000000;stroke-width:2" />
    <line x1="22" y1="480" x2="22" y2="477" style="stroke:#000000;stroke-width:2" />
	<path d = "M22 480 L25 478 L25 475 L22 473 L19 475 L19 478 L22 480 Z" stroke = "#000000" stroke-width = "2" fill = "none" />    <line x1="19" y1="478" x2="16" y2="480" style="stroke:#000000;stroke-width:2" />
    <line x1="16" y1="480" x2="16" y2="477" style="stroke:#000000;stroke-width:2" />
    <line x1="16" y1="477" x2="13" y2="475" style="stroke:#000000;stroke-width:2" />
    <line x1="16" y1="477" x2="19" y2="475" style="stroke:#000000;stroke-width:2" />
    <line x1="19" y1="475" x2="16" y2="473" style="stroke:#000000;stroke-width:2" />
    <line x1="16" y1="473" x2="13" y2="475" style="stroke:#000000;stroke-width:2" />
    <line x1="16" y1="473" x2="16" y2="470" style="stroke:#000000;stroke-width:2" />
    <line x1="19" y1="475" x2="19" y2="471" style="stroke:#000000;stroke-width:2" />
    <line x1="19" y1="471" x2="16" y2="470" style="stroke:#000000;stroke-width:2" />
    <line x1="19" y1="471" x2="22" y2="470" style="stroke:#000000;stroke-width:2" />
    <line x1="22" y1="470" x2="22" y2="473" style="stroke:#000000;stroke-width:2" />
	<path d = "M238 212 L238 187 L213 187 L213 212 L238 212 Z" stroke = "#000000" stroke-width = "2" fill = "none" />    <line x1="225" y1="200" x2="225" y2="187" style="stroke:#000000;stroke-width:2" />
    <line x1="225" y1="200" x2="236" y2="194" style="stroke:#000000;stroke-width:2" />
    <line x1="225" y1="200" x2="236" y2="206" style="stroke:#000000;stroke-width:2" />
    <line x1="225" y1="200" x2="225" y2="212" style="stroke:#000000;stroke-width:2" />
    <line x1="225" y1="200" x2="214" y2="206" style="stroke:#000000;stroke-width:2" />
<circle cx="225" cy = "200" r = "12.5" stroke = "#000000" stroke-width = "2" fill = "none" />
<circle cx="222" cy = "195" r = "1.5625" stroke = "#000000" stroke-width = "2" fill = "none" />
<circle cx="228" cy = "195" r = "1.5625" stroke = "#000000" stroke-width = "2" fill = "none" />
<circle cx="231" cy = "200" r = "1.5625" stroke = "#000000" stroke-width = "2" fill = "none" />
<circle cx="228" cy = "205" r = "1.5625" stroke = "#000000" stroke-width = "2" fill = "none" />
<circle cx="222" cy = "205" r = "1.5625" stroke = "#000000" stroke-width = "2" fill = "none" />
    <line x1="225" y1="200" x2="214" y2="194" style="stroke:#000000;stroke-width:2" />
<circle cx="219" cy = "200" r = "1.5625" stroke = "#000000" stroke-width = "2" fill = "none" />
	<path d = "M263 213 L263 188 L238 187 L238 212 L263 213 Z" stroke = "#000000" stroke-width = "2" fill = "none" />	<path d = "M259 191 L250 200 L259 209 " stroke = "#000000" stroke-width = "2" fill = "none" />    <line x1="250" y1="200" x2="253" y2="200" style="stroke:#000000;stroke-width:2" />
    <line x1="256" y1="200" x2="259" y2="200" style="stroke:#000000;stroke-width:2" />
	<path d = "M288 213 L288 188 L263 188 L263 213 L288 213 Z" stroke = "#000000" stroke-width = "2" fill = "none" />	<path d = "M288 213 L275 191 L263 213 " stroke = "#000000" stroke-width = "2" fill = "none" />    <line x1="275" y1="205" x2="275" y2="191" style="stroke:#000000;stroke-width:2" />
    <line x1="275" y1="205" x2="288" y2="213" style="stroke:#000000;stroke-width:2" />
    <line x1="275" y1="205" x2="263" y2="213" style="stroke:#000000;stroke-width:2" />
</svg>