<svg width="800" height="800" viewbox = "0 0 800 800"  xmlns="http://www.w3.org/2000/svg">
<!--<json>{
  "glyph": "0330,0332,0331,0331,0332,0336,0336,0330,0330,0336,0333,0337,01321,01341,01306,01350,01334,01336,01331,01337,01330,01335,01335,01331,01331,0331,0331,0332,0332,0332,0332,0332,0332,0332,0332,0332,0332,0332,0332,0332,0336,0330,0337,01362,01203,01203,01335,01335,01335,01335,01203,01334,01334,01334,01334,01203,0331,0331,0332,0332,0332,0332,0332,0332,0332,0332,0332,0332,0332,0332,0332,0336,0330,0337,01203,01364,01335,01335,01335,01335,01335,01336,01330,01335,01335,01335,01335,0331,0331,0332,0332,0332,0332,0332,0332,0332,0332,0332,0332,0332,0332,0332,0336,0330,0337,01335,01335,01362,01203,01334,01334,01334,01334,01203,01364,0337,0337,0330,0330,0336,0332,0330,0211,0211,0211,0221,",
  "shapes": [
    "0220:0336,0336,0336,0347,0332,0337,0337,0337,0362,0203,0335,0336,0336,0203,0335,0337,0337,0203,0335,0336,0336,0203,0363,0335,0337,0337,0330,0336,0336,0336,0333,0347,0337,0337,0337,",
    "0221:0321,0341,0306,0350,0334,0336,0331,0337,0330,0335,0335,0331,0331,0362,0203,0203,0335,0335,0335,0335,0203,0334,0334,0334,0334,0203,0203,0364,0335,0335,0335,0335,0335,0336,0330,0335,0335,0335,0335,0335,0335,0362,0203,0334,0334,0334,0334,0203,0364,0331,0320,0335,0335,0335,0335,0335,0337,0331,0331,0334,0336,0332,0337,0304,",
    "0222:0336,0336,0336,0347,0337,0337,0337,0330,",
    "0223:0334,0336,0362,0203,0335,0203,0203,0335,0203,0203,0335,0203,0203,0335,0203,0363,0335,0330,0330,0337,",
    "0224:0304,0313,0336,0336,0334,0310,0350,0362,0203,0335,0335,0203,0203,0334,0334,0203,0335,0335,0335,0337,0203,0203,0335,0335,0203,0203,0335,0335,0335,0336,0203,0334,0334,0203,0203,0335,0335,0203,0363,0304,0335,0313,0337,0337,",
    "0225:0350,0310,0362,0203,0335,0335,0335,0336,0203,0335,0335,0203,0363,0335,0335,0335,0337,0304,0313,",
    "0226:0331,0332,0337,0101,0365,",
    "0227:0336,0336,0341,0337,0337,0330,",
    "0230:0311,0200,0304,0350,0334,0343,0335,0330,0336,0331,0304,0335,",
    "0231:0230,0230,0230,0230,0230,0230,0230,0230,0230,0230,0230,0230,0230,0230,0230,0230,",
    "0232:",
    "0233:",
    "0234:",
    "0235:",
    "0236:",
    "0237:",
    "0240:0334,0336,0336,0366,0337,0337,0333,0335,0335,0336,0336,0367,0334,0337,0337,",
    "0241:",
    "0242:",
    "0243:",
    "0244:",
    "0245:",
    "0246:",
    "0247:",
    "01220:0333,0200,0336,0330,0332,0336,0331,0337,0220,0331,0333,0336,0331,0337,0337,",
    "01221:0333,0200,0336,0330,0332,0336,0221,0337,0333,0331,0337,",
    "01222:0333,0200,0336,0332,0330,0332,0333,0222,0333,0331,0331,0337,",
    "01223:0333,0200,0336,0330,0332,0336,0333,0332,0223,0336,0333,0331,0333,0333,0331,0331,0333,0320,0331,0337,0337,0337,",
    "01224:0333,0200,0336,0332,0330,0224,0333,0331,0337,",
    "01225:0333,0200,0336,0336,0332,0332,0330,0337,0225,0304,0333,0331,0336,0330,0337,0337,",
    "01226:0333,0200,0336,0330,0332,0226,0333,0331,0330,",
    "01227:0333,0200,0336,0330,0332,0210,0227,0211,0331,0333,0337,",
    "01230:0333,0200,0336,0330,0332,0230,0331,0304,0333,0337,",
    "01231:0333,0200,0332,0336,0330,0333,0336,0336,0330,0332,0231,0333,0333,0331,0331,0331,0333,0333,0331,0331,0333,0337,0337,0337,0337,0336,",
    "01232:0333,0200,0336,0330,0332,0331,0232,0331,0331,0331,0333,0337,",
    "01233:0333,0200,0336,0332,0337,0336,0330,0332,0336,0331,0333,0337,0332,0233,0331,0336,0330,0337,0337,",
    "01234:0333,0200,0336,0330,0332,0332,0332,0336,0333,0337,0234,0333,0333,0333,0331,0336,0333,0331,0337,0337,0337,0210,0210,0337,0336,",
    "01235:0333,0200,0235,",
    "01236:0333,0200,0236,",
    "01237:0333,0200,0336,0330,0332,0332,0237,0331,0336,0332,0337,0337,",
    "01240:0333,0200,0336,0332,0336,0330,0337,0240,0333,0336,0330,0337,0337,0331,",
    "01241:0333,0200,0336,0332,0241,0333,0337,",
    "01242:0333,0200,0336,0332,0332,0336,0330,0330,0242,0336,0331,0331,0331,0331,0332,0337,0337,0337,",
    "01243:0333,0200,0336,0332,0332,0243,0337,",
    "01244:0333,0200,0332,0336,0330,0336,0336,0243,0243,0243,0243,0331,0331,0331,0331,0337,0337,0337,",
    "01245:0333,0200,0336,0332,0336,0331,0337,0245,0333,0336,0330,0337,0337,",
    "01246:0333,0200,0330,0332,0336,0331,0336,0332,0337,0246,0333,0333,0336,0333,0331,0331,0337,0337,",
    "01247:0333,0200,0336,0330,0332,0337,0247,0336,0333,0331,0337,"
  ],
  "x0rel": 0.5,
  "y0rel": 0.5,
  "unitrel": 0.25,
  "theta0": -1.570796,
  "width": 800,
  "height": 800,
  "scale": 1,
  "backgroundimage": "",
  "style": {
    "color0": "black",
    "fill0": "black",
    "line0": 2,
    "color1": "black",
    "fill1": "black",
    "line1": 16,
    "color2": "#683817",
    "fill2": "#683817",
    "line2": 2,
    "color3": "#FF7900",
    "fill3": "#FF7900",
    "line3": 2,
    "color4": "yellow",
    "fill4": "yellow",
    "line4": 2,
    "color5": "green",
    "fill5": "green",
    "line5": 2,
    "color6": "blue",
    "fill6": "blue",
    "line6": 8,
    "color7": "#e11383",
    "fill7": "#e11383",
    "line7": 1
  },
  "controlbuttons": [
    196,
    198,
    200,
    203,
    128,
    216,
    217,
    218,
    219,
    220,
    221,
    222,
    223,
    27,
    8,
    134,
    225,
    192,
    16,
    17,
    145,
    151,
    146
  ]
}</json>-->	<path d = "M75 500 L75 450 L25 450 L25 500 L75 500 Z" stroke = "#000000" stroke-width = "2" fill = "none" />	<path d = "M62 487 L62 462 L37 462 L37 487 L62 487 Z" stroke = "#000000" stroke-width = "16" fill = "#000000" />	<path d = "M125 500 L125 450 L75 450 L75 500 L125 500 Z" stroke = "#000000" stroke-width = "2" fill = "none" /><circle cx="100" cy = "475" r = "25" stroke = "#000000" stroke-width = "2" fill = "none" />
<circle cx="100" cy = "475" r = "2" stroke = "#000000" stroke-width = "2" fill = "#000000" />
	<path d = "M175 500 L175 450 L125 450 L125 500 L175 500 Z" stroke = "#000000" stroke-width = "2" fill = "none" />    <line x1="150" y1="475" x2="150" y2="450" style="stroke:#000000;stroke-width:2" />
    <line x1="150" y1="475" x2="172" y2="462" style="stroke:#000000;stroke-width:2" />
    <line x1="150" y1="475" x2="172" y2="487" style="stroke:#000000;stroke-width:2" />
    <line x1="150" y1="475" x2="150" y2="500" style="stroke:#000000;stroke-width:2" />
    <line x1="150" y1="475" x2="128" y2="487" style="stroke:#000000;stroke-width:2" />
<circle cx="150" cy = "475" r = "25" stroke = "#000000" stroke-width = "2" fill = "none" />
<circle cx="144" cy = "464" r = "3.125" stroke = "#000000" stroke-width = "2" fill = "none" />
<circle cx="156" cy = "464" r = "3.125" stroke = "#000000" stroke-width = "2" fill = "none" />
<circle cx="162" cy = "475" r = "3.125" stroke = "#000000" stroke-width = "2" fill = "none" />
<circle cx="156" cy = "486" r = "3.125" stroke = "#000000" stroke-width = "2" fill = "none" />
<circle cx="144" cy = "486" r = "3.125" stroke = "#000000" stroke-width = "2" fill = "none" />
    <line x1="150" y1="475" x2="128" y2="462" style="stroke:#000000;stroke-width:2" />
<circle cx="137" cy = "475" r = "3.125" stroke = "#000000" stroke-width = "2" fill = "none" />
	<path d = "M225 500 L225 450 L175 450 L175 500 L225 500 Z" stroke = "#000000" stroke-width = "2" fill = "none" />	<path d = "M218 457 L200 475 L218 493 " stroke = "#000000" stroke-width = "2" fill = "none" />    <line x1="200" y1="475" x2="206" y2="475" style="stroke:#000000;stroke-width:2" />
    <line x1="212" y1="475" x2="219" y2="475" style="stroke:#000000;stroke-width:2" />
	<path d = "M275 500 L275 450 L225 450 L225 500 L275 500 Z" stroke = "#000000" stroke-width = "2" fill = "none" />  <path d="M241.161143614045 466.16111332744265           A12.5 12.5 0 0 1 258.83881314370774 466.16111910441435" fill = "none" stroke = "#000000" stroke-width = "2" />
  <path d="M241.16113783707334 483.83878285710546           A12.5 12.5 0 0 1 241.161143614045 466.16111332744265" fill = "none" stroke = "#000000" stroke-width = "2" />
  <path d="M258.8388073667361 483.83878863407705           A12.5 12.5 0 0 1 241.16113783707334 483.83878285710546" fill = "none" stroke = "#000000" stroke-width = "2" />
	<path d = "M254 495 L259 484 L247 479 " stroke = "#000000" stroke-width = "2" fill = "none" />	<path d = "M325 500 L325 450 L275 450 L275 500 L325 500 Z" stroke = "#000000" stroke-width = "2" fill = "none" />    <line x1="312" y1="475" x2="287" y2="475" style="stroke:#000000;stroke-width:2" />
	<path d = "M375 500 L375 450 L325 450 L325 500 L375 500 Z" stroke = "#000000" stroke-width = "2" fill = "none" />	<path d = "M344 462 L356 462 L356 475 L362 475 L356 481 L350 487 L344 481 L337 475 L344 475 L344 462 Z" stroke = "#000000" stroke-width = "2" fill = "none" />	<path d = "M425 500 L425 450 L375 450 L375 500 L425 500 Z" stroke = "#000000" stroke-width = "2" fill = "none" />    <line x1="400" y1="475" x2="400" y2="462" style="stroke:#000000;stroke-width:2" />
    <line x1="400" y1="475" x2="387" y2="475" style="stroke:#000000;stroke-width:2" />
    <line x1="400" y1="475" x2="400" y2="487" style="stroke:#000000;stroke-width:2" />
    <line x1="400" y1="475" x2="412" y2="475" style="stroke:#000000;stroke-width:2" />
	<path d = "M475 500 L475 450 L425 450 L425 500 L475 500 Z" stroke = "#000000" stroke-width = "2" fill = "none" />	<path d = "M456 488 L444 488 L444 475 L437 475 L444 469 L450 463 L456 469 L462 475 L456 475 L456 488 Z" stroke = "#000000" stroke-width = "2" fill = "none" />	<path d = "M525 500 L525 450 L475 450 L475 500 L525 500 Z" stroke = "#000000" stroke-width = "2" fill = "none" />  <path d="M508.8388073667233 483.8388703327881           A12.500000000000004 12.500000000000004 0 0 1 491.1611378370606 483.83886455581745" fill = "none" stroke = "#000000" stroke-width = "2" />
  <path d="M491.1611378370606 483.83886455581745           A12.500000000000004 12.500000000000004 0 0 1 491.1611436140311 466.16119502615476" fill = "none" stroke = "#000000" stroke-width = "2" />
  <path d="M491.1611436140311 466.16119502615476           A12.500000000000004 12.500000000000004 0 0 1 508.8388131436938 466.16120080312515" fill = "none" stroke = "#000000" stroke-width = "2" />
	<path d = "M497 471 L509 466 L504 455 " stroke = "#000000" stroke-width = "2" fill = "none" />	<path d = "M575 500 L575 450 L525 450 L525 500 L575 500 Z" stroke = "#000000" stroke-width = "2" fill = "none" />  <path d="M558.838807366721 483.83888667252796           A12.500000000000004 12.500000000000004 0 0 1 541.1611378370583 483.8388808955577" fill = "none" stroke = "#000000" stroke-width = "2" />
  <path d="M541.1611378370583 483.8388808955577           A12.500000000000004 12.500000000000004 0 0 1 541.1611436140283 466.161211365895" fill = "none" stroke = "#000000" stroke-width = "2" />
  <path d="M541.1611436140283 466.161211365895           A12.500000000000004 12.500000000000004 0 0 1 558.8388131436911 466.16121714286504" fill = "none" stroke = "#000000" stroke-width = "2" />
	<path d = "M547 471 L559 466 L554 455 " stroke = "#000000" stroke-width = "2" fill = "none" />	<path d = "M625 500 L625 450 L575 450 L575 500 L625 500 Z" stroke = "#000000" stroke-width = "2" fill = "none" />	<path d = "M594 463 L606 463 L606 475 L612 475 L606 481 L600 488 L594 481 L587 475 L594 475 L594 463 Z" stroke = "#000000" stroke-width = "2" fill = "none" />	<path d = "M675 500 L675 450 L625 450 L625 500 L675 500 Z" stroke = "#000000" stroke-width = "2" fill = "none" />	<path d = "M644 463 L656 463 L656 475 L662 475 L656 481 L650 488 L644 481 L637 475 L644 475 L644 463 Z" stroke = "#000000" stroke-width = "2" fill = "none" />	<path d = "M75 575 L75 525 L25 525 L25 575 L75 575 Z" stroke = "#000000" stroke-width = "2" fill = "none" /><circle cx="37" cy = "562" r = "2" stroke = "#000000" stroke-width = "2" fill = "#000000" />
	<path d = "M37 562 L37 537 L62 537 " stroke = "#000000" stroke-width = "2" fill = "none" />	<path d = "M54 529 L62 537 L54 546 " stroke = "#000000" stroke-width = "2" fill = "none" />    <line x1="75" y1="575" x2="84" y2="566" style="stroke:#000000;stroke-width:2" />
    <line x1="87" y1="575" x2="96" y2="566" style="stroke:#000000;stroke-width:2" />
    <line x1="100" y1="575" x2="109" y2="566" style="stroke:#000000;stroke-width:2" />
    <line x1="112" y1="575" x2="121" y2="566" style="stroke:#000000;stroke-width:2" />
	<path d = "M125 575 L125 525 L75 525 L75 575 L125 575 Z" stroke = "#000000" stroke-width = "2" fill = "none" />    <line x1="87" y1="550" x2="112" y2="550" style="stroke:#000000;stroke-width:2" />
    <line x1="112" y1="550" x2="108" y2="554" style="stroke:#000000;stroke-width:2" />
    <line x1="112" y1="550" x2="108" y2="546" style="stroke:#000000;stroke-width:2" />
    <line x1="125" y1="575" x2="134" y2="566" style="stroke:#000000;stroke-width:2" />
    <line x1="137" y1="575" x2="146" y2="566" style="stroke:#000000;stroke-width:2" />
    <line x1="150" y1="575" x2="159" y2="566" style="stroke:#000000;stroke-width:2" />
    <line x1="162" y1="575" x2="171" y2="566" style="stroke:#000000;stroke-width:2" />
	<path d = "M175 575 L175 525 L125 525 L125 575 L175 575 Z" stroke = "#000000" stroke-width = "2" fill = "none" />    <line x1="137" y1="550" x2="162" y2="550" style="stroke:#000000;stroke-width:2" />
    <line x1="162" y1="550" x2="158" y2="554" style="stroke:#000000;stroke-width:2" />
    <line x1="162" y1="550" x2="158" y2="546" style="stroke:#000000;stroke-width:2" />
	<path d = "M225 575 L225 525 L175 525 L175 575 L225 575 Z" stroke = "#000000" stroke-width = "2" fill = "none" />  <path d="M208.83878285713203 558.8387722943597           A12.500000000000009 12.500000000000009 0 0 1 191.16111332746928 558.8387665173901" fill = "none" stroke = "#000000" stroke-width = "2" />
  <path d="M191.16111332746928 558.8387665173901           A12.500000000000009 12.500000000000009 0 0 1 191.1611191044389 541.1610969877273" fill = "none" stroke = "#000000" stroke-width = "2" />
  <path d="M191.1611191044389 541.1610969877273           A12.500000000000009 12.500000000000009 0 0 1 208.83878863410166 541.161102764697" fill = "none" stroke = "#000000" stroke-width = "2" />
	<path d = "M197 546 L209 541 L204 530 " stroke = "#000000" stroke-width = "2" fill = "none" />	<path d = "M275 575 L275 525 L225 525 L225 575 L275 575 Z" stroke = "#000000" stroke-width = "2" fill = "none" />  <path d="M258.8387828571293 558.8387886340976           A12.500000000000009 12.500000000000009 0 0 1 241.16111332746647 558.8387828571279" fill = "none" stroke = "#000000" stroke-width = "2" />
  <path d="M241.16111332746647 558.8387828571279           A12.500000000000009 12.500000000000009 0 0 1 241.16111910443624 541.161113327465" fill = "none" stroke = "#000000" stroke-width = "2" />
  <path d="M241.16111910443624 541.161113327465           A12.500000000000009 12.500000000000009 0 0 1 258.838788634099 541.1611191044349" fill = "none" stroke = "#000000" stroke-width = "2" />
	<path d = "M247 546 L259 541 L254 530 " stroke = "#000000" stroke-width = "2" fill = "none" />	<path d = "M325 575 L325 525 L275 525 L275 575 L325 575 Z" stroke = "#000000" stroke-width = "2" fill = "none" />  <path d="M308.83878285712643 558.8388049738357           A12.500000000000009 12.500000000000009 0 0 1 291.1611133274637 558.8387991968659" fill = "none" stroke = "#000000" stroke-width = "2" />
  <path d="M291.1611133274637 558.8387991968659           A12.500000000000009 12.500000000000009 0 0 1 291.16111910443357 541.1611296672031" fill = "none" stroke = "#000000" stroke-width = "2" />
  <path d="M291.16111910443357 541.1611296672031           A12.500000000000009 12.500000000000009 0 0 1 308.8387886340963 541.161135444173" fill = "none" stroke = "#000000" stroke-width = "2" />
	<path d = "M297 546 L309 541 L304 530 " stroke = "#000000" stroke-width = "2" fill = "none" />	<path d = "M375 575 L375 525 L325 525 L325 575 L375 575 Z" stroke = "#000000" stroke-width = "2" fill = "none" />  <path d="M358.83878285712365 558.8388213135743           A12.500000000000009 12.500000000000009 0 0 1 341.1611133274609 558.8388155366043" fill = "none" stroke = "#000000" stroke-width = "2" />
  <path d="M341.1611133274609 558.8388155366043           A12.500000000000009 12.500000000000009 0 0 1 341.1611191044309 541.1611460069415" fill = "none" stroke = "#000000" stroke-width = "2" />
  <path d="M341.1611191044309 541.1611460069415           A12.500000000000009 12.500000000000009 0 0 1 358.8387886340937 541.1611517839116" fill = "none" stroke = "#000000" stroke-width = "2" />
	<path d = "M347 546 L359 541 L354 530 " stroke = "#000000" stroke-width = "2" fill = "none" />    <line x1="375" y1="575" x2="384" y2="566" style="stroke:#000000;stroke-width:2" />
    <line x1="387" y1="575" x2="396" y2="566" style="stroke:#000000;stroke-width:2" />
    <line x1="400" y1="575" x2="409" y2="566" style="stroke:#000000;stroke-width:2" />
    <line x1="412" y1="575" x2="421" y2="566" style="stroke:#000000;stroke-width:2" />
	<path d = "M425 575 L425 525 L375 525 L375 575 L425 575 Z" stroke = "#000000" stroke-width = "2" fill = "none" />    <line x1="387" y1="550" x2="412" y2="550" style="stroke:#000000;stroke-width:2" />
    <line x1="412" y1="550" x2="408" y2="554" style="stroke:#000000;stroke-width:2" />
    <line x1="412" y1="550" x2="408" y2="546" style="stroke:#000000;stroke-width:2" />
	<path d = "M475 575 L475 525 L425 525 L425 575 L475 575 Z" stroke = "#000000" stroke-width = "2" fill = "none" />  <path d="M441.16111910442544 541.1611786864195           A12.500000000000009 12.500000000000009 0 0 1 458.83878863408813 541.1611844633895" fill = "none" stroke = "#000000" stroke-width = "2" />
  <path d="M441.16111332745527 558.8388482160822           A12.500000000000009 12.500000000000009 0 0 1 441.16111910442544 541.1611786864195" fill = "none" stroke = "#000000" stroke-width = "2" />
  <path d="M458.838782857118 558.8388539930525           A12.500000000000009 12.500000000000009 0 0 1 441.16111332745527 558.8388482160822" fill = "none" stroke = "#000000" stroke-width = "2" />
	<path d = "M454 570 L459 559 L447 554 " stroke = "#000000" stroke-width = "2" fill = "none" />	<path d = "M525 575 L525 525 L475 525 L475 575 L525 575 Z" stroke = "#000000" stroke-width = "2" fill = "none" />  <path d="M491.16111910442254 541.1611950261586           A12.500000000000009 12.500000000000009 0 0 1 508.83878863408523 541.1612008031284" fill = "none" stroke = "#000000" stroke-width = "2" />
  <path d="M491.1611133274525 558.8388645558213           A12.500000000000009 12.500000000000009 0 0 1 491.16111910442254 541.1611950261586" fill = "none" stroke = "#000000" stroke-width = "2" />
  <path d="M508.83878285711523 558.8388703327913           A12.500000000000009 12.500000000000009 0 0 1 491.1611133274525 558.8388645558213" fill = "none" stroke = "#000000" stroke-width = "2" />
	<path d = "M504 570 L509 559 L497 554 " stroke = "#000000" stroke-width = "2" fill = "none" />	<path d = "M575 575 L575 525 L525 525 L525 575 L575 575 Z" stroke = "#000000" stroke-width = "2" fill = "none" />  <path d="M541.1611191044195 541.1612113658971           A12.500000000000009 12.500000000000009 0 0 1 558.8387886340822 541.1612171428669" fill = "none" stroke = "#000000" stroke-width = "2" />
  <path d="M541.1611133274497 558.8388808955598           A12.500000000000009 12.500000000000009 0 0 1 541.1611191044195 541.1612113658971" fill = "none" stroke = "#000000" stroke-width = "2" />
  <path d="M558.8387828571124 558.8388866725298           A12.500000000000009 12.500000000000009 0 0 1 541.1611133274497 558.8388808955598" fill = "none" stroke = "#000000" stroke-width = "2" />
	<path d = "M554 570 L559 559 L547 554 " stroke = "#000000" stroke-width = "2" fill = "none" />	<path d = "M625 575 L625 525 L575 525 L575 575 L625 575 Z" stroke = "#000000" stroke-width = "2" fill = "none" />  <path d="M591.1611191044167 541.1612277056357           A12.500000000000009 12.500000000000009 0 0 1 608.8387886340794 541.1612334826053" fill = "none" stroke = "#000000" stroke-width = "2" />
  <path d="M591.1611133274469 558.8388972352984           A12.500000000000009 12.500000000000009 0 0 1 591.1611191044167 541.1612277056357" fill = "none" stroke = "#000000" stroke-width = "2" />
  <path d="M608.8387828571095 558.8389030122682           A12.500000000000009 12.500000000000009 0 0 1 591.1611133274469 558.8388972352984" fill = "none" stroke = "#000000" stroke-width = "2" />
	<path d = "M604 570 L609 559 L597 554 " stroke = "#000000" stroke-width = "2" fill = "none" />    <line x1="625" y1="575" x2="634" y2="566" style="stroke:#000000;stroke-width:2" />
    <line x1="637" y1="575" x2="646" y2="566" style="stroke:#000000;stroke-width:2" />
    <line x1="650" y1="575" x2="659" y2="566" style="stroke:#000000;stroke-width:2" />
    <line x1="662" y1="575" x2="671" y2="566" style="stroke:#000000;stroke-width:2" />
	<path d = "M675 575 L675 525 L625 525 L625 575 L675 575 Z" stroke = "#000000" stroke-width = "2" fill = "none" />    <line x1="637" y1="550" x2="662" y2="550" style="stroke:#000000;stroke-width:2" />
    <line x1="662" y1="550" x2="658" y2="554" style="stroke:#000000;stroke-width:2" />
    <line x1="662" y1="550" x2="658" y2="546" style="stroke:#000000;stroke-width:2" />
    <line x1="25" y1="650" x2="34" y2="641" style="stroke:#000000;stroke-width:2" />
    <line x1="37" y1="650" x2="46" y2="641" style="stroke:#000000;stroke-width:2" />
    <line x1="50" y1="650" x2="59" y2="641" style="stroke:#000000;stroke-width:2" />
    <line x1="62" y1="650" x2="71" y2="641" style="stroke:#000000;stroke-width:2" />
	<path d = "M75 650 L75 600 L25 600 L25 650 L75 650 Z" stroke = "#000000" stroke-width = "2" fill = "none" />    <line x1="37" y1="625" x2="62" y2="625" style="stroke:#000000;stroke-width:2" />
    <line x1="62" y1="625" x2="58" y2="629" style="stroke:#000000;stroke-width:2" />
    <line x1="62" y1="625" x2="58" y2="621" style="stroke:#000000;stroke-width:2" />
	<path d = "M125 650 L125 600 L75 600 L75 650 L125 650 Z" stroke = "#000000" stroke-width = "2" fill = "none" />	<path d = "M87 612 L112 612 L112 637 " stroke = "#000000" stroke-width = "2" fill = "none" />	<path d = "M104 629 L112 637 L121 629 " stroke = "#000000" stroke-width = "2" fill = "none" /><circle cx="112" cy = "637" r = "2" stroke = "#000000" stroke-width = "2" fill = "#000000" />
	<path d = "M175 650 L175 600 L125 600 L125 650 L175 650 Z" stroke = "#000000" stroke-width = "2" fill = "none" />  <path d="M158.83875834752774 633.8387559546318           A12.500000000000009 12.500000000000009 0 0 1 141.16108881786502 633.8387501776629" fill = "none" stroke = "#000000" stroke-width = "2" />
  <path d="M141.16108881786502 633.8387501776629           A12.500000000000009 12.500000000000009 0 0 1 141.16109459483394 616.1610806480002" fill = "none" stroke = "#000000" stroke-width = "2" />
  <path d="M141.16109459483394 616.1610806480002           A12.500000000000009 12.500000000000009 0 0 1 158.83876412449663 616.161086424969" fill = "none" stroke = "#000000" stroke-width = "2" />
	<path d = "M147 621 L159 616 L154 605 " stroke = "#000000" stroke-width = "2" fill = "none" />	<path d = "M225 650 L225 600 L175 600 L175 650 L225 650 Z" stroke = "#000000" stroke-width = "2" fill = "none" />  <path d="M208.8387583475253 633.838772294367           A12.500000000000009 12.500000000000009 0 0 1 191.16108881786258 633.8387665173983" fill = "none" stroke = "#000000" stroke-width = "2" />
  <path d="M191.16108881786258 633.8387665173983           A12.500000000000009 12.500000000000009 0 0 1 191.1610945948311 616.1610969877356" fill = "none" stroke = "#000000" stroke-width = "2" />
  <path d="M191.1610945948311 616.1610969877356           A12.500000000000009 12.500000000000009 0 0 1 208.83876412449382 616.1611027647041" fill = "none" stroke = "#000000" stroke-width = "2" />
	<path d = "M197 621 L209 616 L204 605 " stroke = "#000000" stroke-width = "2" fill = "none" />	<path d = "M275 650 L275 600 L225 600 L225 650 L275 650 Z" stroke = "#000000" stroke-width = "2" fill = "none" />  <path d="M258.83875834752286 633.8387886341012           A12.500000000000009 12.500000000000009 0 0 1 241.16108881786016 633.838782857133" fill = "none" stroke = "#000000" stroke-width = "2" />
  <path d="M241.16108881786016 633.838782857133           A12.500000000000009 12.500000000000009 0 0 1 241.16109459482828 616.1611133274703" fill = "none" stroke = "#000000" stroke-width = "2" />
  <path d="M241.16109459482828 616.1611133274703           A12.500000000000009 12.500000000000009 0 0 1 258.83876412449104 616.1611191044383" fill = "none" stroke = "#000000" stroke-width = "2" />
	<path d = "M247 621 L259 616 L254 605 " stroke = "#000000" stroke-width = "2" fill = "none" />	<path d = "M325 650 L325 600 L275 600 L275 650 L325 650 Z" stroke = "#000000" stroke-width = "2" fill = "none" />  <path d="M308.8387583475204 633.8388049738343           A12.500000000000009 12.500000000000009 0 0 1 291.1610888178577 633.8387991968665" fill = "none" stroke = "#000000" stroke-width = "2" />
  <path d="M291.1610888178577 633.8387991968665           A12.500000000000009 12.500000000000009 0 0 1 291.1610945948255 616.1611296672037" fill = "none" stroke = "#000000" stroke-width = "2" />
  <path d="M291.1610945948255 616.1611296672037           A12.500000000000009 12.500000000000009 0 0 1 308.8387641244882 616.1611354441715" fill = "none" stroke = "#000000" stroke-width = "2" />
	<path d = "M297 621 L309 616 L304 605 " stroke = "#000000" stroke-width = "2" fill = "none" />	<path d = "M375 650 L375 600 L325 600 L325 650 L375 650 Z" stroke = "#000000" stroke-width = "2" fill = "none" />  <path d="M358.838758347518 633.8388213135664           A12.500000000000009 12.500000000000009 0 0 1 341.1610888178553 633.8388155365989" fill = "none" stroke = "#000000" stroke-width = "2" />
  <path d="M341.1610888178553 633.8388155365989           A12.500000000000009 12.500000000000009 0 0 1 341.1610945948227 616.1611460069362" fill = "none" stroke = "#000000" stroke-width = "2" />
  <path d="M341.1610945948227 616.1611460069362           A12.500000000000009 12.500000000000009 0 0 1 358.8387641244854 616.1611517839035" fill = "none" stroke = "#000000" stroke-width = "2" />
	<path d = "M347 621 L359 616 L354 605 " stroke = "#000000" stroke-width = "2" fill = "none" />	<path d = "M425 650 L425 600 L375 600 L375 650 L425 650 Z" stroke = "#000000" stroke-width = "2" fill = "none" />    <line x1="412" y1="625" x2="387" y2="625" style="stroke:#000000;stroke-width:2" />
	<path d = "M475 650 L475 600 L425 600 L425 650 L475 650 Z" stroke = "#000000" stroke-width = "2" fill = "none" />	<path d = "M456 638 L444 638 L444 625 L437 625 L444 619 L450 613 L456 619 L462 625 L456 625 L456 638 Z" stroke = "#000000" stroke-width = "2" fill = "none" />	<path d = "M525 650 L525 600 L475 600 L475 650 L525 650 Z" stroke = "#000000" stroke-width = "2" fill = "none" />  <path d="M508.83875834751075 633.8388703327581           A12.50000000000001 12.50000000000001 0 0 1 491.16108881784805 633.8388645557912" fill = "none" stroke = "#000000" stroke-width = "2" />
  <path d="M491.16108881784805 633.8388645557912           A12.50000000000001 12.50000000000001 0 0 1 491.1610945948148 616.1611950261286" fill = "none" stroke = "#000000" stroke-width = "2" />
  <path d="M491.1610945948148 616.1611950261286           A12.50000000000001 12.50000000000001 0 0 1 508.8387641244775 616.1612008030952" fill = "none" stroke = "#000000" stroke-width = "2" />
	<path d = "M497 621 L509 616 L504 605 " stroke = "#000000" stroke-width = "2" fill = "none" />	<path d = "M575 650 L575 600 L525 600 L525 650 L575 650 Z" stroke = "#000000" stroke-width = "2" fill = "none" />  <path d="M558.8387583475085 633.8388866724871           A12.50000000000001 12.50000000000001 0 0 1 541.1610888178458 633.8388808955204" fill = "none" stroke = "#000000" stroke-width = "2" />
  <path d="M541.1610888178458 633.8388808955204           A12.50000000000001 12.50000000000001 0 0 1 541.1610945948122 616.1612113658578" fill = "none" stroke = "#000000" stroke-width = "2" />
  <path d="M541.1610945948122 616.1612113658578           A12.50000000000001 12.50000000000001 0 0 1 558.838764124475 616.1612171428242" fill = "none" stroke = "#000000" stroke-width = "2" />
	<path d = "M547 621 L559 616 L554 605 " stroke = "#000000" stroke-width = "2" fill = "none" />	<path d = "M625 650 L625 600 L575 600 L575 650 L625 650 Z" stroke = "#000000" stroke-width = "2" fill = "none" />  <path d="M608.8387583475061 633.8389030122154           A12.50000000000001 12.50000000000001 0 0 1 591.1610888178434 633.838897235249" fill = "none" stroke = "#000000" stroke-width = "2" />
  <path d="M591.1610888178434 633.838897235249           A12.50000000000001 12.50000000000001 0 0 1 591.1610945948096 616.1612277055863" fill = "none" stroke = "#000000" stroke-width = "2" />
  <path d="M591.1610945948096 616.1612277055863           A12.50000000000001 12.50000000000001 0 0 1 608.8387641244723 616.1612334825525" fill = "none" stroke = "#000000" stroke-width = "2" />
	<path d = "M597 621 L609 616 L604 605 " stroke = "#000000" stroke-width = "2" fill = "none" />	<path d = "M675 650 L675 600 L625 600 L625 650 L675 650 Z" stroke = "#000000" stroke-width = "2" fill = "none" />  <path d="M658.8387583475038 633.838919351943           A12.50000000000001 12.50000000000001 0 0 1 641.1610888178411 633.8389135749768" fill = "none" stroke = "#000000" stroke-width = "2" />
  <path d="M641.1610888178411 633.8389135749768           A12.50000000000001 12.50000000000001 0 0 1 641.1610945948071 616.1612440453141" fill = "none" stroke = "#000000" stroke-width = "2" />
  <path d="M641.1610945948071 616.1612440453141           A12.50000000000001 12.50000000000001 0 0 1 658.8387641244698 616.1612498222801" fill = "none" stroke = "#000000" stroke-width = "2" />
	<path d = "M647 621 L659 616 L654 605 " stroke = "#000000" stroke-width = "2" fill = "none" />	<path d = "M75 725 L75 675 L25 675 L25 725 L75 725 Z" stroke = "#000000" stroke-width = "2" fill = "none" />  <path d="M58.83873383794469 708.8387232752143           A12.50000000000001 12.50000000000001 0 0 1 41.16106430828197 708.8387174982483" fill = "none" stroke = "#000000" stroke-width = "2" />
  <path d="M41.16106430828197 708.8387174982483           A12.50000000000001 12.50000000000001 0 0 1 41.16107008524774 691.1610479685856" fill = "none" stroke = "#000000" stroke-width = "2" />
  <path d="M41.16107008524774 691.1610479685856           A12.50000000000001 12.50000000000001 0 0 1 58.83873961491045 691.1610537455514" fill = "none" stroke = "#000000" stroke-width = "2" />
	<path d = "M47 696 L59 691 L54 680 " stroke = "#000000" stroke-width = "2" fill = "none" />	<path d = "M125 725 L125 675 L75 675 L75 725 L125 725 Z" stroke = "#000000" stroke-width = "2" fill = "none" />  <path d="M108.83873383794237 708.8387396149402           A12.50000000000001 12.50000000000001 0 0 1 91.16106430827966 708.8387338379747" fill = "none" stroke = "#000000" stroke-width = "2" />
  <path d="M91.16106430827966 708.8387338379747           A12.50000000000001 12.50000000000001 0 0 1 91.16107008524517 691.1610643083119" fill = "none" stroke = "#000000" stroke-width = "2" />
  <path d="M91.16107008524517 691.1610643083119           A12.50000000000001 12.50000000000001 0 0 1 108.83873961490788 691.1610700852774" fill = "none" stroke = "#000000" stroke-width = "2" />
	<path d = "M97 696 L109 691 L104 680 " stroke = "#000000" stroke-width = "2" fill = "none" />	<path d = "M175 725 L175 675 L125 675 L125 725 L175 725 Z" stroke = "#000000" stroke-width = "2" fill = "none" /><circle cx="137" cy = "712" r = "2" stroke = "#000000" stroke-width = "2" fill = "#000000" />
	<path d = "M137 712 L137 687 L162 687 " stroke = "#000000" stroke-width = "2" fill = "none" />	<path d = "M154 679 L162 687 L154 696 " stroke = "#000000" stroke-width = "2" fill = "none" />    <line x1="175" y1="725" x2="184" y2="716" style="stroke:#000000;stroke-width:2" />
    <line x1="187" y1="725" x2="196" y2="716" style="stroke:#000000;stroke-width:2" />
    <line x1="200" y1="725" x2="209" y2="716" style="stroke:#000000;stroke-width:2" />
    <line x1="212" y1="725" x2="221" y2="716" style="stroke:#000000;stroke-width:2" />
	<path d = "M225 725 L225 675 L175 675 L175 725 L225 725 Z" stroke = "#000000" stroke-width = "2" fill = "none" />    <line x1="187" y1="700" x2="212" y2="700" style="stroke:#000000;stroke-width:2" />
    <line x1="212" y1="700" x2="208" y2="704" style="stroke:#000000;stroke-width:2" />
    <line x1="212" y1="700" x2="208" y2="696" style="stroke:#000000;stroke-width:2" />
	<path d = "M275 725 L275 675 L225 675 L225 725 L275 725 Z" stroke = "#000000" stroke-width = "2" fill = "none" />  <path d="M241.1610700852372 691.1611133274891           A12.50000000000001 12.50000000000001 0 0 1 258.8387396148999 691.1611191044544" fill = "none" stroke = "#000000" stroke-width = "2" />
  <path d="M241.16106430827193 708.838782857152           A12.50000000000001 12.50000000000001 0 0 1 241.1610700852372 691.1611133274891" fill = "none" stroke = "#000000" stroke-width = "2" />
  <path d="M258.8387338379346 708.8387886341172           A12.50000000000001 12.50000000000001 0 0 1 241.16106430827193 708.838782857152" fill = "none" stroke = "#000000" stroke-width = "2" />
	<path d = "M254 720 L259 709 L247 704 " stroke = "#000000" stroke-width = "2" fill = "none" />	<path d = "M325 725 L325 675 L275 675 L275 725 L325 725 Z" stroke = "#000000" stroke-width = "2" fill = "none" />  <path d="M291.16107008523454 691.1611296672141           A12.50000000000001 12.50000000000001 0 0 1 308.8387396148973 691.1611354441796" fill = "none" stroke = "#000000" stroke-width = "2" />
  <path d="M291.1610643082689 708.8387991968768           A12.50000000000001 12.50000000000001 0 0 1 291.16107008523454 691.1611296672141" fill = "none" stroke = "#000000" stroke-width = "2" />
  <path d="M308.8387338379316 708.8388049738426           A12.50000000000001 12.50000000000001 0 0 1 291.1610643082689 708.8387991968768" fill = "none" stroke = "#000000" stroke-width = "2" />
	<path d = "M304 720 L309 709 L297 704 " stroke = "#000000" stroke-width = "2" fill = "none" />	<path d = "M375 725 L375 675 L325 675 L325 725 L375 725 Z" stroke = "#000000" stroke-width = "2" fill = "none" />  <path d="M341.161070085232 691.1611460069396           A12.50000000000001 12.50000000000001 0 0 1 358.8387396148947 691.1611517839056" fill = "none" stroke = "#000000" stroke-width = "2" />
  <path d="M341.1610643082659 708.8388155366023           A12.50000000000001 12.50000000000001 0 0 1 341.161070085232 691.1611460069396" fill = "none" stroke = "#000000" stroke-width = "2" />
  <path d="M358.83873383792866 708.8388213135685           A12.50000000000001 12.50000000000001 0 0 1 341.1610643082659 708.8388155366023" fill = "none" stroke = "#000000" stroke-width = "2" />
	<path d = "M354 720 L359 709 L347 704 " stroke = "#000000" stroke-width = "2" fill = "none" />	<path d = "M425 725 L425 675 L375 675 L375 725 L425 725 Z" stroke = "#000000" stroke-width = "2" fill = "none" />  <path d="M391.16107008522937 691.1611623466662           A12.50000000000001 12.50000000000001 0 0 1 408.83873961489206 691.1611681236326" fill = "none" stroke = "#000000" stroke-width = "2" />
  <path d="M391.16106430826295 708.838831876329           A12.50000000000001 12.50000000000001 0 0 1 391.16107008522937 691.1611623466662" fill = "none" stroke = "#000000" stroke-width = "2" />
  <path d="M408.83873383792564 708.8388376532954           A12.50000000000001 12.50000000000001 0 0 1 391.16106430826295 708.838831876329" fill = "none" stroke = "#000000" stroke-width = "2" />
	<path d = "M404 720 L409 709 L397 704 " stroke = "#000000" stroke-width = "2" fill = "none" />    <line x1="425" y1="725" x2="434" y2="716" style="stroke:#000000;stroke-width:2" />
    <line x1="437" y1="725" x2="446" y2="716" style="stroke:#000000;stroke-width:2" />
    <line x1="450" y1="725" x2="459" y2="716" style="stroke:#000000;stroke-width:2" />
    <line x1="462" y1="725" x2="471" y2="716" style="stroke:#000000;stroke-width:2" />
	<path d = "M475 725 L475 675 L425 675 L425 725 L475 725 Z" stroke = "#000000" stroke-width = "2" fill = "none" />    <line x1="437" y1="700" x2="462" y2="700" style="stroke:#000000;stroke-width:2" />
    <line x1="462" y1="700" x2="458" y2="704" style="stroke:#000000;stroke-width:2" />
    <line x1="462" y1="700" x2="458" y2="696" style="stroke:#000000;stroke-width:2" />
	<path d = "M525 725 L525 675 L475 675 L475 725 L525 725 Z" stroke = "#000000" stroke-width = "2" fill = "none" />	<path d = "M487 688 L512 688 L512 713 " stroke = "#000000" stroke-width = "2" fill = "none" />	<path d = "M504 704 L512 713 L521 704 " stroke = "#000000" stroke-width = "2" fill = "none" /><circle cx="512" cy = "713" r = "2" stroke = "#000000" stroke-width = "2" fill = "#000000" />
<circle cx="425" cy = "225" r = "149.76761962286434" stroke = "#000000" stroke-width = "16" fill = "none" />
	<path d = "M238 420 L313 290 L388 160 L462 290 L537 160 L612 30 " stroke = "#000000" stroke-width = "16" fill = "none" />	<path d = "M612 105 L612 30 L547 68 " stroke = "#000000" stroke-width = "16" fill = "none" /></svg>