<svg width="800" height="800" viewbox = "0 0 800 800"  xmlns="http://www.w3.org/2000/svg">
<!--<json>{
  "glyph": "0330,0332,0336,0332,0230,0231,0232,0233,0234,0235,0331,0331,0332,0332,0332,0332,0332,0332,0236,0237,0240,0241,0242,0336,0330,0330,0330,0332,0332,0332,0332,0332,0332,0332,0332,0332,0332,0336,0330,0333,0336,0331,0337,01015,01015,060,064,063,060,040,040,060,064,063,061,040,040,040,060,064,063,062,040,040,040,040,040,060,064,063,063,040,040,040,040,060,064,063,064,040,040,040,060,064,063,065,0365,0331,0331,0331,0331,0331,0331,0331,0331,01015,060,064,063,066,040,040,060,064,063,067,040,040,060,064,067,067,040,040,040,040,060,064,061,062,040,040,040,040,060,064,061,061,0365,0333,0333,0333,0330,0333,0336,0332,0332,0330,0337,0337,0337,0333,0333,0333,0333,0243,0331,0331,0332,0244,0330,0336,0330,0332,0336,0330,0332,0336,0331,0337,01015,060,064,061,060,0365,0331,0331,0331,0331,0331,0331,0331,0331,060,064,060,060,01015,0365,",
  "shapes": [
    "0220:0334,0336,0336,0336,0337,0362,0203,0335,0203,0334,0203,0335,0350,0335,0310,0337,0203,0203,0335,0335,0203,0203,0335,0335,0335,0336,0203,0334,0334,0203,0335,0335,0203,0363,0313,0304,0337,0337,0335,",
    "0221:0336,0321,0334,0336,0306,0362,0203,0335,0335,0203,0203,0335,0335,0203,0203,0335,0335,0203,0354,0304,0335,0337,0320,0337,",
    "0222:0336,0336,0333,0337,0321,0200,0336,0332,0337,0320,0337,",
    "0223:0336,0336,0334,0331,0337,0321,0305,0362,0203,0335,0203,0335,0203,0335,0203,0335,0203,0354,0335,0350,0335,0311,0337,0320,0201,0335,0335,0335,0335,0201,0335,0335,0335,0335,0201,0335,0335,0335,0335,0201,0335,0335,0335,0335,0201,0335,0335,0335,0336,0304,0313,0335,0336,0332,0337,0337,",
    "0224:0333,0200,0334,0321,0336,0336,0336,0333,0337,0337,0337,0342,0336,0336,0336,0332,0335,0337,0337,0337,0320,",
    "0225:0224,0336,0330,0332,0336,0331,0337,0221,",
    "0226:0224,0336,0330,0332,0336,0331,0337,0222,",
    "0227:0224,0336,0332,0336,0330,0337,0223,",
    "0230:0225,0330,0334,0336,0220,0335,0331,0331,0331,0333,0333,0337,0337,",
    "0231:0225,0330,0335,0336,0220,0334,0331,0331,0331,0333,0333,0337,0337,",
    "0232:0226,0330,0334,0336,0220,0335,0331,0331,0331,0333,0333,0337,0337,",
    "0233:0226,0330,0335,0336,0220,0334,0333,0333,0330,0337,0337,0331,",
    "0234:0227,0330,0336,0334,0220,0335,0333,0333,0331,0331,0331,0337,0337,",
    "0235:0227,0330,0335,0336,0220,0334,0333,0330,0333,0337,0337,0331,",
    "0236:0224,0336,0321,0330,0332,0336,0335,0331,0337,0342,0334,0333,0336,0333,0331,0331,0337,0337,0320,",
    "0237:0224,0336,0330,0332,0336,0321,0342,0335,0342,0335,0342,0335,0342,0335,0337,0333,0331,0337,0320,",
    "0240:0224,0336,0330,0336,0332,0332,0332,0335,0336,0321,0362,0203,0334,0203,0203,0335,0203,0203,0335,0203,0203,0334,0203,0364,0320,0334,0350,0336,0310,0362,0203,0335,0335,0335,0337,0203,0335,0335,0203,0335,0335,0335,0336,0203,0363,0304,0313,0337,0337,0337,0336,0332,0336,0337,0337,0333,0330,0337,0331,",
    "0241:0224,0336,0330,0332,0336,0200,0333,0200,0333,0331,0331,0337,0337,",
    "0242:0224,0336,0330,0332,0336,0332,01015,061,056,061,0365,0333,0333,0333,0331,0331,0337,0337,",
    "0243:0224,0336,0330,0332,0336,0331,0332,0336,0330,0337,061,056,060,061,0365,0333,0333,0333,0331,0331,0336,0330,0337,0337,0337,",
    "0244:0224,0336,0330,0332,0336,0334,0331,0337,0321,0342,0335,0336,0336,0331,0337,0342,0332,0332,0342,0333,0333,0333,0331,0331,0336,0330,0337,0337,0337,0320,",
    "0245:",
    "0246:",
    "0247:",
    "01220:0333,0200,0336,0330,0332,0336,0220,0333,0320,0331,0336,0333,0331,0331,0333,0337,0337,0337,",
    "01221:0333,0200,0336,0330,0332,0221,0336,0337,0333,0331,0337,",
    "01222:0333,0200,0336,0330,0332,0222,0336,0333,0331,0331,0333,0337,0337,",
    "01223:0333,0200,0336,0330,0332,0333,0332,0223,0336,0336,0333,0331,0333,0333,0331,0331,0333,0320,0331,0337,0337,0337,",
    "01224:0224,",
    "01225:0225,0333,0336,0331,0337,0337,",
    "01226:0226,0333,0336,0331,0337,0337,",
    "01227:0227,0333,0336,0331,0337,0337,",
    "01230:0230,",
    "01231:0231,",
    "01232:0232,",
    "01233:0233,",
    "01234:0234,",
    "01235:0235,",
    "01236:0236,",
    "01237:0237,",
    "01240:0240,",
    "01241:0241,",
    "01242:0242,",
    "01243:0243,",
    "01244:0244,",
    "01245:0333,0200,0336,0332,0336,0331,0337,0245,0333,0336,0330,0337,0337,",
    "01246:0333,0200,0330,0332,0336,0331,0336,0332,0337,0246,0333,0333,0336,0333,0331,0331,0337,0337,",
    "01247:0333,0200,0336,0330,0332,0337,0247,0336,0333,0331,0337,"
  ],
  "x0rel": 0.5,
  "y0rel": 0.5,
  "unitrel": 0.25,
  "theta0": -1.570796,
  "width": 800,
  "height": 800,
  "scale": 1,
  "backgroundimage": "",
  "style": {
    "color0": "black",
    "fill0": "black",
    "line0": 2,
    "color1": "black",
    "fill1": "black",
    "line1": 4,
    "color2": "red",
    "fill2": "red",
    "line2": 2,
    "color3": "orange",
    "fill3": "orange",
    "line3": 2,
    "color4": "yellow",
    "fill4": "yellow",
    "line4": 2,
    "color5": "green",
    "fill5": "green",
    "line5": 2,
    "color6": "blue",
    "fill6": "blue",
    "line6": 2,
    "color7": "purple",
    "fill7": "purple",
    "line7": 2
  },
  "controlbuttons": [
    196,
    198,
    200,
    203,
    128,
    216,
    217,
    218,
    219,
    220,
    221,
    222,
    223,
    27,
    8,
    134,
    225,
    192,
    16,
    17,
    145,
    151,
    146,
    152,
    153,
    154,
    155,
    157,
    158,
    159
  ]
}</json>-->	<path d = "M200 200 L200 100 L100 100 L100 200 L200 200 Z" stroke = "#000000" stroke-width = "2" fill = "none" />    <line x1="200" y1="187" x2="100" y2="187" style="stroke:#000000;stroke-width:4" />
	<path d = "M150 175 L138 175 L144 164 L150 153 L156 164 L163 175 L150 175 Z" stroke = "#000000" stroke-width = "4" fill = "none" />	<path d = "M150 125 L150 131 L144 131 L144 137 L138 131 L131 125 L138 119 L144 112 L144 119 L150 119 L150 125 Z" stroke = "#000000" stroke-width = "2" fill = "#000000" />	<path d = "M300 200 L300 100 L200 100 L200 200 L300 200 Z" stroke = "#000000" stroke-width = "2" fill = "none" />    <line x1="300" y1="187" x2="200" y2="187" style="stroke:#000000;stroke-width:4" />
	<path d = "M250 175 L238 175 L244 164 L250 153 L256 164 L263 175 L250 175 Z" stroke = "#000000" stroke-width = "4" fill = "none" />	<path d = "M250 125 L250 119 L256 119 L256 112 L263 119 L269 125 L263 131 L256 137 L256 131 L250 131 L250 125 Z" stroke = "#000000" stroke-width = "2" fill = "#000000" />	<path d = "M400 200 L400 100 L300 100 L300 200 L400 200 Z" stroke = "#000000" stroke-width = "2" fill = "none" />    <line x1="400" y1="188" x2="300" y2="187" style="stroke:#000000;stroke-width:4" />
	<path d = "M363 175 L363 150 L338 150 L338 175 L363 175 Z" stroke = "#000000" stroke-width = "4" fill = "none" />	<path d = "M350 125 L350 131 L344 131 L344 137 L338 131 L331 125 L338 119 L344 112 L344 119 L350 119 L350 125 Z" stroke = "#000000" stroke-width = "2" fill = "#000000" />	<path d = "M500 200 L500 100 L400 100 L400 200 L500 200 Z" stroke = "#000000" stroke-width = "2" fill = "none" />    <line x1="500" y1="188" x2="400" y2="188" style="stroke:#000000;stroke-width:4" />
	<path d = "M463 175 L463 150 L438 150 L438 175 L463 175 Z" stroke = "#000000" stroke-width = "4" fill = "none" />	<path d = "M450 125 L450 119 L456 119 L456 113 L463 119 L469 125 L463 131 L456 138 L456 131 L450 131 L450 125 Z" stroke = "#000000" stroke-width = "2" fill = "#000000" />	<path d = "M600 200 L600 100 L500 100 L500 200 L600 200 Z" stroke = "#000000" stroke-width = "2" fill = "none" />    <line x1="600" y1="188" x2="500" y2="188" style="stroke:#000000;stroke-width:4" />
	<path d = "M563 175 L538 175 L530 151 L550 137 L570 151 L563 175 Z" stroke = "#000000" stroke-width = "4" fill = "none" />    <line x1="563" y1="175" x2="530" y2="151" style="stroke:#000000;stroke-width:2" />
    <line x1="530" y1="151" x2="570" y2="151" style="stroke:#000000;stroke-width:2" />
    <line x1="570" y1="151" x2="538" y2="175" style="stroke:#000000;stroke-width:2" />
    <line x1="538" y1="175" x2="550" y2="137" style="stroke:#000000;stroke-width:2" />
    <line x1="550" y1="137" x2="563" y2="175" style="stroke:#000000;stroke-width:2" />
	<path d = "M550 125 L550 131 L544 131 L544 138 L538 131 L531 125 L538 119 L544 113 L544 119 L550 119 L550 125 Z" stroke = "#000000" stroke-width = "2" fill = "#000000" />	<path d = "M700 200 L700 100 L600 100 L600 200 L700 200 Z" stroke = "#000000" stroke-width = "2" fill = "none" />    <line x1="700" y1="188" x2="600" y2="188" style="stroke:#000000;stroke-width:4" />
	<path d = "M663 175 L638 175 L630 151 L650 137 L670 151 L663 175 Z" stroke = "#000000" stroke-width = "4" fill = "none" />    <line x1="663" y1="175" x2="630" y2="151" style="stroke:#000000;stroke-width:2" />
    <line x1="630" y1="151" x2="670" y2="151" style="stroke:#000000;stroke-width:2" />
    <line x1="670" y1="151" x2="638" y2="175" style="stroke:#000000;stroke-width:2" />
    <line x1="638" y1="175" x2="650" y2="137" style="stroke:#000000;stroke-width:2" />
    <line x1="650" y1="137" x2="663" y2="175" style="stroke:#000000;stroke-width:2" />
	<path d = "M650 125 L650 119 L656 119 L656 113 L663 119 L669 125 L663 131 L656 138 L656 131 L650 131 L650 125 Z" stroke = "#000000" stroke-width = "2" fill = "#000000" />	<path d = "M200 400 L200 300 L100 300 L100 400 L200 400 Z" stroke = "#000000" stroke-width = "2" fill = "none" />    <line x1="200" y1="387" x2="100" y2="387" style="stroke:#000000;stroke-width:4" />
    <line x1="125" y1="350" x2="175" y2="350" style="stroke:#000000;stroke-width:4" />
	<path d = "M300 400 L300 300 L200 300 L200 400 L300 400 Z" stroke = "#000000" stroke-width = "2" fill = "none" />    <line x1="300" y1="387" x2="200" y2="387" style="stroke:#000000;stroke-width:4" />
    <line x1="250" y1="350" x2="250" y2="325" style="stroke:#000000;stroke-width:4" />
    <line x1="250" y1="350" x2="275" y2="350" style="stroke:#000000;stroke-width:4" />
    <line x1="250" y1="350" x2="250" y2="375" style="stroke:#000000;stroke-width:4" />
    <line x1="250" y1="350" x2="225" y2="350" style="stroke:#000000;stroke-width:4" />
	<path d = "M400 400 L400 300 L300 300 L300 400 L400 400 Z" stroke = "#000000" stroke-width = "2" fill = "none" />    <line x1="400" y1="388" x2="300" y2="387" style="stroke:#000000;stroke-width:4" />
	<path d = "M325 350 L338 350 L338 337 L338 325 L350 325 L363 325 L363 337 L363 350 L375 350 " stroke = "#000000" stroke-width = "4" fill = "none" />	<path d = "M375 350 L375 344 L381 350 L375 356 L375 350 Z" stroke = "#000000" stroke-width = "2" fill = "#000000" />	<path d = "M500 400 L500 300 L400 300 L400 400 L500 400 Z" stroke = "#000000" stroke-width = "2" fill = "none" />    <line x1="500" y1="388" x2="400" y2="388" style="stroke:#000000;stroke-width:4" />
	<path d = "M450 350 L450 325 L425 325 L425 350 L450 350 Z" stroke = "#000000" stroke-width = "2" fill = "none" />	<path d = "M475 350 L475 325 L450 325 L450 350 L475 350 Z" stroke = "#000000" stroke-width = "2" fill = "none" />	<path d = "M600 400 L600 300 L500 300 L500 400 L600 400 Z" stroke = "#000000" stroke-width = "2" fill = "none" />    <line x1="600" y1="388" x2="500" y2="388" style="stroke:#000000;stroke-width:4" />
    <text x="525" y = "350" fill = "#000000" font-size = "25px" font-family = "Arial">1.1</text>
    <text x="125" y = "237" fill = "#000000" font-size = "25px" font-family = "Arial">0430  0431   0432     0433    0434   0435</text>
    <text x="125" y = "437" fill = "#000000" font-size = "25px" font-family = "Arial">0436  0437  0477    0412    0411</text>
	<path d = "M700 400 L700 300 L600 300 L600 400 L700 400 Z" stroke = "#000000" stroke-width = "2" fill = "none" />    <line x1="700" y1="388" x2="600" y2="388" style="stroke:#000000;stroke-width:4" />
    <text x="625" y = "363" fill = "#000000" font-size = "25px" font-family = "Arial">1.01</text>
	<path d = "M700 600 L700 500 L600 500 L600 600 L700 600 Z" stroke = "#000000" stroke-width = "2" fill = "none" />    <line x1="700" y1="588" x2="600" y2="588" style="stroke:#000000;stroke-width:4" />
    <line x1="675" y1="550" x2="625" y2="550" style="stroke:#000000;stroke-width:4" />
    <line x1="675" y1="563" x2="675" y2="538" style="stroke:#000000;stroke-width:4" />
    <line x1="625" y1="563" x2="625" y2="538" style="stroke:#000000;stroke-width:4" />
    <text x="625" y = "438" fill = "#000000" font-size = "25px" font-family = "Arial">0410</text>
    <text x="625" y = "638" fill = "#000000" font-size = "25px" font-family = "Arial">0400</text>
</svg>