<svg width="500" height="500" viewbox = "0 0 500 500"  xmlns="http://www.w3.org/2000/svg">
<!--<json>{
  "glyph": "0331,0331,0220,0222,0221,0231,0201,0225,0331,0334,0222,0222,0231,0220,0224,0331,0331,0334,0220,0220,0334,0334,0223,0331,0333,0333,0223,",
  "shapes": [
    "0220:0336,0336,0336,0336,0336,0201,0337,0201,0306,0334,0337,0201,0335,0335,0201,0201,0334,0334,0201,0201,0335,0335,0201,0201,0334,0334,0201,0201,0335,0335,0201,0201,0334,0334,0201,0335,0201,0336,0336,0201,0304,0337,0337,0337,0337,0337,",
    "0221:0336,0314,0336,0313,0337,0245,0245,0245,0245,0337,0314,0337,0313,0336,",
    "0222:0336,0336,0362,0203,0336,0203,0334,0364,0337,0342,0335,0335,0342,0332,0342,0335,0335,0342,0335,0336,0362,0203,0337,0203,0335,0364,0335,0337,0337,0335,0335,",
    "0223:0336,0331,0342,0337,0304,0336,0336,0335,0310,0201,0335,0350,0335,0337,0201,0335,0335,0201,0335,0335,0335,0336,0201,0304,0334,0313,0337,0337,0304,0336,0330,0337,",
    "0224:0336,0336,0336,0201,0330,0330,0337,0341,0330,0341,0330,0336,0201,0337,0337,0337,",
    "0225:0336,0336,0201,0330,0337,0334,0336,0336,0336,0336,0331,0337,0362,0203,0335,0337,0337,0337,0305,0352,0334,0203,0335,0304,0335,0336,0336,0336,0203,0363,0331,0334,0337,0337,0337,0305,0352,0334,0331,0335,0304,0336,0336,0336,0362,0335,0203,0334,0337,0337,0337,0305,0352,0335,0203,0334,0304,0334,0336,0336,0336,0203,0363,0335,0333,0337,0337,0337,0305,0352,0335,0331,0334,0304,0336,0336,0336,0336,0332,0337,0337,0337,0337,0336,0330,0337,0341,0331,0337,0336,0336,0331,0337,0337,",
    "0226:0336,0330,0337,0336,0341,0332,0336,0350,0335,0342,0335,0335,0342,0335,0335,0342,0335,0335,0342,0335,0304,0337,0337,0333,0336,0336,0350,0335,0342,0335,0335,0342,0335,0335,0342,0335,0335,0342,0335,0304,0337,0332,0330,0337,",
    "0227:0335,0312,0336,0306,0201,0334,0334,0313,0337,0201,0334,0334,0201,0334,0334,0336,0201,0304,0334,0312,0337,0313,0330,",
    "0230:0336,0336,0201,0334,0201,0335,0201,0335,0201,0201,0335,0201,0335,0201,0335,0330,0334,0330,0335,0201,0335,0201,0201,0335,0201,0335,0335,0330,0332,0201,0337,0337,",
    "0231:0336,0336,0336,0336,0347,0337,0337,0337,0337,",
    "0232:0336,0201,0336,0336,0330,0341,0331,0337,0337,0331,0337,",
    "0233:0342,0336,0330,0336,0336,0331,0334,0306,0362,0203,0335,0335,0203,0203,0335,0335,0203,0203,0335,0335,0203,0363,0330,0335,0335,0330,0330,0335,0331,0337,0342,0336,0330,0334,0337,0331,0336,0333,0335,0304,0334,0331,0331,0331,0337,0337,0337,0330,",
    "0234:0201,0336,0331,0350,0335,0336,0331,0337,0342,0336,0330,0334,0334,0331,0337,0342,0336,0330,0335,0337,0331,0304,0337,0330,",
    "0235:0331,0221,0333,0335,0335,0221,0335,0335,0330,",
    "0236:0201,0336,0336,0334,0306,0362,0336,0203,0335,0335,0203,0203,0335,0335,0203,0203,0335,0335,0203,0363,0304,0335,0337,0337,0337,0331,",
    "0237:0330,0335,0336,0336,0366,0337,0337,0333,0334,0334,0336,0336,0331,0367,0366,0335,0332,0337,0337,0331,0336,0336,0335,0367,0334,0337,0337,0330,",
    "0240:",
    "0241:",
    "0242:",
    "0243:",
    "0244:",
    "0245:0336,0366,0330,0333,0333,0336,0331,0337,0367,0335,0335,0366,0331,0333,0333,0367,0335,0335,0337,",
    "0246:",
    "0247:",
    "01220:0333,0200,0336,0332,0337,0220,0336,0333,0337,0331,",
    "01221:0333,0200,0336,0332,0330,0336,0331,0332,0337,0221,0333,0331,0336,0333,0336,0331,0337,0337,0337,0336,0336,0336,0331,0337,0337,0337,",
    "01222:0333,0200,0336,0332,0337,0222,0336,0333,0337,0331,",
    "01223:0333,0200,0336,0332,0337,0330,0223,0331,0336,0333,0337,",
    "01224:0333,0200,0336,0332,0337,0224,0336,0333,0337,0331,",
    "01225:0333,0200,0336,0330,0332,0336,0331,0337,0225,0333,0336,0331,0337,0337,",
    "01226:0333,0200,0336,0332,0336,0330,0337,0226,0331,0333,0336,0331,0337,0337,",
    "01227:0333,0200,0336,0332,0336,0330,0337,0227,0331,0336,0331,0337,0333,0337,",
    "01230:0333,0200,0336,0332,0337,0230,0336,0333,0337,0331,",
    "01231:0333,0200,0336,0332,0337,0342,0336,0330,0335,0342,0335,0342,0335,0342,0335,0337,0231,0336,0333,0331,0337,",
    "01232:0333,0200,0336,0330,0332,0336,0331,0337,0232,0333,0336,0331,0337,0337,",
    "01233:0333,0200,0336,0330,0332,0336,0331,0337,0233,0331,0336,0333,0333,0331,0337,0337,",
    "01234:0333,0200,0336,0330,0332,0336,0331,0333,0332,0337,0234,0333,0331,0336,0331,0337,0337,",
    "01235:0333,0200,0336,0330,0332,0336,0332,0330,0337,0235,0331,0336,0333,0331,0337,0337,",
    "01236:0333,0200,0336,0330,0332,0336,0331,0337,0236,0336,0333,0331,0333,0337,0337,",
    "01237:0333,0200,0336,0330,0332,0336,0237,",
    "01240:0240,0333,0333,",
    "01241:0241,0333,0333,",
    "01242:0242,0333,0333,",
    "01243:0333,0200,0332,0336,0330,0337,0243,0336,0331,0337,",
    "01244:0333,0200,0332,0336,0330,0337,0244,0336,0331,0337,",
    "01245:0333,0200,0336,0330,0332,0336,0331,0332,0337,0245,0331,0336,0333,0333,0333,0336,0331,0337,0337,0337,",
    "01246:0333,0200,0330,0332,0336,0331,0336,0332,0337,0246,0333,0333,0336,0333,0331,0331,0337,0337,",
    "01247:0333,0200,0336,0330,0332,0337,0247,0336,0333,0331,0337,"
  ],
  "x0rel": 0.5,
  "y0rel": 0.5,
  "unitrel": 0.1,
  "theta0": -1.570796,
  "width": 500,
  "height": 500,
  "scale": 1,
  "backgroundimage": "",
  "style": {
    "color0": "black",
    "fill0": "black",
    "line0": 2,
    "color1": "black",
    "fill1": "black",
    "line1": 5,
    "color2": "red",
    "fill2": "red",
    "line2": 2,
    "color3": "#FF7900",
    "fill3": "#FF7900",
    "line3": 2,
    "color4": "yellow",
    "fill4": "yellow",
    "line4": 2,
    "color5": "green",
    "fill5": "green",
    "line5": 2,
    "color6": "blue",
    "fill6": "blue",
    "line6": 2,
    "color7": "purple",
    "fill7": "purple",
    "line7": 2
  },
  "controlbuttons": [
    196,
    128,
    216,
    217,
    218,
    219,
    220,
    221,
    222,
    223,
    8,
    225,
    192,
    16,
    17,
    144,
    145,
    146,
    147,
    148,
    149,
    150,
    151,
    152,
    153,
    154,
    155,
    156,
    157,
    158,
    159,
    129
  ]
}</json>-->    <line x1="250" y1="350" x2="250" y2="348" style="stroke:#000000;stroke-width:2" />
    <line x1="250" y1="348" x2="250" y2="345" style="stroke:#000000;stroke-width:2" />
    <line x1="250" y1="345" x2="245" y2="342" style="stroke:#000000;stroke-width:2" />
    <line x1="245" y1="342" x2="250" y2="339" style="stroke:#000000;stroke-width:2" />
    <line x1="250" y1="339" x2="255" y2="336" style="stroke:#000000;stroke-width:2" />
    <line x1="255" y1="336" x2="250" y2="333" style="stroke:#000000;stroke-width:2" />
    <line x1="250" y1="333" x2="245" y2="330" style="stroke:#000000;stroke-width:2" />
    <line x1="245" y1="330" x2="250" y2="327" style="stroke:#000000;stroke-width:2" />
    <line x1="250" y1="327" x2="255" y2="323" style="stroke:#000000;stroke-width:2" />
    <line x1="255" y1="323" x2="250" y2="320" style="stroke:#000000;stroke-width:2" />
    <line x1="250" y1="320" x2="245" y2="317" style="stroke:#000000;stroke-width:2" />
    <line x1="245" y1="317" x2="250" y2="314" style="stroke:#000000;stroke-width:2" />
    <line x1="250" y1="314" x2="255" y2="311" style="stroke:#000000;stroke-width:2" />
    <line x1="255" y1="311" x2="250" y2="308" style="stroke:#000000;stroke-width:2" />
    <line x1="250" y1="308" x2="250" y2="302" style="stroke:#000000;stroke-width:2" />
    <line x1="250" y1="302" x2="250" y2="300" style="stroke:#000000;stroke-width:2" />
	<path d = "M250 300 L250 287 L250 281 " stroke = "#000000" stroke-width = "2" fill = "none" />    <line x1="250" y1="281" x2="237" y2="281" style="stroke:#000000;stroke-width:2" />
    <line x1="250" y1="281" x2="262" y2="281" style="stroke:#000000;stroke-width:2" />
    <line x1="250" y1="269" x2="262" y2="269" style="stroke:#000000;stroke-width:2" />
    <line x1="250" y1="269" x2="237" y2="269" style="stroke:#000000;stroke-width:2" />
	<path d = "M250 269 L250 262 L250 250 " stroke = "#000000" stroke-width = "2" fill = "none" /><path    d = "M250,250 C250,242 267,238 267,246" fill = "none" stroke-width = "2" stroke = "#000000" /><path    d = "M267,246 C267,254 250,246 250,238" fill = "none" stroke-width = "2" stroke = "#000000" /><path    d = "M250,238 C250,229 267,225 267,233" fill = "none" stroke-width = "2" stroke = "#000000" /><path    d = "M267,233 C267,242 250,233 250,225" fill = "none" stroke-width = "2" stroke = "#000000" /><path    d = "M250,225 C250,217 267,213 267,221" fill = "none" stroke-width = "2" stroke = "#000000" /><path    d = "M267,221 C267,229 250,221 250,213" fill = "none" stroke-width = "2" stroke = "#000000" /><path    d = "M250,213 C250,204 267,200 267,208" fill = "none" stroke-width = "2" stroke = "#000000" /><path    d = "M267,208 C267,217 250,208 250,200" fill = "none" stroke-width = "2" stroke = "#000000" />    <circle cx="250" cy = "200" r = "3.125" stroke = "#000000" stroke-width = "2" fill = "#000000" />
    <line x1="250" y1="200" x2="250" y2="150" style="stroke:#000000;stroke-width:2" />
    <line x1="250" y1="150" x2="250" y2="138" style="stroke:#000000;stroke-width:2" />
	<path d = "M252 125 L248 125 L238 102 L241 102 Z" stroke = "#000000" stroke-width = "2" fill = "#000000" />	<path d = "M248 125 L252 125 L262 102 L259 102 Z" stroke = "#000000" stroke-width = "2" fill = "#000000" /><circle cx="250" cy = "113" r = "25" stroke = "#000000" stroke-width = "2" fill = "none" />
	<path d = "M250 200 L238 200 L231 200 " stroke = "#000000" stroke-width = "2" fill = "none" />    <line x1="231" y1="200" x2="231" y2="212" style="stroke:#000000;stroke-width:2" />
    <line x1="231" y1="200" x2="231" y2="187" style="stroke:#000000;stroke-width:2" />
    <line x1="219" y1="200" x2="219" y2="187" style="stroke:#000000;stroke-width:2" />
    <line x1="219" y1="200" x2="219" y2="212" style="stroke:#000000;stroke-width:2" />
	<path d = "M219 200 L213 200 L200 200 " stroke = "#000000" stroke-width = "2" fill = "none" />	<path d = "M200 200 L188 200 L181 200 " stroke = "#000000" stroke-width = "2" fill = "none" />    <line x1="181" y1="200" x2="181" y2="212" style="stroke:#000000;stroke-width:2" />
    <line x1="181" y1="200" x2="181" y2="187" style="stroke:#000000;stroke-width:2" />
    <line x1="169" y1="200" x2="169" y2="187" style="stroke:#000000;stroke-width:2" />
    <line x1="169" y1="200" x2="169" y2="212" style="stroke:#000000;stroke-width:2" />
	<path d = "M169 200 L163 200 L150 200 " stroke = "#000000" stroke-width = "2" fill = "none" />    <circle cx="150" cy = "200" r = "3.125" stroke = "#000000" stroke-width = "2" fill = "#000000" />
    <line x1="150" y1="200" x2="148" y2="200" style="stroke:#000000;stroke-width:2" />
    <line x1="148" y1="200" x2="145" y2="200" style="stroke:#000000;stroke-width:2" />
    <line x1="145" y1="200" x2="142" y2="205" style="stroke:#000000;stroke-width:2" />
    <line x1="142" y1="205" x2="139" y2="200" style="stroke:#000000;stroke-width:2" />
    <line x1="139" y1="200" x2="136" y2="195" style="stroke:#000000;stroke-width:2" />
    <line x1="136" y1="195" x2="133" y2="200" style="stroke:#000000;stroke-width:2" />
    <line x1="133" y1="200" x2="130" y2="205" style="stroke:#000000;stroke-width:2" />
    <line x1="130" y1="205" x2="127" y2="200" style="stroke:#000000;stroke-width:2" />
    <line x1="127" y1="200" x2="123" y2="195" style="stroke:#000000;stroke-width:2" />
    <line x1="123" y1="195" x2="120" y2="200" style="stroke:#000000;stroke-width:2" />
    <line x1="120" y1="200" x2="117" y2="205" style="stroke:#000000;stroke-width:2" />
    <line x1="117" y1="205" x2="114" y2="200" style="stroke:#000000;stroke-width:2" />
    <line x1="114" y1="200" x2="111" y2="195" style="stroke:#000000;stroke-width:2" />
    <line x1="111" y1="195" x2="108" y2="200" style="stroke:#000000;stroke-width:2" />
    <line x1="108" y1="200" x2="102" y2="200" style="stroke:#000000;stroke-width:2" />
    <line x1="102" y1="200" x2="100" y2="200" style="stroke:#000000;stroke-width:2" />
    <line x1="100" y1="200" x2="94" y2="200" style="stroke:#000000;stroke-width:2" />
<circle cx="81" cy = "200" r = "12.5" stroke = "#000000" stroke-width = "2" fill = "none" />
<circle cx="69" cy = "200" r = "12.5" stroke = "#000000" stroke-width = "2" fill = "none" />
    <line x1="56" y1="200" x2="50" y2="200" style="stroke:#000000;stroke-width:2" />
    <line x1="150" y1="200" x2="150" y2="202" style="stroke:#000000;stroke-width:2" />
    <line x1="150" y1="202" x2="150" y2="205" style="stroke:#000000;stroke-width:2" />
    <line x1="150" y1="205" x2="155" y2="208" style="stroke:#000000;stroke-width:2" />
    <line x1="155" y1="208" x2="150" y2="211" style="stroke:#000000;stroke-width:2" />
    <line x1="150" y1="211" x2="145" y2="214" style="stroke:#000000;stroke-width:2" />
    <line x1="145" y1="214" x2="150" y2="217" style="stroke:#000000;stroke-width:2" />
    <line x1="150" y1="217" x2="155" y2="220" style="stroke:#000000;stroke-width:2" />
    <line x1="155" y1="220" x2="150" y2="223" style="stroke:#000000;stroke-width:2" />
    <line x1="150" y1="223" x2="145" y2="227" style="stroke:#000000;stroke-width:2" />
    <line x1="145" y1="227" x2="150" y2="230" style="stroke:#000000;stroke-width:2" />
    <line x1="150" y1="230" x2="155" y2="233" style="stroke:#000000;stroke-width:2" />
    <line x1="155" y1="233" x2="150" y2="236" style="stroke:#000000;stroke-width:2" />
    <line x1="150" y1="236" x2="145" y2="239" style="stroke:#000000;stroke-width:2" />
    <line x1="145" y1="239" x2="150" y2="242" style="stroke:#000000;stroke-width:2" />
    <line x1="150" y1="242" x2="150" y2="248" style="stroke:#000000;stroke-width:2" />
    <line x1="150" y1="248" x2="150" y2="250" style="stroke:#000000;stroke-width:2" />
    <line x1="150" y1="250" x2="150" y2="252" style="stroke:#000000;stroke-width:2" />
    <line x1="150" y1="252" x2="150" y2="255" style="stroke:#000000;stroke-width:2" />
    <line x1="150" y1="255" x2="155" y2="258" style="stroke:#000000;stroke-width:2" />
    <line x1="155" y1="258" x2="150" y2="261" style="stroke:#000000;stroke-width:2" />
    <line x1="150" y1="261" x2="145" y2="264" style="stroke:#000000;stroke-width:2" />
    <line x1="145" y1="264" x2="150" y2="267" style="stroke:#000000;stroke-width:2" />
    <line x1="150" y1="267" x2="155" y2="270" style="stroke:#000000;stroke-width:2" />
    <line x1="155" y1="270" x2="150" y2="273" style="stroke:#000000;stroke-width:2" />
    <line x1="150" y1="273" x2="145" y2="277" style="stroke:#000000;stroke-width:2" />
    <line x1="145" y1="277" x2="150" y2="280" style="stroke:#000000;stroke-width:2" />
    <line x1="150" y1="280" x2="155" y2="283" style="stroke:#000000;stroke-width:2" />
    <line x1="155" y1="283" x2="150" y2="286" style="stroke:#000000;stroke-width:2" />
    <line x1="150" y1="286" x2="145" y2="289" style="stroke:#000000;stroke-width:2" />
    <line x1="145" y1="289" x2="150" y2="292" style="stroke:#000000;stroke-width:2" />
    <line x1="150" y1="292" x2="150" y2="298" style="stroke:#000000;stroke-width:2" />
    <line x1="150" y1="298" x2="150" y2="300" style="stroke:#000000;stroke-width:2" />
    <line x1="150" y1="325" x2="150" y2="300" style="stroke:#000000;stroke-width:2" />
    <line x1="150" y1="325" x2="162" y2="325" style="stroke:#000000;stroke-width:2" />
    <line x1="162" y1="325" x2="150" y2="337" style="stroke:#000000;stroke-width:2" />
    <line x1="150" y1="337" x2="137" y2="325" style="stroke:#000000;stroke-width:2" />
    <line x1="137" y1="325" x2="150" y2="325" style="stroke:#000000;stroke-width:2" />
    <line x1="250" y1="375" x2="250" y2="350" style="stroke:#000000;stroke-width:2" />
    <line x1="250" y1="375" x2="262" y2="375" style="stroke:#000000;stroke-width:2" />
    <line x1="262" y1="375" x2="250" y2="387" style="stroke:#000000;stroke-width:2" />
    <line x1="250" y1="387" x2="237" y2="375" style="stroke:#000000;stroke-width:2" />
    <line x1="237" y1="375" x2="250" y2="375" style="stroke:#000000;stroke-width:2" />
</svg>