<svg width="500" height="500" viewbox = "0 0 500 500"  xmlns="http://www.w3.org/2000/svg">
<!--<json>{
  "glyph": "0337,0210,0322,0225,0335,0323,0335,0334,0225,0335,0324,0225,0335,0325,0335,0334,0225,0335,0326,0335,0224,0230,0330,0335,0327,0226,0330,0335,0335,0335,0334,0334,0334,0334,0331,0335,0335,0226,0330,0334,0331,0335,0335,0226,0335,0334,0330,0334,0331,0335,0335,0226,0330,0334,0331,0335,0335,0226,0330,0334,0331,0335,0335,0226,0330,0334,0331,0335,0335,0226,0330,0334,0331,0335,0335,0226,0330,0334,0331,0335,0335,0226,0330,0334,0331,0335,0335,0226,0330,0320,0335,0362,0203,0335,0335,0335,0203,0305,0334,0203,0335,0350,0335,0203,0334,0334,0203,0335,0335,0335,0203,0334,0334,0203,0335,0335,0335,0203,0334,0334,0203,0335,0335,0335,0203,0334,0334,0203,0335,0335,0335,0203,0334,0334,0203,0335,0335,0335,0203,0334,0334,0203,0335,0335,0335,0203,0334,0334,0203,0335,0335,0335,0203,0334,0334,0203,0335,0335,0335,0203,0354,0335,0201,0334,0334,0334,0201,0335,0335,0335,0335,0201,0334,0334,0334,0201,0335,0335,0335,0335,0201,0334,0334,0334,0201,0335,0335,0335,0335,0201,0334,0334,0334,0201,0335,0335,0335,0335,0201,0334,0334,0334,0201,0335,0335,0335,0335,0201,0334,0334,0334,0201,0335,0335,0335,0335,0201,0334,0334,0334,0201,0335,0335,0335,0335,0334,0335,0201,0334,0334,0334,0201,0335,0335,0335,0335,0201,0334,0334,0334,0201,0335,0335,0335,0335,0201,0334,0334,0334,0201,",
  "shapes": [
    "0220:0305,0311,0362,0203,0334,0350,0334,0203,0334,0334,0334,0334,0336,0203,0335,0203,0363,0334,0334,0334,0334,0337,0305,0350,",
    "0221:0305,0311,0362,0203,0335,0350,0335,0203,0335,0335,0335,0335,0336,0203,0334,0203,0363,0335,0335,0335,0337,0335,0305,0350,",
    "0222:0305,0311,0350,0334,0336,0362,0203,0334,0203,0334,0334,0334,0337,0203,0334,0334,0334,0203,0363,0334,0334,0305,0350,",
    "0223:0311,0305,0350,0335,0336,0362,0203,0335,0203,0335,0335,0335,0337,0203,0335,0335,0335,0203,0363,0335,0335,0305,0350,",
    "0224:0305,0350,0311,0362,0203,0334,0203,0334,0334,0334,0334,0203,0334,0203,0363,0334,0334,0334,0334,",
    "0225:0305,0350,0311,0362,0203,0335,0203,0335,0335,0335,0335,0203,0335,0203,0363,0335,0335,0335,0335,",
    "0226:0305,0350,0311,0362,0203,0334,0334,0203,0334,0334,0334,0203,0334,0334,0203,0363,0334,0334,0334,",
    "0227:0305,0350,0311,0362,0203,0335,0335,0203,0335,0335,0335,0203,0335,0335,0203,0363,0335,0335,0335,",
    "0230:0322,0225,0335,0323,0335,0334,0225,0335,0324,0225,0335,0325,0335,0334,0225,0335,0326,0335,0224,",
    "0231:",
    "0232:",
    "0233:",
    "0234:",
    "0235:",
    "0236:",
    "0237:",
    "0240:0334,0336,0336,0366,0337,0337,0333,0335,0335,0336,0336,0367,0334,0337,0337,",
    "0241:",
    "0242:",
    "0243:",
    "0244:",
    "0245:",
    "0246:",
    "0247:",
    "01220:0333,0200,0336,0336,0331,0337,0330,0332,0220,0313,0304,0313,0336,0333,0333,0331,0337,0337,",
    "01221:0333,0200,0336,0336,0330,0332,0332,0332,0337,0221,0304,0313,0333,0336,0333,0331,0337,0337,",
    "01222:0333,0200,0336,0330,0332,0336,0331,0333,0337,0222,0304,0313,0336,0333,0331,0337,0337,",
    "01223:0333,0200,0336,0330,0332,0336,0331,0337,0223,0313,0304,0333,0336,0331,0337,0337,",
    "01224:0333,0200,0336,0330,0332,0336,0331,0337,0224,0313,0304,0333,0336,0331,0337,0337,",
    "01225:0333,0200,0336,0330,0332,0331,0336,0330,0337,0225,0304,0313,0336,0333,0333,0331,0337,0337,",
    "01226:0333,0200,0336,0330,0332,0336,0331,0337,0226,0313,0304,0333,0336,0331,0337,0337,",
    "01227:0333,0200,0336,0336,0330,0332,0337,0332,0227,0313,0304,0336,0331,0332,0337,0337,0333,",
    "01230:0333,0200,0336,0330,0332,0230,0331,0304,0333,0337,",
    "01231:0333,0200,0332,0336,0330,0333,0336,0336,0330,0332,0231,0333,0333,0331,0331,0331,0333,0333,0331,0331,0333,0337,0337,0337,0337,0336,",
    "01232:0333,0200,0336,0330,0332,0331,0232,0331,0331,0331,0333,0337,",
    "01233:0333,0200,0336,0332,0337,0336,0330,0332,0336,0331,0333,0337,0332,0233,0331,0336,0330,0337,0337,",
    "01234:0333,0200,0336,0330,0332,0332,0332,0336,0333,0337,0234,0333,0333,0333,0331,0336,0333,0331,0337,0337,0337,0210,0210,0337,0336,",
    "01235:0333,0200,0235,",
    "01236:0333,0200,0236,",
    "01237:0333,0200,0336,0330,0332,0332,0237,0331,0336,0332,0337,0337,",
    "01240:0333,0200,0336,0332,0336,0330,0337,0240,0333,0336,0330,0337,0337,0331,",
    "01241:0333,0200,0336,0332,0241,0333,0337,",
    "01242:0333,0200,0336,0332,0332,0336,0330,0330,0242,0336,0331,0331,0331,0331,0332,0337,0337,0337,",
    "01243:0333,0200,0336,0332,0332,0243,0337,",
    "01244:0333,0200,0332,0336,0330,0336,0336,0243,0243,0243,0243,0331,0331,0331,0331,0337,0337,0337,",
    "01245:0333,0200,0336,0332,0336,0331,0337,0245,0333,0336,0330,0337,0337,",
    "01246:0333,0200,0330,0332,0336,0331,0336,0332,0337,0246,0333,0333,0336,0333,0331,0331,0337,0337,",
    "01247:0333,0200,0336,0330,0332,0337,0247,0336,0333,0331,0337,"
  ],
  "x0rel": 0.5,
  "y0rel": 0.5,
  "unitrel": 0.1,
  "theta0": -1.570796,
  "width": 500,
  "height": 500,
  "scale": 1,
  "backgroundimage": "",
  "style": {
    "color0": "black",
    "fill0": "black",
    "line0": 2,
    "color1": "black",
    "fill1": "black",
    "line1": 5,
    "color2": "red",
    "fill2": "red",
    "line2": 2,
    "color3": "#FF7900",
    "fill3": "#FF7900",
    "line3": 2,
    "color4": "yellow",
    "fill4": "yellow",
    "line4": 2,
    "color5": "#00ff00",
    "fill5": "#00ff00",
    "line5": 2,
    "color6": "blue",
    "fill6": "blue",
    "line6": 2,
    "color7": "purple",
    "fill7": "purple",
    "line7": 2
  },
  "controlbuttons": [
    196,
    198,
    200,
    203,
    128,
    216,
    217,
    218,
    219,
    220,
    221,
    222,
    223,
    27,
    8,
    134,
    225,
    192,
    16,
    17,
    145,
    151,
    146
  ]
}</json>-->	<path d = "M250 250 L250 163 L301 92 L301 179 L250 250 Z" stroke = "#ff0000" stroke-width = "2" fill = "#ff0000" />	<path d = "M250 250 L301 179 L384 152 L333 223 L250 250 Z" stroke = "#ff7900" stroke-width = "2" fill = "#ff7900" />	<path d = "M250 250 L333 223 L416 250 L333 277 L250 250 Z" stroke = "#ffff00" stroke-width = "2" fill = "#ffff00" />	<path d = "M250 250 L333 277 L384 348 L301 321 L250 250 Z" stroke = "#00ff00" stroke-width = "2" fill = "#00ff00" />	<path d = "M250 250 L250 337 L301 408 L301 321 L250 250 Z" stroke = "#0000ff" stroke-width = "2" fill = "#0000ff" />	<path d = "M250 250 L250 337 L199 408 L199 321 L250 250 Z" stroke = "#ff0000" stroke-width = "2" fill = "#ff0000" />	<path d = "M250 250 L199 321 L116 348 L167 277 L250 250 Z" stroke = "#ff7900" stroke-width = "2" fill = "#ff7900" />	<path d = "M250 250 L167 277 L84 250 L167 223 L250 250 Z" stroke = "#ffff00" stroke-width = "2" fill = "#ffff00" />	<path d = "M250 250 L167 223 L116 152 L199 179 L250 250 Z" stroke = "#00ff00" stroke-width = "2" fill = "#00ff00" />	<path d = "M250 250 L250 163 L199 92 L199 179 L250 250 Z" stroke = "#0000ff" stroke-width = "2" fill = "#0000ff" />	<path d = "M250 163 L301 92 L250 21 L199 92 L250 163 Z" stroke = "#800080" stroke-width = "2" fill = "#800080" />	<path d = "M301 179 L384 152 L384 65 L301 92 L301 179 Z" stroke = "#800080" stroke-width = "2" fill = "#800080" />	<path d = "M333 223 L416 250 L468 179 L384 152 L333 223 Z" stroke = "#800080" stroke-width = "2" fill = "#800080" />	<path d = "M333 277 L384 348 L468 321 L416 250 L333 277 Z" stroke = "#800080" stroke-width = "2" fill = "#800080" />	<path d = "M301 321 L301 408 L384 435 L384 348 L301 321 Z" stroke = "#800080" stroke-width = "2" fill = "#800080" />	<path d = "M250 337 L199 408 L250 479 L301 408 L250 337 Z" stroke = "#800080" stroke-width = "2" fill = "#800080" />	<path d = "M199 321 L116 348 L116 435 L199 408 L199 321 Z" stroke = "#800080" stroke-width = "2" fill = "#800080" />	<path d = "M167 277 L84 250 L32 321 L116 348 L167 277 Z" stroke = "#800080" stroke-width = "2" fill = "#800080" />	<path d = "M167 223 L116 152 L32 179 L84 250 L167 223 Z" stroke = "#800080" stroke-width = "2" fill = "#800080" />	<path d = "M199 179 L199 92 L116 65 L116 152 L199 179 Z" stroke = "#800080" stroke-width = "2" fill = "#800080" />	<path d = "M199 92 L250 21 L301 92 L384 65 L384 152 L468 179 L416 250 L468 321 L384 348 L384 435 L301 408 L250 479 L199 408 L116 435 L116 348 L32 321 L84 250 L32 179 L116 152 L116 65 L199 92 Z" stroke = "#000000" stroke-width = "2" fill = "none" />    <line x1="199" y1="92" x2="250" y2="163" style="stroke:#000000;stroke-width:2" />
    <line x1="250" y1="163" x2="301" y2="92" style="stroke:#000000;stroke-width:2" />
    <line x1="301" y1="92" x2="301" y2="179" style="stroke:#000000;stroke-width:2" />
    <line x1="301" y1="179" x2="384" y2="152" style="stroke:#000000;stroke-width:2" />
    <line x1="384" y1="152" x2="333" y2="223" style="stroke:#000000;stroke-width:2" />
    <line x1="333" y1="223" x2="416" y2="250" style="stroke:#000000;stroke-width:2" />
    <line x1="416" y1="250" x2="333" y2="277" style="stroke:#000000;stroke-width:2" />
    <line x1="333" y1="277" x2="384" y2="348" style="stroke:#000000;stroke-width:2" />
    <line x1="384" y1="348" x2="301" y2="321" style="stroke:#000000;stroke-width:2" />
    <line x1="301" y1="321" x2="301" y2="408" style="stroke:#000000;stroke-width:2" />
    <line x1="301" y1="408" x2="250" y2="337" style="stroke:#000000;stroke-width:2" />
    <line x1="250" y1="337" x2="199" y2="408" style="stroke:#000000;stroke-width:2" />
    <line x1="199" y1="408" x2="199" y2="321" style="stroke:#000000;stroke-width:2" />
    <line x1="199" y1="321" x2="116" y2="348" style="stroke:#000000;stroke-width:2" />
    <line x1="116" y1="348" x2="167" y2="277" style="stroke:#000000;stroke-width:2" />
    <line x1="167" y1="277" x2="84" y2="250" style="stroke:#000000;stroke-width:2" />
    <line x1="84" y1="250" x2="167" y2="223" style="stroke:#000000;stroke-width:2" />
    <line x1="167" y1="223" x2="116" y2="152" style="stroke:#000000;stroke-width:2" />
    <line x1="116" y1="152" x2="199" y2="179" style="stroke:#000000;stroke-width:2" />
    <line x1="199" y1="179" x2="199" y2="92" style="stroke:#000000;stroke-width:2" />
</svg>