<svg width="700" height="700" viewbox = "0 0 700 700"  xmlns="http://www.w3.org/2000/svg"><!--<json>{
  "glyph": "0210,0210,0210,0331,0336,0336,0336,0331,0331,0331,0332,0332,0337,0337,0337,0332,0335,0311,0305,0336,0201,0350,0334,0334,0334,0337,0201,0334,0334,0334,0334,0201,0334,0334,0334,0336,0330,0334,0334,0337,0201,0334,0334,0334,0336,0201,0335,0335,0337,0201,0335,0335,0335,0336,0201,0335,0335,0335,0337,0201,0334,0334,0334,0336,0330,0334,0334,0334,0337,0201,0335,0335,0335,0336,0201,0335,0335,0335,0337,0201,0334,0201,0335,0335,0335,0336,0201,0331,0335,0335,0335,0337,0201,0334,0334,0334,0336,0342,0335,0335,0337,0342,0331,0342,0334,0334,0336,0342,0335,0335,0335,0337,0201,0334,0334,0334,0336,0201,0335,0335,0335,0337,0201,0334,0334,0334,0336,0201,0331,0334,0334,0334,0337,0201,0201,0335,0335,0335,0336,0201,0335,0335,0335,0337,0330,0201,0334,0334,0334,0336,0201,0331,0335,0335,0337,0201,0334,0334,0334,0334,0201,0335,0335,0335,0335,0201,0334,0334,0334,0334,0201,0335,0335,0335,0335,0201,0334,0334,0334,0334,0201,0335,0335,0335,0335,0201,0334,0334,0334,0334,0201,0331,0334,0334,0334,0334,0336,0335,0201,0201,0201,0335,0335,0334,0334,0331,0335,0335,0337,0322,0225,0334,0336,0330,0334,0337,0331,0334,0350,0335,0225,0350,0335,0330,0335,0335,0335,0335,0330,0335,0335,0335,0335,0335,0225,0334,0336,0330,0330,0335,0337,0225,0334,0336,0330,0335,0337,0225,0330,0335,0350,0335,0336,0334,0335,0335,0335,0337,0225,0334,0336,0330,0335,0337,0225,0334,0336,0330,0335,0337,0330,0225,0335,0336,0335,0350,0334,0330,0330,0330,0334,0334,0334,0337,0225,0334,0336,0330,0335,0337,0225,0334,0336,0330,0335,0337,0225,0330,0335,0350,0335,0336,0330,0335,0335,0337,0225,0334,0336,0331,0335,0337,0225,0334,0336,0331,0335,0337,0225,0331,0225,0334,0336,0330,0335,0337,0225,0334,0336,0330,0335,0337,0225,0334,0336,0330,0335,0337,0225,0330,0350,0334,0334,0334,0334,0334,0225,0334,0336,0330,0335,0337,0225,0334,0336,0330,0335,0337,0225,",
  "shapes": [
    "0220:0313,0304,0336,0332,0337,0342,0336,0333,0330,0334,0337,0342,0335,0336,0331,0332,0333,0336,0332,0337,0342,0336,0333,0334,0333,0337,0342,0335,0336,0331,0336,0332,0337,0342,0336,0333,0330,0334,0337,0342,0335,0336,0331,0336,0332,0337,0342,0336,0333,0330,0334,0337,0342,0335,0336,0331,0336,0332,0337,0342,0336,0333,0330,0334,0337,0342,0335,0336,0331,0337,0337,0337,0337,0337,0336,0336,0336,0336,0336,0336,0332,0337,0342,0336,0333,0334,0333,0337,0342,0335,0336,0331,0337,0337,0337,0337,0337,0337,0332,0336,0336,0336,0330,0336,0333,0330,0337,0336,0333,0337,01304,01313,0331,0331,0333,0333,0333,0333,0333,0336,0330,0337,0337,0337,0337,",
    "0221:0304,0334,0306,0336,0330,0335,0201,0335,0335,0201,0335,0335,0201,0335,0304,0335,0336,0330,0336,0331,0332,0330,0336,0333,0337,01306,0331,0331,0336,0332,0337,0337,0337,0333,0337,",
    "0222:0350,0335,0310,0336,0201,0334,0334,0334,0336,0201,0335,0335,0335,0336,0201,0334,0334,0334,0336,0201,0335,0335,0335,0336,0201,0334,0334,0334,0336,0201,0335,0335,0335,0336,0201,0334,0334,0334,0336,0201,0335,0335,0335,0336,0201,0334,0334,0330,0335,0337,0337,0337,0337,0337,0337,0337,0337,0337,0331,0304,0313,0336,0330,0333,0336,0331,0336,0331,0332,0336,0332,0337,01304,01350,01310,0331,0331,0332,0332,0332,0332,0330,0332,0336,0332,0337,0337,0337,0337,",
    "0223:0304,0335,0330,0334,0334,0306,0350,0335,0312,0336,0313,0337,0330,0334,0334,0334,0334,0313,0336,0330,0334,0334,0334,0334,0334,0334,0330,0335,0335,0335,0335,0312,0335,0312,0336,0313,0337,0201,0335,0335,0335,0335,0335,0312,0336,0201,0334,0334,0334,0334,0334,0336,0201,0335,0335,0335,0335,0335,0336,0201,0334,0334,0334,0334,0334,0334,0335,0336,0201,0331,0335,0334,0334,0337,0330,0335,0337,0331,0334,0337,0330,0335,0337,0331,0334,0337,0330,0334,0313,0336,0312,0337,0331,0334,0334,0334,0313,0304,0313,0336,0336,0330,0333,0333,0336,0331,0332,0336,0331,0337,01312,0331,0332,0332,0332,0332,0336,0330,0337,0337,0337,0337,",
    "0224:0304,0313,0335,0311,0305,0350,0330,0334,0334,0334,0334,0336,0330,0334,0334,0330,0335,0337,0335,0335,0335,0335,0336,0330,0335,0335,0335,0336,0201,0334,0334,0334,0336,0201,0335,0335,0335,0336,0201,0334,0334,0334,0336,0201,0335,0335,0335,0336,0201,0334,0334,0334,0336,0201,0335,0335,0335,0334,0330,0334,0337,0337,0337,0337,0337,0337,0336,0331,0334,0334,0334,0330,0335,0335,0337,0331,0335,0304,0337,0334,0313,0336,0336,0336,0333,0333,0333,0336,0330,0332,0337,0336,0336,0331,0332,0337,0337,01305,01311,0331,0332,0332,0332,0332,0336,0330,0336,0330,0332,0337,0337,0337,0337,0337,",
    "0225:0305,0311,0334,0336,0330,0335,0337,0350,0335,0330,0335,0335,0335,0335,0330,0335,0335,0335,0336,0335,0201,0335,0335,0335,0335,0336,0201,0334,0334,0334,0334,0201,0335,0335,0335,0335,0336,0201,0334,0334,0334,0334,0201,0335,0335,0335,0335,0336,0201,0334,0334,0334,0334,0201,0335,0335,0335,0335,0336,0201,0334,0334,0334,0334,0201,0335,0335,0335,0335,0336,0201,0334,0334,0334,0334,0201,0335,0335,0335,0335,0336,0201,0334,0334,0334,0334,0201,0335,0335,0335,0335,0336,0201,0334,0334,0334,0337,0330,0337,0337,0337,0337,0337,0337,0337,0331,0305,",
    "0226:0313,0304,0335,0306,0350,0312,0330,0334,0334,0334,0334,0334,0336,0330,0334,0334,0330,0331,0334,0336,0342,0334,0334,0342,0330,0334,0336,0331,0342,0335,0335,0335,0335,0342,0334,0336,0342,0334,0334,0342,0330,0334,0336,0331,0342,0335,0335,0335,0335,0342,0334,0336,0342,0334,0334,0342,0334,0337,0330,0335,0337,0331,0334,0337,0330,0335,0337,0331,0313,0336,0312,0335,0337,0342,0330,0335,0335,0335,0337,0330,0335,0335,0335,0313,0337,0304,0313,",
    "0227:0331,0220,0333,0332,0222,0333,0330,0332,0335,0335,0332,0223,0335,0335,0221,0312,0336,0331,0306,0334,0313,0337,0330,0335,0304,0335,0335,0336,0312,0337,0313,0304,0330,0335,0330,0335,0330,0335,0330,0334,0331,0335,0330,0334,0334,0350,0310,0337,0335,0330,0336,0335,0304,0335,0306,0334,0330,0335,0335,0330,0335,0335,0330,0335,0335,0304,0334,0226,0335,0306,0350,0334,0312,0336,0330,0335,0335,0330,0331,0334,0334,0331,0337,0313,0304,0332,0225,0335,0305,0334,0311,0336,0330,0335,0350,0335,0337,0304,0334,0224,0335,0305,0350,0334,0311,0336,0330,0335,0335,0335,0335,0335,0304,0305,0330,0334,0334,0311,0337,0330,0335,0335,0304,0335,0313,",
    "0230:0331,0200,0335,0201,0334,0334,0350,0335,0310,0337,0201,0335,0304,0335,0336,0201,0335,0312,0336,0201,0335,0306,0350,0335,0313,0337,0201,0334,0313,0336,0312,0337,0304,0335,0335,0306,0334,0201,0335,0335,0342,0335,0350,0335,0312,0336,0201,0334,0334,0201,0335,0335,0335,0337,0313,0304,0335,0332,0335,0305,0334,0311,0336,0201,0335,0350,0335,0337,0342,0334,0336,0201,0335,0335,0201,0335,0335,0335,0337,0313,0304,0335,",
    "0231:0350,0310,0362,0203,0335,0335,0203,0335,0335,0335,0337,0203,0363,0324,0334,0334,0334,0336,0362,0203,0335,0334,0334,0337,0203,0334,0334,0334,0334,0335,0336,0203,0334,0337,0203,0363,0335,0320,0336,0331,0335,0335,0335,0337,0362,0203,0335,0335,0335,0336,0203,0335,0335,0203,0363,0331,0304,0335,0313,",
    "0232:0336,0336,0336,0336,0336,0362,0203,0337,0203,0306,0334,0337,0203,0335,0335,0203,0203,0334,0334,0203,0203,0335,0335,0203,0203,0334,0334,0203,0203,0335,0335,0203,0203,0334,0334,0203,0335,0203,0336,0336,0203,0304,0337,0337,0337,0337,0337,0364,",
    "0233:0336,0336,0362,0203,0336,0203,0334,0364,0337,0330,0335,0335,0337,0342,0336,0330,0332,0331,0337,0342,0336,0330,0334,0336,0362,0203,0337,0203,0335,0364,0335,0337,0337,0335,0335,",
    "0234:0336,0366,0330,0333,0333,0336,0331,0337,0367,0335,0335,0366,0331,0333,0333,0367,0335,0335,0337,",
    "0235:0313,0336,0314,0336,0313,0337,0234,0234,0234,0234,0314,0337,0313,",
    "0236:0336,0336,0336,0336,0347,0337,0337,0337,0337,",
    "0237:0246,0331,0332,0331,0246,0330,0333,0331,0331,0333,0246,0332,0330,",
    "0240:0304,0313,0200,0336,0332,0350,0335,0310,0337,0304,0313,",
    "0241:0350,0310,0336,0334,0304,0313,0333,0337,",
    "0242:0240,0240,0240,0240,0240,0240,0240,0240,0241,0241,0241,0241,0241,0241,0241,0241,",
    "0243:0306,0201,0335,0335,0201,0335,0335,0201,0336,0331,0335,",
    "0244:0305,0322,0311,0350,0362,0203,0335,0203,0335,0335,0335,0335,0203,0335,0203,0363,0320,0335,0335,0335,0335,0362,0203,0335,0203,0335,0335,0335,0335,0203,0335,0203,0354,0335,0335,0335,0335,",
    "0245:0326,0305,0350,0311,0362,0203,0335,0335,0203,0335,0335,0335,0203,0335,0335,0203,0363,0320,0335,0335,0335,0362,0203,0335,0335,0203,0335,0335,0335,0203,0335,0335,0203,0354,0335,0335,0335,",
    "0246:0306,0322,0362,0203,0334,0203,0334,0334,0203,0334,0203,0334,0363,0334,0325,0362,0203,0335,0203,0335,0335,0203,0335,0203,0363,0335,0335,0330,0326,0334,0362,0203,0335,0335,0203,0335,0203,0335,0335,0203,0363,0320,0335,0201,0335,0335,0201,0335,0201,0335,0335,0201,0334,0201,0335,0335,0201,0335,0201,0335,0333,0201,0335,0335,0201,0335,0201,0335,0335,0330,0331,0314,",
    "0247:0330,0336,0336,0336,0331,01300,01301,01302,01303,01304,01305,01306,01307,0337,0337,0337,0332,0336,0336,0336,0331,01310,01311,01312,01313,01314,01315,01316,01317,0337,0337,0337,0332,0336,0336,0336,0331,01320,01321,01322,01323,01324,01325,01326,01327,0337,0337,0337,0332,0336,0336,0336,0331,01330,01331,01332,01333,01334,01335,01336,01337,0337,0337,0337,0332,0336,0336,0336,0331,01340,01341,01342,01343,01344,01345,01346,01347,0337,0337,0337,0332,0336,0336,0336,0331,01350,01351,01352,01353,01354,01355,01356,01357,0337,0337,0337,0332,0336,0336,0336,0331,01360,01361,01362,01363,01364,01365,01366,01367,0337,0337,0337,0332,0336,0336,0336,0331,01370,01371,01372,01373,01374,01375,01376,01377,0337,0337,0337,0332,",
    "01220:0333,0200,0336,0330,0332,0336,0331,0333,0337,0220,0336,0331,0333,0337,0337,0320,",
    "01221:0333,0200,0336,0330,0332,0331,0336,0333,0330,0337,0221,0336,0331,0333,0337,0337,",
    "01222:0333,0200,0336,0330,0332,0336,0331,0333,0337,0332,0222,0333,0336,0333,0331,0337,0337,",
    "01223:0333,0200,0336,0336,0330,0332,0337,0223,0336,0331,0333,0337,0337,0320,",
    "01224:0333,0200,0336,0332,0330,0224,0333,0331,0337,",
    "01225:0333,0200,0336,0336,0330,0332,0332,0337,0225,0313,0304,0336,0331,0337,0333,0337,",
    "01226:0333,0200,0336,0330,0332,0332,0337,0226,0336,0331,0336,0333,0330,0333,0333,0331,0333,0337,0337,",
    "01227:0333,0200,0336,0330,0332,0210,0227,0211,0331,0333,0337,",
    "01230:0333,0200,0336,0330,0332,0336,0230,0337,0331,0333,0337,",
    "01231:0333,0200,0336,0330,0332,0336,0331,0332,0336,0330,0337,0231,0331,0333,0336,0331,0337,0337,0337,",
    "01232:0333,0200,0336,0330,0332,0331,0336,0330,0337,0232,0336,0330,0337,0333,0337,0331,",
    "01233:0333,0200,0336,0332,0336,0330,0337,0233,0336,0330,0333,0333,0337,0337,0331,",
    "01234:0333,0200,0336,0330,0332,0336,0331,0337,0234,0336,0330,0336,0330,0337,0337,0333,0337,0331,",
    "01235:0333,0200,0336,0332,0336,0330,0337,0235,0336,0330,0337,0333,0337,0331,",
    "01236:0333,0200,0336,0330,0332,0336,0342,0335,0342,0335,0342,0335,0342,0335,0337,0236,0331,0333,0337,",
    "01237:0333,0200,0336,0330,0332,0336,0237,0313,0337,0304,0313,0331,0333,0337,",
    "01240:0333,0200,0336,0330,0332,0336,0331,0333,0337,0240,0240,0241,0241,0336,0331,0333,0337,0337,",
    "01241:0333,0200,0336,0330,0332,0336,0331,0333,0337,0240,0240,0241,0241,0336,0330,0332,0336,0334,0330,0337,0201,0336,0336,0306,0350,0335,0335,0335,0336,0362,0203,0334,0334,0334,0334,0337,0203,0334,0334,0334,0334,0203,0334,0334,0334,0334,0336,0203,0363,0313,0304,0337,0337,0332,0337,0337,0331,0337,0333,",
    "01242:0333,0200,0242,",
    "01243:0333,0200,0336,0330,0332,0336,0331,0337,0306,0201,0335,0335,0201,0335,0335,0201,0335,0335,0313,0304,0336,0331,0333,0333,0337,0337,",
    "01244:0333,0200,0336,0330,0332,0336,0331,0337,0244,0313,0304,0336,0331,0337,0333,0337,",
    "01245:0333,0200,0336,0330,0332,0336,0331,0337,0245,0313,0304,0336,0331,0337,0333,0337,",
    "01246:0333,0200,0336,0330,0332,0336,0331,0246,0313,0331,0313,0304,0333,0333,0337,0337,",
    "01247:0247,0333,"
  ],
  "x0rel": 0.5,
  "y0rel": 0.5,
  "unitrel": 0.4,
  "theta0": -1.570796,
  "width": 700,
  "height": 700,
  "scale": 1,
  "backgroundimage": "",
  "style": {
    "color0": "black",
    "fill0": "black",
    "line0": 1,
    "color1": "black",
    "fill1": "black",
    "line1": 3,
    "color2": "red",
    "fill2": "red",
    "line2": 1,
    "color3": "#FF7900",
    "fill3": "#FF7900",
    "line3": 1,
    "color4": "yellow",
    "fill4": "yellow",
    "line4": 1,
    "color5": "#00ff00",
    "fill5": "#00ff00",
    "line5": 1,
    "color6": "blue",
    "fill6": "blue",
    "line6": 1,
    "color7": "#ff1493",
    "fill7": "#ff1493",
    "line7": 1
  },
  "controlbuttons": [
    196,
    197,
    198,
    232,
    233,
    200,
    201,
    202,
    203,
    204,
    208,
    209,
    210,
    211,
    212,
    213,
    214,
    215,
    216,
    217,
    218,
    219,
    220,
    221,
    222,
    223,
    225,
    227,
    129,
    128,
    146,
    149,
    147,
    145,
    150,
    154,
    155,
    157,
    159,
    164,
    165,
    16,
    8,
    17
  ]
}</json>-->  
   <line x1="116" y1="607" x2="232" y2="607" style="stroke:#000000;stroke-width:1" />
    <line x1="232" y1="607" x2="174" y2="429" style="stroke:#000000;stroke-width:1" />
    <line x1="174" y1="429" x2="116" y2="607" style="stroke:#000000;stroke-width:1" />
    <line x1="232" y1="607" x2="290" y2="429" style="stroke:#000000;stroke-width:1" />
    <line x1="290" y1="429" x2="174" y2="429" style="stroke:#000000;stroke-width:1" />
    <line x1="174" y1="429" x2="116" y2="251" style="stroke:#000000;stroke-width:1" />
    <line x1="116" y1="251" x2="232" y2="251" style="stroke:#000000;stroke-width:1" />
    <line x1="232" y1="251" x2="174" y2="429" style="stroke:#000000;stroke-width:1" />
    <line x1="290" y1="429" x2="232" y2="251" style="stroke:#000000;stroke-width:1" />
    <line x1="232" y1="251" x2="347" y2="251" style="stroke:#000000;stroke-width:1" />
    <line x1="347" y1="251" x2="290" y2="429" style="stroke:#000000;stroke-width:1" />
    <line x1="290" y1="429" x2="347" y2="607" style="stroke:#000000;stroke-width:1" />
    <line x1="347" y1="607" x2="232" y2="607" style="stroke:#000000;stroke-width:1" />
    <line x1="347" y1="607" x2="405" y2="429" style="stroke:#000000;stroke-width:1" />
    <line x1="405" y1="429" x2="290" y2="429" style="stroke:#000000;stroke-width:1" />
    <line x1="405" y1="429" x2="347" y2="251" style="stroke:#000000;stroke-width:1" />
    <line x1="463" y1="607" x2="405" y2="429" style="stroke:#000000;stroke-width:1" />
    <line x1="463" y1="607" x2="347" y2="607" style="stroke:#000000;stroke-width:1" />
    <line x1="463" y1="607" x2="521" y2="429" style="stroke:#000000;stroke-width:1" />
    <line x1="521" y1="429" x2="405" y2="429" style="stroke:#000000;stroke-width:1" />
    <line x1="405" y1="429" x2="463" y2="251" style="stroke:#000000;stroke-width:1" />
    <line x1="463" y1="251" x2="347" y2="251" style="stroke:#000000;stroke-width:1" />
    <line x1="463" y1="251" x2="521" y2="429" style="stroke:#000000;stroke-width:1" />
    <line x1="521" y1="429" x2="578" y2="607" style="stroke:#000000;stroke-width:1" />
    <line x1="578" y1="607" x2="463" y2="607" style="stroke:#000000;stroke-width:1" />
    <line x1="521" y1="429" x2="578" y2="251" style="stroke:#000000;stroke-width:1" />
    <line x1="578" y1="251" x2="463" y2="251" style="stroke:#000000;stroke-width:1" />
    <line x1="578" y1="251" x2="521" y2="74" style="stroke:#000000;stroke-width:1" />
    <line x1="521" y1="74" x2="463" y2="251" style="stroke:#000000;stroke-width:1" />
    <line x1="463" y1="251" x2="405" y2="74" style="stroke:#000000;stroke-width:1" />
    <line x1="405" y1="74" x2="347" y2="251" style="stroke:#000000;stroke-width:1" />
    <line x1="347" y1="251" x2="290" y2="74" style="stroke:#000000;stroke-width:1" />
    <line x1="290" y1="74" x2="232" y2="251" style="stroke:#000000;stroke-width:1" />
    <line x1="232" y1="251" x2="174" y2="74" style="stroke:#000000;stroke-width:1" />
    <line x1="174" y1="74" x2="116" y2="251" style="stroke:#000000;stroke-width:1" />
    <line x1="174" y1="74" x2="290" y2="74" style="stroke:#000000;stroke-width:1" />
    <line x1="290" y1="74" x2="405" y2="74" style="stroke:#000000;stroke-width:1" />
    <line x1="405" y1="74" x2="521" y2="74" style="stroke:#000000;stroke-width:1" />
    <line x1="405" y1="74" x2="499" y2="142" style="stroke:#ff0000;stroke-width:1" />
    <line x1="499" y1="142" x2="427" y2="142" style="stroke:#ff0000;stroke-width:1" />
    <line x1="427" y1="142" x2="485" y2="184" style="stroke:#ff0000;stroke-width:1" />
    <line x1="485" y1="184" x2="441" y2="184" style="stroke:#ff0000;stroke-width:1" />
    <line x1="441" y1="184" x2="477" y2="209" style="stroke:#ff0000;stroke-width:1" />
    <line x1="477" y1="209" x2="449" y2="209" style="stroke:#ff0000;stroke-width:1" />
    <line x1="449" y1="209" x2="471" y2="226" style="stroke:#ff0000;stroke-width:1" />
    <line x1="471" y1="226" x2="455" y2="226" style="stroke:#ff0000;stroke-width:1" />
    <line x1="455" y1="226" x2="468" y2="235" style="stroke:#ff0000;stroke-width:1" />
    <line x1="468" y1="235" x2="458" y2="235" style="stroke:#ff0000;stroke-width:1" />
    <line x1="458" y1="235" x2="466" y2="242" style="stroke:#ff0000;stroke-width:1" />
    <line x1="466" y1="242" x2="460" y2="242" style="stroke:#ff0000;stroke-width:1" />
    <line x1="460" y1="242" x2="465" y2="245" style="stroke:#ff0000;stroke-width:1" />
    <line x1="465" y1="245" x2="461" y2="245" style="stroke:#ff0000;stroke-width:1" />
    <line x1="463" y1="251" x2="369" y2="184" style="stroke:#ff0000;stroke-width:1" />
    <line x1="369" y1="184" x2="441" y2="184" style="stroke:#ff0000;stroke-width:1" />
    <line x1="441" y1="184" x2="383" y2="142" style="stroke:#ff0000;stroke-width:1" />
    <line x1="383" y1="142" x2="427" y2="142" style="stroke:#ff0000;stroke-width:1" />
    <line x1="427" y1="142" x2="392" y2="116" style="stroke:#ff0000;stroke-width:1" />
    <line x1="392" y1="116" x2="419" y2="116" style="stroke:#ff0000;stroke-width:1" />
    <line x1="419" y1="116" x2="397" y2="100" style="stroke:#ff0000;stroke-width:1" />
    <line x1="397" y1="100" x2="414" y2="100" style="stroke:#ff0000;stroke-width:1" />
    <line x1="414" y1="100" x2="400" y2="90" style="stroke:#ff0000;stroke-width:1" />
    <line x1="400" y1="90" x2="410" y2="90" style="stroke:#ff0000;stroke-width:1" />
    <line x1="410" y1="90" x2="402" y2="84" style="stroke:#ff0000;stroke-width:1" />
    <line x1="402" y1="84" x2="408" y2="84" style="stroke:#ff0000;stroke-width:1" />
    <line x1="408" y1="84" x2="403" y2="80" style="stroke:#ff0000;stroke-width:1" />
    <line x1="403" y1="80" x2="407" y2="80" style="stroke:#ff0000;stroke-width:1" />
    <line x1="578" y1="251" x2="485" y2="184" style="stroke:#ff0000;stroke-width:1" />
    <line x1="485" y1="184" x2="556" y2="184" style="stroke:#ff0000;stroke-width:1" />
    <line x1="556" y1="184" x2="499" y2="142" style="stroke:#ff0000;stroke-width:1" />
    <line x1="499" y1="142" x2="543" y2="142" style="stroke:#ff0000;stroke-width:1" />
    <line x1="543" y1="142" x2="507" y2="116" style="stroke:#ff0000;stroke-width:1" />
    <line x1="507" y1="116" x2="534" y2="116" style="stroke:#ff0000;stroke-width:1" />
    <line x1="534" y1="116" x2="512" y2="100" style="stroke:#ff0000;stroke-width:1" />
    <line x1="512" y1="100" x2="529" y2="100" style="stroke:#ff0000;stroke-width:1" />
    <line x1="529" y1="100" x2="516" y2="90" style="stroke:#ff0000;stroke-width:1" />
    <line x1="516" y1="90" x2="526" y2="90" style="stroke:#ff0000;stroke-width:1" />
    <line x1="526" y1="90" x2="517" y2="84" style="stroke:#ff0000;stroke-width:1" />
    <line x1="517" y1="84" x2="524" y2="84" style="stroke:#ff0000;stroke-width:1" />
    <line x1="524" y1="84" x2="519" y2="80" style="stroke:#ff0000;stroke-width:1" />
    <line x1="519" y1="80" x2="523" y2="80" style="stroke:#ff0000;stroke-width:1" />
    <line x1="347" y1="251" x2="254" y2="184" style="stroke:#ff0000;stroke-width:1" />
    <line x1="254" y1="184" x2="325" y2="184" style="stroke:#ff0000;stroke-width:1" />
    <line x1="325" y1="184" x2="268" y2="142" style="stroke:#ff0000;stroke-width:1" />
    <line x1="268" y1="142" x2="312" y2="142" style="stroke:#ff0000;stroke-width:1" />
    <line x1="312" y1="142" x2="276" y2="116" style="stroke:#ff0000;stroke-width:1" />
    <line x1="276" y1="116" x2="303" y2="116" style="stroke:#ff0000;stroke-width:1" />
    <line x1="303" y1="116" x2="281" y2="100" style="stroke:#ff0000;stroke-width:1" />
    <line x1="281" y1="100" x2="298" y2="100" style="stroke:#ff0000;stroke-width:1" />
    <line x1="298" y1="100" x2="284" y2="90" style="stroke:#ff0000;stroke-width:1" />
    <line x1="284" y1="90" x2="295" y2="90" style="stroke:#ff0000;stroke-width:1" />
    <line x1="295" y1="90" x2="286" y2="84" style="stroke:#ff0000;stroke-width:1" />
    <line x1="286" y1="84" x2="293" y2="84" style="stroke:#ff0000;stroke-width:1" />
    <line x1="293" y1="84" x2="288" y2="80" style="stroke:#ff0000;stroke-width:1" />
    <line x1="288" y1="80" x2="292" y2="80" style="stroke:#ff0000;stroke-width:1" />
    <line x1="232" y1="251" x2="138" y2="184" style="stroke:#ff0000;stroke-width:1" />
    <line x1="138" y1="184" x2="210" y2="184" style="stroke:#ff0000;stroke-width:1" />
    <line x1="210" y1="184" x2="152" y2="142" style="stroke:#ff0000;stroke-width:1" />
    <line x1="152" y1="142" x2="196" y2="142" style="stroke:#ff0000;stroke-width:1" />
    <line x1="196" y1="142" x2="160" y2="116" style="stroke:#ff0000;stroke-width:1" />
    <line x1="160" y1="116" x2="188" y2="116" style="stroke:#ff0000;stroke-width:1" />
    <line x1="188" y1="116" x2="166" y2="100" style="stroke:#ff0000;stroke-width:1" />
    <line x1="166" y1="100" x2="183" y2="100" style="stroke:#ff0000;stroke-width:1" />
    <line x1="183" y1="100" x2="169" y2="90" style="stroke:#ff0000;stroke-width:1" />
    <line x1="169" y1="90" x2="179" y2="90" style="stroke:#ff0000;stroke-width:1" />
    <line x1="179" y1="90" x2="171" y2="84" style="stroke:#ff0000;stroke-width:1" />
    <line x1="171" y1="84" x2="177" y2="84" style="stroke:#ff0000;stroke-width:1" />
    <line x1="177" y1="84" x2="172" y2="80" style="stroke:#ff0000;stroke-width:1" />
    <line x1="172" y1="80" x2="176" y2="80" style="stroke:#ff0000;stroke-width:1" />
    <line x1="174" y1="74" x2="268" y2="142" style="stroke:#ff0000;stroke-width:1" />
    <line x1="268" y1="142" x2="196" y2="142" style="stroke:#ff0000;stroke-width:1" />
    <line x1="196" y1="142" x2="254" y2="184" style="stroke:#ff0000;stroke-width:1" />
    <line x1="254" y1="184" x2="210" y2="184" style="stroke:#ff0000;stroke-width:1" />
    <line x1="210" y1="184" x2="245" y2="209" style="stroke:#ff0000;stroke-width:1" />
    <line x1="245" y1="209" x2="218" y2="209" style="stroke:#ff0000;stroke-width:1" />
    <line x1="218" y1="209" x2="240" y2="226" style="stroke:#ff0000;stroke-width:1" />
    <line x1="240" y1="226" x2="223" y2="226" style="stroke:#ff0000;stroke-width:1" />
    <line x1="223" y1="226" x2="237" y2="235" style="stroke:#ff0000;stroke-width:1" />
    <line x1="237" y1="235" x2="227" y2="235" style="stroke:#ff0000;stroke-width:1" />
    <line x1="227" y1="235" x2="235" y2="242" style="stroke:#ff0000;stroke-width:1" />
    <line x1="235" y1="242" x2="229" y2="242" style="stroke:#ff0000;stroke-width:1" />
    <line x1="229" y1="242" x2="234" y2="245" style="stroke:#ff0000;stroke-width:1" />
    <line x1="234" y1="245" x2="230" y2="245" style="stroke:#ff0000;stroke-width:1" />
    <line x1="290" y1="74" x2="383" y2="142" style="stroke:#ff0000;stroke-width:1" />
    <line x1="383" y1="142" x2="312" y2="142" style="stroke:#ff0000;stroke-width:1" />
    <line x1="312" y1="142" x2="369" y2="184" style="stroke:#ff0000;stroke-width:1" />
    <line x1="369" y1="184" x2="325" y2="184" style="stroke:#ff0000;stroke-width:1" />
    <line x1="325" y1="184" x2="361" y2="209" style="stroke:#ff0000;stroke-width:1" />
    <line x1="361" y1="209" x2="334" y2="209" style="stroke:#ff0000;stroke-width:1" />
    <line x1="334" y1="209" x2="356" y2="226" style="stroke:#ff0000;stroke-width:1" />
    <line x1="356" y1="226" x2="339" y2="226" style="stroke:#ff0000;stroke-width:1" />
    <line x1="339" y1="226" x2="353" y2="235" style="stroke:#ff0000;stroke-width:1" />
    <line x1="353" y1="235" x2="342" y2="235" style="stroke:#ff0000;stroke-width:1" />
    <line x1="342" y1="235" x2="351" y2="242" style="stroke:#ff0000;stroke-width:1" />
    <line x1="351" y1="242" x2="344" y2="242" style="stroke:#ff0000;stroke-width:1" />
    <line x1="344" y1="242" x2="349" y2="245" style="stroke:#ff0000;stroke-width:1" />
    <line x1="349" y1="245" x2="345" y2="245" style="stroke:#ff0000;stroke-width:1" />
    <line x1="463" y1="251" x2="556" y2="319" style="stroke:#ff0000;stroke-width:1" />
    <line x1="556" y1="319" x2="485" y2="319" style="stroke:#ff0000;stroke-width:1" />
    <line x1="485" y1="319" x2="543" y2="361" style="stroke:#ff0000;stroke-width:1" />
    <line x1="543" y1="361" x2="499" y2="361" style="stroke:#ff0000;stroke-width:1" />
    <line x1="499" y1="361" x2="534" y2="387" style="stroke:#ff0000;stroke-width:1" />
    <line x1="534" y1="387" x2="507" y2="387" style="stroke:#ff0000;stroke-width:1" />
    <line x1="507" y1="387" x2="529" y2="403" style="stroke:#ff0000;stroke-width:1" />
    <line x1="529" y1="403" x2="512" y2="403" style="stroke:#ff0000;stroke-width:1" />
    <line x1="512" y1="403" x2="526" y2="413" style="stroke:#ff0000;stroke-width:1" />
    <line x1="526" y1="413" x2="516" y2="413" style="stroke:#ff0000;stroke-width:1" />
    <line x1="516" y1="413" x2="524" y2="419" style="stroke:#ff0000;stroke-width:1" />
    <line x1="524" y1="419" x2="517" y2="419" style="stroke:#ff0000;stroke-width:1" />
    <line x1="517" y1="419" x2="523" y2="423" style="stroke:#ff0000;stroke-width:1" />
    <line x1="523" y1="423" x2="519" y2="423" style="stroke:#ff0000;stroke-width:1" />
    <line x1="116" y1="251" x2="210" y2="319" style="stroke:#ff0000;stroke-width:1" />
    <line x1="210" y1="319" x2="138" y2="319" style="stroke:#ff0000;stroke-width:1" />
    <line x1="138" y1="319" x2="196" y2="361" style="stroke:#ff0000;stroke-width:1" />
    <line x1="196" y1="361" x2="152" y2="361" style="stroke:#ff0000;stroke-width:1" />
    <line x1="152" y1="361" x2="188" y2="387" style="stroke:#ff0000;stroke-width:1" />
    <line x1="188" y1="387" x2="160" y2="387" style="stroke:#ff0000;stroke-width:1" />
    <line x1="160" y1="387" x2="183" y2="403" style="stroke:#ff0000;stroke-width:1" />
    <line x1="183" y1="403" x2="166" y2="403" style="stroke:#ff0000;stroke-width:1" />
    <line x1="166" y1="403" x2="179" y2="413" style="stroke:#ff0000;stroke-width:1" />
    <line x1="179" y1="413" x2="169" y2="413" style="stroke:#ff0000;stroke-width:1" />
    <line x1="169" y1="413" x2="177" y2="419" style="stroke:#ff0000;stroke-width:1" />
    <line x1="177" y1="419" x2="171" y2="419" style="stroke:#ff0000;stroke-width:1" />
    <line x1="171" y1="419" x2="176" y2="423" style="stroke:#ff0000;stroke-width:1" />
    <line x1="176" y1="423" x2="172" y2="423" style="stroke:#ff0000;stroke-width:1" />
    <line x1="232" y1="251" x2="325" y2="319" style="stroke:#ff0000;stroke-width:1" />
    <line x1="325" y1="319" x2="254" y2="319" style="stroke:#ff0000;stroke-width:1" />
    <line x1="254" y1="319" x2="312" y2="361" style="stroke:#ff0000;stroke-width:1" />
    <line x1="312" y1="361" x2="268" y2="361" style="stroke:#ff0000;stroke-width:1" />
    <line x1="268" y1="361" x2="303" y2="387" style="stroke:#ff0000;stroke-width:1" />
    <line x1="303" y1="387" x2="276" y2="387" style="stroke:#ff0000;stroke-width:1" />
    <line x1="276" y1="387" x2="298" y2="403" style="stroke:#ff0000;stroke-width:1" />
    <line x1="298" y1="403" x2="281" y2="403" style="stroke:#ff0000;stroke-width:1" />
    <line x1="281" y1="403" x2="295" y2="413" style="stroke:#ff0000;stroke-width:1" />
    <line x1="295" y1="413" x2="284" y2="413" style="stroke:#ff0000;stroke-width:1" />
    <line x1="284" y1="413" x2="293" y2="419" style="stroke:#ff0000;stroke-width:1" />
    <line x1="293" y1="419" x2="286" y2="419" style="stroke:#ff0000;stroke-width:1" />
    <line x1="286" y1="419" x2="292" y2="423" style="stroke:#ff0000;stroke-width:1" />
    <line x1="292" y1="423" x2="288" y2="423" style="stroke:#ff0000;stroke-width:1" />
    <line x1="347" y1="251" x2="441" y2="319" style="stroke:#ff0000;stroke-width:1" />
    <line x1="441" y1="319" x2="369" y2="319" style="stroke:#ff0000;stroke-width:1" />
    <line x1="369" y1="319" x2="427" y2="361" style="stroke:#ff0000;stroke-width:1" />
    <line x1="427" y1="361" x2="383" y2="361" style="stroke:#ff0000;stroke-width:1" />
    <line x1="383" y1="361" x2="419" y2="387" style="stroke:#ff0000;stroke-width:1" />
    <line x1="419" y1="387" x2="392" y2="387" style="stroke:#ff0000;stroke-width:1" />
    <line x1="392" y1="387" x2="414" y2="403" style="stroke:#ff0000;stroke-width:1" />
    <line x1="414" y1="403" x2="397" y2="403" style="stroke:#ff0000;stroke-width:1" />
    <line x1="397" y1="403" x2="410" y2="413" style="stroke:#ff0000;stroke-width:1" />
    <line x1="410" y1="413" x2="400" y2="413" style="stroke:#ff0000;stroke-width:1" />
    <line x1="400" y1="413" x2="408" y2="419" style="stroke:#ff0000;stroke-width:1" />
    <line x1="408" y1="419" x2="402" y2="419" style="stroke:#ff0000;stroke-width:1" />
    <line x1="402" y1="419" x2="407" y2="423" style="stroke:#ff0000;stroke-width:1" />
    <line x1="407" y1="423" x2="403" y2="423" style="stroke:#ff0000;stroke-width:1" />
    <line x1="290" y1="429" x2="196" y2="361" style="stroke:#ff0000;stroke-width:1" />
    <line x1="196" y1="361" x2="268" y2="361" style="stroke:#ff0000;stroke-width:1" />
    <line x1="268" y1="361" x2="210" y2="319" style="stroke:#ff0000;stroke-width:1" />
    <line x1="210" y1="319" x2="254" y2="319" style="stroke:#ff0000;stroke-width:1" />
    <line x1="254" y1="319" x2="218" y2="293" style="stroke:#ff0000;stroke-width:1" />
    <line x1="218" y1="293" x2="245" y2="293" style="stroke:#ff0000;stroke-width:1" />
    <line x1="245" y1="293" x2="223" y2="277" style="stroke:#ff0000;stroke-width:1" />
    <line x1="223" y1="277" x2="240" y2="277" style="stroke:#ff0000;stroke-width:1" />
    <line x1="240" y1="277" x2="227" y2="267" style="stroke:#ff0000;stroke-width:1" />
    <line x1="227" y1="267" x2="237" y2="267" style="stroke:#ff0000;stroke-width:1" />
    <line x1="237" y1="267" x2="229" y2="261" style="stroke:#ff0000;stroke-width:1" />
    <line x1="229" y1="261" x2="235" y2="261" style="stroke:#ff0000;stroke-width:1" />
    <line x1="235" y1="261" x2="230" y2="258" style="stroke:#ff0000;stroke-width:1" />
    <line x1="230" y1="258" x2="234" y2="258" style="stroke:#ff0000;stroke-width:1" />
    <line x1="405" y1="429" x2="312" y2="361" style="stroke:#ff0000;stroke-width:1" />
    <line x1="312" y1="361" x2="383" y2="361" style="stroke:#ff0000;stroke-width:1" />
    <line x1="383" y1="361" x2="325" y2="319" style="stroke:#ff0000;stroke-width:1" />
    <line x1="325" y1="319" x2="369" y2="319" style="stroke:#ff0000;stroke-width:1" />
    <line x1="369" y1="319" x2="334" y2="293" style="stroke:#ff0000;stroke-width:1" />
    <line x1="334" y1="293" x2="361" y2="293" style="stroke:#ff0000;stroke-width:1" />
    <line x1="361" y1="293" x2="339" y2="277" style="stroke:#ff0000;stroke-width:1" />
    <line x1="339" y1="277" x2="356" y2="277" style="stroke:#ff0000;stroke-width:1" />
    <line x1="356" y1="277" x2="342" y2="267" style="stroke:#ff0000;stroke-width:1" />
    <line x1="342" y1="267" x2="353" y2="267" style="stroke:#ff0000;stroke-width:1" />
    <line x1="353" y1="267" x2="344" y2="261" style="stroke:#ff0000;stroke-width:1" />
    <line x1="344" y1="261" x2="351" y2="261" style="stroke:#ff0000;stroke-width:1" />
    <line x1="351" y1="261" x2="345" y2="258" style="stroke:#ff0000;stroke-width:1" />
    <line x1="345" y1="258" x2="349" y2="258" style="stroke:#ff0000;stroke-width:1" />
    <line x1="521" y1="429" x2="427" y2="361" style="stroke:#ff0000;stroke-width:1" />
    <line x1="427" y1="361" x2="499" y2="361" style="stroke:#ff0000;stroke-width:1" />
    <line x1="499" y1="361" x2="441" y2="319" style="stroke:#ff0000;stroke-width:1" />
    <line x1="441" y1="319" x2="485" y2="319" style="stroke:#ff0000;stroke-width:1" />
    <line x1="485" y1="319" x2="449" y2="293" style="stroke:#ff0000;stroke-width:1" />
    <line x1="449" y1="293" x2="477" y2="293" style="stroke:#ff0000;stroke-width:1" />
    <line x1="477" y1="293" x2="455" y2="277" style="stroke:#ff0000;stroke-width:1" />
    <line x1="455" y1="277" x2="471" y2="277" style="stroke:#ff0000;stroke-width:1" />
    <line x1="471" y1="277" x2="458" y2="267" style="stroke:#ff0000;stroke-width:1" />
    <line x1="458" y1="267" x2="468" y2="267" style="stroke:#ff0000;stroke-width:1" />
    <line x1="468" y1="267" x2="460" y2="261" style="stroke:#ff0000;stroke-width:1" />
    <line x1="460" y1="261" x2="466" y2="261" style="stroke:#ff0000;stroke-width:1" />
    <line x1="466" y1="261" x2="461" y2="258" style="stroke:#ff0000;stroke-width:1" />
    <line x1="461" y1="258" x2="465" y2="258" style="stroke:#ff0000;stroke-width:1" />
    <line x1="578" y1="607" x2="485" y2="539" style="stroke:#ff0000;stroke-width:1" />
    <line x1="485" y1="539" x2="556" y2="539" style="stroke:#ff0000;stroke-width:1" />
    <line x1="556" y1="539" x2="499" y2="497" style="stroke:#ff0000;stroke-width:1" />
    <line x1="499" y1="497" x2="543" y2="497" style="stroke:#ff0000;stroke-width:1" />
    <line x1="543" y1="497" x2="507" y2="471" style="stroke:#ff0000;stroke-width:1" />
    <line x1="507" y1="471" x2="534" y2="471" style="stroke:#ff0000;stroke-width:1" />
    <line x1="534" y1="471" x2="512" y2="455" style="stroke:#ff0000;stroke-width:1" />
    <line x1="512" y1="455" x2="529" y2="455" style="stroke:#ff0000;stroke-width:1" />
    <line x1="529" y1="455" x2="516" y2="445" style="stroke:#ff0000;stroke-width:1" />
    <line x1="516" y1="445" x2="526" y2="445" style="stroke:#ff0000;stroke-width:1" />
    <line x1="526" y1="445" x2="517" y2="439" style="stroke:#ff0000;stroke-width:1" />
    <line x1="517" y1="439" x2="524" y2="439" style="stroke:#ff0000;stroke-width:1" />
    <line x1="524" y1="439" x2="519" y2="435" style="stroke:#ff0000;stroke-width:1" />
    <line x1="519" y1="435" x2="523" y2="435" style="stroke:#ff0000;stroke-width:1" />
    <line x1="463" y1="607" x2="369" y2="539" style="stroke:#ff0000;stroke-width:1" />
    <line x1="369" y1="539" x2="441" y2="539" style="stroke:#ff0000;stroke-width:1" />
    <line x1="441" y1="539" x2="383" y2="497" style="stroke:#ff0000;stroke-width:1" />
    <line x1="383" y1="497" x2="427" y2="497" style="stroke:#ff0000;stroke-width:1" />
    <line x1="427" y1="497" x2="392" y2="471" style="stroke:#ff0000;stroke-width:1" />
    <line x1="392" y1="471" x2="419" y2="471" style="stroke:#ff0000;stroke-width:1" />
    <line x1="419" y1="471" x2="397" y2="455" style="stroke:#ff0000;stroke-width:1" />
    <line x1="397" y1="455" x2="414" y2="455" style="stroke:#ff0000;stroke-width:1" />
    <line x1="414" y1="455" x2="400" y2="445" style="stroke:#ff0000;stroke-width:1" />
    <line x1="400" y1="445" x2="410" y2="445" style="stroke:#ff0000;stroke-width:1" />
    <line x1="410" y1="445" x2="402" y2="439" style="stroke:#ff0000;stroke-width:1" />
    <line x1="402" y1="439" x2="408" y2="439" style="stroke:#ff0000;stroke-width:1" />
    <line x1="408" y1="439" x2="403" y2="435" style="stroke:#ff0000;stroke-width:1" />
    <line x1="403" y1="435" x2="407" y2="435" style="stroke:#ff0000;stroke-width:1" />
    <line x1="347" y1="607" x2="254" y2="539" style="stroke:#ff0000;stroke-width:1" />
    <line x1="254" y1="539" x2="325" y2="539" style="stroke:#ff0000;stroke-width:1" />
    <line x1="325" y1="539" x2="268" y2="497" style="stroke:#ff0000;stroke-width:1" />
    <line x1="268" y1="497" x2="312" y2="497" style="stroke:#ff0000;stroke-width:1" />
    <line x1="312" y1="497" x2="276" y2="471" style="stroke:#ff0000;stroke-width:1" />
    <line x1="276" y1="471" x2="303" y2="471" style="stroke:#ff0000;stroke-width:1" />
    <line x1="303" y1="471" x2="281" y2="455" style="stroke:#ff0000;stroke-width:1" />
    <line x1="281" y1="455" x2="298" y2="455" style="stroke:#ff0000;stroke-width:1" />
    <line x1="298" y1="455" x2="284" y2="445" style="stroke:#ff0000;stroke-width:1" />
    <line x1="284" y1="445" x2="295" y2="445" style="stroke:#ff0000;stroke-width:1" />
    <line x1="295" y1="445" x2="286" y2="439" style="stroke:#ff0000;stroke-width:1" />
    <line x1="286" y1="439" x2="293" y2="439" style="stroke:#ff0000;stroke-width:1" />
    <line x1="293" y1="439" x2="288" y2="435" style="stroke:#ff0000;stroke-width:1" />
    <line x1="288" y1="435" x2="292" y2="435" style="stroke:#ff0000;stroke-width:1" />
    <line x1="232" y1="607" x2="138" y2="539" style="stroke:#ff0000;stroke-width:1" />
    <line x1="138" y1="539" x2="210" y2="539" style="stroke:#ff0000;stroke-width:1" />
    <line x1="210" y1="539" x2="152" y2="497" style="stroke:#ff0000;stroke-width:1" />
    <line x1="152" y1="497" x2="196" y2="497" style="stroke:#ff0000;stroke-width:1" />
    <line x1="196" y1="497" x2="160" y2="471" style="stroke:#ff0000;stroke-width:1" />
    <line x1="160" y1="471" x2="188" y2="471" style="stroke:#ff0000;stroke-width:1" />
    <line x1="188" y1="471" x2="166" y2="455" style="stroke:#ff0000;stroke-width:1" />
    <line x1="166" y1="455" x2="183" y2="455" style="stroke:#ff0000;stroke-width:1" />
    <line x1="183" y1="455" x2="169" y2="445" style="stroke:#ff0000;stroke-width:1" />
    <line x1="169" y1="445" x2="179" y2="445" style="stroke:#ff0000;stroke-width:1" />
    <line x1="179" y1="445" x2="171" y2="439" style="stroke:#ff0000;stroke-width:1" />
    <line x1="171" y1="439" x2="177" y2="439" style="stroke:#ff0000;stroke-width:1" />
    <line x1="177" y1="439" x2="172" y2="435" style="stroke:#ff0000;stroke-width:1" />
    <line x1="172" y1="435" x2="176" y2="435" style="stroke:#ff0000;stroke-width:1" />
    <line x1="174" y1="429" x2="268" y2="497" style="stroke:#ff0000;stroke-width:1" />
    <line x1="268" y1="497" x2="196" y2="497" style="stroke:#ff0000;stroke-width:1" />
    <line x1="196" y1="497" x2="254" y2="539" style="stroke:#ff0000;stroke-width:1" />
    <line x1="254" y1="539" x2="210" y2="539" style="stroke:#ff0000;stroke-width:1" />
    <line x1="210" y1="539" x2="245" y2="565" style="stroke:#ff0000;stroke-width:1" />
    <line x1="245" y1="565" x2="218" y2="565" style="stroke:#ff0000;stroke-width:1" />
    <line x1="218" y1="565" x2="240" y2="581" style="stroke:#ff0000;stroke-width:1" />
    <line x1="240" y1="581" x2="223" y2="581" style="stroke:#ff0000;stroke-width:1" />
    <line x1="223" y1="581" x2="237" y2="591" style="stroke:#ff0000;stroke-width:1" />
    <line x1="237" y1="591" x2="227" y2="591" style="stroke:#ff0000;stroke-width:1" />
    <line x1="227" y1="591" x2="235" y2="597" style="stroke:#ff0000;stroke-width:1" />
    <line x1="235" y1="597" x2="229" y2="597" style="stroke:#ff0000;stroke-width:1" />
    <line x1="229" y1="597" x2="234" y2="601" style="stroke:#ff0000;stroke-width:1" />
    <line x1="234" y1="601" x2="230" y2="601" style="stroke:#ff0000;stroke-width:1" />
    <line x1="290" y1="429" x2="383" y2="497" style="stroke:#ff0000;stroke-width:1" />
    <line x1="383" y1="497" x2="312" y2="497" style="stroke:#ff0000;stroke-width:1" />
    <line x1="312" y1="497" x2="369" y2="539" style="stroke:#ff0000;stroke-width:1" />
    <line x1="369" y1="539" x2="325" y2="539" style="stroke:#ff0000;stroke-width:1" />
    <line x1="325" y1="539" x2="361" y2="565" style="stroke:#ff0000;stroke-width:1" />
    <line x1="361" y1="565" x2="334" y2="565" style="stroke:#ff0000;stroke-width:1" />
    <line x1="334" y1="565" x2="356" y2="581" style="stroke:#ff0000;stroke-width:1" />
    <line x1="356" y1="581" x2="339" y2="581" style="stroke:#ff0000;stroke-width:1" />
    <line x1="339" y1="581" x2="353" y2="591" style="stroke:#ff0000;stroke-width:1" />
    <line x1="353" y1="591" x2="342" y2="591" style="stroke:#ff0000;stroke-width:1" />
    <line x1="342" y1="591" x2="351" y2="597" style="stroke:#ff0000;stroke-width:1" />
    <line x1="351" y1="597" x2="344" y2="597" style="stroke:#ff0000;stroke-width:1" />
    <line x1="344" y1="597" x2="349" y2="601" style="stroke:#ff0000;stroke-width:1" />
    <line x1="349" y1="601" x2="345" y2="601" style="stroke:#ff0000;stroke-width:1" />
    <line x1="405" y1="429" x2="499" y2="497" style="stroke:#ff0000;stroke-width:1" />
    <line x1="499" y1="497" x2="427" y2="497" style="stroke:#ff0000;stroke-width:1" />
    <line x1="427" y1="497" x2="485" y2="539" style="stroke:#ff0000;stroke-width:1" />
    <line x1="485" y1="539" x2="441" y2="539" style="stroke:#ff0000;stroke-width:1" />
    <line x1="441" y1="539" x2="477" y2="565" style="stroke:#ff0000;stroke-width:1" />
    <line x1="477" y1="565" x2="449" y2="565" style="stroke:#ff0000;stroke-width:1" />
    <line x1="449" y1="565" x2="471" y2="581" style="stroke:#ff0000;stroke-width:1" />
    <line x1="471" y1="581" x2="455" y2="581" style="stroke:#ff0000;stroke-width:1" />
    <line x1="455" y1="581" x2="468" y2="591" style="stroke:#ff0000;stroke-width:1" />
    <line x1="468" y1="591" x2="458" y2="591" style="stroke:#ff0000;stroke-width:1" />
    <line x1="458" y1="591" x2="466" y2="597" style="stroke:#ff0000;stroke-width:1" />
    <line x1="466" y1="597" x2="460" y2="597" style="stroke:#ff0000;stroke-width:1" />
    <line x1="460" y1="597" x2="465" y2="601" style="stroke:#ff0000;stroke-width:1" />
    <line x1="465" y1="601" x2="461" y2="601" style="stroke:#ff0000;stroke-width:1" />
</svg>